<?xml version="1.0" standalone="no"?>
<!DOCTYPE svg PUBLIC "-//W3C//DTD SVG 20010904//EN"
 "http://www.w3.org/TR/2001/REC-SVG-20010904/DTD/svg10.dtd">
<svg version="1.0" xmlns="http://www.w3.org/2000/svg"
 width="1200.000000pt" height="660.000000pt" viewBox="0 0 1200.000000 660.000000"
 preserveAspectRatio="xMidYMid meet">
<metadata>
Created by potrace 1.13, written by Peter Selinger 2001-2015
</metadata>
<g transform="translate(0.000000,660.000000) scale(0.100000,-0.100000)"
fill="#000000" stroke="none">
<path d="M5630 6179 c-30 -4 -89 -14 -130 -20 -102 -16 -355 -81 -465 -120
-840 -296 -1497 -956 -1788 -1796 -53 -151 -104 -363 -127 -525 -20 -133 -21
-181 -18 -470 4 -279 8 -340 27 -443 95 -520 312 -986 639 -1375 94 -112 294
-309 407 -400 242 -197 578 -382 878 -484 235 -80 403 -114 760 -156 283 -34
806 39 1132 157 39 14 95 34 125 45 84 30 287 129 397 193 520 305 947 782
1189 1326 64 143 126 317 119 329 -4 6 -23 1 -48 -14 -244 -142 -643 -155
-912 -29 -42 19 -137 73 -145 83 -3 3 -23 18 -45 34 -119 88 -239 248 -294
391 -13 33 -27 69 -31 80 -17 42 -29 104 -41 207 -13 112 -4 235 26 353 83
320 330 586 638 686 251 82 558 60 785 -55 29 -15 57 -24 61 -21 11 6 -45 167
-107 305 -364 818 -1074 1423 -1932 1646 -271 71 -393 84 -749 83 -163 -1
-321 -5 -351 -10z m380 -919 c0 -6 33 -10 80 -10 47 0 80 -4 80 -10 0 -5 18
-10 40 -10 22 0 40 -4 40 -10 0 -5 14 -10 30 -10 17 0 30 -4 30 -10 0 -5 14
-10 30 -10 17 0 30 -4 30 -10 0 -5 9 -10 20 -10 11 0 20 -4 20 -10 0 -5 8 -10
18 -10 10 0 24 -9 32 -20 8 -11 20 -20 27 -20 8 0 34 -20 58 -45 59 -58 62
-99 10 -150 -19 -19 -41 -35 -50 -35 -8 0 -15 -4 -15 -10 0 -5 -13 -10 -30
-10 -16 0 -30 -4 -30 -10 0 -5 -13 -10 -30 -10 -16 0 -30 -4 -30 -10 0 -5 -22
-10 -50 -10 -27 0 -50 -4 -50 -10 0 -6 -27 -10 -60 -10 -33 0 -60 -4 -60 -10
0 -6 -27 -10 -60 -10 -33 0 -60 -4 -60 -10 0 -6 -30 -10 -70 -10 -40 0 -70 -4
-70 -10 0 -6 -30 -10 -70 -10 -40 0 -70 -4 -70 -10 0 -6 -45 -10 -115 -10 -70
0 -115 4 -115 10 0 6 -18 10 -40 10 -22 0 -40 5 -40 10 0 6 -9 10 -20 10 -11
0 -20 5 -20 10 0 6 -7 10 -15 10 -20 0 -105 85 -105 105 0 8 -4 15 -10 15 -5
0 -10 16 -10 35 0 19 5 35 10 35 6 0 10 9 10 20 0 11 5 20 10 20 6 0 10 7 10
15 0 23 89 108 106 101 8 -3 14 1 14 10 0 11 6 15 20 11 11 -3 20 -1 20 5 0
18 28 38 54 38 14 0 26 5 26 10 0 6 14 10 30 10 17 0 30 5 30 10 0 6 14 10 30
10 17 0 30 5 30 10 0 6 33 10 80 10 47 0 80 4 80 10 0 6 38 10 95 10 57 0 95
-4 95 -10z m732 -991 c9 -5 27 -9 40 -9 28 0 141 -40 212 -75 62 -31 205 -133
220 -157 9 -15 -6 -34 -94 -124 -58 -58 -113 -110 -123 -115 -15 -8 -28 -4
-59 18 -138 95 -243 137 -368 147 -162 12 -305 -26 -416 -110 -118 -89 -184
-187 -235 -349 -38 -121 -29 -332 20 -458 78 -200 210 -325 405 -385 65 -19
262 -22 331 -3 83 22 262 116 273 143 2 4 12 8 22 8 23 0 230 -200 230 -222 0
-25 -128 -122 -233 -176 -47 -25 -98 -43 -237 -84 -60 -17 -378 -18 -437 0
-24 6 -62 17 -85 24 -75 20 -221 93 -287 144 -196 148 -325 352 -377 594 -19
86 -18 335 0 420 30 137 87 274 158 379 79 116 260 265 388 320 30 13 64 27
75 32 44 19 144 42 215 49 89 9 338 2 362 -11z m-1867 -9 c215 -58 336 -162
415 -355 31 -75 40 -252 19 -342 -35 -146 -93 -240 -238 -383 -106 -106 -129
-126 -231 -210 -30 -25 -57 -47 -60 -50 -3 -3 -30 -25 -60 -50 -30 -25 -57
-47 -60 -50 -3 -3 -48 -41 -100 -84 -52 -44 -97 -84 -99 -89 -2 -7 147 -9 435
-6 l439 4 3 -158 3 -157 -693 2 -693 3 -3 139 -3 138 38 32 c37 31 171 145
228 194 17 14 46 39 65 56 20 17 60 51 90 76 66 55 273 232 280 240 3 3 40 36
82 73 88 78 160 168 196 247 21 46 25 70 25 145 0 101 -17 147 -74 204 -61 62
-102 76 -219 75 -98 0 -109 -2 -173 -33 -54 -27 -87 -54 -167 -139 -97 -103
-99 -105 -122 -89 -81 56 -213 166 -216 179 -4 23 137 188 211 247 35 27 89
63 121 80 53 27 82 37 196 69 19 6 92 10 163 11 98 1 144 -4 202 -19z m848
-2377 c-18 -2 -33 -10 -33 -16 0 -9 -2 -9 -8 0 -4 6 -34 14 -67 16 -34 2 -17
3 40 4 55 0 85 -2 68 -4z m207 -43 c0 -6 37 -10 90 -10 53 0 90 -4 90 -10 0
-6 37 -10 90 -10 53 0 90 -4 90 -10 0 -6 30 -10 70 -10 40 0 70 -4 70 -10 0
-5 23 -10 50 -10 28 0 50 -4 50 -10 0 -5 18 -10 40 -10 22 0 40 -4 40 -10 0
-5 13 -10 28 -10 16 0 34 -8 42 -20 8 -11 20 -20 28 -20 7 0 24 -11 38 -25
l25 -25 -35 0 c-19 0 -37 6 -39 13 -3 6 -6 -23 -6 -66 -1 -54 -6 -83 -15 -93
-20 -19 -36 -18 -37 4 -1 16 -2 16 -6 0 -2 -9 -13 -20 -24 -23 -10 -4 -19 -11
-19 -16 0 -5 -20 -30 -45 -55 -38 -38 -51 -45 -78 -43 -35 3 -97 -18 -97 -32
0 -5 -9 -9 -20 -9 -11 0 -20 -4 -20 -10 0 -5 -13 -10 -30 -10 -16 0 -30 -4
-30 -10 0 -5 -13 -10 -30 -10 -16 0 -30 -5 -30 -11 0 -10 -23 -11 -245 -11
-245 0 -285 1 -285 12 0 5 -9 10 -20 10 -11 0 -20 5 -20 10 0 6 -12 10 -26 10
-14 0 -32 7 -40 15 -14 13 -14 15 1 15 9 0 14 4 11 9 -3 5 -15 7 -26 4 -11 -3
-35 1 -52 8 -18 7 -45 12 -61 10 -25 -2 -28 0 -25 21 2 19 -1 22 -19 20 -16
-2 -23 2 -23 13 0 18 -43 65 -60 65 -17 0 -40 26 -40 44 0 9 -4 16 -10 16 -5
0 -10 16 -10 35 0 24 5 35 15 35 11 0 15 -12 17 -42 l1 -43 6 45 c4 32 2 46
-6 48 -7 2 -13 8 -13 13 0 5 -9 9 -20 9 -11 0 -20 7 -20 15 0 8 5 15 10 15 6
0 10 7 10 15 0 23 68 88 86 81 7 -3 14 -1 14 5 0 16 26 39 44 39 9 0 16 5 16
10 0 6 18 10 40 10 22 0 40 5 40 10 0 6 78 10 215 10 137 0 215 -4 215 -10z"/>
<path d="M6365 5150 c3 -5 8 -10 11 -10 2 0 4 5 4 10 0 6 -5 10 -11 10 -5 0
-7 -4 -4 -10z"/>
<path d="M6415 5120 c10 -11 23 -16 29 -12 7 4 5 8 -6 10 -10 2 -18 8 -18 13
0 5 -5 9 -12 9 -6 0 -3 -8 7 -20z"/>
<path d="M5359 5073 l-34 -38 38 34 c34 33 42 41 34 41 -2 0 -19 -17 -38 -37z"/>
<path d="M6465 5090 c3 -5 8 -10 11 -10 2 0 4 5 4 10 0 6 -5 10 -11 10 -5 0
-7 -4 -4 -10z"/>
<path d="M6487 5065 c-4 -8 -2 -17 3 -20 6 -4 10 3 10 14 0 25 -6 27 -13 6z"/>
<path d="M6513 4995 c0 -27 2 -38 4 -22 2 15 2 37 0 50 -2 12 -4 0 -4 -28z"/>
<path d="M5310 5009 c0 -5 5 -7 10 -4 6 3 10 8 10 11 0 2 -4 4 -10 4 -5 0 -10
-5 -10 -11z"/>
<path d="M5293 4935 c0 -27 2 -38 4 -22 2 15 2 37 0 50 -2 12 -4 0 -4 -28z"/>
<path d="M6486 4942 c-2 -4 -1 -14 5 -22 7 -12 9 -10 9 8 0 23 -5 28 -14 14z"/>
<path d="M6445 4900 c-4 -6 3 -10 14 -10 25 0 27 6 6 13 -8 4 -17 2 -20 -3z"/>
<path d="M6405 4880 c-3 -5 1 -10 10 -10 9 0 13 5 10 10 -3 6 -8 10 -10 10 -2
0 -7 -4 -10 -10z"/>
<path d="M5340 4835 c19 -19 36 -35 39 -35 3 0 -10 16 -29 35 -19 19 -36 35
-39 35 -3 0 10 -16 29 -35z"/>
<path d="M6345 4860 c-4 -6 3 -10 14 -10 25 0 27 6 6 13 -8 4 -17 2 -20 -3z"/>
<path d="M5304 1718 l-29 -33 33 29 c17 17 32 31 32 33 0 8 -8 1 -36 -29z"/>
<path d="M6605 1710 c3 -5 8 -10 11 -10 2 0 4 5 4 10 0 6 -5 10 -11 10 -5 0
-7 -4 -4 -10z"/>
<path d="M6655 1680 c10 -11 20 -18 23 -16 5 6 -23 36 -34 36 -4 0 1 -9 11
-20z"/>
<path d="M6625 1620 c-8 -13 8 -18 29 -10 19 6 19 7 -2 12 -12 4 -24 2 -27 -2z"/>
<path d="M6653 1555 c0 -27 2 -38 4 -22 2 15 2 37 0 50 -2 12 -4 0 -4 -28z"/>
<path d="M5370 1466 c0 -11 30 -39 36 -34 2 3 -5 13 -16 23 -11 10 -20 15 -20
11z"/>
<path d="M6536 1451 c-11 -13 -14 -21 -7 -26 6 -3 11 1 11 9 0 8 8 16 18 18
11 2 13 6 6 10 -6 4 -19 -1 -28 -11z"/>
<path d="M6481 1396 c-10 -12 -8 -13 8 -9 12 3 18 9 15 14 -7 12 -10 11 -23
-5z"/>
<path d="M6325 1340 c-3 -5 -1 -10 4 -10 6 0 11 5 11 10 0 6 -2 10 -4 10 -3 0
-8 -4 -11 -10z"/>
<path d="M6265 1320 c-3 -5 -1 -10 4 -10 6 0 11 5 11 10 0 6 -2 10 -4 10 -3 0
-8 -4 -11 -10z"/>
<path d="M8145 3954 c-210 -44 -373 -171 -459 -358 -33 -72 -66 -218 -66 -295
0 -224 119 -456 292 -569 257 -168 590 -135 799 79 80 82 131 176 170 313 36
127 36 195 4 322 -68 260 -237 440 -470 499 -54 14 -219 19 -270 9z"/>
</g>
</svg>
