<?xml version="1.0" standalone="no"?>
<!DOCTYPE svg PUBLIC "-//W3C//DTD SVG 20010904//EN"
 "http://www.w3.org/TR/2001/REC-SVG-20010904/DTD/svg10.dtd">
<svg version="1.0" xmlns="http://www.w3.org/2000/svg"
 width="1200.000000pt" height="660.000000pt" viewBox="0 0 1200.000000 660.000000"
 preserveAspectRatio="xMidYMid meet">
<metadata>
Created by potrace 1.13, written by Peter Selinger 2001-2015
</metadata>
<g transform="translate(0.000000,660.000000) scale(0.100000,-0.100000)"
fill="#000000" stroke="none">
<path d="M3046 6164 c-8 -7 -10 -849 -8 -2877 l2 -2867 2965 0 2965 0 0 2875
c0 1581 -3 2875 -7 2875 -4307 5 -5908 4 -5917 -6z m5189 -343 c52 -24 89 -64
116 -126 25 -56 24 -88 -11 -440 -30 -308 -38 -394 -60 -620 -11 -115 -38
-394 -60 -620 -81 -829 -96 -976 -110 -1135 -6 -63 -15 -158 -20 -210 -5 -52
-14 -144 -20 -205 -6 -60 -15 -150 -20 -200 -5 -49 -23 -227 -40 -395 -90
-920 -89 -908 -110 -947 -26 -50 -38 -64 -80 -93 l-35 -25 -542 -3 -542 -3 -3
-112 -3 -112 -710 0 -710 0 -3 113 -3 112 -537 0 c-344 0 -551 4 -575 11 -52
14 -101 60 -124 116 -13 29 -25 95 -32 168 -11 113 -70 703 -91 918 -41 407
-43 424 -90 917 -22 234 -74 765 -115 1180 -42 415 -84 850 -96 965 -11 116
-26 275 -34 354 -8 79 -15 162 -15 185 0 82 65 177 145 212 24 11 443 13 2260
13 2150 1 2231 0 2270 -18z"/>
<path d="M7435 5126 c-335 -172 -589 -335 -840 -540 -145 -118 -378 -351 -491
-491 -168 -208 -324 -477 -404 -695 -36 -99 -92 -311 -85 -319 3 -3 266 -4
583 -4 l577 2 18 67 c72 272 352 609 661 794 21 13 73 38 115 56 l76 33 5 588
c3 324 3 594 1 601 -2 6 -6 12 -10 12 -3 0 -96 -47 -206 -104z"/>
<path d="M4354 5171 c-2 -2 -4 -244 -4 -537 0 -387 3 -535 11 -540 13 -8 1494
-6 1512 2 7 3 30 32 52 66 130 199 439 473 830 735 137 91 335 208 412 243 29
13 51 26 48 28 -6 6 -2855 9 -2861 3z"/>
<path d="M7438 2956 c-21 -7 -49 -21 -63 -30 -32 -21 -42 -20 -48 4 -5 20 -12
20 -124 18 l-118 -3 -3 -399 c-2 -313 1 -401 10 -408 15 -9 199 -11 222 -2 14
5 16 42 16 305 0 296 0 298 22 313 30 21 71 20 97 -1 20 -18 21 -26 24 -318
l2 -300 120 0 120 0 0 367 c0 355 -1 367 -21 394 -40 54 -70 68 -147 71 -43 2
-87 -2 -109 -11z"/>
<path d="M4262 2543 l3 -408 225 0 225 0 3 65 c5 111 7 109 -106 112 l-97 3 0
70 0 70 95 3 c60 2 97 7 102 15 13 21 10 137 -4 138 -7 0 -50 0 -95 -1 -55 -1
-84 3 -89 11 -6 10 -9 93 -5 139 1 5 45 11 99 12 l97 3 0 85 0 85 -228 3 -227
2 2 -407z"/>
<path d="M4809 2945 c-7 -6 1 -796 7 -807 7 -11 415 -10 433 1 8 5 11 32 9 87
l-3 79 -95 5 -95 5 -3 318 -2 317 -123 0 c-68 0 -126 -2 -128 -5z"/>
<path d="M5337 2943 c-4 -3 -7 -186 -7 -405 l0 -398 225 0 225 0 0 80 0 80
-88 0 c-55 0 -92 4 -100 12 -16 16 -16 130 0 146 7 7 45 12 99 12 48 0 89 4
91 10 2 5 1 37 0 70 l-4 60 -93 0 c-65 0 -94 4 -97 13 -3 10 -2 107 1 140 1 4
39 7 85 7 46 0 90 2 98 5 9 4 13 26 11 83 0 42 -2 80 -2 85 -1 9 -435 10 -444
0z"/>
<path d="M5846 2942 c-3 -5 -1 -26 4 -48 5 -21 18 -100 30 -174 11 -74 30
-191 41 -260 11 -69 24 -152 29 -185 5 -33 12 -77 15 -97 l6 -38 159 0 159 0
10 38 c5 20 14 64 20 97 6 33 19 105 30 160 11 55 29 152 41 215 12 63 28 147
36 187 23 119 26 113 -65 113 -51 0 -82 -4 -88 -12 -5 -7 -15 -44 -22 -83 -7
-38 -16 -90 -21 -115 -5 -25 -14 -74 -20 -110 -18 -102 -31 -173 -36 -199 -8
-41 -24 -9 -40 80 -8 46 -20 109 -25 139 -6 30 -14 80 -19 110 -21 127 -29
171 -35 180 -7 12 -202 14 -209 2z"/>
<path d="M6520 2555 c0 -217 -1 -398 -2 -402 -3 -8 416 -21 440 -14 8 2 12 27
12 82 0 76 -1 79 -26 85 -14 4 -56 4 -94 2 -42 -3 -73 -1 -79 5 -17 17 -14
132 3 146 9 8 45 11 94 10 44 -1 85 1 91 5 6 4 11 34 11 71 l0 64 -102 3 -103
3 -3 69 c-2 39 2 74 8 80 6 6 45 9 93 8 45 -2 88 1 95 6 9 6 12 31 10 88 l-3
79 -222 3 -223 2 0 -395z"/>
<path d="M5433 2027 c-18 -29 -52 -615 -60 -1014 l-6 -353 625 0 625 0 6 468
c4 257 14 564 22 682 7 118 12 216 9 219 -8 8 -1216 6 -1221 -2z"/>
</g>
</svg>
