<svg xmlns="http://www.w3.org/2000/svg" width="340" height="190" viewBox="0 0 340 190">
  <defs>
    <style>
      .cls-1 {
        fill-rule: evenodd;
      }
    </style>
  </defs>
  <path id="A_Pay" data-name="A Pay" class="cls-1" d="M128.82,59.337h0.486c2.58-3.8,12.612-5.643,17.479-2.731,4.32,2.585,5.976,6.562,7.283,12.209a26.2,26.2,0,0,1-.324,8.193c-1.683,6.81-3.251,10.427-9.549,12.691a14.779,14.779,0,0,1-7.606.643c-2.985-.745-4.9-2.187-7.122-3.534V102.55a5.386,5.386,0,0,1-.647.643c-0.94.743-4.664,0.41-5.665,0-1.124-1.98-.485-8.546-0.485-11.567V67.048c0-3.268-.644-8.348.485-10.763,1.733-.253,5.159-0.781,5.341,1.124A3.547,3.547,0,0,1,128.82,59.337ZM172.68,55c5.892-.072,11.017,1.418,12.786,5.462a24.748,24.748,0,0,1,.971,4.177V82.791c0,1.412.371,5.519-.162,6.426-0.515.876-3.658,0.5-5.017,0.482a19.455,19.455,0,0,1-1.133-3.213c-0.533.351-.943,0.945-1.457,1.285a23.609,23.609,0,0,1-7.768,2.891,10.611,10.611,0,0,1-4.37-.321c-5.147-1.388-6.426-2.859-7.607-8.193a10.567,10.567,0,0,1,.324-5.141,11.279,11.279,0,0,1,6.959-6.265,33.954,33.954,0,0,1,3.4-.482,12.273,12.273,0,0,1,4.208-.161,57.148,57.148,0,0,0,5.988.964c0.518-.8.163-3.188,0.162-4.337-0.008-5.851-4.66-7.28-10.52-5.944-1.3.3-2.194-.05-3.4,0.321-1.473.454-3.143,1.246-4.855,0.964a10.142,10.142,0,0,1,.162-4.337,35.849,35.849,0,0,1,6.15-2.088C168.731,55.333,171.922,55.658,172.68,55Zm18.45,1.124c1.959-.011,4.111.035,5.826,0.161,1.366,2.275,2.029,4.988,3.076,7.711,1.581,4.115,3.281,8.581,4.855,12.691,0.847,2.212,1.317,4.377,2.266,6.426h0.323c0.237-2.258,2.037-6.205,2.914-8.193,0.4-.9.293-1.648,0.647-2.57,1.165-3.031,2.415-6.429,3.561-9.478,0.65-1.732,1.336-6.389,3.236-6.586,0.9-.583,4.2-0.206,5.179,0a2.7,2.7,0,0,1,.324.964c-0.561.779-.546,1.792-0.971,2.731-1.189,2.628-2,5.414-3.237,8.193-3.079,6.926-5.616,14.456-8.739,21.365-1.647,3.644-2.43,7.493-4.532,10.6a9.869,9.869,0,0,1-6.15,4.016c-2.349.584-6.933-.093-7.121-1.767a4.738,4.738,0,0,1,.162-3.374c1.126-.91,2.814.412,4.531,0a6.34,6.34,0,0,0,4.046-2.41c0.975-1.476,1.277-3.19,1.942-4.98,0.179-.481.885-1.089,0.648-1.928a57.241,57.241,0,0,0-3.237-7.39c-2.591-5.7-4.347-11.438-6.8-17.189-1.034-2.427-3.151-5.635-3.236-8.675A1.77,1.77,0,0,0,191.13,56.125Zm-53.894,4.337c-0.579.357-1.308,0.1-2.1,0.321-1.13.315-5.287,1.947-5.665,2.731V81.988A26.847,26.847,0,0,0,134,84.558a9.492,9.492,0,0,0,12.3-4.5,15.42,15.42,0,0,0,.971-6.265C147.272,65.623,145.507,60.38,137.236,60.462Zm42.727,15.1c-5.25-.741-11.559-2.26-13.919,2.41a4.952,4.952,0,0,0-.647,3.373c1.923,7.524,10.667,3.33,14.566.964V75.562Zm44.669,30.522c4.429-.1,8.213.319,10.358,2.571a27.109,27.109,0,0,1-5.179,17.028c-1.038,1.535-2.423,4.124-4.855,4.176a2.434,2.434,0,0,1-.324-1.445c0.766-.7.86-2.19,1.295-3.213,1.422-3.347,3.725-8.065,2.589-12.691-2.349-1.372-7.342-1.719-10.843-.964h-2.266a12.486,12.486,0,0,1-4.37.321,1.744,1.744,0,0,0-.324-0.481,0.548,0.548,0,0,1,.162-0.322c0.783-2.462,7.42-3.947,10.358-4.658C222.4,106.124,223.771,106.626,224.632,106.084Zm-117.985,2.571c2.093,0,4.723,2.2,6.312,3.052,4.481,2.41,9.474,4.2,14.243,6.265,1.857,0.806,3.535.929,5.5,1.606,3.446,1.187,7.482,2.147,11.168,3.213,2.882,0.834,5.915.915,8.739,1.607,3.965,0.971,8.617.367,12.624,1.285h4.532c3.291,0,7.251.312,10.034-.322h2.751c1.722-.4,3.777-0.183,5.665-0.642,2.472-.6,5.209-0.6,7.768-1.285,4.654-1.254,9.446-2,13.919-3.534,2.353-.807,4.9-1.578,7.283-2.571,1.716-.715,3.235-1.893,5.665-1.445l0.809,0.963v1.286c-7.439,6.657-17.531,10.1-28.161,13.654-3.448,1.154-7.292,1.356-10.844,2.249H183.2C179.1,135,175.276,135,170.414,135h-6.15c-4.048-.842-9.83-0.705-14.081-1.928-3.183-.916-6.59-1.435-9.71-2.57a110.739,110.739,0,0,1-14.728-6.426,97.313,97.313,0,0,1-9.549-5.462c-1.9-1.32-3.663-2.977-5.5-4.337-1.488-1.1-4.513-2.548-4.693-4.819A4.234,4.234,0,0,0,106.647,108.655Z"/>
</svg>
