<?xml version="1.0" standalone="no"?>
<!DOCTYPE svg PUBLIC "-//W3C//DTD SVG 20010904//EN"
 "http://www.w3.org/TR/2001/REC-SVG-20010904/DTD/svg10.dtd">
<svg version="1.0" xmlns="http://www.w3.org/2000/svg"
 width="1200.000000pt" height="660.000000pt" viewBox="0 0 1200.000000 660.000000"
 preserveAspectRatio="xMidYMid meet">
<metadata>
Created by potrace 1.13, written by Peter Selinger 2001-2015
</metadata>
<g transform="translate(0.000000,660.000000) scale(0.100000,-0.100000)"
fill="#000000" stroke="none">
<path d="M1635 4685 c-547 -87 -995 -464 -1159 -975 -131 -407 -69 -855 169
-1209 211 -314 530 -526 922 -613 133 -29 423 -32 558 -4 305 61 552 192 766
406 206 205 330 432 391 713 32 146 32 408 0 554 -62 287 -181 503 -391 714
-194 193 -391 308 -661 383 -162 45 -423 58 -595 31z m246 -387 c7 -13 85
-133 174 -268 89 -135 219 -333 290 -440 71 -107 206 -313 302 -458 95 -145
173 -269 173 -277 0 -18 -49 -101 -105 -180 -53 -74 -199 -215 -222 -215 -12
1 -61 65 -143 188 -378 564 -486 721 -495 721 -5 0 -100 -135 -210 -301 -110
-166 -249 -373 -308 -460 l-108 -159 -32 23 c-92 66 -213 209 -274 325 l-33
64 68 102 c38 56 93 140 123 187 30 47 124 191 210 320 85 129 184 280 220
335 172 267 340 515 349 515 5 0 15 -10 21 -22z"/>
<path d="M7530 4361 c-75 -16 -143 -69 -183 -145 -28 -53 -30 -174 -4 -223 88
-166 295 -205 425 -80 98 94 108 255 21 360 -55 67 -172 106 -259 88z"/>
<path d="M6175 4220 c-210 -5 -220 -6 -223 -25 -11 -70 -162 -821 -205 -1015
-43 -201 -51 -251 -51 -345 -1 -101 2 -115 28 -173 51 -110 143 -171 304 -199
159 -28 406 9 567 87 211 101 357 280 431 526 22 74 27 110 28 214 1 147 -13
204 -73 297 -74 114 -164 162 -326 170 -109 6 -186 -11 -288 -63 -38 -19 -72
-33 -75 -30 -5 6 19 115 88 391 28 112 35 153 27 160 -8 6 -92 8 -232 5z m362
-820 c52 -31 68 -72 66 -170 0 -65 -6 -100 -26 -152 -68 -177 -197 -297 -319
-298 -39 0 -54 6 -80 29 -33 29 -33 30 -32 118 2 161 70 340 160 422 77 71
167 91 231 51z"/>
<path d="M10509 4218 c-9 -7 -21 -42 -28 -78 -33 -182 -109 -570 -169 -860
-61 -296 -67 -336 -67 -445 0 -103 3 -127 23 -171 85 -189 346 -256 691 -178
150 35 295 112 397 214 81 80 115 127 164 233 53 113 80 215 87 327 10 169
-32 296 -129 394 -74 73 -140 98 -279 104 -122 5 -180 -8 -297 -65 -40 -20
-75 -34 -77 -31 -2 2 27 127 65 277 39 150 67 277 64 282 -9 15 -427 11 -445
-3z m567 -813 c96 -40 99 -232 8 -406 -85 -162 -244 -256 -343 -204 -59 30
-69 120 -31 265 37 144 49 174 98 242 70 100 178 141 268 103z"/>
<path d="M4736 4200 c-27 -11 -62 -32 -78 -47 -16 -15 -122 -206 -240 -432
-116 -222 -309 -589 -430 -815 -120 -226 -216 -416 -213 -423 3 -10 58 -13
234 -13 126 0 237 3 246 7 10 3 64 101 126 230 l108 223 244 0 245 0 6 -32 c3
-18 10 -109 16 -203 6 -93 13 -180 16 -192 l4 -23 239 0 c171 0 240 3 243 11
2 7 -4 71 -14 143 -51 372 -105 800 -153 1231 -21 182 -39 336 -41 343 -3 9
-62 12 -256 12 -225 -1 -258 -3 -302 -20z m184 -481 c23 -241 30 -317 36 -376
l7 -63 -161 0 -162 0 10 25 c16 42 233 499 243 513 5 7 12 11 14 9 2 -2 8 -51
13 -108z"/>
<path d="M8346 4140 c-62 -24 -119 -79 -145 -140 -11 -26 -30 -98 -42 -161
-12 -63 -26 -120 -32 -126 -6 -9 -39 -13 -98 -13 -84 0 -89 -1 -94 -22 -36
-158 -51 -254 -41 -261 6 -4 46 -6 89 -6 43 1 80 0 82 -3 3 -3 -23 -133 -56
-289 -70 -322 -80 -408 -54 -474 21 -58 76 -112 145 -144 48 -23 71 -26 180
-29 126 -4 215 3 237 16 10 6 73 274 73 309 0 4 -34 8 -75 8 -68 0 -77 2 -102
28 -25 24 -28 34 -27 90 1 48 64 378 90 470 5 15 20 17 139 17 90 0 136 4 141
12 11 17 63 262 57 271 -2 4 -62 7 -133 7 -71 0 -131 4 -134 9 -6 8 7 66 69
328 14 57 25 107 25 113 0 6 -46 10 -122 10 -97 -1 -134 -5 -172 -20z"/>
<path d="M9655 3753 c-233 -19 -387 -71 -531 -178 -173 -129 -301 -356 -333
-587 -25 -183 36 -365 150 -448 173 -125 425 -96 601 69 36 33 68 61 72 61 3
0 6 -43 6 -95 l0 -95 180 0 c211 0 186 -24 194 190 8 189 17 262 65 482 22
101 57 261 78 356 30 138 35 175 24 181 -40 25 -379 77 -451 69 -8 -1 -33 -3
-55 -5z m42 -317 c4 -4 -6 -66 -21 -139 -15 -73 -32 -152 -37 -177 -14 -70
-87 -207 -141 -262 -75 -77 -143 -96 -205 -58 -41 25 -62 65 -69 137 -8 81 9
164 55 260 65 135 154 214 271 240 54 12 135 12 147 -1z"/>
<path d="M7335 3678 c-2 -13 -25 -124 -50 -248 -57 -281 -116 -559 -161 -759
-19 -85 -34 -163 -32 -174 3 -17 14 -18 201 -18 108 0 201 0 207 1 5 0 12 17
16 38 6 34 220 1109 231 1160 l5 22 -206 0 c-205 0 -206 0 -211 -22z"/>
</g>
</svg>
