<?xml version="1.0" standalone="no"?>
<!DOCTYPE svg PUBLIC "-//W3C//DTD SVG 20010904//EN"
 "http://www.w3.org/TR/2001/REC-SVG-20010904/DTD/svg10.dtd">
<svg version="1.0" xmlns="http://www.w3.org/2000/svg"
 width="1200.000000pt" height="660.000000pt" viewBox="0 0 1200.000000 660.000000"
 preserveAspectRatio="xMidYMid meet">
<metadata>
Created by potrace 1.13, written by Peter Selinger 2001-2015
</metadata>
<g transform="translate(0.000000,660.000000) scale(0.100000,-0.100000)"
fill="#000000" stroke="none">
<path d="M2119 4447 c-91 -22 -188 -100 -231 -186 -21 -42 -23 -62 -26 -243
-4 -222 2 -209 -87 -204 -27 2 -56 -2 -62 -7 -18 -13 -17 -141 0 -155 7 -6 42
-12 77 -14 l65 -3 2 -419 c1 -231 5 -426 7 -433 7 -18 161 -18 173 0 4 6 8
201 8 432 l0 420 140 2 c198 4 185 -3 185 93 0 57 -4 80 -12 81 -7 1 -75 1
-151 -1 -96 -1 -142 2 -152 10 -17 14 -19 122 -6 275 l8 89 46 42 c52 47 90
57 202 53 36 -1 70 2 76 8 21 21 49 162 33 164 -67 5 -270 3 -295 -4z"/>
<path d="M2677 4449 c-17 -10 -18 -30 -16 -313 2 -166 0 -307 -4 -313 -4 -7
-30 -9 -66 -7 -79 5 -91 -7 -91 -90 0 -40 5 -68 13 -74 7 -6 44 -12 82 -14
l70 -3 0 -300 1 -300 34 -70 c41 -82 108 -142 194 -174 47 -18 79 -21 191 -21
75 0 136 4 140 10 6 10 -24 138 -38 157 -5 7 -49 13 -117 15 -103 3 -110 4
-146 33 -74 60 -75 66 -72 375 l3 275 149 3 c90 1 155 7 163 14 8 7 13 34 13
79 0 58 -3 70 -20 79 -12 6 -75 11 -153 10 -72 -1 -138 -1 -146 -1 -12 1 -13
50 -9 307 4 256 3 308 -9 320 -17 17 -138 19 -166 3z"/>
<path d="M10040 4222 c-66 -33 -87 -52 -113 -100 -57 -106 -45 -168 71 -363
38 -63 80 -135 95 -160 44 -77 37 -78 196 13 79 45 145 87 147 93 3 6 -11 38
-31 70 -19 32 -35 65 -35 72 0 29 43 33 349 33 267 0 312 -2 325 -16 19 -19
26 -3 -132 -279 -148 -258 -179 -305 -197 -305 -15 0 -70 68 -80 100 -11 35
-36 31 -128 -22 -50 -29 -111 -65 -136 -79 -62 -36 -69 -50 -44 -85 11 -16 38
-63 60 -104 73 -136 134 -235 166 -268 32 -33 119 -72 162 -72 53 0 134 40
176 88 23 26 119 182 214 347 94 165 221 386 281 490 148 256 149 258 148 336
0 99 -52 177 -143 215 -28 12 -145 14 -675 14 -592 -1 -644 -2 -676 -18z"/>
<path d="M9395 4024 c-72 -19 -128 -67 -177 -153 -17 -31 -77 -135 -133 -231
-456 -784 -455 -782 -455 -853 0 -66 36 -145 82 -180 66 -51 103 -57 332 -57
116 0 217 4 224 8 9 7 12 49 10 178 l-3 169 -80 5 -80 5 0 30 c0 20 45 108
139 272 161 279 177 303 202 287 27 -16 326 -543 322 -568 -3 -19 -10 -21 -84
-24 l-81 -3 -7 -163 c-4 -89 -4 -170 0 -179 5 -15 30 -17 236 -17 226 0 230 0
284 26 66 31 108 84 123 154 18 82 4 131 -75 265 -28 50 -139 241 -244 425
-327 569 -312 546 -388 584 -35 18 -113 28 -147 20z"/>
<path d="M6760 3845 c-218 -47 -352 -157 -427 -348 -26 -66 -28 -83 -28 -202
0 -139 9 -177 63 -275 86 -153 208 -237 404 -277 69 -14 90 -14 152 -3 71 13
136 39 168 67 16 15 35 2 23 -16 -3 -5 2 -17 11 -25 12 -13 39 -16 137 -16 67
0 129 5 137 10 13 8 15 79 16 535 1 497 0 526 -17 535 -10 6 -72 10 -138 10
-127 0 -155 -9 -144 -49 7 -27 -11 -33 -38 -12 -38 29 -80 48 -147 65 -72 18
-94 18 -172 1z m160 -288 c86 -31 132 -70 171 -147 34 -65 32 -166 -4 -236
-46 -91 -144 -154 -238 -154 -83 0 -187 69 -232 154 -31 58 -31 184 0 242 60
113 200 178 303 141z"/>
<path d="M5545 3841 c-42 -8 -99 -34 -127 -58 -18 -16 -40 -10 -33 10 12 32
-10 38 -151 35 l-139 -3 -2 -837 c-3 -832 -3 -838 17 -838 22 0 196 53 248 76
l33 14 -2 291 c-1 159 1 292 3 295 3 2 31 -11 63 -31 72 -43 105 -50 220 -49
297 2 525 238 527 544 1 160 -49 287 -157 395 -105 105 -216 154 -364 160 -53
2 -114 0 -136 -4z m191 -288 c70 -24 147 -103 168 -173 9 -30 16 -68 16 -85 0
-59 -29 -131 -72 -180 -132 -150 -344 -117 -440 68 -33 63 -31 165 5 233 64
125 196 181 323 137z"/>
<path d="M865 3822 c-97 -30 -166 -71 -235 -141 -76 -76 -106 -126 -143 -238
-31 -93 -36 -202 -12 -260 8 -19 15 -42 15 -49 0 -24 49 -121 87 -171 48 -63
85 -96 155 -138 84 -50 142 -67 249 -72 123 -7 204 16 313 87 42 27 79 50 81
50 2 0 5 -26 7 -57 l3 -58 78 -3 c51 -2 84 1 93 9 22 18 20 1002 -2 1024 -11
10 -36 15 -79 15 -91 0 -95 -3 -95 -66 0 -30 -2 -54 -6 -54 -3 0 -32 19 -66
41 -101 69 -168 91 -283 95 -76 3 -115 -1 -160 -14z m288 -192 c38 -14 76 -39
111 -74 223 -218 92 -591 -219 -623 -59 -6 -165 19 -210 49 -127 88 -181 190
-173 333 5 94 28 153 84 215 110 121 256 157 407 100z"/>
<path d="M4825 3820 c-81 -21 -155 -52 -195 -80 -41 -29 -53 -26 -47 13 8 57
-4 67 -86 67 -40 0 -78 -4 -86 -9 -11 -7 -14 -96 -16 -512 -1 -316 2 -509 8
-516 13 -18 166 -18 173 0 2 7 6 147 7 312 2 266 5 306 22 350 34 90 144 180
245 200 74 14 74 14 100 117 22 84 3 92 -125 58z"/>
<path d="M7514 3825 c-6 -14 19 -79 215 -562 39 -95 99 -246 134 -336 l64
-164 -99 -234 c-54 -129 -102 -243 -107 -254 -34 -76 -41 -95 -41 -114 0 -21
3 -21 156 -19 154 3 155 3 169 28 8 14 60 142 116 285 170 435 426 1073 493
1230 7 17 19 46 26 65 7 19 18 41 23 48 6 8 5 17 -3 27 -19 23 -292 22 -311
-1 -7 -9 -67 -151 -133 -317 -67 -166 -125 -302 -130 -302 -5 0 -50 101 -98
225 -49 124 -93 234 -98 245 -5 11 -21 49 -35 84 -14 36 -31 68 -38 73 -6 4
-76 8 -155 8 -118 0 -144 -3 -148 -15z"/>
<path d="M3675 3819 c-133 -21 -248 -96 -324 -209 -66 -99 -91 -172 -98 -287
-11 -163 43 -309 157 -424 141 -143 308 -180 509 -113 102 34 222 117 221 153
-1 14 -117 91 -138 91 -4 0 -27 -14 -49 -30 -89 -65 -212 -86 -307 -53 -100
36 -202 165 -208 264 l-3 44 403 3 402 2 0 60 c0 96 -33 203 -88 283 -78 113
-209 200 -319 212 -32 3 -69 7 -83 9 -14 1 -47 -1 -75 -5z m199 -200 c81 -40
178 -162 163 -203 -6 -14 -40 -16 -292 -16 -319 0 -312 -2 -276 69 41 79 106
136 190 168 53 20 157 11 215 -18z"/>
</g>
</svg>
