<?xml version="1.0" standalone="no"?>
<!DOCTYPE svg PUBLIC "-//W3C//DTD SVG 20010904//EN"
 "http://www.w3.org/TR/2001/REC-SVG-20010904/DTD/svg10.dtd">
<svg version="1.0" xmlns="http://www.w3.org/2000/svg"
 width="1200.000000pt" height="660.000000pt" viewBox="0 0 1200.000000 660.000000"
 preserveAspectRatio="xMidYMid meet">
<metadata>
Created by potrace 1.13, written by Peter Selinger 2001-2015
</metadata>
<g transform="translate(0.000000,660.000000) scale(0.100000,-0.100000)"
fill="#000000" stroke="none">
<path d="M2260 4744 c-189 -24 -371 -79 -588 -178 -451 -207 -825 -486 -1048
-781 -171 -227 -237 -397 -214 -552 27 -189 230 -350 412 -327 162 20 288 87
561 297 166 128 409 290 647 433 338 204 450 249 610 248 113 0 167 -21 226
-86 183 -203 118 -597 -162 -967 -289 -385 -958 -871 -1198 -871 -67 0 -86 18
-86 82 0 70 72 171 264 367 206 212 239 256 244 331 4 50 1 60 -24 89 -80 95
-261 109 -412 32 -56 -28 -164 -131 -218 -207 -81 -114 -172 -331 -181 -436
-13 -133 70 -283 189 -344 42 -21 60 -24 162 -24 148 0 241 24 406 103 132 63
353 199 470 287 19 15 62 46 95 70 188 139 415 350 544 510 230 284 372 584
415 883 20 135 20 201 1 313 -52 304 -196 500 -460 629 -108 52 -202 79 -349
100 -128 18 -164 17 -306 -1z"/>
<path d="M5985 4746 c-134 -30 -214 -113 -245 -253 -12 -54 -9 -85 17 -163 69
-207 357 -258 518 -93 55 58 91 158 82 233 -16 137 -121 251 -255 279 -29 6
-56 10 -60 10 -4 -1 -29 -7 -57 -13z"/>
<path d="M11220 4549 c-14 -4 -54 -12 -90 -18 -195 -32 -307 -53 -320 -60 -13
-7 -15 -134 -12 -1072 4 -1164 3 -1141 63 -1260 15 -31 50 -79 77 -107 123
-126 271 -179 512 -184 l125 -3 0 165 0 165 -40 7 c-22 4 -65 12 -96 18 -31 6
-75 23 -98 38 -77 50 -72 -38 -72 1191 0 831 -3 1103 -12 1113 -8 10 -20 12
-37 7z"/>
<path d="M8325 4530 c-22 -4 -74 -13 -115 -20 -41 -6 -104 -16 -140 -22 -36
-5 -71 -13 -79 -17 -12 -6 -14 -168 -13 -1088 l1 -1080 26 -79 c14 -43 42
-103 62 -132 69 -101 200 -182 353 -217 92 -21 324 -33 343 -17 10 9 12 45 10
154 -2 79 -3 148 -3 154 0 7 -34 17 -82 23 -47 7 -107 23 -137 38 -44 21 -57
34 -75 72 -21 45 -21 57 -24 660 -2 348 1 618 6 623 5 5 70 10 145 13 75 2
141 6 146 9 5 3 8 83 7 178 l-1 173 -145 3 c-79 1 -147 7 -150 11 -3 5 -5 136
-4 290 l0 281 -45 -1 c-25 -1 -64 -5 -86 -9z"/>
<path d="M7345 3995 c-247 -46 -439 -135 -618 -288 -68 -59 -102 -113 -114
-182 -4 -27 -7 -409 -5 -847 l2 -798 235 0 235 0 0 804 0 803 59 27 c116 52
203 69 365 70 l148 2 21 39 c55 106 157 340 153 350 -12 32 -345 45 -481 20z"/>
<path d="M4600 3990 c-148 -32 -232 -55 -313 -87 -92 -35 -247 -109 -247 -118
0 -7 39 -103 64 -160 12 -27 33 -76 45 -107 13 -32 27 -58 31 -58 4 0 52 20
106 44 208 92 362 125 487 106 130 -19 209 -75 252 -176 17 -41 38 -171 31
-189 -4 -13 -46 -15 -263 -15 -442 0 -580 -41 -746 -221 -186 -200 -231 -503
-111 -744 75 -152 197 -276 345 -350 105 -53 167 -65 342 -65 165 0 280 17
406 59 209 71 450 246 469 340 10 48 7 844 -3 1068 l-11 222 -43 88 c-81 164
-252 301 -436 348 -72 19 -340 28 -405 15z m433 -1137 c10 -6 9 -439 -2 -485
-10 -44 -47 -79 -121 -115 -50 -25 -65 -27 -175 -28 -112 0 -124 2 -177 28
-203 100 -258 388 -101 527 47 41 111 67 197 80 49 8 363 2 379 -7z"/>
<path d="M9553 3960 c-151 -40 -251 -98 -348 -202 -134 -144 -237 -381 -280
-642 -21 -129 -17 -352 9 -477 68 -339 271 -621 522 -728 225 -96 544 -88 824
21 87 33 270 130 270 142 0 10 -106 236 -129 276 -11 19 -10 19 -158 -40 -206
-82 -326 -106 -446 -90 -218 31 -369 212 -417 505 -7 39 -10 86 -8 105 l3 35
580 5 580 5 -3 75 c-18 477 -143 785 -376 924 -61 36 -172 77 -264 95 -86 18
-276 13 -359 -9z m337 -376 c56 -30 91 -71 122 -141 19 -44 58 -183 58 -210 0
-10 -72 -13 -325 -13 -371 0 -338 -11 -306 100 44 153 108 241 207 280 70 29
174 22 244 -16z"/>
<path d="M6205 3939 c-27 -5 -119 -19 -203 -32 -84 -13 -157 -28 -162 -33 -4
-5 -10 -454 -12 -999 l-3 -990 230 0 230 0 0 1020 c0 583 -3 1025 -9 1033 -4
6 -11 11 -15 11 -3 -1 -28 -5 -56 -10z"/>
</g>
</svg>
