<?xml version="1.0" standalone="no"?>
<!DOCTYPE svg PUBLIC "-//W3C//DTD SVG 20010904//EN"
 "http://www.w3.org/TR/2001/REC-SVG-20010904/DTD/svg10.dtd">
<svg version="1.0" xmlns="http://www.w3.org/2000/svg"
 width="1200.000000pt" height="660.000000pt" viewBox="0 0 1200.000000 660.000000"
 preserveAspectRatio="xMidYMid meet">
<metadata>
Created by potrace 1.13, written by Peter Selinger 2001-2015
</metadata>
<g transform="translate(0.000000,660.000000) scale(0.100000,-0.100000)"
fill="#000000" stroke="none">
<path d="M4435 5051 c-10 -9 -69 -41 -310 -166 -71 -37 -137 -75 -145 -84 -13
-15 -14 -205 -10 -1627 l5 -1609 239 -3 c174 -2 242 1 247 9 4 7 5 174 2 373
l-5 361 177 235 c97 129 185 243 195 254 18 18 19 18 34 -11 8 -16 37 -81 64
-144 46 -107 314 -718 422 -964 l49 -110 262 -3 c145 -1 266 1 271 6 5 5 -11
51 -35 103 -24 52 -55 117 -67 144 -13 28 -50 109 -82 180 -33 72 -155 337
-270 590 -116 253 -228 498 -249 543 -22 46 -39 92 -39 103 0 14 380 523 584
780 25 31 42 60 39 63 -4 3 -129 6 -278 6 -246 0 -273 -2 -288 -17 -28 -32
-570 -806 -672 -961 -55 -83 -104 -150 -110 -148 -6 1 -8 257 -5 732 9 1374 9
1397 -25 1365z"/>
<path d="M7054 5051 c-5 -5 -40 -25 -79 -46 -38 -21 -92 -50 -120 -65 -27 -15
-95 -51 -150 -80 -55 -29 -104 -58 -108 -64 -5 -6 -7 -168 -5 -361 l3 -350
-180 -5 -180 -5 0 -220 0 -220 180 -5 180 -5 0 -770 c1 -423 4 -797 9 -830 43
-334 242 -515 565 -515 149 0 327 37 428 88 54 28 59 37 67 117 3 39 10 102
16 140 16 112 23 205 16 205 -4 0 -23 -8 -44 -19 -112 -56 -280 -87 -383 -70
-83 13 -123 41 -157 109 l-27 55 -3 747 -3 748 313 2 313 3 0 220 0 220 -313
3 -314 2 4 485 c3 480 1 512 -28 486z"/>
<path d="M8585 5041 c-94 -17 -190 -93 -234 -186 -37 -77 -35 -190 4 -269 33
-65 92 -123 163 -157 64 -31 186 -32 254 -1 64 28 134 95 166 157 21 42 26 64
26 135 0 102 -23 160 -94 230 -76 76 -181 110 -285 91z"/>
<path d="M1607 4878 c-9 -24 -94 -263 -191 -533 -285 -800 -739 -2057 -848
-2350 -16 -44 -33 -91 -38 -105 -5 -14 -23 -63 -40 -110 -59 -156 -70 -189
-70 -205 0 -13 32 -15 263 -13 l262 3 32 95 c101 302 235 686 242 693 4 4 308
6 675 5 l669 -3 64 -185 c36 -102 83 -237 105 -300 22 -63 55 -159 75 -213
l35 -97 264 0 c173 0 265 4 269 11 4 5 -7 46 -24 90 -49 125 -84 218 -169 449
-110 298 -858 2350 -926 2543 -31 86 -66 182 -77 212 l-20 55 -268 0 -268 0
-16 -42z m402 -909 c111 -329 183 -541 332 -962 32 -93 59 -175 59 -183 0 -12
-74 -14 -512 -12 -449 3 -513 5 -511 18 1 8 43 130 93 270 111 310 292 849
356 1060 48 162 53 174 61 167 2 -3 57 -164 122 -358z"/>
<path d="M10489 4129 c-140 -8 -291 -35 -414 -74 -116 -37 -305 -131 -305
-152 0 -10 18 -51 39 -93 128 -244 140 -265 158 -264 10 1 59 20 108 42 153
68 333 102 530 102 273 -1 434 -112 475 -330 6 -29 10 -104 10 -168 0 -104 -2
-114 -17 -109 -202 67 -327 87 -543 87 -456 0 -773 -147 -919 -429 -117 -226
-116 -556 3 -796 127 -255 398 -415 731 -432 248 -12 497 80 694 257 18 16 37
30 42 30 5 0 10 -53 11 -117 l3 -118 236 -3 c184 -2 238 0 240 10 2 7 2 438
-1 958 l-6 945 -27 90 c-72 230 -215 391 -427 481 -100 42 -225 72 -330 79
-47 3 -103 7 -125 9 -22 1 -97 -1 -166 -5z m326 -1403 c91 -17 165 -38 230
-66 l45 -19 0 -180 0 -180 -42 -52 c-88 -108 -257 -212 -405 -250 -203 -51
-446 -1 -549 114 -70 77 -112 211 -100 317 21 178 161 295 401 334 56 9 340
-3 420 -18z"/>
<path d="M8400 4073 c0 -5 -1 -570 -2 -1258 l-2 -1250 248 0 249 0 -1 1255 0
1255 -246 3 c-135 1 -246 -1 -246 -5z"/>
</g>
</svg>
