<?xml version="1.0" standalone="no"?>
<!DOCTYPE svg PUBLIC "-//W3C//DTD SVG 20010904//EN"
 "http://www.w3.org/TR/2001/REC-SVG-20010904/DTD/svg10.dtd">
<svg version="1.0" xmlns="http://www.w3.org/2000/svg"
 width="1200.000000pt" height="660.000000pt" viewBox="0 0 1200.000000 660.000000"
 preserveAspectRatio="xMidYMid meet">
<metadata>
Created by potrace 1.13, written by Peter Selinger 2001-2015
</metadata>
<g transform="translate(0.000000,660.000000) scale(0.100000,-0.100000)"
fill="#000000" stroke="none">
<path d="M1589 5237 c-139 -39 -228 -141 -302 -345 -20 -53 -146 -398 -281
-767 -258 -709 -309 -846 -412 -1123 -38 -101 -63 -181 -59 -191 4 -13 40 -33
110 -60 362 -142 346 -138 368 -93 8 15 49 127 92 250 l78 222 515 -2 515 -3
61 -175 c34 -96 71 -200 81 -230 22 -63 41 -90 64 -90 9 0 71 21 136 46 66 25
156 59 200 76 44 16 85 34 92 40 18 15 16 48 -7 104 -41 105 -395 1067 -631
1719 -66 182 -137 363 -157 404 -46 91 -118 166 -191 199 -68 30 -200 39 -272
19z m286 -1124 c91 -271 165 -499 165 -508 0 -13 -40 -15 -345 -15 -190 0
-345 3 -345 8 0 4 75 233 167 510 111 331 172 501 180 500 7 -2 87 -224 178
-495z"/>
<path d="M6070 4006 c-89 -25 -131 -59 -170 -135 -7 -14 -16 -81 -19 -150 l-6
-126 -52 -3 -53 -3 0 -94 0 -94 53 -3 52 -3 3 -328 2 -328 118 3 117 3 0 325
0 325 113 3 112 3 0 94 0 95 -109 0 c-67 0 -112 4 -116 11 -4 5 -4 46 0 90 10
113 19 122 134 127 l91 4 8 37 c5 20 14 58 21 85 8 34 9 52 1 60 -16 16 -247
18 -300 2z"/>
<path d="M8130 4013 c-41 -2 -79 -8 -84 -13 -9 -9 -9 -1260 0 -1269 11 -11
454 -12 511 -2 83 16 175 64 221 116 78 89 105 253 61 372 -27 72 -96 146
-155 169 -24 9 -44 20 -44 23 0 4 16 15 35 25 53 29 112 98 126 148 16 61 6
183 -20 240 -47 98 -117 155 -226 184 -48 13 -227 16 -425 7z m369 -236 c93
-48 93 -210 0 -258 -29 -15 -59 -19 -129 -19 l-90 0 0 145 0 145 98 0 c57 0
107 -5 121 -13z m21 -499 c25 -13 55 -39 68 -58 21 -30 23 -45 20 -107 -4 -85
-23 -117 -88 -150 -37 -19 -60 -23 -142 -23 l-97 0 -3 170 c-2 94 -1 175 0
180 2 6 46 10 101 10 80 0 104 -4 141 -22z"/>
<path d="M4660 3986 c-26 -9 -38 -22 -47 -47 -6 -19 -48 -140 -93 -269 -45
-129 -90 -260 -100 -290 -10 -30 -42 -120 -70 -200 -28 -80 -60 -170 -70 -200
-10 -30 -32 -93 -49 -140 -18 -46 -29 -90 -27 -97 8 -19 239 -18 255 1 7 8 25
60 41 117 16 56 33 106 38 111 5 5 105 7 222 6 l214 -3 17 -60 c10 -33 25 -86
34 -117 l16 -58 135 0 c86 0 134 4 134 10 0 6 -56 181 -124 388 -69 207 -143
433 -165 502 -22 69 -55 172 -74 230 l-34 104 -49 13 c-61 16 -158 15 -204 -1z
m174 -518 c38 -134 69 -250 70 -258 1 -13 -22 -15 -149 -15 -128 0 -149 2
-146 15 1 8 20 74 42 145 21 72 53 181 70 243 18 61 35 112 39 112 3 0 36
-109 74 -242z"/>
<path d="M5403 3988 c-6 -8 -9 -257 -7 -628 l2 -615 116 -3 c64 -1 116 1 116
5 3 406 -1 1237 -5 1243 -9 15 -211 13 -222 -2z"/>
<path d="M10798 3995 c-5 -5 0 -1247 6 -1252 1 -1 46 -5 100 -8 147 -7 139
-17 135 189 l-4 171 31 3 c41 4 77 -26 108 -91 36 -76 70 -155 91 -209 10 -26
23 -52 30 -58 8 -7 59 -10 131 -8 113 3 119 4 116 23 -2 11 -45 103 -95 205
-78 156 -98 190 -133 216 l-41 31 39 32 c24 20 54 63 78 111 42 84 73 120 102
120 23 0 30 30 26 105 l-3 60 -81 0 c-122 0 -142 -17 -233 -194 -68 -132 -75
-141 -106 -147 -63 -11 -60 -29 -60 352 l0 349 -116 3 c-63 1 -118 0 -121 -3z"/>
<path d="M6680 3639 c-92 -6 -175 -21 -187 -33 -4 -3 0 -41 8 -83 l15 -78 131
4 c192 5 223 -11 223 -117 l0 -47 -122 0 c-111 0 -128 -2 -178 -26 -115 -54
-164 -134 -165 -269 0 -75 3 -90 27 -132 61 -102 152 -144 298 -136 70 4 99
11 150 36 l64 30 39 -34 c22 -21 45 -33 53 -30 15 6 144 96 144 100 0 2 -13
30 -30 62 -39 79 -50 160 -50 387 0 214 -9 249 -82 311 -61 53 -153 68 -338
55z m184 -510 c8 -8 10 -198 2 -206 -4 -4 -45 -7 -91 -8 -78 0 -87 2 -110 26
-20 19 -27 37 -28 71 -3 73 22 103 98 122 22 5 123 2 129 -5z"/>
<path d="M9150 3630 c-98 -20 -92 -16 -85 -63 4 -23 11 -60 17 -83 l9 -40 156
0 c151 1 155 0 174 -23 14 -17 19 -39 19 -80 l0 -56 -112 0 c-135 0 -195 -17
-261 -75 -91 -81 -119 -229 -64 -342 27 -56 60 -88 127 -124 28 -15 56 -19
145 -19 103 1 114 3 175 32 l65 32 25 -23 c54 -50 61 -50 139 5 40 28 71 54
69 58 -2 3 -16 33 -33 66 l-30 60 -6 250 c-6 273 -13 307 -73 367 -56 55 -88
63 -256 65 -85 1 -175 -2 -200 -7z m294 -593 c6 -67 5 -102 -2 -109 -15 -15
-142 -22 -174 -9 -37 14 -59 51 -60 101 -1 81 56 121 167 117 l60 -2 9 -98z"/>
<path d="M10020 3629 c-25 -6 -69 -17 -97 -25 l-53 -15 0 -425 0 -425 118 3
117 3 3 341 2 342 23 6 c29 8 145 6 177 -3 15 -4 32 -21 42 -41 16 -31 18 -70
18 -342 0 -199 4 -308 10 -308 6 -1 53 -1 105 -1 52 0 100 0 105 1 14 0 13
660 -1 720 -16 72 -53 118 -117 148 -54 26 -65 27 -232 29 -96 1 -195 -3 -220
-8z"/>
<path d="M7502 3313 c-51 -25 -77 -69 -77 -129 0 -65 19 -100 71 -130 104 -61
224 7 224 126 0 113 -115 184 -218 133z"/>
<path d="M456 1854 c-14 -13 -16 -50 -16 -248 0 -170 3 -237 13 -249 11 -16
100 -17 1242 -17 l1230 -1 18 22 c15 19 17 47 17 243 0 184 -3 225 -16 244
l-15 22 -1229 0 c-1104 0 -1230 -2 -1244 -16z"/>
</g>
</svg>
