<svg id="SVG" xmlns="http://www.w3.org/2000/svg" width="700" height="700" viewBox="0 0 700 700">
  <defs>
    <style>
      .cls-1 {
        fill-rule: evenodd;
      }
    </style>
  </defs>
  <path id="Amazon_Pay" data-name="Amazon Pay" class="cls-1" d="M174.125,329.215c0.068-4.675-.1-7.317-3.594-8.451a6.549,6.549,0,0,0-3.125-.313,10.5,10.5,0,0,0-2.031.626,7.146,7.146,0,0,0-2.5,2.5c-0.565,1.095-.207,2.349-1.406,2.817-0.572.365-1.671,0.052-2.5,0-1.886-.117-3.737-0.571-5.781-0.626-0.475-.605-0.883-0.612-0.938-1.721,0.569-.833.528-2.182,0.938-3.13a14.181,14.181,0,0,1,5.781-6.417c9.253-5.1,22.876-2.609,25.781,6.573a18.862,18.862,0,0,1,.313,5.321v11.425l0.156,5.634a11.782,11.782,0,0,0,1.25,3.443c0.8,1.273,1.994,1.834,2.031,3.913-1.957,1.3-5.494,5.859-7.969,5.947-1.732-1.685-3.538-3.03-4.687-5.321h-0.313c-2.656,4.043-11.442,7.517-17.968,4.695-3.749-1.621-5.45-4.776-6.563-9.077-0.779-3.01.746-7.195,1.563-8.764,2.592-4.987,6.744-6.6,12.812-8.139l3.438-.313A28.188,28.188,0,0,1,174.125,329.215ZM270.531,312a25.654,25.654,0,0,1,8.125.939c3.994,1.293,7.152,2.969,8.594,6.73,1.662,4.335.938,12.531,0.938,18.311v5.79c0.657,2.677,3.154,4.538,3.281,6.887-1.5,1.415-5.828,6.06-8.125,6.1-0.8-1.067-2.169-1.74-2.969-2.817-0.568-.765-1-2.077-1.875-2.5-2.843,4.218-12.271,7.735-18.75,4.382a11.522,11.522,0,0,1-5.312-6.573,27.544,27.544,0,0,1-.313-2.817,12.1,12.1,0,0,1,0-4.695c1.944-7.3,6.774-9.768,14.219-11.582,1.959-.477,7.287-0.253,8.594-1.095,0.423-.655.176-2.629,0.156-3.6-0.579-.955-0.422-2.357-1.094-3.286-1.931-2.67-7.276-1.82-9.219.156-0.919.935-1.085,3.564-2.343,4.069-0.572.365-1.671,0.052-2.5,0-1.886-.117-3.737-0.571-5.782-0.626-0.2-.263-0.426-0.362-0.625-0.626-0.924-1.248.629-3.839,1.094-4.851,1.685-3.664,5-6.111,9.063-7.356C266.911,312.564,269.6,312.634,270.531,312Zm174.688,0c9.489-.139,14.245,3.221,17.344,9.39,4.268,8.5,2.373,22.13-2.188,28.484a17.6,17.6,0,0,1-19.531,5.634A24.482,24.482,0,0,1,436,353c-0.54-.363-1.078-1.126-1.562-1.1-0.471.765-.157,4.4-0.157,5.634,0,4.439.62,10.746-.312,14.555-1.752.507-4.626,0.322-6.875,0.313a5.205,5.205,0,0,1-.625-0.626c-0.552-.737-0.313-2.677-0.313-3.913V327.337c0-3.324-.633-11.04.313-13.459a2.832,2.832,0,0,0,.625-0.469c1.3-.026,4.236-0.436,5.156.156a1.149,1.149,0,0,1,.938,1.252c0.431,0.7.054,2.234,0.781,2.661a19.989,19.989,0,0,1,6.719-4.226C441.838,312.815,444.356,312.668,445.219,312Zm41.094,0c7.34-.068,13.365.683,16.25,5.008,2.055,3.081,1.875,7.93,1.875,13.146v24.415l-0.938.783c-1.263.025-4.107,0.418-5-.157a1.148,1.148,0,0,1-.937-1.252,8.6,8.6,0,0,1-.469-2.5h-0.313c-2.787,3.629-13.436,6.738-19.375,4.069-4.2-1.888-5.776-5.072-6.875-10.173-0.693-3.217.939-6.472,2.032-8.138,4.725-7.208,14.177-7.2,24.062-5.008v-7.825c-0.4-.582-0.288-1.533-0.625-2.191-1.055-2.058-3.056-2.871-5.625-3.443-3.467-.772-9.9.552-12.5,1.408-1.343.442-4.113,1.535-4.375-.313-0.621-.935-0.043-3.582.156-4.382a31.057,31.057,0,0,1,8.125-2.817C483.171,312.275,485.277,312.746,486.313,312Zm-272.657.47c6.722-.088,9.335,2.707,11.407,7.2h0.312c0.2-1.35,1.073-2.087,1.719-2.974,3.784-5.2,11.548-5.328,16.719-1.408,3.138,2.379,3.281,7.241,3.281,12.833v17.528c0,2.882.552,8.132-.313,10.33-1.432.824-7.806,0.719-9.843,0.313a3.94,3.94,0,0,0-.625-0.783V332.033c0-4.54.282-8.43-3.282-9.391a5.557,5.557,0,0,0-5.781,2.191c-1.467,2.2-1.25,6.449-1.25,10.017v20.815c-1.861,1.353-6.726.81-9.844,0.782-1.2-1.681-.781-5.143-0.781-7.982V329.372a8.063,8.063,0,0,1-.156-1.722,9.538,9.538,0,0,0-1.406-3.912c-0.626-.759-1.487-0.818-2.657-1.1a4.657,4.657,0,0,0-5.468,3.13c-0.849,2.244-.626,5.453-0.625,8.452v13.928c0,2.57.191,5.753-.313,7.826-2.086,1.02-6.63.486-9.531,0.469a0.565,0.565,0,0,0-.313-0.156,3.9,3.9,0,0,0-.625-0.783V326.555c0-3.209-.6-10.5.313-12.833,1.415-.7,9.132-1.03,9.687.469,0.442,0.694.174,4.317,0.157,5.478h0.312v-0.157a16.521,16.521,0,0,0,1.25-2.5,11.534,11.534,0,0,1,3.125-3.13,12.076,12.076,0,0,1,3.281-1.252A5.791,5.791,0,0,0,213.656,312.47Zm133.438,0c10.821-.1,15.5,5.42,18.281,13.3,0.436,1.237.287,2.248,0.625,3.6a29.084,29.084,0,0,1-.625,14.711c-2.1,5.718-5.446,10.042-10.937,12.364a27.541,27.541,0,0,1-4.688.939c-3.4.74-7.931-1.353-9.687-2.5-4.523-2.963-6.8-7.12-8.438-12.99l-0.312-2.973a22.784,22.784,0,0,1,0-8.139c0.367-1.646.178-2.9,0.625-4.382,1.672-5.563,4.7-10.12,9.531-12.52a20.948,20.948,0,0,1,4.062-1.252A7.451,7.451,0,0,0,347.094,312.47Zm45,0c13.043-.074,12.656,9.31,12.656,22.067v20.971a6.208,6.208,0,0,1-.937.939h-8.907a0.561,0.561,0,0,0-.312-0.156,3.9,3.9,0,0,0-.625-0.783V333.6c0-5.618.189-10.326-4.531-11.269-2.92-.583-4.617,2.613-5.313,4.539-1.049,2.9-.938,7.068-0.937,11.112v17.685l-0.938.782h-8.906c-1.425-1.994-.782-8.346-0.781-11.738V314.974a4.406,4.406,0,0,1,0-.939l1.093-.783h7.813a1.51,1.51,0,0,1,1.094,1.409c0.865,1.394-.283,4.415.156,5.79a0.572,0.572,0,0,0,.156-0.313c0.673-.587.765-1.718,1.25-2.5a12.847,12.847,0,0,1,2.813-3.286,12.386,12.386,0,0,1,3.75-1.722A7.331,7.331,0,0,0,392.094,312.47Zm-80.781,29.892a27.025,27.025,0,0,1,11.406,1.878c1.449,0.631,3.542.841,4.062,2.347,0.9,1.1.82,8.136-.468,8.608-0.9.532-3.656-1.238-4.532-1.565a29.56,29.56,0,0,0-10.625-1.565h-2.812a48.927,48.927,0,0,0-8.281,2.191c-0.707.3-1.971,1.362-2.657,1.1a1.106,1.106,0,0,1-1.093-1.252c-0.348-.536-0.157-2-0.157-2.817,0-2.758-.117-5.5.938-7.2,0.836-1.344,2.062-2.623,2.969-3.912,2.811-4,5.41-7.99,8.125-12.051,0.955-1.429,3.933-4.6,4.218-6.26H301.625c-1.541,0-3.232.273-3.75-.783-0.488-.758-0.2-6.408,0-7.355,1.906-.924,5.9-0.47,8.594-0.47h19.062v0.157a0.924,0.924,0,0,1,.782,1.1,6.4,6.4,0,0,1,.156,2.5c0,3.641-.608,4.081-2.031,6.1-3.219,4.575-6.268,9.125-9.375,13.772C314.106,338.315,311.669,340.632,311.313,342.362Zm199.218-29.11a39.89,39.89,0,0,1,7.032.157c1.853,3.045,2.688,6.878,4.062,10.485,2.921,7.668,5.4,15.855,8.594,23.476a0.572,0.572,0,0,0,.156-0.313,11.871,11.871,0,0,0,.938-2.817c0.657-1.754,1.167-3.583,1.875-5.478,2.034-5.445,3.746-11.344,5.937-16.746,0.739-1.821,1.838-7.576,3.125-8.451,0.916-.623,5.895-0.421,7.188-0.156,0.659,1.1.241,2.5-.313,3.756-1.279,2.895-2.506,6.15-3.75,9.077l-0.312,1.408c-1.492,3.4-3.055,7.178-4.375,10.643-0.735,1.927-1.05,3.591-1.875,5.477-1.375,3.143-2.844,6.655-4.063,9.86-2,5.264-3.515,10.931-6.562,15.181-1.936,2.7-6.089,5.734-11.25,4.539-1.711-.4-3.977.076-4.532-1.409-0.639-.81-0.386-3.761-0.156-4.852a2.4,2.4,0,0,1,.625-0.313c1.205-.692,3.591.557,5.313,0.157a7.223,7.223,0,0,0,4.375-2.348c1.342-1.851,1.885-4.307,2.812-6.573,0.257-.628,1.054-1.638.781-2.66a21.036,21.036,0,0,0-1.406-2.974c-0.958-2.08-1.65-4.259-2.5-6.26-3.044-7.167-5.411-14.277-8.437-21.441-0.961-2.273-1.8-4.662-2.813-7.043-0.5-1.184-1.2-2.044-1.25-3.756A3.9,3.9,0,0,0,510.531,313.252ZM444.75,318.73c-0.915.53-2.551,0.164-3.594,0.469-1.7.5-6.162,2.183-6.718,3.6-0.5.793-.157,4.806-0.157,6.1v11.112a34.669,34.669,0,0,0,.157,5.791,9.8,9.8,0,0,1,1.875,1.252,23.6,23.6,0,0,0,4.218,1.878c4.986,1.786,10.951.044,13.125-2.974,3.612-5.012,3.842-17.7.313-23.006C452.132,320.194,449.128,319,444.75,318.73Zm-97.344,2.034c-1.249.956-2.506,1.232-3.281,2.661-1.977,3.643-2.173,13.81-.937,18.624,0.826,3.218,1.072,5.41,3.906,6.573a5.48,5.48,0,0,0,2.969.313c4.676-1.467,6.11-11.963,4.687-18.468v-2.034c-0.6-2.513-.966-5.623-2.812-6.886C350.831,320.79,349.336,320.733,347.406,320.764ZM174.125,335.476c-6.194-.142-11.4,1.557-11.562,7.512a9.725,9.725,0,0,0,.312,3.286c0.515,1.314,1.714,1.782,2.656,2.661C173.314,349.33,174.2,343.433,174.125,335.476Zm100.625,0c-0.667.4-1.621,0.07-2.5,0.313a16.729,16.729,0,0,0-2.969.939,7.245,7.245,0,0,0-3.593,8.451c0.4,1.479.777,2.565,1.875,3.286,1.769,1.163,4.419.457,5.781-.469,3.366-2.289,3.848-6.558,3.75-12.364A8.356,8.356,0,0,0,274.75,335.476Zm211.406,1.1a8.572,8.572,0,0,1-1.406.157,12.532,12.532,0,0,0-3.75,1.565c-3.047,2.226-2.683,8.986.313,10.955,3.754,2.469,9.91-.064,12.656-1.565,0.582-.319,2.424-1.076,2.656-1.565v-8.451l-0.469-.157C494.77,336.616,488.649,336.57,486.156,336.571ZM309.125,358.325c3.685-.092,11.081-0.083,11.875,2.348,1.03,1.311-.107,5.968-0.312,7.355-0.7,4.752-3.349,8.64-5.625,11.895-0.867,1.239-2.15,3.159-4.063,3.286a0.565,0.565,0,0,0-.312-0.156c-0.334-1.826,1-3.527,1.562-5.008,1.4-3.684,3.318-8.729,2.344-13.147-2.974-1.7-10.119-1.706-14.219-.782-1.117.252-3.613,0.572-4.062-.157-0.743-1.359,1.561-2.041,2.343-2.5a27.028,27.028,0,0,1,6.25-2.5C306.175,358.594,308.076,358.983,309.125,358.325Zm-121.719,2.661c2.116,0.012,5.645,2.7,7.344,3.6a140.066,140.066,0,0,0,16.094,6.887c5.82,2.193,12.142,3.383,18.437,5.008,3.23,0.833,6.659.836,9.844,1.565l12.188,0.939a35.9,35.9,0,0,0,8.125-.157h2.656c1.268-.277,3.2-0.211,4.375-0.469,3.019-.662,6.151-0.235,9.062-0.939,7.643-1.85,15.172-3.137,21.875-5.634,2.053-.765,3.781-1.122,5.782-1.878a37.513,37.513,0,0,1,3.437-1.566c2.1-.559,2.787.784,2.813,2.5h-0.157c-0.627,1.687-2.957,2.5-4.375,3.443a83.653,83.653,0,0,1-8.593,5.008c-1.619.813-3.193,1.077-4.844,1.878-6.936,3.366-15.153,4.53-23.594,6.573-1.852.448-3.781,0.241-5.469,0.626h-2.343c-3.945.869-12.917,0.519-16.563-.313-1.543-.352-2.7.057-4.219-0.313-3.562-.869-7.32-1.124-10.781-2.191-7.2-2.219-13.972-4.561-20-7.825-2.808-1.521-5.491-2.718-8.125-4.382-3.092-1.954-5.883-4.423-8.75-6.574-0.944-.708-5.287-3.755-4.844-4.851A1.719,1.719,0,0,1,187.406,360.986Z"/>
</svg>
