<?xml version="1.0" standalone="no"?>
<!DOCTYPE svg PUBLIC "-//W3C//DTD SVG 20010904//EN"
 "http://www.w3.org/TR/2001/REC-SVG-20010904/DTD/svg10.dtd">
<svg version="1.0" xmlns="http://www.w3.org/2000/svg"
 width="600.000000pt" height="330.000000pt" viewBox="0 0 600.000000 330.000000"
 preserveAspectRatio="xMidYMid meet">

<g transform="translate(0.000000,330.000000) scale(0.100000,-0.100000)"
fill="#000000" stroke="none">
<path d="M392 2166 c-62 -20 -112 -62 -134 -113 -25 -57 -17 -65 62 -71 56 -4
60 -3 69 21 23 59 104 77 140 31 12 -15 21 -41 21 -60 0 -32 -2 -33 -47 -39
-142 -19 -183 -35 -231 -89 -60 -69 -65 -161 -12 -236 53 -74 195 -78 274 -9
l34 30 27 -36 c15 -19 36 -35 47 -35 10 0 40 20 65 44 l46 43 -24 34 c-23 32
-24 44 -29 211 -6 200 -10 212 -90 257 -53 29 -155 37 -218 17z m158 -356 c0
-81 -48 -150 -105 -150 -56 0 -77 111 -29 155 27 25 46 31 102 34 31 1 32 0
32 -39z"/>
<path d="M1826 2164 c-63 -23 -101 -51 -124 -92 -41 -73 -27 -92 65 -92 37 0
44 4 58 30 43 83 155 62 155 -29 0 -41 -13 -51 -70 -51 -48 0 -144 -31 -178
-57 -42 -32 -71 -94 -72 -151 -1 -153 159 -222 298 -128 l47 31 28 -32 c16
-18 36 -33 45 -33 20 1 102 73 102 90 0 6 -9 23 -20 37 -18 23 -20 41 -20 158
0 172 -11 230 -52 272 -55 57 -176 79 -262 47z m154 -359 c0 -79 -42 -145 -93
-145 -30 0 -67 45 -67 82 0 61 54 107 128 108 31 0 32 -1 32 -45z"/>
<path d="M4268 2161 c-25 -10 -60 -28 -76 -40 l-31 -21 -3 27 c-3 26 -6 28
-48 28 l-45 0 -3 -407 -2 -408 55 0 55 0 0 140 c0 77 2 140 4 140 2 0 24 -12
50 -26 137 -77 300 -12 353 140 12 34 18 80 18 141 0 146 -45 238 -139 281
-61 29 -123 30 -188 5z m139 -101 c55 -33 68 -71 68 -190 0 -111 -10 -145 -55
-185 -34 -31 -142 -32 -200 -2 l-45 24 0 164 0 164 45 23 c58 29 142 30 187 2z"/>
<path d="M4834 2170 c-22 -5 -58 -15 -78 -24 -35 -14 -37 -18 -34 -53 2 -28 7
-37 18 -34 118 28 191 32 253 15 27 -8 47 -58 47 -119 0 -56 0 -57 -27 -51
-160 30 -264 2 -312 -85 -29 -52 -28 -135 2 -179 41 -61 70 -75 155 -75 68 0
83 4 135 33 50 28 57 30 57 14 0 -24 19 -42 46 -42 55 0 54 -6 54 244 0 221
-1 234 -22 276 -31 60 -78 83 -177 86 -42 2 -94 -1 -117 -6z m199 -347 c4 -2
7 -31 7 -64 l0 -60 -52 -24 c-51 -24 -118 -32 -153 -19 -26 10 -48 62 -41 99
12 62 65 87 166 79 36 -4 68 -8 73 -11z"/>
<path d="M1053 2160 c-11 -5 -34 -25 -50 -44 l-28 -36 -5 37 -5 38 -65 0 -65
0 0 -295 0 -295 70 0 70 0 5 211 c4 190 7 214 24 233 22 24 64 27 92 7 17 -13
19 -31 24 -233 l5 -218 70 0 70 0 5 205 c5 207 11 241 46 254 29 11 61 6 77
-12 15 -16 17 -47 17 -219 0 -111 3 -208 6 -217 5 -13 21 -16 76 -16 l69 0 -3
264 -3 264 -25 27 c-35 38 -73 55 -120 55 -54 0 -106 -25 -127 -61 -10 -16
-20 -29 -23 -29 -3 0 -14 13 -24 29 -11 16 -32 36 -47 45 -29 17 -100 20 -136
6z"/>
<path d="M2885 2151 c-96 -44 -150 -148 -149 -291 0 -104 21 -172 71 -230 47
-54 102 -80 173 -80 71 0 126 26 173 80 51 60 72 127 72 230 0 190 -95 310
-245 310 -32 0 -72 -8 -95 -19z m140 -113 c33 -30 49 -116 41 -220 -9 -120
-48 -172 -111 -148 -34 13 -52 59 -60 151 -13 138 23 239 85 239 10 0 30 -10
45 -22z"/>
<path d="M3523 2150 c-18 -10 -40 -34 -50 -52 l-18 -33 -3 48 -3 48 -67 -3
-67 -3 0 -295 0 -295 70 0 70 0 5 202 c5 185 7 204 26 230 12 15 29 30 38 31
28 6 63 -7 72 -25 5 -10 11 -112 14 -228 l5 -210 70 0 70 0 0 245 c0 228 -1
248 -21 284 -37 72 -141 99 -211 56z"/>
<path d="M2272 2103 l3 -58 98 -3 c53 -1 97 -5 97 -7 0 -2 -49 -75 -110 -162
l-110 -158 0 -66 c0 -36 2 -68 5 -71 3 -2 35 6 72 18 86 30 179 31 265 4 90
-28 88 -29 88 40 0 57 -1 60 -32 77 -18 9 -67 24 -109 33 l-76 15 104 149 c99
143 104 152 101 195 l-3 46 -198 3 -198 2 3 -57z"/>
<path d="M5226 2152 c-3 -4 47 -137 111 -295 l116 -287 -23 -61 c-28 -74 -55
-95 -122 -92 l-48 2 0 -40 c0 -47 12 -54 85 -53 60 1 105 22 136 65 25 35 309
756 301 764 -11 10 -100 5 -109 -7 -6 -7 -43 -110 -83 -228 -40 -118 -76 -218
-79 -222 -3 -4 -42 93 -85 215 -43 122 -83 228 -89 235 -10 13 -103 17 -111 4z"/>
<path d="M2342 1515 c-48 -15 -92 -41 -92 -55 0 -5 46 -6 108 -3 167 9 178 -5
121 -169 -17 -49 -29 -92 -26 -94 19 -19 95 77 122 156 9 25 17 70 18 99 2 49
-1 56 -23 68 -33 17 -172 16 -228 -2z"/>
<path d="M724 1489 c-10 -16 43 -62 173 -148 170 -114 356 -184 566 -215 300
-45 629 19 884 172 75 45 99 76 73 92 -6 4 -68 -13 -137 -37 -69 -24 -182 -56
-252 -70 -116 -25 -144 -27 -356 -27 -210 0 -241 2 -355 27 -170 36 -323 87
-460 155 -63 31 -118 58 -122 60 -3 2 -10 -2 -14 -9z"/>
</g>
</svg>
