<svg xmlns="http://www.w3.org/2000/svg" width="700" height="700" viewBox="0 0 700 700">
  <defs>
    <style>
      .cls-1 {
        fill-rule: evenodd;
      }
    </style>
  </defs>
  <path id="American_Express" data-name="American Express" class="cls-1" d="M0,0H700V700H0V0ZM85.647,266.669h0.874V233.74h56.516v0.291h0.291a16.593,16.593,0,0,0,1.748,4.663c0.709,1.632.461,3.028,1.165,4.662,1.158,2.684,2.446,5.993,3.5,8.742,0.684,1.791.807,5.206,2.331,6.12v-0.292c1.481-1.788,1.333-4.7,2.33-6.993,1.61-3.7,3.117-8.224,4.661-11.948,0.5-1.2.837-4.776,1.748-5.245H413.38v12.239h0.874c1.474-1.863,3.658-2.869,5.826-4.08,2.6-1.45,5.52-3.382,8.448-4.662,8.973-3.923,21.535-3.5,34.376-3.5H530.2l14.275,33.22h0.291v-0.291c1.052-1.692.291-6.672,0.291-9.034V233.74H592.54c2.47,4.3,5.358,8.614,8.157,12.822,1.306,1.963,3.345,3.947,4.078,6.411h0.583V233.74h47.485V343.308H605.358c-0.448-1.487-1.607-2.341-2.33-3.5-2.38-3.8-4.571-7.442-6.992-11.074-0.953-1.429-1.487-3.736-3.2-4.371v18.942H523.789c-1.95-3.837-3.588-8.322-5.244-12.239-0.569-1.347-.786-4.08-2.039-4.663H498.445a1.049,1.049,0,0,1-.583.292c-1.568,3.852-3.307,7.957-4.952,11.656-0.466,1.046-1.033,4.472-1.748,4.954H441.638c-2.16-1.335-8.87-1.2-11.653-2.332a68.662,68.662,0,0,1-10.2-4.662c-1.992-1.238-3.927-3.828-6.409-4.371v11.365H342.3c-2.4-4.811-7.331-8.587-10.487-12.822-0.972-1.3-1.725-3.323-3.5-3.788v16.61H65.255c-1.733-4.035-3.49-8.327-5.244-12.239-0.622-1.387-.738-4.058-2.039-4.663H39.911a1.046,1.046,0,0,1-.583.292c-1.523,3.89-3.3,7.947-4.953,11.656-0.424.951-1.1,4.6-1.748,4.954H0V329.9H23.6c0.926-4.267,3.339-8.415,4.952-12.239,0.473-1.12.769-4.126,1.748-4.662h37c1.9,4.109,3.77,8.645,5.535,12.821,0.409,0.968.628,3.605,1.457,4.08h23.6v-0.291h0.291c-5.5-12.68-11.125-25.6-16.605-38.174-3.6-8.26-6.61-16.627-10.487-24.478-0.643-1.3-.522-2.487-1.165-3.788-1.531-3.1-3.3-6.71-4.661-9.908-0.519-1.217-1.739-5.69-2.622-6.119h-26.8c-2.279,3.952-3.4,8.516-5.535,12.821-3.935,7.945-7.14,16.822-11.07,24.77-1.31,2.649-1.6,5.219-2.913,7.867-3.888,7.859-6.882,16.2-10.487,24.478-1.655,3.8-4.092,7.759-5.244,11.948H0v-35.26a1.405,1.405,0,0,0,.874-0.291c2.762-3.558,3.564-8.854,5.535-13.113,4.735-10.237,9.258-21.231,13.983-31.472,1.736-3.762,3.076-7.509,4.661-11.073,0.3-.675,1.082-3.806,1.457-4.08H71.664c3.613,7.122,5.909,14.724,9.322,22.147C82.48,259.136,85.008,262.806,85.647,266.669ZM100.213,329.9H120.9V270.748h0.582v0.292l20.975,58.572c1.017,0.639,3.7.291,5.244,0.291h13.109c2.573-5.163,3.708-11,5.827-16.61,5.288-14,9.874-28.76,15.44-42.836h0.291v59.155c1.663,0.552,4.555.291,6.7,0.291H203.34V247.436c-2.664-.88-7.276-0.291-10.488-0.291H170.421c-5.693,13.253-9.769,27.945-14.857,41.379-1.381,3.644-1.961,7.136-3.5,10.49h-0.583c-0.226-4.079-2.773-8.248-4.078-11.656-3.4-8.88-6.05-17.932-9.322-26.517-1.348-3.537-2.128-6.924-3.5-10.2-0.465-1.113-.433-3-1.457-3.5H100.505c-0.7,2.127-.292,5.811-0.292,8.45V329.9Zm116.819,0h67.294v-18.65H238.3c-0.041-4.161-.9-10.438.291-13.987,4.358,0.829,10.278.291,15.149,0.291h29.131c1.188-3.572.313-13.782,0.292-18.358H238.3c-0.041-4-.848-10.011.291-13.405,4.536,0.863,10.679.292,15.731,0.292h29.715c1.2-3.624.312-14.01,0.291-18.65-4.051-1.332-15.537-.291-20.684-0.291H217.323c-0.7,2.127-.291,5.811-0.291,8.45V329.9Zm79.529-82.758c-0.857,1.683-.582,5.008-0.582,7.576v74.891c1.663,0.552,4.555.291,6.7,0.291h14.275c0.753-2.278.291-6.233,0.291-9.033V301.637a1.056,1.056,0,0,1-.291-0.583c2.022-.683,5.622-0.315,8.156-0.291q12.236,14.568,24.471,29.14h25.927V329.32c-1.539-1.079-2.65-2.863-3.787-4.371-1.923-2.552-4.425-4.652-6.409-7.285l-3.2-2.914c-3.935-5.221-9.238-9.445-12.818-14.861h0.291V299.6c3.9-.272,7.062-2.375,9.614-4.079,4.061-2.714,7.76-6.242,9.613-11.074,3.582-9.34,1.03-21.171-3.5-27.392-2.965-4.077-8.432-7-13.692-8.742-5.343-1.774-12.774-1.166-19.518-1.165H296.561Zm82.735,0c-0.858,1.683-.583,5.008-0.583,7.576v74.891c1.663,0.552,4.555.291,6.7,0.291h14.275V329.32c0.377-1.075,0-5.194,0-7.285v-74.6C395.762,246.133,384.313,247.123,379.3,247.145Zm68.168,0c-1.832,1.083-8.847.891-11.361,1.748-9.324,3.179-16.241,8.563-20.975,16.319-2.25,3.685-5.627,13.156-4.953,18.358,0.061,0.468-.29,2.253-0.291,3.2-0.006,4.993-.288,9.843.874,13.988,5.127,18.28,15.845,29.231,39.328,29.14l8.448-18.65H449.5c-1.594-.971-4.343-0.507-6.118-1.165a19.438,19.438,0,0,1-8.156-5.828,28.472,28.472,0,0,1-4.079-9.908,20.5,20.5,0,0,1,0-7.868v-3.5a28.3,28.3,0,0,1,4.079-9.616c6.222-8.56,23.061-6.824,37.871-6.7,1.646-3.192.614-14.277,0.583-18.942a1.763,1.763,0,0,1-.583-0.582H447.464ZM458.825,329.9h23.014c1.937-3.752,3.725-8.343,5.244-12.239,0.45-1.153.745-4.155,1.748-4.662h37q3.5,8.45,6.992,16.9h23.6c-0.175-3.14-2.416-5.952-3.5-8.451-2.779-6.426-5.137-12.888-8.157-18.941-1.977-3.963-2.692-7.981-4.661-11.947-6.944-13.986-11.941-29.427-18.936-43.419H503.688c-3.235,0-7.143-.241-9.9.291-0.527,2.65-2.215,5.038-3.2,7.285-2.451,5.565-4.392,11.109-6.992,16.319-1.318,2.642-1.6,5.223-2.913,7.868-3.945,7.94-7.121,16.831-11.07,24.769-1.316,2.645-1.6,5.22-2.913,7.868-2.136,4.316-3.587,9.157-5.826,13.7C460.172,326.645,459.124,328.037,458.825,329.9Zm120.9,0V294.06c0-4.5-.931-12.609.292-16.318a1.052,1.052,0,0,1,.291.583l33.21,51.578H638.86V247.436c-3.926-1.3-15.375-.313-20.393-0.291-1.588,3.109-.582,10.344-0.582,14.57v34.677a1.962,1.962,0,0,1,.291,1.165h-0.583c-7-12.606-15.94-24.307-23.6-36.425-1.6-2.528-7.014-12.728-9.031-13.7-1.379-.861-5.3-0.291-7.283-0.291H559.039c-0.858,1.683-.583,5.008-0.583,7.576v74.891c1.663,0.552,4.555.291,6.7,0.291h14.566ZM317.245,266.086h17.77c2.642,0,6.305-.492,8.448.291,2.581,0.943,5.358,3.027,5.536,6.411,1.825,2.867-1.242,6.6-2.622,7.577-5.3,3.734-20.087,2.478-29.132,2.331l-0.291-.874C318.083,280.029,317.277,269.1,317.245,266.086Zm179.16,28.849c0.218-3.291,2.366-6.366,3.5-9.034,2.61-6.163,4.661-12.276,7.283-18.358h0.291v0.291c1.577,1.817,1.929,4.918,2.914,7.285,1.807,4.346,3.878,9.195,5.826,13.4,0.467,1.01,2.039,6.119,2.039,6.119-1.172.734-4.389,0.292-6.118,0.292H496.405Zm-448.046-27.1h0.874c0.66,3.218,2.528,6.323,3.787,9.034,1.754,3.775,2.737,7.492,4.37,11.073a66.042,66.042,0,0,1,2.331,6.7c-1.172.734-4.389,0.292-6.118,0.292H37.871c0.188-2.716,1.9-5.182,2.913-7.285,1.76-3.651,2.5-7.338,4.078-11.074C46.008,273.875,47.809,271,48.359,267.834Zm379.3,202.817v16.61H381.917V458.412a4.12,4.12,0,0,0-1.165-.292c-1.465,1.669-4.278,1.559-6.7,2.331-7.286,2.324-18.039,1.734-27.675,1.749-0.678,2.046-.292,5.605-0.292,8.159v16.9H276.752c-2.48-3.94-6.012-7.367-8.74-11.074-1.183-1.607-2.246-4.363-4.078-5.245v0.291c-1.111.874-1.49,2.037-2.331,3.206-2,2.778-4.691,5.37-6.7,8.159-0.828,1.15-1.963,4.068-3.2,4.663H136.337V377.985c2.9-.953,7.9-0.292,11.361-0.292H251.99c2.5,4.377,6.42,7.929,9.322,11.948,1.022,1.416,1.852,3.933,3.787,4.371,2.074-4.217,6-7.676,8.74-11.365,1.094-1.477,1.988-3.947,3.787-4.662,1.648-1.019,6.435-.292,8.739-0.292h412.8c1.4,2.7.618,9.052,0.583,12.822a1.052,1.052,0,0,0-.291.583c-3.829,1.261-10.408.291-14.857,0.291H652.26c-1.484.9-3.756,0.3-5.535,0.874-4.954,1.6-10.578,4.358-13.4,8.16a33.237,33.237,0,0,0-5.244,11.073,25.029,25.029,0,0,0,0,9.616c0.419,1.827.024,2.992,0.583,4.663,2,5.968,6.137,11.275,11.652,13.7,6.575,2.886,16.663,2.332,26.219,2.331,5.353,0,10.689-.269,12.818,2.914,1.152,1.722.759,4.351,0.582,6.7-1.161.914-1.815,2.5-3.2,3.2-2.989,1.52-9.641.583-13.692,0.583H630.411c-1.187,3.573-.312,13.782-0.291,18.359,3.829,1.261,10.408.291,14.857,0.291h32.337c1.038-.652,2.355-0.183,3.787-0.583a36.721,36.721,0,0,0,9.322-3.788,24.1,24.1,0,0,0,5.826-5.245c1.049-1.449,1.55-3.543,2.913-4.663v-0.291h0.292v0.291c0.642,1.011.291,3.71,0.291,5.246,0,4.67.543,10.414-.291,14.57-2.481,1.209-4.768,3.2-7.283,4.371-3.82,1.775-8.42,2.428-12.818,3.5H441.638c-0.457-1.358-1.582-1.91-2.331-2.914-2.411-3.235-5.206-6.148-7.574-9.325C430.659,473.581,429.679,471.072,427.654,470.651ZM171.3,423.152V410.33c3.751-1.236,10.2-.291,14.566-0.291h31.462v-0.583c0.611-.959.291-3.482,0.291-4.954,0-4.217.458-9.4-.291-13.113h-67v0.583c-0.762,1.234-.291,4.611-0.291,6.411v75.182c1.666,0.548,4.552.291,6.7,0.291h60.594c1.187-3.573.313-13.782,0.291-18.358-3.751-1.236-10.2-.292-14.566-0.292H171.586c-1.164-3.488-.316-9.6-0.291-13.7a0.828,0.828,0,0,0,.291-0.291c4.358,0.829,10.278.291,15.149,0.291h29.131c1.569-3.039.614-13.325,0.583-17.775a1.785,1.785,0,0,1-.583-0.583H171.3Zm138.376,50.7v-0.874c-3.268-2.237-6.587-8.061-9.031-11.365-4.011-5.421-9.094-10.317-13.109-15.736-3.3-4.455-6.47-9.644-10.488-13.4l0.291-.874c2.725-1.955,4.694-5.739,6.7-8.451,5.308-7.175,11.528-13.726,16.9-20.981,1.847-2.5,7.83-7.873,8.448-10.782H283.743c-0.879,2.609-3.7,4.612-5.243,6.7-3.066,4.166-6.35,8.119-9.322,12.239-1.252,1.736-2.694,5.237-4.953,5.828-1.027-2.1-2.779-3.478-4.078-5.245-3.144-4.276-6.57-8.308-9.614-12.53-0.765-1.061-4.238-6.623-4.952-6.994H219.362v0.291h-0.291c1.789,3.043,4.649,5.392,6.7,8.16,5.605,7.563,11.588,14.579,17.188,22.146,2.368,3.2,7.446,7.236,8.739,11.074-3.1,2.43-5.5,6.716-7.865,9.907-4.406,5.954-9.517,11.449-13.983,17.484-2.188,2.957-4.744,5.7-6.992,8.743-1.128,1.524-3.083,2.729-3.787,4.662H245c1.008-2.031,2.815-3.494,4.079-5.245,3.322-4.605,6.894-8.913,10.2-13.4,1.335-1.817,2.883-5.787,5.243-6.411,0.686,2.053,2.628,3.348,3.788,4.954,3.389,4.7,7.157,9.078,10.487,13.7,0.935,1.3,3.448,5.855,4.661,6.411h26.219Zm23.014,0V447.338c2.354-.778,6.44-0.291,9.322-0.291h19.518c1.592-1,4.222-.525,6.118-1.166,4.661-1.576,10.111-4.543,12.818-8.159A35,35,0,0,0,386,426.649c1.776-6.013.543-14.012-1.457-18.65-2.992-6.938-6.879-11.573-13.692-14.57-5.568-2.45-13.607-2.04-21.557-2.04H311.71v0.583c-0.762,1.234-.291,4.611-0.291,6.411v75.182c1.663,0.552,4.555.291,6.7,0.291h14.566Zm83.9,0V445.007c1.947-.658,5.413-0.315,7.866-0.291,1.329,2.044,3.508,3.621,4.952,5.536,4,5.3,8.884,9.909,12.818,15.153,0.991,1.321,5.732,7.951,6.7,8.451h25.927v-0.874c-2.042-.838-5.569-5.979-6.992-7.868l-3.5-3.2c-3.442-4.564-7.278-8.843-11.07-13.114-1.393-1.569-3.6-2.8-4.369-4.953h0.291V443.55c3.518-.134,6.457-2,8.739-3.5a27.067,27.067,0,0,0,10.488-11.947c4.149-9.46.411-22.723-4.661-28.266-3.775-4.125-9.419-6.581-15.731-8.16-4.884-1.221-11.762-.291-17.188-0.291h-35.25v0.583c-0.761,1.234-.291,4.611-0.291,6.411v75.182c1.663,0.552,4.555.291,6.7,0.291h14.566Zm61.76-82.467v82.467h67.294v-18.65H499.61c-1.165-3.488-.316-9.6-0.292-13.7h0.292v-0.291c6.58,1.268,15.287.291,22.431,0.291s15.849,0.974,22.432-.291V423.443c-3.673-1.21-9.991-.291-14.275-0.291h-30.88V410.33c3.751-1.236,10.2-.291,14.566-0.291h31.463c1.187-3.573.312-13.782,0.291-18.359-1.666-.547-4.553-0.291-6.7-0.291H478.344Zm145.95,0h-33.5c-5.248,0-11.893-.9-16.605.291-8.674,2.189-14.848,5.821-18.936,12.531-1.488,2.443-2.213,6-2.913,9.033-1.157,5.022.586,10.923,1.748,13.988a21.256,21.256,0,0,0,13.692,13.4c6.069,2.067,15.532,1.166,23.306,1.166h6.991a18.59,18.59,0,0,0,2.913.583c2.571,3.116,3.867,1.786,3.787,8.159-1.245,1.367-1.762,3.2-3.5,4.079-2.987,1.521-9.643.583-13.692,0.583H554.96c-1.187,3.573-.313,13.782-0.291,18.359,3.828,1.261,10.408.291,14.857,0.291h32.336c1.593-1,4.222-.522,6.118-1.166,4.679-1.589,9.83-4.523,12.527-8.159,4.245-5.723,7.848-17.835,4.078-27.1a22.473,22.473,0,0,0-11.361-11.948c-6.086-2.978-15.966-2.332-24.762-2.331-3.536,0-9.122.742-11.653-.583-1.708-.894-4.391-3.974-3.5-7.285a7.611,7.611,0,0,1,4.37-4.954c2.417-.847,6.406-0.291,9.322-0.291h29.132c1.065-.569,1.516-3.482,2.039-4.663C619.961,401.351,623.613,395.963,624.294,391.389Zm74.868,2.331c1.419,1.653.583,7.7,0.583,10.491v20.107c0,3.5.3,7.761-.291,10.781h-0.583v-0.291c-1.3-1.329-1.934-3.3-3.2-4.662-3.054-3.277-8.08-5.149-13.11-6.411-8.8-2.208-32.935,3.564-33.5-6.12-2.087-3.435,2.841-6.614,5.244-7.285,3.339-.932,8.638-0.291,12.526-0.291h24.762C694.314,404.859,696.179,398.753,699.162,393.72ZM332.976,410.039h18.062c3.078,0,6.747-.363,9.031.583,2,0.83,3,2.264,4.078,4.079,0.756,1.273,2,4.606,1.165,7.285a9.958,9.958,0,0,1-5.243,5.828c-2.407.918-6.111,0.583-9.323,0.583h-17.77C332.089,425.793,332.1,412.648,332.976,410.039Zm83.9,0c10.791-.152,33.82-2.967,32.045,8.742-0.286,1.882-1.107,4.526-2.331,5.537-4.661,3.85-21.1,2.436-29.714,2.331C416.047,424.226,416.054,412.466,416.876,410.039Z"/>
</svg>
