<svg xmlns="http://www.w3.org/2000/svg" width="340" height="190" viewBox="0 0 340 190">
  <defs>
    <style>
      .cls-1 {
        fill-rule: evenodd;
      }
    </style>
  </defs>
  <path id="American_Express" data-name="American Express" class="cls-1" d="M115,40H225V150H115V40Zm13.459,41.905H128.6V76.731h8.881v0.046h0.046a2.573,2.573,0,0,0,.275.733c0.111,0.257.072,0.476,0.183,0.733,0.182,0.422.384,0.942,0.549,1.374a2.084,2.084,0,0,0,.366.962V80.531a4.623,4.623,0,0,0,.367-1.1c0.253-.581.489-1.292,0.732-1.877a2.568,2.568,0,0,1,.275-0.824h39.69v1.923H180.1a2.871,2.871,0,0,1,.916-0.641c0.408-.228.867-0.531,1.327-0.733,1.41-.617,3.384-0.549,5.4-0.55h10.575q1.12,2.61,2.243,5.22h0.046V81.905a4.016,4.016,0,0,0,.046-1.42V76.731h7.461c0.389,0.676.842,1.354,1.282,2.015a4.045,4.045,0,0,1,.641,1.007h0.092V76.731h7.462V93.948h-7.462a2.269,2.269,0,0,0-.367-0.55c-0.373-.6-0.718-1.169-1.1-1.74a1.449,1.449,0,0,0-.5-0.687v2.976H197.31c-0.307-.6-0.564-1.308-0.824-1.923a1.481,1.481,0,0,0-.321-0.733h-2.838a0.168,0.168,0,0,1-.092.046c-0.246.605-.519,1.25-0.778,1.832a3.425,3.425,0,0,1-.274.778H184.4c-0.339-.21-1.394-0.189-1.831-0.366a10.787,10.787,0,0,1-1.6-.733,3.735,3.735,0,0,0-1.007-.687v1.786H168.79a15.137,15.137,0,0,0-1.648-2.015,1.237,1.237,0,0,0-.55-0.6v2.61H125.254c-0.272-.634-0.548-1.309-0.824-1.923a1.469,1.469,0,0,0-.32-0.733h-2.838a0.168,0.168,0,0,1-.092.046c-0.239.611-.518,1.249-0.778,1.832a3.587,3.587,0,0,1-.275.778H115V91.842h3.708a11.474,11.474,0,0,1,.778-1.923,1.936,1.936,0,0,1,.275-0.733h5.814c0.3,0.646.592,1.358,0.87,2.015a1.744,1.744,0,0,0,.229.641h3.708V91.8h0.045c-0.864-1.993-1.748-4.022-2.609-6-0.566-1.3-1.039-2.613-1.648-3.846-0.1-.2-0.082-0.391-0.183-0.6-0.241-.487-0.518-1.054-0.733-1.557a3.578,3.578,0,0,0-.412-0.962h-4.211c-0.358.621-.535,1.338-0.87,2.015-0.618,1.248-1.122,2.643-1.74,3.892-0.2.416-.251,0.82-0.457,1.236-0.611,1.235-1.082,2.546-1.648,3.847a14.466,14.466,0,0,0-.824,1.877H115V86.164a0.219,0.219,0,0,0,.137-0.046,10.636,10.636,0,0,0,.87-2.061c0.744-1.609,1.455-3.336,2.2-4.945,0.273-.591.484-1.18,0.733-1.74a4.748,4.748,0,0,1,.229-0.641h7.1c0.567,1.119.928,2.314,1.464,3.48A7.071,7.071,0,0,1,128.459,81.905Zm2.289,9.937H134v-9.3h0.092v0.046q1.647,4.6,3.3,9.2a2.174,2.174,0,0,0,.824.046h2.06c0.4-.811.582-1.728,0.915-2.61,0.831-2.2,1.552-4.52,2.427-6.731h0.045v9.3a4.122,4.122,0,0,0,1.053.046h2.243V78.883a6.458,6.458,0,0,0-1.648-.046H141.78c-0.894,2.083-1.535,4.391-2.334,6.5-0.217.573-.308,1.121-0.55,1.648h-0.091a6.492,6.492,0,0,0-.641-1.832c-0.535-1.4-.951-2.818-1.465-4.167-0.212-.556-0.334-1.088-0.549-1.6a1.014,1.014,0,0,0-.229-0.549h-5.127a5.233,5.233,0,0,0-.046,1.328V91.842Zm18.357,0H159.68V88.911h-7.233a8.25,8.25,0,0,1,.046-2.2,14.343,14.343,0,0,0,2.38.046h4.578a14.5,14.5,0,0,0,.046-2.885h-7.05a7.9,7.9,0,0,1,.046-2.106,14.891,14.891,0,0,0,2.472.046h4.669a14.738,14.738,0,0,0,.046-2.931,16.65,16.65,0,0,0-3.25-.046h-7.279a5.233,5.233,0,0,0-.046,1.328V91.842Zm12.5-13a3.3,3.3,0,0,0-.091,1.191V91.8a4.12,4.12,0,0,0,1.053.046h2.243a5.588,5.588,0,0,0,.046-1.419V87.4a0.167,0.167,0,0,1-.046-0.092,4.833,4.833,0,0,1,1.282-.046l3.845,4.579h4.074V91.75a3.042,3.042,0,0,1-.595-0.687c-0.3-.4-0.7-0.731-1.007-1.145l-0.5-.458c-0.619-.82-1.452-1.484-2.015-2.335h0.046V87.08a3.144,3.144,0,0,0,1.511-.641,3.782,3.782,0,0,0,1.511-1.74,4.973,4.973,0,0,0-.55-4.3,4.412,4.412,0,0,0-2.151-1.374,10.83,10.83,0,0,0-3.068-.183H161.6Zm13,0a3.278,3.278,0,0,0-.092,1.191V91.8a4.12,4.12,0,0,0,1.053.046h2.243V91.75a7.335,7.335,0,0,0,0-1.145V78.883A16.272,16.272,0,0,0,174.6,78.837Zm10.712,0c-0.288.17-1.39,0.14-1.786,0.275a5.65,5.65,0,0,0-4.074,5.449c0.01,0.073-.046.354-0.046,0.5a8.443,8.443,0,0,0,.138,2.2c0.805,2.873,2.49,4.594,6.18,4.579l1.327-2.931h-1.419a5.954,5.954,0,0,0-.961-0.183,3.057,3.057,0,0,1-1.282-.916,4.477,4.477,0,0,1-.641-1.557,3.231,3.231,0,0,1,0-1.236v-0.55a4.463,4.463,0,0,1,.641-1.511c0.978-1.345,3.624-1.072,5.951-1.053a10.923,10.923,0,0,0,.092-2.977,0.276,0.276,0,0,1-.092-0.092h-4.028Zm1.785,13h3.617c0.3-.59.585-1.311,0.824-1.923a1.759,1.759,0,0,1,.274-0.733h5.814l1.1,2.656h3.708a4.107,4.107,0,0,0-.549-1.328c-0.437-1.01-.808-2.025-1.282-2.976-0.311-.623-0.423-1.254-0.733-1.877-1.091-2.2-1.876-4.624-2.975-6.823h-2.747a9.422,9.422,0,0,0-1.556.046,5.719,5.719,0,0,1-.5,1.145c-0.385.874-.69,1.746-1.1,2.564-0.207.415-.251,0.821-0.457,1.236-0.62,1.248-1.119,2.645-1.74,3.892-0.207.416-.252,0.82-0.458,1.236-0.335.678-.564,1.439-0.915,2.152A2.5,2.5,0,0,0,187.1,91.842Zm19,0V86.21a11.313,11.313,0,0,1,.046-2.564,0.167,0.167,0,0,1,.046.091l5.219,8.105h3.982V78.883a16.272,16.272,0,0,0-3.2-.046,6.843,6.843,0,0,0-.092,2.29v5.449a0.3,0.3,0,0,1,.046.183H212.05c-1.1-1.981-2.505-3.82-3.708-5.724a11.669,11.669,0,0,0-1.419-2.152,3.158,3.158,0,0,0-1.144-.046h-2.93a3.278,3.278,0,0,0-.092,1.191V91.8a4.126,4.126,0,0,0,1.053.046H206.1ZM164.853,81.814h2.792a4.7,4.7,0,0,1,1.328.046,1.2,1.2,0,0,1,.87,1.007,1.028,1.028,0,0,1-.412,1.191c-0.834.587-3.157,0.389-4.578,0.366l-0.046-.137A10.929,10.929,0,0,0,164.853,81.814Zm28.154,4.533a4.583,4.583,0,0,1,.549-1.42c0.41-.969.732-1.929,1.144-2.885h0.046v0.046a4.3,4.3,0,0,1,.458,1.145c0.284,0.683.609,1.445,0.915,2.106,0.074,0.159.321,0.962,0.321,0.962a2.6,2.6,0,0,1-.961.046h-2.472ZM122.6,82.088h0.138a6.691,6.691,0,0,0,.595,1.42c0.275,0.593.43,1.177,0.686,1.74a10.577,10.577,0,0,1,.367,1.053,2.6,2.6,0,0,1-.962.046h-2.472a3.285,3.285,0,0,1,.458-1.145c0.277-.574.392-1.153,0.641-1.74A6.413,6.413,0,0,0,122.6,82.088Zm59.6,31.871v2.611h-7.187v-4.534a0.679,0.679,0,0,0-.184-0.046,2.292,2.292,0,0,1-1.052.367,16.435,16.435,0,0,1-4.349.274,5.015,5.015,0,0,0-.046,1.283v2.656H158.49c-0.39-.62-0.945-1.158-1.374-1.741a2.451,2.451,0,0,0-.641-0.824v0.046a2.11,2.11,0,0,0-.366.5c-0.314.436-.737,0.844-1.053,1.282a2.579,2.579,0,0,1-.5.733H136.424V99.4a7.024,7.024,0,0,1,1.786-.046H154.6a22.5,22.5,0,0,0,1.465,1.877,1.357,1.357,0,0,0,.595.687,12.747,12.747,0,0,1,1.374-1.786,1.868,1.868,0,0,1,.595-0.732A3.871,3.871,0,0,1,160,99.352h64.868a5.835,5.835,0,0,1,.092,2.015,0.162,0.162,0,0,0-.046.091,9.124,9.124,0,0,1-2.335.046H217.5a4.488,4.488,0,0,1-.87.137,4.4,4.4,0,0,0-2.106,1.283,5.25,5.25,0,0,0-.824,1.74,3.959,3.959,0,0,0,0,1.511,7.274,7.274,0,0,0,.092.732,3.553,3.553,0,0,0,1.831,2.153,11.6,11.6,0,0,0,4.12.366c0.841,0,1.68-.042,2.014.458a1.754,1.754,0,0,1,.092,1.053,3.48,3.48,0,0,1-.5.5,6.312,6.312,0,0,1-2.151.091h-5.127a14.431,14.431,0,0,0-.046,2.885,9.125,9.125,0,0,0,2.335.046h5.081a2.467,2.467,0,0,1,.595-0.091,5.765,5.765,0,0,0,1.465-.6,3.793,3.793,0,0,0,.916-0.824,3.568,3.568,0,0,1,.457-0.733v-0.046h0.046v0.046a2.167,2.167,0,0,1,.046.825,13.193,13.193,0,0,1-.046,2.289c-0.39.19-.749,0.5-1.144,0.687a11.117,11.117,0,0,1-2.015.55H184.4a1.611,1.611,0,0,0-.366-0.458c-0.379-.509-0.818-0.967-1.19-1.466A1.394,1.394,0,0,0,182.2,113.959ZM141.918,106.5V104.48a8.948,8.948,0,0,1,2.289-.045h4.944v-0.092a2.022,2.022,0,0,0,.046-0.778,11.942,11.942,0,0,0-.046-2.061H138.622V101.6a2.746,2.746,0,0,0-.046,1.007v11.814a4.156,4.156,0,0,0,1.053.046h9.522a14.5,14.5,0,0,0,.046-2.885,8.948,8.948,0,0,0-2.289-.046h-4.944a8.2,8.2,0,0,1-.046-2.152,0.127,0.127,0,0,0,.046-0.046,14.267,14.267,0,0,0,2.38.046h4.578a10.1,10.1,0,0,0,.091-2.793,0.286,0.286,0,0,1-.091-0.092h-7Zm21.745,7.968v-0.137a8.505,8.505,0,0,1-1.42-1.786c-0.63-.852-1.429-1.621-2.06-2.473a15.217,15.217,0,0,0-1.648-2.106c0.016-.046.031-0.092,0.046-0.138a5.923,5.923,0,0,0,1.053-1.328c0.834-1.127,1.812-2.157,2.655-3.3a8.076,8.076,0,0,0,1.328-1.694h-4.029a4.525,4.525,0,0,1-.824,1.053c-0.481.655-1,1.276-1.465,1.923a2.069,2.069,0,0,1-.778.916,5.527,5.527,0,0,0-.641-0.824c-0.494-.672-1.032-1.306-1.51-1.969a10.686,10.686,0,0,0-.779-1.1h-4.12v0.046h-0.046a15.774,15.774,0,0,0,1.053,1.282c0.881,1.188,1.821,2.291,2.7,3.48a8.489,8.489,0,0,1,1.374,1.74,7.984,7.984,0,0,0-1.236,1.557c-0.693.936-1.5,1.8-2.2,2.748-0.344.464-.745,0.9-1.1,1.373a3.238,3.238,0,0,0-.6.733H153.5a6.129,6.129,0,0,1,.641-0.824c0.522-.724,1.083-1.4,1.6-2.107a2.366,2.366,0,0,1,.824-1.007,3.175,3.175,0,0,0,.595.778c0.533,0.739,1.125,1.427,1.648,2.153a5.027,5.027,0,0,0,.732,1.007h4.121Zm3.616,0V110.3a5.764,5.764,0,0,1,1.465-.046h3.067a5.008,5.008,0,0,1,.961-0.183,4.451,4.451,0,0,0,2.015-1.282,5.516,5.516,0,0,0,.87-1.74,4.844,4.844,0,0,0-.229-2.931,3.982,3.982,0,0,0-2.152-2.289,9.25,9.25,0,0,0-3.388-.321h-5.905V101.6a2.746,2.746,0,0,0-.046,1.007v11.814a4.112,4.112,0,0,0,1.053.046h2.289Zm13.184,0V109.93a4.611,4.611,0,0,1,1.236-.046c0.209,0.321.552,0.569,0.778,0.87,0.629,0.833,1.4,1.557,2.015,2.381a12.174,12.174,0,0,0,1.053,1.328h4.074v-0.137a5.042,5.042,0,0,1-1.1-1.237l-0.549-.5c-0.541-.718-1.144-1.39-1.74-2.061a2.721,2.721,0,0,1-.686-0.778h0.045V109.7a2.741,2.741,0,0,0,1.374-.55,4.259,4.259,0,0,0,1.648-1.877,4.688,4.688,0,0,0-.733-4.442,4.889,4.889,0,0,0-2.472-1.282,12.6,12.6,0,0,0-2.7-.046h-5.539V101.6a2.746,2.746,0,0,0-.046,1.007v11.814a4.112,4.112,0,0,0,1.053.046h2.289Zm9.705-12.959v12.959h10.575v-2.931H193.51a8.2,8.2,0,0,1-.046-2.152h0.046v-0.046a20.626,20.626,0,0,0,3.525.046,20.729,20.729,0,0,0,3.525-.046v-2.793a8.769,8.769,0,0,0-2.243-.046h-4.853V104.48a8.95,8.95,0,0,1,2.289-.045H200.7a14.431,14.431,0,0,0,.046-2.885,4.156,4.156,0,0,0-1.053-.046h-9.522Zm22.935,0h-5.264a12.082,12.082,0,0,0-2.61.046,4.46,4.46,0,0,0-2.975,1.969,5.091,5.091,0,0,0-.458,1.419,4.128,4.128,0,0,0,.275,2.2,3.342,3.342,0,0,0,2.151,2.107,13.3,13.3,0,0,0,3.663.183h1.1a3,3,0,0,0,.458.092,1.21,1.21,0,0,1,.595,1.282,2.236,2.236,0,0,1-.549.641,6.319,6.319,0,0,1-2.152.091h-5.127a14.431,14.431,0,0,0-.046,2.885,9.126,9.126,0,0,0,2.335.046h5.081a5.019,5.019,0,0,1,.962-0.183A4.271,4.271,0,0,0,212.508,113a4.886,4.886,0,0,0,.641-4.259,3.529,3.529,0,0,0-1.785-1.877,10.108,10.108,0,0,0-3.891-.367,5.224,5.224,0,0,1-1.832-.091,1.1,1.1,0,0,1-.549-1.145,1.2,1.2,0,0,1,.687-0.779,5.308,5.308,0,0,1,1.465-.045h4.578a1.851,1.851,0,0,0,.32-0.733A9.957,9.957,0,0,0,213.1,101.5Zm11.765,0.366a3.93,3.93,0,0,1,.092,1.649v3.159a10.093,10.093,0,0,1-.046,1.7h-0.091v-0.046c-0.205-.209-0.3-0.518-0.5-0.733a4.234,4.234,0,0,0-2.06-1.007c-1.383-.347-5.176.56-5.265-0.962-0.327-.54.447-1.039,0.824-1.145a8.76,8.76,0,0,1,1.969-.045h3.891C224.106,103.621,224.4,102.661,224.868,101.87Zm-57.543,2.565h2.838a4.342,4.342,0,0,1,1.419.091,1.331,1.331,0,0,1,.641.641,1.618,1.618,0,0,1,.183,1.145,1.562,1.562,0,0,1-.824.916,4.747,4.747,0,0,1-1.465.092h-2.792A10,10,0,0,1,167.325,104.435Zm13.184,0c1.7-.024,5.315-0.467,5.036,1.373a1.6,1.6,0,0,1-.367.87c-0.732.606-3.316,0.383-4.669,0.367A8.816,8.816,0,0,1,180.509,104.435Z"/>
</svg>
