<svg id="AMEX" xmlns="http://www.w3.org/2000/svg" width="340" height="190" viewBox="0 0 340 190">
  <defs>
    <style>
      .cls-1 {
        fill-rule: evenodd;
      }
    </style>
  </defs>
  <path id="AMEX-2" data-name="AMEX" class="cls-1" d="M117.07,87.95a3.575,3.575,0,0,0-4.034,1.879l-3.584,7.143a3.583,3.583,0,0,0,.151,3.471,3.619,3.619,0,0,0,3.06,1.7h3.583a3.578,3.578,0,0,0,3.583-3.572V91.429A3.571,3.571,0,0,0,117.07,87.95Zm98.453,4.521-7.159-7.136a3.638,3.638,0,0,0-1.627-.872,3.029,3.029,0,0,0-.444-0.093c-0.158-.014-0.3-0.086-0.466-0.086h-10.75a3.572,3.572,0,1,0,0,7.143h7.166v7.143h-7.166a3.572,3.572,0,1,0,0,7.143h10.75a3.633,3.633,0,0,0,2.537-1.057l7.159-7.136A3.567,3.567,0,0,0,215.523,92.472Zm39.637,21.671L239.15,95l16-19.143A3.569,3.569,0,0,0,252.408,70H234.492a3.616,3.616,0,0,0-2.537,1.043l-8.213,8.193L215.53,71.05A3.593,3.593,0,0,0,212.993,70H166.261a3.578,3.578,0,0,0-3.075,1.736l-7.675,12.758-7.675-12.758A3.578,3.578,0,0,0,144.762,70H109.08a3.591,3.591,0,0,0-3.2,1.972l-21.5,42.858a3.571,3.571,0,0,0,3.2,5.172H105.5a3.591,3.591,0,0,0,3.2-1.972l2.587-5.171h1.376v3.571A3.579,3.579,0,0,0,116.246,120h28.666a3.579,3.579,0,0,0,3.511-2.864l0.452,0.893a3.581,3.581,0,0,0,3.2,1.971h7.166a3.59,3.59,0,0,0,3.2-1.971l0.451-.893A3.58,3.58,0,0,0,166.411,120h46.582a3.617,3.617,0,0,0,2.537-1.043l8.212-8.186,8.213,8.186A3.617,3.617,0,0,0,234.492,120h17.916A3.569,3.569,0,0,0,255.16,114.143Zm-78.142-1.285h-7.024V102.143a3.588,3.588,0,0,0-6.793-1.6l-6.171,12.315h-2.745l-6.17-12.315a3.583,3.583,0,0,0-6.786,1.6v10.715h-21.5v-3.572a3.579,3.579,0,0,0-3.583-3.572H109.08a3.591,3.591,0,0,0-3.2,1.972l-2.595,5.172H93.371l17.916-35.716H127v25a3.583,3.583,0,0,0,7.166,0v-25h8.572l9.7,16.122a3.731,3.731,0,0,0,6.142,0L168.3,77.142h8.722v35.716h0Zm58.958,0.007v-0.007l-9.7-9.672a3.594,3.594,0,0,0-5.067,0l-9.7,9.672H184.184V77.143H211.51l9.7,9.672a3.594,3.594,0,0,0,5.067,0l9.7-9.672h8.786L231.747,92.715a3.564,3.564,0,0,0,0,4.579l13.015,15.572h-8.786Z"/>
</svg>
