<?xml version="1.0" standalone="no"?>
<!DOCTYPE svg PUBLIC "-//W3C//DTD SVG 20010904//EN"
 "http://www.w3.org/TR/2001/REC-SVG-20010904/DTD/svg10.dtd">
<svg version="1.0" xmlns="http://www.w3.org/2000/svg"
 width="600.000000pt" height="330.000000pt" viewBox="0 0 600.000000 330.000000"
 preserveAspectRatio="xMidYMid meet">

<g transform="translate(0.000000,330.000000) scale(0.100000,-0.100000)"
fill="#000000" stroke="none">
<path d="M889 2373 c-12 -27 -30 -70 -40 -98 -11 -27 -27 -66 -35 -85 -9 -19
-19 -44 -23 -55 -9 -22 -20 -46 -50 -117 -12 -26 -21 -49 -21 -52 0 -3 -12
-31 -26 -63 -14 -32 -29 -67 -34 -78 -5 -11 -54 -130 -110 -265 -56 -135 -108
-258 -115 -275 -7 -16 -25 -59 -40 -95 -14 -36 -32 -78 -40 -95 -7 -16 -25
-59 -39 -95 -15 -36 -31 -73 -36 -83 -10 -16 8 -17 346 -15 l357 3 28 75 c15
41 38 103 50 138 l22 62 128 0 128 0 14 -32 c16 -35 71 -189 82 -225 l6 -23
430 0 c418 0 429 0 429 19 0 36 30 35 43 -1 6 -17 68 -18 1059 -18 l1053 1 30
38 c50 64 189 219 198 220 9 1 20 -11 144 -156 l88 -103 398 0 c218 0 397 3
397 6 0 3 -28 40 -61 83 -34 42 -74 92 -89 111 -15 19 -47 60 -72 90 -24 30
-82 102 -128 160 -46 58 -119 149 -162 202 -43 54 -78 103 -78 109 0 9 227
299 250 319 3 3 21 25 40 50 19 25 37 47 40 50 20 17 260 321 260 330 0 7
-133 10 -394 10 l-395 0 -58 -67 c-118 -135 -158 -178 -165 -178 -4 0 -52 54
-106 120 l-98 120 -841 3 c-665 2 -843 -1 -851 -10 -5 -7 -22 -42 -37 -78 -15
-36 -43 -98 -61 -138 -19 -41 -34 -75 -34 -77 0 -9 -71 -155 -75 -155 -4 0
-75 146 -75 155 0 2 -15 36 -34 77 -18 40 -46 102 -61 138 -15 36 -32 71 -37
78 -8 9 -95 12 -374 12 l-364 0 -5 -23 c-4 -13 -5 -72 -3 -130 2 -82 0 -107
-10 -107 -7 0 -15 8 -19 18 -3 9 -14 35 -23 57 -10 22 -30 73 -46 112 l-29 73
-303 0 -303 0 -20 -47z m497 -151 c6 -4 61 -128 123 -277 62 -148 116 -279
121 -290 38 -86 50 -115 50 -120 0 -3 9 -24 19 -48 11 -23 32 -71 46 -107 25
-60 48 -114 71 -165 6 -12 10 179 12 493 l2 512 219 0 219 0 15 -32 c8 -18 24
-53 35 -78 11 -25 34 -76 51 -113 17 -38 31 -70 31 -72 0 -2 18 -43 40 -90 22
-47 40 -88 40 -90 0 -2 15 -36 34 -77 18 -40 44 -97 57 -127 l23 -54 18 39
c47 103 98 216 98 219 0 2 15 36 34 77 18 40 43 96 55 123 12 28 26 59 31 70
5 11 21 47 35 80 15 33 34 75 42 93 l15 32 224 0 224 0 -2 -562 -3 -563 -155
0 -155 0 -5 395 c-3 246 -8 387 -14 375 -37 -82 -46 -106 -46 -117 0 -8 -4
-18 -9 -23 -4 -6 -30 -64 -56 -130 -26 -66 -55 -138 -65 -160 -9 -22 -44 -105
-75 -185 -32 -80 -63 -148 -69 -152 -14 -10 -228 -10 -242 0 -11 8 -24 34 -84
177 -24 55 -54 125 -67 155 -44 99 -51 114 -93 215 -24 55 -53 123 -65 150
-12 28 -28 66 -36 85 -12 31 -15 -10 -19 -375 l-5 -410 -263 -3 -263 -2 -21
47 c-12 27 -33 83 -48 126 -41 121 -16 112 -305 109 l-250 -3 -49 -132 c-27
-73 -54 -135 -60 -139 -6 -4 -71 -8 -143 -8 -110 0 -133 3 -133 15 0 16 30 96
61 164 11 24 29 67 40 95 11 28 29 71 40 95 11 24 29 67 40 95 11 28 24 60 29
71 5 11 18 43 29 71 11 28 29 71 40 95 10 24 40 96 66 159 26 63 58 139 71
168 13 29 24 56 24 60 0 4 7 18 16 30 15 21 21 22 182 22 92 0 172 -4 178 -8z
m3106 -104 c46 -56 107 -131 136 -167 29 -36 57 -69 61 -74 4 -4 75 71 157
167 l149 175 158 1 c86 0 157 -3 157 -6 0 -7 -117 -153 -351 -437 -35 -44 -70
-87 -77 -97 -14 -19 4 -43 311 -423 62 -76 113 -145 115 -153 3 -12 -22 -14
-147 -14 -142 0 -151 1 -174 23 -24 21 -236 262 -276 312 -10 14 -21 25 -23
25 -3 0 -52 -53 -109 -117 -154 -175 -172 -195 -196 -220 l-22 -23 -399 0
c-296 0 -401 3 -410 12 -9 9 -12 147 -12 558 0 301 3 550 7 553 3 4 199 7 434
7 l428 0 83 -102z"/>
<path d="M1185 1934 c-9 -22 -32 -77 -51 -124 -20 -47 -46 -107 -58 -135 l-23
-50 150 -3 c82 -1 151 -1 154 1 2 2 -3 17 -12 33 -8 16 -15 32 -15 36 0 4 -13
35 -29 70 -16 35 -41 92 -57 128 -15 36 -31 69 -35 74 -4 5 -15 -9 -24 -30z"/>
<path d="M3824 1977 c-2 -7 -3 -58 -2 -113 l3 -99 188 -3 187 -2 0 -100 0
-100 -187 -2 -188 -3 0 -110 0 -110 200 -3 200 -3 20 24 c11 14 75 88 143 166
67 77 122 144 122 147 0 3 -26 38 -58 77 -31 40 -86 111 -122 159 l-65 87
-218 1 c-171 0 -219 -3 -223 -13z"/>
</g>
</svg>
