<?xml version="1.0" standalone="no"?>
<!DOCTYPE svg PUBLIC "-//W3C//DTD SVG 20010904//EN"
 "http://www.w3.org/TR/2001/REC-SVG-20010904/DTD/svg10.dtd">
<svg version="1.0" xmlns="http://www.w3.org/2000/svg"
 width="1200.000000pt" height="660.000000pt" viewBox="0 0 1200.000000 660.000000"
 preserveAspectRatio="xMidYMid meet">
<metadata>
Created by potrace 1.13, written by Peter Selinger 2001-2015
</metadata>
<g transform="translate(0.000000,660.000000) scale(0.100000,-0.100000)"
fill="#000000" stroke="none">
<path d="M2545 5595 c-159 -56 -263 -123 -372 -240 -68 -72 -93 -108 -137
-199 -65 -132 -88 -221 -90 -336 l-1 -85 48 -3 c26 -2 80 6 123 18 246 67 439
265 534 547 29 86 33 111 34 208 l1 110 -35 2 c-19 1 -66 -9 -105 -22z"/>
<path d="M4454 5165 c-2 -5 -3 -752 -2 -1660 l3 -1650 240 -3 c132 -1 251 0
264 3 l23 6 -3 544 c-2 299 0 547 4 551 4 4 200 8 435 9 373 0 438 3 512 18
238 52 407 137 564 287 159 152 244 310 307 570 21 83 18 384 -4 483 -102 460
-438 768 -912 836 -105 15 -1426 21 -1431 6z m1269 -446 c253 -38 426 -153
510 -339 34 -75 37 -84 53 -175 46 -258 -35 -515 -204 -648 -88 -69 -172 -106
-302 -133 -93 -20 -773 -32 -794 -14 -14 11 -15 91 -12 664 2 358 5 652 5 654
3 8 685 0 744 -9z"/>
<path d="M1335 4715 c-276 -52 -537 -241 -686 -500 -162 -280 -215 -623 -148
-964 71 -365 165 -602 345 -876 171 -259 315 -399 484 -468 169 -70 295 -63
520 26 101 40 109 42 210 41 94 0 113 -4 175 -31 65 -28 117 -45 221 -72 60
-16 197 -13 268 5 33 8 90 31 126 51 136 74 221 159 366 369 112 162 177 280
234 424 48 120 112 330 106 346 -4 10 -27 20 -173 76 -189 71 -293 231 -293
446 0 184 76 302 294 462 64 47 116 91 116 98 0 23 -142 224 -209 295 -131
139 -317 236 -518 271 -174 31 -303 15 -562 -70 -91 -30 -172 -54 -180 -54
-14 0 -120 37 -176 60 -174 74 -351 96 -520 65z m309 -460 c39 -13 108 -40
154 -59 173 -74 323 -72 494 8 74 34 224 78 286 83 59 5 77 1 147 -26 44 -17
95 -40 112 -51 l33 -20 -56 -82 c-70 -103 -111 -190 -138 -295 -64 -248 -20
-533 110 -716 49 -68 127 -150 186 -193 l47 -35 -24 -66 c-60 -158 -241 -416
-334 -475 -57 -35 -86 -35 -191 3 -354 127 -490 128 -813 5 -120 -46 -174 -32
-276 72 -149 152 -316 446 -380 672 -8 25 -17 56 -22 70 -17 55 -38 171 -50
281 -19 188 8 359 83 518 95 199 332 354 512 335 27 -3 81 -16 120 -29z"/>
<path d="M11090 4291 l-115 -6 -22 -65 c-11 -36 -31 -99 -43 -140 -13 -41 -38
-122 -56 -180 -18 -58 -42 -134 -53 -170 -45 -147 -115 -374 -157 -510 -25
-80 -59 -190 -76 -245 -17 -55 -46 -147 -64 -205 -36 -118 -112 -362 -123
-400 -8 -27 -41 -41 -41 -18 0 8 -15 61 -34 119 -18 57 -43 138 -56 179 -12
41 -31 100 -40 130 -10 30 -35 109 -55 175 -21 66 -52 167 -70 225 -19 58 -48
152 -65 210 -18 58 -47 152 -65 210 -51 163 -111 355 -144 465 -16 55 -38 127
-48 160 l-19 60 -269 3 c-150 1 -273 -2 -278 -7 -5 -5 -4 -16 2 -27 6 -11 52
-129 102 -264 143 -388 159 -432 179 -485 10 -27 34 -93 54 -145 19 -52 51
-140 71 -195 20 -55 45 -124 55 -152 11 -29 29 -77 39 -105 11 -29 35 -96 55
-148 19 -52 51 -140 71 -195 20 -55 45 -124 55 -152 11 -29 29 -77 39 -105 11
-29 35 -96 54 -148 19 -52 51 -139 71 -193 l35 -98 -35 -101 c-47 -136 -87
-211 -139 -267 -40 -42 -63 -57 -135 -89 -42 -19 -171 -32 -249 -25 -57 5 -75
3 -82 -8 -12 -19 -11 -370 1 -389 8 -12 41 -15 197 -15 222 0 306 17 463 92
79 38 109 60 176 127 160 160 225 290 419 836 18 52 51 145 73 205 37 103 55
154 102 280 10 28 30 84 45 125 28 78 41 114 98 270 20 52 66 178 102 280 106
292 135 371 155 425 10 28 40 109 65 180 26 72 50 139 55 150 5 11 30 76 55
145 26 69 54 138 62 153 27 54 19 57 -149 55 -84 -1 -205 -4 -268 -7z"/>
<path d="M7870 4283 c-267 -42 -444 -118 -597 -257 -63 -57 -143 -174 -172
-250 -24 -64 -50 -186 -43 -203 3 -10 59 -13 231 -13 l226 0 24 61 c64 165
249 268 481 268 105 0 188 -17 273 -57 158 -74 223 -208 215 -442 l-3 -95
-210 -12 c-535 -31 -594 -36 -706 -58 -275 -55 -473 -172 -573 -339 -63 -105
-80 -173 -80 -321 0 -137 11 -194 60 -301 49 -107 160 -225 275 -291 63 -36
192 -81 280 -97 98 -18 268 -21 355 -5 227 40 427 158 551 326 29 40 57 73 61
73 4 0 7 -87 7 -192 l0 -193 235 0 235 0 0 875 0 875 -23 80 c-103 361 -465
579 -950 574 -70 -1 -138 -4 -152 -6z m624 -1319 c13 -5 16 -23 16 -96 0 -130
-17 -223 -55 -303 -42 -87 -90 -144 -167 -196 -128 -87 -217 -112 -398 -113
-115 -1 -145 3 -204 22 -79 27 -107 42 -159 91 -123 115 -119 318 8 430 90 79
205 111 475 131 330 24 432 33 462 39 3 0 13 -2 22 -5z"/>
</g>
</svg>
