<?xml version="1.0" standalone="no"?>
<!DOCTYPE svg PUBLIC "-//W3C//DTD SVG 20010904//EN"
 "http://www.w3.org/TR/2001/REC-SVG-20010904/DTD/svg10.dtd">
<svg version="1.0" xmlns="http://www.w3.org/2000/svg"
 width="1200.000000pt" height="660.000000pt" viewBox="0 0 1200.000000 660.000000"
 preserveAspectRatio="xMidYMid meet">
<metadata>
Created by potrace 1.13, written by Peter Selinger 2001-2015
</metadata>
<g transform="translate(0.000000,660.000000) scale(0.100000,-0.100000)"
fill="#000000" stroke="none">
<path d="M1685 6215 c-5 -2 -44 -11 -84 -20 -41 -10 -82 -21 -90 -25 -9 -4
-29 -14 -46 -21 -55 -25 -149 -92 -194 -138 -101 -106 -154 -212 -187 -376
-21 -103 -21 -4574 0 -4680 40 -204 139 -359 295 -464 83 -55 126 -73 267
-110 29 -8 1301 -11 4360 -11 4505 1 4335 -1 4460 38 88 28 206 101 273 171
40 43 121 153 121 166 0 3 8 24 19 48 10 23 24 62 31 87 7 25 16 58 21 74 5
16 9 1032 9 2342 0 2459 2 2331 -45 2468 -9 26 -26 64 -37 85 -12 20 -28 50
-37 66 -8 17 -49 64 -91 105 -100 100 -198 150 -360 186 -56 12 -675 14 -4370
13 -2368 0 -4309 -2 -4315 -4z m8630 -79 c127 -21 195 -47 285 -107 112 -75
187 -180 232 -324 38 -125 38 -121 37 -2413 0 -1516 -4 -2230 -11 -2282 -38
-263 -199 -466 -422 -531 -137 -41 46 -39 -4434 -39 -2971 0 -4277 3 -4310 11
-156 35 -211 57 -292 118 -110 82 -184 196 -231 351 -12 37 -14 437 -14 2380
l0 2335 23 70 c69 207 194 336 387 401 127 43 -17 41 4425 42 3525 1 4259 -1
4325 -12z"/>
<path d="M1855 5808 c-3 -7 -4 -287 -3 -623 l3 -610 130 -3 c72 -1 231 1 355
6 l225 8 63 34 c74 39 124 93 160 170 38 82 36 193 -3 273 -17 35 -51 78 -82
107 -29 27 -53 52 -53 55 0 4 14 23 31 43 122 138 91 364 -66 483 -89 67 -100
69 -447 69 -238 0 -310 -3 -313 -12z m504 -253 c72 -37 93 -130 42 -187 -24
-27 -36 -32 -89 -36 -34 -2 -73 -1 -87 2 -25 6 -25 7 -25 120 0 82 4 116 13
120 22 10 114 -2 146 -19z m30 -493 c50 -25 74 -63 74 -116 0 -91 -55 -129
-181 -124 l-77 3 -3 114 c-1 63 0 121 2 128 8 20 143 17 185 -5z"/>
<path d="M7665 5751 c-6 -5 -59 -35 -120 -67 -171 -88 -155 -69 -155 -184 l0
-99 -47 -3 c-38 -2 -48 -7 -47 -20 0 -10 1 -63 2 -117 l2 -100 48 -3 47 -3 5
-221 c5 -219 5 -221 32 -261 54 -81 119 -113 232 -113 71 0 113 11 174 43 l32
18 0 95 c0 88 -2 95 -17 89 -60 -26 -91 -29 -117 -11 l-26 17 2 182 3 182 78
3 77 3 2 94 c0 52 1 101 2 108 1 8 -23 13 -81 15 -101 3 -96 -8 -91 203 3 131
1 154 -12 157 -9 1 -20 -2 -25 -7z"/>
<path d="M9875 5718 c-38 -22 -100 -55 -137 -75 l-67 -35 -3 -101 -3 -102 -52
-3 -53 -3 0 -118 c0 -132 -1 -131 78 -131 l32 0 0 -187 c0 -104 5 -206 10
-227 14 -61 59 -117 120 -151 49 -27 64 -30 140 -30 73 0 93 4 142 28 66 33
69 39 65 147 -4 84 8 76 -94 63 -60 -7 -64 5 -61 204 l3 168 67 3 c40 2 71 8
78 16 7 9 10 50 8 112 l-3 99 -80 5 -80 5 -3 178 c-3 206 3 198 -107 135z"/>
<path d="M5020 5419 c-30 -5 -87 -25 -126 -44 -304 -149 -311 -596 -13 -755
82 -44 148 -60 244 -60 85 0 134 10 203 42 l42 20 0 124 c0 68 -4 124 -8 124
-5 0 -26 -9 -48 -19 -56 -27 -150 -36 -215 -21 -100 24 -162 107 -144 190 10
45 68 106 120 126 61 23 174 16 236 -14 25 -12 49 -22 52 -22 4 0 6 59 5 132
l-3 132 -65 22 c-76 26 -202 36 -280 23z"/>
<path d="M5760 5417 c-84 -25 -145 -61 -206 -122 -139 -139 -171 -321 -85
-498 105 -216 405 -308 636 -193 334 166 322 624 -22 783 -70 33 -88 37 -178
40 -63 2 -117 -2 -145 -10z m210 -279 c78 -40 115 -151 76 -226 -31 -59 -101
-102 -166 -102 -48 0 -112 42 -137 90 -84 158 68 318 227 238z"/>
<path d="M9182 5419 c-135 -17 -274 -114 -332 -233 -57 -115 -56 -266 2 -382
107 -215 387 -304 631 -201 l37 16 0 125 c0 70 -4 126 -8 126 -5 0 -26 -9 -48
-19 -51 -25 -167 -36 -220 -22 -140 38 -185 166 -94 265 23 24 57 48 79 56 56
18 177 9 232 -18 24 -12 47 -18 51 -14 5 5 7 64 6 132 l-3 124 -65 22 c-76 25
-178 34 -268 23z"/>
<path d="M4185 5402 c-28 -10 -62 -25 -75 -35 -32 -22 -38 -22 -42 6 -3 22 -6
22 -155 25 l-153 3 0 -416 0 -416 148 3 147 3 5 255 c4 181 9 262 18 277 27
49 106 67 162 38 56 -29 60 -49 60 -325 l0 -251 148 3 147 3 3 289 c3 344 -1
365 -78 449 -85 94 -221 130 -335 89z"/>
<path d="M6860 5409 c-19 -5 -57 -19 -84 -32 l-49 -22 -15 23 c-14 21 -20 22
-158 22 l-144 0 0 -409 c0 -260 4 -411 10 -413 5 -1 73 -2 150 0 l140 3 0 245
c0 270 4 290 60 319 16 8 48 15 71 15 33 0 47 -6 75 -34 l34 -34 1 -103 c1
-170 9 -402 14 -407 3 -4 128 -5 273 -2 11 0 12 60 10 308 l-3 307 -27 50
c-33 63 -78 106 -145 140 -59 29 -157 40 -213 24z"/>
<path d="M3060 5394 c-107 -22 -106 -21 -124 -121 -17 -91 -20 -133 -11 -133
4 0 18 6 33 14 40 20 156 44 253 52 126 10 188 -16 145 -59 -9 -8 -47 -17 -93
-21 -251 -23 -387 -125 -409 -307 -13 -110 32 -194 125 -238 52 -24 66 -26
186 -26 97 0 141 5 175 17 29 11 48 14 56 7 7 -5 70 -8 150 -7 l139 3 3 289
c3 345 -1 368 -76 438 -50 47 -126 82 -216 99 -71 13 -260 10 -336 -7z m314
-460 c12 -4 16 -20 16 -55 0 -88 -38 -130 -126 -137 -46 -4 -56 -1 -78 21 -31
32 -33 65 -5 101 40 51 144 89 193 70z"/>
<path d="M8170 5404 c-14 -2 -53 -11 -88 -20 -49 -13 -63 -21 -67 -38 -16 -76
-35 -199 -31 -203 2 -3 14 0 25 6 74 40 346 75 404 52 31 -12 37 -45 10 -59
-10 -5 -62 -15 -115 -21 -202 -23 -318 -95 -367 -226 -25 -66 -27 -125 -6
-186 20 -59 56 -96 124 -127 48 -22 71 -25 161 -26 97 -1 191 15 214 35 5 4
17 4 26 -1 23 -12 261 -22 278 -11 10 6 12 73 10 317 -3 354 -4 358 -93 426
-79 60 -157 80 -320 84 -77 1 -151 1 -165 -2z m288 -524 c3 -68 -21 -113 -74
-135 -82 -34 -154 -2 -154 69 0 68 85 126 180 123 l45 -2 3 -55z"/>
<path d="M7386 4263 c-1619 -3 -2052 -6 -2064 -16 -14 -11 -361 -393 -557
-612 -49 -55 -113 -125 -141 -155 -28 -30 -83 -91 -122 -135 l-71 -80 -1288 0
-1288 0 0 -479 0 -479 2393 2 c1317 1 2399 5 2405 8 7 2 81 82 165 176 84 95
169 190 190 212 20 22 57 63 82 91 25 27 87 97 139 155 52 57 131 144 175 194
45 49 98 108 118 130 l37 40 1288 0 1288 0 1 460 c1 253 0 468 -3 478 -4 16
-28 17 -351 15 -191 -2 -1269 -4 -2396 -5z"/>
<path d="M7042 2000 c-202 -53 -368 -205 -437 -399 -26 -74 -37 -194 -25 -279
32 -238 194 -425 440 -511 49 -17 96 -24 191 -28 141 -6 233 9 326 51 l52 25
3 133 c2 73 0 137 -3 141 -4 5 -28 -5 -54 -22 -65 -41 -130 -54 -256 -50 -98
4 -110 7 -181 42 -84 41 -137 93 -178 173 -36 70 -35 195 1 274 64 138 174
200 355 200 107 0 176 -14 249 -49 32 -16 63 -27 67 -25 4 3 8 66 8 140 l0
135 -44 19 c-117 52 -372 67 -514 30z"/>
<path d="M1855 2000 c-4 -6 -4 -275 0 -598 3 -323 5 -593 5 -600 0 -10 36 -12
163 -10 l162 3 -4 331 c-3 225 -1 333 7 338 10 6 59 -56 172 -222 35 -51 68
-91 74 -89 5 2 56 70 113 153 57 82 110 150 118 152 13 3 15 -39 15 -332 l0
-336 155 0 c116 0 157 3 159 13 3 6 7 279 10 605 l5 592 -166 -2 -166 -3 -114
-165 c-63 -91 -122 -166 -131 -168 -12 -1 -47 43 -116 148 -145 219 -116 200
-300 200 -94 0 -157 -4 -161 -10z"/>
<path d="M9292 1403 l3 -608 148 -3 c81 -1 147 1 147 5 0 5 1 124 3 266 l2
259 32 29 c18 16 44 31 58 35 65 16 137 -26 149 -87 3 -18 6 -139 6 -270 l0
-239 154 0 c85 0 157 3 160 8 2 4 1 149 -3 322 -7 304 -8 316 -30 355 -41 71
-60 92 -108 123 -106 68 -228 76 -344 21 -34 -16 -65 -27 -68 -23 -3 3 -6 97
-6 207 l0 202 -153 3 -152 3 2 -608z"/>
<path d="M3172 1983 c-47 -23 -75 -67 -80 -128 -5 -64 17 -115 65 -152 49 -38
134 -38 190 -1 99 66 98 218 -3 275 -47 27 -124 30 -172 6z"/>
<path d="M4393 1923 l-143 -75 0 -103 0 -103 -30 -7 c-16 -4 -34 -4 -39 -1 -5
3 -16 3 -25 0 -13 -5 -16 -25 -16 -120 l0 -114 39 0 c75 0 71 12 71 -229 0
-246 6 -268 78 -333 76 -69 202 -85 314 -41 89 35 88 33 88 144 0 55 -2 99 -4
99 -2 0 -20 -7 -39 -15 -49 -20 -90 -19 -110 3 -15 16 -17 45 -17 200 l0 181
83 3 82 3 3 104 c2 77 -1 107 -10 113 -7 5 -42 7 -78 6 -36 -1 -71 1 -78 5 -9
6 -12 54 -12 183 0 96 -3 174 -7 173 -5 -1 -72 -35 -150 -76z"/>
<path d="M6075 1657 c-53 -18 -98 -42 -114 -61 -18 -21 -31 -11 -31 25 l0 29
-145 0 -145 0 0 -430 0 -431 147 3 148 3 -3 240 c-3 224 -2 242 17 271 27 44
78 81 132 94 39 10 54 9 107 -9 34 -12 64 -21 67 -21 3 0 5 58 5 130 0 128 0
130 -26 146 -33 22 -109 27 -159 11z"/>
<path d="M3700 1644 c-142 -38 -220 -130 -220 -259 0 -69 20 -124 56 -157 34
-30 118 -66 182 -79 61 -11 122 -42 129 -65 2 -6 -5 -22 -16 -35 -18 -22 -26
-24 -108 -23 -49 1 -114 9 -148 19 -112 32 -108 35 -113 -76 -2 -57 1 -105 7
-117 7 -13 33 -25 78 -36 350 -88 623 25 623 257 0 129 -103 225 -282 262 -41
9 -81 24 -92 34 -18 19 -18 20 7 45 33 33 81 34 196 5 45 -11 85 -19 87 -16 3
3 2 48 -2 101 -8 115 -8 115 -153 140 -114 19 -159 19 -231 0z"/>
<path d="M5053 1645 c-82 -23 -147 -60 -201 -115 -97 -99 -140 -237 -120 -385
36 -265 291 -419 604 -365 89 16 203 59 219 84 10 15 13 50 11 126 -3 123 7
118 -131 69 -77 -27 -104 -32 -182 -32 -77 0 -100 4 -139 24 -53 26 -82 60
-86 99 l-3 25 275 5 275 5 3 33 c4 44 -23 179 -48 237 -29 68 -113 147 -185
175 -77 29 -217 36 -292 15z m177 -206 c38 -21 65 -62 55 -80 -7 -10 -258 -13
-267 -3 -12 11 27 63 62 83 45 27 103 26 150 0z"/>
<path d="M7866 1644 c-129 -23 -128 -22 -150 -147 -11 -59 -17 -109 -15 -111
2 -2 36 7 75 20 136 45 333 59 374 26 48 -39 0 -66 -135 -76 -157 -11 -283
-76 -339 -176 -29 -51 -31 -62 -31 -152 0 -91 2 -99 30 -139 41 -59 118 -97
213 -107 84 -9 188 1 249 23 31 12 47 14 62 6 30 -16 266 -14 279 2 8 9 10
113 8 322 -2 294 -4 312 -24 351 -72 140 -325 207 -596 158z m312 -524 c5 -75
-17 -114 -74 -136 -115 -44 -201 43 -126 127 31 34 121 70 167 66 29 -2 30 -4
33 -57z"/>
<path d="M8773 1651 c-156 -40 -256 -183 -223 -320 22 -93 103 -155 238 -181
61 -12 122 -43 129 -66 2 -6 -5 -22 -16 -35 -18 -22 -25 -24 -108 -22 -58 1
-115 10 -169 26 l-82 23 -4 -95 c-2 -53 -2 -106 0 -117 5 -26 35 -41 121 -58
211 -44 378 -20 496 69 81 62 114 212 68 301 -40 75 -130 133 -250 159 -116
26 -135 42 -93 80 24 22 120 22 200 -1 90 -25 84 -30 81 70 -4 126 -6 130 -88
151 -75 19 -250 29 -300 16z"/>
<path d="M3095 1226 c-4 -222 -4 -409 -1 -415 9 -14 313 -15 318 -1 2 5 2 192
0 415 l-2 405 -154 0 -154 0 -7 -404z"/>
</g>
</svg>
