<?xml version="1.0" standalone="no"?>
<!DOCTYPE svg PUBLIC "-//W3C//DTD SVG 20010904//EN"
 "http://www.w3.org/TR/2001/REC-SVG-20010904/DTD/svg10.dtd">
<svg version="1.0" xmlns="http://www.w3.org/2000/svg"
 width="1200.000000pt" height="660.000000pt" viewBox="0 0 1200.000000 660.000000"
 preserveAspectRatio="xMidYMid meet">
<metadata>
Created by potrace 1.13, written by Peter Selinger 2001-2015
</metadata>
<g transform="translate(0.000000,660.000000) scale(0.100000,-0.100000)"
fill="#000000" stroke="none">
<path d="M3813 6184 c-3 -9 -3 -98 0 -197 4 -100 7 -561 7 -1025 l0 -842 1748
4 c961 2 1770 6 1797 10 28 4 59 11 70 15 11 5 38 14 60 20 140 43 322 156
415 258 192 210 290 457 290 732 0 286 -101 533 -299 732 -125 125 -308 235
-466 281 l-80 23 -1768 3 c-1620 2 -1768 1 -1774 -14z m2324 -765 c7 -7 48
-11 112 -10 78 2 101 -1 101 -11 0 -9 13 -12 45 -10 28 3 52 -1 61 -9 9 -7 36
-12 65 -10 37 2 49 -1 49 -12 0 -9 9 -12 30 -9 21 3 30 0 30 -10 0 -10 9 -13
30 -10 22 3 30 0 30 -11 0 -10 6 -13 20 -10 14 4 20 0 20 -10 0 -10 6 -13 20
-10 11 3 20 0 20 -6 0 -6 9 -11 20 -11 11 0 20 -7 20 -15 0 -8 6 -12 14 -9 20
8 110 -82 102 -102 -3 -8 1 -14 10 -14 11 0 15 -6 11 -20 -3 -13 0 -20 9 -20
9 0 14 -11 14 -30 0 -16 5 -30 10 -30 6 0 10 -25 10 -55 0 -30 -4 -55 -10 -55
-5 0 -10 -13 -10 -30 0 -19 -5 -30 -14 -30 -9 0 -12 -8 -9 -25 5 -24 -15 -55
-36 -55 -6 0 -8 -6 -5 -14 8 -20 -162 -190 -182 -182 -8 3 -14 -1 -14 -9 0 -8
-7 -15 -16 -15 -9 0 -25 -10 -35 -21 -11 -12 -25 -19 -34 -15 -9 3 -15 0 -15
-10 0 -11 -6 -15 -20 -11 -14 3 -20 0 -20 -10 0 -11 -8 -14 -30 -11 -21 3 -30
0 -30 -10 0 -10 -9 -13 -30 -10 -21 3 -30 0 -30 -10 0 -10 -9 -13 -30 -10 -20
3 -30 0 -30 -9 0 -9 -13 -13 -40 -13 -22 0 -40 -4 -40 -10 0 -5 -22 -10 -50
-10 -27 0 -50 -4 -50 -10 0 -6 -27 -10 -60 -10 -33 0 -60 -4 -60 -10 0 -6 -98
-10 -275 -10 -177 0 -275 4 -275 10 0 6 -28 10 -65 10 -53 0 -70 4 -90 22 -19
16 -36 22 -61 19 -19 -1 -42 3 -51 10 -8 8 -28 12 -44 11 -20 -3 -29 1 -29 11
0 9 -9 12 -30 9 -25 -4 -30 -1 -30 17 0 21 -8 25 -42 22 -10 -1 -18 4 -18 13
0 9 -6 13 -15 10 -15 -6 -45 17 -45 34 0 6 -9 8 -20 5 -14 -4 -20 0 -20 12 0
9 -9 19 -20 22 -11 3 -20 11 -20 17 0 7 -9 22 -21 35 -11 12 -18 29 -15 37 3
8 -1 14 -10 14 -9 0 -14 8 -13 18 3 33 -1 42 -21 42 -16 0 -20 7 -20 35 0 27
4 35 18 35 12 0 10 4 -8 13 -23 12 -25 18 -25 82 0 64 2 70 25 82 18 9 20 13
8 13 -14 0 -18 8 -18 35 0 28 4 35 20 35 19 0 24 10 21 37 -1 7 12 27 29 44
16 18 30 38 30 45 0 8 6 14 14 14 7 0 27 14 44 30 36 34 52 38 52 13 0 -13 4
-11 13 7 9 17 21 25 41 26 15 1 32 7 36 14 4 7 15 10 24 7 10 -4 25 3 40 18
17 17 36 25 61 25 19 0 35 5 35 10 0 6 30 10 70 10 42 0 70 4 70 10 0 7 55 10
161 9 105 0 165 3 172 10 15 15 349 15 364 0z"/>
<path d="M3819 3924 c-13 -16 -11 -2061 3 -2070 6 -4 792 -6 1747 -5 1957 2
1847 -2 2000 75 147 74 164 84 236 139 181 138 322 364 370 592 28 133 34 335
14 422 -27 111 -74 250 -96 283 -12 19 -23 38 -23 42 0 22 -129 185 -200 251
-115 108 -250 191 -370 226 -25 7 -53 17 -62 22 -10 5 -31 9 -47 9 -17 0 -52
4 -78 10 -69 14 -3482 19 -3494 4z m2311 -244 c0 -6 27 -10 60 -10 33 0 60 -4
60 -10 0 -6 27 -10 60 -10 33 0 60 -4 60 -10 0 -5 14 -10 30 -10 17 0 30 -4
30 -10 0 -5 14 -10 30 -10 17 0 30 -4 30 -10 0 -5 14 -10 30 -10 19 0 30 -5
30 -14 0 -9 7 -12 20 -9 14 4 20 0 20 -10 0 -10 6 -13 20 -10 14 4 20 0 20
-10 0 -10 6 -13 20 -10 14 4 20 0 20 -11 0 -9 6 -13 15 -10 15 6 45 -17 45
-35 0 -6 7 -8 15 -5 19 8 209 -182 201 -201 -3 -9 1 -15 10 -15 11 0 15 -6 11
-20 -3 -13 0 -20 9 -20 8 0 14 -9 14 -20 0 -11 5 -20 10 -20 6 0 10 -22 10
-50 0 -27 5 -50 10 -50 6 0 10 -16 10 -35 0 -19 -4 -35 -10 -35 -5 0 -10 -18
-10 -40 0 -28 -4 -40 -14 -40 -9 0 -12 -7 -9 -20 4 -14 0 -20 -11 -20 -9 0
-13 -6 -10 -14 8 -20 -102 -130 -122 -122 -8 3 -14 1 -14 -5 0 -18 -30 -41
-45 -35 -9 3 -15 -1 -15 -10 0 -11 -6 -15 -20 -11 -10 3 -25 -2 -31 -10 -7 -8
-21 -12 -31 -10 -11 3 -18 0 -18 -10 0 -10 -9 -14 -29 -11 -16 1 -36 -3 -44
-11 -9 -7 -31 -11 -50 -10 -19 2 -42 -3 -50 -10 -9 -7 -31 -11 -50 -10 -19 2
-42 -2 -50 -9 -11 -9 -46 -13 -112 -11 -61 1 -100 -2 -108 -10 -16 -16 -788
-16 -805 1 -7 7 -28 11 -48 9 -19 -1 -42 3 -51 10 -8 8 -28 12 -44 11 -20 -3
-29 1 -29 11 0 9 -9 12 -30 9 -18 -3 -30 0 -30 7 0 6 -7 11 -15 11 -9 0 -27
11 -41 25 -14 14 -30 23 -35 19 -11 -6 -69 17 -69 28 0 5 -9 8 -20 8 -12 0
-20 7 -20 16 0 9 -8 18 -18 20 -17 5 -42 47 -42 71 0 7 -9 13 -20 13 -11 0
-20 7 -20 15 0 8 8 15 18 15 12 0 10 4 -8 13 -17 9 -25 22 -27 42 0 17 -2 36
-2 43 -1 6 -10 12 -21 12 -19 0 -20 7 -20 101 0 97 9 129 37 129 4 0 8 19 8
42 0 35 4 44 25 55 18 9 20 13 8 13 -10 0 -18 7 -18 15 0 8 9 15 20 15 11 0
20 6 20 13 0 24 25 67 38 67 8 0 16 9 19 20 3 11 12 20 20 20 8 0 17 9 20 21
4 14 12 19 24 16 12 -3 19 0 19 10 0 8 8 13 18 12 34 -3 42 1 42 22 0 16 5 20
20 16 13 -3 20 0 20 10 0 10 9 14 28 13 45 -3 52 -1 52 20 0 17 7 20 40 20 22
0 40 5 40 11 0 7 18 10 50 7 37 -2 50 1 50 10 0 10 17 13 70 10 51 -2 70 0 70
10 0 9 68 12 305 12 197 0 305 -4 305 -10z"/>
<path d="M2365 1530 c-3 -6 -5 -125 -4 -265 1 -140 -1 -258 -4 -262 -4 -3 -7
-133 -7 -288 0 -237 2 -285 15 -295 11 -9 92 -11 332 -8 l318 3 73 34 c129 61
201 176 205 328 2 82 -73 209 -134 228 -26 9 -24 23 7 47 14 11 37 39 52 62
24 37 26 50 26 136 -1 79 -4 102 -23 135 -34 59 -67 91 -130 122 l-56 28 -332
3 c-229 2 -333 0 -338 -8z m557 -205 c56 -11 88 -48 88 -102 0 -58 -12 -79
-60 -103 -34 -17 -59 -20 -184 -20 -173 0 -166 -6 -166 134 0 82 2 95 18 98
30 6 265 1 304 -7z m48 -445 c49 -25 62 -49 62 -111 0 -58 -29 -105 -78 -125
-34 -14 -305 -21 -338 -8 -23 9 -24 235 -1 254 8 6 18 9 23 7 4 -3 14 -2 22 3
8 5 73 7 143 5 102 -4 136 -9 167 -25z"/>
<path d="M5256 1513 c-4 -10 -7 -130 -6 -268 0 -137 -2 -373 -4 -524 -3 -172
-1 -281 5 -292 8 -17 22 -19 107 -19 63 0 102 4 110 12 8 8 12 53 12 136 l0
124 30 30 c30 29 31 30 51 12 16 -15 102 -161 156 -267 22 -42 43 -48 164 -45
160 4 160 4 34 198 -41 63 -75 120 -75 125 0 6 -14 28 -30 49 -17 22 -30 44
-30 50 0 5 -12 27 -27 48 l-26 38 28 55 c15 30 32 55 37 55 6 0 40 30 77 68
105 107 126 133 113 141 -6 4 -64 8 -128 10 l-117 3 -54 -58 c-30 -31 -74 -85
-98 -119 -24 -33 -55 -67 -69 -75 -23 -12 -28 -11 -46 5 -14 13 -17 21 -9 31
10 12 12 454 2 482 -4 8 -34 12 -103 12 -83 0 -99 -3 -104 -17z"/>
<path d="M9307 1469 c-15 -9 -17 -22 -13 -104 5 -110 -4 -129 -56 -118 -41 8
-58 -15 -58 -80 0 -71 12 -87 66 -87 39 0 46 -3 55 -27 7 -20 7 -33 0 -45 -15
-24 -13 -439 2 -498 17 -64 64 -93 177 -109 90 -13 164 -3 182 24 4 5 8 40 8
77 0 58 -3 69 -22 82 -12 9 -39 16 -60 16 -25 0 -40 6 -47 17 -5 10 -9 99 -8
199 0 99 -3 185 -7 192 -10 17 3 60 21 66 9 4 30 4 47 1 46 -9 64 11 70 74 8
85 -2 99 -71 103 l-58 3 -5 100 c-3 55 -9 106 -13 113 -10 15 -183 16 -210 1z"/>
<path d="M3650 1256 c-113 -27 -192 -98 -206 -185 l-7 -41 74 -2 c111 -3 139
1 169 23 62 46 152 44 217 -4 l32 -23 -35 -37 c-37 -38 -84 -57 -144 -57 -48
-1 -188 -33 -225 -52 -44 -23 -81 -60 -104 -106 -29 -56 -29 -198 -1 -259 32
-72 131 -123 235 -123 73 1 126 15 185 52 l51 32 29 -32 c29 -32 29 -32 129
-32 54 0 106 3 115 6 22 8 20 41 -4 71 -19 24 -20 41 -20 268 0 202 -2 245
-15 255 -11 9 -12 17 -4 33 18 32 -6 93 -54 141 -33 32 -58 47 -107 61 -83 23
-237 29 -310 11z m240 -486 c15 -28 3 -104 -21 -135 -30 -37 -76 -55 -140 -55
-52 0 -60 3 -76 26 -9 15 -16 43 -16 62 1 48 36 77 110 92 32 7 69 16 83 20
39 13 49 11 60 -10z"/>
<path d="M4685 1261 c-11 -4 -37 -15 -57 -24 -46 -21 -85 -22 -104 -2 -19 19
-184 21 -202 3 -8 -8 -12 -46 -12 -105 0 -75 3 -95 15 -99 14 -6 14 -8 1 -18
-22 -16 -25 -584 -4 -597 7 -5 57 -9 111 -9 81 0 99 3 104 16 3 9 7 127 7 263
1 135 6 268 10 295 9 47 11 49 63 73 65 30 121 28 173 -7 l35 -22 -3 -289 c-2
-191 1 -296 8 -309 10 -18 21 -20 115 -20 66 0 106 4 111 11 9 15 5 582 -4
589 -4 3 -7 28 -8 56 -1 90 -68 162 -176 191 -55 14 -149 16 -183 4z"/>
<path d="M6326 1255 c-68 -19 -147 -76 -184 -134 -18 -27 -32 -53 -32 -57 0
-5 -12 -32 -27 -59 -25 -46 -27 -59 -28 -165 0 -139 23 -218 90 -309 36 -49
57 -66 121 -98 l78 -38 135 0 c131 0 138 1 202 31 83 39 124 81 172 171 43 82
62 188 54 293 -5 65 -23 120 -38 120 -4 0 -11 15 -15 33 -17 78 -109 170 -207
206 -46 17 -79 21 -165 20 -59 0 -129 -7 -156 -14z m234 -194 c19 -11 45 -24
57 -30 13 -6 20 -16 17 -25 -3 -7 2 -40 12 -72 45 -157 -19 -323 -132 -340
-24 -3 -59 -3 -78 0 -41 8 -101 64 -121 114 -20 46 -20 198 -1 244 8 19 12 45
9 56 -4 17 -1 22 15 22 12 0 24 5 28 11 24 39 138 50 194 20z"/>
<path d="M7410 1256 c-25 -6 -63 -24 -85 -39 l-40 -27 -25 30 c-24 29 -27 30
-111 30 -58 0 -90 -4 -97 -13 -7 -8 -11 -139 -11 -389 -1 -207 -4 -383 -7
-391 -3 -8 2 -22 11 -31 13 -12 37 -16 110 -16 135 0 128 -17 124 269 -2 130
0 246 4 258 5 12 4 38 -1 56 -9 33 -9 35 34 56 74 35 133 28 203 -26 2 -1 -1
-9 -7 -16 -8 -10 -8 -63 -1 -198 6 -101 8 -228 5 -281 -7 -119 -8 -118 129
-118 94 0 96 0 106 27 6 16 9 127 9 277 -2 336 -7 307 49 334 57 28 88 28 146
0 33 -16 44 -26 39 -38 -11 -27 -4 -573 8 -587 12 -15 194 -18 217 -4 13 8 15
56 14 293 -1 156 -4 290 -7 298 -2 8 -6 36 -9 62 -6 62 -59 136 -121 167 -99
49 -273 26 -335 -45 -17 -19 -34 -34 -39 -34 -4 0 -26 18 -47 40 -62 64 -161
85 -265 56z"/>
<path d="M8630 1264 c-125 -24 -211 -97 -226 -193 -8 -47 -12 -46 129 -42 64
2 85 7 114 26 66 46 142 40 213 -14 l25 -20 -25 -26 c-34 -37 -66 -52 -125
-60 -200 -26 -282 -58 -331 -126 -57 -81 -69 -162 -37 -255 38 -113 107 -158
243 -159 93 0 158 16 206 52 40 30 50 29 69 -7 l16 -31 116 3 c95 2 118 6 126
19 8 13 4 24 -17 50 l-28 33 3 242 c2 134 0 246 -4 250 -4 4 -7 19 -7 33 0 90
-57 163 -155 201 -47 18 -84 23 -170 26 -60 1 -121 0 -135 -2z m219 -508 c40
-48 -50 -169 -134 -181 -47 -7 -98 12 -109 40 -23 61 14 129 75 139 71 12 85
13 120 15 21 0 42 -5 48 -13z"/>
</g>
</svg>
