<?xml version="1.0" standalone="no"?>
<!DOCTYPE svg PUBLIC "-//W3C//DTD SVG 20010904//EN"
 "http://www.w3.org/TR/2001/REC-SVG-20010904/DTD/svg10.dtd">
<svg version="1.0" xmlns="http://www.w3.org/2000/svg"
 width="1200.000000pt" height="660.000000pt" viewBox="0 0 1200.000000 660.000000"
 preserveAspectRatio="xMidYMid meet">
<metadata>
Created by potrace 1.13, written by Peter Selinger 2001-2015
</metadata>
<g transform="translate(0.000000,660.000000) scale(0.100000,-0.100000)"
fill="#000000" stroke="none">
<path d="M940 5239 c-96 -3 -188 -7 -203 -8 -33 -1 -27 -21 7 -21 20 0 24 -6
29 -43 4 -24 13 -64 21 -89 9 -24 17 -81 18 -126 2 -64 6 -83 18 -87 48 -15
482 -25 1127 -25 l732 0 3 193 c2 105 1 198 -1 205 -2 9 -168 12 -790 10 -432
-1 -865 -5 -961 -9z"/>
<path d="M3145 5239 c-3 -8 -4 -473 -3 -1034 l3 -1020 350 -3 c351 -3 687 9
780 29 241 52 391 167 450 344 36 110 42 193 24 322 -16 110 -58 194 -133 268
-67 66 -123 98 -218 120 -69 16 -91 31 -68 45 8 5 23 10 34 10 10 0 40 11 67
25 128 64 184 126 221 248 37 122 15 293 -51 400 -32 53 -124 134 -177 157
-27 12 -56 25 -65 30 -30 16 -144 39 -239 50 -52 6 -292 13 -532 17 -371 5
-438 4 -443 -8z m858 -424 c64 -19 95 -42 118 -87 48 -95 28 -209 -46 -260
-56 -38 -173 -60 -305 -56 l-105 3 -3 204 c-2 157 1 207 10 213 18 13 277 -1
331 -17z m62 -779 c127 -33 165 -83 165 -214 0 -68 -3 -83 -27 -120 -35 -54
-100 -85 -206 -101 -88 -12 -306 -15 -324 -3 -9 5 -12 66 -13 217 -1 116 -1
215 -1 222 1 6 9 14 19 17 32 10 337 -4 387 -18z"/>
<path d="M5570 5230 c-6 -11 -33 -86 -60 -167 -27 -82 -97 -287 -155 -458 -58
-170 -139 -409 -180 -530 -41 -121 -100 -292 -130 -380 -31 -88 -60 -171 -65
-185 -5 -14 -31 -90 -59 -170 -28 -80 -51 -148 -51 -152 0 -5 123 -8 274 -8
l274 0 15 48 c8 26 20 65 26 87 14 52 40 139 55 190 l13 40 400 3 401 2 15
-42 c8 -24 20 -61 25 -83 19 -70 44 -159 56 -200 l13 -40 271 -3 c258 -2 272
-1 272 16 0 10 -16 63 -36 118 -20 54 -46 131 -59 169 -13 39 -42 122 -65 185
-23 63 -46 129 -51 145 -4 17 -26 82 -48 145 -124 355 -204 589 -211 615 -28
98 -219 647 -230 660 -11 13 -62 15 -356 15 -332 0 -344 -1 -354 -20z m384
-412 c10 -35 22 -81 28 -103 5 -22 16 -58 23 -80 7 -22 25 -80 40 -130 14 -49
32 -108 39 -130 8 -22 26 -80 41 -130 16 -49 38 -121 51 -160 34 -106 37 -127
22 -136 -7 -5 -131 -9 -276 -9 -214 0 -264 3 -268 14 -5 13 2 39 51 191 12 39
30 97 39 130 10 33 21 71 26 85 16 47 87 285 105 350 9 36 21 75 26 88 5 13 9
33 9 46 0 23 7 36 20 36 4 0 15 -28 24 -62z"/>
<path d="M7196 5241 c-6 -9 1 -2051 7 -2057 2 -3 440 -6 515 -4 19 0 17 1119
-3 1263 -14 98 -13 137 4 137 3 0 32 -55 65 -123 85 -178 44 -117 796 -1149
l93 -128 268 0 267 0 4 1023 c2 562 2 1028 0 1035 -3 10 -63 12 -271 10 l-266
-3 -3 -185 c-2 -178 14 -956 25 -1127 3 -52 1 -83 -6 -83 -5 0 -44 69 -86 153
-69 139 -109 198 -455 677 -209 289 -388 535 -399 548 -19 22 -22 22 -285 22
-145 0 -267 -4 -270 -9z"/>
<path d="M9659 5238 c-2 -7 -3 -473 -1 -1035 l3 -1023 275 0 274 0 0 452 c-1
278 3 454 9 456 14 5 -27 59 417 -558 120 -167 228 -315 239 -328 l21 -24 342
-6 c313 -5 342 -4 342 11 0 9 -89 128 -197 264 -108 137 -247 311 -308 388
-61 77 -155 195 -208 262 -53 68 -97 130 -97 139 0 15 25 49 300 404 75 96
174 225 220 285 46 61 116 151 157 202 40 50 73 99 73 107 0 15 -34 16 -327
14 l-327 -3 -242 -355 c-343 -502 -387 -564 -406 -568 -14 -3 -16 3 -13 30 2
18 6 225 9 460 5 379 4 427 -10 432 -9 3 -134 6 -279 6 -202 0 -264 -3 -266
-12z"/>
<path d="M1057 4439 c-197 -6 -256 -13 -219 -26 6 -3 12 -20 12 -38 0 -19 5
-37 10 -40 6 -3 10 -33 10 -66 0 -34 4 -59 10 -59 7 0 10 -22 8 -57 -3 -48 -7
-59 -26 -69 l-23 -11 23 -8 c13 -4 429 -9 926 -12 l902 -5 0 201 0 201 -707
-2 c-390 -1 -806 -5 -926 -9z"/>
<path d="M1040 3570 c-132 -5 -168 -15 -81 -22 34 -3 35 -5 61 -84 15 -45 33
-89 42 -97 18 -19 47 -104 45 -131 -2 -15 7 -22 33 -28 84 -19 397 -28 953
-28 l597 0 0 200 0 200 -752 -2 c-414 -1 -818 -5 -898 -8z"/>
<path d="M7055 2916 c-34 -6 -76 -18 -95 -26 -60 -23 -164 -97 -199 -140 -122
-152 -146 -383 -56 -535 25 -44 109 -120 150 -135 11 -4 41 -17 65 -28 25 -11
97 -37 160 -57 206 -65 240 -93 240 -196 0 -75 -26 -114 -96 -146 -47 -21 -66
-25 -115 -20 -81 7 -189 61 -271 136 -36 34 -71 61 -76 61 -6 0 -27 -28 -48
-62 -43 -73 -70 -117 -107 -174 -15 -22 -27 -47 -27 -56 0 -23 118 -118 192
-155 129 -64 209 -83 349 -83 290 0 500 143 573 391 23 80 21 230 -3 310 -53
168 -137 227 -466 324 -125 37 -174 77 -182 148 -5 39 -1 48 27 80 46 53 117
72 202 56 66 -13 142 -46 194 -85 17 -13 34 -24 38 -24 7 0 54 100 88 185 11
27 24 55 30 62 19 24 3 55 -42 80 -153 87 -361 122 -525 89z"/>
<path d="M565 2888 c-3 -7 -4 -92 -3 -188 l3 -175 160 0 c88 0 166 -4 173 -9
12 -7 13 -111 10 -590 l-3 -581 215 0 215 0 -4 570 c-2 314 -1 580 3 593 7 22
10 22 171 22 139 0 164 2 169 16 9 23 7 332 -1 337 -5 3 -254 8 -555 12 -468
7 -548 6 -553 -7z"/>
<path d="M1897 2884 c-4 -7 -12 -1488 -8 -1532 1 -10 43 -12 194 -10 l192 3 2
289 c1 159 5 291 8 294 3 3 9 1 14 -4 7 -7 152 -256 264 -454 57 -101 71 -121
90 -125 12 -3 211 -4 442 -3 l420 3 17 55 c9 30 24 82 33 115 9 33 20 70 25
83 l10 22 294 0 c275 0 296 -1 305 -18 5 -10 22 -65 37 -123 14 -57 31 -112
36 -122 8 -16 26 -17 211 -15 l202 3 -1 25 c-1 14 -20 77 -44 140 -23 63 -46
126 -50 140 -5 14 -23 63 -40 110 -32 87 -85 239 -145 415 -19 55 -59 172 -90
260 -31 88 -77 221 -102 295 -25 74 -50 141 -55 148 -15 18 -511 17 -526 -1
-10 -12 -27 -59 -132 -367 -22 -63 -69 -200 -105 -305 -37 -104 -77 -221 -90
-260 -13 -38 -42 -122 -65 -185 -23 -63 -46 -126 -50 -140 -42 -124 -80 -224
-87 -231 -9 -9 -32 22 -243 331 -36 52 -87 126 -113 163 -27 38 -46 74 -44 81
3 7 24 18 48 26 57 18 156 83 193 127 16 18 40 62 55 96 22 52 26 80 29 179 3
100 0 127 -18 180 -55 159 -150 248 -316 294 -48 13 -126 17 -425 21 -202 3
-369 1 -372 -3z m2018 -291 c16 -73 30 -128 67 -248 22 -71 51 -168 65 -215
14 -47 31 -102 39 -123 8 -20 14 -49 14 -62 l0 -25 -206 0 -206 0 6 32 c5 27
45 161 76 258 4 14 16 52 25 85 10 33 21 69 25 80 4 11 16 49 25 85 43 163 58
191 70 133z m-1414 -38 c86 -31 120 -83 121 -189 1 -83 -15 -123 -64 -159 -51
-37 -142 -54 -255 -48 l-23 1 0 205 0 205 89 0 c54 0 105 -6 132 -15z"/>
<path d="M4848 2128 c-3 -465 -1 -768 5 -775 13 -18 381 -18 393 0 11 14 0
873 -11 960 -7 49 -6 57 9 57 9 0 21 -12 27 -27 32 -90 110 -209 365 -563 157
-217 294 -405 305 -418 19 -22 22 -22 217 -20 l197 3 0 770 0 770 -197 3
c-155 2 -198 0 -198 -10 -4 -127 2 -839 6 -910 8 -119 -2 -126 -48 -30 -45 96
-93 173 -178 287 -40 55 -110 150 -155 210 -45 61 -130 178 -190 260 -158 220
-114 195 -346 195 l-197 0 -4 -762z"/>
<path d="M7959 2878 c-2 -7 -4 -355 -4 -773 l0 -760 194 -3 c129 -2 198 1 205
8 7 8 11 109 11 303 l0 292 250 5 250 5 3 163 2 162 -239 0 c-132 0 -246 3
-255 6 -13 5 -16 27 -16 135 0 71 1 130 3 131 1 1 121 5 267 8 l265 5 0 160 0
160 -466 3 c-369 2 -468 0 -470 -10z"/>
<path d="M9137 2124 c-4 -422 -4 -771 -1 -775 3 -5 214 -9 468 -9 359 0 466 3
473 13 6 7 8 73 4 172 l-6 160 -260 3 c-192 2 -261 6 -267 15 -13 21 -10 235
4 243 7 4 116 7 243 6 126 -2 236 1 243 6 9 6 12 46 10 163 l-3 154 -250 5
-250 5 -3 126 c-2 97 1 129 11 137 9 8 97 13 268 14 l254 3 0 160 0 160 -466
3 -466 2 -6 -766z"/>
<path d="M10365 2879 c-3 -8 -4 -356 -3 -774 l3 -760 195 0 195 0 1 285 c1
157 2 289 3 294 2 13 29 -13 44 -43 7 -14 58 -102 112 -196 54 -93 109 -190
123 -215 14 -25 37 -63 51 -85 l27 -40 229 -3 c126 -1 233 2 237 6 6 6 -19 51
-60 108 -37 55 -98 142 -134 194 -36 52 -97 141 -137 198 -39 57 -71 107 -71
111 0 4 36 22 79 40 145 59 225 164 251 329 41 249 -94 471 -327 538 -80 23
-810 34 -818 13z m637 -337 c65 -32 90 -76 95 -166 4 -61 1 -77 -19 -116 -36
-67 -94 -93 -216 -98 -73 -4 -96 -1 -103 9 -11 17 -12 383 -1 393 4 4 50 6
102 4 74 -2 105 -8 142 -26z"/>
</g>
</svg>
