<?xml version="1.0" standalone="no"?>
<!DOCTYPE svg PUBLIC "-//W3C//DTD SVG 20010904//EN"
 "http://www.w3.org/TR/2001/REC-SVG-20010904/DTD/svg10.dtd">
<svg version="1.0" xmlns="http://www.w3.org/2000/svg"
 width="1200.000000pt" height="660.000000pt" viewBox="0 0 1200.000000 660.000000"
 preserveAspectRatio="xMidYMid meet">
<metadata>
Created by potrace 1.13, written by Peter Selinger 2001-2015
</metadata>
<g transform="translate(0.000000,660.000000) scale(0.100000,-0.100000)"
fill="#000000" stroke="none">
<path d="M6025 6158 c-8 -13 -43 -65 -76 -117 -33 -51 -100 -146 -148 -210
-174 -231 -252 -367 -282 -491 -17 -73 -15 -202 4 -267 60 -200 258 -421 539
-600 252 -162 328 -215 376 -267 97 -103 129 -216 98 -349 -9 -37 -25 -85 -36
-107 -27 -52 -26 -70 4 -70 28 0 101 77 251 265 322 402 437 712 364 975 -32
116 -80 193 -188 301 -81 81 -138 124 -351 264 -140 93 -275 183 -300 202 -76
57 -161 145 -191 198 -34 60 -37 105 -9 177 25 65 25 87 3 104 -26 19 -40 17
-58 -8z"/>
<path d="M5574 4542 c-6 -4 -23 -29 -37 -57 -14 -27 -55 -93 -91 -145 -161
-233 -199 -316 -200 -435 0 -68 4 -89 28 -139 52 -106 167 -207 366 -321 271
-154 384 -269 393 -399 1 -27 8 -51 14 -53 6 -2 33 24 61 59 234 296 307 576
205 788 -37 77 -157 193 -263 254 -203 117 -246 144 -304 192 -72 60 -120 128
-137 199 -15 58 -20 67 -35 57z"/>
<path d="M5025 2868 c-3 -7 -19 -51 -36 -98 -49 -133 -49 -130 2 -132 24 -2
143 -3 264 -3 l219 0 56 -150 c31 -82 59 -156 63 -162 6 -10 104 -13 432 -13
l424 0 19 53 c11 28 34 97 52 152 18 55 37 106 43 113 7 9 68 12 263 10 139
-2 255 0 259 4 8 7 -4 46 -48 168 l-24 65 -992 3 c-788 2 -993 0 -996 -10z"/>
<path d="M4417 2093 c-4 -3 -7 -267 -7 -585 0 -464 3 -580 13 -584 7 -2 181
-1 387 4 431 10 428 9 509 98 61 67 86 133 85 229 -1 113 -52 193 -158 247
-22 11 -43 22 -45 24 -2 2 15 24 38 50 66 70 86 123 86 224 0 68 -5 96 -24
138 -30 68 -105 136 -165 151 -49 12 -707 16 -719 4z m633 -231 c56 -56 63
-157 14 -203 -25 -24 -29 -24 -207 -24 l-182 0 -3 114 c-1 63 0 121 2 128 4
10 45 13 176 13 l172 0 28 -28z m48 -458 c69 -48 69 -200 1 -248 -20 -13 -55
-16 -221 -16 -232 0 -210 -16 -206 155 l3 110 70 6 c39 3 129 6 200 7 104 2
135 -1 153 -14z"/>
<path d="M5546 2092 c-3 -5 -6 -268 -6 -583 l-1 -574 383 0 383 0 57 28 c100
49 158 144 166 267 4 63 0 85 -17 127 -27 60 -82 117 -145 147 l-47 23 41 44
c68 73 85 119 85 229 0 79 -4 103 -23 141 -27 55 -85 116 -127 133 -38 16
-739 33 -749 18z m616 -213 c30 -16 58 -84 58 -139 0 -44 -5 -56 -29 -81 l-30
-29 -183 2 -183 3 -3 119 c-1 66 0 126 3 134 5 13 32 14 178 7 94 -4 180 -11
189 -16z m63 -475 c27 -18 55 -81 55 -125 0 -38 -22 -91 -49 -118 -20 -20 -31
-21 -225 -21 l-203 0 -7 126 c-5 91 -4 130 5 140 18 22 390 20 424 -2z"/>
<path d="M6657 2093 c-4 -3 -7 -267 -7 -585 l0 -578 375 0 c428 0 443 2 524
82 67 66 95 135 95 238 1 75 -2 90 -26 131 -32 54 -85 104 -137 127 -20 9 -38
18 -40 19 -2 1 19 27 46 57 64 70 87 139 81 240 -6 84 -34 150 -87 203 -72 72
-74 73 -467 73 -193 0 -354 -3 -357 -7z m613 -222 c61 -43 81 -156 36 -204
-31 -34 -63 -38 -241 -35 l-150 3 -3 119 c-1 66 -1 125 1 130 3 7 60 10 168 8
137 -3 168 -6 189 -21z m68 -476 c72 -60 61 -212 -18 -245 -16 -6 -97 -9 -215
-8 l-190 3 -3 129 c-1 77 1 132 7 135 6 4 95 8 199 10 l188 3 32 -27z"/>
<path d="M4505 703 c-49 -13 -75 -67 -56 -116 11 -29 57 -57 93 -57 30 0 68
-26 68 -47 0 -38 -86 -58 -130 -31 -24 15 -46 -1 -37 -26 16 -41 125 -49 178
-13 27 18 35 30 37 61 2 26 -2 44 -15 58 -24 27 -67 48 -96 48 -29 0 -47 17
-47 46 0 27 42 44 80 33 45 -13 60 -10 60 10 0 11 -4 23 -10 26 -14 9 -102 15
-125 8z"/>
<path d="M5980 684 c0 -33 33 -30 38 4 3 17 -2 22 -17 22 -16 0 -21 -6 -21
-26z"/>
<path d="M6250 555 c0 -145 1 -155 19 -155 25 0 31 19 31 100 0 60 3 71 22 84
26 18 37 19 58 6 11 -7 16 -34 20 -97 5 -80 7 -88 25 -88 19 0 20 7 20 94 0
89 -1 94 -28 117 -29 24 -81 32 -92 14 -3 -5 -13 -10 -21 -10 -10 0 -14 12
-14 45 0 38 -3 45 -20 45 -19 0 -20 -7 -20 -155z"/>
<path d="M4717 693 c-4 -3 -7 -17 -7 -30 0 -13 -7 -26 -15 -29 -19 -8 -19 -31
0 -41 10 -6 15 -31 17 -88 l3 -80 37 -18 c43 -21 78 -15 78 14 0 15 -7 19 -35
19 l-35 0 0 75 0 75 30 0 c19 0 33 6 37 16 7 19 -14 35 -41 31 -14 -1 -22 7
-28 31 -8 30 -26 41 -41 25z"/>
<path d="M5295 687 c-2 -6 -5 -21 -7 -32 -3 -16 -10 -19 -41 -17 -22 2 -47 -4
-62 -14 -15 -10 -25 -12 -25 -5 0 6 -9 11 -20 11 -19 0 -20 -7 -20 -115 0
-108 1 -115 20 -115 18 0 20 7 20 70 0 38 5 80 11 94 13 28 48 40 90 31 l29
-7 -1 -80 c-1 -44 3 -84 9 -90 12 -12 73 -26 90 -21 6 3 12 13 12 23 0 14 -9
20 -32 22 l-33 3 -3 72 -3 72 33 3 c47 4 51 35 6 40 -27 2 -34 8 -36 30 -3 28
-30 46 -37 25z"/>
<path d="M5558 695 c-2 -3 11 -69 31 -147 35 -138 37 -143 63 -146 33 -4 38 7
63 123 10 44 21 86 25 94 4 8 16 -26 29 -80 31 -131 35 -141 69 -137 26 3 28
8 59 133 38 154 39 165 13 165 -20 0 -21 -1 -56 -140 -9 -36 -19 -69 -22 -74
-3 -6 -13 21 -22 60 -38 155 -39 156 -67 152 -23 -3 -28 -11 -45 -73 -10 -38
-21 -87 -25 -108 -8 -51 -17 -38 -42 62 -12 46 -26 92 -32 103 -9 17 -30 24
-41 13z"/>
<path d="M6097 694 c-4 -4 -7 -18 -7 -31 0 -13 -7 -26 -15 -29 -8 -4 -15 -12
-15 -19 0 -7 7 -15 15 -19 12 -4 15 -23 15 -85 0 -71 2 -82 22 -95 12 -9 40
-16 61 -16 31 0 38 3 35 18 -2 11 -14 18 -36 20 -32 3 -32 4 -32 55 0 29 -3
62 -6 74 -5 19 -2 22 32 25 27 2 40 8 42 20 2 13 -5 17 -35 20 -33 3 -39 7
-43 32 -5 29 -20 43 -33 30z"/>
<path d="M6610 680 c0 -17 6 -20 50 -20 l50 0 0 -129 c0 -130 4 -145 38 -134
9 3 12 39 12 133 l0 129 53 3 c38 2 52 7 52 18 0 12 -22 15 -127 18 -123 2
-128 2 -128 -18z"/>
<path d="M7517 694 c-4 -4 -7 -18 -7 -31 0 -13 -7 -26 -15 -29 -8 -4 -15 -13
-15 -20 0 -8 7 -17 15 -20 12 -5 15 -24 15 -84 0 -73 2 -80 26 -99 31 -24 76
-27 94 -6 17 21 3 35 -36 35 l-34 0 0 75 0 75 36 0 c31 0 35 3 32 23 -2 17
-11 23 -35 25 -26 3 -32 8 -35 30 -3 26 -26 40 -41 26z"/>
<path d="M4898 629 c-10 -5 -18 -17 -18 -26 0 -13 8 -14 40 -9 54 9 90 -1 90
-25 0 -15 -7 -19 -37 -19 -76 0 -124 -50 -103 -106 6 -15 18 -33 28 -40 20
-16 78 -18 87 -4 4 6 21 8 41 4 l34 -6 0 92 c0 88 -1 93 -29 121 -24 23 -38
29 -73 29 -24 0 -51 -5 -60 -11z m116 -127 c3 -4 -1 -19 -7 -33 -10 -19 -20
-24 -52 -24 -43 0 -58 22 -35 50 13 16 85 21 94 7z"/>
<path d="M6945 630 c-4 -6 -20 -8 -41 -4 l-34 6 0 -117 c0 -115 0 -116 23
-113 20 3 22 9 25 83 3 88 19 115 69 115 18 0 24 5 21 18 -4 19 -52 29 -63 12z"/>
<path d="M7317 624 c-25 -13 -28 -20 -25 -57 3 -37 7 -44 38 -59 19 -9 45 -17
56 -18 23 0 39 -25 28 -42 -4 -6 -30 -8 -65 -5 -67 6 -84 -6 -49 -35 44 -36
133 -18 160 32 22 41 -23 100 -77 100 -11 0 -28 7 -39 15 -19 15 -19 15 1 30
14 11 31 14 61 9 47 -7 63 6 38 30 -20 20 -90 20 -127 0z"/>
<path d="M5977 529 c-6 -114 -3 -129 24 -129 18 0 19 9 19 115 0 105 -2 115
-19 115 -16 0 -19 -11 -24 -101z"/>
<path d="M7036 614 c-11 -29 -6 -134 8 -169 22 -52 79 -72 121 -41 16 12 21
11 33 -1 11 -11 17 -11 28 -2 11 9 14 36 12 118 -3 101 -4 106 -25 109 -22 3
-23 0 -23 -75 -1 -89 -13 -113 -57 -113 -45 0 -53 15 -53 107 0 75 -2 83 -19
83 -10 0 -22 -7 -25 -16z"/>
</g>
</svg>
