<?xml version="1.0" standalone="no"?>
<!DOCTYPE svg PUBLIC "-//W3C//DTD SVG 20010904//EN"
 "http://www.w3.org/TR/2001/REC-SVG-20010904/DTD/svg10.dtd">
<svg version="1.0" xmlns="http://www.w3.org/2000/svg"
 width="1200.000000pt" height="660.000000pt" viewBox="0 0 1200.000000 660.000000"
 preserveAspectRatio="xMidYMid meet">
<metadata>
Created by potrace 1.13, written by Peter Selinger 2001-2015
</metadata>
<g transform="translate(0.000000,660.000000) scale(0.100000,-0.100000)"
fill="#000000" stroke="none">
<path d="M1925 5044 c-221 -18 -441 -58 -680 -124 -61 -17 -194 -63 -260 -90
-11 -5 -40 -17 -64 -27 -25 -10 -72 -31 -105 -48 -59 -29 -61 -32 -111 -130
-134 -261 -214 -526 -260 -865 -20 -146 -20 -664 0 -815 25 -190 50 -318 91
-472 35 -133 106 -345 144 -428 10 -22 25 -58 34 -80 39 -94 39 -94 111 -129
38 -19 86 -41 105 -49 19 -8 56 -24 82 -36 26 -11 52 -21 58 -21 6 0 18 -4 28
-10 9 -5 66 -26 126 -45 511 -167 1056 -203 1577 -105 106 20 370 90 414 110
11 5 49 19 85 31 64 22 108 40 246 104 74 34 71 30 122 145 247 551 329 1195
231 1810 -39 244 -114 512 -209 750 -76 190 -73 186 -143 218 -327 155 -610
238 -977 288 -101 14 -542 26 -645 18z m648 -128 c140 -21 157 -24 332 -67 81
-19 300 -87 350 -108 11 -5 41 -18 67 -30 26 -12 50 -21 52 -21 2 0 38 -16 79
-35 78 -36 77 -36 122 -140 8 -19 21 -50 29 -67 44 -102 111 -310 151 -469 42
-170 63 -310 82 -527 15 -177 15 -225 4 -384 -12 -177 -46 -407 -76 -521 -8
-31 -21 -81 -29 -110 -29 -110 -90 -280 -138 -386 -11 -25 -29 -66 -40 -89
-17 -39 -28 -47 -96 -79 -284 -130 -544 -204 -887 -255 -137 -20 -619 -17
-758 5 -169 27 -297 54 -412 87 -19 6 -50 14 -67 19 -94 25 -264 91 -399 154
-79 37 -98 50 -111 78 -93 201 -160 394 -216 629 -107 441 -119 894 -35 1300
39 188 73 308 133 460 30 77 110 241 129 263 39 46 349 166 575 223 56 14 117
29 136 34 39 10 291 47 360 54 102 9 568 -3 663 -18z"/>
<path d="M2057 4704 c-238 -51 -389 -183 -442 -385 -8 -30 -15 -94 -15 -144 0
-160 41 -262 154 -383 186 -199 221 -244 261 -329 15 -32 31 -66 36 -75 5 -10
9 -27 9 -37 0 -11 4 -22 9 -25 5 -3 11 -23 14 -43 3 -21 11 -63 17 -93 21
-109 31 -356 24 -592 l-6 -238 44 0 44 0 0 373 c-1 369 1 394 36 547 34 150
98 258 244 409 52 54 108 116 124 137 39 48 95 165 109 226 27 118 3 292 -57
402 -41 76 -129 157 -214 198 -135 66 -252 82 -391 52z"/>
<path d="M1313 3836 c-115 -28 -242 -124 -278 -209 -26 -63 -48 -208 -42 -285
14 -185 109 -266 398 -341 241 -62 351 -114 454 -216 96 -95 141 -189 166
-347 l12 -78 33 0 34 0 0 253 c0 273 -18 457 -60 610 -5 20 -14 52 -19 70 -27
98 -88 229 -147 313 -135 192 -344 280 -551 230z"/>
<path d="M2777 3834 c-186 -50 -346 -222 -450 -484 -5 -14 -13 -34 -18 -45 -4
-11 -10 -33 -14 -50 -3 -16 -11 -50 -16 -75 -21 -95 -30 -225 -35 -516 l-6
-301 31 -5 c17 -2 35 -2 39 1 5 3 13 38 16 76 15 149 61 248 160 349 92 93
188 141 411 204 22 7 74 21 115 33 152 43 247 105 290 188 60 120 37 343 -50
463 -99 139 -302 209 -473 162z"/>
<path d="M1001 3063 c-50 -101 -61 -188 -37 -278 30 -115 97 -198 195 -243 49
-23 68 -26 156 -25 55 0 140 8 189 17 101 18 194 20 247 6 48 -13 101 -67 130
-129 21 -48 25 -51 61 -51 36 0 38 1 38 34 0 143 -86 305 -210 397 -67 50
-123 72 -360 139 -213 61 -290 93 -336 140 -21 22 -41 40 -45 40 -3 0 -16 -21
-28 -47z"/>
<path d="M3245 3066 c-44 -48 -84 -64 -330 -136 -77 -22 -186 -63 -241 -90
-189 -92 -295 -233 -319 -424 l-7 -56 36 0 c31 0 38 5 55 39 72 141 146 163
406 119 109 -18 141 -20 201 -11 224 32 359 199 324 401 -10 63 -66 203 -79
201 -3 0 -24 -20 -46 -43z"/>
<path d="M1265 2188 c-15 -18 -32 -43 -37 -57 -19 -48 -38 -144 -33 -161 10
-30 49 -58 100 -70 88 -20 88 -20 106 36 33 102 33 111 2 122 -23 9 -25 11 -7
11 31 1 46 24 42 67 -2 31 -10 43 -37 61 -51 35 -102 31 -136 -9z m105 -83 c0
-20 -5 -25 -25 -25 -17 0 -29 -7 -35 -22 -7 -18 -9 -19 -9 -5 -1 31 28 77 49
77 15 0 20 -7 20 -25z m-44 -100 c3 -8 3 -19 0 -24 -10 -16 -36 -1 -36 20 0
22 28 26 36 4z"/>
<path d="M2941 2198 l-33 -9 7 -152 c4 -84 11 -156 15 -161 5 -5 22 -4 39 4
27 11 31 17 31 51 0 49 23 52 60 8 26 -32 26 -32 53 -14 15 9 27 21 27 26 0 4
-17 35 -37 67 -21 32 -54 86 -73 120 -19 34 -39 63 -45 65 -5 2 -25 0 -44 -5z"/>
<path d="M1515 2138 c-2 -13 -17 -76 -33 -141 -32 -132 -29 -147 28 -147 26 0
30 5 40 43 17 64 19 69 33 64 8 -3 11 -23 9 -65 -3 -60 -3 -60 29 -67 17 -4
35 -3 40 2 5 5 12 41 16 79 3 38 12 82 20 98 18 35 10 86 -16 110 -21 19 -101
46 -137 46 -16 0 -25 -7 -29 -22z m111 -79 c7 -12 -15 -31 -28 -23 -4 3 -8 12
-8 20 0 17 26 19 36 3z"/>
<path d="M2692 2134 c-37 -26 -44 -57 -31 -151 16 -114 38 -147 101 -151 58
-4 93 17 108 64 18 53 6 76 -38 72 -29 -2 -37 -8 -38 -23 -1 -11 -2 -26 -3
-32 -2 -29 -31 -11 -41 26 -29 109 -20 171 19 124 12 -15 23 -18 46 -13 26 5
30 9 27 35 -1 17 -12 38 -24 48 -26 22 -96 22 -126 1z"/>
<path d="M1777 2113 c-3 -5 -11 -66 -18 -136 l-13 -127 29 -30 c49 -51 133
-49 168 4 15 22 42 250 32 267 -4 5 -19 9 -35 9 -33 0 -32 3 -49 -130 -12 -90
-20 -106 -46 -96 -14 5 -16 15 -11 59 20 180 20 177 -2 177 -11 0 -27 3 -35 6
-8 3 -17 1 -20 -3z"/>
<path d="M2465 2106 c-5 -3 -23 -7 -38 -11 -28 -6 -29 -7 -22 -58 3 -29 10
-74 15 -102 5 -27 11 -71 15 -97 6 -45 8 -48 36 -48 49 0 116 21 135 41 20 23
22 92 3 115 -8 10 -14 39 -14 65 0 60 -25 89 -81 94 -21 3 -43 3 -49 1z m48
-72 c8 -8 -3 -34 -14 -34 -5 0 -9 9 -9 20 0 19 11 26 23 14z m22 -154 c-5 -8
-11 -8 -17 -2 -6 6 -7 16 -3 22 5 8 11 8 17 2 6 -6 7 -16 3 -22z"/>
<path d="M2045 2058 c-3 -18 -6 -89 -8 -158 l-2 -125 30 0 c29 0 30 2 39 58 7
51 11 57 33 57 70 0 121 75 92 136 -18 38 -72 64 -131 64 -45 0 -47 -1 -53
-32z m110 -68 c0 -8 -8 -16 -17 -18 -13 -2 -18 3 -18 18 0 15 5 20 18 18 9 -2
17 -10 17 -18z"/>
<path d="M9030 4715 c-27 -36 -39 -45 -55 -40 -353 103 -918 -33 -1330 -320
-180 -125 -333 -280 -453 -457 -36 -53 -142 -255 -161 -308 -7 -19 -17 -44
-22 -55 -45 -107 -89 -294 -108 -460 -5 -44 -13 -95 -17 -114 -7 -33 9 -196
27 -278 37 -171 48 -202 116 -338 117 -233 357 -418 653 -503 255 -73 619 -82
879 -21 47 11 91 25 99 32 8 6 48 82 89 167 152 319 200 418 279 579 45 91 80
168 78 170 -2 2 -25 -9 -51 -25 -191 -118 -435 -189 -653 -189 -324 1 -515
143 -597 445 -19 71 -21 242 -4 295 59 175 101 246 205 351 159 158 348 234
586 234 204 0 407 -66 568 -184 34 -25 66 -46 70 -46 7 0 26 32 110 185 19 33
46 83 62 110 15 28 38 67 49 88 12 20 31 54 42 75 12 20 34 60 50 87 15 28 50
88 78 135 28 47 51 92 51 100 0 10 -102 70 -292 170 -161 85 -297 156 -303
158 -6 1 -26 -18 -45 -43z"/>
<path d="M5106 4726 c-16 -26 -426 -836 -426 -842 0 -2 45 -4 100 -4 55 0 100
-4 100 -9 0 -5 -14 -63 -31 -128 -17 -65 -61 -239 -99 -388 -133 -523 -305
-1187 -355 -1370 -13 -49 -25 -98 -25 -109 0 -18 21 -18 743 -11 408 4 772 11
809 16 79 10 242 61 313 97 142 71 285 190 374 311 80 108 121 193 172 361 19
60 19 289 0 350 -44 145 -116 245 -234 327 -26 18 -47 36 -47 41 0 5 12 15 28
23 68 34 176 114 236 174 186 186 288 450 256 662 -38 250 -193 414 -456 484
-94 25 -159 27 -912 32 -533 4 -533 4 -546 -17z m954 -759 c93 -33 124 -69
122 -142 0 -53 -32 -113 -89 -168 -69 -68 -80 -71 -265 -75 -187 -4 -189 -3
-170 60 5 18 15 60 22 93 15 76 29 139 42 192 12 48 4 46 193 51 70 1 123 -2
145 -11z m-175 -917 c3 -5 15 -10 25 -10 29 0 105 -80 117 -123 18 -60 -15
-146 -82 -212 -39 -39 -58 -51 -138 -84 -32 -13 -393 -16 -401 -3 -3 4 -1 24
4 43 12 47 49 187 61 227 5 17 13 47 18 65 5 17 13 43 16 57 4 14 8 31 11 38
4 15 359 18 369 2z"/>
<path d="M10074 4740 c-8 -3 -60 -93 -115 -200 -93 -180 -213 -412 -288 -554
-17 -32 -31 -62 -31 -67 0 -5 45 -9 100 -9 73 0 100 -3 100 -12 0 -13 -747
-1508 -922 -1845 -49 -95 -86 -177 -83 -183 10 -16 992 -14 1002 3 4 6 51 118
103 247 l95 235 298 3 c163 1 298 1 299 0 1 -2 4 -113 7 -248 l6 -245 455 0
455 0 -3 235 c-1 129 -14 460 -27 735 -28 579 -59 1243 -76 1630 -6 149 -13
272 -16 275 -6 7 -1339 6 -1359 0z m569 -1337 c3 -196 3 -361 1 -365 -3 -4
-77 -8 -165 -8 -139 0 -159 2 -159 16 0 16 4 27 49 126 11 26 21 50 21 53 0 3
9 27 21 53 12 26 25 56 29 67 4 11 17 41 29 67 12 26 21 50 21 53 0 3 9 27 21
53 12 26 25 56 29 67 4 11 17 41 29 67 12 26 21 52 21 58 0 17 24 50 36 50 8
0 13 -107 17 -357z"/>
</g>
</svg>
