<?xml version="1.0" standalone="no"?>
<!DOCTYPE svg PUBLIC "-//W3C//DTD SVG 20010904//EN"
 "http://www.w3.org/TR/2001/REC-SVG-20010904/DTD/svg10.dtd">
<svg version="1.0" xmlns="http://www.w3.org/2000/svg"
 width="1200.000000pt" height="660.000000pt" viewBox="0 0 1200.000000 660.000000"
 preserveAspectRatio="xMidYMid meet">
<metadata>
Created by potrace 1.13, written by Peter Selinger 2001-2015
</metadata>
<g transform="translate(0.000000,660.000000) scale(0.100000,-0.100000)"
fill="#000000" stroke="none">
<path d="M7697 5045 c-156 -44 -279 -153 -333 -295 -12 -32 -19 -90 -23 -195
l-6 -150 -92 -5 c-72 -4 -98 -10 -119 -26 -70 -52 -91 -132 -55 -207 33 -68
59 -81 171 -87 l95 -5 0 -625 c1 -344 4 -639 8 -656 8 -32 45 -73 84 -93 31
-16 119 -14 153 4 16 8 42 32 57 52 l28 37 -4 637 c-3 622 -3 637 16 643 10 3
100 5 199 4 177 -3 181 -3 216 22 73 49 95 134 56 209 -43 82 -52 85 -281 91
l-202 5 0 112 c0 121 7 141 69 187 43 33 153 29 228 -6 98 -48 185 -31 224 44
22 41 22 123 1 165 -25 47 -100 107 -159 128 -70 24 -263 30 -331 10z"/>
<path d="M3549 5029 c-37 -8 -75 -34 -103 -73 -21 -27 -21 -32 -21 -1095 l0
-1068 28 -36 c52 -68 46 -67 449 -67 336 0 369 2 438 21 238 66 406 228 487
469 14 43 18 86 18 195 0 126 -3 147 -27 216 -36 101 -86 184 -153 255 -30 32
-55 60 -55 61 0 2 23 31 51 65 100 122 150 262 150 418 0 179 -61 328 -186
452 -96 97 -241 170 -360 183 -80 9 -676 12 -716 4z m755 -358 c66 -33 122
-91 154 -160 22 -46 27 -69 25 -128 -2 -129 -65 -228 -181 -285 l-67 -33 -240
0 -240 0 -3 318 -2 318 252 -3 c244 -3 255 -4 302 -27z m6 -962 c146 -68 229
-205 218 -359 -9 -125 -83 -236 -200 -297 l-53 -28 -262 -3 -263 -3 0 361 0
361 253 -3 c247 -3 253 -3 307 -29z"/>
<path d="M6655 5028 c-48 -17 -81 -45 -99 -82 -14 -31 -16 -136 -16 -1082 0
-1027 0 -1048 20 -1089 55 -114 240 -115 294 -1 15 32 16 125 14 1098 l-3
1063 -22 31 c-25 34 -99 74 -135 73 -13 0 -36 -5 -53 -11z"/>
<path d="M8459 5017 c-24 -13 -54 -38 -66 -57 -21 -29 -23 -45 -23 -149 0
-131 12 -164 72 -201 47 -29 137 -27 183 3 60 39 75 80 75 198 0 127 -19 169
-90 205 -57 30 -96 30 -151 1z"/>
<path d="M750 5023 c-52 -10 -147 -62 -196 -106 -31 -28 -66 -75 -90 -119
l-39 -73 0 -865 0 -865 30 -59 c46 -91 114 -160 203 -203 l76 -38 1012 -3
1011 -2 -2 997 c-3 913 -4 1002 -20 1048 -40 115 -121 204 -235 259 l-65 31
-830 1 c-456 1 -841 -1 -855 -3z m1371 -677 c66 -28 99 -81 99 -159 0 -69 -21
-111 -73 -145 l-41 -27 -509 -3 c-504 -3 -510 -2 -554 19 -62 30 -93 82 -93
154 0 80 32 132 98 162 43 18 1028 18 1073 -1z m21 -666 c51 -35 78 -86 78
-149 0 -63 -18 -101 -67 -138 l-36 -28 -532 0 -532 0 -36 27 c-46 36 -67 79
-67 141 0 84 53 151 135 168 17 4 253 6 525 5 l495 -1 37 -25z"/>
<path d="M5532 4415 c-220 -50 -413 -239 -465 -455 -13 -52 -17 -137 -18 -415
-2 -304 0 -358 15 -409 48 -169 181 -329 336 -405 115 -56 207 -74 340 -68
177 9 302 60 416 172 79 77 102 124 90 189 -15 78 -114 146 -191 132 -25 -5
-56 -25 -97 -63 -89 -81 -131 -98 -253 -98 -118 0 -171 21 -245 95 -73 73 -85
106 -85 240 l0 115 399 2 c450 3 450 3 493 79 21 36 23 52 23 199 0 109 -5
181 -16 225 -47 203 -207 378 -406 447 -92 31 -243 40 -336 18z m241 -331
c103 -35 187 -146 190 -252 l2 -57 -297 -3 -298 -2 0 44 c0 119 92 241 210
277 44 13 145 10 193 -7z"/>
<path d="M10880 4424 c-83 -16 -191 -67 -257 -121 -56 -46 -118 -139 -138
-211 -24 -81 -22 -220 4 -294 52 -151 162 -242 403 -338 233 -93 295 -129 334
-196 83 -141 -60 -285 -270 -272 -88 6 -147 32 -207 91 -75 74 -160 83 -234
25 -31 -24 -65 -91 -65 -128 0 -72 91 -181 198 -238 118 -63 182 -77 342 -76
139 0 148 1 226 32 154 61 248 139 311 259 42 80 57 153 51 259 -14 249 -138
375 -513 524 -151 59 -203 88 -239 130 -57 68 -38 153 45 200 37 21 57 25 124
25 98 0 125 -13 215 -100 77 -74 121 -93 178 -75 116 38 163 140 111 243 -28
54 -114 137 -187 180 -105 61 -165 78 -292 82 -63 2 -126 1 -140 -1z"/>
<path d="M8449 4377 c-18 -12 -44 -38 -56 -56 l-23 -34 0 -746 c0 -727 1 -747
20 -779 30 -49 75 -72 143 -72 71 0 119 28 147 86 19 39 20 62 20 761 0 753
-1 763 -44 811 -51 57 -146 70 -207 29z"/>
<path d="M9063 4377 c-18 -12 -41 -38 -53 -58 -19 -36 -20 -51 -20 -565 0
-586 3 -611 63 -739 153 -318 525 -445 847 -287 104 51 221 168 272 272 67
136 68 143 68 750 0 526 -1 546 -20 578 -30 49 -75 72 -141 72 -62 0 -105 -22
-143 -73 -21 -28 -21 -40 -26 -580 -5 -545 -5 -553 -27 -593 -55 -103 -134
-155 -247 -162 -124 -7 -230 52 -288 160 -23 43 -23 43 -28 593 -5 519 -6 552
-24 582 -43 71 -164 97 -233 50z"/>
<path d="M3432 2204 c-22 -15 -22 -16 -22 -338 0 -300 1 -324 18 -339 15 -14
40 -17 124 -17 150 0 205 23 259 108 49 78 37 162 -33 239 l-21 22 26 31 c85
100 38 249 -92 295 -60 21 -228 21 -259 -1z m274 -117 c36 -42 33 -98 -6 -131
-35 -29 -76 -39 -140 -34 l-45 3 -3 84 c-2 46 0 91 3 99 4 11 22 13 86 10 74
-3 83 -6 105 -31z m-22 -269 c14 -6 35 -30 46 -54 19 -38 20 -45 7 -76 -26
-60 -49 -72 -140 -73 l-82 0 -3 108 -3 107 75 0 c41 0 86 -5 100 -12z"/>
<path d="M4892 2204 c-22 -15 -22 -16 -22 -338 0 -300 1 -324 18 -339 45 -41
82 -6 82 79 0 92 38 133 72 77 36 -60 125 -168 142 -171 22 -5 56 25 56 49 0
10 -36 66 -80 124 -44 58 -80 108 -80 111 0 3 32 43 71 89 74 88 81 113 38
135 -28 16 -46 2 -135 -102 l-79 -92 -5 183 c-5 166 -7 184 -24 197 -25 18
-27 17 -54 -2z"/>
<path d="M5640 2197 c-78 -52 -98 -162 -46 -251 l27 -47 -30 -35 c-130 -147
-39 -354 154 -354 55 0 102 16 137 48 16 14 20 13 38 -11 28 -35 57 -43 81
-21 27 25 23 54 -13 93 l-31 33 22 61 22 61 -26 25 c-30 30 -51 23 -76 -27
l-17 -32 -53 61 c-30 34 -55 64 -57 68 -1 4 22 32 52 63 40 41 55 65 61 96 12
75 -23 146 -92 181 -38 19 -116 14 -153 -12z m128 -83 c33 -23 30 -75 -9 -119
-39 -44 -63 -45 -83 -3 -22 44 -20 87 6 115 25 27 54 29 86 7z m-3 -380 c33
-40 60 -79 60 -86 0 -6 -15 -21 -33 -31 -29 -17 -38 -18 -79 -7 -53 15 -83 55
-83 110 0 49 39 105 64 93 6 -2 38 -38 71 -79z"/>
<path d="M6310 2200 c-24 -24 -24 -29 -4 -58 12 -18 25 -22 70 -22 l54 0 -2
-252 -3 -253 -50 -3 c-76 -5 -109 -47 -67 -85 16 -14 43 -17 169 -17 133 0
152 2 166 18 39 43 11 82 -60 82 -21 0 -44 4 -51 8 -9 7 -12 64 -10 253 l3
244 58 5 c58 5 77 18 77 51 0 9 -8 23 -18 32 -16 14 -43 17 -165 17 -134 0
-149 -2 -167 -20z"/>
<path d="M4051 2025 c-77 -24 -123 -89 -89 -123 19 -19 45 -14 88 14 32 21 46
25 75 20 38 -7 58 -34 53 -68 -2 -18 -16 -25 -68 -39 -96 -25 -114 -34 -149
-76 -57 -69 -36 -177 44 -224 36 -21 145 -25 178 -6 81 45 97 84 97 245 0 89
-4 140 -14 163 -34 82 -125 122 -215 94z m129 -325 c0 -83 -52 -120 -120 -85
-68 35 -41 94 55 121 65 18 65 19 65 -36z"/>
<path d="M4515 2024 c-22 -8 -52 -27 -68 -42 -54 -51 -57 -66 -57 -267 l0
-185 25 -12 c21 -9 28 -8 45 7 18 17 20 31 20 184 0 160 1 167 24 196 20 24
31 30 66 30 34 0 47 -6 66 -28 23 -27 24 -34 24 -193 0 -151 2 -166 20 -184
25 -25 42 -25 64 -1 15 17 17 40 14 199 l-3 180 -30 43 c-50 71 -136 101 -210
73z"/>
<path d="M6885 2028 c-48 -17 -94 -56 -115 -98 -18 -35 -20 -59 -20 -213 0
-156 2 -176 18 -190 24 -22 38 -21 62 3 18 18 20 33 20 184 0 148 2 166 20
189 39 50 116 43 145 -12 12 -24 15 -66 15 -194 0 -162 0 -164 24 -176 18 -10
29 -10 45 -2 20 11 21 18 21 199 0 172 -2 190 -21 221 -49 81 -135 116 -214
89z"/>
<path d="M7315 2020 c-62 -31 -85 -65 -85 -127 0 -44 5 -58 30 -87 17 -19 54
-43 88 -57 99 -39 118 -58 106 -104 -6 -24 -41 -45 -76 -45 -12 0 -39 12 -60
26 -63 44 -122 7 -83 -52 28 -44 74 -64 143 -64 142 0 222 113 159 224 -22 39
-59 64 -164 109 -52 22 -65 53 -33 79 32 26 62 22 104 -11 37 -30 65 -31 87
-5 28 34 -24 97 -100 123 -47 15 -69 13 -116 -9z"/>
<path d="M8241 2022 c-19 -9 -48 -34 -65 -55 l-31 -39 -6 -181 c-4 -159 -3
-185 11 -207 23 -33 54 -37 74 -8 13 18 16 53 16 193 1 118 4 175 13 186 20
26 54 32 89 15 56 -29 98 -16 98 29 0 27 -23 48 -74 69 -48 20 -82 20 -125 -2z"/>
<path d="M8625 2025 c-74 -29 -116 -90 -83 -123 17 -17 63 -15 79 4 36 44 110
40 134 -6 18 -35 10 -60 -20 -60 -30 0 -128 -33 -160 -54 -73 -48 -87 -158
-29 -222 52 -58 172 -73 235 -31 18 12 44 38 56 56 21 32 23 45 23 180 0 133
-2 150 -23 185 -39 69 -134 100 -212 71z m137 -330 c-4 -77 -56 -114 -115 -84
-27 15 -37 28 -37 54 0 33 15 46 71 65 78 27 84 24 81 -35z"/>
<path d="M9090 2023 c-19 -8 -48 -27 -63 -41 -53 -50 -57 -70 -57 -267 0 -181
0 -182 24 -194 18 -10 29 -10 45 -2 20 11 21 19 21 177 0 162 5 190 35 221 41
40 126 15 146 -44 6 -20 10 -89 9 -171 -3 -178 -4 -171 25 -184 21 -9 28 -8
45 7 19 17 20 31 20 190 0 192 -7 224 -61 269 -64 54 -125 67 -189 39z"/>
<path d="M9565 2024 c-21 -8 -50 -24 -63 -37 -46 -43 -52 -67 -52 -220 0 -133
2 -147 23 -178 39 -58 81 -79 157 -79 56 0 73 4 112 29 59 38 69 65 35 99
l-25 25 -48 -32 c-71 -46 -135 -37 -153 23 -13 44 -14 192 -1 232 19 56 113
71 156 23 22 -25 56 -24 79 1 16 18 17 23 4 46 -17 33 -53 57 -105 72 -51 15
-69 14 -119 -4z"/>
<path d="M10013 2027 c-39 -15 -72 -42 -102 -85 -20 -29 -23 -45 -24 -165 -2
-145 5 -169 60 -217 47 -42 70 -50 138 -50 54 0 72 5 106 27 62 41 71 88 23
113 -21 12 -27 11 -47 -7 -39 -35 -83 -47 -117 -33 -39 16 -70 60 -70 99 l0
31 123 0 c148 0 157 5 157 92 0 69 -20 117 -61 152 -62 52 -122 66 -186 43z
m125 -124 c12 -13 22 -33 22 -44 0 -17 -8 -19 -90 -19 -99 0 -103 3 -71 57 30
49 97 52 139 6z"/>
<path d="M7671 2011 c-19 -19 -21 -33 -21 -177 0 -87 5 -173 11 -194 24 -79
94 -130 180 -130 64 0 107 18 143 61 38 45 46 89 46 262 0 144 -2 159 -20 177
-24 24 -29 24 -58 4 -21 -15 -22 -21 -22 -185 0 -166 -1 -170 -24 -194 -13
-13 -36 -27 -50 -31 -33 -8 -88 23 -97 56 -4 14 -8 95 -8 180 -1 85 -5 160 -9
166 -15 24 -50 26 -71 5z"/>
</g>
</svg>
