<svg id="SVG" xmlns="http://www.w3.org/2000/svg" width="700" height="700" viewBox="0 0 700 700">
  <defs>
    <style>
      .cls-1 {
        fill-rule: evenodd;
      }
    </style>
  </defs>
  <path id="Bitcoin" class="cls-1" d="M190.167,308a17.261,17.261,0,0,1,3.625.084h0.75c0.409,0.092,1.02.076,1.416,0.167h0.417c0.641,0.15,1.44.182,2.042,0.336,0.459,0.117.84,0.048,1.291,0.167a50.646,50.646,0,0,1,7.25,2.18c0.419,0.184.809,0.22,1.209,0.419a54.238,54.238,0,0,1,7.083,3.9,42.305,42.305,0,0,1,15.75,20.5c0.659,1.779,1.124,3.744,1.667,5.7,0.078,0.284.01,0.469,0.083,0.755,0.29,1.128.314,2.477,0.583,3.688l0.084,1.635c0.047,0.221-.016.607,0.041,0.88a8.259,8.259,0,0,1,.042,1.467,12.6,12.6,0,0,1-.083,2.389v0.755q-0.166,1.551-.334,3.1c-0.148.606-.157,1.342-0.333,1.97-0.2.7-.275,1.486-0.5,2.221-0.524,1.715-1.01,3.473-1.667,5.03l-0.333,1.006a55.429,55.429,0,0,1-3.917,7.252,43.285,43.285,0,0,1-15.041,13.539,52.259,52.259,0,0,1-6.959,2.934l-1.041.251c-1.534.506-3.279,0.745-4.959,1.174-0.611.156-1.266,0.119-1.833,0.252-1.006.235-2.14,0.03-3.125,0.251h-1.833a19.779,19.779,0,0,1-4-.251c-0.407-.094-0.714.013-1.125-0.084-0.855-.2-1.75-0.187-2.625-0.419a47.734,47.734,0,0,1-9.042-2.935c-0.3-.151-0.568-0.2-0.875-0.335-0.348-.154-0.715-0.41-1.042-0.587a47.735,47.735,0,0,1-4.875-2.85,43.934,43.934,0,0,1-12.041-12.952c-1.023-1.651-1.792-3.5-2.667-5.282-0.131-.267-0.141-0.515-0.25-0.8-0.385-.992-0.821-2.093-1.167-3.144q-0.124-.524-0.25-1.048c-0.472-1.447-.685-3.118-1.083-4.694-0.155-.615-0.118-1.274-0.25-1.845-0.139-.6-0.042-1.284-0.167-1.844V352.1a15.3,15.3,0,0,1,0-4.15v-0.754c0.2-.906.135-1.95,0.334-2.809v-0.419c0.152-.607.153-1.327,0.333-1.97,0.491-1.754.826-3.6,1.417-5.2,0.149-.4.162-0.779,0.333-1.173a57.9,57.9,0,0,1,3.583-7.5,41.335,41.335,0,0,1,11.292-12.156,37.175,37.175,0,0,1,3.208-2.18,67.145,67.145,0,0,1,6.459-3.1,51.955,51.955,0,0,1,6.291-1.845c0.791-.221,1.641-0.236,2.417-0.419,1-.235,2.085-0.112,3.083-0.335A5.171,5.171,0,0,0,190.167,308Zm79.958,0a9.6,9.6,0,0,1-.542,2.305c-0.135.467-.114,0.834-0.25,1.3-0.368,1.261-.622,2.679-1,3.94-0.272.909-.309,1.774-0.583,2.683-0.794,2.632-1.239,5.489-2,8.131-0.2.68-.215,1.3-0.417,1.97-0.418,1.391-.67,2.931-1.083,4.318-0.1.332-.069,0.6-0.167,0.922a7.472,7.472,0,0,0-.416,1.8v0.042a7.981,7.981,0,0,0,.916-0.419c0.686-.294,1.438-0.516,2.125-0.754,0.963-.334,2.009-0.42,3.042-0.671l1.333-.084a9.185,9.185,0,0,1,2.75,0h0.709c0.452,0.1.968,0.047,1.458,0.168a22.486,22.486,0,0,1,4.75,1.425c0.661,0.33,1.254.575,1.875,0.922a15.7,15.7,0,0,1,1.458,1.048,17.894,17.894,0,0,1,6.167,8.3,41.791,41.791,0,0,1,1.167,4.15c0.118,0.456.055,0.842,0.166,1.3A18.6,18.6,0,0,1,292,355.03a9.036,9.036,0,0,1,0,1.8v0.713q-0.042,1.026-.083,2.054c-0.109.484-.043,1.021-0.167,1.551-0.287,1.226-.322,2.5-0.667,3.688a41.262,41.262,0,0,1-2.333,6.749,35.51,35.51,0,0,1-16.917,17.227,37.921,37.921,0,0,1-7.541,2.515c-1.075.282-2.245,0.25-3.334,0.5l-1.833.084a12.931,12.931,0,0,1-2.458.084,7.616,7.616,0,0,1-1.417-.042c-0.311-.069-0.741.016-1-0.042h-1.083l-2.417-.167c-0.523-.124-1.221-0.13-1.75-0.252h-0.458c-1.952-.474-4.019-0.624-5.834-1.174-0.646-.195-1.2-0.224-1.833-0.419a38.742,38.742,0,0,1-3.708-1.341,4.58,4.58,0,0,1-1.667-.838,5.381,5.381,0,0,0,.333-1.426c0.34-1.127.482-2.351,0.834-3.521,0.9-3,1.389-6.25,2.25-9.263,0.266-.931.314-1.794,0.583-2.725,0.536-1.854.866-3.89,1.417-5.742,0.136-.459.116-0.837,0.25-1.3,0.369-1.277.621-2.707,1-3.983,0.136-.459.116-0.836,0.25-1.3,0.3-1.042.535-2.226,0.833-3.269,0.132-.463.112-0.841,0.25-1.3,0.41-1.364.59-2.815,1-4.233,0.971-3.357,1.54-6.952,2.5-10.312,0.2-.7.216-1.316,0.417-2.012,0.7-2.433,1.111-5.073,1.833-7.5,0.307-1.033.367-2.022,0.667-3.06,1.038-3.591,1.64-7.428,2.666-11.024,0.374-1.309.542-2.638,0.917-3.9a3.817,3.817,0,0,1,.333-1.257,3.223,3.223,0,0,1,1-.168c0.741-.183,1.634-0.238,2.375-0.419l0.875-.084c1.078-.265,2.333-0.322,3.417-0.587l0.875-.084c0.852-.209,1.816-0.19,2.708-0.419,0.66-.169,1.4-0.158,2.125-0.335C268.118,308.28,269.2,308.146,270.125,308Zm48.125,1.09a10.046,10.046,0,0,1,2.292.084c2.52,0.63,4.421,1.5,5.708,3.353a5.509,5.509,0,0,1,.667,1.09,13.746,13.746,0,0,1,.5,1.8,9.9,9.9,0,0,1-.334,4.485,10.864,10.864,0,0,1-7.041,7.294,10.478,10.478,0,0,1-5.75.335c-2.515-.721-4.637-2.022-5.625-4.276a10.532,10.532,0,0,1-.5-1.886,8.53,8.53,0,0,1,.083-3.269c0.12-.5.11-0.844,0.25-1.3a11.423,11.423,0,0,1,2.833-4.61,11.787,11.787,0,0,1,4.542-2.683c0.5-.155,1.031-0.214,1.542-0.335A3.3,3.3,0,0,0,318.25,309.09Zm174.083,0c4.223-.064,7.188,1.6,8.584,4.359,0.983,1.942.746,5.177,0,7.126a10.754,10.754,0,0,1-7.334,6.79,10.576,10.576,0,0,1-5.25.168c-2.476-.714-4.6-2.017-5.583-4.234a10.14,10.14,0,0,1-.5-1.76c-0.121-.516.031-1.022-0.083-1.593a5.552,5.552,0,0,1,.166-1.97c0.113-.462.113-0.8,0.25-1.216a11.9,11.9,0,0,1,1.75-3.269,6.554,6.554,0,0,1,1.167-1.383,15.546,15.546,0,0,1,4.167-2.515,14.787,14.787,0,0,1,1.833-.419A3.275,3.275,0,0,0,492.333,309.09Zm-139.916,9.054q-2,8.214-4,16.431h17.458a0.906,0.906,0,0,1,.042.293,3.956,3.956,0,0,0-.25,1.048c-0.264.866-.389,1.811-0.667,2.725-0.4,1.321-.589,2.74-1,4.108-0.464,1.542-.868,3.216-1.208,4.82H345.333a9.181,9.181,0,0,1-.5,2.054c-0.138.458-.115,0.837-0.25,1.3-0.336,1.15-.584,2.454-0.916,3.6-0.4,1.374-.518,2.735-0.917,4.108-1.032,3.552-1.666,7.252-2.583,10.9-0.17.672-.059,1.381-0.209,2.054a7.327,7.327,0,0,0,.209,2.557,9.715,9.715,0,0,0,.291,1.173c0.721,1.706,2.129,2.454,4,3.018,0.636,0.192,1.29.057,2,.21a9.052,9.052,0,0,0,2.792-.042h0.708c1.523-.358,3.047-0.408,4.459-0.838,0.483-.148.989-0.243,1.5-0.419a5.5,5.5,0,0,1,1.25-.42v0.042h0.041a5.693,5.693,0,0,0,.125,1.132c0.13,0.584.047,1.223,0.167,1.76v0.5c0.2,0.914.131,2.025,0.333,2.935v0.545c0.14,0.627.112,1.429,0.25,2.053v0.545a12.857,12.857,0,0,1,.25,2.557,21.89,21.89,0,0,1-2.25.755c-1.9.7-4.026,1.029-6.125,1.593-0.772.207-1.666,0.16-2.416,0.335l-1.917.084a15.724,15.724,0,0,1-2.917.084,13.348,13.348,0,0,1-2.583-.084c-0.581-.13-1.074.044-1.625-0.084-1.265-.293-2.578-0.288-3.75-0.671-4.378-1.43-7.153-3.361-9.083-7.251a14.14,14.14,0,0,1-.75-2.264c-0.241-.8-0.372-1.752-0.584-2.641q-0.041-.713-0.083-1.425a4.313,4.313,0,0,1-.042-1.383v-1.132c0.041-.181-0.01-0.522.042-0.754,0.215-.966.122-2.107,0.333-3.018l0.084-1.09c0.29-1.2.322-2.533,0.666-3.73,0.244-.846.328-1.76,0.584-2.641,0.809-2.789,1.279-5.8,2.083-8.593,0.334-1.161.413-2.276,0.75-3.437,0.946-3.258,1.444-6.766,2.417-10.018,0.275-.921.314-1.8,0.583-2.725,0.574-1.976.909-4.145,1.5-6.119,0.206-.69.216-1.32,0.417-2.012,0.363-1.255.542-2.6,0.916-3.9,0.567-1.957,1.026-4.053,1.459-6.077,0.577-.19,1.234-0.128,1.875-0.294,1.423-.368,3.066-0.4,4.5-0.754l0.875-.084c1.253-.31,2.7-0.361,3.958-0.671,0.5-.122.918-0.045,1.417-0.167,0.672-.165,1.4-0.159,2.125-0.336A7.479,7.479,0,0,1,352.417,318.144Zm-174.75,54.491,4.583,1.131a11.553,11.553,0,0,1,.5-1.97c0.322-1.125.507-2.275,0.833-3.353a11.557,11.557,0,0,1,.542-2.18,0.282,0.282,0,0,1,.167-0.041,3.349,3.349,0,0,0,.791.209c0.606,0.2,1.311.359,1.917,0.545a2.388,2.388,0,0,1,.667.168,0.282,0.282,0,0,1,.041.167,12.863,12.863,0,0,0-.541,2.222c-0.5,1.643-.925,3.406-1.292,5.114l0.083,0.042a7.374,7.374,0,0,0,1.542.377c0.635,0.193,1.321.3,2,.5a4.877,4.877,0,0,0,.958.251v-0.042H190.5a10.951,10.951,0,0,1,.5-1.928c0.342-1.122.507-2.275,0.833-3.353,0.177-.584.252-1.175,0.417-1.719a2.032,2.032,0,0,1,.125-0.544,0.2,0.2,0,0,1,.125-0.042,6.872,6.872,0,0,0,1.708.293c0.636,0.15,1.421.149,2.084,0.293h0.666a7.444,7.444,0,0,0,2.625,0h0.625c0.705-.16,1.461-0.2,2.125-0.419,3.261-1.062,4.705-2.911,6-5.952a19.341,19.341,0,0,0,.75-2.305l0.084-.8a5.343,5.343,0,0,0,.125-2.012A14.639,14.639,0,0,0,209,355.7a7.463,7.463,0,0,0-2.125-3.228c-0.558-.424-1.106-0.882-1.708-1.257a1.784,1.784,0,0,1-.75-0.462,4.508,4.508,0,0,0,1.416-.5c0.344-.171.651-0.226,0.959-0.419a7.416,7.416,0,0,0,2.875-3.646,11.544,11.544,0,0,0,.333-1.342,8.353,8.353,0,0,0,.083-4.024,8.673,8.673,0,0,0-3.375-4.652,20.447,20.447,0,0,0-4.125-2.18c-0.338-.14-1.511-0.4-1.583-0.713a6.985,6.985,0,0,0,.417-1.634c0.388-1.3.626-2.736,1.041-4.024,0.128-.4.177-0.817,0.292-1.174a1.64,1.64,0,0,0,.083-0.545,2,2,0,0,0-1-.293c-0.854-.258-1.767-0.4-2.666-0.671a2.2,2.2,0,0,0-.875-0.209,7.149,7.149,0,0,0-.459,1.8c-0.371,1.226-.632,2.588-1,3.814a5.851,5.851,0,0,1-.458,1.677,2.7,2.7,0,0,1-.875-0.21c-0.569-.161-1.056-0.172-1.625-0.335a4.847,4.847,0,0,0-1.042-.251,7.221,7.221,0,0,1,.5-2.1c0.3-.975.371-1.917,0.667-2.892a16.586,16.586,0,0,0,.625-2.474l-4.583-1.131v0.042H190a7.844,7.844,0,0,1-.375,1.467c-0.257.841-.382,1.715-0.625,2.515-0.355,1.169-.427,2.431-0.875,3.521a32.1,32.1,0,0,1-3.833-.964c-0.97-.3-1.905-0.374-2.875-0.671a12.353,12.353,0,0,0-2.5-.629v0.042h-0.042a5.988,5.988,0,0,1-.292,1.132c-0.194.646-.221,1.24-0.416,1.886a9.406,9.406,0,0,0-.459,1.844l0.125,0.042a5.339,5.339,0,0,0,1.292.294c1.468,0.42,3.361.636,3.875,2.012a3.629,3.629,0,0,1-.167,2.347c-0.271.9-.406,1.819-0.666,2.683-0.293.971-.373,1.914-0.667,2.892-0.953,3.165-1.5,6.552-2.458,9.724-0.337,1.119-.51,2.27-0.834,3.354a2.975,2.975,0,0,1-.791,1.76,2.194,2.194,0,0,1-1.834.126c-0.547-.155-1.042-0.17-1.583-0.335a7.177,7.177,0,0,0-1.417-.378c-0.532,1.22-1.055,2.445-1.583,3.689a5.88,5.88,0,0,0-.667,1.593h0.042v0.042a11.281,11.281,0,0,1,2.333.587c1.4,0.405,2.82.631,4.167,1.047,0.593,0.184,1.194.292,1.75,0.461a2.912,2.912,0,0,1,.833.21,0.357,0.357,0,0,1,.042.21,12.62,12.62,0,0,0-.583,2.347c-0.294.968-.445,2-0.75,3.018A8.458,8.458,0,0,0,177.667,372.635Zm219.916-39.527a35.461,35.461,0,0,1,13.042,1.97,25.988,25.988,0,0,1,2.5,1.006,1.075,1.075,0,0,1,.75.419,2.531,2.531,0,0,0-.292.671q-0.45,1.026-.916,2.1c-0.946,2.159-1.875,4.428-2.917,6.539-0.343.7-.588,1.43-0.917,2.1a1.093,1.093,0,0,1-.458.8,2.7,2.7,0,0,0-.583-0.21c-0.668-.284-1.354-0.483-2.084-0.754-0.826-.308-1.753-0.557-2.625-0.839-0.479-.155-1.046-0.141-1.5-0.251h-0.541a7.327,7.327,0,0,0-1.375-.126h-0.834a5.969,5.969,0,0,0-1.541.042,16.716,16.716,0,0,0-4.375.754c-4.818,1.8-7.595,4.8-9.667,9.348a24.354,24.354,0,0,0-1.083,3.479c-0.08.283-.01,0.469-0.084,0.754a27.093,27.093,0,0,0-.5,5.114c-0.025.458,0,.929,0,1.425v0.713c0.1,0.444.051,1,.167,1.467,0.237,0.965.354,1.916,0.667,2.808a8.347,8.347,0,0,0,4.875,5.407,22.191,22.191,0,0,0,2.291.587h0.459a12.963,12.963,0,0,0,2.708.168h1.167c1-.228,2.1-0.08,3.083-0.336,1.3-.338,2.642-0.493,3.875-0.922,0.527-.183,1.174-0.353,1.708-0.586a3.447,3.447,0,0,1,.834-0.336v0.042h0.041l1.125,12.575c-1.541.581-3.19,1.085-4.791,1.635-1.135.389-2.377,0.516-3.542,0.838h-0.333c-0.723.172-1.583,0.165-2.334,0.335h-0.666c-0.353.078-.824-0.008-1.25,0.084a15.223,15.223,0,0,1-4.167,0h-0.917c-0.537-.122-1.18-0.029-1.75-0.167a45.276,45.276,0,0,1-4.708-1.006c-5.647-2.08-9.8-5.248-12.375-10.4a26.77,26.77,0,0,1-1.5-4.191c-0.174-.572-0.174-1.077-0.333-1.677-0.183-.688-0.246-1.533-0.417-2.263-0.124-.53-0.057-1.107-0.167-1.593V369.7a6.148,6.148,0,0,1-.041-1.761v-0.88a9.972,9.972,0,0,1,.125-2.012v-0.671c0.107-.47.04-1.027,0.166-1.551,0.2-.815.194-1.728,0.417-2.557,0.536-1.986.9-3.924,1.583-5.742,3.453-9.141,9.743-15.907,18.834-19.365,1.485-.566,3.068-0.88,4.666-1.342,0.813-.234,1.692-0.228,2.5-0.419,0.863-.2,1.815-0.059,2.667-0.251A5.725,5.725,0,0,0,397.583,333.108Zm45.542,0c4.416-.073,8.241.51,11.167,1.97,0.515,0.257,1.023.379,1.5,0.671,0.517,0.316,1.042.686,1.541,1a11.324,11.324,0,0,1,2.584,2.138l0.666,0.629c0.376,0.5.808,0.964,1.167,1.467a27.433,27.433,0,0,1,2.167,3.814,23.3,23.3,0,0,1,1.166,3.6c0.343,1.134.457,2.467,0.75,3.731q0.063,0.921.125,1.844c0.073,0.341-.041.864,0.042,1.258a5.241,5.241,0,0,1,0,1.718c-0.142.648,0.041,1.4-.083,1.97v0.713c-0.11.481-.039,1.059-0.167,1.593-0.316,1.313-.4,2.759-0.75,3.982-0.133.467-.1,0.854-0.25,1.3a56.292,56.292,0,0,1-2.5,7.126c-3.555,7.13-8.2,12.27-15.292,15.844a24.609,24.609,0,0,1-2.458.922c-0.81.308-1.783,0.583-2.667,0.839-0.932.269-1.928,0.278-2.875,0.5-0.552.13-1.184,0.049-1.708,0.167h-0.667a11.275,11.275,0,0,1-3.541,0h-0.875c-0.745-.169-1.635-0.163-2.334-0.335-0.912-.225-1.744-0.215-2.583-0.5a22.028,22.028,0,0,1-4.292-1.761,19.432,19.432,0,0,1-8.541-10.269,41.247,41.247,0,0,1-1.167-4.317c-0.146-.575-0.124-1.176-0.25-1.719-0.141-.605-0.04-1.274-0.167-1.844V370.2a6.964,6.964,0,0,1,0-2.264v-1.048a10.008,10.008,0,0,1,.167-1.76v-0.5c0.214-.933.172-1.958,0.417-2.892a71.247,71.247,0,0,1,1.916-7.084A37.38,37.38,0,0,1,419,347.317c0.634-.96,1.356-1.885,2.042-2.808,0.175-.236.45-0.436,0.625-0.671a16.56,16.56,0,0,1,3.041-3.143c0.241-.184.426-0.488,0.667-0.671a33.252,33.252,0,0,1,10.042-5.7c1.141-.38,2.366-0.547,3.583-0.838,0.527-.126,1.046-0.1,1.542-0.21l1.666-.125A2.505,2.505,0,0,0,443.125,333.108Zm82.75,57.383a6.834,6.834,0,0,1,.375-1.551c0.312-1.073.443-2.165,0.75-3.186,0.207-.688.215-1.318,0.417-2.011,0.608-2.088.98-4.366,1.583-6.456,0.377-1.307.538-2.643,0.917-3.9,0.067-.223.015-0.354,0.083-0.587,1.079-3.713,1.679-7.687,2.75-11.4,0.3-1.034.389-2.144,0.667-3.144q0.04-.418.083-0.838c0.247-.985.261-2.128,0.5-3.185v-0.755a8.729,8.729,0,0,0-.333-2.725c-0.09-.264-0.064-0.468-0.167-0.712a5.472,5.472,0,0,0-3.542-3.144c-0.444-.15-0.972-0.147-1.416-0.251h-1a9.788,9.788,0,0,0-2.792.084h-0.667c-0.633.148-1.433,0.175-2.041,0.335a3.812,3.812,0,0,0-1.125.209,0.152,0.152,0,0,0-.042.084,2.526,2.526,0,0,0-.125.587c-0.2.662-.285,1.388-0.5,2.1-0.562,1.852-.885,3.886-1.417,5.742-0.132.463-.112,0.841-0.25,1.3-0.383,1.274-.62,2.706-1,3.982-0.136.459-.116,0.837-0.25,1.3-0.3,1.041-.523,2.229-0.833,3.27-0.137.459-.116,0.837-0.25,1.3-1.271,4.39-1.993,9.061-3.25,13.455-0.132.463-.112,0.841-0.25,1.3-0.556,1.851-.866,3.888-1.417,5.742-0.211.71-.311,1.436-0.5,2.1a3.237,3.237,0,0,1-.208.922,3.374,3.374,0,0,1-1.208.042h-14.5a2.273,2.273,0,0,1,.166-0.713c0.176-.609.248-1.2,0.417-1.76,0.413-1.37.616-2.815,1-4.15,0.263-.916.317-1.767,0.583-2.682,0.995-3.427,1.6-7.09,2.584-10.521,0.359-1.253.47-2.479,0.833-3.731,1.457-5.025,2.308-10.352,3.75-15.383,0.435-1.517.648-3.066,1.083-4.527,0.171-.571.168-1.061,0.334-1.635,0.529-1.829.893-3.826,1.416-5.658a25.6,25.6,0,0,1,.625-2.6c2.025-.686,4.113-1.255,6.167-1.886,0.712-.219,1.456-0.309,2.125-0.5,1.326-.387,2.75-0.429,4.125-0.755l1-.084c1.022-.24,2.259-0.177,3.333-0.419,0.44-.1.917,0,1.292-0.084,0.66-.148,1.463.056,2.083-0.084h2.584a24.276,24.276,0,0,1,6.333.671c0.249,0.07.393,0.013,0.625,0.084a26.581,26.581,0,0,1,3.125,1.006,15.011,15.011,0,0,1,7.25,6.413,24.085,24.085,0,0,1,1.583,3.982c0.221,0.661.25,1.395,0.417,2.054,0.114,0.451.072,0.967,0.167,1.383v0.713a14.848,14.848,0,0,1-.084,4.485v0.545c-0.213.918-.169,1.927-0.416,2.85-0.757,2.825-1.209,5.719-2,8.467-0.135.467-.115,0.833-0.25,1.3-0.435,1.5-.72,3.159-1.167,4.653-0.272.909-.309,1.774-0.583,2.683-1.071,3.554-1.642,7.375-2.667,10.94-0.342,1.188-.493,2.387-0.833,3.521a4.738,4.738,0,0,1-.334,1.383,3.373,3.373,0,0,1-1.208.042h-14.5Zm-232.458,0a5.075,5.075,0,0,1,.333-1.425c0.282-.942.409-1.914,0.667-2.809,0.2-.694.209-1.323,0.416-2.011,0.7-2.317,1.059-4.849,1.75-7.168,0.137-.459.116-0.837,0.25-1.3,0.271-.933.473-2,0.75-2.934,0.137-.459.116-0.837,0.25-1.3,0.37-1.275.635-2.706,1-3.982,0.133-.463.112-0.841,0.25-1.3,0.409-1.36.579-2.832,1-4.233,0.307-1.02.439-2.11,0.75-3.186,0.873-3.011,1.387-6.249,2.25-9.263,0.267-.93.315-1.8,0.584-2.725,0.772-2.668,1.236-5.544,2-8.215,0.276-.965.409-1.931,0.666-2.851a3.711,3.711,0,0,1,.292-1.173,3.374,3.374,0,0,1,1.208-.042h14.459a0.662,0.662,0,0,1,.041.209,5.19,5.19,0,0,0-.333,1.384c-0.3,1-.432,2.093-0.75,3.143-0.939,3.1-1.443,6.446-2.333,9.557-0.231.807-.267,1.542-0.5,2.348-1.232,4.252-1.949,8.78-3.167,13.035-0.327,1.142-.409,2.263-0.75,3.4-0.656,2.181-1.041,4.561-1.667,6.748-0.23.806-.259,1.548-0.5,2.348-0.448,1.493-.738,3.154-1.166,4.652-0.134.467-.116,0.833-0.25,1.3-0.3,1.042-.521,2.224-0.834,3.269-0.1.327-.067,0.59-0.166,0.922-0.34,1.136-.618,2.375-0.875,3.563a6.021,6.021,0,0,1-1.542.042H293.417Zm174.041,0a14.48,14.48,0,0,1,.625-2.6c0.341-1.184.509-2.39,0.834-3.521,0.2-.695.215-1.317,0.416-2.012,0.775-2.668,1.235-5.546,2-8.215,0.266-.929.314-1.8,0.584-2.725,1.108-3.823,1.736-7.909,2.833-11.736,0.266-.929.314-1.8,0.583-2.725,0.773-2.665,1.207-5.553,2-8.215,0.206-.69.216-1.318,0.417-2.012,0.469-1.62.786-3.409,1.25-5.03,0.1-.357.064-0.608,0.167-0.964,0.565-1.96,1.031-4.044,1.458-6.078a3.917,3.917,0,0,1,1.375-.084h14.333a0.631,0.631,0,0,1,.042.209,4.247,4.247,0,0,0-.208.923c-0.239.791-.332,1.638-0.584,2.473-0.727,2.415-1.113,5.043-1.833,7.461-0.169.568-.163,1.067-0.333,1.634-0.52,1.73-.818,3.634-1.334,5.366-0.169.568-.162,1.067-0.333,1.634-0.476,1.583-.694,3.272-1.167,4.905-1.3,4.488-2.048,9.256-3.333,13.748-0.468,1.636-.695,3.32-1.167,4.9-0.238.8-.267,1.543-0.5,2.348-0.632,2.185-1.018,4.565-1.666,6.748-0.249.837-.348,1.682-0.584,2.473a3.541,3.541,0,0,1-.25,1.048,3.373,3.373,0,0,1-1.208.042H467.458Zm-275.875-53.82c2.98,0.56,7.179,1.652,8.667,3.646,0.146,0.2.368,0.372,0.5,0.587a4.512,4.512,0,0,1,.167,3.647,4.091,4.091,0,0,1-2.584,2.263,12.965,12.965,0,0,1-1.458.21,4.806,4.806,0,0,1-1.583,0l-0.917-.042c-0.769-.179-1.554-0.209-2.333-0.419l-2.709-.713a0.587,0.587,0,0,1-.041-0.167,11.777,11.777,0,0,0,.541-2.18c0.46-1.513.75-3.178,1.209-4.695A12.485,12.485,0,0,1,191.583,336.671Zm250.792,9.808a5.051,5.051,0,0,1-1.167.084,15.668,15.668,0,0,0-1.916.419,14.548,14.548,0,0,0-4.042,2.515,10.84,10.84,0,0,0-1.75,2.012c-0.5.673-1.052,1.37-1.5,2.1a26.906,26.906,0,0,0-2.75,6.958c-0.273,1.011-.334,2.079-0.583,3.1-0.123.5-.061,1.084-0.167,1.551l-0.042,1.634a5.968,5.968,0,0,0,.042,2.1v0.838c0.169,0.739.124,1.573,0.333,2.306,0.885,3.1,1.65,5.146,4.625,6.161A14.562,14.562,0,0,0,435,378.5a6.882,6.882,0,0,0,2.458,0c0.492-.114.844-0.036,1.292-0.168a10.509,10.509,0,0,0,3.167-1.467c3.458-2.447,5.7-6.077,7.166-10.521,0.511-1.542.662-3.228,1.084-4.9q0.041-.607.083-1.215a13.607,13.607,0,0,0,.083-4.108v-0.839c-0.169-.741-0.126-1.565-0.333-2.305C448.856,348.892,447.555,346.51,442.375,346.479Zm-174.417.126a2.911,2.911,0,0,1-.625.042c-0.671.153-1.355,0.164-2.041,0.335a11.353,11.353,0,0,0-3.042,1.006c-0.232.142-.478,0.359-0.708,0.5-0.349.219-.6,0.442-0.917,0.671a1.445,1.445,0,0,0-.292.167l-6.958,29.132h0.042V378.5a11.634,11.634,0,0,1,1.75.335c0.339,0.083.734,0.015,1.041,0.084h1.959a14.4,14.4,0,0,0,5.208-.838c5.892-2.235,9.491-6.83,11.708-12.743,1.85-4.93,2.025-13.743-1.333-17.1C272.529,347.019,270.408,346.605,267.958,346.605Zm-79.833,3.9a18.738,18.738,0,0,1,2,.5c0.452,0.137.841,0.111,1.292,0.251,2.627,0.819,5.305,1.557,7,3.312A4.312,4.312,0,0,1,199.75,357a2.2,2.2,0,0,1,.083.922,4.757,4.757,0,0,1-1.375,2.976c-2.111,1.579-5.955,1.456-8.875.671-0.991-.267-1.928-0.375-2.833-0.671a3.722,3.722,0,0,1-1.083-.293,0.214,0.214,0,0,1-.042-0.126,2.712,2.712,0,0,0,.167-0.671c0.212-.7.318-1.446,0.541-2.179,0.513-1.685.823-3.513,1.334-5.2C187.864,351.781,187.9,351.124,188.125,350.5Z"/>
</svg>
