<svg id="SVG" xmlns="http://www.w3.org/2000/svg" width="700" height="700" viewBox="0 0 700 700">
  <defs>
    <style>
      .cls-1 {
        fill-rule: evenodd;
      }
    </style>
  </defs>
  <path id="B" class="cls-1" d="M442.7,335.38a63.3,63.3,0,0,0,31.434-65.456c-5.373-40.508-53.731-55.8-91.882-59.018v-60.9H344.635v60.36H319.382V150.01H281.77v60.36H206.007v38.9h28.209c12.627,0,18.806,3.756,18.806,13.95V430.347c0,13.949-6.985,18.242-14.508,18.242H209.768v39.7h73.076v61.7h37.88v-61.7h25.254v61.7h36.806v-61.7h8.06c77.373,0,103.165-37.825,103.165-89.331A66.818,66.818,0,0,0,442.7,335.38Zm-123.314-83.7h26.865c18.806,0,55.881,3.22,55.881,33.8a37.851,37.851,0,0,1-33.045,39.971h-49.7V251.682Zm41.641,193.15v-0.268H319.381v-80.48h48.358c11.284,0,53.731,3.756,53.731,33.8S401.322,444.832,361.022,444.832Z"/>
</svg>
