<svg id="Bitpay" xmlns="http://www.w3.org/2000/svg" width="340" height="190" viewBox="0 0 340 190">
  <defs>
    <style>
      .cls-1 {
        fill-rule: evenodd;
      }
    </style>
  </defs>
  <path id="Bitpay-2" data-name="Bitpay" class="cls-1" d="M101.837,65a14.509,14.509,0,0,1-.922,3.883c-0.625,2.012-.763,4-1.384,6.015-0.3.972-.445,2.066-0.769,3.122a12.227,12.227,0,0,0-.615,2.436c1.34-.193,2.887-0.969,4.306-1.294a8.215,8.215,0,0,1,3,.152c0.744,0.171,1.248.1,1.922,0.3a10.04,10.04,0,0,1,4.46,2.665,14.532,14.532,0,0,1,2.46,4.34,19.139,19.139,0,0,1,.154,9.822c-0.32,1.077-.394,1.981-0.769,2.969-1.655,4.372-4.667,8.387-8.611,10.508a25.486,25.486,0,0,1-17.992,1.98,34.135,34.135,0,0,1-4-1.219c-0.472-.2-1.017-0.135-1.076-0.761,0.487-.593.64-2.81,0.923-3.731,0.66-2.146,1.04-4.56,1.691-6.7,0.251-.826.209-1.535,0.461-2.36,1.426-4.655,2.172-9.721,3.537-14.391,0.311-1.062.3-1.984,0.615-3.046,0.622-2.116,1.073-4.506,1.692-6.624,0.189-.647.118-1.1,0.308-1.751a38.1,38.1,0,0,0,1.23-4.949,8.893,8.893,0,0,0,1.922-.3c1.293-.308,2.468-0.147,3.767-0.457A21.611,21.611,0,0,1,101.837,65Zm33.217,4.416a12.4,12.4,0,0,1-.769,3.122c-0.273.9-.282,1.791-0.615,2.589a11.266,11.266,0,0,1-2.845.076H124.75a1.078,1.078,0,0,1-.076-0.3,3.966,3.966,0,0,0,.23-0.99c0.331-1.078.6-2.344,0.923-3.426a3.381,3.381,0,0,1,.231-0.99,7.026,7.026,0,0,1,2.46-.076h6.536Zm14.455,0a8.76,8.76,0,0,1-.615,2.513c-0.423,1.373-.5,2.662-0.923,4.036a15.63,15.63,0,0,0-.769,2.969h10.3a1.173,1.173,0,0,1,.077.381,6.61,6.61,0,0,0-.384,1.675c-0.381,1.3-.7,2.8-1.077,4.112q-0.115.647-.23,1.294c-0.156.257-2.029,0.152-2.538,0.152h-7.766v0.076h-0.076a21.59,21.59,0,0,1-1.077,4.264c-0.244.8-.222,1.461-0.461,2.284-0.551,1.9-1.046,3.982-1.538,5.939a4.994,4.994,0,0,0,0,1.979,10.425,10.425,0,0,0,.308,1.675c0.5,1.243,2.032,1.508,3.536,1.828a4.8,4.8,0,0,0,1.615.076,25.558,25.558,0,0,1,3.691-.914v0.076a7.976,7.976,0,0,0-.385,1.752c-0.4,1.317-.693,2.87-1.076,4.188-0.218.75,0.049,1.8-.923,1.827-0.682.521-3.8,0.609-5.151,0.609-5.2,0-8.985-1.3-10.38-5.025-1.238-3.308-.411-8.264.461-11.269,0.372-1.282.392-2.446,0.769-3.731,1.141-3.89,1.752-8.141,2.922-12.03,0.657-2.186.906-4.446,1.537-6.548,0.241-.8.141-1.987,0.615-2.589,0.7-.432,2.3-0.307,3.23-0.533,1.161-.284,2.438-0.3,3.691-0.609A14.927,14.927,0,0,1,149.509,69.416Zm98.418,9.746H257a9.658,9.658,0,0,1-.615,2.056c-0.434,1.374-.682,2.777-1.077,4.112-0.19.646-.116,1.106-0.307,1.751-1,3.388-1.58,7.122-2.614,10.508-0.383,1.251-.4,2.394-0.769,3.655-1.664,5.631-2.309,12.193-5.229,16.6a16.151,16.151,0,0,1-8.611,6.243,23.16,23.16,0,0,1-7.151.914h-2.922a3.859,3.859,0,0,0-1-.152,6.5,6.5,0,0,1,.461-2.056c0.24-.789.218-1.489,0.461-2.284a16.521,16.521,0,0,0,.769-3.046c5.227,0.26,8.109-.008,10.3-3.274a5.474,5.474,0,0,0,1.154-2.741c-1.936.167-4.365,1.036-6.69,0.533-0.956-.207-1.8.012-2.691-0.229-2.321-.625-4.363-1.525-5.536-3.274-1.379-2.056-1.8-6.857-1-10.051,0.72-2.867,1.311-5.888,2.153-8.68,0.437-1.452.482-2.813,0.922-4.264,0.434-1.431.631-2.964,1.077-4.492a8.292,8.292,0,0,0,.461-1.9,8.1,8.1,0,0,1,2.768-.152h6.459a1.074,1.074,0,0,1,.077.3,7.117,7.117,0,0,0-.385,1.675c-0.507,1.658-.718,3.423-1.23,5.178-1.3,4.46-2.324,9.07-3.383,13.706a3.885,3.885,0,0,0,.154,1.675,6.307,6.307,0,0,0,.307,1.447c0.58,1.09,3.449,2.22,5.613,1.751a25.216,25.216,0,0,0,3-.609,10.56,10.56,0,0,1,.615-2.132c0.348-1.03.487-2.151,0.769-3.122,0.188-.648.117-1.1,0.307-1.751,0.748-2.542,1.261-5.371,2-7.919,0.188-.648.118-1.1,0.308-1.751,0.542-1.85.8-3.864,1.384-5.787A13.217,13.217,0,0,0,247.927,79.162Zm-124.1,0h6.151a11.545,11.545,0,0,1,2.922.076c-0.818,2.25-.991,4.712-1.692,7.081-1.612,5.447-2.5,11.314-4.152,16.751-0.711,2.339-1,4.754-1.691,7a8.747,8.747,0,0,1-.539,2.284,7.011,7.011,0,0,1-2.46.077h-6.536a12.1,12.1,0,0,1,.769-3.122c0.583-1.895.847-3.89,1.384-5.711,0.25-.847.211-1.514,0.462-2.36,0.931-3.147,1.5-6.608,2.46-9.746,0.255-.833.214-1.521,0.461-2.361,0.537-1.823.806-3.81,1.384-5.711A30.176,30.176,0,0,0,123.828,79.162Zm99.341,0a10.68,10.68,0,0,1-.615,2.665c-0.476,1.6-.634,3.263-1.077,4.8-0.374,1.295-.4,2.512-0.769,3.807-0.945,3.3-1.485,6.781-2.306,10.2a14.148,14.148,0,0,0,0,3.807c0.169,0.732-.018,1.305.153,1.979a39.875,39.875,0,0,0,1.077,4.188,8.841,8.841,0,0,1,.692,1.828h-8.766c-0.5-.266-0.976-2.441-1.23-3.122h-0.154a6.468,6.468,0,0,1-2.46,1.523A13.272,13.272,0,0,1,197.8,111.9a10.183,10.183,0,0,1-6.612-6.7c-0.289-.846-0.238-1.571-0.462-2.513a14.607,14.607,0,0,1-.307-4.644c0.522-2.364.612-4.509,1.384-6.548,2.147-5.677,7.6-10.335,13.84-12.031,1.787-.486,4.13-0.3,6.305-0.3h11.226Zm-58.744,33.122a15.438,15.438,0,0,1-.922,3.5c-0.241.774-.223,1.433-0.462,2.208-0.512,1.659-.967,3.453-1.384,5.178h-9a17.619,17.619,0,0,1,1-4.188c0.252-.826.208-1.536,0.461-2.361,0.458-1.491.792-3.225,1.23-4.72,0.494-1.685.565-3.279,1.077-4.95,1.555-5.079,2.356-10.592,3.844-15.685,0.189-.647.118-1.1,0.308-1.751,0.631-2.147,1.073-4.539,1.691-6.7,0.261-.911.341-2.8,0.846-3.426,0.435-.267,2.749-0.076,3.46-0.076h9a5.241,5.241,0,0,0,1.154.076l3.075,0.533a11.108,11.108,0,0,1,6.613,5.178,17.26,17.26,0,0,1,1.537,3.959c0.7,2.67.164,6.536-.461,8.756-0.26.926-.3,1.7-0.615,2.589a15.649,15.649,0,0,1-1.538,2.817,41.931,41.931,0,0,1-2.383,3.5,4.474,4.474,0,0,1-.923.761c-0.732.548-1.384,1.3-2.153,1.828a22.17,22.17,0,0,1-6.228,2.741,18.051,18.051,0,0,1-5.69.609A19.316,19.316,0,0,0,164.425,112.284ZM100.761,86.7a6.416,6.416,0,0,1-1.153.076c-0.97.243-2.942,0.774-3,1.827A4.7,4.7,0,0,0,96.3,89.9c-0.373,1.207-.526,2.513-0.923,3.807-1.069,3.494-1.9,7.262-2.691,10.888a1.573,1.573,0,0,0,.846.152,4.979,4.979,0,0,0,1.153.152,7.252,7.252,0,0,0,4.767-.761c3.152-1.4,5.288-4.732,6.228-8.3,0.626-2.377.158-7.127-1.23-8.147A6.475,6.475,0,0,0,100.761,86.7Zm69.892,0a0.889,0.889,0,0,1-.23.152,19.391,19.391,0,0,1-1.077,4.188c-0.826,2.716-1.16,5.43-2,8.147-0.346,1.12-.547,2.362-0.923,3.578a6.721,6.721,0,0,0-.461,1.9h0.077v0.076a17.7,17.7,0,0,0,4.69,0,10.3,10.3,0,0,0,7.074-5.1c1.533-3.037,2.7-9.77-.461-12.031C175.868,86.561,173.219,86.684,170.653,86.7Zm40.367,0a4.468,4.468,0,0,1-1.614.076,8.3,8.3,0,0,0-2.692.3c-3,1.02-5.511,4.4-6.612,7.31-0.966,2.555-.892,8.361,1,9.746a5.806,5.806,0,0,0,2.461.685,5.207,5.207,0,0,0,2.46-.228,9.3,9.3,0,0,0,3.153-2.208,23.173,23.173,0,0,1,1.23-7.005c0.547-1.773.687-3.48,1.23-5.254a16.352,16.352,0,0,0,.846-3.35A0.225,0.225,0,0,1,212.4,86.7H211.02Z"/>
</svg>
