<?xml version="1.0" standalone="no"?>
<!DOCTYPE svg PUBLIC "-//W3C//DTD SVG 20010904//EN"
 "http://www.w3.org/TR/2001/REC-SVG-20010904/DTD/svg10.dtd">
<svg version="1.0" xmlns="http://www.w3.org/2000/svg"
 width="1200.000000pt" height="660.000000pt" viewBox="0 0 1200.000000 660.000000"
 preserveAspectRatio="xMidYMid meet">
<metadata>
Created by potrace 1.13, written by Peter Selinger 2001-2015
</metadata>
<g transform="translate(0.000000,660.000000) scale(0.100000,-0.100000)"
fill="#000000" stroke="none">
<path d="M1388 5177 c-147 -23 -272 -47 -277 -52 -9 -9 -25 -72 -62 -250 -13
-66 -76 -333 -174 -745 -24 -102 -92 -390 -150 -640 -94 -399 -193 -812 -255
-1064 -11 -44 -20 -86 -20 -93 0 -33 158 -93 365 -140 93 -22 143 -26 326 -30
253 -6 361 7 525 62 328 109 560 314 727 639 68 130 132 339 136 441 1 32 4
62 7 67 8 13 5 221 -5 298 -10 85 -36 190 -57 237 -8 17 -14 34 -14 37 0 4
-18 35 -41 71 -41 66 -135 160 -198 199 -97 60 -244 98 -386 98 -88 0 -114 -4
-213 -36 -142 -45 -143 -45 -135 -3 3 17 9 39 13 47 4 8 10 33 14 55 4 22 27
117 51 210 24 94 53 208 65 255 12 47 26 101 31 120 20 69 31 116 36 153 3 20
9 40 14 43 5 3 9 18 9 35 0 26 -3 29 -32 28 -18 0 -153 -20 -300 -42z m417
-1381 c67 -32 99 -68 131 -151 25 -64 28 -82 28 -210 1 -173 -9 -217 -85 -370
-68 -137 -134 -225 -217 -290 -102 -81 -296 -139 -387 -116 -24 6 -62 11 -85
11 -64 0 -64 -11 10 295 95 391 132 546 141 590 6 28 15 64 20 81 5 17 9 38 9
48 0 24 27 61 58 82 59 39 115 52 222 53 91 1 112 -2 155 -23z"/>
<path d="M3243 4943 c-7 -2 -13 -18 -13 -33 0 -16 -4 -31 -9 -34 -5 -3 -11
-23 -14 -43 -3 -21 -10 -56 -15 -78 -27 -105 -41 -178 -36 -186 3 -5 133 -9
289 -9 320 0 287 -9 310 90 7 30 25 103 40 161 16 58 26 113 22 122 -6 15 -34
17 -284 16 -153 0 -284 -3 -290 -6z"/>
<path d="M4690 4940 c-19 -4 -147 -26 -285 -49 -137 -23 -259 -46 -271 -51
-16 -6 -24 -26 -38 -92 -18 -83 -68 -307 -86 -383 -5 -22 -19 -83 -30 -135
-12 -52 -25 -111 -30 -130 -4 -19 -18 -80 -30 -135 -12 -55 -26 -110 -31 -123
-5 -13 -9 -31 -9 -42 0 -16 -26 -133 -85 -375 -94 -393 -105 -457 -105 -630 0
-284 76 -438 260 -528 94 -46 164 -64 304 -78 171 -17 454 12 486 49 8 10 28
74 43 143 16 68 41 175 56 237 15 62 24 115 20 118 -11 6 -121 -21 -150 -37
-16 -10 -59 -14 -134 -14 -94 0 -118 4 -163 24 -71 32 -107 76 -122 148 -19
91 -7 176 69 488 40 160 81 331 93 380 12 50 26 95 30 100 6 6 128 10 330 10
l321 0 33 140 c19 77 45 185 59 239 13 54 22 103 19 107 -3 5 -149 9 -324 9
-181 0 -321 4 -324 9 -4 5 9 67 28 138 95 360 117 455 110 462 -5 4 -25 5 -44
1z"/>
<path d="M9730 4305 c-5 -14 -19 -71 -30 -127 -12 -56 -41 -185 -65 -287 -25
-102 -52 -217 -60 -256 -9 -38 -20 -86 -25 -105 -5 -19 -19 -78 -31 -130 -25
-112 -37 -164 -49 -205 -5 -16 -15 -73 -24 -125 -45 -287 -22 -520 66 -648 54
-79 169 -154 288 -187 81 -23 439 -31 545 -12 97 17 106 15 95 -24 -38 -133
-172 -274 -300 -316 -81 -27 -159 -35 -288 -32 l-135 4 -22 -90 c-12 -49 -30
-121 -39 -160 -10 -38 -21 -86 -26 -105 -4 -19 -13 -50 -18 -67 -19 -60 -7
-63 216 -63 217 0 286 8 442 46 313 77 553 280 679 571 65 150 97 264 202 703
55 234 102 434 103 445 6 44 217 901 255 1035 12 41 25 92 28 113 l6 37 -294
-2 -293 -3 -47 -200 c-25 -110 -65 -283 -88 -385 -23 -102 -60 -261 -82 -355
-22 -93 -52 -219 -66 -280 -53 -231 -76 -319 -89 -350 -14 -34 -11 -32 -147
-64 -121 -28 -273 0 -354 66 -32 27 -46 47 -58 88 -30 105 -25 139 131 764
167 676 174 703 174 719 0 9 -74 12 -295 12 l-295 0 -10 -25z"/>
<path d="M3095 4308 c-2 -7 -20 -87 -40 -178 -20 -91 -49 -219 -65 -285 -16
-66 -42 -176 -59 -245 -16 -69 -39 -168 -51 -220 -33 -143 -34 -149 -70 -287
-5 -21 -23 -96 -40 -168 -17 -71 -34 -143 -39 -160 -5 -16 -19 -70 -31 -120
-11 -49 -32 -132 -46 -184 -30 -112 -54 -214 -61 -259 l-5 -32 292 2 293 3 49
210 c27 116 58 251 69 300 30 133 70 301 135 565 31 129 60 253 65 275 7 39
30 138 51 220 5 22 14 57 19 78 5 20 13 54 19 75 63 248 99 405 94 413 -3 5
-128 9 -290 9 -219 0 -286 -3 -289 -12z"/>
<path d="M8400 4309 c-175 -15 -348 -79 -500 -185 -262 -182 -441 -420 -518
-689 -45 -156 -54 -216 -59 -399 -6 -216 24 -380 100 -531 42 -84 171 -212
257 -253 143 -70 348 -98 492 -69 99 21 257 87 331 138 31 22 62 39 68 37 6
-2 20 -33 32 -69 12 -36 30 -77 40 -92 l17 -27 275 0 c150 0 276 4 279 9 3 5
-9 51 -28 102 -78 218 -100 348 -93 549 6 138 12 191 36 288 21 83 31 127 37
162 3 19 9 44 14 55 5 11 11 36 14 55 3 19 11 55 16 80 6 25 13 57 15 72 3 15
14 66 25 113 25 105 57 245 70 305 6 25 24 101 41 170 17 69 33 140 35 158 l4
32 -452 -1 c-249 -1 -496 -5 -548 -10z m312 -495 c3 -3 -29 -146 -73 -317 -98
-390 -94 -374 -121 -542 -24 -153 -25 -154 -110 -213 -81 -56 -131 -72 -221
-72 -108 0 -154 14 -197 59 -63 67 -107 247 -94 391 6 75 30 193 44 218 5 9
23 46 40 82 47 94 92 159 164 233 79 81 125 112 213 142 59 21 88 24 209 24
77 1 143 -2 146 -5z"/>
<path d="M5579 4298 c-1 -2 -3 -12 -4 -23 -2 -22 -49 -225 -119 -520 -24 -99
-51 -214 -60 -255 -9 -41 -26 -112 -36 -157 -25 -106 -47 -199 -106 -448 -71
-302 -187 -784 -280 -1160 -58 -237 -60 -251 -41 -258 20 -7 561 5 570 13 7 6
49 172 143 563 18 73 34 122 44 127 8 4 38 3 65 -2 100 -19 269 -21 373 -4
333 52 628 225 798 468 98 140 166 284 202 433 110 456 49 780 -192 1021 -93
92 -178 139 -316 175 -81 22 -108 23 -562 26 -263 3 -479 3 -479 1z m818 -491
c114 -34 192 -142 212 -292 12 -85 3 -239 -19 -330 -19 -81 -104 -246 -155
-303 -26 -29 -86 -78 -134 -110 -121 -81 -182 -97 -376 -97 l-150 0 1 25 c2
24 83 348 104 414 5 17 30 112 54 211 67 272 117 469 121 483 6 17 284 16 342
-1z"/>
</g>
</svg>
