<svg id="SVG" xmlns="http://www.w3.org/2000/svg" width="700" height="700" viewBox="0 0 700 700">
  <defs>
    <style>
      .cls-1 {
        fill-rule: evenodd;
      }
    </style>
  </defs>
  <path id="Bitvoin_B" data-name="Bitvoin B" class="cls-1" d="M342.522,150.262c5.476-.072,12.587-0.725,17.35.4h3.589c1.961,0.44,4.883.364,6.781,0.8h1.994c3.069,0.711,6.892.862,9.772,1.595,2.2,0.56,4.022.229,6.182,0.8,12.165,3.2,24.16,5.777,34.7,10.373,2,0.873,3.871,1.045,5.784,1.994,11.811,5.862,23.532,11.286,33.9,18.551,34.075,23.872,59.636,55.272,75.384,97.541,3.154,8.467,5.377,17.818,7.977,27.128,0.377,1.351.047,2.231,0.4,3.59,1.386,5.37,1.5,11.791,2.792,17.554q0.2,3.889.4,7.779c0.225,1.052-.077,2.887.2,4.189a39.168,39.168,0,0,1,.2,6.981c0,3.79.307,8.17-.4,11.37v3.591q-0.8,7.38-1.595,14.761c-0.711,2.884-.755,6.388-1.6,9.375-0.937,3.326-1.318,7.072-2.394,10.572-2.507,8.159-4.835,16.527-7.977,23.936q-0.8,2.394-1.6,4.787c-5.958,12.012-11.362,23.967-18.746,34.509a206.753,206.753,0,0,1-71.993,64.428c-10.319,5.57-21.688,9.734-33.3,13.963l-4.986,1.2c-7.339,2.408-15.695,3.542-23.732,5.585-2.925.744-6.062,0.565-8.775,1.2-4.813,1.122-10.244.146-14.957,1.2H349.1c-6.356,0-13.748.036-19.145-1.2-1.946-.444-3.419.063-5.385-0.4-4.091-.961-8.373-0.89-12.564-1.994-15.52-4.09-30.344-7.543-43.275-13.963-1.448-.719-2.72-0.949-4.188-1.6-1.666-.734-3.425-1.949-4.986-2.793-8.187-4.421-15.979-8.4-23.333-13.564-23.387-16.436-42.337-37.1-57.634-61.636-4.9-7.855-8.574-16.639-12.764-25.133-0.626-1.271-.676-2.455-1.2-3.79-1.841-4.723-3.927-9.96-5.584-14.96l-1.2-4.987c-2.259-6.89-3.278-14.838-5.185-22.341-0.743-2.925-.564-6.063-1.2-8.776-0.667-2.863-.2-6.114-0.8-8.777V360.1c-0.876-4.091-.928-15.694,0-19.747v-3.591c0.965-4.307.645-9.277,1.595-13.364v-2c0.732-2.889.734-6.313,1.6-9.375,2.349-8.347,3.955-17.115,6.78-24.734,0.714-1.924.778-3.709,1.6-5.585,5.433-12.466,10.312-24.714,17.151-35.706,14.248-22.9,32.212-42.509,54.044-57.846,4.926-3.461,9.985-7.393,15.356-10.372A323.23,323.23,0,0,1,279.7,163.028c9.322-3.95,19.79-5.906,30.114-8.777,3.782-1.052,7.854-1.126,11.566-1.994,4.779-1.119,9.979-.533,14.758-1.6C338.175,150.208,340.985,151.23,342.522,150.262ZM282.694,457.845l21.936,5.385c0.306-3.149,1.56-6.481,2.394-9.375,1.542-5.354,2.424-10.826,3.988-15.957,0.79-2.592,1.287-8.585,2.593-10.373a1.342,1.342,0,0,1,.8-0.2c1.015,0.679,2.5.578,3.789,1,2.9,0.945,6.272,1.71,9.174,2.593,1.1,0.335,2.347.207,3.191,0.8a1.346,1.346,0,0,1,.2.8c-1.374,2.178-1.722,7.719-2.592,10.572-2.385,7.818-4.428,16.207-6.182,24.335l0.4,0.2c1.741,1.114,5.177,1.129,7.379,1.795,3.038,0.919,6.321,1.411,9.573,2.394a23.711,23.711,0,0,0,4.586,1.2v-0.2h0.2a51.773,51.773,0,0,1,2.393-9.176c1.635-5.34,2.425-10.826,3.989-15.957,0.846-2.778,1.206-5.592,1.994-8.178,0.274-.9.127-1.91,0.6-2.594a1.014,1.014,0,0,1,.6-0.2c1.621,1.13,5.884.857,8.177,1.4,3.044,0.716,6.8.71,9.971,1.4h3.191a35.926,35.926,0,0,0,12.564,0h2.991c3.371-.763,6.99-0.965,10.171-2,15.6-5.055,22.52-13.856,28.718-28.325a91.787,91.787,0,0,0,3.589-10.971l0.4-3.79c0.541-2.284,1.24-6.62.6-9.574-0.55-2.533-.584-5.193-1.4-7.58-1.877-5.518-5.958-12.18-10.17-15.359-2.673-2.017-5.3-4.2-8.177-5.984-1.117-.693-2.994-1-3.59-2.195a21.709,21.709,0,0,0,6.781-2.393c1.646-.815,3.116-1.08,4.587-1.995,6.377-3.967,10.754-10,13.76-17.354,0.852-2.085.954-4.047,1.6-6.383,1.424-5.185,2.1-13.482.4-19.149a41.3,41.3,0,0,0-16.153-22.141c-5.813-4.175-12.745-7.482-19.743-10.373-1.619-.668-7.232-1.927-7.579-3.391,1.2-1.658,1.326-5.553,2-7.779,1.857-6.179,3-13.017,4.985-19.149,0.612-1.885.848-3.889,1.4-5.585a7.829,7.829,0,0,0,.4-2.593c-0.709-1.13-3.358-.968-4.786-1.4-4.089-1.228-8.461-1.9-12.763-3.191-1-.3-3.342-1.34-4.188-1-1.324,1.605-1.484,6.249-2.194,8.578-1.777,5.832-3.026,12.314-4.786,18.151-0.5,1.647-1.127,7.352-2.194,7.979-0.733.265-3.171-.71-4.188-1-2.724-.769-5.055-0.821-7.778-1.6a23.6,23.6,0,0,0-4.985-1.2c-0.035-3.452,1.492-7.044,2.393-9.973,1.427-4.64,1.775-9.121,3.191-13.764a78.4,78.4,0,0,0,2.991-11.768l-21.937-5.386v0.2h-0.2a37.233,37.233,0,0,1-1.8,6.982c-1.229,4-1.831,8.165-2.991,11.968-1.7,5.567-2.043,11.57-4.188,16.756a153.85,153.85,0,0,1-18.348-4.588c-4.639-1.424-9.117-1.779-13.76-3.192-3.659-1.113-7.9-2.659-11.966-2.992v0.2h-0.2a28.544,28.544,0,0,1-1.4,5.385c-0.932,3.077-1.059,5.9-1.994,8.976a44.546,44.546,0,0,0-2.194,8.777l0.6,0.2c1.646,1.028,4.163.821,6.182,1.4,7.026,2,16.087,3.03,18.547,9.574,1.447,3.849.23,7.783-.8,11.171-1.3,4.277-1.945,8.658-3.19,12.766-1.4,4.623-1.783,9.112-3.191,13.763-4.562,15.064-7.194,31.179-11.766,46.277-1.613,5.326-2.438,10.8-3.989,15.958-1.038,3.452-1.24,6.547-3.789,8.378-2.349,1.687-5.813,1.433-8.775.6-2.62-.738-4.988-0.81-7.578-1.6a34.429,34.429,0,0,0-6.781-1.8c-2.546,5.805-5.049,11.634-7.578,17.554-0.976,2.285-2.918,4.872-3.191,7.579h0.2v0.2c3.488,0.161,7.958,1.867,11.168,2.792,6.695,1.931,13.5,3,19.942,4.987,2.84,0.874,5.716,1.386,8.376,2.194,1.384,0.421,2.954.244,3.989,1a1.725,1.725,0,0,1,.2,1c-1.4,1.953-1.938,8.373-2.792,11.17-1.406,4.609-2.127,9.539-3.589,14.362C284.174,450.881,282.825,454.341,282.694,457.845ZM349.3,286.7c14.259,2.668,34.361,7.861,41.481,17.354,0.7,0.933,1.762,1.768,2.393,2.793,2.69,4.369,3,12.155.8,17.354-2.251,5.323-6.714,8.862-12.365,10.771-2.3.776-4.372,0.444-6.98,1a23.191,23.191,0,0,1-7.578,0l-4.387-.2c-3.681-.853-7.439-0.993-11.168-2l-12.963-3.391a2.779,2.779,0,0,1-.2-0.8c1.381-2.083,1.736-7.574,2.592-10.372,2.2-7.2,3.589-15.124,5.783-22.341C347.72,293.55,347.758,289.591,349.3,286.7ZM332.75,352.525a90.338,90.338,0,0,1,9.572,2.393c2.161,0.654,4.026.529,6.182,1.2,12.576,3.9,25.393,7.409,33.5,15.758,3.493,3.6,4.965,5.713,6.382,11.569a10.484,10.484,0,0,1,.4,4.389c-1.309,5.867-2.524,11.145-6.581,14.162-10.1,7.516-28.506,6.927-42.477,3.192-4.747-1.269-9.231-1.786-13.561-3.192-1.645-.534-3.951-0.417-5.186-1.4a1.029,1.029,0,0,1-.2-0.6c0.57-.868.453-2.066,0.8-3.191,1.017-3.319,1.525-6.885,2.592-10.373,2.453-8.015,3.938-16.715,6.382-24.734C331.5,358.608,331.675,355.479,332.75,352.525Z"/>
</svg>
