<?xml version="1.0" standalone="no"?>
<!DOCTYPE svg PUBLIC "-//W3C//DTD SVG 20010904//EN"
 "http://www.w3.org/TR/2001/REC-SVG-20010904/DTD/svg10.dtd">
<svg version="1.0" xmlns="http://www.w3.org/2000/svg"
 width="1200.000000pt" height="660.000000pt" viewBox="0 0 1200.000000 660.000000"
 preserveAspectRatio="xMidYMid meet">
<metadata>
Created by potrace 1.13, written by Peter Selinger 2001-2015
</metadata>
<g transform="translate(0.000000,660.000000) scale(0.100000,-0.100000)"
fill="#000000" stroke="none">
<path d="M3615 4974 c-476 -341 -991 -874 -1298 -1341 -107 -164 -125 -194
-223 -382 -44 -85 -86 -157 -93 -159 -7 -2 -15 6 -18 19 -12 48 -114 236 -165
304 -71 96 -262 288 -283 283 -9 -1 -28 -31 -43 -64 -15 -34 -45 -88 -66 -120
-48 -73 -190 -214 -262 -260 -72 -46 -70 -60 9 -68 178 -20 369 -113 517 -253
116 -109 195 -217 309 -423 22 -41 40 -21 120 140 98 195 111 218 226 395 240
369 521 647 874 865 75 46 450 240 465 240 3 0 29 11 58 24 29 13 91 38 138
56 47 17 91 37 98 44 10 9 0 30 -48 100 -109 158 -157 274 -185 450 -8 50 -15
117 -15 149 0 74 -13 75 -115 1z"/>
<path d="M1927 4849 c-125 -11 -225 -33 -386 -86 -446 -146 -839 -525 -1008
-972 -113 -299 -135 -670 -58 -987 141 -584 595 -1051 1173 -1205 172 -45 456
-62 652 -39 347 42 678 206 935 464 145 146 236 271 315 431 130 267 174 454
174 740 0 216 -11 291 -76 495 -33 103 -99 253 -116 264 -18 11 -237 -105
-247 -131 -2 -8 6 -35 19 -61 39 -79 77 -205 106 -360 17 -91 12 -338 -9 -444
-56 -281 -180 -514 -376 -712 -203 -204 -472 -339 -760 -381 -411 -60 -814 72
-1119 365 -367 354 -501 858 -360 1355 58 203 178 401 343 566 267 265 574
392 951 392 224 0 405 -40 598 -134 57 -28 107 -49 111 -47 4 2 49 47 100 100
58 61 91 103 88 112 -10 26 -199 127 -322 173 -150 56 -292 88 -450 103 -121
11 -148 11 -278 -1z"/>
<path d="M5847 3843 c-9 -14 -2 -1398 6 -1410 9 -14 223 -19 244 -5 9 5 12
180 14 703 1 383 -1 701 -5 708 -8 12 -252 16 -259 4z"/>
<path d="M4805 3778 c-63 -5 -105 -14 -114 -23 -12 -12 -14 -115 -15 -660 -1
-356 2 -651 5 -657 12 -19 97 -27 285 -27 325 -1 484 45 603 175 62 68 86 133
85 234 0 133 -71 240 -195 298 -33 15 -59 32 -59 38 0 6 15 17 33 26 54 27
116 88 143 140 87 172 -12 366 -221 431 -113 36 -323 45 -550 25z m360 -189
c110 -20 158 -57 176 -136 12 -56 -6 -111 -52 -155 -53 -51 -123 -69 -247 -66
l-97 3 -3 164 c-2 108 1 168 8 177 20 23 124 30 215 13z m34 -560 c73 -15 138
-61 161 -112 34 -73 21 -176 -28 -230 -31 -34 -107 -65 -191 -77 -91 -14 -180
-8 -193 12 -9 16 -11 402 -1 411 10 11 197 8 252 -4z"/>
<path d="M8700 3778 c-53 -5 -101 -14 -108 -22 -10 -10 -13 -145 -12 -666 0
-360 4 -658 8 -662 5 -5 62 -7 128 -6 l119 3 5 250 5 250 145 6 c95 4 166 12
205 24 223 66 335 204 335 414 0 226 -125 362 -375 406 -89 16 -306 17 -455 3z
m425 -210 c149 -48 193 -250 80 -363 -53 -53 -115 -75 -231 -82 -143 -9 -135
-24 -132 235 l3 217 30 7 c43 10 203 1 250 -14z"/>
<path d="M7835 3416 c-139 -34 -262 -131 -323 -256 -62 -127 -77 -300 -35
-430 52 -167 206 -292 393 -321 159 -24 470 23 470 72 0 5 -7 40 -17 77 -15
64 -28 86 -44 76 -21 -13 -176 -34 -249 -34 -121 0 -207 29 -263 88 -30 31
-67 119 -60 140 4 9 79 12 332 12 241 0 330 3 339 12 8 8 12 45 12 101 0 240
-110 404 -308 459 -75 20 -173 22 -247 4z m201 -186 c59 -29 98 -90 99 -155
l0 -50 -210 0 -210 0 -3 23 c-4 27 29 96 66 136 61 65 175 85 258 46z"/>
<path d="M9880 3415 c-84 -17 -173 -51 -194 -73 -15 -17 -14 -23 5 -81 12 -34
27 -65 35 -68 7 -2 37 4 66 15 192 72 365 38 400 -79 15 -52 6 -60 -74 -65
-100 -6 -205 -24 -266 -45 -250 -86 -339 -340 -181 -514 69 -74 129 -99 244
-100 106 0 173 20 241 71 24 19 48 34 53 34 11 0 21 -25 21 -50 0 -11 9 -24
19 -30 22 -11 207 -14 214 -2 3 4 2 167 -2 362 -7 332 -9 359 -30 411 -58 150
-204 231 -410 228 -42 -1 -105 -7 -141 -14z m318 -605 c3 -103 -13 -140 -76
-185 -39 -27 -52 -30 -118 -30 -69 0 -75 2 -105 32 -26 26 -33 41 -37 85 -3
43 0 59 20 88 40 61 148 100 263 97 l50 -2 3 -85z"/>
<path d="M6362 3398 c-19 -19 -16 -633 3 -716 29 -122 84 -195 183 -244 62
-31 73 -33 167 -32 85 0 108 4 157 27 32 14 79 46 106 71 27 25 52 43 55 39 4
-3 7 -27 7 -53 0 -25 5 -51 12 -58 17 -17 202 -16 214 1 5 6 7 224 4 492 l-5
480 -116 3 c-93 2 -120 0 -132 -12 -13 -13 -14 -56 -9 -294 6 -329 1 -362 -62
-427 -95 -99 -237 -83 -301 35 l-30 55 -1 313 c0 262 -2 315 -15 323 -22 14
-223 11 -237 -3z"/>
<path d="M10572 3398 c-7 -9 23 -90 104 -283 166 -391 264 -635 264 -655 0
-28 -70 -124 -120 -165 -24 -20 -75 -51 -112 -68 -79 -36 -78 -35 -44 -152 23
-78 24 -80 57 -83 87 -7 263 102 349 216 50 68 164 283 213 402 14 36 54 139
88 230 33 91 67 180 75 198 8 17 20 47 28 65 50 114 107 271 104 285 -3 15
-21 17 -134 20 -97 2 -134 -1 -142 -10 -9 -11 -44 -120 -72 -223 -4 -16 -17
-57 -28 -90 -23 -68 -87 -286 -96 -327 -4 -16 -10 -28 -15 -28 -9 0 -12 7 -61
150 -18 52 -64 187 -103 300 -38 113 -74 211 -80 218 -7 8 -47 12 -137 12 -90
0 -131 -4 -138 -12z"/>
</g>
</svg>
