<?xml version="1.0" standalone="no"?>
<!DOCTYPE svg PUBLIC "-//W3C//DTD SVG 20010904//EN"
 "http://www.w3.org/TR/2001/REC-SVG-20010904/DTD/svg10.dtd">
<svg version="1.0" xmlns="http://www.w3.org/2000/svg"
 width="1200.000000pt" height="660.000000pt" viewBox="0 0 1200.000000 660.000000"
 preserveAspectRatio="xMidYMid meet">
<metadata>
Created by potrace 1.13, written by Peter Selinger 2001-2015
</metadata>
<g transform="translate(0.000000,660.000000) scale(0.100000,-0.100000)"
fill="#000000" stroke="none">
<path d="M806 5064 c-173 -42 -320 -181 -377 -355 l-24 -74 0 -1340 0 -1340
22 -70 c53 -168 178 -294 353 -357 l65 -23 1340 0 1340 0 70 22 c129 40 263
150 318 259 61 121 58 38 62 1491 3 1271 2 1331 -16 1401 -26 101 -63 166
-139 243 -66 67 -148 117 -225 138 -27 7 -478 12 -1385 15 -1152 4 -1353 3
-1404 -10z m1224 -409 c188 -51 408 -207 519 -369 37 -53 111 -196 111 -214 0
-7 4 -20 9 -30 19 -35 51 -186 51 -237 l0 -33 63 -7 c225 -23 422 -117 583
-280 161 -162 235 -315 264 -545 11 -80 10 -111 -4 -202 -60 -399 -290 -677
-656 -792 -131 -42 -251 -48 -851 -44 l-544 4 -88 27 c-49 15 -122 44 -162 64
-151 74 -312 245 -394 416 -76 160 -75 144 -79 782 -4 598 1 691 39 814 43
137 126 284 211 377 120 130 315 232 538 283 69 15 313 7 390 -14z"/>
<path d="M1680 4279 c-148 -39 -214 -74 -289 -155 -71 -75 -108 -147 -137
-264 -20 -81 -20 -1077 0 -1170 21 -97 33 -128 79 -200 55 -84 123 -132 242
-172 l70 -23 580 0 580 0 75 28 c178 66 286 181 341 367 18 60 18 254 0 300
-54 140 -110 219 -198 278 -65 43 -145 82 -169 82 -8 0 -25 5 -37 12 -13 7
-108 13 -252 17 l-230 6 -6 220 c-7 255 -11 278 -72 405 -58 122 -192 226
-341 265 -63 16 -181 18 -236 4z"/>
<path d="M10144 4266 c-3 -8 -6 -142 -7 -298 l-2 -283 -100 -2 c-55 -1 -108
-2 -117 -3 -16 0 -18 -14 -18 -149 0 -132 2 -150 17 -155 10 -4 58 -7 108 -6
49 1 96 1 103 1 9 -1 12 -123 12 -575 0 -343 4 -595 10 -626 30 -161 134 -264
306 -305 127 -31 302 -12 464 50 122 46 140 56 140 76 0 16 -12 66 -40 164 -5
17 -13 46 -18 65 -14 50 -23 70 -33 70 -4 0 -32 -10 -61 -21 -136 -55 -220
-62 -289 -26 -82 44 -79 16 -79 603 l-1 519 193 5 193 5 3 152 3 152 -27 7
c-15 4 -103 4 -195 0 l-169 -7 -2 298 -3 298 -193 3 c-160 2 -193 0 -198 -12z"/>
<path d="M11024 4245 c-10 -24 5 -35 46 -35 l39 0 3 -132 3 -133 25 0 25 0 3
133 3 132 44 0 c41 0 45 2 45 25 l0 25 -115 0 c-92 0 -117 -3 -121 -15z"/>
<path d="M11295 4248 c-5 -17 -19 -199 -19 -258 -1 -36 3 -45 18 -48 27 -6 33
11 41 112 l7 91 30 -90 c52 -161 71 -158 132 25 l25 75 1 -50 c2 -75 15 -154
28 -167 18 -18 42 10 42 51 0 20 -5 89 -12 154 l-12 117 -28 0 c-23 0 -31 -7
-45 -37 -25 -60 -31 -75 -46 -121 -22 -68 -24 -65 -93 141 -7 20 -62 24 -69 5z"/>
<path d="M4972 3709 c-213 -27 -401 -125 -551 -285 -117 -126 -193 -278 -228
-458 -21 -113 -14 -332 15 -439 88 -325 330 -569 647 -653 102 -27 378 -27
490 1 254 62 497 270 599 512 60 143 71 204 71 393 0 193 -10 249 -70 392
-158 374 -552 592 -973 537z m328 -380 c134 -64 224 -166 283 -322 29 -77 31
-90 31 -222 1 -112 -3 -151 -18 -195 -86 -252 -269 -400 -496 -400 -137 0
-247 47 -350 150 -114 113 -172 259 -172 434 0 117 22 209 73 307 67 128 165
217 291 265 55 21 77 24 173 21 103 -2 115 -4 185 -38z"/>
<path d="M6980 3705 c-324 -59 -576 -262 -695 -560 -49 -125 -68 -241 -62
-400 6 -162 26 -253 88 -383 67 -145 176 -274 304 -362 65 -45 197 -104 280
-126 100 -27 390 -27 490 0 326 86 570 336 656 671 31 120 33 330 5 450 -83
359 -344 624 -691 701 -99 22 -283 26 -375 9z m313 -356 c170 -57 300 -206
352 -404 21 -79 21 -251 0 -330 -53 -204 -200 -363 -380 -410 -188 -49 -404
28 -518 182 -249 340 -108 849 268 969 65 21 206 17 278 -7z"/>
<path d="M8838 3706 c-287 -51 -485 -216 -533 -443 -27 -127 -13 -248 38 -336
71 -120 205 -181 672 -306 239 -64 321 -105 351 -177 40 -96 -16 -216 -124
-262 -198 -85 -503 -35 -772 126 -52 31 -98 58 -101 60 -4 2 -17 -14 -30 -35
-12 -21 -50 -80 -83 -132 l-60 -94 33 -28 c45 -37 219 -122 316 -154 177 -59
254 -70 475 -69 181 0 214 2 285 22 244 68 407 225 444 426 31 172 -8 310
-118 408 -95 86 -219 136 -551 223 -379 99 -415 122 -415 262 0 63 3 76 30
114 119 169 507 151 785 -36 29 -20 56 -34 61 -33 14 5 159 217 159 232 0 28
-154 117 -297 172 -162 61 -410 87 -565 60z"/>
</g>
</svg>
