<?xml version="1.0" standalone="no"?>
<!DOCTYPE svg PUBLIC "-//W3C//DTD SVG 20010904//EN"
 "http://www.w3.org/TR/2001/REC-SVG-20010904/DTD/svg10.dtd">
<svg version="1.0" xmlns="http://www.w3.org/2000/svg"
 width="1200.000000pt" height="660.000000pt" viewBox="0 0 1200.000000 660.000000"
 preserveAspectRatio="xMidYMid meet">
<metadata>
Created by potrace 1.13, written by Peter Selinger 2001-2015
</metadata>
<g transform="translate(0.000000,660.000000) scale(0.100000,-0.100000)"
fill="#000000" stroke="none">
<path d="M437 5422 c-15 -16 -17 -53 -17 -309 0 -272 1 -291 19 -307 17 -16
45 -17 297 -13 194 2 286 7 302 16 l22 12 0 293 c0 271 -1 294 -18 309 -16 15
-52 17 -304 17 -263 0 -286 -1 -301 -18z"/>
<path d="M1626 5421 c-23 -26 -24 -592 -1 -611 11 -9 97 -12 360 -11 201 1
359 -2 378 -8 17 -5 58 -14 90 -20 72 -13 235 -93 316 -155 52 -40 191 -185
191 -199 0 -3 17 -34 38 -68 34 -56 63 -129 93 -234 4 -16 11 -73 15 -125 6
-88 1 -140 -25 -287 -10 -52 -65 -180 -102 -235 -10 -15 -28 -41 -39 -58 -31
-46 -25 -62 45 -118 129 -104 234 -255 286 -414 42 -128 43 -360 1 -483 -43
-126 -62 -168 -94 -208 -18 -23 -46 -61 -61 -84 -52 -76 -243 -219 -337 -252
-19 -7 -69 -22 -110 -34 -73 -21 -93 -22 -832 -24 l-757 -3 -17 26 c-16 24
-17 107 -11 1202 6 1059 6 1180 -9 1200 -15 22 -16 22 -303 22 -247 0 -290 -2
-301 -15 -17 -20 -18 -3039 -1 -3059 8 -9 373 -12 1746 -10 1077 1 1740 5
1746 11 6 6 10 807 9 2123 0 1890 -2 2116 -15 2130 -14 13 -144 15 -1149 17
-1072 2 -1135 1 -1150 -16z"/>
<path d="M8836 4837 c-49 -16 -46 -27 63 -209 24 -40 58 -95 76 -123 18 -27
49 -79 69 -115 20 -36 75 -128 123 -205 93 -151 94 -154 167 -277 115 -192
166 -277 205 -340 22 -37 41 -70 41 -74 0 -3 8 -18 19 -32 10 -15 28 -43 38
-62 11 -19 43 -71 70 -115 71 -113 135 -220 158 -263 19 -36 20 -53 17 -637
-3 -505 -1 -603 11 -619 13 -18 30 -19 312 -18 197 1 302 5 309 12 7 7 10 196
8 618 -3 599 -3 607 18 642 11 19 29 53 40 75 11 22 36 65 55 95 19 30 43 71
54 91 11 19 37 62 59 95 21 32 58 93 81 134 23 41 76 129 117 195 41 66 81
134 90 152 9 18 22 37 30 44 8 6 14 18 14 27 0 9 9 25 19 36 11 12 54 80 96
151 117 200 228 381 266 437 11 15 19 30 19 33 0 4 13 25 28 48 43 63 92 155
92 171 0 36 -21 38 -375 38 -390 -1 -372 2 -411 -81 -13 -28 -37 -71 -54 -95
-16 -25 -30 -47 -30 -49 0 -3 -31 -56 -68 -119 -38 -62 -95 -158 -127 -213
-32 -55 -92 -158 -135 -230 -42 -71 -98 -167 -125 -212 -63 -110 -71 -115
-101 -78 -13 17 -24 33 -24 38 0 4 -11 24 -24 45 -13 20 -48 80 -78 132 -30
52 -76 131 -102 176 -26 44 -55 95 -64 113 -16 29 -56 98 -222 381 -37 63 -71
125 -74 137 -4 11 -18 29 -32 38 -23 15 -66 17 -360 18 -184 1 -345 -2 -358
-6z"/>
<path d="M4521 4827 c-8 -10 -12 -434 -13 -1529 -3 -1272 -1 -1518 11 -1531
12 -15 46 -17 301 -17 269 0 288 1 304 19 16 17 17 61 10 624 -6 486 -5 609 6
622 11 13 61 15 376 15 329 0 374 2 462 21 114 24 304 111 367 168 22 20 49
43 61 51 52 38 147 169 198 275 59 122 70 158 86 293 37 297 -99 623 -337 809
-64 50 -145 103 -157 103 -4 0 -28 10 -54 22 -54 24 -87 33 -192 53 -108 21
-1412 22 -1429 2z m1371 -634 c61 -22 136 -93 169 -160 18 -37 23 -64 23 -118
-1 -70 -2 -72 -61 -180 -16 -29 -26 -37 -95 -74 l-56 -31 -370 0 -370 0 -7 71
c-7 69 3 487 12 502 2 4 162 7 355 7 308 0 356 -2 400 -17z"/>
<path d="M7480 4808 c-11 -18 -25 -51 -30 -73 -6 -22 -15 -49 -21 -59 -13 -22
-103 -258 -125 -325 -8 -24 -18 -49 -23 -55 -4 -6 -18 -38 -29 -71 -11 -33
-38 -105 -60 -160 -22 -55 -49 -127 -60 -161 -11 -33 -32 -85 -46 -116 -14
-30 -26 -60 -26 -67 0 -6 -4 -19 -9 -29 -11 -21 -25 -55 -46 -112 -9 -25 -23
-61 -32 -80 -24 -55 -30 -70 -58 -145 -14 -38 -32 -85 -40 -103 -8 -18 -15
-37 -15 -42 0 -5 -13 -37 -29 -72 -16 -35 -34 -79 -41 -98 -7 -19 -21 -54 -31
-77 -11 -24 -19 -47 -19 -53 0 -6 -4 -18 -9 -28 -17 -30 -48 -105 -76 -182
-16 -41 -45 -115 -65 -165 -21 -49 -48 -119 -60 -155 -13 -36 -27 -69 -31 -75
-4 -5 -28 -64 -53 -130 -26 -66 -58 -143 -71 -172 -14 -28 -25 -56 -25 -61 0
-5 -13 -42 -30 -81 -24 -60 -27 -76 -17 -92 6 -10 19 -19 27 -20 8 0 148 0
311 0 228 0 302 3 318 13 12 7 21 16 21 21 0 4 9 26 19 50 10 23 26 62 34 87
27 80 47 134 68 178 11 24 27 64 35 90 8 26 22 61 30 79 8 17 14 36 14 42 0 6
4 19 9 29 5 9 15 32 21 50 l12 32 578 0 c662 0 592 12 635 -110 15 -41 36 -94
46 -117 11 -24 19 -47 19 -53 0 -6 4 -18 9 -28 18 -33 51 -121 51 -134 0 -7 6
-24 13 -38 7 -14 24 -55 37 -93 13 -37 31 -74 39 -81 13 -12 80 -15 343 -17
302 -3 329 -1 347 15 17 15 18 22 9 49 -6 18 -17 41 -24 52 -12 19 -45 106
-65 170 -5 16 -15 43 -23 60 -24 51 -47 107 -73 180 -14 39 -29 75 -33 80 -5
6 -29 64 -53 130 -25 66 -61 154 -80 195 -19 41 -46 109 -59 150 -14 41 -40
104 -57 139 -17 36 -31 69 -31 75 0 5 -8 28 -18 50 -10 23 -28 66 -39 96 -33
87 -74 191 -88 225 -7 16 -20 46 -28 65 -9 19 -23 58 -32 85 -10 28 -25 68
-35 90 -43 97 -133 323 -139 350 -4 17 -15 46 -23 65 -9 19 -32 76 -53 125
-20 50 -43 105 -51 123 -7 18 -14 38 -14 45 0 8 -11 35 -24 63 -12 27 -31 72
-41 99 -9 28 -21 59 -25 70 -40 101 -70 182 -70 191 0 6 -10 20 -23 32 -23 22
-29 22 -335 22 l-312 0 -20 -32z m350 -948 c4 -8 12 -25 18 -37 7 -13 12 -27
12 -33 0 -6 9 -29 19 -53 29 -62 101 -241 101 -250 0 -4 8 -26 19 -50 10 -23
38 -91 61 -152 23 -60 50 -129 61 -153 46 -102 42 -103 -330 -100 -353 3 -338
-1 -301 94 34 89 36 94 65 169 15 39 33 84 40 100 7 17 24 59 38 95 48 125
148 373 153 382 8 13 36 6 44 -12z"/>
<path d="M1632 4225 l-22 -16 6 -917 c5 -751 9 -919 20 -928 9 -7 149 -9 456
-7 497 4 500 4 589 75 29 22 60 58 71 82 11 22 26 52 34 66 9 16 14 56 14 116
0 77 -4 101 -26 150 -32 74 -82 127 -159 167 l-60 32 -230 5 -230 5 -3 247
c-2 203 0 249 12 261 9 9 47 16 108 20 102 8 164 27 220 70 138 107 166 285
69 439 -39 61 -108 111 -178 130 -21 5 -180 12 -353 15 -280 4 -317 3 -338
-12z"/>
</g>
</svg>
