<?xml version="1.0" standalone="no"?>
<!DOCTYPE svg PUBLIC "-//W3C//DTD SVG 20010904//EN"
 "http://www.w3.org/TR/2001/REC-SVG-20010904/DTD/svg10.dtd">
<svg version="1.0" xmlns="http://www.w3.org/2000/svg"
 width="1200.000000pt" height="660.000000pt" viewBox="0 0 1200.000000 660.000000"
 preserveAspectRatio="xMidYMid meet">
<metadata>
Created by potrace 1.13, written by Peter Selinger 2001-2015
</metadata>
<g transform="translate(0.000000,660.000000) scale(0.100000,-0.100000)"
fill="#000000" stroke="none">
<path d="M4665 4587 c-3 -7 -4 -78 -3 -157 l3 -145 118 -3 118 -3 -3 158 -3
158 -113 3 c-86 2 -114 0 -117 -11z"/>
<path d="M454 4437 c-3 -8 -4 -54 -2 -103 l3 -89 73 -3 72 -3 0 -454 0 -454
-72 -3 -73 -3 0 -100 0 -100 385 0 c420 0 444 3 557 58 108 51 172 140 191
261 23 143 -51 275 -189 337 -52 24 -60 36 -31 46 9 3 38 26 65 52 123 119
118 324 -12 452 -107 105 -178 118 -639 119 -259 0 -324 -3 -328 -13z m753
-224 c140 -75 115 -259 -42 -302 -22 -6 -109 -11 -192 -11 l-153 0 0 171 0
171 173 -4 c155 -3 176 -5 214 -25z m-15 -524 c111 -23 169 -77 176 -165 6
-75 -24 -126 -97 -162 -54 -26 -62 -27 -253 -30 l-198 -4 0 180 c0 98 3 182 7
185 11 11 308 8 365 -4z"/>
<path d="M7017 4444 c-4 -4 -7 -83 -7 -176 l0 -168 -115 0 c-136 0 -132 3
-127 -117 l4 -83 119 0 119 0 0 -201 c0 -304 22 -399 113 -489 166 -166 492
-158 686 16 28 25 51 49 51 52 0 9 -125 142 -134 142 -3 0 -30 -20 -60 -44
-73 -59 -133 -81 -226 -81 -64 0 -82 4 -124 29 -81 48 -87 71 -84 343 l3 228
230 5 230 5 0 95 0 95 -232 3 -233 2 -2 173 -3 172 -101 3 c-55 1 -103 0 -107
-4z"/>
<path d="M2402 4111 c-69 -26 -109 -51 -157 -101 l-40 -41 -5 63 -5 63 -174 3
c-119 2 -178 -1 -187 -9 -15 -12 -20 -154 -6 -176 4 -7 38 -13 82 -15 l75 -3
3 -282 2 -282 -102 -3 -103 -3 -6 -90 c-3 -49 -4 -96 -1 -103 3 -10 85 -12
381 -10 l376 3 0 100 0 100 -167 3 -168 2 0 134 c0 207 22 285 103 367 49 50
122 85 194 94 71 9 132 -18 168 -75 28 -45 24 -44 110 -20 22 6 54 15 70 19
23 5 31 13 33 33 7 59 -82 174 -170 219 -62 33 -229 38 -306 10z"/>
<path d="M3321 4115 c-98 -28 -251 -119 -251 -151 0 -7 29 -44 64 -81 l64 -68
45 33 c159 114 378 106 441 -17 15 -29 24 -116 14 -127 -4 -3 -24 0 -45 7 -25
9 -91 14 -193 14 -139 0 -162 -2 -220 -24 -106 -39 -167 -87 -208 -166 -23
-43 -27 -63 -27 -135 0 -103 25 -162 97 -222 132 -112 398 -119 551 -14 46 32
47 32 47 4 0 -47 6 -49 186 -46 l169 3 0 100 0 100 -67 3 -68 3 0 243 c0 269
-6 306 -61 390 -39 58 -104 108 -179 137 -73 29 -277 37 -359 14z m281 -576
c95 -19 108 -27 101 -63 -9 -49 -29 -81 -73 -118 -71 -61 -215 -93 -305 -68
-141 40 -141 186 0 240 58 22 191 27 277 9z"/>
<path d="M6065 4121 c-56 -14 -122 -49 -163 -86 l-41 -36 -3 48 -3 48 -170 0
-170 0 -3 -89 c-2 -53 1 -93 8 -100 5 -5 28 -9 50 -7 85 6 80 25 80 -290 l0
-279 -64 0 c-42 0 -67 -5 -75 -14 -8 -9 -11 -46 -9 -103 l3 -88 251 -3 c196
-2 253 0 256 10 2 7 1 54 -2 103 l-5 90 -73 3 -74 3 4 192 c3 181 4 195 28
240 47 92 134 147 245 155 110 7 172 -31 204 -127 16 -50 15 -461 -1 -462 -7
0 -38 0 -69 1 -75 2 -81 -7 -77 -117 l3 -88 250 0 250 0 0 100 0 100 -67 3
-66 3 -4 267 c-5 302 -10 327 -82 409 -77 88 -164 124 -295 122 -47 -1 -99 -4
-116 -8z"/>
<path d="M8673 4115 c-63 -19 -124 -58 -171 -109 l-41 -45 -3 67 -3 67 -185 0
-185 0 0 -95 0 -95 80 -5 80 -5 3 -282 2 -283 -98 0 c-63 0 -102 -4 -110 -12
-16 -16 -16 -170 0 -186 17 -17 734 -17 744 0 9 14 8 174 -1 188 -4 7 -63 10
-163 9 l-157 -1 0 174 c0 165 1 175 26 228 37 79 81 125 152 160 87 42 159 48
216 18 30 -15 51 -36 64 -60 10 -21 24 -38 30 -38 16 0 179 49 185 55 9 9 -17
79 -47 126 -33 54 -95 99 -164 123 -58 19 -194 20 -254 1z"/>
<path d="M9675 4123 c-98 -20 -218 -87 -281 -154 -75 -81 -121 -191 -130 -312
-12 -170 32 -295 143 -407 78 -77 142 -113 251 -140 200 -51 435 -2 595 122
20 16 37 35 37 42 0 12 -120 136 -133 136 -4 0 -28 -15 -55 -34 -26 -19 -83
-47 -127 -61 -70 -24 -92 -27 -175 -23 -102 5 -160 26 -228 83 -41 34 -97 145
-80 157 7 4 194 8 414 8 312 0 403 3 407 13 5 15 -10 149 -24 202 -29 109
-109 224 -200 286 -89 60 -188 89 -301 88 -51 -1 -102 -3 -113 -6z m231 -212
c23 -11 60 -35 82 -56 43 -38 88 -117 77 -135 -4 -6 -105 -10 -286 -10 -245 0
-279 2 -279 15 0 17 32 80 52 105 23 29 84 70 124 84 58 22 180 20 230 -3z"/>
<path d="M10915 4123 c-105 -22 -226 -91 -290 -165 -128 -147 -160 -388 -76
-573 37 -80 140 -189 218 -228 158 -81 365 -89 556 -22 86 29 207 110 207 138
0 12 -119 147 -129 147 -5 0 -21 -11 -37 -25 -43 -38 -137 -82 -202 -96 -84
-17 -209 -6 -269 24 -62 32 -121 91 -145 145 -36 80 -58 76 393 69 l399 -7 12
25 c18 40 -13 204 -56 291 -92 186 -255 285 -465 283 -53 -1 -105 -3 -116 -6z
m245 -221 c25 -13 58 -36 73 -50 28 -26 82 -120 74 -128 -2 -2 -130 -7 -285
-11 -261 -6 -282 -5 -282 11 0 56 96 162 173 190 64 24 190 17 247 -12z"/>
<path d="M4387 4094 c-4 -4 -7 -49 -7 -101 0 -67 3 -93 13 -94 6 0 71 0 142 0
72 1 136 -2 143 -7 9 -6 12 -70 10 -283 l-3 -274 -195 -5 -195 -5 -3 -102 -3
-103 490 0 c437 0 490 2 495 16 11 29 7 169 -6 182 -8 8 -65 12 -190 12 l-178
0 -2 383 -3 382 -251 3 c-138 1 -253 -1 -257 -4z"/>
<path d="M6548 2813 c-14 -17 -24 -57 -48 -203 -5 -33 -14 -86 -20 -117 -5
-32 -14 -89 -20 -128 -6 -38 -16 -93 -22 -122 -15 -72 -5 -83 78 -83 82 0 95
14 111 118 7 46 18 81 27 88 9 6 54 14 100 17 157 11 227 70 257 215 17 80 6
128 -40 173 -49 50 -90 59 -262 59 -127 0 -148 -2 -161 -17z m263 -149 c42
-38 12 -117 -52 -134 -53 -15 -95 -10 -91 10 2 8 6 40 9 70 3 34 12 60 22 68
21 17 86 9 112 -14z"/>
<path d="M8236 2811 c-11 -12 -24 -62 -36 -142 -11 -68 -33 -203 -49 -299 -20
-120 -26 -180 -20 -192 8 -15 23 -18 78 -18 48 0 72 4 81 15 6 8 16 49 22 92
6 43 17 85 24 94 10 11 40 18 103 22 133 8 196 48 242 152 30 68 32 173 3 212
-52 70 -96 82 -290 83 -125 0 -143 -2 -158 -19z m258 -142 c29 -23 32 -40 15
-89 -8 -22 -22 -37 -45 -46 -36 -15 -100 -19 -107 -6 -10 16 15 137 31 150 24
18 76 14 106 -9z"/>
<path d="M9340 2815 c-12 -15 -26 -88 -70 -385 -11 -74 -26 -158 -32 -187 -15
-70 -4 -83 72 -83 68 0 85 14 93 80 3 25 10 72 16 105 5 33 15 92 21 130 6 39
15 95 20 125 27 170 30 203 19 216 -16 20 -123 19 -139 -1z"/>
<path d="M7122 2594 c-174 -86 -205 -346 -52 -424 51 -26 131 -26 189 0 40 18
46 19 61 5 11 -10 36 -15 72 -15 85 0 79 -12 128 293 16 99 18 132 9 143 -16
20 -132 19 -149 0 -10 -13 -16 -12 -43 5 -49 29 -148 26 -215 -7z m181 -116
c32 -16 46 -39 47 -71 1 -84 -95 -152 -163 -115 -33 17 -46 39 -47 76 0 85 93
148 163 110z"/>
<path d="M8812 2594 c-96 -48 -146 -130 -146 -244 -1 -87 15 -124 69 -166 50
-38 143 -45 210 -15 43 19 50 20 65 6 11 -10 37 -15 73 -15 68 0 84 17 97 107
16 108 30 198 39 253 13 79 4 90 -69 90 -33 0 -69 -5 -79 -12 -15 -9 -26 -8
-54 5 -54 26 -143 22 -205 -9z m200 -134 c26 -27 30 -36 24 -68 -7 -49 -33
-81 -79 -99 -67 -27 -127 7 -127 73 0 102 115 161 182 94z"/>
<path d="M9845 2605 c-60 -21 -95 -65 -95 -120 0 -56 23 -83 110 -128 75 -39
89 -71 49 -113 -28 -30 -93 -32 -150 -5 l-40 20 -10 -25 c-13 -37 -12 -40 21
-64 24 -17 46 -22 98 -22 112 -1 172 45 180 135 4 46 1 57 -22 84 -14 17 -52
43 -83 57 -90 42 -105 73 -50 106 41 25 57 25 112 -1 49 -23 65 -19 65 15 0
28 -23 49 -69 65 -43 14 -67 13 -116 -4z"/>
<path d="M6004 2602 c-6 -4 -28 -38 -49 -77 -79 -144 -145 -268 -157 -296 -7
-16 -16 -29 -20 -29 -5 0 -8 -9 -8 -20 0 -16 7 -20 33 -20 42 0 53 8 72 53
l15 37 89 0 89 0 6 -32 c3 -17 11 -37 17 -45 16 -18 58 -16 66 3 5 14 -20 141
-69 359 -7 28 -16 56 -21 63 -10 13 -46 16 -63 4z m26 -147 c0 -14 5 -45 12
-70 7 -24 9 -47 5 -51 -8 -8 -95 -9 -103 -2 -8 8 64 148 76 148 6 0 10 -11 10
-25z"/>
<path d="M7603 2603 c-20 -8 -16 -29 42 -205 30 -91 55 -173 55 -181 0 -8 -25
-50 -56 -93 -49 -68 -54 -80 -45 -101 9 -21 17 -23 74 -23 50 0 68 4 81 19 16
18 120 167 301 434 102 149 102 157 1 157 -73 0 -80 -6 -169 -138 -31 -45 -59
-83 -63 -83 -4 0 -20 41 -35 91 -35 118 -46 130 -118 129 -31 0 -62 -3 -68 -6z"/>
<path d="M10907 2582 c-22 -24 -21 -35 2 -56 16 -15 22 -15 40 -4 27 17 36 45
21 63 -17 20 -44 19 -63 -3z"/>
<path d="M11386 2488 c-148 -31 -199 -244 -79 -323 34 -23 129 -23 171 -1 56
29 53 93 -3 68 -62 -28 -155 -5 -155 39 0 18 8 19 108 19 121 0 132 5 132 61
0 102 -72 159 -174 137z m78 -84 c34 -34 20 -44 -59 -44 -41 0 -75 2 -75 5 0
2 12 16 27 30 32 29 83 34 107 9z"/>
<path d="M10150 2479 c-37 -15 -89 -69 -106 -108 -33 -78 -8 -173 55 -206 38
-19 133 -20 170 0 29 15 47 53 32 68 -5 5 -30 1 -56 -8 -28 -9 -60 -13 -77
-10 -26 6 -68 47 -68 66 0 5 53 10 118 11 l117 3 3 62 c3 56 0 65 -26 94 -24
27 -37 33 -83 35 -30 2 -65 -1 -79 -7z m108 -71 c7 -7 12 -20 12 -29 0 -14
-12 -18 -71 -21 -39 -2 -73 1 -77 6 -3 5 7 20 22 33 30 25 93 32 114 11z"/>
<path d="M11064 2471 c-63 -29 -95 -78 -101 -155 -5 -54 -2 -70 16 -99 30 -50
62 -67 121 -67 62 0 108 22 116 56 10 37 -8 49 -44 30 -39 -20 -81 -20 -110 0
-34 24 -31 103 6 144 34 40 96 51 135 25 26 -17 27 -16 38 8 6 14 9 33 6 42
-15 37 -116 46 -183 16z"/>
<path d="M10397 2473 c-2 -5 -10 -44 -16 -88 -7 -44 -17 -99 -22 -122 -15 -67
-12 -101 10 -108 10 -3 25 -3 33 0 15 6 38 86 38 135 0 62 39 120 81 120 16 0
32 7 38 17 7 14 11 9 21 -28 6 -24 15 -57 20 -74 4 -16 14 -59 21 -93 14 -67
33 -88 69 -77 11 4 43 50 77 113 114 214 115 217 58 210 -23 -3 -34 -17 -77
-98 -27 -52 -53 -98 -57 -102 -4 -5 -13 20 -20 55 -7 34 -19 80 -26 102 l-13
40 -61 3 c-33 2 -70 -2 -82 -8 -15 -9 -24 -9 -32 -1 -12 12 -54 15 -60 4z"/>
<path d="M10886 2472 c-5 -9 -16 -70 -35 -207 -5 -33 -12 -68 -16 -77 -8 -21
27 -42 55 -33 22 7 22 6 46 160 25 161 25 159 -13 163 -17 2 -34 -1 -37 -6z"/>
</g>
</svg>
