<?xml version="1.0" standalone="no"?>
<!DOCTYPE svg PUBLIC "-//W3C//DTD SVG 20010904//EN"
 "http://www.w3.org/TR/2001/REC-SVG-20010904/DTD/svg10.dtd">
<svg version="1.0" xmlns="http://www.w3.org/2000/svg"
 width="1200.000000pt" height="660.000000pt" viewBox="0 0 1200.000000 660.000000"
 preserveAspectRatio="xMidYMid meet">
<metadata>
Created by potrace 1.13, written by Peter Selinger 2001-2015
</metadata>
<g transform="translate(0.000000,660.000000) scale(0.100000,-0.100000)"
fill="#000000" stroke="none">
<path d="M1545 4676 c-11 -9 -28 -16 -37 -16 -9 0 -43 -23 -75 -51 -59 -51
-66 -65 -80 -162 -9 -62 21 -137 74 -191 26 -25 51 -46 57 -46 6 0 25 -8 41
-18 24 -14 53 -17 154 -16 l123 1 57 59 c100 104 124 193 77 290 -29 60 -92
122 -143 142 -56 22 -222 27 -248 8z"/>
<path d="M11254 3941 c-79 -36 -133 -136 -118 -219 17 -89 95 -159 189 -169
71 -7 134 22 181 86 30 41 34 53 34 112 0 59 -4 72 -32 115 -58 85 -163 116
-254 75z"/>
<path d="M4475 3929 c-94 -7 -242 -35 -310 -60 -49 -18 -186 -89 -245 -127
-30 -20 -89 -70 -131 -112 -122 -121 -202 -261 -251 -442 -20 -73 -22 -106
-22 -278 0 -182 2 -201 27 -283 57 -186 140 -322 268 -441 207 -192 440 -278
749 -279 149 0 224 12 357 54 90 29 90 29 70 170 -20 131 -33 179 -50 179 -7
0 -26 -9 -43 -19 -48 -29 -180 -69 -265 -80 -79 -11 -246 1 -280 20 -10 5 -26
9 -37 9 -10 0 -59 20 -108 44 -170 83 -283 221 -345 417 -27 87 -30 109 -28
215 2 162 30 268 99 384 70 115 166 202 290 261 75 36 232 69 325 69 114 0
269 -40 352 -91 36 -22 50 -19 63 16 13 34 40 200 40 245 0 36 -4 41 -37 58
-36 17 -64 26 -158 51 -22 5 -71 13 -110 16 -38 3 -81 7 -95 9 -14 1 -70 -1
-125 -5z"/>
<path d="M10377 3929 c-103 -12 -164 -29 -251 -73 -148 -73 -254 -206 -285
-354 -50 -239 56 -423 344 -599 11 -7 79 -44 150 -84 204 -113 293 -181 321
-247 22 -54 18 -148 -10 -207 -63 -134 -200 -189 -412 -166 -111 12 -190 36
-271 82 -30 17 -58 27 -62 23 -10 -12 -27 -87 -46 -199 -18 -106 -19 -105 78
-139 108 -40 219 -56 382 -56 131 0 159 3 234 26 119 36 204 86 282 164 101
102 149 224 149 380 0 145 -50 267 -152 369 -79 79 -171 141 -348 236 -221
120 -284 166 -321 237 -22 43 -24 89 -7 154 23 86 124 150 258 163 132 13 285
-11 389 -62 32 -16 48 8 56 82 3 31 10 72 15 92 6 20 10 53 10 73 0 33 -4 39
-37 53 -59 25 -142 42 -260 53 -59 5 -115 9 -123 9 -8 -1 -46 -5 -83 -10z"/>
<path d="M1405 3923 c-22 -2 -44 -8 -50 -13 -6 -5 -42 -12 -80 -16 -39 -4 -74
-10 -80 -14 -5 -5 -30 -13 -55 -20 -25 -6 -73 -25 -108 -41 -34 -16 -66 -29
-71 -29 -16 0 -122 -59 -158 -88 -113 -90 -243 -232 -243 -264 0 -8 -4 -18 -9
-24 -5 -5 -19 -38 -32 -74 -19 -54 -23 -86 -23 -190 -1 -133 1 -143 62 -270
35 -74 127 -189 151 -190 5 0 64 -49 101 -84 8 -8 29 -18 45 -22 17 -4 35 -10
40 -14 23 -18 145 -60 188 -66 26 -4 50 -11 53 -15 3 -5 32 -9 65 -9 46 0 67
5 90 22 64 47 63 46 71 363 7 310 14 414 29 429 5 6 9 17 9 27 0 47 151 179
206 179 11 0 33 9 49 20 20 13 47 20 81 20 27 0 55 5 61 11 21 21 426 -8 466
-34 12 -7 36 -17 52 -21 41 -10 125 -46 159 -68 88 -57 158 -109 197 -146 103
-96 119 -101 163 -53 17 19 18 25 6 68 -15 54 -58 143 -70 143 -4 0 -13 13
-19 28 -11 25 -102 120 -172 177 -53 44 -182 125 -207 131 -15 4 -36 12 -47
19 -28 17 -148 65 -164 65 -6 0 -22 6 -34 14 -12 8 -49 17 -82 21 -33 4 -66
12 -74 18 -14 12 -480 20 -566 10z"/>
<path d="M7905 3719 c-27 -11 -59 -23 -70 -28 -11 -5 -39 -15 -63 -22 -24 -7
-48 -21 -53 -31 -6 -10 -9 -67 -7 -126 l3 -107 -92 -5 c-50 -3 -95 -8 -99 -12
-4 -4 -18 -60 -31 -124 -18 -88 -20 -120 -12 -130 8 -10 39 -14 114 -14 71 0
106 -4 113 -13 7 -8 12 -170 14 -477 4 -519 3 -509 76 -605 25 -34 56 -59 97
-80 54 -28 68 -30 180 -33 136 -4 227 14 245 49 13 23 12 237 -1 262 -12 22
-20 22 -77 -5 -33 -16 -65 -23 -109 -23 -55 0 -66 3 -90 28 l-28 27 0 433 0
432 142 5 c78 3 145 8 148 12 15 15 44 231 34 250 -9 16 -25 18 -169 18 l-160
0 0 154 c0 85 -3 161 -6 170 -8 21 -38 19 -99 -5z"/>
<path d="M6667 3398 c-17 -12 -18 -54 -19 -725 -1 -570 1 -715 11 -727 17 -21
238 -23 264 -3 15 11 16 60 19 487 l3 475 28 57 c15 31 41 68 57 82 41 34 122
62 202 71 68 7 68 7 77 43 14 50 41 184 41 199 0 25 -32 43 -75 43 -104 0
-221 -43 -289 -105 -21 -19 -42 -35 -47 -35 -5 0 -9 29 -9 65 0 51 -4 66 -17
73 -30 15 -226 15 -246 0z"/>
<path d="M5412 3387 c-13 -15 -42 -172 -42 -224 0 -18 6 -36 13 -38 6 -3 138
-6 292 -8 272 -2 281 -3 326 -26 60 -30 89 -86 89 -171 l0 -60 -172 0 c-254 0
-346 -18 -484 -92 -58 -31 -184 -149 -184 -172 0 -7 -10 -32 -22 -57 -16 -34
-22 -68 -25 -149 -7 -159 29 -252 138 -360 90 -89 179 -120 345 -120 91 0 115
4 172 26 75 30 103 48 178 110 28 24 54 40 58 37 4 -4 4 -32 0 -63 -8 -77 -1
-81 140 -86 97 -3 117 -1 131 13 15 15 16 60 11 512 -3 273 -9 516 -12 541
-14 105 -61 208 -124 271 -107 107 -203 129 -565 129 -196 0 -255 -3 -263 -13z
m678 -855 c0 -79 -3 -96 -31 -150 -40 -81 -106 -139 -200 -175 -65 -26 -83
-28 -165 -25 -84 3 -96 6 -135 33 -59 42 -81 90 -81 171 0 54 5 72 27 104 44
64 144 106 290 123 17 2 90 5 163 6 l132 1 0 -88z"/>
<path d="M8649 3383 c-17 -19 -46 -219 -36 -247 5 -12 48 -15 294 -18 313 -4
338 -8 381 -63 24 -30 46 -116 40 -160 l-3 -30 -200 -6 c-110 -4 -218 -10
-240 -14 -56 -10 -151 -43 -208 -73 -54 -27 -140 -102 -159 -137 -7 -12 -22
-38 -32 -56 -70 -124 -61 -333 20 -460 91 -143 219 -209 405 -209 91 0 119 4
179 26 74 26 132 61 188 113 51 48 55 45 52 -40 -2 -68 7 -73 143 -77 112 -3
116 -3 129 20 10 19 12 123 7 543 -5 452 -8 528 -23 580 -37 128 -100 211
-197 261 -104 52 -133 57 -439 61 -268 4 -286 4 -301 -14z m670 -772 c24 -15
10 -155 -22 -221 -66 -139 -205 -217 -373 -208 -74 4 -89 8 -126 35 -56 40
-81 91 -82 162 -1 166 140 235 489 239 55 1 106 -2 114 -7z"/>
<path d="M11213 3380 l-23 -9 0 -709 c0 -537 3 -711 12 -720 8 -8 54 -12 140
-12 111 0 128 2 136 18 10 20 7 1420 -3 1430 -11 11 -238 13 -262 2z"/>
<path d="M2060 3353 c-38 -15 -74 -49 -91 -87 -17 -37 -19 -70 -19 -351 0
-306 0 -311 -25 -380 -22 -60 -32 -76 -55 -87 -3 -2 -16 -18 -29 -35 -12 -18
-28 -33 -35 -33 -7 0 -24 -9 -38 -19 -13 -11 -38 -23 -54 -27 -16 -4 -39 -14
-52 -22 -14 -9 -57 -16 -115 -19 -50 -2 -102 -9 -113 -15 -12 -6 -41 -7 -65
-4 -24 4 -89 11 -143 15 -73 7 -102 13 -108 25 -6 11 -23 16 -51 16 -43 0
-131 23 -151 39 -6 5 -36 22 -66 38 -70 37 -104 57 -110 63 -46 49 -194 170
-208 170 -10 0 -29 -10 -41 -21 -19 -18 -22 -29 -18 -63 7 -45 75 -172 122
-225 72 -82 147 -151 186 -171 13 -7 26 -16 29 -19 13 -16 71 -51 83 -51 8 0
20 -7 27 -15 6 -8 22 -17 33 -21 12 -3 59 -24 104 -45 44 -22 91 -39 102 -39
12 0 37 -7 56 -15 19 -7 63 -17 98 -21 34 -4 68 -12 76 -18 9 -7 87 -12 217
-14 174 -3 217 -1 309 17 59 12 124 21 144 21 20 0 53 9 74 20 20 11 46 20 56
20 11 0 23 5 26 10 3 6 13 10 22 10 8 0 36 10 62 23 25 13 58 27 73 30 33 9
166 98 222 149 23 21 44 38 47 38 4 0 22 24 40 53 19 28 39 58 46 65 16 16 56
103 72 155 6 20 16 52 21 70 23 78 6 209 -44 330 -38 92 -148 238 -198 261
-18 9 -44 26 -58 39 -14 13 -45 32 -70 44 -116 53 -142 63 -160 63 -11 0 -39
6 -62 14 -50 16 -147 27 -168 19z"/>
</g>
</svg>
