<?xml version="1.0" standalone="no"?>
<!DOCTYPE svg PUBLIC "-//W3C//DTD SVG 20010904//EN"
 "http://www.w3.org/TR/2001/REC-SVG-20010904/DTD/svg10.dtd">
<svg version="1.0" xmlns="http://www.w3.org/2000/svg"
 width="1200.000000pt" height="660.000000pt" viewBox="0 0 1200.000000 660.000000"
 preserveAspectRatio="xMidYMid meet">
<metadata>
Created by potrace 1.13, written by Peter Selinger 2001-2015
</metadata>
<g transform="translate(0.000000,660.000000) scale(0.100000,-0.100000)"
fill="#000000" stroke="none">
<path d="M6436 5800 c-1 -3 0 -499 4 -1103 l5 -1098 605 3 c871 4 2247 4 2961
-1 464 -3 629 -1 670 8 279 64 434 145 602 315 297 302 391 703 260 1120 -108
346 -411 628 -783 729 -63 17 -113 20 -315 23 -393 6 -4007 9 -4009 4z m2689
-761 c88 -3 222 -6 298 -7 91 -1 144 -5 153 -13 9 -7 46 -11 99 -10 51 1 93
-3 107 -10 12 -7 46 -11 74 -10 34 1 55 -3 62 -12 7 -8 23 -12 37 -9 14 2 32
-2 41 -9 9 -7 29 -12 44 -11 14 2 32 -3 39 -11 6 -8 21 -13 31 -10 14 4 20 0
20 -10 0 -10 6 -13 20 -10 11 3 20 0 20 -6 0 -6 9 -11 20 -11 11 0 20 -6 20
-14 0 -9 7 -12 20 -9 14 4 20 0 20 -11 0 -9 6 -13 14 -10 20 8 150 -122 142
-142 -3 -8 1 -14 10 -14 12 0 15 -7 12 -30 -3 -20 0 -30 9 -30 10 0 13 -28 13
-125 0 -77 -4 -125 -10 -125 -5 0 -10 -8 -10 -19 0 -10 -6 -24 -14 -30 -8 -7
-12 -21 -9 -31 4 -14 0 -20 -10 -20 -10 0 -13 -6 -10 -20 4 -14 0 -20 -11 -20
-9 0 -13 -6 -10 -14 3 -8 -8 -29 -25 -47 -17 -17 -31 -36 -31 -41 0 -11 -186
-198 -198 -198 -5 0 -24 -14 -41 -31 -18 -17 -39 -28 -47 -25 -8 3 -14 -1 -14
-9 0 -8 -7 -15 -16 -15 -9 0 -25 -10 -35 -21 -11 -12 -25 -19 -34 -15 -9 3
-15 0 -15 -10 0 -11 -6 -15 -20 -11 -14 3 -20 0 -20 -10 0 -10 -6 -14 -20 -10
-13 3 -20 0 -20 -9 0 -8 -9 -14 -20 -14 -11 0 -20 -4 -20 -10 0 -5 -9 -10 -20
-10 -11 0 -20 -4 -20 -10 0 -5 -13 -10 -30 -10 -16 0 -30 -4 -30 -10 0 -5 -13
-10 -30 -10 -16 0 -30 -4 -30 -10 0 -5 -13 -10 -30 -10 -16 0 -30 -4 -30 -10
0 -5 -9 -10 -20 -10 -11 0 -20 -4 -20 -10 0 -5 -18 -10 -40 -10 -22 0 -40 -4
-40 -10 0 -6 -328 -10 -945 -10 -616 0 -945 4 -945 10 0 6 -13 10 -30 10 -16
0 -30 5 -30 10 0 6 -9 10 -20 10 -11 0 -20 5 -20 10 0 6 -13 10 -30 10 -16 0
-30 5 -30 10 0 6 -9 10 -20 10 -11 0 -20 5 -20 10 0 6 -12 10 -26 10 -26 0
-54 20 -54 38 0 6 -9 8 -20 5 -11 -3 -20 0 -20 6 0 6 -7 11 -16 11 -18 0 -44
23 -44 39 0 6 -6 8 -14 5 -15 -6 -106 76 -106 95 0 5 -10 7 -22 3 -18 -4 -20
-2 -16 16 4 15 2 22 -8 22 -8 0 -14 8 -14 18 0 10 -9 24 -20 32 -12 8 -20 26
-20 42 0 15 -4 28 -10 28 -6 0 -10 45 -10 115 0 70 4 115 10 115 6 0 10 14 10
30 0 17 5 30 10 30 6 0 10 14 10 30 0 19 5 30 14 30 9 0 12 7 9 20 -4 14 0 20
10 20 10 0 13 6 10 20 -4 14 0 20 11 20 9 0 13 6 10 14 -3 8 4 25 15 37 12 13
21 29 21 36 0 7 4 13 8 13 5 0 15 12 23 27 23 44 138 155 155 149 8 -3 14 -1
14 5 0 13 25 39 37 39 5 0 19 9 32 21 12 11 29 18 37 15 8 -3 14 1 14 10 0 11
6 15 20 11 11 -3 26 0 33 6 21 21 65 40 75 33 5 -3 16 1 23 10 7 8 24 14 39
12 15 -1 35 4 44 11 9 7 27 11 41 9 14 -3 30 1 36 9 7 7 26 13 43 11 17 -1 41
4 54 11 12 6 48 11 80 10 32 -1 68 3 80 10 15 8 70 11 161 10 85 0 147 3 158
10 18 11 502 11 838 0z"/>
<path d="M6990 4020 c0 -5 5 -10 11 -10 5 0 7 5 4 10 -3 6 -8 10 -11 10 -2 0
-4 -4 -4 -10z"/>
<path d="M7390 3720 c0 -5 5 -10 11 -10 5 0 7 5 4 10 -3 6 -8 10 -11 10 -2 0
-4 -4 -4 -10z"/>
<path d="M7490 3680 c0 -5 5 -10 11 -10 5 0 7 5 4 10 -3 6 -8 10 -11 10 -2 0
-4 -4 -4 -10z"/>
<path d="M9525 3680 c-3 -5 -1 -10 4 -10 6 0 11 5 11 10 0 6 -2 10 -4 10 -3 0
-8 -4 -11 -10z"/>
<path d="M7560 3660 c-12 -8 -10 -10 8 -10 13 0 20 4 17 10 -7 12 -6 12 -25 0z"/>
<path d="M9445 3660 c-3 -5 -1 -10 4 -10 6 0 11 5 11 10 0 6 -2 10 -4 10 -3 0
-8 -4 -11 -10z"/>
<path d="M7650 3640 c0 -5 5 -10 11 -10 5 0 7 5 4 10 -3 6 -8 10 -11 10 -2 0
-4 -4 -4 -10z"/>
<path d="M9365 3640 c-4 -6 3 -10 14 -10 25 0 27 6 6 13 -8 4 -17 2 -20 -3z"/>
<path d="M2225 5780 c-139 -13 -291 -46 -437 -96 -325 -110 -565 -262 -809
-511 -315 -320 -498 -700 -559 -1164 -18 -132 -8 -985 12 -1104 84 -489 321
-909 688 -1218 298 -251 651 -409 1033 -462 99 -14 261 -15 1273 -12 1259 4
1175 0 1414 59 174 42 437 159 587 259 248 165 494 419 624 644 46 81 116 222
138 280 13 33 27 70 32 83 34 85 44 118 68 237 38 192 42 226 48 441 l6 217
-1214 -7 c-667 -4 -1216 -9 -1218 -12 -4 -4 867 -8 999 -4 45 1 58 -3 70 -19
8 -13 26 -21 42 -21 15 0 28 -4 28 -10 0 -5 18 -10 40 -10 22 0 40 -4 40 -10
0 -5 14 -10 30 -10 17 0 30 -4 30 -10 0 -5 11 -10 25 -10 25 0 75 -39 75 -58
0 -5 14 -7 30 -4 18 3 30 0 30 -7 0 -6 7 -11 15 -11 20 0 185 -165 185 -185 0
-8 5 -15 10 -15 6 0 10 -38 10 -95 0 -57 -4 -95 -10 -95 -5 0 -10 -9 -10 -20
0 -11 -4 -20 -10 -20 -5 0 -10 -9 -10 -20 0 -11 -4 -20 -10 -20 -5 0 -10 -7
-10 -15 0 -8 -18 -34 -40 -56 -22 -23 -40 -46 -40 -51 0 -13 -207 -218 -220
-218 -5 0 -23 -13 -38 -30 -16 -16 -35 -30 -42 -30 -7 0 -20 -8 -29 -18 -9 -9
-28 -23 -43 -31 -16 -8 -28 -18 -28 -23 0 -4 -6 -8 -13 -8 -7 0 -22 -8 -33
-18 -29 -27 -191 -105 -203 -98 -5 4 -12 2 -16 -4 -9 -14 -75 -44 -82 -36 -4
3 -13 0 -22 -7 -22 -18 -89 -40 -100 -33 -5 4 -17 -1 -25 -10 -9 -9 -23 -14
-31 -11 -7 3 -19 -1 -26 -9 -7 -8 -24 -14 -38 -12 -15 1 -41 -4 -59 -11 -17
-7 -41 -11 -52 -8 -10 3 -25 -1 -31 -9 -8 -10 -31 -14 -68 -14 -31 0 -74 -2
-96 -6 -136 -22 -314 -28 -860 -28 -443 -1 -525 1 -673 18 -28 3 -76 8 -105
11 -28 3 -64 6 -80 5 -15 0 -40 6 -55 13 -15 8 -32 12 -39 10 -6 -2 -24 2 -40
10 -15 8 -34 12 -41 10 -7 -3 -20 1 -28 8 -9 7 -24 14 -33 14 -29 2 -81 17
-81 24 0 4 -23 14 -51 21 -28 8 -57 22 -63 32 -6 10 -17 18 -24 18 -14 0 -75
40 -80 53 -2 4 -12 7 -23 7 -10 0 -24 9 -31 20 -7 11 -21 20 -30 20 -10 0 -23
9 -30 20 -7 11 -20 20 -28 20 -20 0 -260 241 -260 261 0 8 -9 20 -20 27 -11 7
-20 20 -20 30 0 9 -9 23 -20 30 -11 7 -20 20 -20 30 0 9 -9 23 -20 30 -11 7
-20 21 -20 32 0 11 -4 20 -10 20 -5 0 -10 9 -10 20 0 11 -4 20 -10 20 -5 0
-10 9 -10 20 0 11 -3 20 -8 20 -11 0 -34 58 -27 70 3 5 -1 10 -11 10 -11 0
-15 6 -11 20 3 10 -2 25 -9 31 -8 7 -13 19 -11 28 2 9 -3 29 -10 44 -8 16 -12
35 -9 42 3 8 -2 19 -10 26 -8 7 -14 25 -12 39 1 15 -3 34 -10 43 -14 17 -15
27 -15 302 0 273 1 281 16 312 8 15 12 34 10 40 -3 7 2 19 10 27 8 9 12 26 10
40 -3 15 1 32 11 41 9 9 13 21 10 26 -9 15 50 159 69 167 4 2 7 10 7 18 0 19
42 104 52 104 4 0 8 8 8 18 0 10 14 31 30 47 17 16 30 34 30 40 0 6 9 17 20
25 11 8 20 21 20 29 0 19 221 241 240 241 8 0 21 9 28 20 7 11 20 20 30 20 9
0 23 9 30 20 7 11 21 20 31 20 10 0 21 6 24 14 6 15 62 46 83 46 7 0 14 3 16
8 7 15 69 53 81 49 7 -2 19 1 27 7 21 17 149 58 159 52 5 -3 15 1 22 10 7 8
24 14 39 12 15 -1 34 3 43 10 8 7 28 12 43 10 16 -1 39 4 52 11 13 7 38 11 55
10 18 -1 51 3 75 10 24 7 71 12 105 12 34 -1 78 2 97 6 43 9 873 9 950 1 30
-3 108 -6 172 -7 71 0 126 -5 140 -12 12 -7 48 -11 80 -10 32 1 68 -3 80 -10
13 -7 40 -12 60 -10 21 1 48 -4 60 -10 13 -7 36 -12 51 -11 15 1 38 -3 50 -10
12 -6 36 -11 53 -10 17 2 37 -4 43 -12 7 -8 19 -12 27 -9 8 3 23 -2 33 -11 10
-9 20 -13 24 -10 7 7 77 -16 98 -33 9 -7 18 -10 22 -7 7 7 113 -42 122 -56 3
-4 14 -6 25 -3 11 3 20 1 20 -4 0 -6 21 -21 48 -34 26 -13 49 -27 50 -31 2 -5
11 -8 21 -8 9 0 23 -9 31 -20 8 -11 22 -20 32 -20 10 0 23 -9 30 -20 7 -11 19
-20 27 -20 8 0 27 -13 43 -30 15 -16 33 -30 39 -30 20 0 241 -230 235 -245 -3
-9 1 -15 10 -15 11 0 15 -6 11 -20 -3 -11 -1 -20 5 -20 15 0 38 -27 38 -44 0
-9 5 -16 10 -16 6 0 10 -13 10 -30 0 -16 5 -30 10 -30 6 0 10 -28 10 -65 0
-37 -4 -65 -10 -65 -5 0 -10 -13 -10 -28 0 -16 -8 -34 -20 -42 -11 -8 -20 -20
-20 -27 0 -17 -85 -103 -101 -103 -6 0 -20 -10 -30 -21 -13 -15 -26 -20 -44
-17 -14 3 -25 1 -25 -4 0 -15 -27 -38 -44 -38 -9 0 -16 -4 -16 -10 0 -5 -9
-10 -20 -10 -11 0 -20 -4 -20 -10 0 -5 -13 -10 -30 -10 -16 0 -30 -4 -30 -10
0 -5 -13 -10 -30 -10 -16 0 -30 -4 -30 -10 0 -5 -13 -10 -28 -10 -16 0 -34 -8
-42 -20 -14 -19 -28 -19 -484 -20 -258 0 -472 -2 -474 -5 -3 -3 165 -5 374 -5
208 0 433 -2 499 -4 66 -3 417 -6 780 -6 l660 -2 -2 179 c-2 98 -7 206 -13
241 -28 179 -34 211 -48 262 -8 30 -17 67 -19 83 -3 15 -9 30 -14 33 -5 3 -9
15 -9 28 0 12 -4 26 -8 32 -4 5 -14 27 -21 49 -13 36 -36 91 -79 185 -28 61
-179 301 -201 320 -3 3 -24 27 -46 55 -58 72 -198 210 -285 281 -244 199 -564
347 -889 411 l-136 27 -1125 2 c-619 1 -1165 -2 -1215 -6z"/>
<path d="M5485 4020 c-3 -5 -1 -10 4 -10 6 0 11 5 11 10 0 6 -2 10 -4 10 -3 0
-8 -4 -11 -10z"/>
<path d="M5455 3950 c-10 -11 -14 -20 -9 -20 5 0 15 9 22 20 7 11 11 20 9 20
-2 0 -12 -9 -22 -20z"/>
<path d="M5399 3873 l-34 -38 38 34 c34 33 42 41 34 41 -2 0 -19 -17 -38 -37z"/>
<path d="M5325 3820 c-3 -5 -1 -10 4 -10 6 0 11 5 11 10 0 6 -2 10 -4 10 -3 0
-8 -4 -11 -10z"/>
<path d="M5165 3740 c-3 -5 -1 -10 4 -10 6 0 11 5 11 10 0 6 -2 10 -4 10 -3 0
-8 -4 -11 -10z"/>
<path d="M5045 3700 c-3 -5 -1 -10 4 -10 6 0 11 5 11 10 0 6 -2 10 -4 10 -3 0
-8 -4 -11 -10z"/>
<path d="M4945 3660 c-3 -5 1 -10 10 -10 9 0 13 5 10 10 -3 6 -8 10 -10 10 -2
0 -7 -4 -10 -10z"/>
<path d="M4884 3639 c-3 -5 6 -9 20 -9 31 0 34 6 6 13 -11 3 -23 1 -26 -4z"/>
<path d="M6438 2325 c-2 -605 -3 -1101 -2 -1103 4 -8 4055 0 4149 8 275 24
512 136 697 328 128 133 208 262 262 422 77 234 77 456 -1 704 -91 290 -320
538 -608 661 -49 21 -105 42 -125 47 -19 5 -53 14 -75 20 -27 7 -730 11 -2167
12 l-2126 2 -4 -1101z m3012 1075 c0 -6 14 -10 30 -10 17 0 30 -4 30 -10 0 -5
14 -10 30 -10 17 0 30 -4 30 -10 0 -5 14 -10 30 -10 17 0 30 -4 30 -10 0 -5
14 -10 30 -10 17 0 30 -4 30 -10 0 -5 14 -10 30 -10 17 0 30 -4 30 -10 0 -5 9
-10 20 -10 11 0 20 -4 20 -10 0 -5 9 -10 20 -10 11 0 20 -6 20 -14 0 -9 7 -12
20 -9 14 4 20 0 20 -10 0 -10 6 -13 20 -10 14 4 20 0 20 -10 0 -10 6 -13 20
-10 14 4 20 0 20 -11 0 -9 6 -13 15 -10 15 6 45 -17 45 -35 0 -6 7 -8 15 -5
15 6 45 -17 45 -35 0 -6 7 -8 15 -5 15 6 225 -193 225 -213 0 -6 14 -25 31
-42 17 -18 28 -39 25 -47 -3 -8 1 -14 9 -14 8 0 15 -9 15 -20 0 -11 3 -20 8
-20 11 0 34 -58 27 -70 -3 -5 1 -10 10 -10 14 0 16 -8 13 -40 -2 -28 0 -40 9
-40 19 0 18 -163 -1 -179 -7 -6 -11 -22 -9 -35 3 -16 -2 -33 -16 -47 -12 -13
-21 -29 -21 -36 0 -7 -4 -13 -8 -13 -5 0 -15 -12 -23 -28 -17 -34 -34 -52 -48
-52 -6 0 -24 -13 -39 -30 -16 -17 -36 -30 -45 -30 -8 0 -17 -3 -19 -7 -5 -13
-98 -57 -105 -50 -3 4 -14 0 -24 -9 -10 -9 -25 -14 -33 -11 -8 3 -20 -1 -27
-9 -8 -10 -24 -14 -41 -12 -19 3 -28 0 -28 -9 0 -10 -14 -13 -53 -12 -29 1
-62 -3 -75 -10 -12 -6 -39 -11 -60 -11 -20 1 -62 -2 -92 -6 -130 -16 -231 -18
-910 -18 -883 0 -889 1 -907 15 -8 7 -38 11 -72 10 -40 -2 -61 2 -69 12 -7 8
-22 12 -37 9 -14 -2 -32 2 -41 9 -9 7 -29 12 -44 11 -14 -2 -32 4 -39 12 -7 8
-19 12 -27 9 -8 -3 -23 2 -33 11 -10 9 -21 13 -24 10 -12 -12 -181 79 -220
118 -21 21 -42 38 -48 38 -14 0 -112 101 -128 133 -8 15 -18 27 -23 27 -4 0
-8 6 -8 13 0 7 -9 23 -21 36 -11 12 -18 29 -15 37 3 8 -1 14 -10 14 -11 0 -15
6 -11 20 3 14 0 20 -10 20 -10 0 -14 6 -10 20 3 14 0 20 -10 20 -11 0 -14 8
-11 30 3 20 0 30 -9 30 -8 0 -13 12 -13 30 0 17 -4 30 -10 30 -6 0 -10 48 -10
125 0 77 4 125 10 125 6 0 10 14 10 30 0 17 5 30 10 30 6 0 10 7 10 15 0 20
165 185 185 185 8 0 15 5 15 11 0 6 9 9 20 6 11 -3 20 -1 20 5 0 15 27 38 44
38 9 0 16 5 16 10 0 6 9 10 20 10 11 0 20 5 20 10 0 6 9 10 20 10 11 0 20 5
20 10 0 6 14 10 30 10 17 0 30 5 30 10 0 6 14 10 30 10 17 0 30 5 30 10 0 6 9
10 20 10 11 0 20 5 20 10 0 6 14 10 30 10 17 0 30 4 30 10 0 6 329 10 945 10
617 0 945 -4 945 -10z"/>
<path d="M7650 3389 c0 -5 5 -7 10 -4 6 3 10 8 10 11 0 2 -4 4 -10 4 -5 0 -10
-5 -10 -11z"/>
<path d="M9365 3390 c3 -5 12 -7 20 -3 21 7 19 13 -6 13 -11 0 -18 -4 -14 -10z"/>
<path d="M7550 3376 c0 -8 51 -13 56 -5 3 5 -9 9 -25 9 -17 0 -31 -2 -31 -4z"/>
<path d="M9445 3370 c3 -5 8 -10 11 -10 2 0 4 5 4 10 0 6 -5 10 -11 10 -5 0
-7 -4 -4 -10z"/>
<path d="M9505 3350 c3 -5 8 -10 11 -10 2 0 4 5 4 10 0 6 -5 10 -11 10 -5 0
-7 -4 -4 -10z"/>
<path d="M7330 3289 c0 -5 5 -7 10 -4 6 3 10 8 10 11 0 2 -4 4 -10 4 -5 0 -10
-5 -10 -11z"/>
<path d="M6990 3049 c0 -5 5 -7 10 -4 6 3 10 8 10 11 0 2 -4 4 -10 4 -5 0 -10
-5 -10 -11z"/>
<path d="M6966 3004 c-5 -14 -4 -15 9 -4 17 14 19 20 6 20 -5 0 -12 -7 -15
-16z"/>
<path d="M4905 3390 c3 -5 12 -7 20 -3 21 7 19 13 -6 13 -11 0 -18 -4 -14 -10z"/>
<path d="M4965 3370 c3 -5 8 -10 11 -10 2 0 4 5 4 10 0 6 -5 10 -11 10 -5 0
-7 -4 -4 -10z"/>
<path d="M5185 3290 c3 -5 8 -10 11 -10 2 0 4 5 4 10 0 6 -5 10 -11 10 -5 0
-7 -4 -4 -10z"/>
<path d="M5245 3270 c3 -5 8 -10 11 -10 2 0 4 5 4 10 0 6 -5 10 -11 10 -5 0
-7 -4 -4 -10z"/>
<path d="M5345 3210 c3 -5 8 -10 11 -10 2 0 4 5 4 10 0 6 -5 10 -11 10 -5 0
-7 -4 -4 -10z"/>
<path d="M5385 3190 c3 -5 8 -10 11 -10 2 0 4 5 4 10 0 6 -5 10 -11 10 -5 0
-7 -4 -4 -10z"/>
<path d="M5475 3100 c21 -22 41 -40 43 -40 9 0 -63 78 -73 79 -5 1 9 -17 30
-39z"/>
<path d="M5527 3025 c-4 -8 -2 -17 3 -20 6 -4 10 3 10 14 0 25 -6 27 -13 6z"/>
<path d="M5525 2840 c-3 -5 -1 -10 4 -10 6 0 11 5 11 10 0 6 -2 10 -4 10 -3 0
-8 -4 -11 -10z"/>
</g>
</svg>
