<?xml version="1.0" standalone="no"?>
<!DOCTYPE svg PUBLIC "-//W3C//DTD SVG 20010904//EN"
 "http://www.w3.org/TR/2001/REC-SVG-20010904/DTD/svg10.dtd">
<svg version="1.0" xmlns="http://www.w3.org/2000/svg"
 width="1200.000000pt" height="660.000000pt" viewBox="0 0 1200.000000 660.000000"
 preserveAspectRatio="xMidYMid meet">
<metadata>
Created by potrace 1.13, written by Peter Selinger 2001-2015
</metadata>
<g transform="translate(0.000000,660.000000) scale(0.100000,-0.100000)"
fill="#000000" stroke="none">
<path d="M1910 4360 c-14 -11 -30 -20 -37 -20 -7 0 -16 -6 -20 -13 -4 -7 -25
-21 -45 -30 -20 -10 -38 -21 -40 -25 -2 -4 -23 -18 -48 -30 -25 -13 -67 -37
-95 -54 -58 -36 -127 -76 -205 -119 -30 -16 -75 -43 -100 -59 -25 -16 -65 -39
-90 -51 -25 -13 -52 -29 -60 -35 -8 -7 -31 -21 -51 -32 l-35 -19 -40 21 c-21
11 -53 30 -69 41 -17 12 -41 26 -55 33 -14 7 -47 26 -75 44 -89 55 -115 68
-138 68 -23 0 -61 -34 -84 -77 -11 -20 -9 -24 30 -47 23 -14 65 -37 94 -51 28
-14 57 -32 63 -40 7 -8 18 -15 25 -15 7 0 23 -8 36 -18 13 -10 67 -42 120 -70
83 -44 98 -49 110 -36 8 7 38 26 66 41 29 16 92 51 140 79 48 28 106 61 128
73 22 13 45 27 52 33 11 9 32 21 164 92 30 16 77 43 104 60 28 18 71 42 97 55
27 12 50 27 53 31 3 5 29 21 58 35 97 49 108 57 105 71 -2 11 -119 85 -131 84
-1 0 -13 -9 -27 -20z"/>
<path d="M2147 4216 c-7 -8 -36 -26 -63 -40 -27 -14 -67 -37 -89 -51 -22 -13
-65 -38 -95 -55 -30 -17 -75 -44 -100 -60 -25 -16 -65 -39 -90 -52 -25 -12
-59 -33 -76 -45 -17 -13 -35 -23 -39 -23 -5 0 -16 -6 -24 -14 -9 -8 -39 -27
-67 -43 -196 -108 -245 -136 -250 -144 -3 -5 -20 -16 -37 -25 -18 -8 -50 -25
-72 -39 -22 -13 -48 -24 -58 -24 -21 -1 -161 72 -224 117 -17 12 -33 22 -36
22 -3 0 -41 21 -84 48 -99 60 -178 102 -191 102 -11 0 -62 -96 -62 -116 0 -7
10 -16 23 -21 12 -4 48 -24 80 -43 32 -19 82 -48 111 -65 30 -16 97 -55 150
-85 54 -30 112 -63 130 -72 18 -9 38 -23 45 -32 19 -23 57 -20 99 9 20 14 41
25 46 25 5 0 23 10 40 23 17 12 45 29 61 37 17 8 32 18 35 21 3 4 28 18 55 33
28 15 73 40 100 56 58 35 123 72 180 103 22 12 42 25 45 28 3 4 28 19 57 35
83 47 264 148 294 165 16 9 34 21 41 27 7 5 49 29 93 52 117 61 118 62 65 107
-54 47 -75 56 -93 39z"/>
<path d="M3580 4070 c-41 -8 -100 -28 -130 -43 -57 -30 -140 -102 -140 -123 0
-6 -9 -19 -21 -30 -19 -17 -44 -63 -64 -119 -33 -89 -47 -358 -24 -440 6 -22
11 -49 11 -60 1 -67 53 -157 139 -239 72 -70 95 -84 179 -117 49 -19 358 -19
420 0 64 20 171 72 177 87 7 20 -26 74 -45 74 -10 0 -27 -7 -38 -15 -10 -8
-40 -17 -67 -21 -26 -4 -50 -11 -53 -15 -7 -12 -190 -11 -212 0 -9 6 -29 12
-43 15 -43 9 -125 98 -150 163 -12 32 -21 68 -21 80 1 12 -3 25 -8 28 -13 8
-13 398 -1 423 5 9 14 39 20 66 13 56 58 125 104 160 41 30 135 47 205 36 66
-11 92 -19 92 -29 0 -4 11 -13 25 -19 26 -12 58 -73 57 -108 -2 -32 30 -56 70
-52 l33 3 3 127 c3 123 2 127 -20 139 -72 40 -362 56 -498 29z"/>
<path d="M11325 4072 l-110 -3 -14 -31 c-8 -17 -31 -59 -52 -94 -22 -35 -39
-66 -39 -68 0 -4 -122 -191 -137 -211 -9 -12 -84 -121 -98 -144 -5 -9 -13 -18
-16 -21 -3 -3 -11 -15 -18 -28 -19 -36 -3 -71 86 -179 24 -28 43 -54 43 -57 0
-7 40 -66 78 -114 18 -22 32 -44 32 -50 0 -5 6 -15 14 -21 8 -7 21 -26 30 -44
9 -18 27 -50 40 -72 l23 -40 194 0 c173 0 194 2 197 17 2 10 -41 60 -117 134
-67 64 -121 121 -121 126 0 5 -33 47 -72 93 -40 45 -89 104 -108 130 -19 26
-41 53 -47 60 -7 8 -13 16 -13 20 0 4 -13 25 -29 49 l-29 42 69 74 c37 41 68
80 69 86 0 16 226 243 288 289 82 62 79 63 -143 57z"/>
<path d="M4224 4055 c-9 -22 3 -45 23 -45 40 0 43 -32 43 -537 l0 -482 -35
-17 c-28 -13 -35 -22 -35 -44 0 -16 5 -30 12 -32 15 -5 514 3 583 9 28 3 54 9
59 14 6 5 21 9 33 9 22 0 57 16 128 58 19 12 45 48 73 102 l44 84 -4 131 c-3
113 -7 135 -27 170 -33 58 -80 104 -126 125 -105 47 -122 50 -274 50 -82 0
-155 2 -163 5 -10 4 -12 36 -10 147 2 78 8 151 14 161 9 17 22 18 184 15 l175
-3 34 -40 c19 -22 37 -57 40 -78 8 -47 30 -69 64 -65 l26 3 0 135 0 135 -428
3 c-374 2 -428 0 -433 -13z m491 -495 c3 -5 17 -10 30 -10 33 0 78 -41 99 -92
10 -24 23 -52 28 -64 11 -23 5 -176 -9 -244 -12 -59 -50 -115 -91 -134 -41
-20 -187 -22 -199 -3 -27 42 -33 92 -33 304 0 122 3 228 6 237 5 13 22 16 84
16 44 0 82 -4 85 -10z"/>
<path d="M5277 4063 c-15 -15 -6 -44 17 -53 14 -5 30 -18 35 -29 7 -13 11
-180 11 -499 l0 -480 -37 -29 c-25 -21 -34 -35 -30 -47 6 -15 42 -16 419 -14
l413 3 0 135 0 135 -43 3 c-28 2 -43 -1 -46 -10 -2 -7 -9 -33 -16 -58 -33
-116 -42 -121 -214 -121 -94 0 -132 3 -155 16 l-31 16 0 220 0 220 103 -5 c56
-2 116 -5 133 -5 17 0 47 -7 67 -16 20 -8 39 -15 42 -15 3 0 5 38 5 85 l0 85
-27 -6 c-16 -3 -41 -10 -57 -15 -16 -5 -82 -9 -147 -9 l-119 0 0 204 c0 165 3
206 14 216 10 8 37 9 88 5 40 -4 103 -9 140 -12 62 -4 70 -8 98 -39 16 -19 30
-41 30 -49 0 -9 4 -23 9 -33 5 -9 12 -25 15 -35 5 -14 14 -18 43 -15 l38 3 0
125 0 125 -396 3 c-217 1 -398 -1 -402 -5z"/>
<path d="M6234 4055 c-9 -23 3 -45 26 -45 11 0 23 -8 26 -17 3 -10 10 -26 15
-35 5 -10 9 -210 9 -467 0 -487 -3 -516 -52 -523 -17 -2 -23 -10 -23 -28 l0
-25 194 -3 c132 -2 198 1 205 9 8 7 0 20 -29 44 l-40 34 -5 171 c-3 93 -3 175
-2 180 2 6 56 10 129 10 120 0 222 17 248 41 5 5 17 9 26 9 25 0 139 126 139
154 0 12 3 26 7 30 16 15 18 55 13 225 -1 44 -44 134 -78 168 -15 14 -55 38
-89 54 l-63 29 -325 0 c-280 0 -326 -2 -331 -15z m556 -110 c49 -47 63 -109
58 -249 -6 -136 -19 -174 -78 -214 -30 -20 -44 -22 -115 -20 l-80 3 -3 244
c-2 182 1 247 10 258 10 12 30 14 95 11 75 -4 86 -7 113 -33z"/>
<path d="M7227 4063 c-10 -10 -8 -43 3 -43 5 0 20 -11 34 -25 l25 -25 1 -479
0 -478 -26 -26 c-15 -15 -31 -27 -35 -27 -5 0 -9 -13 -9 -30 0 -22 5 -30 18
-31 49 -2 478 5 547 8 44 3 84 9 89 14 6 5 20 9 33 9 43 0 138 56 164 97 65
101 81 162 75 279 -5 110 -8 128 -23 164 -19 44 -84 111 -127 129 -22 10 -54
24 -71 31 -19 9 -86 15 -185 17 -85 2 -165 6 -177 9 -23 4 -23 7 -23 145 0 78
5 149 10 160 10 18 23 19 174 19 153 0 165 -1 196 -22 18 -13 37 -30 41 -38
17 -33 37 -86 41 -105 3 -16 11 -20 43 -20 l40 0 0 135 0 135 -426 3 c-234 1
-429 -1 -432 -5z m488 -503 c3 -5 18 -10 32 -10 36 0 88 -56 103 -110 7 -25
16 -53 21 -62 12 -23 12 -160 0 -190 -5 -13 -15 -42 -22 -66 -13 -46 -27 -65
-73 -100 -24 -19 -41 -22 -112 -22 l-84 0 -20 33 c-18 30 -20 50 -20 278 0
135 3 249 7 252 10 11 161 8 168 -3z"/>
<path d="M8497 4063 c-15 -15 -5 -43 20 -55 42 -21 49 -40 35 -95 -7 -26 -20
-62 -28 -80 -7 -18 -21 -48 -29 -67 -8 -19 -15 -39 -15 -45 0 -6 -7 -27 -16
-48 -28 -64 -41 -96 -59 -143 -26 -67 -94 -228 -121 -286 -13 -28 -24 -58 -24
-67 0 -9 -4 -18 -9 -21 -5 -3 -12 -18 -15 -33 -4 -16 -30 -72 -57 -125 -27
-54 -46 -98 -42 -99 4 0 55 0 111 0 116 0 133 7 131 55 0 17 5 49 11 71 6 22
12 50 13 62 1 12 5 25 10 29 4 4 7 18 7 30 0 13 4 25 9 28 4 3 11 24 15 45 3
22 11 52 18 66 l11 25 177 0 177 0 13 -42 c8 -24 18 -48 23 -55 5 -7 6 -17 3
-22 -4 -5 -2 -12 3 -15 7 -5 19 -42 26 -81 5 -27 19 -71 25 -80 4 -5 11 -31
14 -57 4 -26 12 -50 17 -54 12 -7 291 -6 298 2 3 3 -9 33 -27 68 -18 35 -32
70 -32 79 0 9 -4 18 -9 22 -5 3 -13 20 -17 37 -3 18 -13 42 -20 53 -7 11 -25
58 -39 105 -15 47 -30 94 -35 105 -4 11 -13 33 -19 50 -7 16 -21 56 -32 90
-11 33 -24 68 -30 77 -5 10 -9 27 -9 37 0 11 -4 22 -9 25 -5 3 -12 22 -15 42
-4 19 -18 61 -31 92 -43 104 -39 92 -56 192 -6 36 -13 71 -15 78 -2 9 -47 12
-177 12 -96 0 -177 -3 -180 -7z m169 -288 c3 -20 10 -38 15 -41 5 -3 9 -14 9
-25 0 -10 4 -27 9 -37 14 -25 51 -146 51 -164 0 -8 7 -29 16 -46 8 -18 13 -36
9 -42 -9 -14 -272 -13 -280 1 -4 5 0 18 9 28 9 10 16 25 16 34 0 10 4 25 9 35
5 9 20 51 32 92 13 41 31 90 41 108 10 18 18 37 18 42 0 22 21 61 30 55 5 -3
12 -21 16 -40z"/>
<path d="M9294 4055 c-9 -23 3 -45 24 -45 24 0 46 -25 37 -40 -4 -6 -2 -17 5
-25 13 -15 10 -929 -3 -955 -4 -9 -17 -20 -29 -25 -28 -13 -46 -41 -33 -54 8
-8 258 -15 373 -11 6 0 12 11 12 25 0 17 -9 29 -30 40 -23 12 -30 22 -30 45 0
16 -4 32 -10 35 -6 4 -10 87 -10 216 l0 209 215 0 215 0 0 -245 c0 -202 -2
-245 -14 -245 -8 0 -24 -8 -37 -19 -20 -16 -21 -21 -10 -35 11 -14 40 -16 191
-16 153 0 179 2 191 16 12 15 11 18 -5 28 -60 34 -56 0 -56 535 0 269 3 496 6
505 3 9 12 16 19 16 20 0 50 39 39 50 -7 7 -83 9 -200 8 -182 -3 -189 -4 -192
-24 -2 -14 6 -24 30 -35 42 -18 46 -37 54 -253 5 -136 4 -170 -7 -177 -8 -5
-105 -9 -216 -9 l-203 0 0 205 0 204 30 23 c20 14 30 30 28 43 -3 19 -11 20
-191 23 -160 2 -188 0 -193 -13z"/>
<path d="M10497 4064 c-13 -14 -7 -45 11 -51 9 -4 22 -12 28 -18 14 -13 25
-669 16 -870 l-7 -140 -28 -13 c-20 -10 -27 -20 -25 -35 3 -22 6 -22 193 -22
170 0 190 2 193 17 2 11 -8 23 -27 33 -22 11 -31 23 -31 40 0 13 -4 27 -10 30
-13 8 -14 887 -1 901 5 5 11 20 13 34 2 15 14 30 31 38 20 10 27 20 25 35 -3
22 -7 22 -189 25 -102 1 -188 -1 -192 -4z"/>
<path d="M2315 4032 c-17 -9 -44 -27 -62 -39 -17 -13 -34 -23 -39 -23 -4 0
-21 -11 -38 -24 -17 -13 -41 -26 -53 -30 -13 -4 -29 -13 -36 -21 -7 -7 -36
-25 -63 -39 -27 -15 -74 -42 -104 -61 -30 -19 -71 -43 -90 -52 -19 -10 -54
-30 -76 -45 -23 -15 -44 -28 -47 -28 -3 0 -34 -18 -68 -40 -35 -22 -84 -50
-109 -62 -25 -12 -59 -32 -76 -45 -17 -13 -34 -23 -38 -23 -4 0 -22 -11 -40
-25 -18 -14 -37 -25 -42 -25 -5 0 -47 -23 -94 -51 -47 -28 -102 -59 -123 -69
l-38 -19 -52 28 c-52 28 -172 99 -256 153 -25 15 -49 28 -54 28 -6 0 -24 10
-41 23 -17 13 -52 34 -78 46 -27 13 -50 27 -54 32 -3 5 -23 18 -44 29 -47 24
-55 17 -64 -61 l-7 -56 71 -39 c39 -21 85 -46 101 -56 17 -9 38 -23 47 -31 9
-9 28 -21 42 -27 27 -12 46 -23 153 -85 38 -22 94 -54 125 -72 121 -68 122
-68 140 -55 9 7 28 17 42 24 14 7 32 17 40 24 8 6 35 23 60 36 102 57 126 71
140 82 8 7 36 23 62 35 25 12 52 29 58 37 7 7 18 14 25 14 7 0 23 8 36 18 13
11 49 32 79 49 30 17 71 40 90 52 19 11 56 32 82 44 26 13 54 30 63 37 8 7 28
20 45 29 110 61 261 146 295 167 22 13 62 36 90 50 27 15 66 37 87 50 41 26
40 31 -10 102 -26 36 -35 38 -77 14z"/>
<path d="M2430 3821 c-52 -38 -106 -71 -115 -71 -4 0 -23 -11 -41 -25 -18 -14
-36 -25 -40 -25 -4 0 -21 -10 -38 -23 -17 -12 -52 -33 -79 -46 -26 -14 -52
-30 -58 -38 -6 -7 -17 -13 -24 -13 -8 0 -26 -10 -42 -22 -15 -13 -46 -32 -68
-43 -22 -10 -47 -24 -55 -31 -17 -14 -75 -47 -138 -80 -24 -12 -51 -28 -60
-35 -17 -14 -27 -20 -101 -61 -20 -11 -43 -25 -51 -32 -8 -6 -33 -20 -55 -31
-38 -19 -60 -32 -122 -73 -16 -10 -57 -34 -93 -52 -36 -19 -78 -43 -95 -55
-36 -26 -66 -39 -82 -36 -7 1 -36 18 -65 37 -29 20 -78 49 -108 66 -30 16 -84
47 -120 68 -36 21 -81 48 -100 59 -19 12 -42 26 -50 31 -8 5 -40 24 -70 41
-139 80 -140 81 -146 66 -17 -45 13 -356 37 -382 5 -5 9 -18 9 -28 0 -17 25
-84 61 -162 5 -11 23 -40 39 -65 16 -25 34 -56 40 -69 13 -29 255 -271 271
-271 6 0 28 -13 48 -29 44 -35 167 -96 213 -106 18 -4 38 -10 43 -14 86 -58
466 -72 605 -22 14 5 45 15 70 22 25 7 50 16 55 19 6 4 33 15 60 25 88 32 187
104 308 223 119 117 178 193 224 287 30 61 83 216 83 242 0 10 6 25 13 32 16
16 17 461 1 482 -6 8 -15 35 -18 61 -4 26 -11 50 -17 53 -5 4 -9 13 -9 22 0 9
-12 40 -26 70 -29 59 -49 66 -94 34z"/>
<path d="M3187 2593 c-12 -12 -8 -110 6 -120 7 -6 1636 -8 4197 -7 l4185 2 3
66 3 66 -4194 0 c-2306 0 -4197 -3 -4200 -7z"/>
</g>
</svg>
