<?xml version="1.0" standalone="no"?>
<!DOCTYPE svg PUBLIC "-//W3C//DTD SVG 20010904//EN"
 "http://www.w3.org/TR/2001/REC-SVG-20010904/DTD/svg10.dtd">
<svg version="1.0" xmlns="http://www.w3.org/2000/svg"
 width="1200.000000pt" height="660.000000pt" viewBox="0 0 1200.000000 660.000000"
 preserveAspectRatio="xMidYMid meet">
<metadata>
Created by potrace 1.13, written by Peter Selinger 2001-2015
</metadata>
<g transform="translate(0.000000,660.000000) scale(0.100000,-0.100000)"
fill="#000000" stroke="none">
<path d="M444 4188 c-6 -10 -7 -1778 -1 -1784 5 -6 1916 -6 1925 0 4 2 7 406
7 898 l0 893 -963 0 c-530 0 -966 -3 -968 -7z m1488 -618 c128 -143 234 -266
236 -275 2 -8 -35 -61 -82 -117 -215 -261 -298 -362 -338 -413 l-43 -55 -472
0 c-345 0 -473 3 -473 11 0 15 45 77 332 465 57 77 75 109 71 125 -3 11 -95
132 -204 267 -108 136 -194 249 -189 252 4 3 215 4 468 2 l461 -2 233 -260z"/>
<path d="M3295 3864 c-11 -2 -45 -9 -75 -15 -137 -28 -283 -126 -359 -242 -67
-103 -94 -198 -95 -337 -2 -195 47 -324 169 -445 110 -110 234 -162 412 -172
115 -7 195 8 290 53 68 32 173 119 173 143 0 9 -149 125 -198 155 -8 5 -28 -7
-57 -33 -62 -57 -106 -74 -195 -74 -100 0 -164 27 -229 99 -167 182 -113 503
100 599 105 47 243 36 313 -25 18 -17 38 -30 44 -30 14 0 187 140 190 154 6
27 -97 104 -180 136 -66 26 -98 32 -182 35 -55 2 -110 2 -121 -1z"/>
<path d="M3950 3260 l0 -580 130 0 130 0 -2 578 -3 577 -127 3 -128 3 0 -581z"/>
<path d="M4440 3833 c0 -23 0 -1130 0 -1141 0 -10 29 -12 128 -10 l127 3 5
430 5 430 140 -420 c76 -231 143 -426 149 -433 6 -9 36 -12 105 -10 l96 3 93
275 c52 151 117 341 144 423 28 81 55 147 59 147 5 0 9 -191 9 -425 l0 -426
128 3 127 3 0 575 0 575 -194 0 -193 0 -129 -364 c-71 -200 -131 -367 -134
-370 -13 -12 -17 -3 -219 579 l-54 155 -196 3 c-108 1 -196 -1 -196 -5z"/>
<path d="M5995 3828 c-3 -7 -4 -267 -3 -578 l3 -565 300 0 c228 0 312 3 350
14 185 52 275 165 263 332 -9 114 -75 198 -187 238 l-54 19 41 21 c99 51 147
129 147 241 -1 159 -93 250 -282 279 -104 16 -572 15 -578 -1z m545 -234 c68
-39 71 -140 7 -188 -24 -18 -47 -22 -153 -26 -68 -3 -129 -3 -134 -2 -12 4
-14 225 -2 236 4 5 61 6 127 4 98 -3 127 -8 155 -24z m37 -457 c78 -42 97
-120 42 -182 -42 -48 -82 -57 -234 -53 l-130 3 -3 114 c-1 63 0 121 3 129 8
22 278 13 322 -11z"/>
<path d="M7267 3833 c-4 -3 -7 -264 -7 -579 0 -512 2 -572 16 -578 30 -11 349
-6 441 8 111 17 190 53 242 112 89 101 95 284 13 392 -27 36 -115 92 -144 92
-27 0 -22 19 8 30 142 54 190 251 97 400 -35 57 -91 93 -179 116 -57 15 -474
21 -487 7z m498 -133 c68 -36 90 -75 90 -165 0 -88 -22 -122 -103 -162 -54
-26 -66 -28 -214 -32 l-158 -3 0 197 0 196 168 -3 c157 -3 171 -5 217 -28z
m-20 -482 c106 -31 165 -107 165 -213 0 -66 -20 -115 -61 -149 -63 -53 -90
-59 -286 -64 l-183 -4 0 219 c0 121 2 222 4 224 9 9 324 -2 361 -13z"/>
<path d="M8631 3788 c-13 -29 -29 -66 -36 -83 -7 -16 -23 -52 -35 -80 -35 -78
-54 -121 -110 -250 -55 -126 -76 -174 -111 -252 -12 -27 -30 -67 -40 -90 -11
-24 -28 -63 -39 -88 -11 -25 -29 -66 -41 -92 -11 -27 -32 -72 -46 -100 -32
-66 -26 -83 26 -83 69 0 74 5 131 151 12 29 32 77 46 106 l24 53 307 -2 307
-3 58 -144 c32 -80 64 -148 70 -153 7 -4 35 -7 63 -6 63 4 66 15 25 102 -16
37 -30 69 -30 71 0 2 -13 34 -30 70 -16 36 -30 68 -30 70 0 2 -13 34 -30 70
-16 36 -30 68 -30 70 0 2 -13 34 -30 70 -16 36 -30 68 -30 70 0 2 -11 28 -24
57 -14 30 -34 78 -46 107 -11 30 -30 73 -40 96 -10 23 -29 66 -40 96 -12 29
-32 76 -44 104 -12 27 -28 65 -35 83 -13 31 -15 32 -75 32 l-62 0 -23 -52z
m104 -145 c10 -27 28 -71 41 -98 12 -28 32 -75 44 -105 12 -30 28 -68 35 -85
42 -90 103 -250 99 -257 -7 -10 -491 -11 -498 0 -3 5 1 19 7 33 7 13 19 40 27
59 7 19 26 63 42 98 15 34 28 65 28 67 0 2 11 28 24 57 44 98 64 143 80 183
32 76 41 95 47 95 3 0 14 -21 24 -47z"/>
<path d="M9427 3833 c-2 -5 -4 -263 -3 -575 1 -402 4 -570 12 -578 6 -6 31
-10 55 -8 l44 3 5 499 5 499 51 -69 c27 -38 71 -98 95 -134 262 -377 545 -777
557 -787 22 -18 126 -17 141 1 8 9 10 170 9 582 l-3 569 -60 0 -60 0 -1 -485
c0 -267 -1 -489 -2 -494 -1 -5 -24 22 -50 60 -89 127 -187 267 -322 459 -74
105 -168 240 -210 301 -125 181 -105 163 -187 164 -39 0 -74 -3 -76 -7z"/>
<path d="M10709 3833 c-6 -58 3 -1149 9 -1155 5 -5 29 -8 53 -6 l44 3 5 300 5
300 20 -21 c11 -12 146 -148 300 -303 l279 -281 73 0 c39 0 75 4 78 10 3 5
-132 147 -300 315 -168 168 -305 309 -305 313 0 5 28 33 62 63 58 49 156 137
168 149 3 3 43 39 90 80 47 41 99 87 115 102 17 16 53 47 82 70 72 60 69 68
-24 68 -76 0 -79 -1 -118 -38 -22 -20 -83 -75 -135 -122 -52 -47 -120 -108
-150 -136 -30 -28 -77 -71 -105 -95 -27 -25 -66 -60 -85 -77 -19 -18 -39 -32
-43 -32 -4 0 -7 107 -7 238 0 130 1 243 0 250 0 13 -109 18 -111 5z"/>
</g>
</svg>
