<?xml version="1.0" standalone="no"?>
<!DOCTYPE svg PUBLIC "-//W3C//DTD SVG 20010904//EN"
 "http://www.w3.org/TR/2001/REC-SVG-20010904/DTD/svg10.dtd">
<svg version="1.0" xmlns="http://www.w3.org/2000/svg"
 width="1200.000000pt" height="660.000000pt" viewBox="0 0 1200.000000 660.000000"
 preserveAspectRatio="xMidYMid meet">
<metadata>
Created by potrace 1.13, written by Peter Selinger 2001-2015
</metadata>
<g transform="translate(0.000000,660.000000) scale(0.100000,-0.100000)"
fill="#000000" stroke="none">
<path d="M7235 6163 c-237 -9 -567 -60 -815 -123 -372 -96 -821 -304 -1194
-554 -54 -37 -101 -64 -104 -61 -3 2 -4 40 -3 84 1 44 -2 82 -8 85 -19 12
-460 -622 -461 -663 0 -24 1 -24 69 -17 73 6 548 138 731 202 24 9 -12 29 -90
53 -38 12 -71 25 -74 30 -11 17 242 148 419 219 235 94 316 120 505 167 36 9
81 21 100 26 137 36 463 63 663 56 177 -6 293 -31 471 -101 61 -24 121 -47
134 -51 45 -13 188 -104 259 -165 190 -160 317 -375 381 -644 25 -103 27 -128
27 -336 0 -234 -6 -293 -50 -470 -31 -125 -78 -245 -161 -415 -38 -77 -70
-143 -72 -147 -11 -23 32 -3 68 32 22 21 57 49 78 60 22 12 64 57 102 108 35
48 83 108 106 133 23 25 47 61 53 81 13 40 38 57 48 31 3 -9 1 -28 -5 -42 -5
-14 -24 -62 -42 -106 -18 -47 -43 -90 -59 -105 -26 -23 -51 -60 -51 -74 0 -19
32 -1 45 25 9 16 31 47 49 67 206 232 313 612 265 933 -8 52 -9 81 -2 94 8 14
13 4 26 -56 41 -195 43 -290 6 -489 -11 -61 -100 -304 -132 -362 -25 -46 -18
-57 20 -30 15 10 48 30 73 42 56 29 116 84 140 130 50 97 80 236 73 338 -4 50
-1 72 10 87 21 28 30 14 38 -58 4 -44 1 -86 -13 -147 -33 -149 -59 -233 -85
-277 -13 -23 -22 -47 -18 -53 9 -15 35 -12 41 4 3 8 12 17 20 20 12 4 11 -1
-2 -27 -9 -17 -28 -46 -41 -64 -13 -17 -20 -34 -15 -37 20 -12 177 158 235
254 36 61 75 106 83 97 4 -4 -3 -40 -15 -79 -47 -154 -37 -157 46 -15 73 123
87 150 112 219 51 140 56 181 56 428 -1 221 -2 242 -29 355 -34 146 -79 266
-152 405 -67 127 -108 180 -222 295 -212 213 -422 350 -732 476 -130 53 -139
55 -285 88 -207 46 -344 56 -620 44z m-892 -220 c-7 -2 -19 -2 -25 0 -7 3 -2
5 12 5 14 0 19 -2 13 -5z m-63 -23 c-103 -33 -413 -161 -542 -224 -161 -78
-196 -91 -143 -56 139 94 599 289 680 288 29 0 29 0 5 -8z m2173 -111 c116
-59 241 -152 358 -269 118 -118 180 -200 243 -327 52 -103 44 -118 -15 -28
-144 221 -349 426 -601 600 -51 35 -70 55 -53 55 3 0 34 -14 68 -31z"/>
<path d="M7830 5236 c41 -41 77 -72 79 -70 7 6 -131 144 -144 144 -5 0 24 -33
65 -74z"/>
<path d="M7960 5104 c0 -16 47 -76 53 -67 3 5 -8 24 -24 43 -15 19 -29 30 -29
24z"/>
<path d="M8040 4971 c0 -5 13 -37 30 -72 31 -67 74 -219 85 -304 5 -38 9 -45
16 -32 26 45 -82 417 -120 417 -6 0 -11 -4 -11 -9z"/>
<path d="M3597 4463 c-13 -21 -30 -49 -37 -63 -19 -37 -27 -40 -117 -40 l-82
0 -36 -61 c-20 -34 -34 -68 -31 -75 4 -10 26 -14 76 -14 77 0 85 -8 50 -52
-15 -20 -31 -26 -74 -30 -64 -5 -121 -40 -159 -96 -13 -20 -77 -127 -141 -238
-90 -156 -116 -209 -116 -237 0 -41 20 -58 71 -59 34 -1 36 -10 8 -49 -20 -28
-23 -29 -104 -29 l-84 0 -36 -56 c-51 -79 -46 -88 43 -92 39 -2 72 -5 72 -8 0
-7 -39 -77 -80 -141 -17 -28 -29 -56 -25 -62 9 -16 190 -14 202 2 6 6 23 35
38 62 15 28 39 70 53 95 14 25 30 48 36 52 6 4 48 8 93 8 l83 0 25 40 25 40
225 0 c154 0 225 -3 225 -11 0 -6 -20 -41 -44 -79 l-45 -69 -57 -3 -58 -3 -19
-64 c-15 -52 -16 -65 -5 -73 7 -5 56 -7 109 -5 151 6 194 38 294 223 l46 83
62 3 62 3 33 49 c43 65 42 74 -15 78 -51 3 -63 17 -38 42 12 11 35 16 81 16
58 0 65 2 73 23 14 37 43 160 45 192 1 21 16 45 51 80 46 46 173 255 189 311
4 13 -1 30 -15 47 -19 25 -26 27 -94 27 -77 0 -98 11 -72 37 12 12 42 15 148
14 74 -1 139 2 145 6 14 10 64 97 64 111 0 9 -35 12 -117 12 -133 0 -151 6
-133 40 23 42 8 50 -94 50 l-94 0 -23 -37 c-13 -21 -28 -42 -33 -46 -6 -5 -71
-6 -144 -2 l-133 6 -27 -31 c-25 -29 -30 -30 -104 -30 -90 0 -94 6 -52 70 40
61 31 70 -76 70 l-90 0 -23 -37z m561 -205 c-3 -22 -9 -23 -105 -29 -84 -5
-109 -11 -145 -32 -61 -36 -77 -56 -162 -204 -108 -188 -104 -212 37 -220 93
-6 102 -13 67 -51 -17 -18 -32 -22 -84 -22 -35 0 -97 -3 -139 -6 l-77 -7 -30
-54 c-17 -30 -28 -58 -25 -64 4 -6 36 -8 78 -4 65 4 498 29 522 30 15 0 19
-45 3 -46 -7 -1 -46 0 -86 1 -72 2 -73 1 -106 -34 l-32 -36 -230 0 -230 0 -22
-30 c-22 -29 -26 -30 -96 -30 -40 0 -75 3 -79 6 -9 9 21 64 36 65 89 5 158 37
199 93 31 43 89 139 207 346 55 96 70 131 66 150 -8 33 -32 50 -72 50 -38 0
-41 11 -12 51 20 28 23 29 109 29 l89 0 27 35 26 35 135 0 c134 0 134 0 131
-22z m202 -148 c12 -7 12 -12 0 -34 -11 -21 -21 -26 -52 -26 -29 0 -38 4 -38
17 0 40 54 66 90 43z m-300 -18 c0 -28 -21 -42 -62 -42 -44 0 -51 20 -16 44
32 23 78 21 78 -2z m-500 -113 c0 -17 -51 -90 -66 -96 -30 -11 -33 19 -7 61
14 23 31 44 36 48 13 8 37 -1 37 -13z m-230 0 c0 -15 -59 -99 -70 -99 -28 0
-12 56 25 94 19 18 45 21 45 5z m947 -36 c14 -35 -83 -84 -103 -52 -12 21 17
58 50 62 17 2 35 5 39 5 4 1 10 -5 14 -15z m-307 -10 c0 -27 -31 -53 -62 -53
-33 0 -44 19 -28 49 14 27 90 31 90 4z m190 -182 c0 -23 -4 -26 -48 -36 -24
-5 -33 -3 -38 9 -10 25 15 46 52 46 27 0 34 -4 34 -19z m-974 -4 c8 -22 -45
-107 -67 -107 -24 0 -24 2 2 53 34 67 53 83 65 54z m230 -1 c10 -27 -59 -116
-90 -116 -13 0 -5 25 25 76 30 53 54 68 65 40z"/>
<path d="M5293 4488 c-6 -7 -18 -28 -27 -45 l-17 -33 -82 0 c-45 0 -99 -5
-120 -11 -47 -13 -98 -57 -132 -114 -18 -32 -32 -45 -49 -45 -29 0 -49 -16
-75 -60 -26 -43 -26 -55 -1 -66 19 -9 19 -9 0 -53 -25 -54 -25 -73 0 -96 15
-13 35 -17 88 -16 80 1 101 -12 76 -47 -14 -20 -24 -22 -112 -22 -149 -1 -188
-25 -266 -163 -20 -36 -36 -72 -36 -80 0 -30 30 -47 80 -47 62 0 72 -16 31
-52 -30 -27 -35 -28 -136 -28 l-105 0 -26 -42 c-37 -59 -36 -72 6 -76 51 -5
55 -15 26 -58 -33 -48 -33 -65 0 -104 23 -27 25 -33 13 -44 -12 -11 -100 -50
-193 -85 -17 -7 -24 -15 -20 -26 5 -12 28 -15 134 -15 107 0 137 4 185 22 54
20 58 21 85 5 22 -14 55 -17 164 -17 84 0 136 -4 136 -10 0 -6 44 -10 111 -10
l112 0 65 55 c35 31 70 54 76 52 6 -2 11 -25 11 -51 0 -30 5 -50 15 -56 23
-15 197 -13 207 3 4 6 6 82 4 168 -2 112 1 163 9 180 7 13 43 58 79 99 135
152 258 309 384 492 53 77 73 97 94 100 21 2 34 16 61 61 18 32 31 65 28 73
-4 11 -30 14 -121 14 -76 0 -115 4 -115 11 0 6 34 58 76 115 46 63 74 110 70
119 -4 12 -24 15 -89 15 -99 0 -81 14 -223 -184 -54 -76 -141 -191 -192 -254
-51 -64 -91 -120 -89 -126 2 -6 38 -12 82 -14 76 -3 79 -2 112 30 19 18 53 57
75 86 38 48 69 65 82 43 6 -9 -55 -104 -162 -253 -60 -84 -89 -101 -78 -45 15
76 20 72 -73 75 -46 2 -88 -1 -92 -5 -12 -12 -52 -148 -94 -313 l-34 -135 -93
-88 c-125 -119 -221 -197 -243 -197 -24 0 -135 69 -135 83 0 7 21 25 48 42 26
16 75 56 109 87 62 57 63 58 122 58 l60 0 26 43 c45 79 48 77 -150 77 -192 0
-199 3 -147 53 27 26 32 27 143 27 136 0 179 10 222 54 44 45 107 155 107 188
0 39 -25 48 -129 48 -97 0 -109 7 -83 48 13 20 22 22 111 22 126 0 169 20 227
105 30 45 47 61 67 63 19 2 34 15 52 46 26 44 32 76 15 76 -15 0 -12 28 6 55
8 13 14 38 12 57 -4 44 -34 58 -127 58 -71 0 -73 1 -66 23 19 60 17 62 -76 65
-61 2 -89 -1 -96 -10z m-133 -198 c32 -20 -35 -72 -74 -57 -29 12 12 62 54 66
3 0 12 -4 20 -9z m279 1 c19 -13 5 -48 -24 -55 -28 -7 -55 2 -55 18 0 24 16
36 60 45 3 0 11 -3 19 -8z m-85 -180 c11 -18 -35 -61 -65 -61 -37 0 -48 24
-24 50 19 21 79 28 89 11z m-291 -7 c7 -8 -11 -46 -27 -56 -16 -11 -30 -10
-49 5 -16 11 -16 14 -2 35 15 21 63 31 78 16z m95 -345 c1 -8 -9 -28 -23 -43
-31 -34 -78 -34 -83 0 -6 45 97 88 106 43z m-292 0 c3 -6 -2 -23 -13 -37 -15
-20 -29 -27 -53 -27 -41 0 -47 14 -20 48 22 28 72 37 86 16z m-71 -389 c0 -8
-21 -27 -47 -43 -46 -28 -49 -29 -73 -13 -33 22 -32 30 8 55 38 25 112 26 112
1z"/>
<path d="M6585 4328 c-117 -206 -429 -748 -596 -1034 -65 -113 -119 -211 -119
-218 0 -20 23 -26 105 -26 55 0 78 4 93 18 11 9 118 188 237 397 120 209 249
434 288 500 38 66 108 185 155 265 46 80 98 166 114 193 45 70 37 77 -80 77
l-100 0 -97 -172z"/>
<path d="M7263 4488 c-5 -7 -33 -55 -62 -105 -32 -58 -59 -93 -69 -94 -9 0
-52 0 -94 1 -42 1 -86 -3 -96 -9 -25 -14 -85 -119 -78 -137 4 -10 26 -14 84
-14 53 0 83 -4 90 -13 8 -10 -12 -49 -79 -157 -50 -80 -96 -148 -102 -152 -7
-4 -69 -8 -139 -8 l-128 0 -25 -41 c-44 -69 -51 -89 -34 -100 8 -5 56 -9 107
-9 86 0 92 -1 92 -20 0 -30 -332 -358 -462 -459 -73 -56 -105 -86 -101 -96 4
-12 29 -15 122 -15 l116 0 71 63 c39 34 125 112 191 174 65 61 124 109 129
105 7 -4 10 -65 10 -157 -1 -82 2 -158 6 -167 6 -16 23 -18 133 -18 121 0 130
2 127 31 -1 3 -6 53 -12 112 -9 80 -9 133 0 210 6 56 12 111 13 122 2 18 -5
20 -60 23 -78 4 -90 17 -57 60 l25 32 204 0 c231 0 212 -6 265 93 l24 45 -23
19 -23 18 102 176 c109 189 120 224 82 262 -18 18 -35 21 -119 24 -53 1 -100
6 -104 10 -5 5 14 46 41 92 26 47 46 90 43 98 -7 18 -196 19 -210 1z m117
-374 c0 -22 -138 -263 -167 -291 -25 -26 -84 -31 -102 -10 -10 13 37 100 160
295 11 18 23 22 61 22 38 0 48 -4 48 -16z"/>
<path d="M8176 4454 c-9 -24 -7 -54 4 -54 6 0 10 16 10 35 0 38 -4 44 -14 19z"/>
<path d="M6220 3979 c-74 -116 -137 -216 -139 -221 -5 -15 20 -28 56 -28 22 0
40 8 55 25 34 36 260 395 262 414 1 12 -10 17 -49 19 l-50 3 -135 -212z"/>
<path d="M6675 4039 c-42 -83 -75 -158 -73 -167 4 -19 29 -26 64 -18 19 5 38
35 94 153 38 80 70 154 70 165 0 14 -8 18 -40 18 l-40 0 -75 -151z"/>
<path d="M8660 3427 c-320 -159 -721 -336 -852 -376 -59 -18 -199 -75 -323
-131 -68 -31 -218 -90 -228 -90 -5 0 -32 -12 -61 -26 -28 -15 -148 -59 -266
-99 -145 -48 -215 -76 -215 -86 0 -13 184 -64 390 -109 120 -26 135 -32 135
-52 0 -11 -6 -25 -12 -32 -58 -56 -385 -303 -544 -412 -47 -32 -162 -94 -175
-94 -6 0 -77 -33 -158 -74 -80 -40 -207 -97 -281 -126 -74 -28 -175 -68 -225
-87 -218 -85 -237 -90 -540 -129 -133 -18 -445 -15 -545 5 -30 6 -97 17 -147
26 -120 21 -170 38 -331 119 -227 112 -353 218 -466 391 -82 126 -116 209
-116 285 0 27 -3 55 -6 64 -11 28 -24 17 -24 -19 0 -19 -4 -35 -9 -35 -20 0
-18 -47 6 -143 52 -213 200 -421 418 -589 97 -76 214 -148 313 -193 56 -26 78
-45 52 -45 -26 0 -142 46 -220 86 -221 115 -403 309 -520 558 -27 56 -58 130
-69 166 -11 36 -33 103 -48 150 -25 79 -28 101 -33 305 -5 235 -17 278 -36
140 -37 -260 -42 -412 -20 -540 18 -100 82 -265 103 -265 15 0 15 23 -2 62
-10 26 10 22 27 -4 8 -13 29 -61 48 -108 72 -184 168 -337 281 -452 37 -38 63
-68 59 -68 -4 0 -38 28 -75 62 -83 76 -165 185 -241 319 -37 66 -60 97 -67 90
-14 -14 -2 -52 36 -107 29 -42 57 -101 74 -154 3 -8 -9 1 -25 20 -17 19 -34
31 -38 27 -19 -18 62 -127 228 -309 199 -219 269 -275 454 -369 143 -72 269
-113 538 -174 62 -14 75 -20 61 -28 -18 -10 -39 -8 -215 18 -195 29 -302 63
-449 141 -163 87 -327 225 -411 348 -54 79 -155 182 -164 167 -3 -5 5 -23 19
-39 14 -16 25 -34 25 -40 0 -5 8 -16 17 -23 21 -18 103 -129 103 -140 0 -18
-32 -8 -76 22 -53 36 -67 31 -35 -12 42 -56 10 -45 -44 16 -83 92 -70 39 17
-70 317 -396 615 -580 1083 -671 130 -25 164 -27 474 -32 221 -3 371 0 445 8
212 22 450 86 716 192 69 28 147 59 175 70 l49 19 -18 -20 c-23 -25 -200 -117
-311 -161 -163 -65 -328 -110 -495 -134 -133 -19 -440 -35 -547 -29 -102 7
-115 -12 -16 -23 99 -10 469 2 608 21 300 40 748 153 842 213 27 17 95 48 153
70 123 46 212 90 350 172 56 33 140 80 188 104 84 42 182 108 267 179 22 18
67 52 100 74 69 47 136 104 264 221 50 45 99 82 109 82 10 0 29 11 42 25 13
14 26 25 30 25 7 0 21 -32 90 -204 63 -160 96 -232 109 -240 5 -4 15 3 22 15
36 68 161 706 339 1724 33 193 70 396 80 451 11 56 20 117 20 136 0 39 -25 68
-56 67 -10 0 -102 -42 -204 -92z m-1413 -1090 c-14 -19 -61 -65 -104 -103 -43
-38 -80 -71 -83 -74 -17 -18 -202 -152 -235 -171 -106 -59 -204 -109 -216
-109 -8 0 54 44 136 98 83 54 159 105 170 114 11 9 58 47 105 85 47 37 121 98
164 135 83 72 106 81 63 25z m-480 -1632 c8 -21 -25 -55 -54 -55 -31 0 -29 19
5 47 32 27 41 28 49 8z m-107 -75 c0 -5 -4 -10 -10 -10 -5 0 -10 5 -10 10 0 6
5 10 10 10 6 0 10 -4 10 -10z"/>
<path d="M3366 3311 c-12 -19 -47 -182 -41 -191 9 -15 202 -13 212 2 4 7 10
33 14 58 4 25 10 66 14 93 l8 47 -101 0 c-55 0 -103 -4 -106 -9z"/>
<path d="M3416 2651 c-13 -21 -21 -191 -8 -191 13 0 25 88 20 155 -2 33 -6 45
-12 36z"/>
<path d="M3737 2633 c-10 -10 -8 -222 2 -257 5 -17 15 -51 22 -76 7 -25 16
-49 19 -55 4 -5 13 -26 20 -45 27 -71 119 -190 147 -190 21 0 15 12 -26 59
-39 44 -115 184 -124 231 -3 14 -13 56 -21 95 -9 38 -16 104 -16 145 0 72 -9
108 -23 93z"/>
<path d="M3377 2373 c-10 -10 -8 -250 2 -292 5 -20 14 -65 20 -101 28 -159 53
-257 88 -340 43 -100 126 -240 143 -240 15 0 14 2 -30 74 -22 36 -40 70 -40
76 0 6 -4 18 -9 28 -33 64 -76 206 -100 327 -35 175 -51 294 -51 378 0 70 -9
105 -23 90z"/>
<path d="M3440 2250 c0 -27 21 -70 31 -64 10 6 12 45 3 68 -9 23 -34 20 -34
-4z"/>
<path d="M3505 2017 c-6 -15 39 -155 55 -171 15 -15 13 12 -5 70 -8 27 -15 59
-15 70 0 29 -27 53 -35 31z"/>
<path d="M3960 1945 c0 -8 7 -15 15 -15 8 0 15 4 15 9 0 5 -7 11 -15 15 -9 3
-15 0 -15 -9z"/>
<path d="M3594 1645 c-7 -18 3 -35 22 -35 15 0 17 9 8 34 -8 20 -23 21 -30 1z"/>
<path d="M5188 403 c6 -2 18 -2 25 0 6 3 1 5 -13 5 -14 0 -19 -2 -12 -5z"/>
</g>
</svg>
