<?xml version="1.0" standalone="no"?>
<!DOCTYPE svg PUBLIC "-//W3C//DTD SVG 20010904//EN"
 "http://www.w3.org/TR/2001/REC-SVG-20010904/DTD/svg10.dtd">
<svg version="1.0" xmlns="http://www.w3.org/2000/svg"
 width="1200.000000pt" height="660.000000pt" viewBox="0 0 1200.000000 660.000000"
 preserveAspectRatio="xMidYMid meet">
<metadata>
Created by potrace 1.13, written by Peter Selinger 2001-2015
</metadata>
<g transform="translate(0.000000,660.000000) scale(0.100000,-0.100000)"
fill="#000000" stroke="none">
<path d="M3235 4745 c-335 -42 -622 -159 -895 -363 -136 -102 -380 -364 -380
-408 0 -12 36 -14 205 -14 l204 0 83 75 c246 225 534 353 864 386 382 37 811
-111 1097 -381 l80 -75 209 -3 c238 -4 236 -4 171 77 -223 279 -474 468 -778
589 -283 112 -578 152 -860 117z"/>
<path d="M5340 4340 c-14 -11 -28 -20 -31 -20 -4 0 -36 -17 -70 -39 l-64 -38
-3 -1187 -2 -1187 107 3 108 3 -3 108 c-1 59 1 107 5 107 5 0 45 -36 91 -80
130 -124 262 -180 427 -180 280 0 489 174 598 500 49 146 61 238 61 470 0 225
-10 312 -56 455 -68 214 -219 378 -395 428 -60 16 -241 20 -303 6 -123 -28
-252 -103 -355 -208 -33 -34 -63 -61 -68 -61 -6 0 -8 193 -6 467 3 305 1 467
-6 469 -5 2 -21 -5 -35 -16z m681 -851 c162 -53 268 -203 315 -448 19 -102 19
-427 -1 -538 -60 -341 -216 -498 -479 -480 -177 11 -340 103 -448 251 l-28 39
0 458 0 457 39 50 c76 96 210 187 321 217 75 21 207 18 281 -6z"/>
<path d="M10525 4346 c-78 -45 -171 -100 -174 -102 -2 -2 -3 -531 -2 -1176 1
-645 1 -1179 1 -1186 0 -10 25 -12 108 -10 l107 3 -3 250 -4 250 157 220 c86
121 159 226 162 233 11 28 32 8 66 -65 19 -43 59 -127 87 -188 29 -60 64 -137
80 -170 15 -33 43 -94 63 -135 19 -41 51 -111 72 -155 20 -44 55 -117 77 -162
l39 -83 113 0 c62 0 115 2 118 5 3 4 -16 50 -43 103 -26 53 -87 178 -135 277
-47 99 -120 250 -161 335 -139 286 -213 442 -213 446 0 3 32 48 72 102 77 104
139 188 237 322 34 47 67 92 74 100 83 102 79 110 -42 110 -55 0 -106 -3 -115
-6 -9 -3 -79 -99 -157 -212 -78 -114 -195 -283 -259 -377 -64 -93 -154 -225
-199 -292 -45 -68 -84 -123 -88 -123 -3 0 -4 381 -2 847 3 559 1 847 -6 849
-5 1 -19 -3 -30 -10z"/>
<path d="M3405 4146 c-72 -39 -147 -81 -168 -93 l-37 -22 -2 -178 -3 -178
-153 -3 -152 -3 2 -167 3 -167 153 -3 152 -3 0 -537 c0 -585 3 -618 57 -728
39 -81 109 -149 190 -187 64 -29 74 -31 188 -31 100 0 131 4 185 23 79 28 117
50 126 70 10 27 83 326 79 329 -2 2 -29 -10 -61 -26 -101 -50 -158 -64 -239
-60 -65 3 -78 7 -104 32 -56 53 -56 57 -56 606 l0 505 185 5 185 5 0 165 0
165 -185 5 -185 5 -3 273 c-2 208 -5 272 -15 271 -6 -1 -71 -33 -142 -73z"/>
<path d="M1129 3684 c-88 -17 -234 -72 -304 -115 -222 -134 -365 -346 -411
-611 -29 -168 -6 -439 47 -558 79 -175 161 -284 282 -376 181 -137 472 -215
695 -184 146 20 253 59 362 133 60 41 180 157 180 174 0 12 -30 51 -157 200
l-44 53 -67 -54 c-138 -110 -237 -149 -382 -149 -251 -2 -446 138 -525 378
-23 67 -27 96 -27 195 0 98 4 128 26 195 60 179 189 306 363 358 197 59 397 6
567 -148 21 -20 42 -34 46 -33 4 2 51 56 104 122 113 137 113 130 16 219 -110
101 -238 170 -374 201 -83 20 -301 20 -397 0z"/>
<path d="M7325 3689 c-22 -5 -65 -15 -95 -21 -114 -24 -253 -84 -258 -110 -3
-18 67 -170 76 -166 165 78 191 88 287 109 79 18 299 18 345 0 142 -54 199
-117 236 -256 15 -54 20 -399 6 -393 -4 2 -32 15 -62 30 -112 55 -208 73 -395
73 -134 0 -184 -4 -238 -18 -220 -60 -378 -213 -417 -404 -15 -69 -8 -291 10
-343 58 -167 158 -274 305 -325 166 -58 379 -44 538 36 68 35 176 118 224 173
18 20 35 36 37 36 3 0 7 -53 8 -117 l3 -118 108 -3 108 -3 -4 708 c-3 770 -2
743 -62 866 -32 67 -121 155 -194 191 -97 50 -188 66 -366 65 -88 -1 -178 -5
-200 -10z m410 -924 c33 -9 90 -30 128 -47 l67 -31 0 -202 0 -202 -56 -62
c-106 -116 -231 -183 -388 -207 -203 -31 -360 35 -431 181 -52 106 -58 283
-12 386 39 88 133 162 247 195 65 19 365 12 445 -11z"/>
<path d="M9128 3676 c-119 -42 -225 -120 -285 -209 -15 -24 -32 -44 -37 -45
-5 -1 -9 51 -10 116 l-1 117 -109 0 -108 0 -2 -890 -1 -890 110 0 110 0 2 593
c3 555 4 598 23 673 61 246 210 369 445 369 188 0 300 -65 370 -215 58 -125
58 -118 64 -795 l6 -625 108 -3 107 -3 0 603 c0 627 -5 709 -46 835 -63 197
-200 330 -387 378 -93 24 -276 19 -359 -9z"/>
<path d="M2198 3663 c-2 -5 -3 -408 -3 -898 l0 -890 179 -3 c99 -1 183 1 187
5 5 5 5 410 2 901 l-6 892 -178 0 c-98 0 -179 -3 -181 -7z"/>
<path d="M4315 3658 c-3 -7 -4 -411 -3 -898 l3 -885 185 0 185 0 0 73 c0 39
-2 443 -3 897 l-2 825 -180 0 c-135 0 -182 -3 -185 -12z"/>
</g>
</svg>
