<?xml version="1.0" standalone="no"?>
<!DOCTYPE svg PUBLIC "-//W3C//DTD SVG 20010904//EN"
 "http://www.w3.org/TR/2001/REC-SVG-20010904/DTD/svg10.dtd">
<svg version="1.0" xmlns="http://www.w3.org/2000/svg"
 width="1200.000000pt" height="660.000000pt" viewBox="0 0 1200.000000 660.000000"
 preserveAspectRatio="xMidYMid meet">
<metadata>
Created by potrace 1.13, written by Peter Selinger 2001-2015
</metadata>
<g transform="translate(0.000000,660.000000) scale(0.100000,-0.100000)"
fill="#000000" stroke="none">
<path d="M6515 6181 c-142 -41 -239 -120 -299 -243 -61 -123 -69 -229 -26
-352 32 -94 50 -119 202 -273 85 -85 148 -157 146 -165 -4 -11 -94 -12 -515
-9 -556 4 -560 3 -675 -55 -180 -91 -286 -326 -234 -521 47 -178 162 -296 335
-347 47 -14 128 -16 573 -16 418 0 518 -3 518 -13 0 -7 -60 -73 -134 -146
-196 -193 -240 -273 -239 -431 1 -190 98 -341 268 -421 124 -59 237 -60 380
-7 l80 31 574 571 c360 359 588 593 612 630 98 149 104 330 16 489 -25 44
-160 186 -597 623 -311 310 -586 579 -612 595 -114 73 -251 96 -373 60z"/>
<path d="M4073 5311 c-191 -52 -344 -171 -418 -325 -114 -238 -89 -473 74
-689 122 -164 392 -260 603 -216 118 25 289 124 356 208 76 94 131 235 147
371 15 143 -61 352 -174 473 -145 154 -395 230 -588 178z"/>
<path d="M2707 2688 c-21 -35 -11 -1302 10 -1323 23 -23 165 -21 186 3 15 17
17 78 17 670 0 752 14 672 -119 672 -73 0 -82 -2 -94 -22z"/>
<path d="M3080 2700 c-19 -12 -27 -158 -11 -189 11 -19 20 -21 106 -21 113 0
115 2 115 114 0 99 -7 106 -113 106 -45 0 -89 -5 -97 -10z"/>
<path d="M4136 2694 c-14 -14 -16 -87 -16 -660 0 -751 -11 -684 111 -684 117
0 109 -18 109 265 0 192 3 243 13 240 6 -3 65 -109 131 -236 65 -127 128 -239
139 -250 17 -15 35 -19 100 -19 80 0 117 11 117 33 0 12 -37 84 -206 405 -42
80 -52 107 -45 121 6 10 47 76 92 147 45 71 95 151 112 178 l31 49 -25 20
c-34 28 -170 21 -201 -11 -12 -11 -69 -98 -127 -193 -58 -95 -112 -175 -120
-177 -12 -4 -13 50 -7 376 6 342 5 381 -9 396 -23 23 -177 23 -199 0z"/>
<path d="M7468 2699 c-17 -9 -18 -52 -18 -663 0 -620 1 -654 18 -669 16 -15
45 -17 208 -17 200 1 279 11 350 48 50 26 99 80 127 141 20 43 22 62 22 306
l0 260 -31 66 c-49 103 -122 149 -248 156 -66 4 -93 1 -144 -16 -35 -12 -67
-19 -73 -16 -5 4 -9 89 -9 200 0 182 -1 195 -19 205 -25 13 -161 13 -183 -1z
m441 -595 c43 -36 51 -77 50 -269 0 -259 -14 -280 -182 -280 l-102 0 0 270 0
269 45 18 c25 9 71 17 102 17 47 1 62 -4 87 -25z"/>
<path d="M7097 2693 c-4 -3 -7 -98 -7 -210 0 -111 -3 -203 -6 -203 -3 0 -37
10 -76 21 -147 45 -303 9 -368 -86 -52 -76 -60 -125 -60 -385 0 -264 7 -308
63 -382 20 -28 53 -53 90 -72 52 -26 69 -29 145 -29 72 0 97 5 146 27 l59 26
22 -20 c17 -16 35 -20 92 -20 45 0 74 5 81 13 12 14 20 1296 8 1316 -8 12
-178 16 -189 4z m-42 -574 l30 -14 3 -267 2 -268 -37 -16 c-60 -25 -160 -30
-198 -10 -65 35 -70 57 -70 291 0 230 5 251 64 289 32 21 159 18 206 -5z"/>
<path d="M2285 2326 c-161 -28 -250 -123 -277 -293 -13 -86 -5 -415 12 -463
24 -70 40 -96 79 -136 81 -83 209 -117 358 -95 114 16 123 24 123 116 0 39 -5
76 -11 82 -8 8 -48 10 -123 6 -99 -4 -114 -2 -143 16 -65 41 -68 53 -68 277 0
190 1 204 21 231 39 53 77 64 192 57 73 -4 107 -2 118 7 10 8 14 33 14 85 0
88 -10 98 -105 108 -33 4 -73 9 -90 11 -16 2 -61 -2 -100 -9z"/>
<path d="M3695 2324 c-115 -29 -197 -99 -234 -199 -21 -56 -22 -72 -19 -310 3
-242 4 -252 28 -300 68 -138 220 -203 413 -175 117 16 122 21 122 115 0 53 -4
78 -14 84 -7 5 -61 6 -120 3 -122 -5 -158 6 -191 61 -18 29 -20 51 -20 230 0
226 5 244 72 278 36 18 55 21 152 17 l111 -3 5 70 c7 85 5 97 -22 114 -22 14
-243 25 -283 15z"/>
<path d="M3103 2310 c-12 -5 -27 -18 -33 -29 -7 -15 -10 -156 -8 -462 3 -511
-7 -469 113 -469 48 0 78 5 93 16 l22 15 0 447 c0 246 -4 452 -8 458 -21 32
-125 46 -179 24z"/>
<path d="M5065 2310 c-16 -4 -47 -11 -68 -15 -59 -10 -77 -34 -77 -103 0 -33
6 -66 13 -76 13 -18 18 -18 109 -2 243 41 328 4 328 -146 l0 -57 -132 2 c-160
2 -227 -14 -289 -70 -57 -52 -81 -104 -87 -189 -9 -141 34 -231 134 -280 50
-24 68 -28 148 -27 80 0 99 4 158 31 l67 30 16 -24 c14 -22 22 -24 90 -24 54
0 78 4 89 16 14 13 16 55 16 302 0 411 -13 495 -90 569 -57 56 -121 73 -268
72 -70 0 -140 -4 -157 -9z m303 -646 c3 -101 3 -101 -68 -127 -83 -29 -157
-26 -198 8 -52 44 -55 130 -6 178 32 32 46 35 169 33 l100 -1 3 -91z"/>
<path d="M6037 2296 c-32 -13 -65 -30 -74 -37 -11 -10 -17 -11 -20 -3 -12 36
-30 44 -101 47 -43 3 -78 -1 -88 -7 -13 -10 -15 -69 -15 -459 0 -333 3 -452
12 -463 13 -16 154 -20 177 -5 11 6 13 77 12 353 0 283 2 347 13 357 25 20
129 51 171 51 58 0 99 -28 114 -77 8 -28 12 -139 12 -355 0 -231 3 -317 12
-326 7 -7 43 -12 90 -12 70 0 79 2 90 23 10 17 12 101 8 388 l-5 365 -30 59
c-23 45 -42 66 -79 90 -45 27 -58 30 -145 33 -83 2 -104 -1 -154 -22z"/>
<path d="M8349 2301 l-24 -19 3 -354 c3 -376 8 -420 54 -488 75 -111 252 -139
402 -63 l49 25 24 -26 c21 -23 31 -26 97 -26 115 0 106 -40 106 488 l0 451
-22 15 c-15 11 -45 16 -88 16 -43 0 -73 -5 -88 -16 l-22 -15 0 -343 c0 -266
-3 -346 -13 -354 -7 -6 -42 -20 -79 -33 -78 -25 -123 -21 -165 16 l-28 23 -3
344 c-2 334 -3 343 -23 361 -31 25 -148 24 -180 -2z"/>
<path d="M9158 2309 c-10 -5 -18 -19 -18 -31 0 -11 65 -218 145 -460 80 -243
145 -451 145 -462 0 -12 -22 -87 -50 -165 -27 -79 -50 -151 -50 -162 0 -28 31
-39 117 -39 100 0 110 9 151 132 49 148 204 605 282 828 83 237 110 319 110
331 0 4 -7 15 -16 23 -21 22 -170 23 -200 2 -15 -11 -47 -94 -115 -301 -51
-157 -98 -284 -104 -282 -5 2 -17 28 -26 58 -117 375 -162 506 -180 522 -16
13 -39 17 -98 17 -42 0 -84 -5 -93 -11z"/>
<path d="M2072 717 c-48 -51 -44 -130 7 -166 16 -12 34 -21 41 -21 6 0 24 -7
40 -15 23 -12 30 -23 30 -44 0 -43 -20 -53 -92 -49 -58 3 -63 1 -66 -19 -4
-26 20 -41 80 -49 83 -11 148 40 148 116 0 50 -25 85 -77 109 -88 40 -99 54
-67 86 14 14 29 16 71 12 43 -5 55 -2 62 11 6 11 6 24 0 35 -8 14 -24 17 -83
17 -63 0 -75 -3 -94 -23z"/>
<path d="M2386 732 c-6 -10 -21 -56 -65 -202 -18 -58 -36 -114 -41 -126 -21
-54 45 -60 70 -6 15 32 16 32 75 30 54 -3 60 -5 63 -26 4 -25 36 -46 58 -38
19 7 18 39 -5 105 -10 31 -28 90 -41 131 -37 125 -45 140 -79 140 -17 0 -32
-4 -35 -8z m68 -204 c6 -27 5 -28 -33 -28 l-39 0 19 52 c10 29 19 55 19 58 1
9 27 -54 34 -82z"/>
<path d="M2607 734 c-4 -4 -7 -85 -7 -179 0 -145 3 -175 16 -186 11 -9 20 -10
32 -2 13 7 18 28 20 82 2 39 6 71 10 72 113 9 129 15 119 43 -4 10 -23 16 -64
18 l-58 3 0 45 0 45 65 5 c61 5 65 6 65 30 0 25 -1 25 -95 28 -53 1 -99 0
-103 -4z"/>
<path d="M2857 734 c-4 -4 -7 -87 -7 -185 0 -152 2 -178 16 -183 24 -9 167 -7
182 3 8 5 12 17 10 27 -3 16 -14 19 -71 22 l-68 3 3 52 3 52 45 -3 c51 -4 87
16 77 42 -5 12 -20 16 -67 16 l-60 0 0 50 0 49 68 3 c64 3 67 4 67 28 0 25 -1
25 -95 28 -53 1 -99 0 -103 -4z"/>
<path d="M3346 732 c-7 -11 -27 -74 -66 -202 -17 -58 -35 -115 -40 -126 -5
-14 -4 -26 3 -33 21 -21 47 -12 64 24 17 36 17 36 78 33 54 -3 60 -5 63 -26 4
-25 36 -46 58 -38 16 6 18 34 5 68 -5 13 -23 70 -41 128 -52 171 -53 175 -88
178 -17 2 -33 -1 -36 -6z m68 -207 l7 -35 -41 0 c-25 0 -40 5 -40 13 0 15 27
104 36 119 7 11 28 -41 38 -97z"/>
<path d="M3567 733 c-4 -3 -7 -86 -7 -184 0 -170 1 -178 20 -184 42 -13 52 11
48 116 -2 62 1 95 7 92 6 -2 30 -47 55 -99 46 -98 66 -120 101 -109 19 6 19
15 17 188 l-3 182 -25 0 c-25 0 -25 -1 -30 -109 -6 -124 -5 -124 -70 4 -23 47
-47 91 -53 98 -10 13 -49 17 -60 5z"/>
<path d="M3877 733 c-4 -3 -7 -86 -7 -184 l0 -179 26 -6 c41 -10 148 2 176 20
38 25 48 58 48 167 0 156 -28 189 -163 189 -40 0 -77 -3 -80 -7z m159 -67 c17
-13 19 -27 19 -115 0 -114 -9 -130 -77 -131 l-37 0 -3 120 c-2 66 -1 125 0
130 5 15 76 12 98 -4z"/>
<path d="M4361 714 c-28 -23 -31 -32 -31 -79 0 -61 15 -79 93 -109 46 -17 60
-38 50 -76 -7 -25 -32 -33 -91 -28 -44 3 -47 1 -50 -23 -3 -23 2 -28 41 -39
55 -15 98 -6 137 27 27 22 30 31 30 83 0 52 -3 61 -28 82 -16 13 -47 30 -70
37 -53 18 -68 54 -32 83 18 15 32 17 71 12 40 -5 50 -4 55 10 12 31 -15 46
-81 46 -54 0 -68 -4 -94 -26z"/>
<path d="M4584 725 c-9 -22 4 -35 37 -35 l30 0 -3 -137 c-3 -133 -4 -138 -24
-139 -28 -1 -44 -12 -44 -29 0 -20 24 -25 110 -25 56 0 81 4 90 15 17 20 4 35
-31 35 l-29 0 0 140 0 140 29 0 c29 0 42 14 33 38 -7 19 -191 17 -198 -3z"/>
<path d="M4847 734 c-4 -4 -7 -87 -7 -185 0 -172 1 -178 21 -184 12 -4 25 -3
30 2 4 4 10 55 11 113 3 115 2 115 50 -5 22 -54 27 -60 53 -60 26 0 31 6 53
60 48 118 47 118 50 4 1 -57 7 -108 11 -112 5 -5 19 -6 30 -2 21 6 21 11 19
188 l-3 182 -26 3 c-33 4 -38 -3 -89 -132 l-44 -109 -14 34 c-16 37 -29 70
-44 109 -28 72 -44 95 -68 98 -14 2 -29 0 -33 -4z"/>
<path d="M5236 732 c-10 -16 -8 -354 2 -364 6 -6 19 -7 31 -3 19 6 21 14 21
76 l0 69 40 0 c85 0 130 39 130 115 0 53 -17 83 -57 104 -25 13 -159 15 -167
3z m148 -68 c40 -39 7 -97 -53 -92 -34 3 -36 5 -39 42 -2 21 -1 44 2 52 7 19
71 18 90 -2z"/>
<path d="M5517 734 c-4 -4 -7 -87 -7 -185 0 -152 2 -178 16 -183 24 -9 167 -7
182 3 8 5 12 17 10 27 -3 16 -14 19 -70 22 l-67 3 -3 157 -3 157 -25 3 c-14 2
-29 0 -33 -4z"/>
<path d="M5771 721 c-16 -29 -14 -334 1 -349 14 -14 165 -16 186 -3 8 5 12 17
10 27 -3 16 -15 20 -68 24 -63 5 -65 6 -68 34 -2 15 -1 39 2 52 5 20 11 23 31
18 14 -3 41 -3 60 0 28 6 35 11 35 31 0 23 -4 24 -62 27 l-63 3 0 45 0 45 65
5 c61 5 65 6 65 30 0 25 -1 25 -92 28 -83 2 -93 1 -102 -17z"/>
<path d="M6218 717 c-41 -35 -48 -58 -48 -170 0 -92 3 -108 23 -137 12 -18 39
-40 61 -48 34 -14 43 -14 80 0 25 9 50 28 64 48 20 29 22 45 22 146 l0 113
-34 35 c-30 33 -38 36 -87 36 -41 0 -60 -5 -81 -23z m110 -43 c20 -14 22 -23
22 -123 0 -117 -6 -131 -53 -131 -49 0 -57 18 -57 134 0 97 2 106 22 120 12 9
27 16 33 16 6 0 21 -7 33 -16z"/>
<path d="M6477 734 c-4 -4 -7 -87 -7 -185 0 -170 1 -178 20 -184 39 -12 49 10
52 116 l3 99 54 -105 c41 -80 60 -107 78 -112 14 -3 29 -1 34 4 5 5 8 85 7
189 -3 175 -3 179 -25 182 -33 5 -45 -29 -43 -122 2 -44 2 -85 1 -91 -1 -5
-27 40 -59 100 -48 92 -61 110 -82 113 -14 2 -29 0 -33 -4z"/>
<path d="M6787 733 c-4 -3 -7 -86 -7 -184 0 -152 2 -178 16 -183 9 -3 51 -6
94 -6 81 0 106 12 94 44 -5 12 -20 16 -70 16 -44 0 -64 4 -65 13 0 6 0 70 0
141 0 71 -4 137 -10 147 -10 19 -39 25 -52 12z"/>
<path d="M7027 734 c-4 -4 -7 -16 -7 -26 0 -14 8 -18 35 -18 l36 0 -3 -137 -3
-138 -32 -3 c-17 -2 -34 -9 -37 -17 -10 -27 21 -36 111 -33 82 3 88 5 91 25 3
18 -2 22 -30 25 l-33 3 0 135 0 135 30 5 c22 4 30 11 30 25 0 18 -8 20 -90 23
-50 1 -94 0 -98 -4z"/>
<path d="M7277 733 c-11 -11 -8 -361 3 -368 6 -3 19 -3 30 0 18 6 20 15 20
112 0 59 3 103 8 99 4 -4 30 -51 57 -103 54 -104 74 -125 103 -107 15 10 17
32 20 179 3 177 -2 199 -42 193 -19 -3 -21 -11 -26 -113 l-5 -110 -32 62 c-46
87 -73 136 -85 151 -11 13 -40 16 -51 5z"/>
<path d="M7582 728 c-19 -19 -17 -341 2 -357 9 -8 46 -11 103 -9 88 3 88 3 91
31 l3 27 -71 0 -71 0 3 53 3 52 63 3 c58 3 62 4 62 27 0 24 -3 25 -66 25 l-65
0 3 48 3 47 65 5 c61 5 65 6 65 30 0 25 -1 25 -90 28 -62 2 -94 -1 -103 -10z"/>
<path d="M7986 724 c-3 -9 -6 -89 -6 -179 0 -136 3 -165 16 -176 30 -25 49 1
50 72 l1 64 49 5 c85 10 124 45 124 115 0 79 -50 115 -158 115 -55 0 -71 -3
-76 -16z m152 -53 c8 -5 12 -23 10 -47 -2 -31 -8 -40 -29 -48 -14 -5 -38 -6
-53 -2 -23 6 -26 11 -26 50 0 23 3 46 7 49 9 10 75 8 91 -2z"/>
<path d="M8313 728 c-6 -7 -27 -67 -48 -133 -20 -66 -44 -140 -51 -164 -8 -24
-12 -51 -9 -58 9 -25 49 -10 65 24 14 31 17 33 75 33 58 0 61 -2 75 -33 8 -17
23 -34 34 -35 36 -7 39 13 13 95 -14 43 -37 119 -52 168 -32 103 -39 115 -70
115 -12 0 -27 -6 -32 -12z m56 -153 c5 -22 13 -50 16 -62 7 -22 4 -23 -39 -23
-25 0 -46 3 -46 6 0 4 8 33 36 123 7 21 21 2 33 -44z"/>
<path d="M8448 734 c-7 -6 0 -28 31 -97 10 -23 28 -63 40 -89 14 -31 21 -67
21 -106 0 -65 15 -88 50 -77 17 5 20 15 20 66 0 37 7 76 19 102 86 193 90 207
52 207 -26 0 -45 -26 -72 -98 -13 -34 -27 -61 -32 -59 -4 1 -22 36 -40 77 -27
62 -37 76 -57 78 -14 2 -29 0 -32 -4z"/>
<path d="M8746 732 c-10 -16 -8 -354 2 -364 5 -5 18 -8 28 -6 17 3 20 16 24
108 l5 105 23 -48 c12 -27 22 -53 22 -58 0 -21 33 -59 51 -59 23 0 52 45 71
107 7 23 16 43 20 43 4 0 9 -41 10 -91 2 -73 6 -94 20 -102 12 -8 21 -7 32 2
14 12 16 38 14 184 -3 149 -5 171 -20 181 -36 22 -58 -15 -142 -229 -4 -11
-10 2 -57 125 -18 47 -37 91 -42 98 -11 14 -53 16 -61 4z"/>
<path d="M9132 728 c-8 -8 -12 -62 -12 -178 0 -116 4 -170 12 -178 18 -18 172
-16 188 3 24 29 4 44 -62 47 l-63 3 0 50 0 50 60 5 c52 4 60 8 60 25 0 17 -8
21 -60 25 l-60 5 0 45 0 45 60 3 c67 3 80 11 70 41 -6 19 -14 21 -94 21 -54 0
-91 -4 -99 -12z"/>
<path d="M9386 732 c-10 -16 -8 -354 2 -364 5 -5 18 -8 28 -6 17 3 20 16 24
117 l5 115 55 -108 c57 -113 85 -141 115 -116 12 10 15 41 15 175 0 90 -3 170
-6 179 -8 21 -50 21 -58 0 -3 -9 -6 -56 -6 -105 0 -49 -3 -89 -7 -89 -5 1 -31
47 -59 103 -43 86 -54 102 -76 105 -14 2 -29 -1 -32 -6z"/>
<path d="M9664 725 c-12 -30 4 -45 46 -45 l40 0 0 -155 0 -155 26 -6 c14 -4
30 -2 34 2 5 5 11 77 12 159 l3 150 30 -3 c40 -4 75 29 55 53 -18 22 -238 22
-246 0z"/>
</g>
</svg>
