<?xml version="1.0" standalone="no"?>
<!DOCTYPE svg PUBLIC "-//W3C//DTD SVG 20010904//EN"
 "http://www.w3.org/TR/2001/REC-SVG-20010904/DTD/svg10.dtd">
<svg version="1.0" xmlns="http://www.w3.org/2000/svg"
 width="1200.000000pt" height="660.000000pt" viewBox="0 0 1200.000000 660.000000"
 preserveAspectRatio="xMidYMid meet">
<metadata>
Created by potrace 1.13, written by Peter Selinger 2001-2015
</metadata>
<g transform="translate(0.000000,660.000000) scale(0.100000,-0.100000)"
fill="#000000" stroke="none">
<path d="M1815 4164 c-166 -35 -235 -50 -295 -64 -65 -15 -474 -101 -520 -109
-25 -5 -126 -25 -225 -45 -99 -20 -187 -36 -196 -36 -37 0 -115 -51 -142 -92
-23 -35 -27 -53 -27 -111 0 -62 3 -73 30 -108 18 -22 55 -50 88 -66 168 -82
318 -173 409 -250 28 -23 55 -43 60 -43 5 0 51 42 102 94 61 61 92 99 88 109
-12 33 -277 207 -314 207 -6 0 -14 7 -17 15 -8 22 14 29 214 69 96 20 231 47
300 62 333 70 555 112 563 107 12 -7 2 -84 -39 -293 -18 -96 -40 -211 -49
-255 -84 -442 -104 -535 -116 -535 -5 0 -21 24 -35 53 -57 112 -190 287 -218
287 -12 0 -196 -180 -196 -192 0 -4 24 -34 53 -67 72 -80 149 -193 223 -326
35 -63 76 -121 95 -137 46 -37 118 -50 178 -32 86 25 129 87 150 214 7 41 19
107 26 145 7 39 23 122 35 185 23 124 147 739 161 805 45 201 53 257 40 302
-14 53 -52 98 -102 123 -54 28 -133 24 -324 -16z"/>
<path d="M4062 4148 c-9 -9 -12 -177 -12 -725 0 -699 0 -712 20 -723 12 -6 85
-9 192 -8 l173 3 0 730 0 730 -180 3 c-132 2 -184 -1 -193 -10z"/>
<path d="M3195 4119 c-173 -15 -333 -88 -451 -206 -81 -81 -124 -145 -163
-243 -42 -106 -55 -193 -48 -325 9 -177 68 -320 184 -445 115 -124 258 -198
443 -228 174 -28 382 15 525 108 74 48 195 170 195 197 0 10 -20 31 -48 50
-26 17 -86 59 -134 92 -48 34 -90 61 -94 61 -3 0 -32 -23 -63 -52 -106 -97
-237 -130 -363 -93 -61 17 -142 74 -175 122 -36 52 -64 134 -70 202 -14 163
64 314 195 378 51 25 67 28 152 27 114 -1 156 -17 249 -94 58 -49 65 -52 85
-40 40 25 244 180 257 196 10 13 3 25 -52 81 -165 169 -358 234 -624 212z"/>
<path d="M8027 4093 c-13 -12 -8 -338 5 -351 14 -14 395 -17 417 -3 11 7 11
18 1 62 -7 30 -17 67 -23 82 -15 41 4 55 40 32 88 -58 413 -309 413 -319 0
-11 -360 -283 -415 -313 -11 -6 -27 -8 -34 -4 -13 8 -9 35 21 129 6 21 6 38 1
43 -5 5 -100 8 -219 7 l-209 -3 -3 -377 -2 -378 22 -5 c13 -3 102 -4 198 -3
l175 3 3 197 c2 195 3 198 25 202 12 3 94 7 182 10 163 4 191 10 280 53 75 38
113 70 150 127 46 72 65 135 77 251 24 237 -52 424 -203 500 -113 58 -172 65
-550 65 -190 0 -349 -3 -352 -7z"/>
<path d="M5040 3786 c-201 -54 -346 -195 -401 -391 -19 -66 -19 -276 0 -330
64 -184 156 -282 337 -357 76 -31 84 -32 224 -33 158 0 201 9 312 67 71 37
171 129 163 149 -6 13 -176 150 -195 157 -5 2 -30 -12 -57 -31 -117 -84 -266
-90 -358 -15 -33 28 -75 93 -75 118 0 7 117 10 359 10 309 0 360 2 371 15 14
17 8 144 -11 237 -42 198 -189 353 -382 403 -68 18 -222 18 -287 1z m213 -280
c44 -19 83 -63 101 -114 26 -73 27 -72 -179 -72 -101 0 -186 4 -189 9 -9 13
21 90 48 126 14 18 40 39 58 48 41 20 118 22 161 3z"/>
<path d="M6235 3785 c-163 -21 -292 -64 -288 -95 1 -8 11 -46 23 -85 12 -38
25 -85 30 -104 13 -52 21 -55 91 -31 69 24 256 38 324 26 51 -10 121 -79 130
-129 11 -57 -2 -65 -79 -44 -44 12 -103 17 -188 17 -108 0 -132 -3 -202 -27
-154 -54 -229 -156 -229 -315 0 -67 5 -85 34 -144 62 -124 165 -179 334 -179
115 0 166 15 256 76 31 21 59 35 63 32 3 -4 6 -20 6 -38 0 -52 9 -55 191 -55
134 0 171 3 182 15 13 12 14 65 11 352 -3 186 -10 365 -15 398 -35 195 -178
306 -431 334 -111 13 -111 13 -243 -4z m293 -634 c33 -17 31 -99 -3 -158 -35
-58 -85 -83 -167 -83 -110 0 -164 62 -138 160 20 73 83 103 206 96 44 -2 91
-9 102 -15z"/>
<path d="M7755 3786 c-85 -26 -129 -58 -203 -149 -32 -39 -45 -26 -36 39 3 29
3 65 0 79 l-6 25 -190 0 -190 0 -2 -531 c-2 -292 1 -537 5 -545 6 -11 42 -14
182 -14 151 0 176 2 191 17 15 16 16 36 11 191 -6 198 3 282 38 351 42 85 108
127 224 145 l76 12 0 194 0 195 -30 1 c-16 1 -48 -4 -70 -10z"/>
<path d="M9630 3789 c-143 -14 -330 -65 -330 -92 0 -16 49 -176 66 -215 11
-26 19 -32 32 -27 58 25 177 45 267 45 85 0 108 -4 145 -22 56 -29 81 -64 88
-123 l5 -48 -34 6 c-19 4 -56 12 -84 17 -88 19 -261 14 -337 -10 -171 -53
-261 -181 -245 -350 11 -120 79 -214 195 -268 52 -25 68 -27 172 -26 103 0
121 3 175 28 33 15 77 40 98 57 20 17 42 27 47 24 6 -3 10 -24 10 -46 0 -24 5
-39 13 -40 10 -1 234 0 335 1 l33 0 -3 378 c-4 367 -4 379 -27 437 -62 160
-192 250 -386 270 -122 12 -142 12 -235 4z m219 -630 c58 -12 64 -24 55 -95
-12 -98 -82 -154 -191 -154 -74 0 -112 20 -133 70 -16 38 -7 105 17 132 46 52
144 70 252 47z"/>
<path d="M10356 3772 c-2 -4 10 -42 29 -84 18 -42 97 -233 175 -425 78 -191
148 -361 155 -378 44 -103 64 -165 59 -178 -16 -42 -116 -46 -196 -7 -23 11
-45 20 -50 20 -9 0 -118 -226 -118 -246 0 -26 100 -71 208 -93 68 -14 219 -14
263 0 63 20 117 51 153 88 77 79 105 140 326 726 56 149 106 274 111 279 5 6
9 16 9 23 0 7 8 32 19 56 10 23 29 69 41 102 12 33 26 68 31 77 25 48 22 49
-187 46 -163 -3 -198 -6 -205 -18 -4 -8 -23 -67 -43 -130 -19 -63 -57 -187
-85 -276 -28 -88 -51 -165 -51 -171 0 -6 -6 -16 -14 -22 -11 -9 -16 -9 -23 1
-4 7 -53 148 -108 313 l-100 300 -197 3 c-108 1 -199 -1 -202 -6z"/>
</g>
</svg>
