<?xml version="1.0" standalone="no"?>
<!DOCTYPE svg PUBLIC "-//W3C//DTD SVG 20010904//EN"
 "http://www.w3.org/TR/2001/REC-SVG-20010904/DTD/svg10.dtd">
<svg version="1.0" xmlns="http://www.w3.org/2000/svg"
 width="1200.000000pt" height="660.000000pt" viewBox="0 0 1200.000000 660.000000"
 preserveAspectRatio="xMidYMid meet">
<metadata>
Created by potrace 1.13, written by Peter Selinger 2001-2015
</metadata>
<g transform="translate(0.000000,660.000000) scale(0.100000,-0.100000)"
fill="#000000" stroke="none">
<path d="M4380 6171 c-14 -4 -40 -11 -57 -15 -18 -5 -33 -12 -33 -16 0 -4 -11
-10 -23 -14 -30 -7 -159 -131 -178 -171 -8 -16 -17 -32 -20 -35 -3 -3 -19 -36
-35 -75 l-29 -70 0 -1400 c0 -1299 1 -1403 17 -1447 75 -204 209 -333 383
-367 17 -3 356 -6 755 -6 l725 0 3 204 c2 134 -1 208 -8 216 -6 8 -40 15 -78
18 -78 5 -271 51 -324 78 -10 5 -23 9 -30 9 -16 0 -158 70 -176 87 -7 7 -30
20 -50 30 -20 9 -55 32 -78 50 -23 18 -45 33 -49 33 -12 0 -215 203 -215 215
0 6 -16 27 -35 49 -19 21 -35 43 -35 49 0 6 -7 18 -16 28 -23 26 -114 209
-114 230 0 10 -4 21 -10 24 -5 3 -10 14 -10 24 0 10 -7 32 -15 47 -8 16 -15
46 -15 66 0 20 -4 40 -10 43 -5 3 -10 28 -10 54 0 26 -5 52 -11 58 -13 13 -6
257 10 358 7 39 14 90 17 115 4 25 13 54 20 65 8 11 14 27 14 37 0 10 9 33 20
53 11 20 20 41 20 48 0 15 56 125 74 147 7 8 20 31 29 50 9 19 34 53 56 75 23
21 41 44 41 50 0 16 188 205 204 205 7 0 25 14 42 31 16 17 48 39 71 50 23 10
47 24 55 31 17 17 120 68 135 68 7 0 27 8 45 18 18 10 44 21 58 25 14 3 50 13
80 22 185 56 463 67 700 27 82 -14 246 -66 264 -83 6 -5 19 -9 31 -9 12 0 25
-4 31 -9 18 -16 105 -61 119 -61 8 0 15 -4 15 -9 0 -5 15 -16 33 -24 18 -9 41
-25 52 -37 10 -11 23 -20 29 -20 14 0 266 -251 266 -265 0 -5 13 -23 29 -40
16 -16 41 -53 56 -82 14 -29 30 -55 35 -58 6 -3 10 -13 10 -20 0 -8 16 -47 35
-86 19 -40 35 -78 35 -86 0 -7 4 -21 9 -31 31 -60 65 -322 58 -442 -7 -112
-25 -238 -37 -262 -19 -35 9 -38 286 -36 l269 3 0 885 c0 967 4 896 -57 1027
-21 47 -105 163 -117 163 -3 0 -22 14 -41 30 -19 16 -39 30 -44 30 -5 0 -17 6
-25 13 -9 8 -40 21 -70 30 -49 16 -181 17 -1605 16 -853 -1 -1562 -5 -1576 -8z"/>
<path d="M5865 5250 c-3 -5 -27 -10 -53 -10 -26 0 -56 -7 -66 -15 -10 -8 -23
-12 -28 -9 -5 3 -20 -1 -33 -10 -13 -9 -30 -16 -37 -16 -21 0 -173 -76 -187
-94 -7 -9 -19 -16 -25 -16 -6 0 -41 -29 -76 -65 -35 -36 -72 -65 -82 -65 -11
0 -18 -7 -18 -18 0 -10 -16 -33 -35 -52 -19 -19 -35 -39 -35 -46 0 -6 -7 -17
-15 -24 -24 -20 -115 -213 -115 -243 0 -15 -7 -38 -15 -51 -18 -27 -19 -41
-17 -225 1 -97 6 -141 17 -164 8 -16 15 -43 15 -58 0 -15 5 -31 10 -34 6 -3
10 -15 10 -26 0 -10 5 -19 10 -19 6 0 10 -8 11 -17 0 -10 9 -31 20 -48 10 -16
23 -39 28 -50 5 -12 16 -27 25 -34 9 -7 16 -18 16 -23 0 -5 16 -28 35 -51 19
-22 35 -46 35 -52 0 -15 43 -55 59 -55 7 0 34 -22 60 -50 26 -27 54 -50 62
-50 8 0 21 -9 29 -20 8 -11 22 -20 30 -20 9 0 20 -4 25 -9 24 -21 108 -61 130
-61 14 0 25 -4 25 -10 0 -5 13 -10 29 -10 17 0 33 -4 36 -10 3 -5 23 -10 44
-10 20 0 42 -5 49 -12 16 -16 276 -18 292 -2 7 7 29 9 54 7 30 -4 45 -1 55 11
7 9 28 16 45 16 36 0 245 102 302 146 67 54 194 177 194 189 0 7 9 20 20 30
11 10 20 25 20 33 0 8 11 23 25 34 14 11 25 26 25 33 0 8 9 30 20 50 11 20 20
45 20 56 0 11 7 27 15 36 8 8 12 19 9 24 -3 6 2 26 11 46 19 39 34 295 20 330
-4 10 -9 33 -11 51 -3 35 -21 95 -35 124 -5 10 -9 24 -9 31 0 15 -53 121 -72
144 -7 8 -17 23 -23 33 -29 50 -55 81 -119 148 -39 39 -75 72 -82 72 -6 0 -21
11 -34 25 -24 25 -214 125 -238 125 -7 0 -24 7 -37 16 -13 9 -28 13 -33 10 -5
-3 -18 1 -28 9 -10 8 -36 15 -56 15 -20 0 -40 5 -43 10 -4 6 -62 10 -140 10
-78 0 -136 -4 -140 -10z"/>
<path d="M6985 3483 c-48 -3 -141 -41 -178 -71 -9 -9 -27 -20 -39 -26 -13 -6
-28 -22 -34 -34 -6 -13 -20 -33 -30 -45 -37 -43 -44 -67 -44 -145 0 -63 5 -88
24 -128 50 -99 172 -194 251 -194 19 0 37 -4 40 -10 3 -5 30 -10 60 -10 30 0
57 5 60 10 3 6 24 10 45 10 21 0 42 5 45 10 3 6 16 10 28 10 26 0 156 120 180
167 10 18 17 43 17 57 0 14 5 28 11 32 6 3 9 20 5 38 -3 17 -8 47 -11 66 -11
57 -33 97 -78 139 -58 55 -128 101 -152 101 -12 0 -25 4 -30 9 -13 11 -105 19
-170 14z"/>
<path d="M7546 2785 c-15 -8 -34 -15 -40 -15 -17 0 -69 -59 -85 -95 -7 -16
-17 -38 -22 -47 -12 -24 -11 -65 1 -73 6 -3 10 -18 10 -33 0 -31 74 -112 102
-112 10 0 18 -4 18 -10 0 -5 13 -10 29 -10 17 0 33 -4 36 -10 3 -5 17 -10 30
-10 13 0 27 5 30 10 3 6 24 10 46 10 36 0 47 7 100 59 45 45 59 66 59 88 0 16
5 34 11 40 8 8 8 17 0 31 -6 11 -11 28 -11 37 0 30 -79 114 -127 135 -55 24
-145 26 -187 5z"/>
<path d="M2835 1440 c-121 -20 -192 -56 -278 -139 -137 -131 -188 -351 -131
-561 24 -89 54 -141 121 -207 114 -113 252 -156 441 -135 97 11 172 28 188 44
3 4 -2 29 -11 57 l-16 51 -34 -14 c-19 -8 -68 -20 -111 -26 -184 -28 -341 46
-415 196 -36 73 -48 159 -38 280 10 130 99 266 202 309 23 9 50 21 59 26 31
16 241 11 283 -7 21 -8 42 -13 49 -11 6 3 17 24 24 47 15 50 9 59 -48 77 -47
15 -223 23 -285 13z"/>
<path d="M4810 1440 c-259 -35 -438 -251 -440 -529 0 -69 4 -95 33 -196 46
-164 190 -285 377 -315 124 -20 360 13 360 50 0 6 -6 28 -12 50 -13 39 -33 51
-54 31 -5 -5 -46 -14 -92 -20 -188 -27 -357 42 -420 172 -43 89 -47 111 -47
232 0 77 5 133 14 155 49 129 99 187 199 232 61 28 74 30 181 30 83 0 127 -5
153 -16 21 -9 40 -16 43 -16 7 0 35 70 35 90 0 38 -199 68 -330 50z"/>
<path d="M3353 1428 c-10 -17 -4 -1000 6 -1011 4 -4 131 -6 282 -5 l274 3 3
29 c2 15 1 39 -2 52 l-6 24 -215 0 -215 0 0 454 c0 508 7 466 -75 466 -24 0
-47 -6 -52 -12z"/>
<path d="M4070 1421 c-12 -24 -14 -979 -1 -999 5 -9 26 -12 67 -10 l59 3 3
500 c3 563 8 525 -75 525 -32 0 -45 -5 -53 -19z"/>
<path d="M5315 1418 c-3 -7 -4 -236 -3 -508 l3 -495 60 0 60 0 5 196 5 196 45
49 c24 27 47 50 51 52 3 1 52 -66 108 -150 56 -84 131 -197 167 -250 l65 -98
64 0 c35 0 66 4 70 10 3 5 -16 40 -43 77 -100 140 -332 490 -332 500 0 9 189
236 307 367 23 26 43 52 43 57 0 5 -33 9 -74 9 l-73 0 -55 -67 c-30 -38 -111
-139 -181 -226 -70 -87 -127 -162 -127 -167 0 -6 -9 -10 -20 -10 -19 0 -20 7
-20 235 l0 235 -60 0 c-39 0 -62 -4 -65 -12z"/>
<path d="M6180 1415 l-35 -13 0 -488 0 -488 100 -14 c80 -11 117 -11 185 -2
98 13 170 31 170 42 0 3 10 10 23 13 29 9 117 95 117 115 0 8 7 24 15 34 27
36 17 159 -15 194 -10 10 -20 27 -22 38 -4 23 -105 93 -135 93 -26 1 -34 41
-8 41 20 0 85 42 105 66 27 33 40 63 40 88 0 14 5 28 10 31 6 3 10 17 10 30 0
13 -4 27 -10 30 -5 3 -10 17 -10 29 0 32 -74 113 -124 136 -22 10 -62 23 -88
29 -63 15 -284 12 -328 -4z m345 -107 c41 -22 59 -46 74 -96 10 -34 10 -51 0
-80 -31 -94 -85 -125 -232 -130 l-98 -4 3 164 3 163 55 5 c75 7 159 -3 195
-22z m-20 -433 c54 -18 98 -54 121 -97 17 -32 18 -121 3 -151 -43 -84 -145
-130 -275 -125 l-79 3 -3 185 c-1 101 0 191 3 199 7 19 161 10 230 -14z"/>
<path d="M7243 1424 c-7 -3 -13 -12 -13 -20 0 -8 -4 -22 -9 -32 -5 -9 -14 -37
-21 -62 -7 -25 -16 -53 -21 -62 -5 -10 -9 -29 -9 -42 0 -13 -5 -26 -10 -28 -6
-2 -12 -14 -13 -28 -1 -14 -7 -34 -13 -45 -6 -11 -16 -40 -23 -65 -7 -25 -17
-53 -22 -62 -5 -10 -9 -26 -9 -35 0 -10 -7 -27 -15 -37 -8 -11 -15 -30 -15
-42 0 -13 -4 -26 -10 -29 -5 -3 -10 -17 -10 -30 0 -13 -4 -27 -10 -30 -5 -3
-10 -19 -10 -35 0 -16 -4 -32 -10 -35 -5 -3 -10 -14 -10 -24 0 -10 -6 -31 -14
-46 -8 -15 -12 -33 -10 -40 3 -7 -2 -15 -10 -18 -10 -4 -16 -18 -16 -36 0 -16
-4 -33 -10 -36 -5 -3 -10 -17 -10 -30 0 -13 -4 -27 -10 -30 -25 -15 -5 -25 48
-25 l59 0 12 43 c7 23 17 50 22 59 5 10 9 27 9 37 0 11 5 23 10 26 6 3 10 19
10 35 0 16 5 32 10 35 6 3 10 17 10 29 0 44 18 48 210 47 100 0 185 -3 191 -6
5 -4 9 -13 9 -21 0 -8 5 -14 11 -14 6 0 8 -7 5 -16 -3 -9 0 -28 8 -42 8 -15
19 -47 26 -72 7 -25 16 -54 20 -65 5 -11 11 -32 14 -48 6 -26 9 -27 71 -27 36
0 65 3 65 8 0 4 -12 30 -25 57 -14 28 -25 58 -25 67 0 9 -4 20 -10 23 -5 3
-10 19 -10 36 0 16 -4 29 -10 29 -5 0 -10 13 -10 29 0 17 -4 33 -10 36 -5 3
-10 16 -10 29 0 12 -5 27 -10 32 -6 6 -13 21 -15 35 -3 13 -9 33 -14 44 -5 11
-17 46 -26 77 -9 32 -21 61 -26 64 -5 3 -7 10 -3 15 3 5 -1 21 -10 34 -9 13
-16 35 -16 49 0 14 -4 28 -10 31 -5 3 -10 17 -10 30 0 13 -4 27 -10 30 -5 3
-10 15 -10 26 0 10 -4 27 -9 37 -5 9 -15 37 -21 62 -12 44 -25 80 -40 110 -5
11 -26 16 -71 17 -35 1 -70 -1 -76 -3z m85 -161 c5 -16 15 -50 22 -78 7 -27
16 -59 20 -70 5 -11 21 -56 35 -100 15 -44 31 -89 36 -100 4 -11 10 -33 11
-50 l3 -30 -147 -3 c-110 -2 -148 1 -148 10 0 14 19 77 31 100 5 10 9 25 9 33
0 8 4 23 9 33 15 28 81 242 81 263 0 29 26 23 38 -8z"/>
<path d="M7900 925 l0 -505 54 0 c41 0 55 4 60 17 6 15 3 207 -10 636 -5 170
-4 177 14 177 14 0 28 -17 47 -52 55 -108 87 -163 96 -166 5 -2 9 -12 9 -23 0
-10 5 -19 10 -19 6 0 10 -6 10 -14 0 -8 10 -27 23 -43 12 -15 29 -41 37 -58 8
-16 22 -40 33 -51 20 -24 47 -69 76 -130 11 -22 27 -47 36 -54 8 -7 15 -17 15
-23 0 -5 10 -24 23 -41 13 -17 26 -39 30 -48 3 -10 11 -18 17 -18 5 0 10 -8
10 -18 0 -10 9 -24 20 -32 11 -8 20 -20 20 -28 0 -10 16 -12 63 -10 l62 3 0
500 0 500 -53 3 -53 3 3 -405 c3 -403 3 -406 -17 -406 -15 0 -26 12 -39 45
-11 25 -25 50 -32 56 -8 6 -26 36 -41 68 -15 31 -43 80 -63 110 -19 29 -45 71
-56 93 -12 22 -30 49 -40 61 -11 12 -25 33 -32 47 -55 105 -129 220 -143 220
-5 0 -9 6 -7 14 2 8 -7 22 -18 33 -12 10 -23 27 -25 38 -4 17 -14 20 -72 23
l-67 3 0 -506z"/>
<path d="M8910 941 c0 -269 -3 -496 -6 -505 -5 -14 3 -16 55 -16 l61 0 0 199
0 198 44 41 c26 24 51 39 62 37 11 -2 22 -4 25 -4 4 -1 12 -14 19 -31 7 -16
16 -30 21 -30 5 0 9 -7 9 -15 0 -8 5 -15 10 -15 6 0 10 -6 10 -13 0 -8 11 -24
25 -37 14 -13 25 -29 25 -35 0 -7 9 -20 20 -30 11 -10 20 -22 20 -27 0 -4 26
-47 58 -94 31 -48 62 -94 67 -104 27 -45 37 -50 101 -50 67 0 84 9 58 31 -21
17 -94 125 -94 138 0 5 -6 14 -14 18 -7 4 -30 34 -51 66 -21 31 -42 57 -46 57
-5 0 -9 6 -9 13 0 7 -9 23 -20 35 -11 12 -20 24 -20 26 0 3 -17 31 -37 62 -21
31 -44 67 -51 80 -7 13 -17 24 -23 24 -18 0 -9 55 14 80 83 93 137 160 137
169 0 6 7 11 15 11 8 0 15 7 15 16 0 8 5 12 10 9 6 -3 10 -1 10 5 0 10 48 66
113 132 15 15 27 32 27 38 0 6 -28 10 -70 10 l-70 0 -67 -87 c-38 -48 -76 -95
-85 -105 -10 -10 -18 -20 -18 -23 0 -3 -34 -45 -75 -94 -41 -49 -75 -94 -75
-101 0 -18 -48 -60 -69 -60 -20 0 -21 7 -23 233 l-3 232 -52 3 -53 3 0 -490z"/>
</g>
</svg>
