<?xml version="1.0" standalone="no"?>
<!DOCTYPE svg PUBLIC "-//W3C//DTD SVG 20010904//EN"
 "http://www.w3.org/TR/2001/REC-SVG-20010904/DTD/svg10.dtd">
<svg version="1.0" xmlns="http://www.w3.org/2000/svg"
 width="1200.000000pt" height="660.000000pt" viewBox="0 0 1200.000000 660.000000"
 preserveAspectRatio="xMidYMid meet">
<metadata>
Created by potrace 1.13, written by Peter Selinger 2001-2015
</metadata>
<g transform="translate(0.000000,660.000000) scale(0.100000,-0.100000)"
fill="#000000" stroke="none">
<path d="M7653 4123 l-63 -4 0 -839 0 -839 723 -3 c397 -2 1298 -4 2002 -3
l1280 0 0 845 0 845 -1940 1 c-1067 0 -1968 -1 -2002 -3z m1998 -53 l1889 0 0
-784 c0 -618 -3 -785 -12 -788 -7 -3 -886 -4 -1953 -4 l-1940 1 -3 770 c-1
424 0 781 3 794 6 23 9 23 67 17 34 -3 911 -6 1949 -6z"/>
<path d="M10593 3633 c-10 -4 -13 -94 -13 -404 l0 -400 63 3 62 3 3 128 c2
116 4 127 21 127 10 0 83 -58 162 -130 l143 -130 78 0 c43 0 78 4 78 8 0 5
-12 20 -27 33 -16 13 -89 78 -163 143 -74 66 -136 122 -138 126 -3 7 20 28
161 149 54 47 96 89 94 95 -2 6 -29 12 -59 14 -63 3 -52 10 -219 -140 -51 -46
-95 -78 -108 -78 -21 0 -21 3 -21 218 0 156 -3 221 -12 230 -12 12 -81 15
-105 5z"/>
<path d="M7985 3618 c-3 -7 -4 -186 -3 -398 l3 -385 285 -3 c286 -3 336 2 402
35 42 21 76 63 94 117 34 100 -4 195 -95 237 -28 13 -50 29 -50 34 0 6 18 18
40 29 66 30 94 96 80 188 -10 63 -35 96 -97 128 -49 25 -50 25 -352 28 -243 3
-303 1 -307 -10z m575 -98 c40 -21 49 -41 50 -102 0 -111 -42 -128 -326 -128
l-174 0 0 118 c0 65 3 122 8 127 12 13 415 0 442 -15z m28 -348 c43 -25 58
-68 53 -155 0 -15 -11 -38 -24 -51 -33 -33 -152 -48 -347 -44 l-155 3 -3 129
c-1 72 1 132 7 135 19 12 445 -4 469 -17z"/>
<path d="M9132 3389 c-128 -14 -172 -43 -172 -115 l0 -44 61 0 c57 0 61 1 70
29 6 15 21 33 35 40 30 13 193 14 248 1 47 -10 56 -22 56 -77 l0 -43 -135 0
c-74 0 -169 -5 -212 -12 -66 -9 -83 -16 -109 -43 -65 -64 -70 -177 -11 -235
54 -53 87 -62 242 -63 124 -1 145 1 188 21 49 22 49 22 54 1 5 -17 12 -20 57
-17 l51 3 0 227 c0 214 -1 228 -21 255 -31 42 -83 62 -187 73 -102 11 -99 11
-215 -1z m298 -355 c0 -47 -4 -60 -28 -83 -33 -34 -111 -46 -228 -35 -94 9
-114 24 -114 88 0 37 5 48 28 65 24 18 42 20 185 21 l157 0 0 -56z"/>
<path d="M9946 3379 c-53 -18 -59 -19 -70 -4 -9 12 -25 15 -61 13 l-50 -3 -3
-278 -2 -278 62 3 63 3 3 226 2 225 58 12 c72 15 146 15 210 1 90 -19 86 -9
92 -251 l5 -213 60 0 60 0 3 175 c4 241 -1 275 -46 321 -49 48 -122 69 -239
69 -61 -1 -106 -7 -147 -21z"/>
<path d="M420 4113 c-1 -9 -1 -1656 0 -1663 0 -3 1574 -4 3498 -3 l3497 2 3
835 2 836 -3500 0 c-1925 0 -3500 -3 -3500 -7z m2292 -493 c125 -31 181 -68
225 -150 36 -66 45 -122 42 -261 -4 -122 -6 -139 -32 -191 -33 -67 -76 -112
-137 -142 -84 -43 -156 -51 -440 -51 l-265 0 -3 395 c-1 217 0 401 3 407 3 10
66 13 267 13 227 0 274 -3 340 -20z m3116 -208 c2 -185 5 -224 17 -228 9 -4
37 15 72 49 32 30 74 68 93 83 19 16 48 41 64 57 25 24 37 27 93 27 50 0 65
-4 70 -16 4 -10 -1 -22 -12 -30 -10 -8 -30 -24 -44 -36 -14 -13 -55 -48 -91
-78 -35 -30 -75 -64 -88 -76 l-23 -21 78 -69 c83 -74 143 -127 211 -189 23
-21 42 -43 42 -49 0 -7 -28 -11 -81 -10 -75 2 -83 4 -112 31 -171 159 -260
234 -271 230 -7 -2 -13 -53 -16 -133 l-5 -129 -50 0 c-92 -1 -85 -36 -85 409
0 216 3 396 7 400 4 4 34 6 68 4 l60 -3 3 -223z m-2174 -23 c80 -22 104 -38
125 -83 20 -40 21 -57 19 -257 l-3 -214 -53 -3 c-41 -2 -57 1 -66 14 -12 15
-15 15 -47 -2 -29 -16 -57 -19 -185 -19 -156 0 -170 3 -237 48 -75 51 -75 188
0 259 42 39 91 48 281 48 l173 0 -5 46 c-3 26 -10 52 -15 57 -13 13 -215 22
-265 13 -28 -5 -37 -13 -48 -42 l-12 -35 -61 3 -60 3 -3 48 c-4 67 11 82 113
113 52 15 296 17 349 3z m486 4 c0 -5 4 -14 9 -21 6 -11 15 -9 42 7 30 18 50
21 159 21 147 0 218 -19 262 -71 35 -42 42 -121 31 -338 l-8 -165 -60 0 -60 0
-5 214 -5 213 -28 21 c-25 19 -42 21 -155 21 -70 0 -135 -3 -144 -7 -16 -7
-18 -27 -18 -222 0 -118 -2 -220 -5 -228 -6 -14 -102 -18 -123 -4 -9 5 -12 81
-12 280 0 150 3 276 7 279 9 10 113 9 113 0z m1236 -5 c65 -18 96 -57 92 -117
l-3 -46 -63 -3 -62 -3 -7 32 c-9 48 -54 62 -180 57 -122 -6 -153 -20 -153 -72
0 -18 7 -39 15 -46 11 -9 71 -16 183 -20 234 -10 277 -32 289 -145 11 -101
-30 -158 -132 -186 -33 -9 -108 -13 -220 -14 -156 0 -174 2 -216 23 -56 27
-71 54 -67 118 l3 49 53 3 c60 3 82 -8 82 -44 0 -47 21 -54 163 -54 114 0 136
3 165 20 26 16 32 26 32 55 0 55 -22 63 -194 70 -215 9 -263 30 -296 128 -15
48 1 115 34 146 56 53 90 60 268 61 103 0 186 -5 214 -12z m1498 -3 c90 -27
127 -62 151 -139 16 -53 20 -133 7 -153 -6 -9 -72 -13 -252 -15 l-245 -3 3
-45 c6 -97 35 -114 199 -113 125 0 146 8 157 64 5 29 7 29 71 29 l65 0 0 -50
c0 -64 -25 -92 -106 -117 -82 -25 -306 -25 -381 1 -78 26 -125 77 -140 152
-36 174 9 323 112 369 64 28 94 33 200 34 71 1 128 -5 159 -14z"/>
<path d="M2252 3233 l3 -298 200 1 c185 0 203 2 246 23 101 48 129 108 129
276 0 154 -30 223 -112 258 -77 33 -109 37 -286 37 l-182 0 2 -297z"/>
<path d="M3333 3070 c-30 -18 -33 -24 -33 -70 0 -73 18 -82 170 -81 95 0 127
3 146 16 32 20 46 58 42 109 l-3 41 -145 3 c-130 2 -148 0 -177 -18z"/>
<path d="M6649 3300 c-74 -13 -109 -46 -109 -103 0 -22 1 -22 179 -22 99 0
182 3 186 7 10 10 -13 73 -33 91 -35 32 -128 43 -223 27z"/>
</g>
</svg>
