<?xml version="1.0" standalone="no"?>
<!DOCTYPE svg PUBLIC "-//W3C//DTD SVG 20010904//EN"
 "http://www.w3.org/TR/2001/REC-SVG-20010904/DTD/svg10.dtd">
<svg version="1.0" xmlns="http://www.w3.org/2000/svg"
 width="1200.000000pt" height="660.000000pt" viewBox="0 0 1200.000000 660.000000"
 preserveAspectRatio="xMidYMid meet">
<metadata>
Created by potrace 1.13, written by Peter Selinger 2001-2015
</metadata>
<g transform="translate(0.000000,660.000000) scale(0.100000,-0.100000)"
fill="#000000" stroke="none">
<path d="M1486 4753 c-3 -10 -21 -110 -40 -223 -20 -113 -42 -241 -50 -285 -8
-44 -11 -83 -8 -87 4 -4 327 -9 717 -11 775 -4 772 -3 925 -64 257 -102 344
-326 275 -708 -40 -226 -111 -452 -176 -561 -88 -147 -244 -266 -419 -318
-204 -61 -356 -70 -1043 -62 l-577 6 -9 -22 c-5 -13 -14 -54 -21 -93 -11 -67
-22 -129 -40 -225 -5 -25 -14 -76 -21 -115 -6 -38 -15 -83 -20 -99 -5 -16 -9
-38 -9 -48 0 -19 18 -19 818 -15 870 4 891 5 1108 57 143 34 317 111 454 203
100 66 271 241 343 350 122 184 213 391 267 607 41 167 42 173 81 420 6 41 12
158 12 260 0 151 -4 204 -21 292 -84 411 -351 643 -832 722 -195 32 -309 36
-1005 36 -661 0 -704 -1 -709 -17z"/>
<path d="M9686 4743 c-9 -43 -76 -436 -92 -538 -7 -49 -21 -130 -29 -180 -9
-49 -23 -128 -31 -175 -102 -588 -211 -1210 -224 -1280 -5 -25 -13 -72 -19
-105 -6 -33 -22 -118 -36 -190 -13 -71 -33 -182 -45 -245 -11 -63 -25 -132
-31 -154 -6 -22 -7 -42 -2 -47 5 -5 166 -8 364 -7 l354 3 7 45 c9 62 121 718
179 1050 11 63 25 142 30 175 6 33 14 80 19 105 4 25 13 77 19 116 6 40 15 83
21 98 l10 26 205 0 c114 0 227 -5 253 -11 119 -27 182 -86 203 -187 12 -61 8
-102 -31 -322 -12 -63 -25 -139 -31 -167 -5 -29 -13 -78 -19 -108 -5 -30 -14
-80 -20 -110 -5 -30 -14 -80 -20 -110 -5 -30 -14 -80 -20 -110 -5 -30 -14 -79
-19 -107 -6 -29 -23 -125 -40 -213 -17 -88 -27 -163 -23 -167 5 -5 167 -7 362
-6 l354 3 12 60 c7 33 26 146 43 250 32 197 37 224 126 730 9 50 25 140 35
202 26 147 28 427 4 511 -25 88 -61 150 -122 214 -59 62 -103 91 -192 125
-142 54 -225 63 -622 63 -238 0 -348 3 -348 11 0 5 4 29 9 52 5 23 14 69 20
102 16 85 45 244 81 430 16 88 30 168 30 178 0 16 -24 17 -359 17 l-359 0 -6
-27z"/>
<path d="M5295 3965 c-264 -45 -461 -137 -626 -292 -194 -184 -306 -401 -376
-732 -23 -110 -27 -150 -27 -311 -1 -164 2 -194 22 -265 50 -175 138 -301 272
-390 87 -58 165 -90 300 -123 l105 -26 722 -3 c687 -4 722 -3 727 14 3 10 14
72 25 138 79 475 182 1065 281 1605 38 211 70 388 70 392 0 14 -1416 7 -1495
-7z m679 -540 c-1 -16 -7 -59 -13 -95 -22 -121 -29 -165 -40 -225 -5 -33 -15
-87 -21 -120 -6 -33 -15 -85 -20 -115 -5 -30 -14 -82 -20 -115 -6 -33 -16 -87
-21 -120 -6 -33 -15 -82 -20 -110 -4 -27 -11 -72 -15 -100 -4 -27 -11 -56 -17
-62 -12 -17 -391 -18 -486 -2 -164 27 -266 97 -309 212 -56 148 -9 452 94 612
133 207 308 275 704 272 l185 -2 -1 -30z"/>
<path d="M7715 3975 c-5 -2 -44 -11 -85 -20 -171 -40 -324 -142 -422 -283 -47
-69 -104 -199 -129 -297 -28 -114 -32 -321 -7 -401 33 -106 89 -183 171 -237
124 -82 218 -97 635 -97 l334 0 34 -34 c28 -28 34 -42 34 -75 0 -63 -35 -127
-85 -156 l-42 -25 -585 0 -585 0 -13 -62 c-6 -35 -16 -85 -21 -113 -5 -27 -18
-95 -29 -151 -10 -55 -22 -124 -26 -152 l-7 -53 709 4 c693 3 711 3 789 25
353 96 567 399 568 802 0 183 -38 287 -138 378 -129 118 -272 147 -675 138
-140 -4 -277 -3 -303 0 -67 9 -107 50 -107 107 0 52 29 117 64 145 58 45 70
46 638 39 411 -5 539 -3 545 6 5 7 18 57 27 112 10 55 31 165 47 244 15 80 26
148 23 153 -5 7 -1336 11 -1359 3z"/>
<path d="M770 3586 c-107 -30 -182 -94 -228 -193 -24 -52 -90 -298 -105 -388
-3 -15 1390 -19 1468 -5 122 24 206 84 255 183 27 56 110 355 110 400 0 16
-41 17 -727 16 -549 -1 -739 -4 -773 -13z"/>
</g>
</svg>
