<?xml version="1.0" standalone="no"?>
<!DOCTYPE svg PUBLIC "-//W3C//DTD SVG 20010904//EN"
 "http://www.w3.org/TR/2001/REC-SVG-20010904/DTD/svg10.dtd">
<svg version="1.0" xmlns="http://www.w3.org/2000/svg"
 width="1200.000000pt" height="660.000000pt" viewBox="0 0 1200.000000 660.000000"
 preserveAspectRatio="xMidYMid meet">
<metadata>
Created by potrace 1.13, written by Peter Selinger 2001-2015
</metadata>
<g transform="translate(0.000000,660.000000) scale(0.100000,-0.100000)"
fill="#000000" stroke="none">
<path d="M5410 6100 c-202 -15 -412 -60 -580 -125 -111 -42 -207 -88 -289
-137 -34 -21 -65 -38 -68 -38 -9 0 -98 -64 -173 -123 -253 -202 -447 -454
-573 -747 -70 -163 -104 -289 -148 -545 -16 -93 -16 -460 -1 -550 45 -253 82
-374 174 -564 61 -126 145 -261 226 -361 75 -93 261 -281 338 -340 50 -39 191
-140 196 -140 3 0 35 -17 69 -38 120 -72 291 -145 424 -182 107 -30 148 -39
215 -50 41 -7 99 -16 129 -21 76 -13 1239 -11 1359 1 495 53 962 277 1313 631
413 417 615 963 559 1509 -88 846 -701 1541 -1550 1755 -245 62 -285 65 -925
70 -324 2 -637 0 -695 -5z m416 -185 c490 -65 934 -325 1226 -719 84 -113 228
-369 228 -406 0 -6 4 -18 10 -28 26 -48 79 -246 102 -382 6 -41 12 -156 12
-255 0 -217 -23 -370 -86 -560 -19 -60 -23 -70 -51 -135 -143 -335 -381 -620
-677 -812 -194 -126 -416 -215 -640 -257 -63 -12 -142 -27 -175 -34 -119 -24
-415 -11 -565 25 -58 13 -274 84 -320 105 -256 112 -399 210 -590 402 -231
232 -391 516 -464 823 -28 117 -35 166 -48 302 -23 257 22 555 120 801 93 232
239 451 418 626 170 164 280 243 479 339 191 93 324 133 565 169 91 14 338 12
456 -4z"/>
<path d="M5055 5142 c-332 -175 -555 -485 -610 -849 -76 -502 172 -983 623
-1211 35 -18 72 -32 83 -32 19 0 19 23 19 1065 l0 1065 -22 -1 c-13 0 -54 -17
-93 -37z"/>
<path d="M5980 4115 c0 -1064 0 -1065 20 -1065 57 0 263 134 370 239 164 163
273 363 326 603 23 102 23 335 0 446 -62 298 -222 547 -459 716 -71 51 -214
126 -239 126 -17 0 -18 -57 -18 -1065z"/>
<path d="M8660 2100 c-14 -11 -28 -20 -33 -20 -4 0 -26 -9 -50 -19 -23 -11
-59 -25 -80 -32 -21 -8 -43 -19 -49 -26 -14 -18 5 -40 42 -48 62 -14 60 10 60
-703 l0 -649 -25 -11 c-14 -7 -41 -12 -60 -12 -33 0 -35 -2 -35 -35 l0 -35
226 0 225 0 -3 28 c-3 25 -7 27 -54 32 -92 9 -84 -65 -86 789 l-3 756 -25 3
c-14 1 -36 -7 -50 -18z"/>
<path d="M10121 2082 c-13 -9 -65 -33 -115 -53 -106 -43 -115 -59 -46 -92 39
-19 47 -28 57 -67 18 -71 17 -979 -2 -1157 -8 -77 -17 -147 -21 -156 -3 -10 4
-22 21 -33 25 -16 27 -16 55 5 35 26 41 26 82 3 112 -61 304 -70 420 -20 196
86 328 294 328 520 0 93 -10 139 -52 225 -36 76 -95 144 -149 172 -151 79
-278 67 -436 -40 -23 -16 -45 -29 -48 -29 -4 0 -5 165 -3 368 l3 367 -35 2
c-20 2 -45 -5 -59 -15z m381 -736 c160 -74 261 -298 217 -483 -42 -175 -132
-273 -266 -288 -74 -9 -133 7 -179 47 -67 59 -67 61 -65 373 l2 280 26 27 c66
69 172 87 265 44z"/>
<path d="M2821 1983 c-43 -52 -40 -94 12 -150 15 -17 32 -23 62 -23 30 0 47 6
62 23 52 56 55 98 12 150 -27 32 -36 37 -74 37 -38 0 -47 -5 -74 -37z"/>
<path d="M7668 2005 c-278 -60 -505 -248 -592 -489 -40 -109 -51 -219 -36
-339 26 -203 87 -336 214 -463 121 -120 236 -176 442 -213 107 -19 245 -9 387
29 110 30 119 33 167 52 62 26 61 23 80 163 7 50 16 105 21 124 5 23 5 39 -3
48 -13 17 -48 17 -52 1 -41 -158 -112 -251 -235 -310 -60 -29 -75 -32 -166
-32 -111 -1 -170 12 -255 57 -166 87 -273 221 -340 427 -40 123 -37 359 6 486
85 254 293 405 559 404 135 -1 249 -38 324 -105 43 -39 101 -146 101 -187 0
-13 5 -29 12 -36 16 -16 47 -15 53 1 3 6 -1 75 -8 151 l-12 140 -92 32 c-101
34 -100 34 -218 58 -94 19 -274 20 -357 1z"/>
<path d="M1134 1986 c-14 -36 0 -51 51 -54 59 -3 89 -16 111 -50 14 -21 16
-88 14 -602 -1 -646 -2 -653 -60 -682 -19 -9 -51 -17 -71 -18 -43 0 -72 -20
-67 -46 3 -18 17 -19 348 -22 343 -3 433 2 555 33 179 46 344 159 437 302 250
382 115 860 -299 1061 -93 45 -143 58 -288 77 -157 21 -723 21 -731 1z m758
-90 c198 -52 349 -181 415 -356 44 -113 47 -134 48 -280 0 -170 -12 -231 -68
-350 -59 -127 -172 -229 -302 -275 -48 -17 -165 -35 -229 -35 -123 0 -184 33
-208 112 -9 31 -9 44 0 59 9 14 12 164 12 579 l0 560 140 0 c87 0 159 -5 192
-14z"/>
<path d="M2921 1479 c-18 -11 -75 -33 -126 -50 -108 -35 -122 -55 -60 -85 20
-9 44 -28 55 -42 19 -23 20 -41 20 -358 0 -333 0 -333 -22 -348 -13 -9 -43
-16 -71 -16 -41 0 -48 -3 -45 -17 3 -17 22 -18 223 -18 l220 0 3 28 c3 26 2
27 -45 27 -28 0 -58 7 -71 16 l-22 15 0 428 c0 471 2 457 -59 420z"/>
<path d="M6075 1486 c-71 -19 -97 -30 -133 -61 -46 -38 -86 -102 -102 -158
-14 -52 -4 -126 26 -186 28 -55 106 -115 237 -180 159 -79 187 -108 187 -193
0 -52 -3 -61 -34 -92 -27 -26 -46 -36 -85 -41 -92 -12 -186 18 -235 76 -20 24
-66 117 -66 135 0 6 -7 17 -15 24 -30 25 -36 -2 -29 -129 6 -100 10 -124 23
-128 9 -3 25 -9 36 -13 21 -9 65 -22 131 -39 55 -15 127 -13 195 3 166 40 252
136 253 283 1 126 -55 194 -224 274 -36 17 -89 43 -119 57 -102 49 -143 112
-126 199 25 134 259 138 332 5 12 -20 24 -51 28 -69 4 -20 14 -35 27 -39 37
-11 42 8 31 112 -9 84 -14 99 -34 115 -25 19 -27 19 -129 43 -78 18 -109 18
-175 2z"/>
<path d="M3425 1472 c-6 -4 -39 -18 -75 -30 -146 -49 -165 -58 -168 -77 -2
-15 11 -27 52 -48 40 -21 58 -37 65 -59 17 -48 15 -629 -2 -652 -9 -12 -32
-20 -73 -25 -50 -5 -59 -9 -59 -26 0 -19 8 -20 228 -23 l227 -2 0 24 c0 21 -5
24 -54 28 -92 8 -87 -15 -84 362 l3 331 80 39 c70 35 87 39 151 39 64 0 77 -3
109 -27 71 -55 70 -46 73 -391 3 -354 5 -345 -74 -354 -41 -5 -50 -10 -52 -29
l-3 -22 228 2 c220 3 228 4 228 23 0 17 -8 21 -52 25 -30 3 -60 13 -72 24 -20
19 -21 27 -21 347 0 223 -4 337 -11 356 -32 78 -42 94 -75 121 -106 88 -266
66 -457 -63 l-52 -35 -5 72 c-4 64 -8 73 -25 76 -11 1 -25 -1 -30 -6z"/>
<path d="M4519 1457 c-111 -43 -179 -105 -236 -214 -44 -84 -58 -152 -58 -288
0 -98 4 -132 23 -188 42 -127 110 -210 211 -258 38 -19 64 -23 151 -23 90 -1
112 2 155 23 109 51 259 197 234 227 -17 21 -26 18 -87 -29 -80 -62 -126 -81
-208 -85 -61 -3 -78 0 -121 22 -59 29 -111 86 -147 160 -33 69 -45 126 -46
219 l0 77 294 0 c342 0 326 -5 306 92 -17 90 -45 142 -105 196 -95 87 -246
115 -366 69z m172 -58 c67 -23 119 -94 119 -163 0 -54 -7 -56 -217 -56 -106 0
-193 2 -193 5 0 2 9 29 20 59 28 74 77 124 142 147 63 22 83 23 129 8z"/>
<path d="M5290 1460 c-48 -26 -169 -80 -179 -80 -5 0 -14 -7 -21 -15 -10 -13
-10 -19 5 -35 10 -11 22 -20 28 -20 5 0 22 -9 38 -21 l29 -20 0 -334 c0 -382
12 -345 -110 -354 l-75 -6 -3 -37 c-3 -32 0 -38 20 -43 13 -3 138 -4 278 -3
239 3 255 4 258 22 6 29 -9 35 -103 41 -56 3 -91 9 -97 17 -4 7 -8 139 -8 293
0 314 1 322 73 379 48 38 117 42 164 8 90 -64 194 35 149 141 -18 44 -56 67
-111 67 -69 0 -128 -33 -198 -112 l-62 -69 -5 98 c-6 110 -10 115 -70 83z"/>
<path d="M8938 1453 c-89 -6 -86 -36 7 -59 49 -12 50 -15 55 -378 6 -332 6
-342 29 -389 39 -78 125 -136 205 -137 72 0 195 53 291 125 l60 45 5 -82 c6
-93 1 -89 90 -69 57 14 143 31 195 40 36 5 40 9 40 36 0 30 0 30 -64 33 -46 2
-68 8 -77 20 -10 13 -13 105 -14 409 0 215 -3 394 -7 396 -8 4 -111 -4 -258
-20 -60 -7 -70 -11 -70 -27 0 -16 12 -23 60 -35 33 -9 70 -22 83 -29 l22 -13
0 -293 0 -294 -62 -40 c-86 -55 -131 -72 -193 -72 -64 0 -111 29 -140 85 -18
37 -20 66 -25 395 l-5 355 -85 1 c-47 0 -110 -1 -142 -3z"/>
</g>
</svg>
