<?xml version="1.0" standalone="no"?>
<!DOCTYPE svg PUBLIC "-//W3C//DTD SVG 20010904//EN"
 "http://www.w3.org/TR/2001/REC-SVG-20010904/DTD/svg10.dtd">
<svg version="1.0" xmlns="http://www.w3.org/2000/svg"
 width="1200.000000pt" height="660.000000pt" viewBox="0 0 1200.000000 660.000000"
 preserveAspectRatio="xMidYMid meet">
<metadata>
Created by potrace 1.13, written by Peter Selinger 2001-2015
</metadata>
<g transform="translate(0.000000,660.000000) scale(0.100000,-0.100000)"
fill="#000000" stroke="none">
<path d="M2690 5049 c-19 -4 -84 -13 -145 -19 -597 -61 -1119 -248 -1482 -529
-95 -74 -262 -239 -315 -311 -140 -193 -219 -365 -275 -605 -20 -83 -30 -439
-14 -495 5 -19 15 -57 22 -85 112 -469 463 -871 1003 -1149 149 -77 358 -160
491 -196 165 -45 251 -64 451 -99 33 -6 78 -11 100 -11 22 0 45 -5 50 -10 14
-14 720 -7 834 9 685 91 1306 390 1646 792 180 212 282 420 340 689 25 115 25
399 0 515 -41 192 -115 368 -219 525 -357 536 -1071 913 -1857 980 -8 0 -41 3
-72 6 -49 5 -58 3 -67 -14 -6 -11 -8 -27 -5 -35 6 -16 46 -37 71 -37 18 0 24
-2 173 -51 204 -68 393 -166 525 -272 313 -253 486 -564 550 -991 18 -120 20
-472 4 -578 -41 -261 -134 -494 -277 -697 -80 -113 -270 -299 -382 -373 -217
-143 -417 -220 -689 -263 -231 -37 -662 -7 -931 64 -389 103 -700 254 -963
469 -223 183 -377 439 -377 628 0 314 419 622 1065 782 22 6 58 15 80 20 22 6
65 15 95 21 30 6 78 15 105 20 57 11 179 27 310 40 57 6 170 6 304 0 118 -5
218 -6 222 -2 4 4 9 292 11 638 l3 630 -175 1 c-96 1 -191 -2 -210 -7z"/>
<path d="M9950 4375 c-171 -27 -313 -91 -403 -182 -60 -59 -91 -119 -113 -214
-14 -62 -15 -83 -4 -143 32 -190 150 -318 360 -392 184 -64 411 -72 600 -20
l45 12 -4 65 c-4 83 -15 103 -49 94 -15 -3 -81 -9 -147 -12 -204 -9 -355 34
-434 123 -53 60 -64 99 -59 198 7 130 71 221 186 266 73 29 240 38 368 20 144
-21 137 -22 145 32 4 25 10 55 13 66 9 28 -14 48 -77 65 -132 38 -277 45 -427
22z"/>
<path d="M5632 4358 c-15 -19 -14 -13 -13 -485 1 -378 3 -434 17 -447 13 -14
52 -16 277 -16 356 0 496 24 632 105 87 52 141 110 183 194 35 72 37 80 37
176 0 98 -1 104 -39 178 -82 161 -235 257 -471 293 -121 18 -608 20 -623 2z
m504 -162 c135 -16 172 -31 242 -99 65 -63 77 -96 77 -208 0 -89 -2 -99 -30
-144 -19 -31 -53 -64 -92 -91 -73 -50 -155 -68 -308 -69 l-100 0 -3 300 c-1
165 0 305 3 312 6 17 60 16 211 -1z"/>
<path d="M6917 4364 c-4 -4 -7 -215 -7 -470 0 -412 2 -463 16 -468 23 -9 262
-7 268 2 2 4 6 216 8 472 l3 465 -141 3 c-77 1 -143 -1 -147 -4z"/>
<path d="M7437 4363 c-10 -9 -8 -916 1 -931 7 -9 43 -12 148 -10 l139 3 3 183
2 182 71 0 c119 0 138 -18 248 -231 l74 -144 146 2 c90 1 147 6 149 12 2 6 -5
23 -16 38 -10 16 -61 104 -112 196 -51 92 -97 170 -101 173 -22 13 -6 40 34
56 92 38 136 110 137 221 0 40 -6 79 -14 95 -22 42 -76 89 -129 112 -104 46
-141 50 -466 50 -169 0 -311 -3 -314 -7z m556 -177 c55 -23 79 -57 75 -107 -3
-38 -8 -47 -46 -74 -41 -28 -51 -30 -158 -35 -63 -3 -119 -3 -124 -2 -6 2 -10
52 -10 118 l0 114 115 0 c76 0 127 -5 148 -14z"/>
<path d="M8598 4364 c-5 -5 1 -936 6 -941 1 -2 171 -4 377 -5 l374 -3 0 85 0
85 -245 5 -245 5 -3 94 c-1 52 1 98 6 103 5 5 107 9 227 8 151 0 221 3 231 11
14 12 20 112 8 143 -5 14 -35 16 -228 16 -121 0 -227 4 -234 8 -9 6 -12 36
-10 113 l3 104 244 2 c188 2 246 5 252 15 10 15 12 119 3 142 -5 14 -49 16
-383 16 -208 0 -380 -2 -383 -6z"/>
<path d="M10502 4358 c-7 -7 -12 -41 -12 -84 0 -56 3 -73 16 -78 9 -3 94 -6
190 -6 l174 0 2 -387 3 -388 143 0 143 0 2 388 1 387 176 0 c124 0 180 4 188
12 15 15 16 122 2 149 -10 18 -27 19 -513 19 -378 0 -506 -3 -515 -12z"/>
<path d="M2960 3705 c-293 -42 -528 -154 -721 -345 -248 -245 -328 -601 -198
-888 134 -297 523 -545 944 -601 33 -5 66 -6 73 -4 9 4 12 197 12 918 0 718
-3 915 -12 922 -8 6 -44 5 -98 -2z"/>
<path d="M8473 3253 c-10 -4 -13 -116 -13 -513 0 -454 2 -509 16 -514 9 -3 68
-6 133 -6 124 0 141 6 141 47 0 28 4 28 38 4 70 -49 186 -75 309 -69 246 14
393 157 393 383 0 198 -114 327 -324 365 -114 21 -275 -4 -357 -55 -22 -15
-45 -25 -51 -23 -7 3 -10 64 -9 182 2 124 -1 182 -10 192 -9 11 -39 14 -133
13 -66 0 -127 -3 -133 -6z m607 -489 c48 -20 106 -84 121 -132 7 -25 9 -59 4
-87 -5 -40 -15 -57 -58 -99 -78 -77 -168 -96 -264 -56 -51 22 -108 76 -124
117 -14 39 -10 122 8 161 20 42 88 92 146 109 48 13 115 8 167 -13z"/>
<path d="M9967 3254 c-14 -14 -8 -171 7 -183 9 -8 56 -11 142 -9 l129 3 0 95
0 95 -136 3 c-74 1 -138 -1 -142 -4z"/>
<path d="M5760 3183 c-52 -2 -105 -5 -117 -8 l-23 -5 0 -460 c0 -459 0 -459
21 -471 16 -8 110 -10 333 -7 302 5 313 6 401 32 260 78 395 231 395 446 0
226 -186 406 -475 459 -60 11 -355 18 -535 14z m484 -177 c148 -53 216 -144
216 -291 0 -98 -19 -143 -84 -203 -83 -76 -182 -105 -346 -100 l-105 3 -3 304
c-1 177 2 307 7 310 20 13 266 -6 315 -23z"/>
<path d="M10885 3098 c-3 -7 -6 -47 -7 -88 l-3 -75 -105 -5 -105 -5 0 -75 0
-75 105 -5 105 -5 5 -215 c5 -204 6 -217 28 -253 30 -46 72 -79 137 -103 41
-15 77 -19 196 -19 182 0 181 -1 177 104 l-3 76 -87 5 c-67 4 -93 10 -115 26
l-28 21 0 179 0 179 113 3 112 3 0 73 c0 52 -4 77 -15 86 -9 7 -46 11 -102 10
-48 -1 -94 -2 -100 -1 -9 1 -13 22 -13 70 0 107 9 101 -151 101 -103 0 -141
-3 -144 -12z"/>
<path d="M7496 2978 c-189 -21 -326 -103 -401 -239 -26 -48 -29 -64 -29 -139
0 -77 3 -91 34 -148 40 -75 100 -131 185 -173 97 -48 170 -60 350 -60 203 1
332 26 353 68 8 18 7 151 -1 160 -3 2 -19 -3 -35 -11 -174 -90 -451 -84 -547
12 -35 35 -47 81 -22 83 6 0 156 0 333 -1 373 -1 351 -7 340 96 -25 243 -252
386 -560 352z m194 -172 c42 -21 79 -65 82 -98 l3 -23 -200 0 c-197 0 -200 0
-203 22 -5 33 52 90 107 108 59 19 165 15 211 -9z"/>
<path d="M10090 2930 l-125 -5 -3 -351 -2 -351 31 -7 c47 -9 232 -7 248 3 12
8 14 65 12 352 -2 321 -7 374 -30 367 -3 -1 -62 -5 -131 -8z"/>
</g>
</svg>
