<?xml version="1.0" standalone="no"?>
<!DOCTYPE svg PUBLIC "-//W3C//DTD SVG 20010904//EN"
 "http://www.w3.org/TR/2001/REC-SVG-20010904/DTD/svg10.dtd">
<svg version="1.0" xmlns="http://www.w3.org/2000/svg"
 width="1200.000000pt" height="660.000000pt" viewBox="0 0 1200.000000 660.000000"
 preserveAspectRatio="xMidYMid meet">
<metadata>
Created by potrace 1.13, written by Peter Selinger 2001-2015
</metadata>
<g transform="translate(0.000000,660.000000) scale(0.100000,-0.100000)"
fill="#000000" stroke="none">
<path d="M3660 6214 c-578 -70 -1114 -305 -1550 -680 -432 -371 -736 -840
-903 -1394 -84 -276 -136 -674 -122 -920 29 -495 140 -897 358 -1303 265 -495
698 -924 1197 -1186 293 -154 557 -242 908 -304 l127 -22 2275 0 2275 0 130
23 c307 53 559 134 820 262 740 362 1278 998 1520 1795 79 260 115 522 115
830 0 365 -48 652 -162 970 -175 488 -468 914 -859 1249 -442 379 -979 613
-1559 680 -119 14 -396 16 -2295 15 -1774 -1 -2181 -4 -2275 -15z m4585 -513
c442 -70 791 -222 1150 -502 101 -79 315 -288 315 -308 0 -8 -281 -11 -1006
-11 l-1006 0 -47 -47 c-25 -27 -82 -86 -126 -133 -43 -47 -129 -137 -190 -200
-60 -64 -141 -149 -179 -190 -39 -41 -115 -122 -171 -180 -55 -58 -145 -153
-199 -212 -54 -60 -102 -108 -107 -108 -11 0 -29 67 -29 112 0 20 -4 47 -9 60
-5 13 -14 48 -21 78 -7 30 -32 96 -55 145 -168 353 -530 563 -1095 634 -47 6
-125 17 -175 23 -69 10 -444 13 -1595 13 -1449 0 -1505 1 -1508 18 -3 13 29
51 100 120 225 222 449 378 718 500 266 120 535 187 840 207 63 4 1047 6 2185
6 l2070 -2 140 -23z m1648 -1061 c68 -101 79 -119 157 -276 92 -186 154 -370
199 -594 96 -473 34 -1023 -165 -1458 -13 -29 -24 -54 -24 -56 0 -8 -95 -175
-133 -236 -44 -68 -56 -82 -69 -74 -4 2 -85 98 -180 212 -95 114 -175 209
-178 212 -7 7 -81 95 -211 250 -57 69 -106 127 -109 130 -6 6 -76 89 -186 220
-43 52 -113 134 -154 181 -41 48 -84 97 -94 110 -32 40 -119 141 -148 174 -16
16 -28 36 -28 42 0 17 1242 1253 1255 1250 6 -2 36 -41 68 -87z m-7503 -640
c0 -5 12 -10 26 -10 33 0 54 -21 54 -54 0 -14 5 -26 10 -26 6 0 10 -35 10 -85
0 -50 -4 -85 -10 -85 -5 0 -10 -22 -10 -50 0 -27 -4 -50 -10 -50 -5 0 -10 -22
-10 -50 0 -27 -4 -50 -10 -50 -5 0 -10 -22 -10 -50 0 -27 -4 -50 -10 -50 -6 0
-10 -33 -10 -80 0 -47 -4 -80 -10 -80 -6 0 -10 -77 -10 -210 0 -133 -4 -210
-10 -210 -5 0 -10 -13 -10 -30 0 -23 -4 -30 -20 -30 -11 0 -20 -4 -20 -10 0
-5 -18 -10 -40 -10 -35 0 -47 7 -85 45 -25 24 -45 51 -45 60 0 8 -4 15 -10 15
-5 0 -10 9 -10 20 0 11 -4 20 -10 20 -5 0 -10 9 -10 20 0 11 -4 20 -10 20 -5
0 -10 14 -10 30 0 17 -4 30 -10 30 -5 0 -10 18 -10 40 0 22 -4 40 -10 40 -6 0
-10 27 -10 60 0 33 -4 60 -10 60 -6 0 -10 58 -10 155 0 97 4 155 10 155 6 0
10 18 10 40 0 22 5 40 10 40 6 0 10 23 10 50 0 28 5 50 10 50 6 0 10 13 10 28
0 16 8 34 20 42 11 8 20 22 20 32 0 10 5 18 10 18 6 0 10 7 10 15 0 26 107
125 135 125 14 0 25 5 25 10 0 6 16 10 35 10 19 0 35 -4 35 -10z m2185 -154
c184 -4 227 -14 320 -77 61 -41 83 -71 115 -156 16 -43 0 -236 -21 -249 -5 -3
-9 -16 -9 -29 0 -13 -4 -27 -10 -30 -5 -3 -10 -13 -10 -20 0 -15 -37 -96 -70
-155 -48 -84 -152 -164 -265 -205 -78 -28 -231 -34 -932 -35 l-723 0 0 24 c0
14 5 28 10 31 6 3 10 15 10 26 0 10 5 28 10 39 6 11 15 29 20 40 6 11 10 27
10 35 0 8 4 23 9 33 12 23 26 60 41 102 15 42 29 79 41 102 5 10 9 26 9 36 0
10 4 22 8 28 5 5 15 29 22 54 8 25 16 50 20 55 3 6 12 28 19 50 13 42 27 78
42 107 5 10 9 27 9 37 0 11 5 23 10 26 6 3 10 17 10 30 0 13 5 27 10 30 6 3
10 13 10 21 0 8 7 25 15 38 l15 22 542 -3 c299 -2 620 -5 713 -7z m3221 -370
c8 -8 14 -22 14 -30 0 -9 5 -16 10 -16 6 0 10 -16 10 -35 0 -19 -4 -35 -10
-35 -5 0 -10 -7 -10 -16 0 -8 -7 -22 -15 -30 -8 -9 -15 -11 -15 -5 0 6 -9 11
-20 11 -11 0 -20 5 -20 10 0 6 -7 10 -16 10 -8 0 -22 6 -30 14 -8 8 -14 22
-14 30 0 9 -4 16 -10 16 -5 0 -10 7 -10 15 0 8 5 15 10 15 6 0 10 7 10 15 0
28 24 44 63 45 21 0 45 -6 53 -14z m-1086 -372 c30 -42 62 -83 70 -92 9 -9 53
-66 100 -127 46 -60 103 -135 127 -165 23 -30 73 -94 110 -142 123 -157 297
-379 383 -488 47 -60 111 -143 144 -184 l59 -76 1033 0 c767 0 1034 -3 1034
-11 0 -14 -83 -110 -176 -203 -404 -403 -955 -656 -1514 -696 -172 -12 -4141
-12 -4280 0 -63 6 -137 14 -165 20 -333 65 -443 100 -710 230 -284 139 -550
346 -768 599 -16 18 -27 40 -25 49 3 16 97 17 1398 17 1391 0 1395 0 1535 22
363 58 512 101 740 214 331 164 550 397 692 739 33 78 55 146 93 288 30 109
45 109 120 6z"/>
<path d="M2328 3973 c6 -2 18 -2 25 0 6 3 1 5 -13 5 -14 0 -19 -2 -12 -5z"/>
<path d="M2270 3956 c0 -9 30 -14 35 -6 4 6 -3 10 -14 10 -12 0 -21 -2 -21 -4z"/>
<path d="M2365 3950 c3 -5 12 -7 20 -3 21 7 19 13 -6 13 -11 0 -18 -4 -14 -10z"/>
<path d="M2250 3931 c0 -5 -8 -11 -17 -13 -12 -2 -14 -6 -7 -10 6 -4 19 1 29
12 10 12 13 20 7 20 -7 0 -12 -4 -12 -9z"/>
<path d="M2415 3920 c10 -11 20 -18 23 -16 5 6 -23 36 -34 36 -4 0 1 -9 11
-20z"/>
<path d="M2447 3885 c-4 -8 -2 -17 3 -20 6 -4 10 3 10 14 0 25 -6 27 -13 6z"/>
<path d="M2190 3876 c0 -8 -6 -16 -12 -19 -7 -2 -10 -7 -7 -11 3 -3 14 2 23
13 11 12 14 21 7 26 -6 3 -11 0 -11 -9z"/>
<path d="M2150 3809 c0 -5 5 -7 10 -4 6 3 10 8 10 11 0 2 -4 4 -10 4 -5 0 -10
-5 -10 -11z"/>
<path d="M2130 3774 c0 -8 5 -12 10 -9 6 4 8 11 5 16 -9 14 -15 11 -15 -7z"/>
<path d="M2445 3740 c-3 -5 -1 -10 4 -10 6 0 11 5 11 10 0 6 -2 10 -4 10 -3 0
-8 -4 -11 -10z"/>
<path d="M2110 3729 c0 -5 5 -7 10 -4 6 3 10 8 10 11 0 2 -4 4 -10 4 -5 0 -10
-5 -10 -11z"/>
<path d="M2425 3640 c-3 -5 -1 -10 4 -10 6 0 11 5 11 10 0 6 -2 10 -4 10 -3 0
-8 -4 -11 -10z"/>
<path d="M2385 3440 c-3 -5 -1 -10 4 -10 6 0 11 5 11 10 0 6 -2 10 -4 10 -3 0
-8 -4 -11 -10z"/>
<path d="M2367 3323 c-2 -5 -1 -19 4 -33 7 -23 7 -23 8 8 1 31 -3 40 -12 25z"/>
<path d="M2070 3251 c0 -25 6 -27 13 -6 4 8 2 17 -3 20 -6 4 -10 -3 -10 -14z"/>
<path d="M2348 3203 c-2 -5 -1 -69 2 -143 l6 -135 2 143 c2 128 0 158 -10 135z"/>
<path d="M2090 3131 c0 -25 6 -27 13 -6 4 8 2 17 -3 20 -6 4 -10 -3 -10 -14z"/>
<path d="M2110 3071 c0 -25 6 -27 13 -6 4 8 2 17 -3 20 -6 4 -10 -3 -10 -14z"/>
<path d="M2130 3021 c0 -17 2 -31 4 -31 8 0 13 51 5 56 -5 3 -9 -9 -9 -25z"/>
<path d="M2150 2971 c0 -25 6 -27 13 -6 4 8 2 17 -3 20 -6 4 -10 -3 -10 -14z"/>
<path d="M2170 2947 c0 -10 70 -80 75 -75 3 2 -13 22 -35 43 -22 22 -40 36
-40 32z"/>
<path d="M2296 2912 c-10 -12 -12 -22 -6 -32 8 -12 10 -11 10 7 0 15 7 23 23
25 18 3 19 4 5 10 -10 4 -22 0 -32 -10z"/>
<path d="M2258 2853 c7 -3 16 -2 19 1 4 3 -2 6 -13 5 -11 0 -14 -3 -6 -6z"/>
</g>
</svg>
