<?xml version="1.0" standalone="no"?>
<!DOCTYPE svg PUBLIC "-//W3C//DTD SVG 20010904//EN"
 "http://www.w3.org/TR/2001/REC-SVG-20010904/DTD/svg10.dtd">
<svg version="1.0" xmlns="http://www.w3.org/2000/svg"
 width="1200.000000pt" height="660.000000pt" viewBox="0 0 1200.000000 660.000000"
 preserveAspectRatio="xMidYMid meet">
<metadata>
Created by potrace 1.13, written by Peter Selinger 2001-2015
</metadata>
<g transform="translate(0.000000,660.000000) scale(0.100000,-0.100000)"
fill="#000000" stroke="none">
<path d="M5775 6144 c-16 -2 -73 -9 -125 -15 -499 -56 -995 -262 -1420 -589
-125 -96 -396 -369 -491 -495 -315 -415 -493 -837 -575 -1365 -26 -164 -26
-606 0 -770 82 -527 260 -950 575 -1365 97 -129 377 -409 506 -506 424 -322
868 -505 1405 -581 144 -20 574 -17 725 5 515 76 954 260 1370 576 129 97 409
377 506 506 316 416 493 837 575 1365 26 164 26 606 0 770 -82 528 -260 950
-575 1365 -95 126 -366 399 -491 495 -345 266 -734 451 -1134 541 -201 45
-343 61 -586 64 -129 2 -248 1 -265 -1z m381 -760 c4 -15 4 -115 0 -223 l-7
-197 114 -16 c430 -64 684 -318 765 -768 6 -30 15 -82 21 -116 6 -33 11 -86
11 -117 l0 -57 -307 2 -308 3 -12 105 c-26 237 -101 345 -278 401 -62 20 -182
15 -235 -8 -59 -27 -134 -94 -166 -149 -58 -98 -71 -251 -32 -371 19 -58 31
-78 88 -133 69 -67 128 -102 310 -180 241 -104 394 -181 506 -256 215 -142
360 -336 402 -534 43 -208 41 -344 -7 -530 -49 -192 -204 -386 -376 -473 -148
-74 -355 -137 -451 -137 -20 0 -34 -6 -38 -15 -3 -9 -3 -98 1 -199 3 -100 3
-195 -1 -209 l-6 -27 -155 0 -155 0 -6 26 c-4 15 -4 111 -2 215 4 128 2 191
-5 198 -6 6 -26 11 -44 11 -60 0 -199 40 -310 90 -255 115 -455 377 -511 670
-27 140 -32 181 -32 243 l0 67 308 -2 307 -3 8 -75 c18 -171 56 -277 128 -355
83 -90 172 -125 319 -125 145 0 253 35 325 107 139 134 135 417 -6 562 -22 22
-60 54 -82 70 -41 28 -179 95 -247 121 -105 40 -352 179 -505 285 -125 86
-189 146 -244 229 -75 111 -109 190 -140 322 -16 68 -16 350 0 417 93 402 305
626 649 688 101 18 92 -6 84 218 -4 109 -4 210 0 225 l6 26 155 0 155 0 6 -26z
m-1849 -1734 c34 0 63 -18 63 -40 0 -7 14 -25 30 -40 17 -15 30 -35 30 -44 0
-9 5 -16 10 -16 6 0 10 -9 10 -20 0 -11 5 -20 10 -20 6 0 10 -13 10 -30 0 -16
5 -30 10 -30 6 0 10 -13 10 -30 0 -16 5 -30 10 -30 6 0 10 -18 10 -40 0 -22 5
-40 10 -40 6 0 10 -52 10 -135 0 -83 -4 -135 -10 -135 -5 0 -10 -9 -10 -20 0
-11 -4 -20 -10 -20 -5 0 -10 -11 -10 -25 0 -29 -79 -115 -105 -115 -8 0 -15
-4 -15 -10 0 -5 -20 -10 -45 -10 -25 0 -45 5 -45 10 0 6 -7 10 -15 10 -9 0
-36 21 -61 46 -36 35 -45 51 -41 70 3 16 0 24 -9 24 -8 0 -14 9 -14 20 0 11
-4 20 -10 20 -5 0 -10 14 -10 30 0 17 -4 30 -10 30 -6 0 -10 65 -10 175 0 110
4 175 10 175 6 0 10 14 10 30 0 17 5 30 10 30 6 0 10 9 10 20 0 11 5 20 10 20
6 0 10 12 10 26 0 16 12 37 30 54 17 15 30 35 30 44 0 9 8 16 20 16 11 0 20 6
21 13 0 10 2 10 6 0 2 -7 20 -13 40 -13z m3448 -35 c22 -21 35 -44 35 -60 0
-14 5 -25 10 -25 6 0 10 -32 10 -75 0 -43 -4 -75 -10 -75 -5 0 -10 -9 -10 -20
0 -13 -7 -20 -18 -20 -10 0 -24 -9 -31 -19 -13 -18 -15 -17 -47 15 -19 18 -34
40 -34 49 0 8 -4 15 -10 15 -5 0 -10 14 -10 30 0 17 -4 30 -10 30 -6 0 -10 28
-10 63 0 51 4 65 20 77 11 8 20 22 20 32 0 33 56 23 95 -17z"/>
<path d="M4258 3593 c18 -2 45 -2 60 0 15 2 0 4 -33 4 -33 0 -45 -2 -27 -4z"/>
<path d="M4201 3564 c-7 -8 -11 -17 -9 -20 3 -2 13 5 23 16 10 11 14 20 9 20
-5 -1 -15 -8 -23 -16z"/>
<path d="M4375 3540 c21 -22 41 -38 43 -35 5 5 -65 75 -75 75 -4 0 10 -18 32
-40z"/>
<path d="M4166 3504 c-5 -14 -4 -15 9 -4 17 14 19 20 6 20 -5 0 -12 -7 -15
-16z"/>
<path d="M4425 3470 c3 -5 8 -10 11 -10 2 0 4 5 4 10 0 6 -5 10 -11 10 -5 0
-7 -4 -4 -10z"/>
<path d="M4130 3409 c0 -5 5 -7 10 -4 6 3 10 8 10 11 0 2 -4 4 -10 4 -5 0 -10
-5 -10 -11z"/>
<path d="M4205 2890 c10 -11 20 -20 23 -20 3 0 -3 9 -13 20 -10 11 -20 20 -23
20 -3 0 3 -9 13 -20z"/>
<path d="M4434 2888 l-19 -23 23 19 c12 11 22 21 22 23 0 8 -8 2 -26 -19z"/>
<path d="M4245 2860 c-3 -5 1 -10 10 -10 9 0 13 5 10 10 -3 6 -8 10 -10 10 -2
0 -7 -4 -10 -10z"/>
<path d="M4385 2860 c-3 -5 1 -10 10 -10 9 0 13 5 10 10 -3 6 -8 10 -10 10 -2
0 -7 -4 -10 -10z"/>
<path d="M4303 2833 c15 -2 37 -2 50 0 12 2 0 4 -28 4 -27 0 -38 -2 -22 -4z"/>
</g>
</svg>
