<?xml version="1.0" standalone="no"?>
<!DOCTYPE svg PUBLIC "-//W3C//DTD SVG 20010904//EN"
 "http://www.w3.org/TR/2001/REC-SVG-20010904/DTD/svg10.dtd">
<svg version="1.0" xmlns="http://www.w3.org/2000/svg"
 width="1200.000000pt" height="660.000000pt" viewBox="0 0 1200.000000 660.000000"
 preserveAspectRatio="xMidYMid meet">
<metadata>
Created by potrace 1.13, written by Peter Selinger 2001-2015
</metadata>
<g transform="translate(0.000000,660.000000) scale(0.100000,-0.100000)"
fill="#000000" stroke="none">
<path d="M3090 5408 c0 -7 1 -269 2 -583 5 -1005 3 -1335 -6 -1337 -5 -2 -19
49 -32 112 -12 63 -27 123 -32 135 -5 11 -14 31 -20 45 -50 123 -98 204 -192
324 -118 152 -361 285 -640 350 -198 47 -673 44 -795 -4 -11 -4 -45 -13 -75
-20 -100 -22 -179 -51 -274 -100 -335 -170 -534 -474 -591 -901 -12 -94 -6
-393 10 -493 57 -355 254 -639 551 -794 185 -96 354 -141 614 -162 425 -35
801 47 1077 235 153 104 294 312 327 480 11 56 13 56 -274 53 -222 -3 -264 -5
-271 -18 -41 -81 -97 -163 -136 -201 -141 -135 -339 -197 -598 -186 -239 11
-380 70 -536 227 -80 80 -104 111 -138 181 -22 47 -44 100 -47 119 -4 19 -10
40 -14 45 -12 15 -33 154 -26 170 5 13 139 15 1063 13 l1058 -3 3 -100 c4
-109 -15 -785 -24 -877 l-6 -58 265 0 264 0 7 46 c3 26 6 77 6 114 0 82 9 130
24 130 6 0 30 -23 54 -50 48 -55 209 -167 299 -206 194 -87 345 -117 588 -117
309 -1 511 56 744 210 77 50 251 207 251 225 0 4 18 31 40 60 35 45 123 212
144 272 12 34 22 4 35 -100 19 -161 67 -266 175 -382 106 -114 280 -209 461
-253 238 -57 655 -44 872 27 161 52 324 154 431 268 29 31 57 56 61 56 5 0 12
-61 16 -136 4 -76 9 -143 12 -150 4 -11 54 -14 255 -14 l251 0 -7 58 c-10 94
-26 799 -26 1222 -1 282 -4 414 -14 463 -14 72 -10 83 16 40 60 -105 928
-1763 928 -1773 0 -12 -99 -206 -153 -300 -22 -38 -132 -242 -206 -385 -26
-49 -62 -114 -79 -143 -18 -29 -30 -58 -27 -63 4 -5 132 -9 305 -9 l299 0 19
27 c10 16 51 96 92 178 40 83 271 539 513 1015 391 769 512 1006 662 1295 23
44 92 179 153 300 62 121 133 258 157 304 25 46 45 90 45 97 0 12 -50 14 -289
14 l-288 0 -260 -522 c-142 -288 -342 -693 -443 -900 -102 -208 -188 -377
-192 -375 -7 2 -664 1313 -819 1635 l-78 162 -316 0 c-201 0 -315 -4 -315 -10
0 -5 25 -54 55 -109 30 -55 55 -105 55 -111 0 -7 -21 9 -47 35 -127 126 -339
219 -603 266 -156 28 -685 14 -765 -20 -11 -5 -47 -14 -80 -21 -264 -54 -492
-208 -583 -394 -52 -105 -87 -229 -75 -263 4 -10 68 -13 277 -13 l273 0 11 25
c7 14 12 32 12 40 0 27 71 134 109 164 58 46 177 99 261 117 58 12 113 15 245
11 190 -6 248 -18 365 -75 169 -82 258 -243 260 -469 l0 -43 -382 -1 c-211 0
-432 -4 -493 -9 -60 -5 -130 -11 -155 -13 -122 -10 -340 -57 -440 -94 -36 -14
-78 -29 -95 -36 -116 -42 -275 -176 -334 -279 -18 -32 -36 -58 -39 -58 -4 0
-7 98 -7 218 -1 227 -7 275 -57 430 -27 85 -105 236 -156 302 -93 120 -121
154 -139 164 -10 6 -30 22 -43 35 -101 97 -399 251 -486 251 -11 0 -24 4 -30
9 -5 6 -61 17 -124 27 -172 25 -438 13 -575 -27 -245 -70 -372 -140 -534 -294
l-64 -60 4 660 4 660 -267 3 c-211 2 -268 0 -268 -10z m-1109 -1304 c95 -18
257 -92 329 -150 81 -66 152 -175 192 -297 18 -54 23 -86 30 -172 l3 -30 -769
-3 c-424 -1 -774 2 -778 6 -14 14 39 192 84 281 95 190 297 332 526 371 84 14
295 11 383 -6z m2684 -20 c50 -14 99 -28 110 -31 11 -4 40 -18 65 -31 178 -99
276 -206 358 -395 51 -115 71 -229 72 -402 1 -175 -23 -294 -83 -425 -42 -90
-80 -142 -167 -230 -85 -85 -184 -143 -322 -187 -75 -25 -98 -28 -233 -28 -90
0 -176 5 -215 14 -86 18 -230 87 -305 145 -220 172 -344 489 -315 808 12 134
18 158 67 293 55 150 198 318 328 387 159 83 248 106 425 107 106 1 139 -3
215 -25z m3102 -920 c6 -15 -7 -177 -21 -253 -8 -49 -54 -167 -89 -230 -39
-69 -127 -163 -191 -205 -97 -62 -107 -67 -184 -92 -170 -56 -447 -69 -596
-29 -135 37 -255 126 -303 225 -29 59 -54 180 -42 202 5 9 9 28 9 42 0 15 9
46 21 70 35 76 82 121 171 164 146 71 262 90 593 99 127 3 237 9 245 14 8 5
97 9 198 9 159 0 183 -2 189 -16z"/>
<path d="M11188 4379 c-22 -24 -23 -36 -2 -56 10 -11 14 -27 11 -47 -2 -17 -1
-38 4 -47 11 -21 57 -33 74 -19 7 6 25 8 39 4 24 -6 26 -4 26 30 0 40 25 86
46 86 14 0 22 -23 26 -80 2 -27 7 -35 23 -35 16 0 21 8 23 35 3 43 21 80 38
80 14 0 22 -23 26 -80 2 -27 7 -35 23 -35 16 0 21 9 27 49 7 51 -2 81 -31 103
-20 16 -64 16 -78 2 -9 -9 -19 -9 -40 0 -27 11 -102 9 -122 -3 -11 -7 -61 14
-61 26 0 15 -35 7 -52 -13z m102 -94 c0 -48 -5 -52 -32 -31 -21 15 -24 62 -5
69 31 13 37 6 37 -38z"/>
</g>
</svg>
