<?xml version="1.0" standalone="no"?>
<!DOCTYPE svg PUBLIC "-//W3C//DTD SVG 20010904//EN"
 "http://www.w3.org/TR/2001/REC-SVG-20010904/DTD/svg10.dtd">
<svg version="1.0" xmlns="http://www.w3.org/2000/svg"
 width="1200.000000pt" height="660.000000pt" viewBox="0 0 1200.000000 660.000000"
 preserveAspectRatio="xMidYMid meet">
<metadata>
Created by potrace 1.13, written by Peter Selinger 2001-2015
</metadata>
<g transform="translate(0.000000,660.000000) scale(0.100000,-0.100000)"
fill="#000000" stroke="none">
<path d="M3569 6199 c-221 -33 -415 -212 -473 -436 -14 -55 -16 -314 -16
-2475 0 -2669 -5 -2458 65 -2598 40 -80 143 -191 216 -233 25 -15 78 -38 117
-52 l72 -25 2442 -1 2443 -1 72 25 c101 35 158 70 234 146 72 72 129 170 153
265 12 44 15 226 17 995 2 517 1 942 -2 945 -2 2 -325 1 -718 -2 l-714 -5 7
-581 c4 -320 4 -589 0 -599 -5 -15 -22 -17 -135 -17 -113 0 -135 3 -181 23
-29 13 -70 42 -90 65 -74 82 -68 -54 -68 1648 l0 1533 21 38 c30 55 76 99 126
123 37 17 63 20 182 20 118 0 140 -2 145 -16 3 -9 3 -256 -1 -549 l-6 -532
712 -8 c392 -4 715 -4 719 -1 3 4 5 414 3 913 -2 746 -5 916 -17 961 -26 100
-74 182 -154 263 -77 79 -128 110 -241 151 l-64 22 -2411 1 c-1326 0 -2431 -3
-2455 -6z m2461 -779 c0 -6 47 -10 120 -10 89 0 120 -3 120 -12 0 -9 15 -12
50 -10 37 3 50 0 50 -10 0 -10 11 -12 40 -10 25 3 40 0 40 -7 0 -6 7 -11 16
-11 18 0 44 -23 44 -39 0 -6 7 -8 14 -5 18 7 86 -58 86 -81 0 -8 5 -15 10 -15
6 0 10 -32 10 -75 0 -43 -4 -75 -10 -75 -5 0 -10 -18 -10 -40 0 -22 -4 -40
-10 -40 -5 0 -10 -9 -10 -19 0 -11 -5 -21 -12 -23 -7 -3 -11 -19 -10 -41 2
-27 -1 -37 -12 -37 -9 0 -12 -7 -9 -20 4 -13 0 -20 -9 -20 -10 0 -13 -9 -10
-30 3 -22 1 -30 -9 -28 -10 2 -13 -6 -11 -25 2 -15 -2 -35 -9 -43 -7 -8 -12
-32 -11 -53 1 -22 -4 -44 -12 -50 -7 -6 -11 -22 -8 -36 2 -14 -2 -32 -9 -41
-7 -9 -12 -33 -10 -55 2 -28 -1 -39 -11 -39 -10 0 -13 -10 -10 -35 2 -20 -1
-42 -9 -51 -7 -9 -12 -31 -10 -49 1 -19 -3 -44 -10 -57 -7 -12 -11 -46 -10
-75 1 -32 -2 -53 -8 -53 -6 0 -11 -13 -11 -28 0 -15 -5 -33 -11 -39 -7 -7 -11
-39 -10 -78 1 -41 -3 -73 -10 -82 -7 -8 -12 -37 -11 -66 1 -29 -2 -86 -8 -127
-5 -41 -9 -121 -9 -177 0 -65 -4 -103 -11 -103 -6 0 -10 -35 -11 -92 0 -61 -3
-86 -9 -73 -11 25 -10 32 -14 -115 -1 -69 -5 -141 -9 -160 -10 -58 -7 -425 3
-428 6 -2 10 -17 10 -33 0 -16 5 -29 10 -29 6 0 10 -13 10 -30 0 -16 5 -30 10
-30 6 0 10 -9 10 -20 0 -11 5 -20 10 -20 6 0 10 -13 10 -30 0 -16 5 -30 11
-30 6 0 9 -13 7 -29 -2 -20 5 -39 21 -57 15 -17 21 -35 18 -50 -3 -17 0 -24
11 -24 9 0 13 -7 9 -20 -3 -11 2 -27 10 -35 8 -9 12 -22 9 -30 -3 -9 1 -15 10
-15 11 0 15 -6 11 -20 -3 -13 0 -20 9 -20 8 0 13 -9 12 -22 -1 -13 8 -43 20
-67 12 -25 22 -51 22 -58 0 -7 6 -13 13 -13 8 0 9 -3 1 -8 -18 -12 -24 -52 -8
-52 8 0 14 -9 14 -19 0 -11 3 -21 8 -23 4 -2 18 -24 31 -50 13 -27 28 -48 34
-48 5 0 7 -9 4 -20 -3 -13 0 -20 9 -20 8 0 14 -7 14 -15 0 -8 -4 -15 -10 -15
-17 0 -11 -22 11 -41 12 -10 19 -25 16 -32 -3 -8 6 -26 19 -40 25 -27 31 -47
14 -47 -5 0 -10 -11 -10 -25 0 -14 5 -25 10 -25 6 0 10 -10 10 -23 0 -16 -10
-27 -37 -39 -21 -9 -30 -17 -20 -17 13 -1 17 -10 17 -37 0 -31 -3 -36 -19 -31
-13 3 -32 -7 -55 -29 -24 -23 -46 -34 -64 -34 -36 1 -122 -21 -122 -32 0 -4
-18 -8 -40 -8 -22 0 -40 -4 -40 -10 0 -6 -95 -10 -265 -10 -170 0 -265 4 -265
10 0 6 -18 10 -40 10 -22 0 -40 4 -40 8 0 11 -86 33 -122 32 -18 0 -40 11 -64
34 -23 22 -42 32 -55 29 -16 -5 -19 0 -19 31 0 27 4 36 18 37 9 0 0 8 -20 17
-28 12 -38 23 -38 39 0 13 5 23 10 23 6 0 10 11 10 25 0 14 -4 25 -10 25 -5 0
-10 7 -10 15 0 8 5 15 10 15 6 0 10 9 10 20 0 11 7 20 15 20 9 0 12 6 9 15 -6
15 12 39 35 46 11 4 10 8 -3 22 -10 9 -13 17 -7 17 6 0 11 7 11 15 0 9 9 25
20 37 11 12 20 28 20 35 0 7 5 13 10 13 6 0 10 9 10 20 0 11 6 20 14 20 9 0
12 7 9 20 -4 14 0 20 10 20 10 0 13 6 10 19 -3 13 1 20 13 23 17 3 17 4 0 21
-10 9 -13 17 -7 17 6 0 11 9 11 20 0 11 7 20 15 20 9 0 12 6 9 15 -6 15 17 45
34 45 6 0 8 9 5 20 -4 14 0 20 11 20 10 0 14 5 11 10 -9 14 17 70 32 70 6 0 9
8 6 20 -4 14 0 20 10 20 10 0 13 6 10 20 -4 14 0 20 10 20 10 0 13 6 10 20 -4
14 0 20 10 20 10 0 13 6 10 20 -4 14 0 20 10 20 10 0 13 6 10 20 -4 13 0 20 9
20 11 0 14 7 11 24 -3 15 3 33 18 50 19 22 22 35 20 96 -2 44 2 70 8 70 6 0
11 11 11 25 0 14 -4 25 -10 25 -5 0 -10 20 -10 45 0 36 4 45 18 46 13 0 14 2
2 6 -27 10 -82 74 -76 89 3 8 1 14 -5 14 -16 0 -39 26 -39 44 0 9 -7 16 -16
16 -20 0 -44 24 -44 44 0 9 -8 16 -18 16 -9 0 -23 13 -30 30 -8 17 -21 30 -30
30 -19 0 -62 39 -62 56 0 7 -8 10 -20 7 -15 -4 -20 0 -20 16 0 12 -6 21 -15
21 -18 0 -65 43 -65 59 0 6 -7 8 -14 5 -9 -4 -38 18 -76 55 -34 34 -66 61 -71
61 -14 0 -39 26 -39 39 0 6 -7 8 -14 5 -18 -7 -86 58 -86 81 0 8 -4 15 -10 15
-5 0 -10 9 -10 20 0 11 -4 20 -10 20 -6 0 -10 35 -10 85 0 50 4 85 10 85 6 0
10 14 10 30 0 19 5 30 14 30 9 0 12 7 9 20 -4 14 0 20 10 20 10 0 13 6 10 20
-4 14 0 20 10 20 10 0 13 6 10 20 -4 14 0 20 10 20 10 0 13 6 10 21 -5 17 -2
20 18 17 20 -2 23 1 21 20 -2 14 2 22 11 22 10 0 13 7 10 20 -4 14 0 20 11 20
10 0 14 5 11 10 -9 14 17 70 32 70 6 0 9 8 6 18 -2 10 2 24 10 31 8 6 13 21
10 31 -4 14 0 20 11 20 10 0 13 6 10 15 -4 8 0 23 7 31 8 9 12 29 11 45 -3 20
1 29 11 29 10 0 13 8 9 25 -2 14 1 32 8 40 9 10 12 41 11 85 -2 44 2 70 8 70
7 0 11 31 11 85 0 54 -4 85 -11 85 -7 0 -9 31 -7 90 2 67 0 90 -9 90 -8 0 -13
15 -13 40 0 22 -5 40 -11 40 -6 0 -9 16 -8 40 2 22 -2 45 -9 52 -7 7 -12 25
-12 40 0 15 -4 28 -10 28 -6 0 -10 27 -10 60 0 33 -4 60 -10 60 -5 0 -10 11
-10 25 0 14 5 25 10 25 6 0 10 16 10 36 0 39 22 69 45 60 8 -3 17 -1 20 4 4 6
-1 10 -9 10 -9 0 -16 7 -16 16 0 11 6 15 20 11 11 -3 20 -1 20 5 0 15 27 38
44 38 9 0 16 5 16 11 0 7 12 10 30 7 21 -3 30 0 30 10 0 10 9 13 30 10 21 -3
30 0 30 10 0 11 12 13 50 10 35 -2 50 1 50 10 0 9 33 12 130 12 80 0 130 4
130 10 0 6 16 10 35 10 19 0 35 -4 35 -10z m-1032 -974 c2 -433 0 -551 -10
-558 -19 -12 -436 -10 -459 2 -18 10 -19 26 -19 443 0 403 1 436 19 485 27 73
61 114 123 151 l53 31 145 -3 145 -2 3 -549z m-872 -756 c8 0 14 6 15 13 0 10
2 10 6 0 2 -7 18 -13 34 -13 16 0 29 -4 29 -10 0 -5 7 -10 16 -10 22 0 47 -28
41 -45 -13 -31 56 -51 75 -21 5 6 8 2 8 -11 0 -13 5 -23 11 -23 7 0 9 -12 7
-30 -3 -17 -1 -33 4 -36 4 -3 8 2 8 10 0 9 7 16 15 16 11 0 15 -11 15 -40 0
-22 5 -40 10 -40 6 0 10 -28 10 -65 0 -37 -4 -65 -10 -65 -5 0 -10 -18 -10
-41 0 -37 -1 -39 -16 -25 -21 21 -33 13 -27 -18 6 -32 -19 -58 -51 -54 -30 4
-55 -18 -49 -42 6 -23 -15 -27 -37 -7 -8 6 -7 3 3 -9 9 -11 17 -27 16 -35 0
-10 -2 -10 -6 -1 -2 6 -17 12 -31 11 -15 0 -21 -3 -14 -6 6 -2 12 -12 11 -21
0 -11 -2 -12 -6 -4 -2 6 -16 12 -29 12 -13 0 -24 -6 -25 -12 0 -10 -2 -10 -6
0 -2 6 -11 12 -19 12 -8 0 -14 -6 -15 -12 0 -10 -2 -10 -6 0 -2 6 -13 12 -24
12 -12 0 -19 7 -19 20 0 11 -7 20 -15 20 -8 0 -15 -5 -15 -11 0 -6 -7 -4 -15
5 -8 8 -15 26 -15 40 0 14 -4 26 -10 26 -5 0 -10 18 -10 40 0 22 -4 40 -10 40
-6 0 -10 45 -10 115 0 70 4 115 10 115 6 0 10 18 10 40 0 22 5 40 10 40 6 0
10 14 10 30 0 17 5 30 10 30 6 0 10 10 11 23 0 12 3 16 6 10 8 -20 26 -15 53
17 14 15 27 24 28 19 2 -5 10 -9 18 -9z m184 -75 c0 -8 -7 -15 -15 -15 -8 0
-15 7 -15 15 0 8 7 15 15 15 8 0 15 -7 15 -15z m0 -460 c0 -8 -7 -15 -15 -15
-8 0 -15 7 -15 15 0 8 7 15 15 15 8 0 15 -7 15 -15z m1228 -393 c9 -7 12 -50
10 -183 l-3 -174 -272 4 -273 4 -2 -429 -3 -429 -147 -3 c-131 -2 -152 0 -185
17 -74 39 -122 97 -142 171 -8 33 -11 177 -9 530 l3 485 445 5 c245 3 472 6
505 8 33 1 66 -2 73 -6z"/>
<path d="M6365 4160 c-3 -5 -1 -10 4 -10 6 0 11 5 11 10 0 6 -2 10 -4 10 -3 0
-8 -4 -11 -10z"/>
<path d="M5166 3325 c4 -8 11 -15 16 -15 6 0 5 6 -2 15 -7 8 -14 15 -16 15 -2
0 -1 -7 2 -15z"/>
<path d="M5826 2725 c4 -8 11 -15 16 -15 6 0 5 6 -2 15 -7 8 -14 15 -16 15 -2
0 -1 -7 2 -15z"/>
<path d="M5890 2591 c0 -25 6 -27 13 -6 4 8 2 17 -3 20 -6 4 -10 -3 -10 -14z"/>
<path d="M5910 2527 c0 -26 -4 -47 -10 -47 -5 0 -10 -5 -10 -12 0 -7 7 -5 18
5 10 10 17 29 16 51 -2 54 -14 56 -14 3z"/>
<path d="M6280 2376 c0 -2 7 -9 15 -16 13 -11 14 -10 9 4 -5 14 -24 23 -24 12z"/>
<path d="M5546 1201 c-3 -5 3 -11 15 -14 16 -4 18 -3 8 9 -13 16 -16 17 -23 5z"/>
<path d="M6521 1196 c-10 -12 -8 -13 8 -9 12 3 18 9 15 14 -7 12 -10 11 -23
-5z"/>
<path d="M5740 1140 c-12 -8 -10 -10 8 -10 13 0 20 4 17 10 -7 12 -6 12 -25 0z"/>
<path d="M6324 1139 c-3 -5 6 -9 20 -9 31 0 34 6 6 13 -11 3 -23 1 -26 -4z"/>
<path d="M4164 3651 c3 -5 15 -7 26 -4 28 7 25 13 -6 13 -14 0 -23 -4 -20 -9z"/>
<path d="M4070 3636 c0 -8 -6 -16 -12 -19 -7 -2 -10 -7 -7 -11 3 -3 14 2 23
13 11 12 14 21 7 26 -6 3 -11 0 -11 -9z"/>
<path d="M4020 3596 c0 -2 7 -9 15 -16 13 -11 14 -10 9 4 -5 14 -24 23 -24 12z"/>
<path d="M4327 3549 c-4 -16 -3 -18 9 -8 7 6 11 15 8 20 -8 13 -11 11 -17 -12z"/>
<path d="M4390 3429 c0 -16 4 -28 9 -25 8 5 3 56 -5 56 -2 0 -4 -14 -4 -31z"/>
<path d="M4390 3341 c0 -17 2 -31 4 -31 8 0 13 51 5 56 -5 3 -9 -9 -9 -25z"/>
<path d="M4326 3221 c-4 -5 -2 -12 3 -15 5 -4 12 -2 15 3 4 5 2 12 -3 15 -5 4
-12 2 -15 -3z"/>
<path d="M4030 3165 c-7 -9 -8 -15 -2 -15 5 0 12 7 16 15 3 8 4 15 2 15 -2 0
-9 -7 -16 -15z"/>
<path d="M4050 3146 c0 -11 30 -39 36 -34 2 3 -5 13 -16 23 -11 10 -20 15 -20
11z"/>
</g>
</svg>
