<?xml version="1.0" standalone="no"?>
<!DOCTYPE svg PUBLIC "-//W3C//DTD SVG 20010904//EN"
 "http://www.w3.org/TR/2001/REC-SVG-20010904/DTD/svg10.dtd">
<svg version="1.0" xmlns="http://www.w3.org/2000/svg"
 width="1200.000000pt" height="660.000000pt" viewBox="0 0 1200.000000 660.000000"
 preserveAspectRatio="xMidYMid meet">
<metadata>
Created by potrace 1.13, written by Peter Selinger 2001-2015
</metadata>
<g transform="translate(0.000000,660.000000) scale(0.100000,-0.100000)"
fill="#000000" stroke="none">
<path d="M2640 6164 c-147 -50 -262 -150 -330 -289 -61 -122 -60 -99 -60
-1254 0 -718 3 -1075 11 -1120 36 -218 218 -409 432 -455 51 -11 630 -13 3352
-11 l3290 2 60 21 c95 33 154 70 226 141 72 73 109 133 142 231 l22 65 0 1120
c0 1072 -1 1122 -19 1175 -65 188 -195 320 -372 376 l-75 24 -3302 0 -3302 -1
-75 -25z m2059 -428 c8 -9 11 -76 9 -227 l-3 -214 -810 -5 c-795 -5 -811 -5
-855 -26 -79 -37 -118 -80 -150 -167 -5 -16 -16 -27 -23 -25 -6 3 -28 36 -47
74 -34 66 -35 73 -35 179 0 105 2 113 34 179 43 89 112 158 199 199 l67 32
575 5 c316 3 677 6 801 8 184 2 228 0 238 -12z m811 4 c0 -6 -18 -34 -41 -62
-45 -58 -72 -106 -93 -170 -36 -106 -38 -191 -31 -1120 l8 -907 -24 -6 c-13
-3 -116 -4 -229 -3 l-205 3 -3 880 c-2 623 0 898 8 940 18 95 75 200 150 276
72 72 129 109 216 140 86 31 244 49 244 29z m1250 -18 c182 -73 280 -212 280
-400 0 -75 -4 -96 -34 -162 -19 -45 -51 -90 -62 -90 -6 0 -14 13 -17 28 -11
55 -70 125 -132 157 l-59 30 -519 3 c-579 3 -585 3 -671 -63 -26 -19 -48 -35
-51 -35 -3 0 -5 45 -5 100 0 118 22 196 76 276 62 92 172 160 283 175 31 4
236 6 456 5 388 -1 402 -2 455 -24z m2449 19 c14 -8 16 -35 16 -228 l0 -218
-716 -5 -715 -5 -59 -30 c-64 -33 -110 -82 -130 -141 -7 -22 -19 -39 -26 -39
-17 0 -62 79 -78 136 -8 29 -12 84 -10 140 3 79 9 103 33 154 58 118 184 214
306 234 72 11 1357 13 1379 2z m-1800 -626 c45 -132 170 -238 315 -264 39 -7
262 -11 630 -11 561 0 572 0 633 -22 237 -83 344 -354 231 -585 -12 -24 -29
-50 -39 -59 -17 -16 -19 -16 -25 2 -28 88 -69 140 -138 177 -40 22 -50 22
-636 27 -587 6 -596 6 -659 29 -229 81 -390 305 -390 541 0 94 39 237 58 214
4 -5 13 -27 20 -49z m-238 3 c9 -28 14 -87 14 -168 0 -107 -4 -135 -24 -190
-59 -161 -190 -290 -357 -353 -58 -22 -65 -22 -684 -22 l-625 0 0 225 0 225
655 6 c624 5 676 7 745 35 47 18 136 87 163 127 34 49 72 125 72 144 0 30 28
10 41 -29z m-3150 -23 c25 -54 87 -110 131 -119 62 -12 14 -27 -78 -24 l-89 3
-3 93 c-3 104 7 116 39 47z m-11 -264 c0 -5 -7 -15 -16 -22 -26 -21 -88 -119
-111 -174 -22 -52 -41 -141 -46 -210 l-2 -40 -385 -5 c-371 -5 -386 -6 -425
-27 -66 -35 -135 -122 -135 -168 0 -38 -37 -6 -70 60 -34 67 -35 74 -35 180 0
104 2 114 32 175 53 107 139 185 246 221 47 16 98 18 500 18 250 1 447 -3 447
-8z m698 -210 c2 -143 -1 -218 -9 -227 -8 -10 -71 -14 -272 -16 -289 -3 -287
-3 -359 -72 -21 -20 -44 -51 -52 -71 -8 -19 -20 -35 -27 -35 -9 0 -11 39 -7
158 5 127 10 168 27 212 43 114 143 211 255 249 54 18 82 20 251 18 l190 -2 3
-214z m4693 -450 c52 -250 -72 -515 -294 -628 -114 -58 -77 -55 -947 -64 -443
-5 -811 -7 -817 -4 -10 3 -13 60 -13 235 l0 230 863 2 862 3 55 22 c70 29 138
84 182 148 31 45 42 68 63 130 6 19 7 20 20 1 8 -10 19 -44 26 -75z m-6711 67
c0 -7 11 -36 24 -64 42 -90 124 -166 226 -210 43 -18 85 -19 865 -24 l820 -5
3 -221 c2 -170 -1 -223 -10 -230 -8 -5 -339 -7 -778 -4 -739 5 -767 6 -821 26
-183 67 -327 222 -373 400 -24 94 -20 233 10 332 2 6 10 12 19 12 8 0 15 -6
15 -12z"/>
<path d="M2690 2672 c0 -4 55 -62 123 -130 l122 -122 928 0 c510 0 927 4 927
9 0 18 -47 77 -79 98 -18 12 -58 33 -89 45 -57 23 -60 23 -615 26 l-558 3 -39
-22 -40 -22 -64 61 -64 62 -276 0 c-152 0 -276 -3 -276 -8z"/>
<path d="M5294 2632 c-6 -4 -15 -27 -20 -52 l-9 -45 -174 -3 -175 -2 54 -55
54 -55 723 0 c435 0 723 4 723 9 0 5 -11 23 -25 39 -36 43 -101 62 -208 62
l-90 0 6 49 c3 27 2 51 -3 53 -5 2 -63 2 -128 0 l-119 -3 -9 -47 -9 -47 -138
-3 -139 -3 4 53 3 53 -155 2 c-85 2 -160 0 -166 -5z"/>
<path d="M6775 2630 c-3 -5 -9 -29 -13 -52 l-7 -43 -90 -5 c-98 -5 -101 -8
-104 -82 l-1 -28 385 0 386 0 19 46 c11 25 20 50 20 55 0 4 -62 10 -137 11
l-138 3 4 30 c10 76 24 70 -156 73 -101 1 -164 -1 -168 -8z"/>
<path d="M8315 2628 c-3 -7 -8 -31 -13 -53 l-8 -40 -434 -5 -435 -5 50 -52 50
-51 1125 -4 1124 -3 8 45 c15 82 57 75 -462 75 l-465 0 0 50 0 50 -268 3
c-209 2 -269 0 -272 -10z"/>
<path d="M2724 2359 c-2 -4 36 -45 84 -93 l87 -86 161 0 162 0 41 55 42 55
505 0 c557 0 543 2 490 -61 -14 -17 -26 -35 -26 -40 0 -15 475 -12 487 4 9 11
35 158 29 164 -5 6 -2058 8 -2062 2z"/>
<path d="M8645 2363 c-534 -2 -883 -7 -889 -13 -5 -5 -12 -26 -15 -47 l-6 -38
-108 -3 c-59 -1 -107 -6 -107 -10 0 -5 15 -22 33 -40 l33 -32 889 0 c769 1
887 3 865 15 -14 7 -43 17 -64 21 -34 5 -37 8 -21 17 12 7 96 8 247 4 l229 -7
15 36 c8 20 14 50 12 68 l-3 31 -115 0 c-63 0 -511 -1 -995 -2z"/>
<path d="M4940 2352 c0 -4 37 -45 83 -90 l83 -83 100 3 99 3 12 65 c7 36 12
75 13 88 l0 22 -195 0 c-107 0 -195 -3 -195 -8z"/>
<path d="M5496 2351 c-10 -15 -34 -155 -29 -163 7 -13 261 -9 269 3 6 10 34
142 34 162 0 10 -268 9 -274 -2z"/>
<path d="M5856 2352 c-6 -10 -26 -129 -26 -155 0 -16 11 -17 127 -15 l127 3
12 65 c23 119 33 110 -110 110 -69 0 -127 -4 -130 -8z"/>
<path d="M6191 2308 c-6 -29 -12 -69 -13 -88 l-3 -35 125 0 125 0 17 80 c9 43
14 83 12 87 -3 4 -61 8 -129 8 l-124 0 -10 -52z"/>
<path d="M6545 2348 c-9 -29 -25 -121 -25 -143 l0 -25 134 0 c120 0 135 2 140
18 5 17 26 140 26 155 0 4 -61 7 -135 7 -100 0 -137 -3 -140 -12z"/>
<path d="M6971 2313 c-6 -27 -12 -66 -13 -88 l-3 -40 137 -3 137 -3 6 33 c3
18 9 55 14 83 5 27 7 53 5 57 -3 5 -65 8 -139 8 l-133 0 -11 -47z"/>
<path d="M2690 2115 c0 -6 37 -47 83 -93 l82 -82 162 0 161 0 41 55 42 55 509
0 c489 0 510 -1 510 -18 0 -11 -9 -27 -20 -37 -11 -10 -20 -26 -20 -37 0 -17
13 -18 234 -18 129 0 237 4 240 9 7 10 37 163 33 167 -1 1 -464 4 -1030 6
-695 2 -1027 0 -1027 -7z"/>
<path d="M8428 2123 c-544 -2 -988 -7 -988 -11 0 -4 37 -44 83 -90 l82 -82
141 0 142 0 10 28 c6 15 13 35 16 45 5 16 19 17 148 15 l143 -3 -3 -40 -3 -40
268 3 c147 1 270 5 274 10 4 4 9 21 11 37 l3 30 148 3 148 3 -3 -43 -3 -43
253 -3 252 -2 0 30 c0 66 -56 148 -105 153 -16 1 -474 1 -1017 0z"/>
<path d="M4940 2112 c0 -4 37 -44 83 -90 l82 -82 70 0 c39 0 75 4 80 8 9 6 35
128 35 162 0 6 -67 10 -175 10 -96 0 -175 -3 -175 -8z"/>
<path d="M5456 2111 c-11 -17 -36 -153 -30 -162 7 -12 261 -12 268 0 5 7 36
155 36 169 0 7 -270 1 -274 -7z"/>
<path d="M5810 2096 c-5 -14 -10 -53 -12 -88 l-3 -63 114 -3 c68 -2 118 1 126
8 7 5 15 31 18 58 3 26 9 62 13 80 l7 32 -127 0 c-125 0 -127 0 -136 -24z"/>
<path d="M6156 2103 c-13 -44 -25 -148 -17 -156 4 -4 61 -6 126 -5 l119 3 13
60 c7 33 12 72 13 88 l0 27 -124 0 c-110 0 -125 -2 -130 -17z"/>
<path d="M6507 2113 c-7 -11 -27 -123 -27 -150 0 -23 1 -23 130 -23 126 0 131
1 140 23 12 27 30 139 23 150 -2 4 -62 7 -133 7 -71 0 -131 -3 -133 -7z"/>
<path d="M6936 2103 c-13 -44 -25 -148 -17 -156 4 -4 66 -6 137 -5 l129 3 16
80 c9 44 14 83 12 88 -2 4 -64 7 -138 7 -119 0 -134 -2 -139 -17z"/>
<path d="M2679 1873 c15 -29 158 -163 172 -163 336 -4 1816 3 1821 8 10 10 37
155 31 165 -2 4 -461 7 -1019 7 -963 0 -1014 -1 -1005 -17z"/>
<path d="M4920 1884 c0 -4 37 -44 82 -90 l82 -84 251 0 251 0 47 82 c25 45 44
86 41 90 -6 10 -245 10 -260 0 -6 -4 -19 -22 -28 -39 -15 -31 -20 -33 -66 -33
-49 0 -49 0 -60 40 l-11 40 -164 0 c-91 0 -165 -3 -165 -6z"/>
<path d="M5775 1868 c-24 -96 -31 -150 -20 -154 6 -3 65 -3 131 -2 l119 3 7
55 c4 30 9 69 10 85 l3 30 -122 3 c-120 3 -123 2 -128 -20z"/>
<path d="M6120 1871 c-12 -23 -30 -142 -23 -153 2 -5 59 -8 127 -8 l122 0 12
70 c20 120 30 110 -108 110 -108 0 -120 -2 -130 -19z"/>
<path d="M6475 1878 c-3 -7 1 -47 7 -88 l13 -75 287 -3 287 -2 30 44 c17 25
31 48 31 53 0 4 9 19 20 33 38 48 31 51 -117 48 l-137 -3 -20 -38 c-20 -37
-21 -38 -70 -35 -46 3 -51 6 -54 28 -7 47 -17 50 -149 50 -90 0 -125 -3 -128
-12z"/>
<path d="M7380 1877 c0 -7 35 -47 78 -89 l77 -77 985 -2 984 -2 13 49 c7 27
14 67 15 89 l3 40 -250 0 -250 0 -11 -45 -11 -45 -149 0 c-124 0 -148 2 -146
14 2 8 6 27 9 43 l6 28 -274 -2 c-265 -3 -274 -4 -277 -23 -10 -70 3 -65 -158
-65 -158 0 -164 2 -144 55 8 22 8 30 -2 37 -7 4 -122 8 -255 8 -190 0 -243 -3
-243 -13z"/>
<path d="M2762 1567 c-45 -45 -82 -86 -82 -90 0 -10 1848 -9 1854 2 3 5 -22
21 -57 37 l-62 29 -465 3 c-255 1 -469 7 -474 12 -5 5 0 21 13 38 11 17 21 35
21 41 0 8 -98 11 -333 11 l-332 0 -83 -83z"/>
<path d="M4845 1568 c44 -45 85 -86 90 -90 6 -4 160 -7 344 -5 l335 2 7 27 c4
14 10 54 14 87 l7 61 -438 0 -439 0 80 -82z"/>
<path d="M5735 1638 c-11 -30 -32 -154 -28 -160 8 -14 239 -9 250 5 6 6 13 32
16 57 4 25 9 60 13 78 l7 32 -127 0 c-92 0 -128 -3 -131 -12z"/>
<path d="M6076 1633 c-9 -30 -24 -148 -19 -155 5 -10 224 -10 239 0 6 4 14 27
18 52 4 25 9 62 13 83 l6 37 -126 0 c-111 0 -126 -2 -131 -17z"/>
<path d="M6425 1638 c-11 -31 -25 -106 -25 -135 l0 -33 343 0 c188 0 347 4
353 8 11 7 34 107 34 149 l0 23 -350 0 c-272 0 -352 -3 -355 -12z"/>
<path d="M7629 1616 c18 -19 31 -38 27 -44 -3 -5 -94 -7 -226 -4 -133 3 -220
1 -220 -5 0 -5 18 -27 40 -48 l41 -40 1088 -1 1088 0 16 80 c8 44 13 84 11 88
-3 5 -431 8 -952 8 l-946 0 33 -34z"/>
<path d="M2537 1272 c-75 -75 -137 -143 -137 -151 0 -10 32 -11 173 -6 155 7
175 6 190 -9 16 -16 13 -23 -45 -109 -116 -174 -236 -327 -390 -498 -43 -48
-78 -92 -78 -98 0 -15 513 -16 540 -1 46 25 314 389 470 640 100 161 101 163
55 172 -10 2 -26 15 -34 29 -13 24 -13 29 2 53 l17 26 350 0 349 0 20 -26 c21
-27 18 -47 -12 -72 -9 -8 -94 -13 -267 -14 l-253 -3 -16 -30 c-109 -198 -322
-510 -478 -697 l-65 -78 311 0 310 0 28 36 c15 20 37 46 48 58 l20 21 3 -57 3
-58 399 0 c371 0 399 1 404 18 5 15 53 298 76 447 11 65 18 105 52 295 12 69
22 152 23 185 l0 60 -965 3 -965 2 -138 -138z m1459 -224 c-6 -45 -18 -114
-35 -208 -5 -30 -17 -92 -25 -138 -8 -46 -20 -90 -27 -98 -8 -10 -35 -14 -98
-14 -47 0 -92 4 -98 8 -9 6 2 30 41 87 52 79 175 294 209 368 24 51 41 48 33
-5z"/>
<path d="M5051 1373 c-7 -21 -16 -47 -21 -58 -4 -11 -19 -49 -33 -85 l-25 -65
-106 -3 c-100 -2 -107 -4 -116 -25 -14 -36 -32 -146 -25 -158 4 -6 40 -9 86
-8 44 1 82 -1 85 -4 8 -7 -120 -354 -158 -432 -17 -33 -41 -74 -54 -92 -13
-17 -24 -34 -24 -38 0 -3 98 -4 217 -3 l217 3 17 45 c10 25 55 148 100 274 45
125 88 234 96 241 8 8 35 13 68 13 30 -1 57 1 60 4 11 10 63 167 57 172 -3 3
-29 6 -59 6 -58 0 -62 6 -42 57 18 45 69 186 69 190 0 1 -89 3 -198 3 l-198 0
-13 -37z"/>
<path d="M5676 1363 c-10 -27 -21 -59 -26 -73 -5 -14 -22 -63 -39 -110 -16
-47 -48 -139 -71 -205 -137 -395 -167 -467 -216 -532 -13 -17 -24 -34 -24 -37
0 -11 306 -6 317 5 8 8 13 8 17 0 8 -13 456 -16 456 -3 0 4 23 119 50 255 28
137 50 256 50 265 1 40 14 44 126 44 60 -1 113 -1 118 -2 5 0 6 -17 2 -37 -11
-67 -45 -255 -70 -392 -14 -74 -24 -136 -23 -137 1 -1 93 -4 205 -7 182 -5
205 -4 220 11 12 12 27 77 50 222 19 113 39 234 46 270 l13 65 63 3 c36 2 69
7 76 13 6 5 14 33 17 62 4 29 10 67 13 85 l7 32 -66 0 c-36 0 -68 4 -72 9 -5
8 10 106 31 209 l7 32 -215 0 -215 0 -12 -62 c-7 -35 -18 -90 -24 -123 l-12
-60 -108 -3 c-90 -2 -108 0 -113 13 -4 9 3 62 15 118 11 57 21 106 21 110 0 4
-57 6 -127 5 l-128 -3 -13 -60 c-7 -33 -17 -82 -22 -110 -6 -27 -14 -68 -19
-90 -5 -22 -18 -85 -30 -140 -11 -55 -30 -140 -41 -190 -11 -49 -25 -115 -30
-145 -19 -101 -18 -100 -114 -100 -47 0 -87 4 -90 8 -2 4 56 187 129 407 74
220 135 406 135 413 0 9 -31 12 -124 12 l-123 0 -17 -47z"/>
<path d="M7320 1402 c0 -4 17 -25 38 -45 l38 -37 344 -2 345 -3 -4 -45 c-1
-25 -9 -60 -16 -77 l-14 -33 -406 0 -405 0 -9 -22 c-41 -103 -58 -154 -54
-162 4 -5 186 -7 422 -5 l416 4 -1 -50 c0 -27 -3 -62 -7 -77 l-7 -28 -412 -2
-411 -3 -33 -89 c-18 -49 -30 -94 -27 -99 4 -6 160 -8 422 -6 l416 4 0 -25 0
-25 -124 -5 -124 -5 -28 -79 c-16 -44 -27 -82 -24 -84 2 -2 185 -3 407 -3 330
1 405 4 413 15 6 8 17 55 24 105 8 51 19 95 25 99 6 4 188 7 405 7 l395 0 21
125 c12 69 25 146 29 173 l7 47 74 0 74 0 6 48 c4 26 11 64 17 86 15 59 8 66
-68 66 l-67 0 7 38 c3 20 9 62 12 93 6 53 5 56 -26 82 l-32 27 -1029 0 c-566
0 -1029 -4 -1029 -8z m1610 -94 c0 -41 -21 -133 -32 -140 -7 -4 -73 -8 -146
-8 -106 0 -134 3 -138 14 -5 14 13 122 23 139 2 4 69 7 149 7 108 0 144 -3
144 -12z m-121 -334 l61 -7 -6 -51 c-13 -102 -4 -97 -166 -94 l-143 3 1 30 c3
51 17 110 28 117 14 9 142 10 225 2z"/>
</g>
</svg>
