<?xml version="1.0" standalone="no"?>
<!DOCTYPE svg PUBLIC "-//W3C//DTD SVG 20010904//EN"
 "http://www.w3.org/TR/2001/REC-SVG-20010904/DTD/svg10.dtd">
<svg version="1.0" xmlns="http://www.w3.org/2000/svg"
 width="1200.000000pt" height="660.000000pt" viewBox="0 0 1200.000000 660.000000"
 preserveAspectRatio="xMidYMid meet">
<metadata>
Created by potrace 1.13, written by Peter Selinger 2001-2015
</metadata>
<g transform="translate(0.000000,660.000000) scale(0.100000,-0.100000)"
fill="#000000" stroke="none">
<path d="M1540 4490 l-505 -6 -90 -27 c-143 -45 -218 -89 -315 -186 -122 -123
-179 -243 -227 -478 -12 -65 -16 -202 -20 -805 -3 -401 -1 -728 4 -728 13 0
14 1 296 286 l267 270 0 390 c0 356 2 398 20 468 52 204 177 272 490 264 l135
-3 0 -202 c0 -205 4 -229 38 -221 23 5 989 967 982 978 -6 10 -162 10 -1075 0z"/>
<path d="M5537 4471 c-81 -5 -91 -8 -113 -34 l-24 -28 0 -1131 c0 -1036 1
-1132 17 -1158 9 -16 27 -33 40 -39 33 -15 334 -14 367 1 59 26 55 -44 56
1191 1 1199 3 1158 -44 1187 -24 15 -168 21 -299 11z"/>
<path d="M8174 4469 c-11 -6 -28 -23 -37 -39 -16 -26 -17 -108 -17 -965 0
-828 2 -944 16 -1008 40 -176 143 -295 297 -346 74 -24 237 -41 400 -41 187 0
207 19 207 201 l0 111 -34 34 c-33 33 -36 34 -115 34 -157 0 -229 30 -271 115
l-25 50 0 387 0 387 29 30 30 31 153 0 c163 0 201 8 223 49 5 11 10 76 10 146
0 122 -1 127 -25 149 -24 23 -34 24 -190 27 l-165 4 -27 28 -28 28 0 268 c0
290 0 287 -56 317 -33 17 -341 19 -375 3z"/>
<path d="M9412 4452 c-17 -16 -34 -40 -37 -53 -3 -13 -4 -451 -3 -974 l3 -950
23 -66 c48 -144 155 -255 285 -298 77 -26 219 -40 400 -41 l139 0 34 34 34 34
0 125 c0 118 -2 128 -24 153 -22 27 -29 28 -142 35 -92 5 -129 11 -161 27 -50
26 -89 71 -103 120 -6 22 -10 186 -10 415 l0 379 29 29 29 29 157 0 c227 0
235 7 235 195 0 111 -1 116 -27 144 -27 29 -31 30 -148 35 -66 3 -142 5 -168
6 -37 0 -53 6 -72 25 l-25 24 0 265 0 266 -29 32 -29 33 -179 3 -180 3 -31
-29z"/>
<path d="M4180 4464 c-14 -2 -59 -9 -100 -15 -70 -10 -130 -24 -206 -47 -55
-17 -172 -80 -230 -124 -107 -80 -200 -214 -243 -348 -50 -157 -54 -214 -60
-1010 -3 -410 -2 -760 2 -778 5 -21 20 -40 40 -52 29 -18 51 -20 212 -20 l181
0 34 29 35 29 0 386 0 386 28 27 27 28 558 5 c306 3 563 9 571 14 29 19 41 75
41 194 0 136 -9 171 -49 195 -26 15 -79 17 -570 17 l-541 0 -30 28 c-29 25
-31 32 -37 117 -14 229 49 380 187 450 92 47 192 57 602 64 l378 6 27 28 28
27 0 161 0 161 -28 24 -28 24 -402 -1 c-221 -1 -413 -3 -427 -5z"/>
<path d="M2512 4031 l-272 -279 0 -373 c0 -233 -4 -397 -11 -438 -23 -133 -85
-222 -187 -267 -65 -30 -201 -46 -342 -42 l-105 3 -3 204 c-2 199 -7 231 -35
231 -20 0 -998 -984 -984 -990 6 -3 361 -3 787 1 757 6 777 6 855 28 312 85
484 279 562 631 14 65 17 175 20 823 2 418 0 747 -5 747 -4 0 -131 -126 -280
-279z"/>
<path d="M11065 3829 c-241 -28 -379 -141 -441 -364 -14 -52 -18 -147 -25
-684 -8 -693 -10 -669 56 -697 25 -10 79 -14 195 -14 l160 0 32 29 33 29 5
564 c5 551 5 564 27 610 35 77 72 90 276 97 l169 6 30 33 29 34 -3 155 -3 155
-35 29 -34 29 -201 -1 c-110 -1 -231 -5 -270 -10z"/>
<path d="M6373 3820 c-57 -18 -68 -48 -68 -187 0 -121 0 -123 28 -150 l27 -28
393 -5 392 -5 60 -30 c127 -64 164 -217 65 -267 -31 -16 -69 -18 -320 -18
-312 -1 -400 -10 -496 -54 -77 -35 -128 -78 -173 -145 -72 -107 -101 -207
-101 -343 0 -196 101 -378 252 -452 108 -53 144 -56 760 -56 l566 0 26 31 26
31 0 517 c0 293 -4 553 -10 601 -37 305 -205 498 -474 545 -110 19 -901 31
-953 15z m907 -1065 c43 -22 50 -43 50 -150 0 -93 -1 -98 -29 -126 l-29 -29
-224 0 c-255 0 -309 9 -352 61 -22 25 -26 41 -26 91 0 65 15 101 57 132 41 30
74 34 306 35 176 1 224 -2 247 -14z"/>
</g>
</svg>
