<?xml version="1.0" standalone="no"?>
<!DOCTYPE svg PUBLIC "-//W3C//DTD SVG 20010904//EN"
 "http://www.w3.org/TR/2001/REC-SVG-20010904/DTD/svg10.dtd">
<svg version="1.0" xmlns="http://www.w3.org/2000/svg"
 width="1200.000000pt" height="660.000000pt" viewBox="0 0 1200.000000 660.000000"
 preserveAspectRatio="xMidYMid meet">
<metadata>
Created by potrace 1.13, written by Peter Selinger 2001-2015
</metadata>
<g transform="translate(0.000000,660.000000) scale(0.100000,-0.100000)"
fill="#000000" stroke="none">
<path d="M1765 5119 c-22 -11 -62 -42 -88 -67 -39 -38 -186 -228 -302 -392
-75 -106 -577 -782 -713 -962 -55 -72 -113 -161 -140 -218 -45 -92 -46 -97
-47 -190 0 -168 35 -231 357 -645 13 -16 68 -91 123 -166 210 -286 402 -549
498 -679 55 -74 118 -159 139 -187 47 -64 96 -114 150 -154 58 -41 130 -41
175 0 17 15 41 48 54 72 44 88 48 131 49 539 0 384 0 386 -22 416 -23 32 -275
367 -377 503 -31 41 -73 97 -94 125 -49 64 -77 128 -77 172 0 54 37 115 207
342 87 116 197 265 246 331 48 65 94 124 102 131 23 19 22 761 -1 852 -26 101
-60 155 -116 184 -38 20 -77 17 -123 -7z"/>
<path d="M2430 5113 c-101 -85 -119 -182 -120 -659 l0 -341 38 -44 c36 -42 80
-101 263 -349 47 -63 94 -127 105 -141 88 -118 132 -179 147 -206 23 -43 23
-133 -2 -181 -10 -20 -103 -149 -205 -287 -225 -301 -238 -319 -298 -396 l-48
-60 0 -337 c0 -375 10 -482 55 -575 35 -75 74 -107 130 -107 61 0 83 11 147
69 60 55 112 121 344 441 191 262 302 413 489 662 272 364 302 406 341 485 39
78 39 79 39 198 l0 120 -43 83 c-48 92 -76 134 -207 304 -49 64 -118 154 -151
200 -34 46 -120 162 -191 258 -225 305 -398 541 -413 563 -60 88 -155 209
-192 243 -91 85 -171 105 -228 57z"/>
<path d="M10974 4673 c-224 -3 -253 -5 -266 -21 -8 -9 -46 -73 -85 -142 -39
-69 -79 -141 -90 -160 -45 -80 -182 -318 -202 -350 -11 -19 -24 -41 -27 -49
-15 -30 -106 -187 -114 -195 -10 -10 -43 37 -132 186 -38 62 -105 174 -149
248 -45 74 -91 151 -101 170 -33 57 -119 201 -155 258 l-33 52 -365 0 c-212 0
-366 -4 -370 -9 -3 -5 56 -96 131 -203 445 -628 734 -1045 734 -1058 0 -6 -38
-66 -83 -133 -46 -67 -137 -201 -202 -297 -65 -96 -139 -204 -164 -240 -50
-73 -164 -241 -316 -466 -57 -83 -116 -170 -133 -193 -55 -76 -64 -74 322 -67
188 3 344 6 347 6 4 0 34 46 67 103 67 114 194 333 225 387 10 19 43 76 72
125 29 50 63 108 75 130 68 121 173 295 185 305 11 9 17 6 28 -12 24 -39 109
-181 127 -213 9 -16 79 -133 155 -260 76 -126 146 -243 155 -260 47 -80 157
-263 170 -282 15 -21 23 -22 381 -29 268 -5 368 -4 373 4 9 15 -3 36 -74 136
-32 44 -73 101 -90 126 -17 25 -58 83 -90 130 -32 47 -74 106 -92 132 -18 26
-64 93 -103 148 -38 56 -86 124 -105 151 -19 27 -70 100 -113 162 -43 61 -117
169 -166 238 -49 70 -96 140 -106 156 l-17 29 66 95 c36 52 102 146 146 209
44 63 117 168 162 233 46 65 89 128 96 140 7 12 98 143 201 291 104 148 187
275 184 283 -4 10 -30 12 -107 11 -55 -2 -214 -4 -352 -5z"/>
<path d="M4539 4668 c-7 -21 -2 -2651 4 -2655 14 -8 566 -8 574 0 3 4 5 236 4
517 -2 417 0 510 11 511 7 1 256 2 553 3 l540 1 0 270 0 270 -549 2 c-301 1
-551 5 -555 8 -7 8 -2 516 6 528 3 4 270 7 594 6 325 -1 592 0 594 2 7 8 9
515 2 527 -7 9 -199 12 -893 12 -486 0 -884 -1 -885 -2z"/>
<path d="M6740 4658 c0 -7 -1 -604 -4 -1325 -2 -962 0 -1315 8 -1321 8 -6 531
-9 579 -3 4 1 7 230 6 510 0 280 2 514 6 520 4 8 67 9 199 4 312 -10 584 21
756 88 210 80 356 248 417 475 15 56 18 105 17 259 0 175 -2 197 -27 275 -83
274 -285 436 -627 506 -74 15 -166 18 -707 21 -512 4 -623 2 -623 -9z m1095
-501 c121 -24 217 -83 256 -159 33 -64 42 -146 24 -214 -27 -106 -88 -169
-204 -212 -62 -23 -81 -25 -314 -30 -188 -3 -251 -1 -262 8 -13 11 -15 58 -15
309 0 224 3 300 13 310 16 17 398 7 502 -12z"/>
</g>
</svg>
