<?xml version="1.0" standalone="no"?>
<!DOCTYPE svg PUBLIC "-//W3C//DTD SVG 20010904//EN"
 "http://www.w3.org/TR/2001/REC-SVG-20010904/DTD/svg10.dtd">
<svg version="1.0" xmlns="http://www.w3.org/2000/svg"
 width="1200.000000pt" height="660.000000pt" viewBox="0 0 1200.000000 660.000000"
 preserveAspectRatio="xMidYMid meet">
<metadata>
Created by potrace 1.13, written by Peter Selinger 2001-2015
</metadata>
<g transform="translate(0.000000,660.000000) scale(0.100000,-0.100000)"
fill="#000000" stroke="none">
<path d="M1269 4271 c-196 -28 -407 -136 -554 -286 -130 -132 -212 -280 -263
-477 -100 -387 78 -829 424 -1055 100 -65 184 -102 304 -135 122 -32 365 -32
490 1 357 95 632 375 722 737 33 132 31 342 -4 474 -50 185 -142 344 -275 471
-128 122 -276 206 -438 249 -89 23 -308 35 -406 21z m480 -416 c11 -11 12 -20
3 -42 -6 -15 -14 -48 -17 -72 l-7 -43 -53 7 c-101 12 -159 -33 -172 -136 l-6
-39 83 0 83 0 -7 -52 c-4 -28 -13 -63 -21 -77 -7 -14 -63 -75 -124 -134 -61
-60 -111 -110 -111 -113 0 -2 24 -4 54 -4 93 0 87 -12 -121 -221 -236 -238
-255 -244 -159 -49 l54 110 -54 0 c-40 0 -56 4 -61 15 -3 9 29 85 76 176 44
88 81 165 81 169 0 5 -26 10 -57 12 l-58 3 2 60 c4 99 7 105 57 105 53 0 72
16 86 73 31 121 89 205 165 241 74 36 252 42 284 11z"/>
<path d="M3505 4258 c-160 -54 -245 -157 -301 -365 -39 -148 -45 -154 -147
-162 l-71 -6 -8 -35 c-4 -19 -10 -70 -14 -112 l-7 -78 107 0 c58 0 106 -3 106
-7 0 -8 -196 -398 -247 -491 -19 -34 -31 -67 -28 -72 3 -6 49 -10 101 -10 52
0 94 -3 94 -6 0 -4 -37 -77 -82 -163 -45 -86 -98 -186 -117 -223 -19 -37 -32
-71 -28 -75 4 -4 33 20 64 52 31 33 147 154 257 270 111 115 231 241 268 279
36 39 64 74 62 78 -3 4 -52 8 -110 8 -57 0 -104 3 -104 7 0 4 92 100 203 213
l204 205 16 79 c9 44 15 82 12 85 -3 2 -61 3 -130 2 -143 -3 -132 -11 -114 98
25 148 86 205 217 203 40 0 86 -4 102 -7 27 -6 30 -4 39 32 37 141 47 193 39
207 -15 26 -302 22 -383 -6z"/>
<path d="M7225 4189 c-38 -5 -75 -11 -81 -13 -6 -2 -14 -30 -18 -63 -3 -32 -7
-67 -9 -78 -2 -17 8 -21 78 -31 44 -7 81 -13 83 -13 1 -1 0 -18 -3 -38 -3 -21
-23 -175 -46 -343 -50 -380 -108 -791 -114 -807 -2 -7 -2 -20 1 -28 5 -12 29
-15 125 -15 141 0 131 -10 149 145 45 403 69 486 167 575 78 72 170 84 216 29
25 -31 22 -86 -28 -429 -24 -168 -40 -309 -36 -313 4 -4 61 -6 127 -5 l119 3
47 345 c26 190 47 377 47 415 1 165 -93 244 -275 232 -97 -6 -184 -42 -248
-102 -21 -20 -41 -34 -43 -31 -3 3 0 27 6 53 6 26 18 95 26 153 8 58 20 134
26 170 5 36 13 95 16 133 l6 67 -134 -1 c-74 -1 -165 -5 -204 -10z"/>
<path d="M9710 3763 c-70 -11 -155 -65 -200 -126 -15 -21 -30 -35 -33 -30 -3
4 2 34 10 67 10 41 12 61 4 69 -7 7 -66 7 -197 0 -155 -8 -189 -13 -199 -27
-13 -18 -29 -131 -21 -145 3 -5 37 -12 76 -15 45 -5 73 -12 76 -21 3 -7 -4
-80 -15 -162 -12 -81 -35 -246 -52 -366 -17 -119 -29 -224 -25 -232 4 -12 27
-15 113 -15 59 0 113 4 120 8 7 4 21 74 33 157 38 280 50 345 70 402 43 124
112 186 209 190 31 1 59 2 62 3 4 0 17 52 29 116 26 138 25 141 -60 127z"/>
<path d="M11150 3764 c-52 -10 -147 -48 -190 -77 -133 -88 -224 -257 -250
-461 -25 -202 36 -362 160 -426 105 -53 293 -66 461 -30 158 33 149 25 149
141 0 55 -2 99 -5 99 -3 0 -44 -12 -92 -26 -127 -37 -259 -39 -328 -4 -64 33
-95 89 -95 172 l0 58 295 0 294 0 15 28 c39 76 46 204 16 293 -54 160 -143
226 -314 234 -50 2 -102 2 -116 -1z m137 -214 c32 -20 47 -54 47 -108 l1 -47
-167 -3 c-194 -3 -194 -3 -135 84 61 92 173 124 254 74z"/>
<path d="M4450 3746 c-63 -17 -111 -48 -166 -109 l-47 -52 8 45 c4 25 9 59 9
75 l1 30 -135 -3 c-74 -1 -164 -5 -200 -10 l-65 -7 -11 -75 c-7 -41 -10 -77
-7 -80 2 -3 37 -9 76 -15 67 -9 72 -12 75 -36 2 -14 -20 -184 -48 -379 -28
-195 -48 -360 -46 -367 7 -18 229 -19 244 0 5 6 22 107 36 222 37 290 67 392
132 459 41 41 107 68 156 64 28 -2 44 2 49 12 11 20 46 215 41 229 -5 14 -45
13 -102 -3z"/>
<path d="M4924 3747 c-94 -20 -171 -63 -244 -136 -103 -104 -160 -233 -179
-404 -28 -251 56 -403 252 -454 113 -29 376 -8 490 38 27 11 27 12 27 105 0
57 -4 94 -10 94 -6 0 -43 -9 -83 -20 -96 -27 -208 -35 -280 -21 -99 21 -153
96 -145 204 l3 42 292 5 c174 3 296 9 302 15 5 6 15 52 22 103 20 159 -9 271
-92 352 -74 72 -223 104 -355 77z m146 -202 c39 -20 60 -63 60 -120 l0 -45
-171 0 -171 0 7 27 c11 45 66 111 109 133 49 24 125 26 166 5z"/>
<path d="M5843 3746 c-185 -47 -331 -201 -388 -411 -23 -83 -31 -268 -15 -336
25 -109 94 -189 199 -231 49 -19 75 -22 211 -23 152 0 181 4 303 42 l47 15 0
99 c0 54 -4 99 -9 99 -5 0 -26 -7 -46 -16 -50 -20 -174 -44 -234 -44 -75 0
-145 25 -180 65 -34 39 -54 99 -49 153 l3 37 289 3 c182 1 294 6 302 13 20 16
37 145 32 234 -9 141 -79 245 -194 288 -63 24 -202 31 -271 13z m128 -186 c47
-13 78 -48 90 -100 18 -81 20 -80 -172 -80 -110 0 -169 4 -169 10 0 13 35 80
52 100 27 31 58 52 95 66 46 16 58 17 104 4z"/>
<path d="M6821 3745 c-211 -39 -360 -183 -432 -415 -20 -63 -24 -97 -24 -215
0 -133 1 -143 28 -197 34 -69 90 -120 166 -150 49 -19 73 -22 191 -21 103 1
149 5 195 20 l60 19 7 100 c3 54 3 103 -1 107 -5 5 -34 1 -66 -8 -39 -12 -82
-16 -135 -13 -93 4 -123 21 -158 89 -21 40 -23 53 -19 139 13 254 153 377 371
326 46 -11 72 -13 76 -6 11 17 52 201 47 206 -25 25 -213 37 -306 19z"/>
<path d="M8379 3741 c-48 -10 -100 -25 -115 -33 -29 -13 -29 -15 -32 -107 -1
-52 1 -98 6 -103 4 -4 26 0 48 11 99 47 269 66 338 37 18 -8 41 -24 50 -37 19
-28 22 -122 4 -136 -7 -6 -48 -13 -90 -16 -230 -19 -413 -115 -477 -252 -47
-99 -46 -201 2 -273 82 -125 345 -114 478 19 21 21 40 35 43 31 3 -5 1 -26 -4
-48 -20 -83 -32 -78 167 -70 97 3 187 9 200 12 27 7 35 33 37 113 l1 56 -70 8
c-38 4 -73 11 -77 15 -4 4 9 120 28 257 46 326 42 386 -33 457 -60 57 -114 72
-273 75 -112 2 -164 -2 -231 -16z m275 -585 c-29 -135 -177 -246 -275 -206
-87 36 -66 151 36 203 50 25 197 49 233 38 9 -2 11 -13 6 -35z"/>
<path d="M10172 3746 c-128 -32 -256 -120 -332 -231 -130 -189 -160 -515 -60
-660 72 -105 264 -137 404 -67 16 8 51 35 78 60 26 25 50 43 52 41 5 -6 -15
-127 -31 -188 -20 -75 -95 -149 -178 -176 -78 -26 -297 -28 -362 -3 -23 8 -46
12 -52 9 -16 -10 -55 -191 -44 -202 37 -37 389 -54 501 -25 186 50 317 171
370 342 11 38 33 159 47 269 15 110 46 337 70 505 24 168 41 308 37 311 -31
27 -404 38 -500 15z m221 -209 c8 -20 -31 -294 -49 -352 -47 -146 -156 -240
-256 -221 -68 13 -101 73 -100 186 0 180 72 334 177 381 50 23 220 27 228 6z"/>
</g>
</svg>
