<svg xmlns="http://www.w3.org/2000/svg" width="700" height="700" viewBox="0 0 700 700">
  <defs>
    <style>
      .cls-1 {
        fill-rule: evenodd;
      }
    </style>
  </defs>
  <path id="G-Pay" class="cls-1" d="M251.462,350.457H216.609c-1.917-5.733-.5-18.591-0.458-25.573h62.367c0.312,5.891,2.512,14.5.917,21.463-1.492,6.521-2.04,13.481-4.586,19.179-5.182,11.6-13.911,22.83-24.763,28.769a84.492,84.492,0,0,1-16.05,6.393c-2.8.824-4.706,0.222-7.8,0.913-31.148,6.967-57.394-15.171-67.871-32.422-2.77-4.561-4.827-10.654-6.42-15.982-2.061-6.894-2.678-18.055-.917-25.573,0.969-4.136.628-6.854,1.834-10.5,6.374-19.277,19.406-33.013,37.6-40.641A65.953,65.953,0,0,1,217.985,271h6.879c9.652,2.533,18.7,4.924,26.139,9.59,3.272,2.052,5.975,5.181,9.172,7.306v0.457h-0.459c-3.186,4.86-8.745,8.708-12.84,12.786-1.827,1.819-3.308,4.539-5.962,5.479-5-7.183-23.53-12.362-35.769-8.219-16.04,5.429-23.543,16.023-27.515,33.792-0.739,3.3-.977,9.255,0,12.786,4.054,14.66,13.484,25.473,27.515,30.139C226,382.05,250.312,367.711,251.462,350.457Zm72.915-70.324c31.9-.321,58.228-3.425,70.622,16.439a42.359,42.359,0,0,1,3.668,8.22c7.336,22.159-11.66,38.946-26.6,42.925-7.358,1.96-23.362.525-32.1,0.456-1.591,3.09-.917,9.6-0.917,14.156V394.3c-3.545,1.189-9.841.494-14.216,0.456-0.9-2.732-.458-7.465-0.458-10.959V280.133Zm15.133,14.156c-1.066,3.207-.459,8.783-0.459,12.786v26.486c5.7,1.887,22.048.49,29.35,0.456,4.121-3.042,8.743-2.932,11.923-7.306,9.138-12.57,1.618-28.067-10.548-31.965C363.824,292.838,347.034,294.188,339.51,294.289Zm115.1,53.428c0.061-3.585.228-7.064-.917-9.59-3.27-7.219-15.135-14.694-26.6-10.5a31.922,31.922,0,0,0-6.878,3.653c-2.32,1.68-2.977,4.867-6.421,5.48-2.667-3.235-10.3-4.3-11.464-8.676l6.42-6.85a45.594,45.594,0,0,1,10.089-5.48c3.817-1.408,7.9-1.821,12.84-1.826,17.862-.02,29.435,5.687,34.853,17.809,2.7,6.05,2.293,14.647,2.293,23.289V394.3h-0.918c-2.351,1.541-10.736.543-13.3,0V384.249H453.7c-10.967,18.813-41.929,15.843-51.361-2.284-1.4-2.691-3.713-7.449-3.21-11.873,1.633-14.36,8.911-21.49,21.1-25.115,3.206-.954,5.888-0.128,9.63-0.913a32.617,32.617,0,0,1,12.382,0C446.453,345.073,450.451,347.222,454.614,347.717Zm78.877-31.052c4.222-.53,12.386-1.389,16.509,0-0.706,2.474-2.585,5.146-3.669,7.306-3.5,6.986-5.84,14.352-9.171,21.006-1.71,3.415-1.963,6.63-3.669,10.046-7.49,15-13.606,31.569-21.1,46.578-3.491,7-5.851,14.345-9.172,21.006-0.648,1.3-1.394,5.756-2.293,6.393H485.8c0.745-5,4.374-9.628,6.42-13.7,2.931-5.83,4.433-11.51,7.338-17.353,1.037-2.087,3.76-5.373,4.127-7.763,0.289-1.879-1.747-3.781-2.293-5.023-2.52-5.74-4.717-11.186-7.337-16.439-5.05-10.124-7.816-20.487-12.841-30.6-3.248-6.535-7.786-14.075-9.63-21.462H472.5c2.6-1.695,12.272-.6,15.134,0q11.463,27.852,22.929,55.711h0.917c0.521-4.154,3.111-7.978,4.586-11.416,4.111-9.585,6.919-18.717,11.006-28.313C529.159,327.744,532.549,322.342,533.491,316.665ZM433.978,355.48c-2.325,1.351-7.5,1.146-10.089,2.283-6.686,2.936-14.378,15.243-5.5,21.919,14.495,10.9,36.556-.719,36.228-18.722C448.992,357.69,443.181,355.607,433.978,355.48Z"/>
</svg>
