<?xml version="1.0" standalone="no"?>
<!DOCTYPE svg PUBLIC "-//W3C//DTD SVG 20010904//EN"
 "http://www.w3.org/TR/2001/REC-SVG-20010904/DTD/svg10.dtd">
<svg version="1.0" xmlns="http://www.w3.org/2000/svg"
 width="1200.000000pt" height="660.000000pt" viewBox="0 0 1200.000000 660.000000"
 preserveAspectRatio="xMidYMid meet">
<metadata>
Created by potrace 1.13, written by Peter Selinger 2001-2015
</metadata>
<g transform="translate(0.000000,660.000000) scale(0.100000,-0.100000)"
fill="#000000" stroke="none">
<path d="M1135 5685 c-294 -55 -550 -263 -654 -533 -65 -170 -62 -65 -58
-1897 3 -1821 -2 -1669 62 -1828 106 -264 358 -468 644 -523 85 -16 1996 -17
7116 -5 l2650 7 70 23 c297 99 494 301 587 603 l23 73 3 1635 c2 1090 -1 1661
-8 1714 -22 171 -101 334 -224 463 -115 122 -231 195 -392 245 l-69 22 -2715
7 c-4604 11 -6954 9 -7035 -6z m5123 -2393 l-3 -2046 -2508 3 c-2735 3 -2557
-1 -2674 59 -143 73 -251 211 -282 360 -8 37 -11 517 -11 1629 0 1399 2 1582
16 1636 45 176 174 315 352 381 l57 21 2515 5 c1383 3 2521 3 2528 1 10 -2 12
-417 10 -2049z m1912 1428 c0 -5 23 -10 50 -10 28 0 50 -4 50 -10 0 -5 9 -10
20 -10 14 0 20 -7 20 -21 0 -24 -22 -49 -44 -49 -9 0 -16 -4 -16 -10 0 -5 -18
-10 -40 -10 -22 0 -40 -4 -40 -10 0 -5 -7 -10 -15 -10 -12 0 -15 15 -15 75 0
60 3 75 15 75 8 0 15 -4 15 -10z m-620 -794 c127 -30 225 -99 299 -210 78
-116 108 -208 117 -351 17 -269 -81 -505 -256 -621 -101 -66 -147 -79 -290
-79 -127 0 -148 4 -239 49 -46 22 -131 98 -131 117 0 5 -5 7 -11 3 -8 -5 -9
-92 -4 -313 7 -268 6 -308 -8 -319 -11 -10 -61 -11 -216 -6 l-201 7 0 847 0
847 180 6 c99 4 187 4 195 1 12 -5 15 -27 15 -107 l0 -102 27 40 c66 98 167
161 308 190 80 17 148 17 215 1z m1362 3 c243 -49 378 -158 430 -346 6 -21 15
-211 19 -423 5 -212 10 -405 11 -430 l3 -45 -184 -3 c-127 -2 -188 1 -197 9
-10 8 -14 35 -14 85 0 41 -2 74 -4 74 -2 0 -35 -31 -72 -68 -78 -77 -127 -103
-232 -122 -159 -29 -353 33 -447 142 -65 76 -79 120 -79 243 0 94 3 117 23
156 88 183 288 265 624 257 l157 -3 0 30 c0 44 -33 90 -87 122 -47 28 -50 28
-198 27 -142 -1 -155 -3 -240 -33 -141 -51 -130 -60 -130 108 l0 144 65 22
c64 22 120 35 230 53 79 13 259 14 322 1z m1043 -89 c12 -36 36 -108 52 -160
114 -357 177 -540 183 -533 4 4 20 49 35 98 14 50 35 115 45 145 10 30 28 89
40 130 13 41 30 100 40 130 10 30 27 89 39 130 12 41 27 86 34 100 l13 25 207
3 c182 2 208 0 214 -13 3 -9 1 -27 -6 -41 -6 -13 -15 -35 -21 -49 -5 -14 -14
-36 -20 -50 -5 -14 -14 -36 -20 -50 -5 -14 -14 -36 -20 -50 -5 -14 -15 -37
-21 -52 -7 -16 -15 -37 -19 -48 -4 -11 -12 -32 -19 -47 -6 -16 -15 -39 -21
-53 -5 -14 -15 -37 -21 -52 -15 -36 -29 -72 -40 -100 -5 -13 -13 -34 -19 -48
-5 -14 -14 -36 -20 -50 -5 -14 -14 -35 -19 -47 -5 -13 -41 -106 -81 -208 -40
-102 -76 -194 -80 -205 -4 -11 -16 -40 -25 -65 -57 -154 -134 -297 -194 -364
-43 -46 -133 -103 -201 -125 -51 -17 -88 -21 -194 -21 -72 1 -156 7 -186 14
l-55 13 1 49 c4 126 18 265 28 273 7 5 35 5 71 -1 95 -15 178 -5 221 27 20 15
44 41 55 59 34 56 55 -8 -246 751 -70 176 -134 336 -142 355 -8 19 -19 45 -24
58 -5 12 -13 33 -19 47 -5 14 -15 36 -21 49 -6 13 -8 29 -4 35 4 8 74 11 232
9 l226 -3 22 -65z"/>
<path d="M2988 4390 c-1 -5 -1 -74 2 -152 l5 -143 194 -3 c136 -2 198 1 207 9
12 9 14 41 12 153 l-3 141 -207 3 c-131 1 -207 -1 -210 -8z"/>
<path d="M1807 3921 c-148 -21 -277 -106 -350 -232 -14 -24 -38 -80 -53 -124
-36 -106 -46 -321 -20 -438 47 -211 193 -371 381 -416 81 -20 222 -16 296 9
78 26 160 80 201 131 49 61 61 53 53 -33 -10 -119 -32 -176 -90 -234 -75 -77
-137 -97 -290 -97 -133 0 -215 15 -327 62 -47 20 -70 26 -73 18 -7 -23 -25
-300 -19 -308 5 -9 107 -40 199 -61 40 -9 130 -13 275 -12 187 0 225 3 293 22
206 57 318 156 377 334 35 108 41 229 38 803 l-3 550 -185 0 -185 0 0 -98 c0
-63 -4 -97 -11 -97 -6 0 -25 21 -44 46 -41 57 -133 126 -204 153 -63 23 -177
33 -259 22z m349 -339 c172 -88 194 -374 39 -510 -95 -84 -232 -82 -319 4 -53
53 -80 128 -80 224 0 99 12 149 54 212 45 68 114 101 200 95 39 -2 82 -12 106
-25z"/>
<path d="M4341 3920 c-87 -19 -177 -82 -223 -160 -50 -84 -53 -82 -58 31 l-5
104 -185 0 -185 0 0 -600 0 -600 205 0 205 0 5 320 c5 307 6 322 29 379 15 38
41 77 71 107 63 63 128 83 251 77 61 -3 90 -1 93 7 9 25 18 322 10 328 -18 11
-170 16 -213 7z"/>
<path d="M5160 3920 c-170 -24 -313 -93 -416 -202 -109 -116 -158 -248 -158
-423 0 -186 51 -315 173 -435 132 -131 292 -191 509 -191 65 -1 145 4 179 10
330 61 533 295 533 616 0 177 -56 321 -170 435 -78 78 -192 141 -307 170 -93
23 -253 32 -343 20z m252 -317 c28 -15 62 -45 78 -68 101 -146 85 -400 -32
-512 -47 -45 -96 -63 -176 -63 -122 0 -218 72 -252 188 -32 109 -21 262 26
353 64 127 225 173 356 102z"/>
<path d="M2995 3888 c-3 -7 -4 -278 -3 -603 l3 -590 196 -3 c150 -2 198 1 205
10 5 8 7 265 4 603 l-5 590 -198 3 c-152 2 -199 0 -202 -10z"/>
<path d="M7197 3585 c-140 -49 -209 -275 -134 -439 105 -229 387 -200 453 47
26 97 16 196 -29 286 -49 99 -178 147 -290 106z"/>
<path d="M8680 3217 c-116 -30 -169 -113 -125 -197 28 -55 128 -83 212 -61 89
24 168 117 187 219 5 28 2 34 -20 42 -34 13 -198 11 -254 -3z"/>
</g>
</svg>
