<?xml version="1.0" standalone="no"?>
<!DOCTYPE svg PUBLIC "-//W3C//DTD SVG 20010904//EN"
 "http://www.w3.org/TR/2001/REC-SVG-20010904/DTD/svg10.dtd">
<svg version="1.0" xmlns="http://www.w3.org/2000/svg"
 width="1200.000000pt" height="660.000000pt" viewBox="0 0 1200.000000 660.000000"
 preserveAspectRatio="xMidYMid meet">
<metadata>
Created by potrace 1.13, written by Peter Selinger 2001-2015
</metadata>
<g transform="translate(0.000000,660.000000) scale(0.100000,-0.100000)"
fill="#000000" stroke="none">
<path d="M2025 5475 c-395 -63 -747 -239 -1021 -511 -263 -262 -432 -574 -512
-943 -24 -117 -26 -144 -26 -361 0 -217 2 -244 26 -361 70 -326 212 -611 427
-855 252 -289 629 -507 1006 -583 340 -69 762 -34 1072 90 588 233 967 752
1044 1429 12 109 7 488 -8 565 l-8 40 -868 3 -867 2 2 -352 3 -353 493 4 492
4 0 -28 c0 -63 -59 -202 -131 -310 -108 -160 -281 -287 -482 -350 -408 -130
-837 -31 -1128 258 -543 538 -413 1417 264 1785 150 82 306 118 507 116 121
-2 161 -6 245 -28 123 -32 257 -98 350 -171 39 -30 76 -58 83 -61 9 -5 103 82
273 252 210 210 256 261 246 272 -6 8 -43 40 -82 71 -232 189 -474 300 -802
367 -110 23 -477 28 -598 9z"/>
<path d="M5300 5238 c0 -2 -1 -721 -2 -1598 l-2 -1595 209 0 210 0 0 645 0
645 435 6 c432 6 436 6 525 32 280 82 514 279 631 532 55 120 77 228 77 385 1
260 -72 442 -251 632 -152 160 -320 255 -533 298 -91 19 -138 20 -698 20 -331
0 -601 -1 -601 -2z m1292 -425 c81 -30 159 -85 228 -161 137 -149 180 -341
120 -536 -50 -160 -199 -307 -365 -359 -67 -21 -85 -22 -465 -22 l-395 0 -3
544 c-1 321 2 548 7 555 7 8 123 10 413 6 381 -5 406 -6 460 -27z"/>
<path d="M8097 4285 c-154 -29 -297 -88 -413 -171 -71 -50 -224 -209 -224
-233 0 -10 66 -57 172 -122 l171 -107 86 87 c119 120 222 172 383 192 144 18
288 -14 404 -90 162 -105 244 -247 244 -420 0 -43 -3 -80 -6 -84 -3 -3 -20 3
-37 13 -56 33 -213 79 -329 96 -148 22 -413 15 -538 -14 -370 -86 -593 -309
-630 -628 -17 -155 21 -333 98 -454 96 -152 277 -286 457 -338 373 -109 727 2
936 294 18 24 36 41 40 38 5 -3 9 -70 9 -149 0 -121 2 -144 16 -149 9 -3 96
-6 194 -6 133 0 179 3 182 13 2 6 1 352 -2 767 -8 861 -5 832 -97 1020 -40 82
-61 109 -147 196 -90 90 -113 107 -206 153 -165 81 -265 103 -495 107 -138 2
-212 -1 -268 -11z m493 -1166 c90 -14 196 -51 268 -94 59 -34 62 -38 62 -75 0
-231 -213 -496 -463 -576 -208 -67 -407 -31 -544 98 -77 74 -108 142 -108 243
0 129 55 223 177 307 118 79 221 107 408 107 74 1 164 -4 200 -10z"/>
<path d="M9391 4231 c-8 -5 28 -96 115 -292 163 -367 588 -1331 693 -1571 l81
-186 -101 -213 c-55 -118 -110 -234 -121 -259 -11 -25 -40 -85 -63 -135 -24
-49 -59 -124 -78 -165 -57 -122 -118 -253 -134 -287 -8 -18 -12 -37 -8 -42 4
-7 77 -11 206 -11 186 0 200 1 219 20 11 11 20 24 20 30 0 5 14 39 30 75 17
36 30 68 30 70 0 2 14 34 30 70 17 36 30 68 30 70 0 2 11 28 24 57 13 29 52
118 86 198 34 80 70 163 80 185 10 22 52 119 93 215 41 96 108 249 147 340 40
91 85 194 100 230 15 36 53 124 85 195 31 72 80 182 107 245 28 63 58 133 68
155 10 22 41 94 70 160 55 126 75 171 108 245 11 25 34 79 52 120 36 83 42 98
131 298 12 26 32 71 46 101 40 90 49 86 -202 86 l-220 0 -311 -780 c-171 -428
-315 -780 -321 -782 -12 -4 1 -35 -245 561 -115 281 -245 597 -288 701 -43
105 -86 210 -96 235 -9 25 -24 51 -33 58 -12 10 -66 12 -217 11 -111 0 -206
-4 -213 -8z"/>
</g>
</svg>
