<?xml version="1.0" standalone="no"?>
<!DOCTYPE svg PUBLIC "-//W3C//DTD SVG 20010904//EN"
 "http://www.w3.org/TR/2001/REC-SVG-20010904/DTD/svg10.dtd">
<svg version="1.0" xmlns="http://www.w3.org/2000/svg"
 width="1200.000000pt" height="660.000000pt" viewBox="0 0 1200.000000 660.000000"
 preserveAspectRatio="xMidYMid meet">
<metadata>
Created by potrace 1.13, written by Peter Selinger 2001-2015
</metadata>
<g transform="translate(0.000000,660.000000) scale(0.100000,-0.100000)"
fill="#000000" stroke="none">
<path d="M8817 5433 c-7 -12 5 -1743 12 -1743 4 0 35 33 69 74 35 40 94 104
132 141 l70 67 2 719 c0 395 1 725 2 732 1 9 -35 13 -141 15 -78 1 -144 -1
-146 -5z"/>
<path d="M9300 4770 c0 -732 -3 -696 57 -646 24 19 154 108 207 141 15 9 17
67 19 590 l2 580 -142 3 -143 3 0 -671z"/>
<path d="M2085 4770 c-264 -28 -551 -124 -786 -263 -321 -188 -586 -473 -739
-792 -66 -138 -90 -211 -140 -430 -30 -131 -39 -366 -19 -530 67 -575 337
-1033 787 -1332 283 -188 568 -278 912 -290 518 -17 953 121 1292 411 42 36
88 80 102 99 l26 34 2 749 2 749 -712 3 -712 2 0 -140 0 -140 573 -2 572 -3 3
-559 2 -560 -32 -34 c-77 -80 -276 -194 -418 -240 -371 -121 -815 -123 -1140
-7 -218 78 -417 208 -574 376 -213 226 -343 499 -391 823 -20 134 -20 399 1
518 56 326 208 607 452 839 125 119 242 202 390 277 262 133 471 181 787 182
331 0 584 -49 785 -152 30 -15 60 -28 67 -28 10 0 13 36 13 153 0 177 12 157
-124 202 -182 60 -367 85 -666 90 -129 2 -271 0 -315 -5z"/>
<path d="M2100 4301 c-552 -68 -1035 -469 -1175 -976 -67 -240 -56 -585 25
-825 143 -420 483 -738 907 -845 249 -63 619 -45 879 41 95 32 215 92 267 135
l37 31 -2 416 -3 417 -467 3 -468 2 0 -140 0 -140 340 0 c187 0 340 -3 340 -7
4 -152 -1 -407 -7 -413 -12 -12 -199 -66 -273 -79 -36 -6 -122 -16 -193 -21
-281 -22 -502 32 -703 171 -288 199 -443 513 -444 896 0 501 346 910 880 1040
61 15 116 18 300 18 138 0 254 -5 300 -13 194 -34 349 -91 463 -171 32 -23 64
-41 72 -41 13 0 15 26 15 153 0 83 -4 157 -8 163 -28 42 -291 133 -492 169
-98 18 -489 28 -590 16z"/>
<path d="M5040 4215 c-179 -21 -314 -61 -475 -141 -322 -159 -566 -454 -664
-804 -55 -199 -54 -175 -58 -1147 l-4 -902 23 -6 c13 -3 75 -4 138 -3 l115 3
6 915 5 915 27 99 c89 322 263 544 532 676 186 91 292 115 525 115 197 0 264
-11 412 -72 48 -19 91 -33 95 -31 17 7 183 186 183 196 0 29 -182 117 -315
152 -91 23 -303 51 -385 49 -30 -1 -102 -7 -160 -14z"/>
<path d="M10110 4219 c-154 -15 -349 -72 -481 -139 -60 -31 -195 -123 -309
-210 -183 -141 -499 -477 -733 -779 l-57 -73 0 -188 c0 -104 4 -191 9 -194 5
-3 62 60 126 140 411 512 769 874 1009 1018 72 43 190 90 300 119 99 25 355
31 446 9 229 -56 392 -144 553 -301 176 -171 280 -368 322 -609 21 -118 20
-476 0 -595 -93 -532 -549 -916 -1087 -917 -129 0 -262 27 -396 81 -286 116
-523 362 -608 632 -10 31 -23 57 -30 57 -6 0 -52 -49 -102 -109 l-90 -110 15
-43 c46 -135 127 -261 246 -384 185 -193 417 -319 700 -381 117 -25 417 -25
537 0 228 49 441 153 615 301 33 28 66 55 73 61 6 5 43 46 81 90 136 159 222
310 279 495 64 205 75 303 69 587 -5 250 -18 330 -78 506 -152 444 -529 790
-979 900 -88 22 -297 50 -334 46 -6 -1 -49 -5 -96 -10z"/>
<path d="M6792 4210 c-140 -20 -323 -79 -451 -148 -120 -63 -215 -135 -332
-252 -221 -221 -347 -463 -400 -770 -17 -100 -17 -561 -1 -650 78 -409 280
-721 615 -949 70 -48 231 -126 322 -156 251 -84 552 -90 770 -15 32 11 64 25
71 31 11 9 14 44 14 140 0 70 -4 130 -8 133 -5 3 -28 -2 -53 -11 -169 -60
-377 -78 -545 -49 -453 80 -812 437 -900 894 -19 102 -19 522 0 624 42 221
145 415 301 573 160 162 352 267 580 316 77 17 322 17 400 1 401 -84 712 -353
835 -720 61 -181 60 -175 60 -1116 0 -473 3 -863 8 -868 5 -5 67 -7 138 -6
l129 3 3 835 c3 870 1 941 -40 1110 -123 516 -542 922 -1068 1035 -88 19 -356
28 -448 15z"/>
<path d="M5038 3724 c-281 -56 -499 -221 -618 -469 -54 -113 -75 -183 -90
-305 -6 -52 -10 -398 -10 -906 0 -740 2 -822 16 -828 32 -12 252 -7 261 7 4 6
8 401 8 877 0 792 1 870 17 922 65 213 211 360 413 414 97 25 227 29 320 9
143 -31 126 -36 164 47 19 40 45 90 58 111 14 22 22 45 19 52 -6 17 -108 50
-211 70 -96 18 -255 18 -347 -1z"/>
<path d="M6835 3731 c-16 -5 -55 -14 -85 -21 -220 -52 -444 -227 -564 -443
-19 -34 -49 -105 -67 -157 -32 -95 -32 -96 -37 -336 -4 -257 3 -340 40 -447
125 -367 469 -617 848 -617 144 0 309 42 390 100 l30 21 0 140 c0 76 -2 139
-4 139 -3 0 -37 -18 -78 -39 -110 -60 -201 -82 -338 -82 -185 0 -314 52 -435
175 -140 141 -185 278 -185 563 0 267 45 407 174 542 143 149 360 218 561 177
237 -48 415 -218 475 -452 19 -74 20 -114 20 -925 0 -763 2 -847 16 -853 26
-10 252 -7 259 4 3 5 6 394 5 863 0 922 0 923 -55 1079 -40 114 -109 222 -205
318 -134 133 -277 209 -466 245 -82 16 -247 19 -299 6z"/>
<path d="M10080 3720 c-206 -44 -377 -146 -583 -349 -237 -231 -709 -768 -902
-1025 l-54 -72 -7 -205 c-5 -143 -4 -208 4 -213 6 -3 46 40 93 101 147 191
314 396 545 665 538 628 681 758 894 817 190 53 418 -5 563 -143 101 -97 160
-210 186 -360 16 -89 14 -357 -4 -451 -43 -231 -218 -420 -445 -480 -87 -23
-232 -19 -310 8 -199 71 -364 264 -449 525 -16 48 -32 113 -35 145 -6 43 -11
57 -22 55 -8 -2 -59 -59 -114 -128 -111 -139 -106 -120 -63 -250 106 -316 352
-555 647 -630 150 -38 355 -24 512 35 199 75 404 267 488 457 67 150 86 261
86 498 0 240 -23 365 -93 505 -65 131 -155 239 -269 326 -132 99 -248 148
-408 175 -109 18 -156 17 -260 -6z"/>
</g>
</svg>
