<?xml version="1.0" standalone="no"?>
<!DOCTYPE svg PUBLIC "-//W3C//DTD SVG 20010904//EN"
 "http://www.w3.org/TR/2001/REC-SVG-20010904/DTD/svg10.dtd">
<svg version="1.0" xmlns="http://www.w3.org/2000/svg"
 width="1200.000000pt" height="660.000000pt" viewBox="0 0 1200.000000 660.000000"
 preserveAspectRatio="xMidYMid meet">
<metadata>
Created by potrace 1.13, written by Peter Selinger 2001-2015
</metadata>
<g transform="translate(0.000000,660.000000) scale(0.100000,-0.100000)"
fill="#000000" stroke="none">
<path d="M415 3868 c-3 -7 -4 -267 -3 -578 l3 -565 130 0 130 0 3 248 2 247
228 -2 227 -3 5 -245 5 -245 125 0 125 0 3 578 2 578 -131 -3 -131 -3 -1 -210
-2 -210 -227 -3 -228 -2 -2 212 -3 213 -128 3 c-96 2 -129 -1 -132 -10z"/>
<path d="M3899 3873 c0 -4 0 -87 1 -184 1 -174 -6 -215 -29 -170 -14 26 -73
61 -103 61 -13 0 -29 5 -35 11 -11 11 -111 8 -168 -6 -79 -18 -139 -64 -222
-168 -18 -23 -45 -96 -50 -140 -3 -20 -9 -40 -14 -43 -12 -7 -11 -141 1 -149
6 -3 10 -24 10 -45 0 -35 17 -89 41 -130 5 -8 13 -24 18 -35 17 -39 136 -143
177 -154 50 -14 217 -14 267 0 21 6 56 26 77 45 23 21 41 31 45 24 3 -5 3 -15
0 -20 -3 -6 -3 -19 0 -30 6 -18 15 -20 110 -20 57 0 106 4 109 8 3 5 6 264 7
578 l2 569 -122 3 c-66 1 -121 -1 -122 -5z m-137 -473 c75 -21 138 -102 138
-178 0 -21 5 -43 11 -49 9 -9 9 -20 1 -40 -6 -15 -13 -50 -16 -78 -16 -134
-152 -204 -283 -144 -40 18 -49 28 -79 94 -29 63 -34 84 -34 149 0 41 5 78 10
81 6 3 10 14 10 23 0 10 9 35 19 55 39 76 132 112 223 87z"/>
<path d="M5138 3875 c-4 -4 -2 -1054 2 -1147 0 -5 56 -8 124 -8 91 0 125 3
127 13 2 6 4 266 4 577 l0 565 -126 3 c-69 1 -128 0 -131 -3z"/>
<path d="M6339 3873 c-4 -27 3 -1138 7 -1145 3 -4 49 -8 103 -8 106 0 129 10
118 50 -7 28 10 25 49 -9 18 -17 50 -35 71 -40 48 -14 217 -14 263 -1 46 13
139 78 159 112 58 97 72 125 82 171 17 74 23 237 10 250 -6 6 -11 22 -11 36 0
15 -13 53 -28 86 -33 68 -137 173 -193 194 -19 7 -43 17 -55 23 -21 10 -125 6
-195 -7 -21 -4 -58 -25 -85 -47 l-49 -40 -3 191 -2 191 -120 0 c-66 0 -121 -3
-121 -7z m544 -490 c18 -11 37 -29 43 -41 6 -12 19 -31 28 -41 10 -11 15 -24
12 -30 -4 -5 -2 -12 4 -16 6 -3 10 -48 10 -103 -1 -90 -3 -101 -33 -157 -39
-74 -91 -105 -175 -105 -91 0 -148 41 -179 130 -14 40 -18 226 -4 234 4 3 11
18 14 34 10 51 48 86 127 116 28 10 121 -2 153 -21z"/>
<path d="M9069 3875 c-9 -8 1 -1139 10 -1148 4 -4 57 -6 117 -5 l109 3 3 141
3 140 38 38 c31 31 41 35 50 24 20 -23 81 -122 81 -132 0 -5 15 -27 34 -50 18
-23 36 -51 40 -62 4 -12 20 -40 36 -63 l30 -41 134 0 c84 0 137 4 141 11 8 12
-14 69 -26 69 -5 0 -9 6 -9 13 0 8 -9 22 -20 32 -11 10 -20 24 -20 32 0 7 -7
16 -15 19 -8 4 -15 10 -15 14 0 5 -33 56 -72 115 -40 58 -77 114 -83 123 -5 9
-24 37 -42 63 l-31 47 107 103 c59 57 131 125 159 151 29 26 52 52 52 58 0 6
-55 10 -149 10 l-149 0 -63 -72 c-99 -113 -191 -208 -201 -208 -5 0 -8 128 -8
288 l2 287 -119 3 c-66 1 -121 0 -124 -3z"/>
<path d="M1810 3590 c-8 -5 -25 -10 -38 -10 -12 0 -30 -4 -40 -9 -9 -5 -31
-14 -48 -21 -17 -6 -57 -38 -90 -71 -58 -58 -59 -60 -59 -117 l0 -57 115 0
115 0 13 42 c10 32 21 44 45 53 18 6 40 16 49 21 27 14 85 11 118 -6 37 -19
74 -79 66 -108 -6 -27 -82 -67 -126 -67 -16 0 -31 -4 -34 -9 -3 -4 -50 -11
-105 -15 -82 -6 -110 -12 -159 -36 -74 -38 -80 -44 -133 -152 -13 -25 -11
-112 2 -145 32 -77 42 -93 74 -121 46 -41 90 -52 216 -52 116 0 197 18 237 54
24 21 37 15 44 -19 3 -18 12 -20 117 -23 115 -3 148 5 123 30 -9 9 -12 97 -12
334 0 205 -4 325 -10 329 -5 3 -10 14 -10 24 0 50 -137 141 -212 141 -15 0
-30 5 -33 10 -8 13 -205 13 -225 0z m248 -523 c2 -34 -4 -61 -23 -102 -22 -45
-34 -59 -70 -75 -46 -21 -139 -27 -150 -10 -3 6 -14 10 -24 10 -25 0 -51 42
-51 81 0 24 10 41 39 69 37 35 45 38 121 45 45 4 94 13 109 21 37 20 46 13 49
-39z"/>
<path d="M2810 3591 c-8 -5 -38 -19 -65 -31 -28 -12 -62 -35 -75 -53 l-25 -31
-5 50 -5 49 -110 0 -110 0 0 -425 0 -425 118 -3 c89 -2 117 0 118 10 0 7 0
126 -1 264 -1 172 2 254 9 259 6 3 11 18 11 32 0 79 134 139 219 97 61 -31 71
-79 80 -419 l6 -240 117 -3 c104 -2 117 -1 122 15 11 35 -10 663 -22 675 -7 7
-12 20 -12 29 0 9 -29 44 -64 77 -46 43 -75 62 -103 67 -64 11 -187 15 -203 6z"/>
<path d="M4553 3586 c-18 -6 -35 -15 -39 -19 -4 -4 -15 -7 -24 -7 -29 0 -94
-39 -143 -88 -47 -46 -88 -116 -103 -177 -4 -17 -11 -35 -16 -42 -12 -15 -5
-195 11 -253 6 -25 18 -60 27 -77 26 -56 120 -149 181 -179 56 -28 62 -29 215
-29 112 0 161 4 170 13 6 6 19 12 28 12 21 0 136 104 155 140 21 41 43 109 37
115 -3 3 -51 5 -108 5 -97 0 -102 -1 -118 -24 -64 -99 -233 -115 -313 -29 -18
19 -33 43 -33 54 0 11 -6 28 -12 39 -11 17 -10 22 2 30 9 6 140 10 309 10
l294 0 -6 98 c-3 55 -11 112 -18 128 -6 16 -20 47 -30 70 -22 51 -162 184
-193 184 -13 0 -26 3 -30 7 -30 31 -179 42 -243 19z m188 -209 c42 -28 81 -85
77 -112 -3 -19 -11 -20 -176 -23 l-173 -2 7 27 c22 92 72 130 170 132 48 1 68
-4 95 -22z"/>
<path d="M5730 3591 c-8 -5 -40 -19 -71 -31 -66 -25 -144 -99 -159 -150 -13
-47 -13 -136 1 -163 16 -30 101 -117 115 -117 6 0 33 -9 60 -19 27 -11 94 -30
149 -42 55 -12 107 -26 115 -30 8 -4 23 -10 33 -13 9 -3 25 -21 34 -41 16 -34
16 -35 -8 -61 -13 -14 -36 -32 -51 -40 -73 -38 -201 3 -238 76 l-21 41 -107
-3 -107 -3 -3 -37 c-3 -35 3 -50 46 -122 24 -39 130 -104 194 -117 28 -6 114
-10 197 -7 129 3 151 6 191 26 77 40 148 120 141 159 -1 6 3 14 9 18 16 10 12
142 -5 174 -23 45 -103 110 -149 121 -60 15 -117 31 -146 41 -14 5 -34 8 -45
8 -11 -1 -48 9 -83 22 -100 38 -120 92 -47 128 30 15 47 15 132 5 58 -7 93
-33 93 -69 l0 -25 119 0 120 0 -6 38 c-3 20 -11 51 -19 68 -18 41 -105 121
-141 130 -15 4 -32 10 -38 14 -29 21 -276 38 -305 21z"/>
<path d="M7565 3590 c-3 -5 -22 -10 -41 -10 -19 0 -42 -4 -52 -9 -9 -5 -33
-16 -53 -24 -45 -19 -109 -74 -109 -93 0 -8 -4 -14 -8 -14 -11 0 -34 -84 -30
-112 3 -22 6 -23 119 -26 l116 -3 7 31 c3 17 16 40 29 52 26 24 91 48 127 47
73 -1 146 -80 122 -133 -13 -29 -46 -45 -107 -53 -22 -3 -44 -9 -50 -13 -5 -4
-50 -10 -100 -14 -49 -3 -94 -11 -99 -16 -6 -6 -18 -10 -28 -10 -36 0 -99 -43
-129 -88 -25 -37 -33 -61 -39 -121 -4 -42 -3 -80 1 -85 5 -6 9 -18 9 -28 0
-37 44 -90 107 -129 33 -21 53 -24 154 -28 126 -3 210 13 257 50 33 25 40 24
44 -8 l3 -28 115 -3 115 -3 -2 323 c-2 178 -5 343 -9 367 -7 51 -65 122 -117
141 -17 6 -40 16 -49 21 -10 5 -29 9 -42 9 -14 0 -28 5 -31 10 -4 6 -53 10
-115 10 -62 0 -111 -4 -115 -10z m233 -530 c2 -29 -2 -58 -7 -63 -6 -6 -11
-18 -11 -27 0 -18 -52 -71 -87 -89 -29 -15 -125 -14 -158 1 -28 13 -55 55 -55
85 0 29 36 81 67 97 16 8 62 18 103 22 40 4 85 13 99 20 38 20 46 13 49 -46z"/>
<path d="M8550 3591 c-51 -27 -61 -31 -73 -31 -7 0 -31 -18 -52 -41 l-40 -40
-5 48 -5 48 -110 0 -110 0 0 -425 0 -425 114 -3 c85 -2 117 1 123 10 5 7 6
122 2 256 -5 184 -4 250 6 270 7 15 19 42 28 60 49 102 199 109 256 11 19 -31
21 -56 26 -319 l5 -285 120 0 120 0 -3 300 c-3 308 -7 381 -23 391 -5 3 -9 14
-9 25 0 11 -5 25 -10 32 -6 7 -20 25 -31 40 -19 25 -45 40 -132 76 -31 12
-174 14 -197 2z"/>
<path d="M10170 3591 c-51 -27 -61 -31 -75 -31 -25 0 -57 -22 -123 -85 -69
-65 -80 -82 -110 -168 -20 -57 -34 -239 -19 -253 4 -4 7 -16 7 -26 0 -30 31
-116 46 -129 8 -6 14 -17 14 -23 0 -22 95 -103 154 -132 58 -28 64 -29 210
-29 146 0 153 1 206 28 30 16 72 45 93 65 42 41 87 115 87 143 0 10 5 21 10
24 26 16 -10 25 -104 25 l-104 0 -23 -31 c-38 -49 -94 -73 -169 -74 -95 0
-135 22 -166 91 -45 102 -68 94 282 94 l306 0 -5 78 c-4 76 -18 146 -36 180
-5 9 -12 24 -16 32 -20 51 -101 143 -140 161 -11 5 -27 13 -35 18 -8 5 -26 13
-40 19 -14 5 -38 15 -53 21 -31 12 -174 14 -197 2z m193 -222 c35 -29 67 -84
67 -115 0 -11 -33 -14 -175 -14 -146 0 -175 2 -175 14 0 8 5 18 10 21 6 4 8
11 4 16 -8 13 42 71 80 91 19 11 54 17 91 18 53 0 65 -4 98 -31z"/>
<path d="M11150 3591 c-8 -5 -39 -19 -68 -32 -30 -13 -59 -32 -65 -44 -11 -18
-12 -16 -17 20 l-5 40 -120 0 -120 0 0 -425 0 -425 120 0 120 0 3 220 c5 346
18 405 97 435 75 29 178 -2 191 -57 4 -15 11 -33 15 -39 5 -6 10 -134 11 -285
l3 -274 120 0 120 0 3 320 c2 314 1 327 -29 387 -5 10 -9 24 -9 33 0 17 -79
94 -98 95 -7 0 -21 5 -32 10 -11 6 -29 15 -40 20 -24 12 -179 12 -200 1z"/>
</g>
</svg>
