<?xml version="1.0" standalone="no"?>
<!DOCTYPE svg PUBLIC "-//W3C//DTD SVG 20010904//EN"
 "http://www.w3.org/TR/2001/REC-SVG-20010904/DTD/svg10.dtd">
<svg version="1.0" xmlns="http://www.w3.org/2000/svg"
 width="1200.000000pt" height="660.000000pt" viewBox="0 0 1200.000000 660.000000"
 preserveAspectRatio="xMidYMid meet">
<metadata>
Created by potrace 1.13, written by Peter Selinger 2001-2015
</metadata>
<g transform="translate(0.000000,660.000000) scale(0.100000,-0.100000)"
fill="#000000" stroke="none">
<path d="M5888 6124 c-3 -3 -39 -7 -79 -8 -73 -3 -276 -28 -334 -41 -137 -31
-392 -101 -417 -115 -9 -5 -45 -19 -80 -31 -69 -23 -371 -173 -431 -214 -21
-14 -40 -25 -42 -25 -8 0 -104 -67 -220 -154 -135 -102 -388 -348 -482 -471
-217 -282 -371 -567 -472 -875 -45 -135 -65 -201 -66 -215 -1 -5 -7 -32 -13
-60 -13 -52 -36 -197 -52 -320 -12 -91 -12 -509 0 -600 16 -123 39 -268 52
-320 6 -27 12 -54 13 -60 2 -28 96 -311 131 -395 51 -125 176 -366 221 -426
13 -17 23 -34 23 -38 0 -11 99 -150 152 -213 24 -29 63 -78 88 -109 70 -87
275 -281 389 -368 103 -77 229 -166 236 -166 2 0 21 -11 42 -25 60 -42 363
-191 429 -213 33 -11 69 -25 80 -31 24 -14 174 -57 281 -81 45 -10 86 -21 91
-24 12 -7 298 -46 387 -52 401 -28 839 37 1210 179 98 38 337 155 450 220 66
39 191 123 245 167 14 11 48 37 75 59 82 62 280 257 374 367 103 121 121 143
121 149 0 2 25 39 56 82 31 43 59 85 62 93 3 8 17 31 30 50 32 46 163 308 195
390 22 55 44 118 107 315 28 87 79 362 79 432 1 23 6 45 12 48 6 4 10 51 10
118 0 139 0 165 0 304 0 67 -4 114 -10 118 -6 3 -11 23 -11 43 0 68 -52 349
-80 437 -5 16 -26 80 -45 140 -49 151 -77 219 -152 370 -82 163 -133 250 -200
342 -29 40 -53 77 -53 82 0 5 -3 11 -7 13 -5 2 -28 30 -53 63 -60 80 -368 388
-450 450 -36 27 -69 53 -75 57 -314 239 -766 441 -1140 509 -81 15 -263 39
-360 48 -104 10 -309 14 -317 5z m-584 -1674 c61 -9 102 -25 213 -84 17 -9 80
-64 138 -121 113 -110 158 -138 244 -155 79 -15 218 -12 286 5 79 21 135 59
221 148 68 71 156 138 219 166 17 7 38 18 48 23 10 5 56 14 103 20 84 12 208
1 251 -21 10 -5 32 -15 48 -22 145 -65 282 -221 323 -369 18 -65 27 -246 14
-263 -5 -7 -12 -31 -16 -55 -10 -64 -78 -184 -169 -297 -4 -5 -33 -44 -64 -85
-49 -66 -81 -107 -113 -147 -6 -7 -10 -14 -10 -17 0 -7 -133 -184 -160 -213
-11 -12 -20 -25 -20 -27 0 -5 -98 -141 -152 -211 -22 -27 -189 -257 -233 -318
-11 -16 -46 -62 -77 -103 -32 -40 -58 -76 -58 -79 0 -3 -6 -13 -14 -22 -41
-51 -86 -114 -86 -122 0 -5 -3 -11 -7 -13 -9 -4 -133 -166 -133 -174 0 -12
-64 -84 -75 -84 -6 0 -18 12 -26 28 -8 15 -22 34 -31 43 -10 9 -18 20 -18 24
0 4 -18 29 -40 55 -22 26 -40 52 -40 58 0 6 -3 12 -7 14 -5 2 -37 44 -73 93
-35 50 -68 92 -72 93 -4 2 -8 8 -8 14 0 6 -22 39 -50 74 -27 35 -50 68 -50 73
0 5 -3 11 -7 13 -10 4 -93 113 -93 121 0 4 -7 15 -16 25 -25 28 -157 203 -197
262 -53 77 -102 144 -172 234 -33 43 -69 92 -80 110 -11 18 -50 71 -87 118
-38 47 -68 90 -68 96 0 6 -3 12 -7 14 -14 6 -150 192 -178 242 -39 70 -54 145
-55 266 0 121 12 177 53 255 6 11 16 30 22 42 6 12 21 32 32 45 12 12 36 40
53 61 18 20 36 37 41 37 4 0 21 12 36 26 38 35 143 85 212 100 71 15 118 16
205 4z"/>
</g>
</svg>
