<?xml version="1.0" standalone="no"?>
<!DOCTYPE svg PUBLIC "-//W3C//DTD SVG 20010904//EN"
 "http://www.w3.org/TR/2001/REC-SVG-20010904/DTD/svg10.dtd">
<svg version="1.0" xmlns="http://www.w3.org/2000/svg"
 width="1200.000000pt" height="660.000000pt" viewBox="0 0 1200.000000 660.000000"
 preserveAspectRatio="xMidYMid meet">
<metadata>
Created by potrace 1.13, written by Peter Selinger 2001-2015
</metadata>
<g transform="translate(0.000000,660.000000) scale(0.100000,-0.100000)"
fill="#000000" stroke="none">
<path d="M6735 5710 l-4560 -5 -124 -28 c-257 -57 -406 -132 -552 -277 -81
-80 -104 -111 -142 -187 -25 -50 -55 -127 -67 -171 -24 -98 -294 -1404 -480
-2332 -113 -564 -233 -1144 -310 -1504 -54 -255 -65 -307 -65 -319 0 -5 2103
-8 4674 -7 4603 1 4676 1 4790 21 275 47 460 135 601 286 91 97 172 243 193
348 3 17 38 185 77 375 39 190 75 365 80 390 5 25 41 200 80 390 93 449 226
1099 250 1220 17 85 102 498 195 950 18 91 57 273 85 405 28 132 60 282 71
334 11 52 18 100 15 108 -4 10 -33 12 -128 11 -68 -2 -2175 -5 -4683 -8z m775
-810 c0 -7 217 -10 630 -10 413 0 630 -3 630 -10 0 -6 100 -10 280 -10 180 0
280 -4 280 -10 0 -6 27 -10 60 -10 33 0 60 -4 60 -10 0 -6 27 -10 60 -10 33 0
60 -4 60 -10 0 -5 14 -10 30 -10 17 0 30 -4 30 -10 0 -5 14 -10 30 -10 17 0
30 -4 30 -10 0 -5 7 -10 15 -10 9 0 36 -20 60 -45 42 -42 45 -48 45 -100 0
-55 -1 -56 -65 -120 -35 -36 -71 -65 -80 -65 -8 0 -15 -4 -15 -10 0 -5 -9 -10
-20 -10 -11 0 -20 -4 -20 -10 0 -5 -13 -10 -30 -10 -16 0 -30 -4 -30 -10 0 -5
-9 -10 -20 -10 -11 0 -20 -4 -20 -10 0 -5 -13 -10 -30 -10 -16 0 -30 -4 -30
-10 0 -5 -22 -10 -50 -10 -27 0 -50 -4 -50 -10 0 -5 -13 -10 -30 -10 -16 0
-30 -4 -30 -10 0 -6 -30 -10 -70 -10 -40 0 -70 -4 -70 -10 0 -6 -70 -10 -190
-10 -120 0 -190 -4 -190 -10 0 -6 -110 -10 -310 -10 -200 0 -310 -4 -310 -10
0 -6 -30 -10 -70 -10 -40 0 -70 -4 -70 -10 0 -5 -22 -10 -50 -10 -27 0 -50 -4
-50 -10 0 -6 -27 -10 -60 -10 -33 0 -60 -4 -60 -10 0 -5 -22 -10 -50 -10 -27
0 -50 -4 -50 -10 0 -6 -40 -10 -100 -10 -60 0 -100 -4 -100 -10 0 -6 -45 -10
-115 -10 -70 0 -115 4 -115 10 0 6 -40 10 -100 10 -73 0 -100 3 -100 13 0 9
-19 11 -70 9 -53 -3 -70 0 -70 10 0 10 -17 12 -70 10 -46 -2 -70 0 -70 7 0 7
-38 11 -110 11 -67 0 -110 4 -110 10 0 7 -157 10 -450 10 -293 0 -450 3 -450
10 0 7 -143 10 -410 10 -267 0 -410 3 -410 10 0 6 -50 10 -130 10 -80 0 -130
4 -130 10 0 6 -30 10 -70 10 -40 0 -70 4 -70 10 0 6 -30 10 -70 10 -40 0 -70
4 -70 10 0 6 -22 10 -50 10 -27 0 -50 5 -50 10 0 6 -22 10 -50 10 -27 0 -50 5
-50 10 0 6 -13 10 -30 10 -16 0 -30 5 -30 10 0 6 -13 10 -30 10 -16 0 -30 5
-30 10 0 6 -9 10 -20 10 -11 0 -20 5 -20 10 0 6 -9 10 -20 10 -11 0 -20 5 -20
10 0 6 -9 10 -20 10 -11 0 -20 5 -20 10 0 6 -8 10 -18 10 -10 0 -24 9 -32 20
-8 11 -20 20 -28 20 -17 0 -82 65 -82 82 0 8 -9 20 -20 28 -26 18 -26 52 0 70
11 8 20 22 20 32 0 11 7 18 20 18 11 0 20 5 20 10 0 6 14 10 30 10 17 0 30 5
30 10 0 6 14 10 30 10 17 0 30 5 30 10 0 6 18 10 40 10 22 0 40 5 40 10 0 6
27 10 60 10 33 0 60 4 60 10 0 6 50 10 130 10 80 0 130 4 130 10 0 6 93 10
260 10 167 0 260 4 260 10 0 7 420 10 1240 10 820 0 1240 3 1240 10 0 6 38 10
95 10 57 0 95 -4 95 -10z m-4082 -645 c103 -61 39 -271 -90 -290 -58 -9 -103
1 -128 28 -29 31 -28 140 2 197 42 78 143 108 216 65z m7169 -12 c-3 -21 -10
-58 -15 -83 -14 -61 -32 -156 -42 -210 -4 -25 -13 -72 -20 -105 -7 -33 -16
-80 -20 -105 -4 -25 -13 -71 -19 -102 -6 -32 -15 -83 -21 -113 -5 -30 -15 -81
-20 -112 -52 -284 -80 -474 -100 -683 -6 -63 -13 -121 -15 -128 -4 -9 -33 -12
-117 -10 l-113 3 1 25 c1 14 5 48 9 75 l7 50 -18 -25 c-44 -61 -104 -103 -204
-141 -48 -19 -282 -19 -330 0 -148 57 -198 112 -236 256 -16 59 -18 203 -4
277 33 175 41 198 111 343 78 159 232 289 393 328 89 23 359 11 427 -17 13 -6
17 2 23 41 3 26 10 75 16 108 21 131 31 203 39 271 4 39 11 76 15 83 5 7 49
11 133 11 l125 0 -5 -37z m-8623 -33 c-1 -19 -7 -60 -13 -90 -6 -30 -16 -82
-21 -115 -26 -148 -59 -322 -76 -397 l-6 -28 365 0 c216 0 368 4 372 9 3 6 10
43 16 83 9 71 22 151 39 253 26 155 32 195 39 247 4 32 11 62 17 68 7 7 63 10
150 8 l139 -3 -2 -25 c-1 -14 -7 -50 -13 -80 -6 -30 -15 -75 -19 -100 -5 -25
-14 -72 -21 -105 -7 -33 -16 -80 -20 -105 -4 -25 -13 -71 -19 -102 -6 -32 -16
-84 -22 -115 -19 -99 -39 -214 -59 -335 -6 -35 -15 -88 -20 -118 -5 -30 -14
-84 -20 -120 -6 -36 -15 -92 -21 -125 -19 -117 -30 -191 -36 -245 -3 -30 -10
-61 -15 -67 -8 -9 -51 -13 -155 -13 l-145 0 6 33 c4 17 11 55 16 82 6 28 14
70 19 95 5 25 12 63 16 85 3 22 10 58 15 80 5 22 13 66 19 98 6 31 16 83 22
115 6 31 15 75 19 97 5 22 12 61 15 88 l6 47 -360 0 c-276 0 -362 -3 -368 -12
-4 -7 -10 -33 -14 -58 -4 -25 -12 -74 -19 -110 -6 -36 -16 -94 -21 -130 -6
-36 -14 -87 -19 -115 -5 -27 -13 -81 -20 -120 -6 -38 -15 -97 -20 -130 -6 -33
-13 -79 -16 -102 l-7 -43 -145 0 -144 0 5 53 c4 28 11 77 17 107 25 120 29
137 40 195 7 33 16 78 20 100 4 22 13 66 19 98 6 31 16 83 22 115 23 118 46
251 59 337 9 62 24 157 41 260 6 33 14 87 19 120 37 238 41 259 54 268 6 4 70
6 141 5 l130 -3 -1 -35z m4611 -431 c21 -10 29 -21 27 -34 -27 -169 -16 -156
-128 -148 -74 5 -102 3 -138 -11 -86 -33 -179 -151 -208 -265 -32 -125 -46
-196 -79 -406 -24 -154 -29 -193 -35 -258 l-7 -68 -131 3 c-147 3 -135 -5
-116 83 4 22 13 67 20 100 7 33 16 78 20 100 17 83 32 161 40 205 5 25 14 74
20 110 13 70 22 125 39 233 25 154 32 205 39 267 4 36 11 71 15 78 10 15 213
17 222 3 5 -9 -6 -87 -20 -141 -6 -24 -6 -24 17 5 41 52 112 116 148 132 19 8
44 19 55 24 46 20 148 14 200 -12z m858 9 l47 -10 -6 -65 c-8 -80 -28 -139
-46 -136 -7 1 -31 7 -53 13 -115 33 -251 46 -312 31 -105 -27 -127 -37 -173
-78 -50 -45 -105 -144 -130 -233 -7 -25 -16 -56 -20 -70 -21 -65 -29 -229 -15
-305 23 -125 111 -195 249 -195 32 0 75 4 95 9 20 5 61 15 91 22 55 12 65 16
107 37 41 21 46 16 40 -45 -13 -128 -21 -145 -72 -157 -17 -4 -48 -11 -70 -17
-22 -5 -58 -12 -80 -14 -22 -3 -69 -10 -105 -16 -51 -8 -86 -7 -160 5 -137 22
-160 27 -160 37 0 5 -7 9 -15 9 -8 0 -39 24 -68 53 -46 45 -63 72 -109 172
-10 23 -5 333 6 380 4 17 11 39 16 50 4 11 13 40 20 65 7 25 34 88 59 140 61
126 152 221 261 273 41 20 91 39 110 42 113 22 402 23 493 3z m-3134 0 c147
-47 219 -118 262 -258 17 -56 17 -254 0 -330 -18 -77 -69 -236 -94 -290 -73
-159 -217 -290 -362 -328 -141 -38 -223 -40 -320 -7 -50 17 -125 78 -125 102
0 7 -4 13 -10 13 -11 0 -15 -19 -25 -100 -4 -30 -11 -80 -15 -110 -5 -30 -13
-88 -19 -127 -6 -40 -15 -103 -20 -140 -13 -99 -23 -137 -35 -145 -15 -11
-228 -10 -245 1 -10 7 -11 16 -3 42 6 19 15 57 20 84 6 28 15 77 22 110 6 33
15 78 20 100 5 22 13 66 19 98 6 31 16 83 22 115 6 31 15 77 19 102 5 25 13
68 19 95 5 28 14 79 21 115 6 36 15 88 20 115 8 47 15 84 40 235 20 119 29
176 40 250 6 41 15 94 20 118 6 23 10 57 10 76 0 51 15 57 126 54 l99 -3 3
-27 c2 -15 -2 -36 -8 -48 -14 -25 -6 -25 30 0 49 35 141 80 164 80 11 0 28 5
36 10 21 14 226 12 269 -2z m1206 -5 c100 -25 192 -105 215 -187 19 -68 1
-338 -24 -364 -4 -4 -181 -7 -393 -7 -369 0 -385 -1 -399 -19 -10 -15 -14 -53
-14 -151 0 -119 2 -136 25 -182 29 -61 54 -80 158 -122 36 -14 192 -14 254 0
109 25 195 50 207 61 6 4 21 8 34 8 22 0 24 -3 18 -40 -3 -22 -9 -59 -12 -82
-8 -68 -21 -85 -68 -93 -22 -3 -63 -11 -91 -16 -27 -5 -93 -14 -145 -19 -52
-6 -102 -11 -110 -13 -30 -4 -216 14 -250 25 -147 46 -244 146 -275 283 -15
61 -17 172 -5 240 60 352 167 534 372 633 47 23 99 42 115 43 15 0 37 4 48 9
26 12 288 6 340 -7z m2812 6 c60 -15 131 -47 161 -73 13 -12 33 -41 44 -66 18
-39 20 -57 15 -136 -4 -50 -11 -111 -16 -135 -6 -24 -15 -70 -21 -101 -5 -32
-14 -82 -20 -110 -13 -77 -27 -163 -39 -243 -5 -38 -14 -103 -20 -143 -6 -40
-11 -99 -11 -133 l0 -60 -112 3 -113 3 1 40 c0 22 4 58 9 80 l8 40 -63 -63
c-35 -34 -67 -62 -72 -62 -6 0 -22 -8 -36 -18 -51 -35 -113 -47 -237 -47 -191
0 -261 33 -333 155 -25 41 -26 52 -26 165 1 117 2 122 37 195 61 126 160 212
287 249 25 7 55 17 68 22 13 5 118 9 235 9 l212 0 13 65 c6 35 12 71 12 80 0
24 -43 83 -65 91 -108 36 -205 43 -307 23 -29 -5 -73 -14 -98 -19 -25 -5 -69
-14 -98 -21 -62 -15 -76 -7 -63 36 11 35 28 98 36 138 5 27 6 27 88 28 45 1
96 5 112 9 48 12 360 11 412 -1z m1081 2 c9 -5 25 -12 36 -15 16 -5 17 -12 11
-44 -4 -20 -10 -59 -14 -87 l-6 -50 -106 4 c-127 4 -158 -7 -234 -84 -78 -78
-129 -208 -159 -405 -3 -19 -10 -63 -16 -97 -26 -161 -32 -205 -43 -308 l-12
-110 -128 -3 -129 -3 5 48 c3 26 10 68 15 93 6 25 15 72 22 105 7 33 16 80 21
105 5 25 14 72 20 105 6 33 14 80 19 105 28 152 56 326 79 490 6 41 14 89 19
105 l8 30 110 0 109 0 -2 -25 c-1 -14 -5 -47 -9 -74 l-7 -48 48 51 c50 53 98
88 150 107 37 14 169 17 193 5z m-6015 -36 c-1 -11 -6 -40 -12 -65 -5 -25 -14
-72 -21 -105 -7 -33 -16 -78 -20 -100 -10 -49 -26 -136 -40 -210 -5 -30 -15
-81 -20 -112 -13 -70 -28 -157 -40 -240 -6 -35 -15 -93 -21 -130 -5 -38 -13
-97 -17 -133 l-7 -65 -130 0 c-124 0 -130 1 -128 20 2 21 16 88 33 165 6 25
15 70 20 100 6 30 14 75 19 100 32 159 60 316 82 460 5 36 14 94 20 130 6 36
13 90 16 120 9 87 16 91 152 88 109 -3 116 -4 114 -23z m-1203 -1575 c0 -5 23
-10 50 -10 28 0 50 -4 50 -10 0 -5 8 -10 18 -10 10 0 24 -9 32 -20 8 -11 22
-20 32 -20 10 0 18 -4 18 -10 0 -5 9 -10 20 -10 11 0 20 -4 20 -10 0 -5 8 -10
18 -10 10 0 24 -9 32 -20 8 -11 20 -20 28 -20 7 0 28 -16 48 -35 34 -34 34
-35 10 -35 -13 0 -27 6 -29 13 -3 6 -6 -19 -6 -56 -1 -58 -5 -71 -26 -92 -13
-14 -31 -25 -40 -25 -8 0 -15 -4 -15 -10 0 -5 -18 -10 -40 -10 -22 0 -40 -4
-40 -10 0 -5 -18 -10 -40 -10 -22 0 -40 -4 -40 -10 0 -5 -16 -10 -35 -10 -19
0 -35 5 -35 10 0 6 -30 10 -70 10 -40 0 -70 4 -70 10 0 6 -13 10 -28 10 -16 0
-34 8 -42 20 -8 11 -22 20 -32 20 -11 0 -18 7 -18 20 0 11 -4 20 -10 20 -5 0
-10 16 -10 35 0 26 4 35 18 36 9 0 0 8 -20 17 -33 14 -38 21 -38 49 0 18 5 33
10 33 6 0 10 9 10 20 0 11 5 20 10 20 6 0 10 7 10 15 0 9 11 27 25 40 13 14
31 25 40 25 8 0 15 5 15 10 0 6 14 10 30 10 17 0 30 5 30 10 0 6 25 10 55 10
30 0 55 -4 55 -10z m4240 0 c0 -5 23 -10 50 -10 28 0 50 -4 50 -10 0 -5 23
-10 50 -10 28 0 50 -4 50 -10 0 -6 127 -10 360 -10 233 0 360 -4 360 -10 0 -5
23 -10 50 -10 28 0 50 -4 50 -10 0 -5 23 -10 50 -10 28 0 50 -4 50 -10 0 -5
18 -10 40 -10 22 0 40 -4 40 -10 0 -6 30 -10 70 -10 40 0 70 -4 70 -10 0 -6
47 -10 120 -10 73 0 120 -4 120 -10 0 -6 68 -10 185 -10 117 0 185 4 185 10 0
6 27 10 60 10 33 0 60 4 60 10 0 6 27 10 60 10 33 0 60 4 60 10 0 6 67 10 180
10 113 0 180 4 180 10 0 6 11 10 25 10 14 0 25 -4 25 -10 0 -5 18 -10 40 -10
22 0 40 -4 40 -10 0 -5 9 -10 20 -10 11 0 20 -4 20 -10 0 -5 7 -10 15 -10 9 0
27 -11 41 -25 l25 -25 -45 0 c-26 0 -46 5 -49 13 -3 6 -6 -10 -6 -36 -1 -37
-7 -54 -26 -72 -13 -14 -31 -25 -40 -25 -8 0 -15 -4 -15 -10 0 -5 -9 -10 -20
-10 -11 0 -20 -4 -20 -10 0 -6 -40 -10 -100 -10 -60 0 -100 -4 -100 -10 0 -6
-30 -10 -70 -10 -40 0 -70 -4 -70 -10 0 -5 -20 -10 -45 -10 -25 0 -45 5 -45
10 0 6 -33 10 -80 10 -47 0 -80 4 -80 10 0 6 -85 10 -235 10 -150 0 -235 -4
-235 -10 0 -6 -47 -10 -120 -10 -73 0 -120 -4 -120 -10 0 -6 -33 -10 -80 -10
-47 0 -80 -4 -80 -10 0 -6 -37 -10 -90 -10 -53 0 -90 -4 -90 -10 0 -6 -140
-10 -400 -10 -260 0 -400 -3 -400 -10 0 -7 -155 -10 -445 -10 -290 0 -445 3
-445 10 0 6 -57 10 -150 10 -93 0 -150 4 -150 10 0 6 -33 10 -80 10 -47 0 -80
4 -80 10 0 6 -18 10 -40 10 -22 0 -40 5 -40 10 0 6 -27 10 -60 10 -33 0 -60 4
-60 10 0 6 -11 10 -25 10 -35 0 -97 61 -79 78 7 7 18 12 24 12 14 0 40 25 40
39 0 7 -46 12 -132 13 -73 1 -105 3 -70 5 34 2 62 8 62 13 0 6 27 10 60 10 33
0 60 4 60 10 0 6 9 10 20 10 11 0 20 5 20 10 0 6 23 10 50 10 28 0 50 5 50 10
0 6 14 10 30 10 17 0 30 5 30 10 0 6 18 10 40 10 22 0 40 5 40 10 0 6 23 10
50 10 28 0 50 5 50 10 0 6 23 10 50 10 28 0 50 5 50 10 0 6 27 10 60 10 33 0
60 4 60 10 0 6 53 10 140 10 87 0 140 4 140 10 0 6 43 10 110 10 67 0 110 4
110 10 0 6 68 10 185 10 117 0 185 -4 185 -10z"/>
<path d="M3850 4769 c0 -5 5 -7 10 -4 6 3 10 8 10 11 0 2 -4 4 -10 4 -5 0 -10
-5 -10 -11z"/>
<path d="M9625 4770 c3 -5 8 -10 11 -10 2 0 4 5 4 10 0 6 -5 10 -11 10 -5 0
-7 -4 -4 -10z"/>
<path d="M3805 4750 c4 -6 11 -8 16 -5 14 9 11 15 -7 15 -8 0 -12 -5 -9 -10z"/>
<path d="M9665 4750 c4 -6 11 -8 16 -5 14 9 11 15 -7 15 -8 0 -12 -5 -9 -10z"/>
<path d="M3761 4724 c-7 -8 -11 -17 -9 -20 3 -2 13 5 23 16 10 11 14 20 9 20
-5 -1 -15 -8 -23 -16z"/>
<path d="M9725 4710 c16 -16 30 -28 33 -26 5 6 -44 56 -54 56 -4 0 5 -13 21
-30z"/>
<path d="M3733 4645 c0 -33 2 -45 4 -27 2 18 2 45 0 60 -2 15 -4 0 -4 -33z"/>
<path d="M9773 4625 c0 -33 2 -45 4 -27 2 18 2 45 0 60 -2 15 -4 0 -4 -33z"/>
<path d="M3763 4582 c-8 -5 -7 -11 2 -19 10 -10 14 -9 19 2 6 17 -5 26 -21 17z"/>
<path d="M9726 4541 c-17 -18 -24 -31 -17 -35 6 -4 11 -2 11 5 0 6 10 20 22
30 11 11 19 21 16 24 -2 3 -17 -8 -32 -24z"/>
<path d="M3790 4540 c0 -5 5 -10 11 -10 5 0 7 5 4 10 -3 6 -8 10 -11 10 -2 0
-4 -4 -4 -10z"/>
<path d="M3825 4520 c-3 -5 1 -10 9 -10 9 0 16 -4 16 -9 0 -5 8 -12 17 -15 13
-5 11 0 -6 18 -28 30 -28 29 -36 16z"/>
<path d="M3930 4461 c0 -5 7 -12 16 -15 14 -5 15 -4 4 9 -14 17 -20 19 -20 6z"/>
<path d="M9640 4455 c-11 -13 -10 -14 4 -9 9 3 16 10 16 15 0 13 -6 11 -20 -6z"/>
<path d="M9878 3610 c-94 -36 -159 -98 -209 -200 -37 -77 -43 -92 -57 -145
-27 -100 -32 -141 -32 -250 0 -98 3 -122 22 -163 25 -53 56 -81 108 -99 45
-16 143 -16 189 -1 34 12 114 60 136 83 51 51 88 150 124 330 9 47 17 87 41
223 6 31 15 76 20 100 6 23 10 55 10 71 0 30 -3 31 -91 60 -54 17 -206 12
-261 -9z"/>
<path d="M3954 3611 c-29 -9 -73 -33 -99 -52 -52 -37 -61 -57 -84 -194 -7 -38
-16 -90 -21 -115 -5 -25 -14 -72 -20 -105 -6 -33 -15 -79 -20 -103 -30 -130
12 -251 98 -288 45 -20 174 -21 229 -3 123 41 203 157 264 384 22 78 19 320
-4 367 -22 46 -88 104 -130 113 -73 16 -162 14 -213 -4z"/>
<path d="M5160 3618 c-14 -6 -38 -17 -55 -24 -16 -7 -47 -30 -67 -51 -39 -40
-93 -147 -83 -163 4 -6 110 -10 269 -10 l263 0 11 51 c17 88 -12 156 -81 189
-32 16 -61 20 -136 19 -53 0 -107 -5 -121 -11z"/>
<path d="M7904 3195 c-90 -28 -145 -74 -184 -155 -17 -35 -22 -62 -21 -124 0
-69 4 -83 27 -113 14 -19 34 -37 43 -39 9 -3 24 -10 33 -15 24 -12 155 -12
163 1 3 6 16 10 28 10 12 0 33 9 47 20 14 11 29 20 33 20 17 0 73 68 96 115
29 59 36 78 50 128 6 20 16 52 21 70 6 18 10 48 10 65 l0 32 -152 -1 c-94 -1
-169 -6 -194 -14z"/>
<path d="M2070 2149 c0 -5 5 -7 10 -4 6 3 10 8 10 11 0 2 -4 4 -10 4 -5 0 -10
-5 -10 -11z"/>
<path d="M2185 2150 c3 -5 8 -10 11 -10 2 0 4 5 4 10 0 6 -5 10 -11 10 -5 0
-7 -4 -4 -10z"/>
<path d="M2010 2129 c0 -5 5 -7 10 -4 6 3 10 8 10 11 0 2 -4 4 -10 4 -5 0 -10
-5 -10 -11z"/>
<path d="M2310 2126 c0 -2 7 -9 15 -16 9 -7 15 -8 15 -2 0 5 -7 12 -15 16 -8
3 -15 4 -15 2z"/>
<path d="M1969 2103 c-13 -16 -12 -17 4 -4 9 7 17 15 17 17 0 8 -8 3 -21 -13z"/>
<path d="M2370 2086 c0 -2 7 -9 15 -16 9 -7 15 -8 15 -2 0 5 -7 12 -15 16 -8
3 -15 4 -15 2z"/>
<path d="M2425 2050 c3 -5 8 -10 11 -10 2 0 4 5 4 10 0 6 -5 10 -11 10 -5 0
-7 -4 -4 -10z"/>
<path d="M2484 2012 c16 -17 32 -30 34 -27 5 4 -12 22 -43 45 -11 8 -7 0 9
-18z"/>
<path d="M2447 1941 c-2 -3 0 -26 4 -51 l6 -45 1 42 c2 38 5 42 30 45 26 3 26
4 -6 9 -18 3 -34 3 -35 0z"/>
<path d="M1970 1874 c0 -8 5 -12 10 -9 6 4 8 11 5 16 -9 14 -15 11 -15 -7z"/>
<path d="M2005 1841 c-3 -6 0 -11 9 -11 8 0 16 -6 19 -12 2 -7 7 -10 11 -7 3
3 -2 14 -13 23 -12 11 -21 14 -26 7z"/>
<path d="M2405 1840 c-4 -6 3 -10 14 -10 25 0 27 6 6 13 -8 4 -17 2 -20 -3z"/>
<path d="M2365 1820 c-4 -6 3 -10 14 -10 25 0 27 6 6 13 -8 4 -17 2 -20 -3z"/>
<path d="M2080 1800 c-12 -8 -10 -10 8 -10 13 0 20 4 17 10 -7 12 -6 12 -25 0z"/>
<path d="M2325 1800 c-4 -6 3 -10 14 -10 25 0 27 6 6 13 -8 4 -17 2 -20 -3z"/>
<path d="M2233 1773 c15 -2 37 -2 50 0 12 2 0 4 -28 4 -27 0 -38 -2 -22 -4z"/>
<path d="M5430 2089 c0 -5 5 -7 10 -4 6 3 10 8 10 11 0 2 -4 4 -10 4 -5 0 -10
-5 -10 -11z"/>
<path d="M7345 2090 c3 -5 8 -10 11 -10 2 0 4 5 4 10 0 6 -5 10 -11 10 -5 0
-7 -4 -4 -10z"/>
<path d="M5330 2069 c0 -5 5 -7 10 -4 6 3 10 8 10 11 0 2 -4 4 -10 4 -5 0 -10
-5 -10 -11z"/>
<path d="M7445 2070 c3 -5 8 -10 11 -10 2 0 4 5 4 10 0 6 -5 10 -11 10 -5 0
-7 -4 -4 -10z"/>
<path d="M5230 2049 c0 -5 5 -7 10 -4 6 3 10 8 10 11 0 2 -4 4 -10 4 -5 0 -10
-5 -10 -11z"/>
<path d="M7525 2050 c3 -5 12 -7 20 -3 21 7 19 13 -6 13 -11 0 -18 -4 -14 -10z"/>
<path d="M8983 2053 c9 -2 25 -2 35 0 9 3 1 5 -18 5 -19 0 -27 -2 -17 -5z"/>
<path d="M5165 2030 c4 -6 11 -8 16 -5 14 9 11 15 -7 15 -8 0 -12 -5 -9 -10z"/>
<path d="M7605 2030 c3 -5 12 -7 20 -3 21 7 19 13 -6 13 -11 0 -18 -4 -14 -10z"/>
<path d="M8611 2035 c7 -6 310 -8 316 -1 4 3 -67 6 -157 6 -90 0 -161 -2 -159
-5z"/>
<path d="M9044 2031 c5 -8 56 -3 56 5 0 2 -14 4 -31 4 -16 0 -28 -4 -25 -9z"/>
<path d="M5100 2016 c0 -9 40 -13 46 -5 3 5 -6 9 -20 9 -14 0 -26 -2 -26 -4z"/>
<path d="M7684 2013 c7 -7 87 -5 95 3 2 2 -20 4 -49 4 -29 0 -50 -3 -46 -7z"/>
<path d="M8490 2016 c0 -8 71 -12 76 -4 3 4 -13 8 -35 8 -23 0 -41 -2 -41 -4z"/>
<path d="M9105 2010 c3 -5 8 -10 11 -10 2 0 4 5 4 10 0 6 -5 10 -11 10 -5 0
-7 -4 -4 -10z"/>
<path d="M5010 1996 c0 -8 71 -12 76 -4 3 4 -13 8 -35 8 -23 0 -41 -2 -41 -4z"/>
<path d="M7803 1993 c7 -7 149 -4 156 3 2 2 -33 4 -79 4 -46 0 -80 -3 -77 -7z"/>
<path d="M8410 1996 c0 -8 51 -13 56 -5 3 5 -9 9 -25 9 -17 0 -31 -2 -31 -4z"/>
<path d="M7971 1964 c0 -11 3 -14 6 -6 3 7 2 16 -1 19 -3 4 -6 -2 -5 -13z"/>
<path d="M8391 1964 c0 -11 3 -14 6 -6 3 7 2 16 -1 19 -3 4 -6 -2 -5 -13z"/>
<path d="M9024 1958 c-3 -4 15 -8 40 -8 25 0 46 2 46 4 0 8 -82 11 -86 4z"/>
<path d="M8190 1945 c0 -9 9 -15 25 -15 16 0 25 6 25 15 0 9 -9 15 -25 15 -16
0 -25 -6 -25 -15z"/>
<path d="M5090 1940 l-85 -6 73 -2 72 -2 2 -42 1 -43 4 40 c3 22 9 45 15 52 6
7 9 12 7 11 -2 -1 -42 -5 -89 -8z"/>
<path d="M7599 1937 c9 -9 351 -10 359 -2 3 2 -79 5 -181 7 -102 2 -182 -1
-178 -5z"/>
<path d="M8563 1933 c87 -2 227 -2 310 0 84 1 13 3 -158 3 -170 0 -239 -2
-152 -3z"/>
<path d="M7632 1895 c0 -16 2 -22 5 -12 2 9 2 23 0 30 -3 6 -5 -1 -5 -18z"/>
<path d="M7605 1860 c-3 -5 -1 -10 4 -10 6 0 11 5 11 10 0 6 -2 10 -4 10 -3 0
-8 -4 -11 -10z"/>
<path d="M5170 1840 c0 -5 5 -10 11 -10 5 0 7 5 4 10 -3 6 -8 10 -11 10 -2 0
-4 -4 -4 -10z"/>
<path d="M7565 1840 c-4 -6 3 -10 14 -10 25 0 27 6 6 13 -8 4 -17 2 -20 -3z"/>
<path d="M5210 1820 c-24 -8 -23 -8 8 -9 20 -1 31 3 27 9 -3 6 -7 10 -8 9 -1
-1 -13 -5 -27 -9z"/>
<path d="M7504 1819 c-3 -5 9 -9 25 -9 17 0 31 2 31 4 0 8 -51 13 -56 5z"/>
<path d="M5290 1800 l-45 -7 53 -1 c33 -1 51 2 47 8 -3 6 -7 9 -8 8 -1 0 -22
-4 -47 -8z"/>
<path d="M7424 1798 c-3 -4 13 -8 35 -8 23 0 41 2 41 4 0 8 -71 12 -76 4z"/>
<path d="M5410 1780 l-45 -7 53 -1 c33 -1 51 2 47 8 -3 6 -7 9 -8 8 -1 0 -22
-4 -47 -8z"/>
<path d="M6824 1778 c-3 -4 12 -8 32 -8 21 0 34 3 31 7 -10 9 -58 10 -63 1z"/>
<path d="M7244 1778 c-3 -5 28 -7 68 -7 75 2 69 6 -15 11 -27 2 -51 0 -53 -4z"/>
<path d="M5680 1760 c-12 -8 -10 -10 8 -10 13 0 20 4 17 10 -7 12 -6 12 -25 0z"/>
<path d="M6565 1760 c-3 -5 -1 -10 4 -10 6 0 11 5 11 10 0 6 -2 10 -4 10 -3 0
-8 -4 -11 -10z"/>
</g>
</svg>
