<?xml version="1.0" standalone="no"?>
<!DOCTYPE svg PUBLIC "-//W3C//DTD SVG 20010904//EN"
 "http://www.w3.org/TR/2001/REC-SVG-20010904/DTD/svg10.dtd">
<svg version="1.0" xmlns="http://www.w3.org/2000/svg"
 width="1200.000000pt" height="660.000000pt" viewBox="0 0 1200.000000 660.000000"
 preserveAspectRatio="xMidYMid meet">
<metadata>
Created by potrace 1.13, written by Peter Selinger 2001-2015
</metadata>
<g transform="translate(0.000000,660.000000) scale(0.100000,-0.100000)"
fill="#000000" stroke="none">
<path d="M1926 4791 c-7 -10 1471 -1486 1487 -1486 8 0 345 328 750 730 405
401 741 731 746 733 4 1 11 -15 15 -38 3 -22 6 -691 6 -1487 0 -797 3 -1449 7
-1450 10 -4 1488 1473 1488 1486 0 5 -338 349 -752 764 l-752 756 -1495 0
c-823 0 -1498 -4 -1500 -8z"/>
<path d="M1135 4023 l-740 -743 745 -745 c410 -410 748 -745 752 -745 5 0 8
671 8 1490 0 1186 -3 1490 -12 1488 -7 -1 -346 -336 -753 -745z"/>
<path d="M8565 3930 c-113 -23 -228 -87 -277 -154 -44 -60 -59 -103 -65 -182
-16 -200 96 -309 407 -399 167 -48 209 -64 249 -93 93 -68 66 -193 -53 -248
-75 -35 -190 -34 -255 2 -57 31 -77 58 -95 126 l-13 53 -134 0 -134 0 3 -59
c7 -152 114 -275 286 -328 104 -32 298 -31 414 1 152 43 265 139 302 259 54
173 -4 318 -159 401 -33 17 -142 59 -242 92 -100 33 -199 69 -220 79 -98 50
-106 150 -19 223 75 64 221 62 289 -4 16 -15 36 -50 46 -78 l17 -52 131 3 132
3 3 41 c4 56 -30 142 -79 197 -44 51 -113 88 -204 112 -64 16 -259 19 -330 5z"/>
<path d="M10970 3933 c-114 -19 -245 -93 -318 -180 -73 -88 -125 -210 -143
-342 -14 -95 -5 -295 16 -376 52 -196 184 -335 370 -391 46 -14 93 -18 205
-18 129 1 153 4 218 27 86 30 160 75 203 125 44 50 90 151 92 204 l2 43 -135
3 c-128 3 -136 2 -152 -19 -10 -12 -18 -30 -18 -40 0 -11 -21 -41 -47 -68 -43
-43 -55 -50 -113 -60 -69 -13 -135 -5 -189 23 -38 21 -96 84 -121 135 -50 99
-65 281 -36 419 37 179 118 275 252 303 50 10 68 9 114 -4 62 -18 111 -60 130
-110 32 -86 13 -78 167 -75 l138 3 -1 61 c-1 110 -84 227 -201 283 -78 38 -85
41 -142 51 -52 10 -240 12 -291 3z"/>
<path d="M6949 3920 c-13 -8 -15 -79 -15 -632 1 -343 5 -629 9 -635 9 -14 230
-19 262 -7 14 6 16 35 15 263 -1 141 -1 262 0 269 0 10 57 12 268 10 l267 -3
1 -263 c1 -216 3 -265 15 -273 16 -10 228 -12 253 -3 14 6 16 71 16 635 0 611
-1 629 -19 639 -29 15 -223 13 -245 -3 -16 -12 -18 -36 -19 -262 l-2 -250
-267 -3 c-250 -2 -268 -1 -268 15 -1 10 0 125 0 255 1 226 0 237 -19 247 -24
13 -230 14 -252 1z"/>
<path d="M9378 3914 c-5 -4 -8 -290 -8 -636 l0 -629 343 3 c320 3 346 5 407
26 204 68 300 235 243 421 -24 78 -97 150 -181 181 -34 13 -62 26 -62 29 0 4
20 17 44 28 109 53 166 140 166 255 0 113 -43 195 -134 253 -100 64 -126 68
-486 72 -179 3 -328 1 -332 -3z m590 -219 c44 -21 56 -32 74 -71 35 -81 8
-168 -64 -205 -35 -18 -65 -22 -190 -27 l-148 -5 0 167 0 166 138 0 c125 0
142 -2 190 -25z m36 -515 c63 -32 86 -74 86 -155 0 -81 -23 -123 -86 -155 -46
-24 -58 -25 -204 -25 l-155 0 -3 184 -2 183 158 -3 c145 -4 162 -6 206 -29z"/>
<path d="M2668 2525 c-412 -409 -748 -747 -748 -752 0 -6 2976 -11 3000 -4 6
1 -1493 1501 -1500 1501 -3 -1 -341 -336 -752 -745z"/>
</g>
</svg>
