<?xml version="1.0" standalone="no"?>
<!DOCTYPE svg PUBLIC "-//W3C//DTD SVG 20010904//EN"
 "http://www.w3.org/TR/2001/REC-SVG-20010904/DTD/svg10.dtd">
<svg version="1.0" xmlns="http://www.w3.org/2000/svg"
 width="1200.000000pt" height="660.000000pt" viewBox="0 0 1200.000000 660.000000"
 preserveAspectRatio="xMidYMid meet">
<metadata>
Created by potrace 1.13, written by Peter Selinger 2001-2015
</metadata>
<g transform="translate(0.000000,660.000000) scale(0.100000,-0.100000)"
fill="#000000" stroke="none">
<path d="M5010 6195 c-137 -14 -158 -17 -305 -47 -533 -107 -1016 -362 -1420
-749 -123 -118 -242 -167 -490 -205 -122 -19 -532 -25 -688 -11 -65 6 -87 5
-87 -4 0 -6 22 -41 49 -78 179 -243 325 -533 388 -770 34 -129 37 -270 6 -396
-105 -437 -99 -922 17 -1369 104 -398 305 -797 563 -1116 99 -122 325 -346
447 -443 441 -351 997 -573 1545 -617 61 -5 801 -10 1645 -10 l1535 -1 0 989
0 989 69 74 c268 289 458 610 583 984 43 128 81 284 110 455 14 84 18 163 18
395 0 259 -3 304 -24 420 -57 321 -129 543 -266 817 -88 175 -229 390 -330
503 l-45 50 -237 -240 c-131 -133 -535 -542 -899 -910 -364 -369 -889 -899
-1168 -1179 -278 -280 -504 -511 -502 -514 3 -2 36 28 74 66 39 39 73 68 76
65 3 -4 6 1 6 10 0 15 13 17 100 17 66 0 100 4 100 11 0 7 15 10 40 7 29 -3
40 0 40 10 0 9 7 12 20 9 14 -3 20 0 20 10 0 10 6 14 20 10 11 -3 20 -1 20 5
0 15 27 38 44 38 9 0 16 5 16 11 0 6 9 9 20 6 11 -3 20 -1 20 5 0 17 30 40 45
34 8 -3 15 -1 15 5 0 18 30 41 45 35 8 -3 15 -1 15 5 0 18 51 61 65 55 8 -3
15 -1 15 5 0 18 51 61 65 55 8 -3 15 -1 15 5 0 18 71 81 86 75 7 -3 14 -1 14
5 0 18 71 81 86 75 7 -3 14 -1 14 5 0 12 46 59 58 59 5 0 23 14 40 30 18 17
36 30 40 30 5 0 22 12 38 28 16 15 42 33 57 41 15 8 27 18 27 23 0 4 6 8 13 8
7 0 23 9 35 20 12 11 25 20 30 20 4 0 18 9 31 21 12 11 29 18 37 15 8 -3 14 1
14 9 0 8 9 15 20 15 11 0 20 5 20 10 0 6 6 10 13 10 7 0 23 9 36 21 12 11 29
18 37 15 8 -3 14 1 14 10 0 11 6 15 20 11 14 -3 20 0 20 10 0 10 6 14 20 10
14 -3 20 0 20 10 0 10 6 14 20 10 14 -3 20 0 20 10 0 10 6 14 20 10 14 -3 20
0 20 10 0 10 6 14 20 10 10 -3 25 2 31 10 7 8 21 12 31 10 12 -3 18 0 18 10 0
10 6 14 20 10 10 -3 25 2 31 10 7 8 21 12 31 10 11 -3 18 0 18 9 0 11 10 14
37 12 22 -1 38 3 41 10 2 7 21 12 43 12 21 0 39 5 39 10 0 6 35 10 85 10 50 0
85 -4 85 -10 0 -5 14 -10 30 -10 20 0 30 -5 30 -15 0 -8 6 -12 14 -9 20 8 90
-62 82 -82 -3 -8 1 -14 10 -14 11 0 15 -6 11 -20 -3 -14 0 -20 10 -20 11 0 14
-8 11 -30 -3 -20 0 -30 9 -30 9 0 13 -15 13 -50 0 -27 5 -50 10 -50 6 0 10
-42 10 -105 0 -77 -3 -105 -12 -105 -10 0 -12 -18 -10 -65 3 -44 -1 -71 -10
-82 -7 -9 -11 -26 -10 -39 2 -12 -3 -35 -11 -51 -8 -15 -12 -34 -10 -40 3 -7
-2 -20 -11 -28 -8 -9 -13 -22 -10 -29 3 -8 -1 -28 -10 -44 -8 -16 -13 -32 -9
-35 3 -4 -4 -27 -16 -52 -11 -24 -21 -51 -21 -58 0 -7 -4 -17 -8 -23 -5 -5
-14 -25 -21 -44 -19 -52 -75 -164 -83 -168 -5 -2 -8 -12 -8 -23 0 -10 -4 -19
-10 -19 -5 0 -10 -6 -10 -14 0 -17 -42 -100 -52 -104 -5 -2 -8 -13 -8 -23 0
-11 -4 -18 -8 -15 -5 3 -14 -11 -21 -30 -7 -18 -17 -34 -22 -34 -5 0 -9 -9 -9
-20 0 -11 -9 -25 -20 -32 -11 -7 -20 -20 -20 -30 0 -9 -13 -28 -30 -41 -16
-14 -30 -32 -30 -40 0 -9 -13 -27 -30 -40 -16 -14 -30 -31 -30 -36 0 -15 -125
-141 -140 -141 -6 0 -23 -13 -37 -30 -13 -16 -30 -30 -37 -30 -7 0 -22 -9 -35
-21 -12 -11 -29 -18 -37 -15 -7 3 -14 0 -14 -7 0 -15 -56 -41 -69 -33 -5 4
-15 1 -23 -6 -24 -24 -67 -41 -87 -35 -11 3 -26 -1 -32 -10 -8 -9 -26 -13 -50
-12 -20 2 -44 -3 -53 -10 -8 -7 -30 -11 -49 -10 -19 2 -42 -3 -50 -10 -9 -7
-31 -11 -50 -10 -19 2 -41 -2 -49 -8 -10 -9 -175 -12 -632 -13 -414 0 -623 -3
-631 -10 -13 -11 -394 -9 -485 2 -92 11 -793 9 -800 -3 -4 -6 -23 -9 -43 -8
-19 2 -42 -3 -50 -10 -10 -8 -37 -12 -72 -10 -33 2 -60 -2 -67 -9 -16 -16
-118 -16 -118 1 0 8 -15 11 -50 9 -41 -3 -50 -1 -50 13 0 9 -5 13 -11 10 -13
-9 -79 22 -86 41 -3 8 -13 14 -22 14 -20 0 -161 143 -161 163 0 8 -6 17 -14
20 -28 11 -178 348 -162 364 3 4 -1 14 -10 24 -10 11 -15 28 -12 44 3 14 -1
30 -9 36 -9 8 -13 28 -11 56 1 27 -3 48 -11 52 -8 5 -12 29 -11 67 1 32 -3 75
-9 94 -15 47 -14 295 1 323 6 12 10 48 9 80 -1 35 3 65 10 74 7 8 12 33 10 54
-2 28 1 39 12 39 9 0 12 9 9 28 -2 17 2 33 11 40 8 7 13 22 10 32 -4 14 0 20
10 20 10 0 13 6 10 20 -3 11 0 20 6 20 6 0 11 9 11 20 0 11 7 20 15 20 8 0 12
6 9 14 -4 9 16 37 51 71 45 45 62 56 81 52 16 -3 24 0 24 9 0 8 9 14 19 14 11
0 22 6 24 13 4 10 6 10 6 0 1 -15 31 -18 31 -3 0 6 32 10 75 10 53 0 75 -4 75
-12 0 -10 20 -12 75 -10 47 2 81 -1 90 -8 21 -17 285 -19 285 -2 0 9 10 12 29
10 16 -1 36 3 45 11 8 7 22 11 31 8 8 -4 17 -2 20 3 10 16 73 42 84 35 6 -3
11 1 11 9 0 9 6 16 13 16 7 0 22 8 33 18 10 9 31 23 47 31 15 8 27 18 27 23 0
4 6 8 14 8 15 0 206 188 206 203 0 5 14 23 30 39 17 15 30 32 30 36 0 18 26
62 37 62 6 0 9 9 6 20 -4 14 0 20 10 20 10 0 13 6 10 20 -4 14 0 20 10 20 10
0 13 6 10 20 -4 13 0 20 9 20 10 0 13 8 10 30 -3 22 0 30 11 30 10 0 13 6 10
20 -4 13 0 20 9 20 10 0 13 8 10 30 -3 21 0 30 10 30 10 0 13 9 10 30 -3 22 0
30 11 30 10 0 13 6 10 20 -4 14 0 20 10 20 10 0 13 6 10 20 -4 14 0 20 11 20
9 0 13 6 10 15 -6 15 17 45 34 45 6 0 8 10 4 22 -4 18 -2 20 16 16 12 -4 22
-2 22 3 0 18 51 61 65 55 8 -3 15 -1 15 5 0 19 28 39 54 39 14 0 26 5 26 10 0
6 18 10 40 10 22 0 40 5 40 10 0 6 35 10 85 10 50 0 85 -4 85 -10 0 -6 27 -10
60 -10 33 0 60 -4 60 -10 0 -5 14 -10 30 -10 19 0 30 -5 30 -14 0 -9 8 -12 25
-9 24 5 55 -15 55 -35 0 -6 9 -8 20 -5 14 4 20 0 20 -11 0 -9 6 -13 14 -10 20
8 130 -102 122 -122 -3 -8 -1 -14 5 -14 19 0 39 -28 39 -54 0 -14 5 -26 10
-26 6 0 10 -42 10 -105 0 -63 -4 -105 -10 -105 -5 0 -10 -13 -10 -30 0 -16 -4
-30 -10 -30 -5 0 -10 -13 -10 -30 0 -16 -4 -30 -10 -30 -5 0 -10 -9 -10 -20 0
-11 -4 -20 -10 -20 -5 0 -10 -9 -10 -20 0 -11 -4 -20 -10 -20 -5 0 -10 -9 -10
-20 0 -11 -4 -20 -10 -20 -5 0 -10 -7 -10 -16 0 -17 -23 -44 -38 -44 -6 0 -8
-9 -5 -20 3 -11 0 -20 -6 -20 -6 0 -11 -7 -11 -16 0 -18 -23 -44 -39 -44 -6 0
-8 -7 -5 -15 6 -15 -17 -45 -34 -45 -6 0 -8 -9 -5 -20 4 -14 0 -20 -11 -20 -9
0 -13 -6 -10 -15 6 -15 -17 -45 -35 -45 -6 0 -8 -7 -5 -15 6 -15 -17 -45 -34
-45 -6 0 -8 -9 -5 -20 4 -14 0 -20 -10 -20 -10 0 -13 -6 -10 -20 3 -11 0 -20
-6 -20 -6 0 -11 -9 -11 -20 0 -11 -4 -20 -10 -20 -5 0 -10 -9 -10 -20 0 -11
-4 -20 -10 -20 -5 0 -10 -9 -10 -20 0 -11 -4 -20 -10 -20 -5 0 -10 -13 -10
-30 0 -16 -4 -30 -10 -30 -5 0 -10 -13 -10 -30 0 -16 -4 -30 -10 -30 -5 0 -10
-22 -10 -50 0 -27 -4 -50 -10 -50 -5 0 -10 -25 -10 -55 0 -30 5 -55 10 -55 23
0 5 -25 -71 -101 -45 -44 -79 -82 -77 -85 3 -2 449 438 992 979 l987 983 -29
40 c-16 22 -71 76 -123 120 -394 336 -868 556 -1389 645 -219 37 -548 47 -780
24z m-829 -949 c30 -7 66 -19 80 -26 50 -25 149 -95 149 -106 0 -6 7 -17 16
-25 27 -22 64 -106 79 -180 22 -105 2 -202 -69 -326 -21 -37 -48 -63 -103
-100 -82 -54 -145 -73 -244 -73 -111 0 -186 24 -259 83 -110 88 -157 181 -163
322 -3 74 16 83 55 26 70 -98 233 -108 314 -19 37 40 54 85 54 143 0 93 -43
155 -133 195 -55 24 -63 52 -19 68 92 34 156 39 243 18z m224 -3463 l0 -172
25 16 c176 117 413 85 475 -64 13 -30 15 -87 13 -332 l-3 -296 -114 -3 c-72
-2 -118 1 -127 8 -10 9 -14 65 -16 247 l-3 235 -30 24 c-48 39 -124 32 -197
-19 l-28 -18 0 -234 c0 -223 -1 -234 -20 -240 -21 -7 -216 1 -229 9 -10 6 -26
991 -16 1006 4 7 52 10 138 8 l132 -3 0 -172z m1966 -94 c60 -19 83 -33 118
-71 l34 -37 43 38 c85 75 264 105 358 61 23 -12 55 -34 71 -50 27 -28 28 -28
48 -10 39 37 157 80 220 80 65 0 141 -31 182 -75 l40 -43 34 29 c77 64 193 96
280 78 66 -13 98 -29 127 -61 53 -57 54 -65 54 -388 l0 -300 -125 0 -125 0 0
231 c0 233 -3 259 -39 286 -21 16 -95 16 -124 1 -12 -7 -32 -22 -44 -32 -23
-19 -23 -23 -23 -252 0 -202 -2 -233 -16 -238 -23 -9 -217 -7 -231 2 -9 5 -13
76 -15 251 -3 241 -3 243 -27 262 -43 35 -129 21 -173 -28 -16 -17 -18 -48
-20 -254 l-3 -234 -120 -3 c-104 -2 -121 0 -132 15 -10 12 -13 79 -13 254 l0
237 -25 16 c-46 30 -112 19 -162 -27 -23 -20 -23 -25 -23 -247 0 -162 -3 -229
-12 -238 -17 -17 -229 -17 -246 0 -9 9 -12 78 -12 247 0 227 -1 235 -22 258
-29 31 -88 31 -143 -2 l-42 -24 -7 -79 c-4 -44 -6 -150 -5 -237 1 -125 -1
-159 -12 -166 -24 -15 -225 -11 -238 5 -8 9 -11 116 -9 372 l3 359 124 3 c133
3 141 0 141 -47 0 -23 1 -23 18 -8 61 55 217 90 293 66z m-1146 -234 c0 -121
4 -235 8 -253 15 -57 101 -80 180 -47 70 29 68 22 66 275 0 126 2 233 6 239
10 16 254 15 260 -1 2 -7 1 -175 -3 -373 l-7 -360 -105 -3 c-135 -4 -150 0
-150 37 l0 29 -72 -37 c-71 -35 -76 -36 -183 -36 -118 0 -148 9 -200 60 -59
60 -60 65 -63 378 -2 159 -1 295 2 303 5 12 29 14 133 12 l128 -3 0 -220z"/>
<path d="M9318 6160 c-215 -45 -376 -199 -429 -410 -61 -241 62 -515 281 -625
90 -45 148 -58 259 -57 165 1 273 45 386 156 161 159 208 421 112 626 -108
230 -366 362 -609 310z m270 -181 c120 -58 205 -170 231 -306 27 -140 -51
-309 -181 -393 -103 -67 -222 -85 -340 -50 -58 17 -159 90 -201 145 -85 112
-101 282 -39 407 30 61 92 134 141 167 69 45 124 60 225 61 90 0 104 -3 164
-31z"/>
<path d="M9224 5866 c-21 -21 -34 -44 -34 -60 0 -19 -6 -27 -25 -32 -24 -6
-26 -10 -23 -53 3 -39 6 -46 25 -49 21 -3 22 -8 25 -115 l3 -112 43 -3 c67 -5
72 5 72 124 0 81 3 104 14 104 10 0 15 -20 18 -73 3 -45 11 -83 22 -99 34 -52
136 -76 184 -42 20 14 22 14 22 -4 0 -50 -104 -79 -147 -40 -21 19 -31 15 -56
-24 -25 -40 -22 -47 29 -70 68 -30 177 -23 226 14 62 47 69 75 66 265 l-3 168
-70 3 c-38 2 -122 5 -185 7 -94 2 -116 6 -118 18 -2 11 6 17 25 19 19 2 30 11
37 29 16 46 3 59 -60 59 -50 0 -59 -3 -90 -34z m338 -213 c24 -21 23 -68 -2
-93 -38 -38 -95 -18 -106 38 -12 57 63 96 108 55z"/>
<path d="M5312 3325 c0 -16 2 -22 5 -12 2 9 2 23 0 30 -3 6 -5 -1 -5 -18z"/>
<path d="M5488 3193 c7 -3 16 -2 19 1 4 3 -2 6 -13 5 -11 0 -14 -3 -6 -6z"/>
</g>
</svg>
