<?xml version="1.0" standalone="no"?>
<!DOCTYPE svg PUBLIC "-//W3C//DTD SVG 20010904//EN"
 "http://www.w3.org/TR/2001/REC-SVG-20010904/DTD/svg10.dtd">
<svg version="1.0" xmlns="http://www.w3.org/2000/svg"
 width="1200.000000pt" height="660.000000pt" viewBox="0 0 1200.000000 660.000000"
 preserveAspectRatio="xMidYMid meet">
<metadata>
Created by potrace 1.13, written by Peter Selinger 2001-2015
</metadata>
<g transform="translate(0.000000,660.000000) scale(0.100000,-0.100000)"
fill="#000000" stroke="none">
<path d="M5969 6107 c-57 -109 -1132 -1902 -1601 -2671 -64 -104 -114 -194
-112 -200 3 -6 82 -56 177 -111 94 -54 237 -137 317 -183 80 -47 159 -92 175
-102 17 -10 71 -41 120 -70 50 -29 104 -61 121 -70 17 -10 62 -37 99 -59 37
-23 68 -41 70 -41 2 0 33 -18 70 -41 64 -39 81 -49 173 -100 20 -12 49 -30 64
-40 14 -11 28 -19 31 -19 2 0 71 -40 153 -90 82 -49 157 -90 167 -90 10 0 38
14 62 30 24 17 46 30 49 30 2 0 41 23 86 50 45 28 84 50 86 50 3 0 25 14 49
30 24 17 47 30 50 30 4 0 19 8 33 19 15 10 44 28 65 40 20 11 53 30 72 41 19
11 52 29 73 41 20 12 42 25 47 29 6 4 26 17 45 28 19 11 76 43 125 72 162 95
366 213 629 365 142 83 260 155 263 161 2 6 -44 90 -103 185 -157 255 -545
897 -974 1614 -329 549 -427 715 -608 1022 -42 71 -57 81 -73 50z m81 -1987
c0 -5 9 -10 20 -10 11 0 20 -7 20 -15 0 -9 6 -12 15 -9 15 6 45 -17 45 -35 0
-6 7 -8 15 -5 14 6 65 -37 65 -54 0 -5 14 -24 31 -41 17 -18 28 -39 25 -47 -3
-8 1 -14 10 -14 11 0 15 -6 11 -20 -3 -13 0 -20 9 -20 8 0 14 -9 14 -20 0 -11
5 -20 11 -20 6 0 9 -9 6 -20 -3 -13 0 -20 10 -20 12 0 14 -9 11 -40 -2 -28 0
-40 9 -40 10 0 13 -27 13 -105 0 -81 -3 -105 -13 -105 -9 0 -12 -10 -9 -30 3
-22 0 -30 -11 -30 -10 0 -13 -6 -10 -20 4 -14 0 -20 -11 -20 -9 0 -13 -6 -10
-14 8 -20 -102 -130 -122 -122 -8 3 -14 -1 -14 -10 0 -11 -6 -15 -20 -11 -13
3 -20 0 -20 -9 0 -8 -9 -14 -20 -14 -11 0 -20 -4 -20 -10 0 -6 -45 -10 -115
-10 -89 0 -115 3 -115 13 0 9 -10 12 -30 9 -18 -3 -30 0 -30 7 0 6 -7 11 -15
11 -18 0 -65 43 -65 59 0 6 -7 8 -15 5 -19 -8 -49 22 -41 41 3 8 1 15 -5 15
-18 0 -41 30 -35 45 3 9 0 15 -9 15 -8 0 -15 9 -15 20 0 11 -4 20 -10 20 -5 0
-10 18 -10 40 0 22 -4 40 -10 40 -5 0 -10 25 -10 55 0 30 5 55 10 55 6 0 10
23 10 50 0 35 4 50 13 50 9 0 12 10 9 30 -3 22 0 30 11 30 10 0 13 6 10 20 -4
14 0 20 10 20 10 0 13 6 10 20 -4 14 0 20 11 20 9 0 13 6 10 15 -6 15 17 45
35 45 6 0 8 6 5 14 -8 20 102 130 122 122 8 -3 14 -1 14 5 0 19 28 39 54 39
14 0 26 5 26 10 0 6 25 10 55 10 30 0 55 -4 55 -10z"/>
<path d="M4263 2888 c3 -8 68 -102 144 -209 400 -557 1061 -1489 1382 -1949
106 -151 197 -276 201 -278 5 -2 28 25 51 60 99 146 592 845 1018 1443 547
768 584 820 622 871 41 53 46 64 29 64 -5 0 -326 -190 -712 -422 -387 -231
-717 -429 -734 -439 -17 -9 -62 -36 -99 -58 -37 -23 -69 -41 -72 -41 -2 0 -25
-14 -49 -31 -25 -17 -52 -28 -60 -25 -8 3 -49 27 -91 52 -42 25 -90 54 -107
63 -17 10 -359 214 -759 454 -831 499 -772 464 -764 445z"/>
</g>
</svg>
