<?xml version="1.0" standalone="no"?>
<!DOCTYPE svg PUBLIC "-//W3C//DTD SVG 20010904//EN"
 "http://www.w3.org/TR/2001/REC-SVG-20010904/DTD/svg10.dtd">
<svg version="1.0" xmlns="http://www.w3.org/2000/svg"
 width="1200.000000pt" height="660.000000pt" viewBox="0 0 1200.000000 660.000000"
 preserveAspectRatio="xMidYMid meet">
<metadata>
Created by potrace 1.13, written by Peter Selinger 2001-2015
</metadata>
<g transform="translate(0.000000,660.000000) scale(0.100000,-0.100000)"
fill="#000000" stroke="none">
<path d="M8210 4397 c-31 -19 -53 -22 -195 -27 -154 -5 -160 -6 -163 -26 -2
-16 7 -28 33 -44 19 -12 48 -43 63 -68 l27 -47 0 -895 0 -895 -23 -40 c-13
-22 -41 -53 -63 -68 -44 -32 -51 -64 -16 -72 12 -3 139 -4 282 -3 258 3 260 3
263 25 2 16 -8 29 -41 52 -29 20 -53 47 -68 78 l-23 47 0 1001 c-1 992 -1
1000 -21 1002 -11 1 -36 -8 -55 -20z"/>
<path d="M9797 4397 c-26 -20 -42 -22 -190 -27 -155 -5 -162 -6 -165 -26 -2
-15 8 -28 36 -47 25 -16 49 -44 63 -74 l24 -48 3 -864 c3 -997 8 -935 -85
-1020 -51 -47 -59 -51 -79 -40 -46 24 -165 151 -300 320 -77 95 -202 250 -277
342 -75 93 -137 172 -137 176 0 7 165 195 412 468 70 78 128 146 128 152 0 8
-74 11 -247 9 -222 -3 -248 -5 -251 -20 -2 -10 8 -21 25 -30 22 -10 29 -21 31
-51 6 -71 -37 -129 -305 -415 -89 -94 -131 -147 -126 -155 38 -59 527 -700
558 -730 52 -51 115 -82 195 -95 78 -13 868 -16 889 -3 20 13 5 43 -35 70 -19
13 -47 45 -62 70 l-27 46 0 1005 0 1005 -25 2 c-14 1 -38 -8 -53 -20z"/>
<path d="M1135 4400 c-169 -14 -298 -49 -430 -118 -251 -132 -342 -420 -216
-677 70 -141 197 -247 430 -357 441 -210 496 -241 559 -312 105 -120 106 -263
2 -360 -212 -198 -668 -171 -1002 61 -43 29 -80 53 -84 53 -9 0 -1 -55 36
-235 4 -22 13 -69 20 -104 13 -78 23 -97 52 -104 13 -3 59 -15 103 -26 141
-37 269 -51 454 -51 256 0 417 33 571 117 168 91 266 207 310 366 50 181 7
340 -130 477 -90 91 -177 145 -461 291 -274 140 -342 182 -412 252 -63 62 -91
125 -91 202 0 124 85 207 257 252 73 18 269 13 353 -11 83 -23 198 -75 250
-111 27 -19 52 -35 56 -35 5 0 8 81 8 180 l0 180 -27 12 c-114 45 -411 73
-608 58z"/>
<path d="M3130 4346 c0 -18 7 -29 23 -35 36 -14 83 -74 103 -133 18 -50 19
-99 19 -878 0 -889 0 -881 -52 -961 -13 -20 -39 -45 -58 -55 -40 -21 -50 -40
-34 -60 10 -12 70 -14 338 -12 l326 3 0 23 c0 15 -16 34 -50 60 -57 43 -90 88
-108 146 -9 31 -12 233 -12 856 l0 815 170 -1 c106 0 191 -5 225 -14 218 -53
320 -189 307 -411 -7 -141 -68 -248 -180 -320 -84 -55 -155 -78 -292 -98 -92
-13 -121 -21 -123 -33 -4 -21 40 -35 152 -49 170 -21 325 4 475 77 163 79 283
220 326 384 22 84 19 233 -6 311 -62 188 -214 311 -474 380 -76 21 -107 22
-577 26 l-498 5 0 -26z"/>
<path d="M11263 4321 c-45 -9 -117 -63 -137 -102 -55 -111 -12 -236 99 -288
107 -50 226 0 276 117 22 51 23 76 7 123 -38 112 -137 172 -245 150z"/>
<path d="M11395 3751 c-46 -24 -63 -26 -199 -31 -177 -6 -185 -12 -102 -74 78
-58 76 -40 76 -675 0 -552 0 -566 -21 -608 -11 -24 -38 -55 -60 -70 -44 -32
-54 -50 -38 -69 10 -12 60 -14 278 -12 l266 3 3 25 c2 20 -6 33 -36 57 -81 65
-76 23 -82 793 -6 769 2 707 -85 661z"/>
<path d="M4955 3746 c-91 -23 -113 -43 -140 -126 -10 -30 -31 -83 -47 -118
-17 -35 -28 -65 -26 -67 2 -2 43 12 90 31 314 126 650 57 625 -129 -15 -110
-82 -145 -517 -272 -277 -80 -414 -181 -455 -336 -60 -225 65 -442 299 -519
75 -25 217 -42 321 -38 l90 3 87 108 c49 60 88 113 88 118 0 5 -55 9 -122 9
-199 1 -307 22 -364 72 -90 79 -96 202 -14 286 57 57 142 95 322 142 84 22
176 52 204 65 28 14 54 25 57 25 3 0 7 -132 9 -292 3 -284 4 -294 27 -341 52
-106 169 -171 330 -184 l76 -6 83 103 c46 56 86 108 88 115 4 9 -12 15 -58 19
-100 10 -148 27 -183 62 -56 56 -60 87 -61 514 0 288 -3 398 -13 435 -46 171
-136 262 -309 312 -76 22 -413 28 -487 9z"/>
<path d="M6420 3743 c-25 -11 -80 -18 -189 -22 -100 -4 -156 -10 -158 -17 -2
-6 19 -30 46 -53 89 -74 86 -56 85 -666 0 -291 -4 -552 -8 -579 -7 -44 -15
-57 -69 -109 -92 -87 -89 -88 243 -85 257 3 265 4 268 23 2 14 -12 32 -43 58
-83 70 -80 50 -80 497 0 422 2 442 52 543 33 66 103 133 171 165 43 20 78 27
143 30 190 9 304 -65 361 -237 21 -62 22 -87 26 -453 4 -460 3 -469 -79 -541
-34 -30 -50 -51 -47 -63 3 -18 19 -19 274 -22 222 -2 273 0 283 12 16 19 6 39
-30 60 -17 10 -44 39 -60 64 l-29 46 0 401 c0 393 -7 524 -35 616 -50 172
-179 287 -375 335 -72 18 -270 18 -337 0 -108 -29 -231 -106 -282 -176 -18
-25 -32 -36 -36 -30 -4 6 -5 57 -4 113 l4 102 -30 2 c-16 1 -46 -5 -65 -14z"/>
<path d="M10315 3710 c-3 -5 10 -25 31 -44 33 -30 36 -37 30 -69 -10 -55 -73
-142 -202 -281 -65 -71 -145 -158 -178 -193 -32 -35 -56 -69 -53 -76 3 -6 127
-172 274 -367 283 -374 317 -411 417 -445 59 -21 361 -34 378 -17 6 6 -13 27
-54 60 -83 66 -112 98 -259 282 -69 85 -191 237 -272 337 -81 100 -147 187
-147 193 0 6 122 147 270 313 149 166 270 305 270 309 0 12 -498 10 -505 -2z"/>
<path d="M2254 3416 c-28 -12 -176 -164 -197 -202 -21 -36 3 -39 366 -39 194
0 365 4 380 8 33 9 110 78 179 160 39 47 46 62 37 73 -16 20 -719 20 -765 0z"/>
<path d="M2965 3208 c-104 -114 -79 -108 -456 -108 l-326 0 -23 -24 c-44 -48
-30 -52 202 -58 304 -8 535 2 570 25 42 29 179 189 176 206 -2 11 -17 17 -44
19 -39 3 -44 0 -99 -60z"/>
</g>
</svg>
