<?xml version="1.0" standalone="no"?>
<!DOCTYPE svg PUBLIC "-//W3C//DTD SVG 20010904//EN"
 "http://www.w3.org/TR/2001/REC-SVG-20010904/DTD/svg10.dtd">
<svg version="1.0" xmlns="http://www.w3.org/2000/svg"
 width="1200.000000pt" height="660.000000pt" viewBox="0 0 1200.000000 660.000000"
 preserveAspectRatio="xMidYMid meet">
<metadata>
Created by potrace 1.13, written by Peter Selinger 2001-2015
</metadata>
<g transform="translate(0.000000,660.000000) scale(0.100000,-0.100000)"
fill="#000000" stroke="none">
<path d="M2658 6174 c-3 -3 -4 -1300 -1 -2882 l5 -2877 1776 0 c1779 0 2017 3
2232 24 1019 104 1768 498 2209 1162 251 377 394 820 442 1374 13 150 6 661
-10 770 -6 39 -16 102 -22 140 -72 477 -251 911 -518 1260 -75 99 -285 308
-395 394 -489 382 -1147 592 -1983 631 -216 10 -3725 14 -3735 4z m3882 -283
c834 -80 1426 -318 1855 -746 336 -335 542 -769 624 -1310 26 -172 34 -297 34
-540 0 -266 -8 -375 -44 -595 -126 -772 -530 -1339 -1189 -1670 -412 -206
-877 -312 -1495 -341 -294 -13 -3371 -7 -3385 7 -7 7 -9 949 -8 2605 l3 2594
1055 6 c1400 7 2407 3 2550 -10z"/>
<path d="M4888 5474 c-5 -4 -8 -243 -8 -531 l0 -523 119 0 c216 0 332 -39 441
-150 103 -104 148 -216 157 -398 15 -278 -88 -490 -282 -583 -80 -38 -144 -49
-286 -49 -64 0 -123 -2 -131 -5 -11 -4 -13 -191 -12 -1063 l1 -1057 754 3
c709 3 869 8 1064 33 203 26 322 50 540 108 121 33 316 113 445 184 341 185
599 469 753 828 105 246 173 569 180 854 l2 110 -365 0 -365 0 0 590 0 590
145 0 145 0 5 -435 5 -435 200 -7 c110 -4 206 -5 214 -2 16 5 9 103 -20 269
-114 636 -428 1086 -949 1357 -309 161 -635 248 -1095 292 -167 16 -1644 34
-1657 20z m1582 -1204 c0 -147 0 -150 -23 -155 -12 -3 -103 -5 -202 -3 l-180
3 -3 -62 -3 -63 190 0 c225 0 203 18 199 -170 l-3 -125 -192 -3 -193 -2 0 -75
0 -75 210 0 c191 0 211 -2 218 -17 4 -10 7 -79 7 -153 l0 -135 -370 0 -370 0
2 590 c1 325 2 591 2 593 1 1 161 2 356 2 l355 0 0 -150z m952 85 c10 -33 23
-76 28 -95 10 -35 21 -73 79 -267 17 -57 45 -149 62 -205 17 -57 34 -114 39
-128 7 -21 45 -146 81 -265 4 -16 17 -57 28 -89 11 -33 18 -63 15 -68 -9 -14
-300 -10 -311 5 -5 6 -15 30 -21 52 -6 22 -19 67 -29 100 l-18 60 -186 3 -186
2 -22 -82 c-13 -46 -29 -98 -37 -116 l-14 -33 -152 3 -153 3 3 30 c1 17 6 39
11 50 5 11 19 54 31 95 13 41 31 102 42 135 10 33 22 74 27 90 38 126 74 244
81 265 4 14 18 59 30 100 12 41 25 86 30 100 4 14 13 43 19 65 6 22 20 69 31
104 11 35 20 68 20 71 0 4 7 24 15 44 l15 36 212 -2 211 -3 19 -60z m-632
-1717 c0 -10 19 -12 70 -10 46 2 70 0 70 -7 0 -6 18 -11 40 -11 22 0 40 -4 40
-10 0 -5 9 -10 20 -10 11 0 20 -6 20 -14 0 -9 8 -12 25 -8 18 3 31 -2 44 -17
10 -11 24 -21 30 -21 17 0 41 -25 41 -42 0 -8 9 -20 20 -28 17 -12 20 -26 20
-87 0 -42 -4 -73 -10 -73 -5 0 -10 -7 -10 -16 0 -18 -23 -44 -39 -44 -6 0 -8
-6 -5 -14 6 -15 -76 -106 -94 -106 -5 0 -24 -14 -41 -31 -18 -17 -39 -28 -47
-25 -8 3 -14 -1 -14 -10 0 -11 -6 -15 -20 -11 -14 3 -20 0 -20 -10 0 -10 -6
-14 -20 -10 -14 3 -20 0 -20 -10 0 -10 -6 -14 -20 -10 -14 3 -20 0 -20 -10 0
-11 -8 -14 -30 -11 -21 3 -30 0 -30 -10 0 -10 -9 -13 -30 -10 -21 3 -30 0 -30
-10 0 -10 -10 -13 -40 -10 -29 2 -40 0 -40 -10 0 -14 4 -14 -255 -14 -237 -1
-275 1 -275 11 0 6 -13 11 -30 11 -16 0 -30 5 -30 10 0 6 -7 10 -16 10 -18 0
-44 23 -44 39 0 6 -6 8 -14 5 -22 -9 -126 99 -126 131 0 14 -4 25 -10 25 -6 0
-10 28 -10 65 0 37 4 65 10 65 6 0 10 12 10 26 0 26 20 54 39 54 6 0 8 7 5 15
-6 15 37 65 56 65 5 0 10 -7 10 -16 0 -8 4 -13 10 -9 5 3 7 12 4 20 -8 19 22
49 41 41 8 -3 15 -1 15 5 0 16 26 39 44 39 9 0 16 5 16 11 0 7 12 10 30 7 18
-3 35 1 41 9 6 7 20 13 30 13 11 0 19 5 19 11 0 6 9 9 20 6 11 -3 27 2 35 10
11 10 30 14 60 11 31 -2 45 1 45 9 0 8 13 13 30 13 17 0 30 5 30 10 0 6 65 10
175 10 133 0 175 -3 175 -12z"/>
<path d="M7172 4048 c-5 -18 -20 -67 -32 -108 -12 -41 -26 -88 -31 -104 -5
-16 -9 -40 -9 -52 0 -23 2 -24 88 -24 49 0 91 2 94 5 3 3 -6 43 -19 88 -14 45
-34 115 -46 155 -11 39 -24 72 -28 72 -4 0 -12 -15 -17 -32z"/>
<path d="M7105 2530 c3 -5 8 -10 11 -10 2 0 4 5 4 10 0 6 -5 10 -11 10 -5 0
-7 -4 -4 -10z"/>
<path d="M7185 2441 c-3 -5 -1 -12 5 -16 5 -3 10 1 10 9 0 18 -6 21 -15 7z"/>
<path d="M5929 2403 c-13 -16 -12 -17 4 -4 16 13 21 21 13 21 -2 0 -10 -8 -17
-17z"/>
<path d="M7185 2300 c-3 -5 -1 -10 4 -10 6 0 11 5 11 10 0 6 -2 10 -4 10 -3 0
-8 -4 -11 -10z"/>
<path d="M5870 2289 c0 -5 5 -7 10 -4 6 3 10 8 10 11 0 2 -4 4 -10 4 -5 0 -10
-5 -10 -11z"/>
<path d="M5870 2160 c0 -5 5 -10 11 -10 5 0 7 5 4 10 -3 6 -8 10 -11 10 -2 0
-4 -4 -4 -10z"/>
<path d="M5910 2085 c14 -16 26 -32 28 -34 1 -2 4 -2 7 1 3 2 -10 18 -28 34
l-32 29 25 -30z"/>
<path d="M3745 4450 c-204 -50 -363 -172 -445 -345 -49 -104 -64 -169 -63
-280 1 -162 58 -306 166 -422 340 -364 937 -212 1068 272 27 100 23 244 -10
345 -61 191 -221 351 -411 411 -74 24 -242 34 -305 19z"/>
<path d="M4887 4113 c-4 -3 -7 -134 -7 -290 l0 -283 130 0 c176 0 216 18 264
120 18 38 21 63 20 170 0 135 -9 169 -59 229 -37 43 -105 61 -235 61 -59 0
-110 -3 -113 -7z"/>
<path d="M3368 2914 c-5 -4 -8 -412 -8 -906 l0 -898 503 2 502 3 3 898 2 897
-447 0 c-247 0 -470 3 -498 6 -27 3 -53 3 -57 -2z"/>
</g>
</svg>
