<?xml version="1.0" standalone="no"?>
<!DOCTYPE svg PUBLIC "-//W3C//DTD SVG 20010904//EN"
 "http://www.w3.org/TR/2001/REC-SVG-20010904/DTD/svg10.dtd">
<svg version="1.0" xmlns="http://www.w3.org/2000/svg"
 width="1200.000000pt" height="660.000000pt" viewBox="0 0 1200.000000 660.000000"
 preserveAspectRatio="xMidYMid meet">
<metadata>
Created by potrace 1.13, written by Peter Selinger 2001-2015
</metadata>
<g transform="translate(0.000000,660.000000) scale(0.100000,-0.100000)"
fill="#000000" stroke="none">
<path d="M1177 5876 c-3 -8 -23 -18 -44 -22 -115 -20 -295 -119 -407 -223 -50
-47 -149 -175 -166 -214 -6 -12 -14 -29 -19 -37 -35 -55 -86 -208 -96 -286
-11 -84 -8 -3552 3 -3614 10 -55 16 -75 55 -180 50 -137 156 -279 281 -380
113 -90 279 -170 381 -185 28 -3 60 -13 72 -21 33 -21 3535 -21 3552 0 7 8 40
17 74 21 118 14 312 112 435 221 64 56 160 180 197 254 14 30 31 63 36 73 28
53 58 183 67 292 14 174 16 3307 2 3455 -6 63 -20 144 -31 180 -53 171 -183
365 -310 465 -86 67 -200 135 -226 135 -10 0 -28 7 -40 15 -12 8 -44 20 -71
26 -28 6 -56 17 -63 25 -18 21 -3674 21 -3682 0z m2141 -955 c62 -32 107 -94
113 -156 5 -51 -12 -124 -30 -129 -9 -3 -337 -6 -729 -8 -505 -1 -715 1 -723
9 -12 12 -3 89 12 99 5 3 9 15 9 28 0 12 9 32 20 44 11 12 20 25 20 31 0 5 21
22 48 39 102 64 56 60 665 61 530 1 560 0 595 -18z m477 9 c3 -5 23 -10 44
-10 36 0 80 -11 126 -30 11 -5 38 -14 60 -22 49 -15 152 -76 223 -130 48 -37
172 -168 172 -182 0 -3 18 -33 40 -67 22 -34 40 -68 40 -75 0 -8 9 -28 20 -46
11 -18 20 -47 20 -65 0 -17 4 -34 8 -37 23 -14 33 -118 29 -286 -5 -178 -12
-246 -28 -256 -5 -3 -9 -19 -9 -35 0 -17 -9 -49 -20 -71 -11 -23 -20 -48 -20
-56 0 -8 -10 -33 -21 -56 -12 -22 -26 -49 -31 -60 -34 -66 -122 -204 -138
-216 -4 -3 -9 -11 -11 -17 -2 -7 -52 -62 -112 -122 -208 -211 -460 -348 -727
-397 -224 -41 -250 -31 -220 78 15 53 20 55 225 88 33 5 92 21 130 36 39 14
84 31 100 38 17 6 43 19 58 29 14 9 29 17 32 17 9 0 155 100 189 129 89 77
125 114 186 189 66 82 87 115 140 222 49 100 63 135 71 175 4 22 14 65 23 95
11 37 16 97 16 185 0 160 -20 246 -93 390 -19 38 -32 60 -38 65 -3 3 -23 27
-44 55 -50 66 -189 185 -217 185 -7 0 -24 9 -38 20 -14 11 -32 20 -41 20 -9 0
-31 8 -50 17 -19 9 -54 20 -79 24 -217 34 -215 33 -205 88 4 20 13 51 20 69
l14 32 75 0 c41 0 78 -4 81 -10z m-80 -310 c22 -5 58 -13 80 -18 117 -25 271
-134 352 -247 25 -35 62 -109 92 -184 19 -48 21 -73 21 -227 0 -150 -3 -178
-20 -219 -11 -26 -20 -55 -20 -66 0 -10 -9 -33 -20 -51 -11 -18 -20 -39 -20
-46 0 -22 -127 -204 -183 -262 -77 -81 -186 -161 -285 -210 -48 -24 -95 -47
-106 -52 -25 -13 -136 -38 -224 -51 -62 -9 -75 -8 -88 5 -11 11 -13 21 -5 39
5 13 13 41 16 62 3 21 11 40 18 41 7 2 39 8 72 14 121 21 187 45 300 107 106
58 242 197 307 312 77 141 90 189 92 348 1 127 -1 146 -23 200 -49 121 -146
233 -246 286 -54 28 -159 60 -220 68 -46 6 -50 8 -53 35 -5 42 6 93 24 111 17
17 77 19 139 5z m-346 -155 c9 -4 11 -13 6 -28 -3 -12 -15 -71 -26 -132 -10
-60 -23 -132 -29 -160 -32 -167 -43 -226 -50 -280 -4 -33 -14 -94 -23 -135 -9
-41 -25 -131 -37 -200 -12 -69 -30 -168 -41 -220 -10 -52 -19 -109 -19 -127 0
-17 -4 -42 -9 -55 -5 -14 -14 -67 -20 -119 -7 -52 -18 -116 -26 -143 -8 -27
-15 -67 -15 -87 0 -21 -9 -77 -20 -124 -11 -47 -20 -101 -20 -120 0 -19 -5
-37 -12 -41 -7 -4 -333 -8 -726 -9 -676 -1 -714 0 -723 17 -10 18 -3 70 26
208 8 36 16 83 20 105 8 58 44 259 60 335 8 36 17 90 20 120 3 30 13 84 20
120 14 63 33 172 60 335 7 44 23 134 34 200 12 66 26 145 31 175 4 30 18 108
29 174 12 65 21 129 21 142 0 13 8 32 18 42 16 16 62 17 727 14 391 -1 716 -5
724 -7z m304 -166 c87 -35 99 -42 151 -90 31 -28 65 -74 86 -114 l35 -68 -1
-141 0 -141 -38 -78 c-98 -202 -283 -344 -486 -371 -63 -9 -74 1 -71 65 3 70
13 86 58 92 135 16 268 115 339 251 35 67 38 76 38 161 0 81 -3 95 -28 138
-16 26 -42 62 -59 78 -34 35 -124 79 -159 79 -38 0 -46 15 -36 68 6 26 12 57
14 70 4 19 10 22 55 22 28 0 73 -9 102 -21z m-130 -303 c73 -30 110 -119 89
-212 -18 -78 -116 -171 -186 -176 -45 -3 -58 13 -44 56 6 17 18 83 28 146 34
212 38 218 113 186z m1008 -1526 c21 0 39 -4 39 -10 0 -5 7 -10 15 -10 20 0
65 -45 65 -65 0 -8 5 -15 10 -15 6 0 10 -13 10 -30 0 -16 5 -30 10 -30 6 0 10
-48 10 -125 0 -77 -4 -125 -10 -125 -5 0 -10 -16 -10 -36 0 -37 -10 -53 -47
-72 -14 -8 -20 -18 -16 -32 3 -11 0 -20 -6 -20 -6 0 -11 -7 -11 -16 0 -18 -23
-44 -39 -44 -6 0 -8 -6 -5 -14 7 -18 -101 -129 -119 -123 -7 2 -25 -2 -40 -10
-16 -8 -43 -14 -60 -13 -46 3 -55 0 -32 -10 19 -8 19 -9 -2 -9 -13 -1 -23 -5
-23 -11 0 -5 -18 -10 -40 -10 -22 0 -40 -4 -40 -10 0 -6 -32 -10 -75 -10 -43
0 -75 4 -75 10 0 6 -18 10 -40 10 -22 0 -40 5 -40 10 0 6 -7 10 -15 10 -8 0
-26 10 -41 22 -16 15 -35 22 -55 20 l-29 -4 0 86 c0 51 4 86 10 86 6 0 10 10
10 21 0 16 5 20 20 16 11 -3 23 -1 26 4 3 5 -2 9 -10 9 -9 0 -16 5 -16 10 0 6
-10 10 -22 11 -13 0 -17 3 -10 6 6 2 12 11 12 20 0 17 24 43 39 43 6 0 8 7 5
15 -6 15 17 45 35 45 6 0 8 6 5 14 -8 20 182 210 202 202 8 -3 14 -1 14 5 0
18 51 61 65 55 8 -3 15 -1 15 5 0 16 26 39 44 39 9 0 16 5 16 10 0 6 9 10 20
10 11 0 20 5 20 10 0 6 9 10 20 10 11 0 20 5 20 10 0 6 9 10 20 10 11 0 20 5
20 10 0 6 18 10 40 10 25 0 40 5 41 13 0 10 2 10 6 0 2 -8 22 -13 44 -13z
m-1557 -156 c10 -25 7 -66 -8 -115 -8 -25 -19 -86 -25 -135 -18 -139 -43 -228
-78 -278 -36 -51 -104 -104 -142 -112 -14 -3 -34 -9 -43 -15 -28 -15 -1049
-12 -1099 4 -65 19 -122 76 -137 133 -6 27 -10 60 -8 74 3 14 9 54 14 90 31
201 57 328 70 348 l14 22 718 0 c645 0 718 -2 724 -16z"/>
<path d="M4498 2453 c7 -3 16 -2 19 1 4 3 -2 6 -13 5 -11 0 -14 -3 -6 -6z"/>
<path d="M4606 2421 c-4 -5 -2 -12 3 -15 5 -4 12 -2 15 3 4 5 2 12 -3 15 -5 4
-12 2 -15 -3z"/>
<path d="M4645 2370 c3 -5 8 -10 11 -10 2 0 4 5 4 10 0 6 -5 10 -11 10 -5 0
-7 -4 -4 -10z"/>
<path d="M3873 1800 c0 -47 2 -66 4 -42 2 23 2 61 0 85 -2 23 -4 4 -4 -43z"/>
<path d="M3990 1680 c-24 -8 -23 -8 8 -9 20 -1 31 3 27 9 -3 6 -7 10 -8 9 -1
-1 -13 -5 -27 -9z"/>
<path d="M4050 1660 c0 -5 5 -10 11 -10 5 0 7 5 4 10 -3 6 -8 10 -11 10 -2 0
-4 -4 -4 -10z"/>
<path d="M4205 1660 c-3 -5 -1 -10 4 -10 6 0 11 5 11 10 0 6 -2 10 -4 10 -3 0
-8 -4 -11 -10z"/>
<path d="M2185 2116 c-63 -29 -95 -77 -95 -143 0 -51 47 -93 104 -93 78 0 158
95 141 169 -13 60 -90 95 -150 67z"/>
<path d="M10187 5389 c-90 -22 -157 -82 -157 -142 0 -12 -9 -38 -19 -58 -11
-20 -22 -68 -26 -115 -4 -43 -12 -84 -17 -91 -9 -11 -4 -63 21 -218 4 -27 16
-76 26 -108 19 -57 19 -58 -3 -102 -12 -25 -22 -54 -22 -65 0 -29 -35 -60 -67
-60 -29 0 -109 -27 -131 -43 -38 -29 -55 -142 -26 -171 23 -23 485 -24 504 -1
11 13 16 13 34 2 20 -13 54 -13 556 -10 14 1 97 0 185 0 153 0 286 12 337 32
36 14 122 96 156 148 17 27 34 69 37 96 5 30 12 47 21 47 20 0 20 185 0 193
-7 3 -17 22 -21 43 -20 107 -126 263 -226 333 -19 13 -52 46 -73 72 -22 27
-46 49 -54 49 -8 0 -30 10 -50 22 -34 21 -35 21 -91 3 -75 -25 -89 -37 -72
-67 7 -13 32 -45 57 -73 l45 -50 77 0 c70 0 81 -3 124 -33 146 -101 226 -307
183 -472 -29 -114 -82 -178 -164 -200 -61 -16 -71 -2 -57 83 17 108 -44 316
-117 397 -78 87 -155 105 -201 48 -15 -18 -31 -38 -36 -45 -16 -19 -82 -25
-125 -10 -45 15 -64 45 -73 111 -3 22 -11 50 -18 61 -8 11 -14 29 -14 40 0 46
-33 116 -66 143 -19 15 -34 35 -34 46 0 35 -52 116 -79 123 -14 3 -34 13 -45
22 -13 12 -41 16 -105 17 -47 1 -97 4 -111 7 -14 3 -42 2 -63 -4z m53 -183 c0
-15 -13 -33 -37 -52 l-36 -27 28 -23 29 -23 -19 -35 c-34 -63 -54 -38 -53 65
1 72 2 76 32 97 40 28 56 28 56 -2z m203 -12 c29 -28 35 -39 28 -53 -5 -9 -7
-35 -5 -57 4 -27 1 -45 -10 -59 -16 -20 -16 -20 -41 8 -32 35 -32 51 0 65 33
15 32 29 -5 50 -24 13 -30 24 -30 50 0 42 16 41 63 -4z m-98 2 c13 -20 14 -29
5 -46 -7 -12 -9 -37 -6 -55 8 -43 -1 -65 -29 -65 -48 0 -50 5 -46 93 2 46 8
85 15 89 21 14 46 8 61 -16z m-81 -253 c-7 -20 -17 -29 -37 -31 -40 -5 -46 23
-11 59 25 26 30 28 43 14 11 -11 13 -21 5 -42z m142 26 c24 -27 9 -53 -35 -57
-28 -3 -31 -1 -31 25 0 52 33 68 66 32z m-49 -95 c16 -25 16 -27 -2 -40 -11
-8 -26 -12 -33 -9 -8 3 -29 5 -48 5 -27 0 -34 4 -34 19 0 41 11 51 56 51 36 0
47 -5 61 -26z m678 -224 c3 -5 1 -10 -4 -10 -6 0 -11 5 -11 10 0 6 2 10 4 10
3 0 8 -4 11 -10z m-655 -290 c0 -29 -25 -35 -48 -12 -24 24 -19 32 20 32 21 0
28 -5 28 -20z m-480 -20 c0 -5 -4 -10 -10 -10 -5 0 -10 5 -10 10 0 6 5 10 10
10 6 0 10 -4 10 -10z m100 -5 c0 -8 -9 -15 -20 -15 -11 0 -20 7 -20 15 0 8 9
15 20 15 11 0 20 -7 20 -15z m870 5 c13 -9 13 -11 0 -20 -21 -14 -40 -12 -40
3 0 26 16 33 40 17z m140 -14 c0 -16 -18 -31 -27 -22 -8 8 5 36 17 36 5 0 10
-6 10 -14z"/>
<path d="M8950 5110 c-58 -12 -171 -71 -219 -114 -54 -50 -103 -125 -133 -203
-18 -47 -22 -78 -22 -163 0 -100 2 -109 37 -181 61 -128 197 -232 337 -259 74
-15 240 -15 319 0 68 12 180 60 201 86 9 10 12 53 11 147 -3 158 4 181 56 197
53 17 62 28 39 46 -16 11 -59 14 -197 14 -98 0 -184 -3 -193 -6 -29 -11 -19
-42 17 -49 57 -12 64 -15 75 -41 7 -14 12 -73 12 -134 0 -97 -2 -112 -20 -130
-31 -31 -67 -41 -152 -42 -84 0 -124 14 -194 70 -155 122 -167 447 -21 600 17
17 35 32 39 32 5 0 22 10 38 21 24 18 42 21 117 22 78 0 95 -3 155 -32 51 -23
78 -44 108 -82 22 -28 40 -59 40 -70 0 -26 33 -42 54 -26 15 11 15 25 3 157
-11 128 -14 145 -31 148 -11 2 -29 -7 -43 -22 -27 -30 -40 -32 -63 -11 -10 9
-44 20 -76 25 -67 11 -241 11 -294 0z"/>
<path d="M6834 5095 c-11 -27 5 -45 45 -51 22 -3 49 -15 61 -26 20 -19 20 -26
18 -371 l-3 -352 -57 -28 c-59 -28 -72 -50 -40 -64 9 -4 111 -6 227 -3 176 4
210 7 213 20 1 9 -19 26 -55 45 -47 25 -59 36 -66 64 -4 18 -7 174 -5 347 l3
312 24 26 c15 16 41 29 63 32 46 8 66 27 48 49 -10 13 -50 15 -242 15 -194 0
-229 -2 -234 -15z"/>
<path d="M7435 5100 c-13 -22 7 -50 43 -60 82 -22 77 4 80 -385 2 -272 0 -350
-10 -363 -7 -8 -32 -24 -56 -34 -30 -14 -42 -25 -40 -36 3 -15 23 -17 164 -20
136 -2 163 0 167 12 7 16 3 19 -58 52 -26 14 -42 31 -47 50 -5 16 -8 141 -7
277 1 212 4 249 17 254 9 4 23 -5 36 -23 12 -16 64 -72 117 -125 53 -52 100
-103 105 -111 19 -34 372 -388 387 -388 49 0 47 -12 48 374 0 198 3 379 7 401
7 37 11 42 62 62 45 18 55 26 55 45 l0 23 -165 0 -165 0 0 -24 c0 -19 8 -27
34 -36 19 -6 44 -24 55 -39 19 -25 21 -44 24 -237 2 -117 -1 -209 -6 -209 -5
0 -37 31 -73 69 -68 73 -332 353 -410 433 l-46 48 -156 0 c-94 0 -158 -4 -162
-10z"/>
<path d="M6846 3788 c-13 -20 -15 -178 -19 -1141 l-3 -1118 24 -20 c22 -17 42
-19 179 -19 171 0 207 9 219 57 4 15 4 191 1 392 -4 218 -3 372 2 380 7 11 44
15 178 16 186 1 312 15 358 39 17 9 37 16 45 16 20 0 125 54 169 87 61 44 121
106 157 159 19 28 34 55 34 59 0 5 6 16 13 24 40 47 76 224 76 376 1 193 -30
313 -108 425 -77 112 -234 208 -391 242 -25 5 -65 13 -90 19 -87 19 -277 29
-552 29 -277 0 -278 0 -292 -22z m679 -329 c123 -13 188 -40 253 -107 65 -67
92 -146 92 -268 0 -202 -77 -329 -241 -394 -44 -18 -81 -23 -207 -27 -113 -4
-156 -2 -167 7 -13 11 -15 67 -15 396 0 308 3 385 13 396 16 15 107 14 272 -3z"/>
<path d="M8930 3220 c-121 -18 -252 -84 -349 -175 -55 -51 -140 -170 -167
-234 -80 -186 -122 -478 -94 -646 4 -27 13 -79 19 -115 39 -242 194 -449 401
-538 79 -33 236 -49 342 -34 130 18 206 55 316 154 55 50 75 47 83 -14 8 -52
32 -91 67 -107 13 -6 78 -11 146 -11 171 0 165 -8 142 198 -9 86 -21 193 -27
237 -5 45 -8 331 -7 658 3 569 3 579 -17 593 -16 12 -47 15 -151 12 -146 -3
-174 -14 -174 -68 0 -14 -6 -35 -14 -45 -13 -18 -16 -18 -57 16 -64 51 -90 66
-162 93 -74 28 -209 40 -297 26z m345 -383 c58 -30 135 -109 136 -138 4 -184
-3 -549 -11 -586 -29 -129 -108 -230 -219 -279 -103 -46 -242 -19 -324 63 -70
70 -110 161 -129 288 -15 109 -15 202 1 315 11 82 19 106 65 198 26 55 123
146 171 162 103 34 220 25 310 -23z"/>
<path d="M11133 3191 c-18 -12 -33 -26 -33 -33 -1 -7 -2 -265 -3 -573 -2 -552
-2 -561 -24 -605 -27 -57 -44 -73 -120 -109 -68 -33 -183 -48 -277 -37 -70 9
-139 53 -181 116 l-30 45 -3 585 -3 585 -22 17 c-19 15 -46 18 -179 18 -141 0
-160 -2 -177 -19 -17 -17 -18 -41 -15 -512 6 -706 6 -718 38 -819 60 -197 198
-322 396 -360 58 -11 242 -11 300 0 86 16 212 72 239 104 8 9 25 16 39 16 l25
0 -5 -157 c-5 -150 -7 -161 -35 -223 -36 -78 -79 -121 -153 -152 -51 -21 -68
-23 -245 -22 -149 0 -202 4 -247 17 -69 21 -122 22 -138 2 -25 -31 -75 -242
-65 -276 9 -26 69 -55 135 -63 30 -4 63 -15 74 -24 16 -15 48 -17 278 -17 226
0 261 2 271 16 7 9 30 19 52 23 110 21 306 154 351 239 49 94 64 131 90 222
l29 100 3 935 3 936 -21 19 c-19 18 -39 20 -169 23 -132 2 -149 1 -178 -17z"/>
</g>
</svg>
