<?xml version="1.0" standalone="no"?>
<!DOCTYPE svg PUBLIC "-//W3C//DTD SVG 20010904//EN"
 "http://www.w3.org/TR/2001/REC-SVG-20010904/DTD/svg10.dtd">
<svg version="1.0" xmlns="http://www.w3.org/2000/svg"
 width="1200.000000pt" height="660.000000pt" viewBox="0 0 1200.000000 660.000000"
 preserveAspectRatio="xMidYMid meet">
<metadata>
Created by potrace 1.13, written by Peter Selinger 2001-2015
</metadata>
<g transform="translate(0.000000,660.000000) scale(0.100000,-0.100000)"
fill="#000000" stroke="none">
<path d="M3444 6211 c-159 -45 -300 -159 -372 -299 -72 -141 -67 69 -67 -2617
0 -2329 1 -2432 18 -2489 33 -107 76 -177 157 -259 62 -62 94 -85 161 -116 46
-21 109 -44 139 -51 68 -14 4950 -15 5028 0 220 41 412 217 466 426 14 55 16
315 17 2495 0 2693 5 2482 -63 2613 -46 88 -175 214 -259 254 -140 67 71 62
-2674 61 -2344 0 -2494 -1 -2551 -18z m5011 -205 c124 -33 223 -113 278 -226
l32 -65 7 -1695 c4 -932 4 -2019 0 -2415 l-7 -720 -27 -58 c-58 -123 -180
-215 -315 -237 -64 -11 -1627 -11 -3648 -1 l-1250 6 -58 27 c-80 38 -160 117
-200 197 l-32 66 0 2415 0 2415 32 68 c52 110 148 188 272 222 70 20 4844 21
4916 1z"/>
<path d="M3500 5928 c-66 -26 -145 -102 -180 -173 l-24 -50 -4 -2383 c-3
-2182 -2 -2388 13 -2435 32 -103 114 -185 220 -222 44 -15 109 -18 533 -22
326 -4 482 -2 482 5 0 6 -21 26 -47 45 -83 61 -181 170 -213 238 l-30 64 0
1026 c0 1128 -4 1064 62 1125 50 48 76 57 158 58 112 0 177 -40 216 -134 13
-30 14 -106 8 -520 -6 -451 -6 -487 10 -503 13 -13 22 -15 37 -7 18 10 19 25
19 344 l0 333 81 24 c59 17 91 33 114 57 18 17 35 32 38 32 3 0 49 -57 103
-126 55 -69 147 -187 206 -261 62 -77 112 -151 118 -171 6 -24 10 -318 10
-826 -1 -434 3 -792 7 -795 4 -3 688 -4 1518 -1 l1510 5 63 34 c60 32 114 86
141 139 42 81 41 -4 41 2477 l0 2360 -22 65 c-31 87 -108 168 -191 198 l-58
22 -2442 -1 -2442 0 -55 -21z m4785 -766 c16 -10 40 -33 52 -51 39 -58 52
-178 22 -197 -15 -9 -182 -54 -201 -54 -14 0 -18 8 -18 38 0 21 -6 47 -14 57
-12 17 -18 17 -73 6 -35 -8 -73 -24 -89 -38 l-29 -25 0 -190 c0 -187 0 -190
24 -209 28 -23 78 -25 126 -5 40 17 51 35 60 99 9 55 10 57 127 87 118 31 122
28 114 -67 -10 -117 -59 -208 -134 -247 -15 -8 -87 -32 -161 -55 -197 -61
-308 -53 -369 24 -39 50 -44 88 -40 350 3 234 4 253 25 291 23 44 85 104 130
127 25 13 219 68 283 81 44 8 133 -4 165 -22z m-774 -231 c82 -51 83 -59 89
-426 3 -176 2 -324 -1 -328 -11 -14 -202 -67 -235 -65 -18 1 -43 -7 -61 -20
-60 -42 -121 -62 -194 -62 -144 0 -220 79 -221 229 -1 158 57 219 292 311 134
52 172 90 156 155 -5 21 -12 25 -41 25 -72 0 -135 -45 -135 -96 0 -18 -6 -39
-14 -47 -18 -18 -204 -70 -218 -61 -18 12 -4 164 19 209 26 50 75 96 131 124
66 33 249 79 323 80 56 1 72 -3 110 -28z m-616 -241 l0 -113 -47 -2 c-56 -3
-100 -27 -142 -78 l-31 -39 0 -273 c0 -169 -4 -278 -10 -284 -13 -13 -179 -59
-230 -64 -20 -2 -20 5 -23 411 l-2 412 22 10 c50 22 146 44 193 45 39 1 62 8
95 31 25 17 65 36 90 43 25 8 50 15 55 16 26 8 30 -7 30 -115z m-2762 -76 c-2
-10 -6 -484 -9 -1052 l-7 -1032 -66 -19 c-156 -46 -183 -52 -189 -46 -4 4 -9
473 -10 1043 l-4 1036 24 18 c12 9 35 18 51 18 15 0 35 4 45 9 27 14 146 50
157 47 6 -2 9 -12 8 -22z m2080 -29 c47 -20 100 -83 115 -139 16 -62 16 -250
0 -263 -15 -11 -74 -29 -238 -73 -233 -63 -210 -48 -210 -136 0 -67 2 -75 24
-90 21 -13 33 -14 80 -4 82 17 100 35 106 111 6 71 -7 62 139 99 40 10 76 21
79 24 3 3 11 1 19 -5 16 -14 17 -112 1 -177 -25 -102 -100 -184 -191 -212 -23
-7 -53 -16 -67 -20 -14 -4 -45 -13 -70 -20 -25 -7 -55 -16 -68 -21 -37 -14
-93 -10 -150 10 -73 27 -99 48 -131 105 -20 34 -21 53 -21 281 0 233 1 248 22
293 44 93 128 154 258 187 36 9 79 20 95 25 17 5 47 13 68 19 21 5 41 12 44
15 11 11 60 6 96 -9z m-813 -120 l0 -95 28 6 c15 3 48 13 74 21 71 23 78 16
78 -70 0 -48 -5 -78 -12 -85 -7 -6 -48 -20 -90 -33 l-78 -22 0 -222 c0 -158 3
-224 12 -233 13 -13 50 -16 62 -5 3 4 23 12 43 19 52 18 63 6 63 -72 0 -71 -8
-84 -73 -113 -99 -45 -122 -51 -187 -51 -78 0 -119 17 -152 63 -22 31 -23 40
-26 285 l-3 254 -50 -7 -49 -7 0 85 c0 80 1 86 23 92 80 23 77 18 77 121 0 85
2 94 22 108 12 9 31 16 42 16 19 0 69 14 111 31 11 4 35 8 53 8 l32 1 0 -95z
m-515 -264 c50 -23 87 -64 109 -119 14 -36 16 -88 16 -352 l0 -310 -27 -11
c-47 -18 -177 -52 -203 -53 l-25 -1 -3 301 c-2 286 -3 302 -22 319 -18 16 -25
17 -63 6 -55 -17 -100 -52 -121 -94 -14 -30 -16 -76 -16 -315 0 -298 1 -294
-50 -305 -14 -3 -62 -15 -108 -27 -45 -13 -85 -21 -87 -18 -2 2 -5 190 -5 417
-2 445 -4 424 50 437 14 3 55 15 91 25 80 23 93 23 109 4 11 -13 18 -10 51 19
99 85 221 116 304 77z m2621 -671 c8 0 14 5 14 10 0 14 143 13 158 -2 7 -7 33
-11 62 -9 41 2 50 -1 50 -14 0 -9 5 -13 11 -10 13 9 79 -22 86 -41 3 -8 13
-14 22 -14 21 0 81 -63 81 -85 0 -8 3 -15 8 -15 11 0 34 -58 27 -70 -3 -5 1
-10 11 -10 11 0 15 -6 11 -20 -3 -10 2 -25 10 -31 8 -7 12 -21 10 -30 -3 -10
2 -24 10 -30 8 -7 13 -25 11 -39 -1 -15 3 -35 11 -44 8 -9 12 -33 9 -61 -2
-33 1 -45 10 -45 10 0 13 -17 10 -70 -2 -51 0 -70 10 -70 9 0 12 -90 12 -415
0 -325 -3 -415 -12 -415 -9 0 -12 -17 -10 -59 3 -52 1 -61 -19 -75 -19 -13
-22 -24 -21 -59 2 -28 -2 -48 -11 -56 -8 -6 -12 -22 -10 -36 3 -14 -1 -31 -10
-40 -9 -9 -13 -23 -10 -31 4 -10 -4 -25 -21 -41 -14 -13 -24 -29 -20 -34 3 -5
-5 -32 -18 -59 -17 -38 -31 -53 -56 -62 -27 -10 -30 -14 -15 -19 15 -7 15 -8
-4 -8 -13 -1 -23 -7 -23 -14 0 -7 -6 -25 -12 -39 -10 -21 -24 -29 -70 -38 -42
-9 -58 -17 -58 -29 0 -9 -18 -25 -42 -36 -41 -19 -62 -23 -118 -26 -14 -1 -30
-6 -37 -11 -7 -5 -27 -9 -45 -8 -48 3 -57 -1 -23 -10 l30 -8 -32 -1 c-18 0
-33 -6 -33 -12 0 -11 -30 -12 -305 -12 -257 0 -276 1 -292 14 -8 7 -33 12 -54
10 -27 -2 -39 1 -37 9 2 7 -11 13 -32 15 -102 8 -170 29 -170 52 0 7 -7 10
-15 7 -14 -6 -49 19 -39 28 2 3 -15 11 -38 19 -47 15 -88 49 -88 73 0 8 -8 17
-19 21 -32 10 -64 43 -57 60 3 9 0 15 -10 15 -11 0 -15 6 -11 20 3 10 -1 24
-9 31 -8 6 -14 17 -14 25 0 7 -9 16 -21 19 -14 5 -19 13 -16 26 3 10 -2 24
-10 30 -8 7 -13 25 -11 39 1 15 -4 35 -11 44 -7 9 -11 27 -9 41 3 14 -1 30 -8
36 -8 6 -14 20 -14 30 0 11 -5 19 -11 19 -6 0 -9 9 -6 20 3 10 -1 25 -9 31 -8
7 -14 26 -12 43 1 17 -4 41 -10 53 -7 12 -11 35 -10 50 1 15 -4 38 -11 51 -7
13 -11 33 -9 45 1 12 -4 37 -11 54 -7 18 -11 42 -8 53 3 10 -2 25 -9 31 -8 7
-14 19 -13 28 1 9 -3 36 -10 60 -7 24 -10 52 -8 63 3 10 -1 25 -9 33 -8 8 -13
27 -12 42 1 15 -4 38 -11 51 -7 13 -11 43 -10 68 2 24 -2 49 -9 56 -15 15 -17
158 -2 158 6 0 10 13 10 29 0 16 6 34 14 41 8 6 12 18 10 25 -3 8 4 24 15 36
12 13 21 27 21 31 0 13 86 98 99 98 6 0 23 12 38 28 29 29 106 72 128 72 7 0
15 6 18 14 7 18 113 70 126 62 5 -4 12 -2 16 4 9 15 73 42 84 36 5 -4 12 -2
16 3 6 11 63 41 77 41 4 0 28 9 53 21 24 11 48 18 53 15 6 -3 15 1 22 9 8 9
26 15 47 13 20 -1 38 3 43 11 5 8 18 12 34 9 15 -3 31 0 37 9 8 9 28 13 56 11
28 -1 47 3 52 11 5 8 23 12 44 10 20 -2 42 2 49 9 9 9 15 9 26 0 10 -9 15 -9
21 1 5 8 23 12 44 10 20 -2 42 2 49 9 9 9 15 9 26 0 10 -9 15 -9 21 1 6 8 30
12 75 10 42 -1 71 2 79 10 7 7 13 8 15 1 2 -5 10 -10 18 -10z m-3321 -1250 l0
-155 -95 -27 c-135 -39 -190 -45 -227 -23 -51 30 -63 62 -63 168 0 109 -12 97
140 137 47 12 112 31 145 40 105 32 100 39 100 -140z m5 -379 c0 -107 -3 -151
-12 -158 -7 -5 -64 -22 -125 -37 -132 -33 -182 -31 -222 8 -24 24 -26 34 -29
129 -3 77 0 106 10 114 7 6 67 25 133 42 66 17 134 35 150 40 17 5 45 10 63
10 l32 1 0 -149z m0 -380 c0 -107 -4 -151 -12 -158 -24 -19 -257 -75 -283 -69
-14 4 -40 19 -58 35 -32 29 -32 31 -35 131 -2 56 0 106 5 111 13 13 319 97
356 98 l27 1 0 -149z"/>
<path d="M7263 4415 c-72 -36 -103 -70 -103 -112 0 -27 5 -35 25 -43 37 -14
82 -1 121 35 31 29 34 38 34 89 0 65 -4 67 -77 31z"/>
<path d="M5962 4356 c-55 -19 -82 -52 -82 -98 0 -45 -7 -44 100 -15 30 8 67
17 83 21 24 6 27 11 27 44 0 21 -5 43 -12 50 -15 15 -73 14 -116 -2z"/>
</g>
</svg>
