<?xml version="1.0" standalone="no"?>
<!DOCTYPE svg PUBLIC "-//W3C//DTD SVG 20010904//EN"
 "http://www.w3.org/TR/2001/REC-SVG-20010904/DTD/svg10.dtd">
<svg version="1.0" xmlns="http://www.w3.org/2000/svg"
 width="1200.000000pt" height="660.000000pt" viewBox="0 0 1200.000000 660.000000"
 preserveAspectRatio="xMidYMid meet">
<metadata>
Created by potrace 1.13, written by Peter Selinger 2001-2015
</metadata>
<g transform="translate(0.000000,660.000000) scale(0.100000,-0.100000)"
fill="#000000" stroke="none">
<path d="M9165 6103 c-87 -13 -200 -49 -282 -89 -156 -75 -261 -200 -318 -378
-41 -129 -55 -346 -34 -547 26 -259 91 -390 224 -451 44 -20 64 -23 170 -22
217 2 393 70 526 203 115 115 165 230 176 408 l6 103 -24 -1 c-13 0 -96 -19
-184 -42 l-160 -42 -6 -90 c-8 -137 -45 -198 -136 -229 -63 -22 -94 -20 -133
7 -69 46 -89 136 -89 392 0 335 47 458 194 500 57 17 61 17 95 -1 46 -25 63
-63 68 -149 2 -38 7 -74 12 -78 4 -5 45 1 91 12 46 11 120 27 164 37 44 9 86
21 94 27 10 9 12 30 7 92 -11 123 -32 184 -90 251 -56 66 -112 87 -236 90 -58
1 -118 0 -135 -3z"/>
<path d="M7965 5814 c-341 -45 -567 -193 -629 -409 -20 -68 -31 -181 -18 -188
5 -4 36 0 68 8 181 43 234 55 248 55 16 0 21 15 30 92 12 103 94 170 210 172
53 1 60 -2 82 -29 33 -41 35 -152 3 -196 -20 -29 -129 -109 -147 -109 -5 0
-22 -6 -38 -14 -16 -8 -47 -22 -69 -31 -234 -100 -315 -155 -383 -261 -45 -71
-64 -144 -66 -249 -3 -209 85 -338 246 -363 100 -16 230 13 333 74 42 24 132
112 152 148 16 28 40 13 53 -33 6 -22 14 -42 19 -45 8 -5 319 69 329 79 3 2 0
22 -6 42 -26 83 -32 185 -32 568 -1 415 -5 464 -45 548 -23 48 -93 110 -142
125 -44 13 -154 22 -198 16z m15 -868 c0 -165 -20 -228 -95 -294 -43 -37 -104
-62 -155 -62 -65 0 -110 62 -110 152 1 96 51 168 160 226 73 38 131 71 155 88
42 29 45 21 45 -110z"/>
<path d="M7150 5628 c-79 -14 -164 -63 -225 -131 -31 -34 -66 -79 -76 -99 -11
-21 -24 -38 -29 -38 -6 0 -10 33 -10 75 0 41 -2 75 -5 75 -3 0 -38 -8 -78 -19
-39 -10 -116 -29 -169 -41 -54 -13 -99 -28 -99 -34 -5 -42 -5 -1357 0 -1360 6
-4 244 49 334 74 l37 11 0 425 c0 404 1 428 21 487 40 120 130 190 279 217 36
7 71 14 78 16 9 3 12 46 12 173 0 126 -3 170 -12 173 -7 3 -33 1 -58 -4z"/>
<path d="M2790 5401 c-73 -20 -228 -57 -277 -66 -18 -4 -33 -12 -34 -18 -3
-44 4 -2193 7 -2196 2 -3 62 9 132 27 70 17 153 37 185 44 33 7 62 20 66 28
12 24 8 2193 -4 2196 -5 1 -39 -6 -75 -15z"/>
<path d="M4660 5317 l-165 -42 -3 -157 -3 -158 -27 -6 c-98 -21 -128 -29 -139
-37 -15 -11 -19 -252 -5 -261 5 -3 44 4 87 14 44 11 82 17 85 14 3 -3 8 -216
11 -472 5 -410 8 -475 24 -532 10 -36 22 -68 27 -71 6 -4 24 -2 42 2 49 14
285 69 295 69 5 0 21 4 35 10 l26 9 -18 33 c-51 93 -62 212 -62 669 l0 377 93
21 c50 12 111 27 135 33 l42 11 0 111 c0 61 3 121 6 134 8 29 -11 29 -141 -3
-151 -37 -137 -50 -134 123 l3 147 -24 2 c-14 1 -99 -17 -190 -40z"/>
<path d="M5835 5310 c-200 -24 -373 -113 -473 -242 -57 -75 -78 -116 -111
-216 -41 -126 -55 -235 -56 -422 0 -227 28 -356 99 -460 37 -55 57 -73 121
-108 47 -26 57 -27 180 -26 111 0 143 4 220 27 227 68 373 191 433 362 22 63
48 232 38 242 -6 6 -80 -10 -266 -56 l-65 -16 -12 -67 c-7 -37 -19 -80 -27
-97 -32 -60 -108 -101 -192 -101 -46 0 -57 4 -87 33 -43 40 -57 86 -64 208
l-6 97 34 7 c19 4 90 20 159 36 69 17 162 39 208 49 45 11 121 29 170 41 48
11 106 25 129 31 l42 10 0 98 c1 246 -36 376 -134 476 -79 80 -195 112 -340
94z m44 -273 c44 -22 63 -73 65 -171 l1 -88 -135 -34 c-74 -18 -154 -38 -178
-43 -23 -6 -47 -11 -52 -11 -26 0 -3 164 32 235 33 65 66 94 138 118 29 10
105 7 129 -6z"/>
<path d="M3870 4850 c-69 -12 -157 -46 -211 -80 -49 -32 -159 -143 -159 -161
0 -5 -7 -9 -15 -9 -12 0 -15 13 -15 55 0 52 -1 55 -25 55 -13 0 -50 -7 -82
-15 -58 -16 -102 -26 -190 -45 -26 -6 -50 -16 -55 -23 -10 -16 -10 -938 0
-955 6 -9 21 -10 68 -1 45 8 76 8 129 -1 73 -13 95 -22 132 -54 13 -11 25 -17
29 -14 3 3 5 140 5 304 0 165 3 330 8 367 19 139 102 242 208 253 59 6 89 -9
114 -56 18 -32 19 -67 19 -528 0 -551 -5 -514 73 -494 23 6 85 20 137 32 52
12 112 26 133 31 l37 10 0 482 c0 595 -6 665 -69 760 -48 74 -155 109 -271 87z"/>
<path d="M3190 3534 c-40 -15 -101 -49 -114 -63 -8 -9 -24 -34 -37 -56 l-22
-40 0 -1125 -1 -1125 23 -70 c57 -175 165 -310 315 -390 143 -78 197 -85 639
-85 l367 0 -2 948 -3 947 -23 45 c-12 25 -37 61 -56 80 -27 28 -304 224 -376
265 -10 6 -26 17 -35 25 -9 8 -25 19 -35 25 -9 5 -58 38 -108 73 -50 34 -94
62 -98 62 -4 0 -5 -213 -3 -472 2 -260 0 -482 -4 -494 -7 -20 -45 -44 -70 -44
-7 0 -25 6 -40 13 -20 9 -28 22 -33 53 -3 22 -4 315 -2 650 l3 610 -24 47
c-27 53 -40 66 -96 97 -39 22 -134 36 -165 24z"/>
<path d="M2750 3030 c-105 -27 -235 -57 -305 -71 -66 -14 -79 -25 -94 -84 -17
-67 3 -130 59 -186 69 -69 130 -75 305 -29 39 10 86 21 106 24 21 4 42 13 48
20 8 9 11 67 9 177 l-3 164 -25 2 c-14 1 -59 -7 -100 -17z"/>
<path d="M2815 2530 c-16 -4 -122 -28 -234 -54 -112 -25 -206 -48 -209 -51 -3
-2 -11 -27 -18 -55 -17 -68 0 -138 47 -187 47 -48 82 -64 143 -65 57 -1 317
59 328 76 5 6 7 85 5 176 -2 180 -1 176 -62 160z"/>
<path d="M2690 1994 c-192 -45 -228 -53 -271 -60 -49 -8 -74 -50 -73 -124 1
-100 60 -176 156 -201 50 -14 53 -13 268 40 l105 26 0 175 c0 168 -1 175 -20
177 -11 0 -85 -14 -165 -33z"/>
<path d="M2270 505 c0 -32 3 -35 28 -35 42 0 46 10 15 42 -35 37 -43 35 -43
-7z"/>
<path d="M9687 509 c-24 -27 -21 -39 8 -39 20 0 25 5 25 24 0 33 -13 39 -33
15z"/>
</g>
</svg>
