<?xml version="1.0" standalone="no"?>
<!DOCTYPE svg PUBLIC "-//W3C//DTD SVG 20010904//EN"
 "http://www.w3.org/TR/2001/REC-SVG-20010904/DTD/svg10.dtd">
<svg version="1.0" xmlns="http://www.w3.org/2000/svg"
 width="1200.000000pt" height="660.000000pt" viewBox="0 0 1200.000000 660.000000"
 preserveAspectRatio="xMidYMid meet">
<metadata>
Created by potrace 1.13, written by Peter Selinger 2001-2015
</metadata>
<g transform="translate(0.000000,660.000000) scale(0.100000,-0.100000)"
fill="#000000" stroke="none">
<path d="M8995 6150 c-721 -5 -742 -6 -817 -27 -314 -89 -554 -315 -655 -618
-47 -140 -48 -151 -48 -735 l0 -555 670 3 c831 5 899 -1 1074 -86 71 -35 151
-115 186 -185 54 -111 52 -268 -5 -383 -51 -104 -180 -203 -297 -228 -17 -4
-36 -13 -42 -20 -9 -11 -1 -15 40 -20 172 -23 347 -135 412 -262 106 -211 17
-478 -198 -591 -175 -92 -244 -97 -1122 -88 -592 6 -714 5 -718 -7 -2 -7 -6
-444 -7 -971 l-3 -958 785 3 785 3 90 28 c364 113 609 388 681 764 16 81 17
282 18 2510 1 2009 -1 2424 -12 2428 -8 3 -28 4 -45 3 -18 -1 -365 -5 -772 -8z"/>
<path d="M2935 6135 c-340 -75 -602 -307 -711 -629 -55 -160 -53 -129 -54
-1443 -1 -1143 0 -1218 16 -1230 27 -20 259 -109 359 -137 153 -44 258 -59
425 -60 120 0 167 4 210 17 117 36 220 117 266 209 55 109 55 113 52 750 -2
440 0 590 9 599 9 9 111 10 417 4 224 -4 408 -10 410 -14 3 -4 1 -292 -4 -641
-8 -700 -6 -678 -75 -818 -89 -179 -293 -321 -547 -381 -108 -25 -137 -30
-213 -40 -333 -43 -835 -10 -1219 79 -49 11 -93 19 -98 18 -12 -4 -16 -1998
-3 -1998 6 -1 348 -1 760 0 696 1 756 2 837 20 326 71 590 308 695 625 30 88
41 149 49 255 4 52 8 1160 8 2462 l1 2368 -765 -1 c-594 -1 -778 -4 -825 -14z"/>
<path d="M5590 6135 c-310 -62 -571 -276 -688 -564 -60 -148 -63 -166 -72
-556 -10 -427 -12 -1045 -4 -1045 3 0 43 24 87 54 176 116 376 182 692 228
120 17 639 17 755 0 47 -7 117 -18 155 -23 39 -6 88 -14 110 -19 22 -5 69 -14
105 -21 80 -14 167 -36 180 -44 13 -8 14 -402 1 -409 -5 -3 -40 8 -77 25 -208
91 -278 113 -494 155 -112 22 -380 24 -470 5 -36 -8 -95 -27 -132 -42 -245
-101 -372 -303 -372 -594 0 -340 170 -555 504 -636 79 -19 361 -16 470 5 153
29 240 53 340 91 50 19 57 22 154 64 37 17 72 28 77 25 13 -7 12 -401 -1 -409
-13 -8 -100 -30 -180 -44 -36 -7 -83 -16 -105 -21 -39 -8 -95 -17 -265 -42
-119 -17 -636 -17 -760 0 -305 43 -563 131 -710 241 -30 23 -57 41 -60 41 -4
0 -7 -491 -7 -1090 l0 -1091 781 3 c727 3 786 5 846 22 155 45 300 123 409
222 112 101 229 290 266 429 46 174 45 101 45 2652 l0 2403 -757 -1 c-582 -1
-773 -4 -823 -14z"/>
<path d="M7940 3912 c-6 -2 -10 -89 -10 -228 l0 -224 284 0 284 0 53 28 c34
17 65 44 84 71 28 39 30 50 30 126 0 77 -2 87 -30 127 -17 23 -51 54 -75 68
-44 25 -49 25 -328 30 -155 3 -287 4 -292 2z"/>
<path d="M7934 3146 c-2 -12 -3 -122 -2 -246 l3 -225 300 -3 c259 -2 306 0
344 14 167 63 214 274 89 401 -67 68 -83 71 -426 76 -300 4 -302 4 -308 -17z"/>
</g>
</svg>
