<?xml version="1.0" standalone="no"?>
<!DOCTYPE svg PUBLIC "-//W3C//DTD SVG 20010904//EN"
 "http://www.w3.org/TR/2001/REC-SVG-20010904/DTD/svg10.dtd">
<svg version="1.0" xmlns="http://www.w3.org/2000/svg"
 width="1200.000000pt" height="660.000000pt" viewBox="0 0 1200.000000 660.000000"
 preserveAspectRatio="xMidYMid meet">
<metadata>
Created by potrace 1.13, written by Peter Selinger 2001-2015
</metadata>
<g transform="translate(0.000000,660.000000) scale(0.100000,-0.100000)"
fill="#000000" stroke="none">
<path d="M5913 6176 c-346 -66 -613 -313 -704 -651 -31 -114 -31 -326 0 -440
42 -156 110 -275 225 -393 142 -147 274 -215 496 -257 135 -26 254 -15 439 41
40 12 142 64 190 97 134 90 241 215 310 360 56 118 73 191 78 347 4 114 2 149
-16 224 -23 96 -80 227 -131 301 -116 169 -306 301 -510 356 -98 26 -279 33
-377 15z"/>
<path d="M8035 4630 c-478 -11 -636 -17 -1194 -46 l-113 -6 -70 -64 c-106 -97
-192 -153 -323 -209 -22 -9 -49 -21 -60 -26 -75 -33 -212 -58 -358 -66 -241
-12 -489 59 -698 200 l-66 45 -89 -9 c-368 -38 -864 -106 -1281 -175 -272 -44
-303 -51 -313 -65 -3 -4 -4 -92 -2 -196 l3 -188 2567 2 2567 2 0 403 0 403
-130 1 c-71 1 -269 -2 -440 -6z"/>
<path d="M7950 3494 c-512 -33 -811 -212 -875 -522 -25 -121 -16 -235 26 -352
105 -287 451 -440 995 -440 196 0 475 37 506 68 10 10 13 421 3 431 -2 2 -28
-8 -57 -22 -173 -83 -337 -107 -501 -72 -296 62 -398 288 -194 429 170 117
441 127 655 26 46 -22 88 -40 93 -40 6 0 8 89 7 217 l-3 217 -50 13 c-131 34
-440 58 -605 47z"/>
<path d="M3470 2836 c0 -429 3 -637 10 -641 6 -4 144 -3 307 1 l296 7 -4 226
c-3 143 0 228 6 231 5 3 87 -98 182 -225 l172 -230 341 -5 c188 -3 346 -3 350
0 5 3 -103 140 -241 304 -137 164 -249 303 -249 308 0 5 116 151 258 324 141
173 259 319 260 324 2 6 -127 10 -355 10 l-358 0 -176 -281 c-96 -155 -179
-280 -185 -278 -5 2 -9 113 -10 269 -1 146 -2 271 -3 278 -1 9 -68 12 -301 12
l-300 0 0 -634z"/>
<path d="M5278 2843 c-2 -346 -2 -631 0 -635 5 -11 1300 -10 1358 1 152 29
258 108 290 216 21 76 15 184 -14 241 -39 76 -97 112 -217 133 -115 21 -118
22 -109 30 5 4 34 13 64 20 219 53 323 214 264 412 -21 71 -87 138 -165 167
-98 36 -220 42 -858 42 l-609 0 -4 -627z m1013 322 c64 -34 88 -120 48 -176
-38 -54 -60 -59 -269 -59 l-190 0 0 118 c0 65 3 122 7 125 3 4 89 7 190 7 147
0 190 -3 214 -15z m14 -477 c38 -21 60 -59 60 -108 0 -49 -19 -82 -58 -106
-28 -16 -56 -19 -205 -22 -96 -2 -185 -1 -198 2 -24 6 -24 8 -24 125 0 65 3
121 7 125 4 4 93 6 198 4 154 -2 196 -6 220 -20z"/>
<path d="M4536 1434 c-30 -31 -35 -86 -11 -121 52 -74 178 -19 161 72 -14 71
-99 99 -150 49z"/>
<path d="M5340 1445 l-45 -12 -3 -406 -2 -407 65 0 65 0 0 208 c0 203 1 209
23 230 46 43 110 50 139 15 9 -12 14 -77 18 -232 l5 -216 65 0 65 0 3 220 c2
121 0 235 -3 253 -20 108 -157 145 -267 72 l-43 -29 -5 157 c-6 175 -2 168
-80 147z"/>
<path d="M2515 1423 c-16 -2 -47 -8 -69 -14 -36 -10 -38 -12 -33 -42 3 -18 10
-48 15 -67 6 -19 20 -71 32 -115 12 -44 25 -93 30 -110 13 -45 41 -143 64
-227 9 -32 23 -84 32 -115 9 -32 19 -71 23 -88 l7 -30 88 0 89 0 14 50 c28
104 36 131 43 155 4 14 13 43 19 65 6 22 41 145 77 274 64 225 66 235 48 248
-26 19 -124 13 -134 -7 -4 -8 -18 -58 -30 -110 -39 -175 -80 -345 -90 -376 -6
-17 -10 -37 -10 -45 0 -20 -21 -92 -25 -87 -3 3 -46 204 -65 303 -4 22 -18 87
-30 145 -13 58 -25 122 -27 143 -6 42 -23 54 -68 50z"/>
<path d="M9435 1215 c-5 -2 -29 -9 -52 -15 -23 -6 -55 -22 -71 -35 -39 -32
-46 -32 -57 8 -9 28 -14 32 -43 30 -18 0 -47 -7 -64 -14 -27 -11 -29 -15 -23
-43 4 -17 10 -141 14 -276 l6 -245 65 0 65 0 3 213 2 213 33 19 c41 25 105 26
123 3 10 -14 13 -69 14 -225 0 -233 1 -238 71 -238 82 0 79 -9 79 256 0 224
-1 238 -22 275 -25 45 -105 86 -143 74z"/>
<path d="M3186 1195 c-53 -19 -104 -70 -134 -135 -23 -49 -26 -68 -26 -165 0
-120 16 -173 66 -227 49 -51 84 -63 193 -62 84 0 108 3 148 23 51 25 56 39 31
89 -18 37 -22 37 -71 17 -19 -8 -63 -15 -97 -15 -71 0 -106 23 -125 79 -24 73
-30 70 157 73 l167 3 3 57 c10 198 -139 325 -312 263z m138 -116 c18 -21 26
-42 26 -70 l0 -39 -95 0 c-104 0 -102 -1 -83 62 24 80 104 104 152 47z"/>
<path d="M3633 1192 c-23 -9 -44 -20 -48 -23 -3 -4 1 -41 9 -83 11 -53 16
-132 16 -271 l0 -195 64 0 c50 0 65 4 70 17 4 9 6 98 6 197 -1 100 1 188 5
197 10 27 68 52 105 47 31 -5 33 -3 57 51 24 53 24 56 6 69 -38 29 -158 -14
-177 -64 -8 -21 -26 -17 -26 6 0 21 -27 70 -39 69 -3 0 -25 -8 -48 -17z"/>
<path d="M4095 1196 c-80 -30 -135 -123 -120 -203 10 -53 74 -113 146 -136 79
-24 109 -50 109 -92 0 -59 -63 -72 -167 -35 -76 26 -80 26 -93 -15 -16 -48
-10 -58 47 -85 39 -20 65 -24 138 -24 105 -1 137 12 179 73 23 33 28 51 29
100 0 50 -4 66 -26 95 -32 41 -75 69 -142 91 -91 31 -123 86 -70 121 20 13 39
15 88 11 34 -4 72 -9 84 -13 17 -5 25 0 37 25 9 16 16 37 16 45 0 41 -179 70
-255 42z"/>
<path d="M4970 1201 c-49 -16 -87 -41 -119 -76 -55 -63 -65 -97 -65 -230 -1
-107 2 -125 23 -169 28 -55 84 -101 145 -117 77 -21 217 6 232 45 6 16 -21 86
-34 86 -5 0 -24 -7 -41 -16 -23 -11 -48 -15 -79 -11 -82 9 -109 70 -100 226 6
100 28 142 82 156 29 7 49 5 86 -8 26 -9 53 -17 59 -17 15 0 45 65 38 83 -14
38 -163 70 -227 48z"/>
<path d="M6017 1196 c-61 -22 -104 -62 -134 -123 -24 -50 -28 -72 -31 -160 -6
-156 34 -246 127 -291 51 -24 199 -24 263 1 65 25 73 38 53 82 -23 47 -27 48
-72 30 -47 -20 -152 -22 -181 -4 -26 16 -53 68 -55 107 l-2 27 167 3 c193 3
183 -4 169 110 -18 144 -86 221 -202 228 -40 3 -78 -1 -102 -10z m127 -111
c23 -24 41 -89 30 -107 -7 -11 -181 -10 -188 1 -10 15 23 95 47 113 33 26 83
23 111 -7z"/>
<path d="M6463 1191 c-60 -23 -66 -32 -51 -67 8 -19 14 -109 18 -264 l5 -235
65 0 65 0 3 199 c2 173 5 203 20 219 25 29 72 46 98 37 27 -11 35 -2 60 59 17
42 17 44 -1 57 -39 29 -115 6 -160 -48 -27 -32 -45 -30 -45 6 0 13 -8 30 -17
38 -16 15 -22 14 -60 -1z"/>
<path d="M6885 1196 l-50 -11 -3 -245 c-2 -231 -1 -247 18 -278 12 -19 37 -40
58 -49 63 -26 185 -3 222 42 15 19 40 3 40 -26 0 -29 17 -32 76 -13 l56 17 -7
46 c-4 25 -10 154 -14 286 l-6 240 -32 -3 c-17 -2 -44 -7 -60 -11 l-28 -7 -3
-212 -2 -211 -29 -20 c-42 -30 -109 -31 -133 -2 -16 21 -18 44 -18 235 0 201
-5 239 -29 235 -4 0 -28 -6 -56 -13z"/>
<path d="M7469 1201 c-51 -16 -71 -32 -63 -49 5 -9 11 -132 14 -272 l5 -255
65 0 65 0 5 214 5 215 33 19 c42 24 97 26 120 4 15 -15 18 -46 22 -235 l5
-217 65 0 65 0 3 234 c2 219 1 237 -18 277 -44 90 -171 99 -275 20 -32 -25
-36 -26 -41 -9 -21 66 -25 69 -75 54z"/>
<path d="M8114 1191 c-89 -41 -127 -128 -127 -286 0 -111 14 -165 55 -216 48
-59 158 -77 233 -39 22 11 43 20 47 20 11 0 10 -104 -2 -135 -6 -16 -25 -32
-47 -42 -35 -15 -44 -15 -113 1 -41 9 -87 19 -102 22 -28 6 -39 -6 -52 -59 -5
-23 -2 -30 24 -45 42 -26 154 -45 231 -40 82 5 134 31 167 81 l27 40 6 311 c3
171 9 323 14 338 6 23 3 29 -22 42 -49 25 -86 24 -98 -1 -12 -28 -19 -28 -56
-2 -43 30 -132 35 -185 10z m157 -101 c8 0 25 -9 37 -20 21 -19 22 -30 22
-154 0 -151 -5 -162 -79 -176 -93 -17 -136 46 -129 187 6 120 47 182 113 168
11 -3 27 -5 36 -5z"/>
<path d="M8736 1203 c-36 -10 -94 -52 -119 -85 -53 -70 -78 -202 -57 -303 20
-100 61 -160 130 -193 53 -26 210 -22 271 5 26 12 50 26 53 31 7 11 -19 77
-33 86 -5 3 -28 -1 -52 -10 -61 -21 -149 -21 -181 0 -28 18 -46 54 -50 101
l-3 30 170 5 c196 6 185 -2 165 115 -26 150 -87 215 -207 221 -37 1 -77 0 -87
-3z m112 -113 c25 -23 48 -98 34 -112 -5 -5 -49 -8 -98 -6 l-89 3 4 30 c4 39
26 81 48 94 29 17 78 12 101 -9z"/>
<path d="M4424 1176 c-3 -8 -4 -29 -2 -48 3 -32 4 -33 55 -36 l53 -3 2 -232 3
-232 59 -3 c41 -2 62 1 67 10 10 15 12 518 3 542 -9 22 -232 24 -240 2z"/>
</g>
</svg>
