<?xml version="1.0" standalone="no"?>
<!DOCTYPE svg PUBLIC "-//W3C//DTD SVG 20010904//EN"
 "http://www.w3.org/TR/2001/REC-SVG-20010904/DTD/svg10.dtd">
<svg version="1.0" xmlns="http://www.w3.org/2000/svg"
 width="1200.000000pt" height="660.000000pt" viewBox="0 0 1200.000000 660.000000"
 preserveAspectRatio="xMidYMid meet">
<metadata>
Created by potrace 1.13, written by Peter Selinger 2001-2015
</metadata>
<g transform="translate(0.000000,660.000000) scale(0.100000,-0.100000)"
fill="#000000" stroke="none">
<path d="M5845 6214 c-620 -35 -1209 -261 -1685 -644 -133 -107 -331 -305
-438 -438 -330 -411 -536 -881 -619 -1412 -15 -94 -18 -175 -18 -435 0 -287 3
-333 23 -450 64 -365 175 -681 343 -978 394 -692 1043 -1190 1814 -1392 399
-105 889 -118 1302 -35 377 75 721 218 1043 431 628 418 1072 1062 1234 1790
53 241 61 322 61 644 0 240 -4 323 -18 415 -86 552 -306 1046 -643 1450 -435
520 -1019 869 -1674 1000 -206 41 -530 65 -725 54z m615 -1422 c0 -26 -4 -52
-8 -58 -8 -9 -35 -92 -81 -254 -12 -41 -26 -89 -31 -106 -6 -17 -10 -38 -10
-47 0 -10 -4 -25 -9 -35 -5 -9 -14 -37 -21 -62 -6 -25 -16 -59 -21 -76 -5 -17
-9 -40 -9 -52 0 -11 -4 -24 -10 -27 -5 -3 -10 -21 -10 -40 0 -19 -4 -37 -10
-40 -5 -3 -10 -17 -10 -30 0 -13 -4 -27 -10 -30 -5 -3 -10 -21 -10 -40 0 -19
-4 -37 -10 -40 -5 -3 -10 -21 -10 -39 0 -17 -5 -37 -10 -42 -6 -6 -12 -19 -15
-30 -2 -10 -7 -30 -11 -43 -4 -13 -3 -22 2 -20 5 2 26 11 47 19 20 8 37 18 37
22 0 4 11 8 24 8 14 0 28 5 31 10 3 6 17 10 30 10 13 0 27 5 30 10 3 6 15 10
25 10 11 0 35 9 55 20 20 11 42 20 49 20 7 0 27 7 44 16 46 22 55 11 47 -55
-4 -31 -10 -60 -14 -66 -5 -5 -14 -32 -21 -60 -14 -56 -19 -76 -51 -186 -23
-80 -19 -76 -109 -109 -19 -7 -39 -17 -44 -22 -6 -4 -20 -8 -32 -8 -13 0 -26
-4 -29 -10 -3 -5 -15 -10 -26 -10 -10 0 -27 -4 -37 -9 -9 -5 -56 -22 -103 -37
l-85 -27 -43 -161 c-24 -89 -52 -192 -62 -231 -11 -38 -24 -86 -29 -105 -5
-19 -18 -66 -29 -103 l-19 -68 301 5 c166 3 499 8 740 11 l437 6 0 -40 c0 -22
-4 -43 -10 -46 -5 -3 -10 -17 -10 -30 0 -13 -4 -27 -10 -30 -5 -3 -10 -21 -10
-40 0 -19 -4 -37 -10 -40 -5 -3 -10 -21 -10 -40 0 -19 -4 -37 -10 -40 -5 -3
-10 -21 -10 -40 0 -19 -4 -37 -10 -40 -5 -3 -10 -17 -10 -30 0 -13 -4 -27 -10
-30 -5 -3 -10 -21 -10 -39 0 -17 -4 -36 -9 -41 -5 -6 -11 -26 -13 -45 l-3 -35
-1200 2 -1200 2 -1 28 c0 15 5 42 12 58 7 17 22 64 33 105 12 41 26 89 31 106
6 17 10 38 10 47 0 10 4 25 9 35 14 29 31 87 31 110 0 11 5 24 10 27 6 3 10
21 10 40 0 19 5 37 10 40 6 3 10 21 10 40 0 19 5 37 10 40 6 3 10 17 10 30 0
13 5 27 10 30 6 3 10 21 10 39 0 17 4 36 9 42 5 5 12 19 16 32 6 21 4 22 -22
16 -15 -4 -29 -11 -31 -16 -2 -4 -14 -8 -27 -8 -13 0 -27 -4 -30 -10 -3 -5
-16 -10 -29 -10 -12 0 -26 -4 -31 -8 -19 -15 -114 -44 -137 -40 -26 3 -27 10
-3 93 9 33 21 76 25 95 5 19 18 69 30 110 12 41 25 89 27 105 7 40 21 55 49
55 12 0 26 5 29 10 3 6 17 10 30 10 13 0 27 5 30 10 3 6 17 10 30 10 13 0 27
5 30 10 3 6 17 10 30 10 13 0 27 5 30 10 3 6 15 10 26 10 10 0 19 4 19 9 0 5
12 11 28 13 20 2 28 9 30 28 2 14 8 29 13 35 5 5 9 24 9 41 0 18 5 36 10 39 6
3 10 21 10 40 0 19 5 37 10 40 6 3 10 21 10 39 0 18 3 36 7 40 12 12 33 80 33
108 0 15 5 30 10 33 6 3 10 21 10 40 0 19 5 37 10 40 6 3 10 19 10 36 0 16 4
37 9 47 14 29 31 87 31 110 0 11 5 24 10 27 6 3 10 19 10 36 0 16 4 37 9 47 5
9 14 37 21 62 6 25 16 59 21 76 5 17 9 40 9 52 0 11 5 24 10 27 6 3 10 19 10
36 0 16 4 37 9 47 10 17 22 61 70 257 24 99 32 129 36 135 3 4 212 8 465 9
l460 1 0 -48z m790 -92 c0 -5 9 -10 20 -10 11 0 20 -4 20 -10 0 -5 14 -10 30
-10 17 0 30 -4 30 -10 0 -5 9 -10 20 -10 11 0 20 -4 20 -10 0 -5 7 -10 15 -10
18 0 65 -43 65 -59 0 -6 6 -8 14 -5 14 6 206 -176 206 -194 0 -5 12 -22 28
-38 15 -16 33 -42 41 -57 8 -15 18 -27 23 -27 4 0 8 -6 8 -13 0 -7 9 -23 21
-36 11 -12 18 -29 15 -37 -3 -8 1 -14 10 -14 11 0 15 -6 11 -20 -3 -12 0 -20
6 -20 15 0 41 -56 32 -70 -3 -5 1 -10 11 -10 11 0 15 -6 11 -20 -3 -10 2 -25
10 -31 8 -7 12 -21 10 -30 -3 -10 2 -24 10 -30 8 -7 12 -21 10 -31 -3 -10 2
-25 10 -33 8 -9 13 -22 10 -30 -3 -7 1 -19 9 -26 8 -7 14 -25 12 -39 -1 -15 3
-35 11 -43 7 -9 11 -35 10 -61 -2 -26 2 -51 9 -58 18 -18 17 -418 0 -418 -9 0
-12 -15 -10 -50 3 -38 1 -50 -10 -50 -10 0 -13 -9 -10 -30 3 -22 0 -30 -11
-30 -10 0 -13 -6 -10 -20 4 -14 0 -20 -11 -20 -9 0 -13 -6 -10 -15 6 -15 -17
-45 -35 -45 -6 0 -8 -7 -5 -14 7 -18 -58 -86 -81 -86 -8 0 -15 -4 -15 -10 0
-5 -9 -10 -20 -10 -11 0 -20 -4 -20 -10 0 -5 -25 -10 -55 -10 -30 0 -55 5 -55
10 0 6 -9 10 -20 10 -11 0 -20 5 -20 10 0 6 -7 10 -16 10 -9 0 -30 14 -46 30
-15 17 -35 30 -43 30 -8 0 -15 5 -15 10 0 6 -7 10 -16 10 -17 0 -44 23 -44 38
0 5 -27 37 -61 71 -39 39 -59 67 -55 76 3 8 1 15 -5 15 -18 0 -41 30 -35 45 3
9 -1 15 -10 15 -11 0 -15 6 -11 20 3 14 0 20 -10 20 -10 0 -14 6 -10 20 3 10
-2 25 -10 31 -8 7 -12 21 -10 31 3 11 0 18 -9 18 -11 0 -14 10 -12 36 1 21 -3
39 -11 43 -9 6 -12 22 -9 45 3 26 0 36 -10 36 -10 0 -13 13 -11 49 2 29 -3 56
-10 65 -8 10 -12 36 -9 71 2 41 0 55 -10 55 -10 0 -13 15 -10 60 2 43 -1 60
-9 60 -9 0 -13 21 -13 70 0 40 -4 70 -10 70 -6 0 -10 105 -10 295 0 190 4 295
10 295 6 0 10 14 10 30 0 17 5 30 10 30 6 0 10 7 10 15 0 20 45 65 65 65 8 0
15 5 15 10 0 6 11 10 25 10 14 0 25 -4 25 -10z"/>
<path d="M7213 4673 c9 -2 25 -2 35 0 9 3 1 5 -18 5 -19 0 -27 -2 -17 -5z"/>
<path d="M7151 4634 c-12 -14 -21 -27 -19 -30 3 -2 17 10 33 26 16 17 25 30
19 29 -5 0 -20 -11 -33 -25z"/>
<path d="M7110 4549 c0 -5 5 -7 10 -4 6 3 10 8 10 11 0 2 -4 4 -10 4 -5 0 -10
-5 -10 -11z"/>
</g>
</svg>
