<?xml version="1.0" standalone="no"?>
<!DOCTYPE svg PUBLIC "-//W3C//DTD SVG 20010904//EN"
 "http://www.w3.org/TR/2001/REC-SVG-20010904/DTD/svg10.dtd">
<svg version="1.0" xmlns="http://www.w3.org/2000/svg"
 width="1200.000000pt" height="660.000000pt" viewBox="0 0 1200.000000 660.000000"
 preserveAspectRatio="xMidYMid meet">
<metadata>
Created by potrace 1.13, written by Peter Selinger 2001-2015
</metadata>
<g transform="translate(0.000000,660.000000) scale(0.100000,-0.100000)"
fill="#000000" stroke="none">
<path d="M446 4532 c-2 -4 -5 -553 -5 -1219 1 -915 3 -1212 12 -1215 7 -2 132
-1 280 2 l267 5 1 1215 1 1215 -275 3 c-152 1 -278 -1 -281 -6z"/>
<path d="M1857 4533 c-2 -5 -8 -46 -12 -93 -29 -355 -165 -660 -400 -895 -49
-50 -152 -137 -227 -194 -76 -57 -138 -106 -138 -108 0 -3 48 -71 107 -151 59
-81 217 -298 351 -482 133 -184 271 -373 305 -420 l62 -85 344 -3 c288 -2 342
0 338 11 -5 12 -474 651 -684 930 -40 54 -73 103 -73 109 0 6 27 39 59 74 278
296 453 690 501 1129 7 55 10 118 8 140 l-3 40 -267 3 c-147 1 -269 -1 -271
-5z"/>
<path d="M2767 4533 c-4 -3 -7 -552 -7 -1220 l0 -1213 263 0 264 0 -1 1218 -1
1217 -256 3 c-140 1 -258 -1 -262 -5z"/>
<path d="M10978 3824 c-95 -50 -89 -190 9 -230 36 -16 87 -11 113 9 31 24 60
76 60 108 0 58 -75 131 -132 128 -13 -1 -35 -8 -50 -15z m117 -54 c13 -13 20
-34 20 -59 0 -54 -35 -91 -84 -91 -75 1 -115 75 -74 136 31 48 97 54 138 14z"/>
<path d="M10994 3766 c-3 -7 -4 -38 -2 -67 3 -55 18 -69 29 -27 l5 23 19 -28
c22 -34 31 -26 38 35 5 35 3 51 -9 63 -19 19 -73 20 -80 1z m56 -31 c0 -8 -7
-15 -15 -15 -8 0 -15 7 -15 15 0 8 7 15 15 15 8 0 15 -7 15 -15z"/>
<path d="M4225 3820 c-269 -48 -515 -237 -635 -485 -66 -137 -82 -203 -87
-370 -4 -125 -2 -150 20 -236 84 -323 322 -565 642 -650 63 -17 109 -21 215
-21 164 0 250 19 390 89 52 27 98 50 103 51 4 2 7 -19 7 -47 l0 -51 250 0 250
0 -2 843 -3 842 -225 3 c-124 1 -235 0 -247 -3 -20 -5 -23 -12 -23 -50 0 -25
-2 -45 -5 -45 -3 0 -52 22 -108 49 -56 28 -129 57 -162 66 -71 19 -306 28
-380 15z m281 -451 c164 -30 302 -146 353 -297 57 -167 -4 -357 -150 -466
-149 -112 -340 -127 -513 -39 -88 44 -178 151 -211 248 -79 235 80 494 339
550 77 17 108 18 182 4z"/>
<path d="M7755 3820 c-124 -26 -224 -78 -303 -157 -31 -31 -55 -48 -57 -40 -3
6 -6 46 -7 87 l-3 75 -245 0 -245 0 0 -844 0 -844 245 1 c135 0 248 1 252 1 4
1 8 227 10 504 l3 502 33 68 c61 123 176 189 332 190 180 2 286 -71 337 -231
13 -40 15 -122 14 -536 -2 -396 0 -491 11 -497 17 -11 469 -11 487 0 11 7 12
109 4 617 l-10 609 -25 67 c-75 200 -226 339 -443 408 -56 18 -99 23 -210 26
-77 2 -158 -1 -180 -6z"/>
<path d="M9550 3824 c-293 -57 -523 -230 -654 -491 -66 -132 -81 -206 -81
-393 0 -144 3 -174 24 -240 81 -260 232 -441 465 -555 137 -68 224 -87 386
-87 164 0 250 19 390 89 52 27 98 50 103 51 4 2 7 -19 7 -47 l0 -51 250 0
c194 0 250 3 250 13 0 6 1 386 2 842 l3 830 -250 0 -250 0 -3 -47 c-3 -47 -16
-60 -38 -39 -20 21 -156 82 -226 102 -54 15 -109 22 -213 24 -77 2 -151 1
-165 -1z m331 -474 c159 -49 274 -180 302 -344 44 -259 -172 -495 -454 -496
-272 0 -493 244 -449 497 23 136 114 254 243 317 118 58 230 66 358 26z"/>
<path d="M5657 3784 c-4 -4 -7 -385 -7 -846 l0 -838 261 0 260 0 -3 433 -3
432 33 67 c38 78 109 148 199 195 65 35 158 63 210 63 17 0 34 3 36 8 9 13 20
447 13 470 -7 21 -12 22 -59 16 -148 -17 -282 -73 -373 -156 -28 -27 -54 -48
-58 -48 -3 0 -7 46 -8 103 l-3 102 -246 3 c-135 1 -248 -1 -252 -4z"/>
<path d="M11116 2675 c-34 -14 -78 -43 -103 -67 -132 -129 -133 -331 -3 -456
69 -66 120 -86 220 -86 100 0 160 24 225 89 65 65 89 125 89 225 1 70 -4 94
-24 135 -76 156 -249 224 -404 160z"/>
</g>
</svg>
