<?xml version="1.0" standalone="no"?>
<!DOCTYPE svg PUBLIC "-//W3C//DTD SVG 20010904//EN"
 "http://www.w3.org/TR/2001/REC-SVG-20010904/DTD/svg10.dtd">
<svg version="1.0" xmlns="http://www.w3.org/2000/svg"
 width="1200.000000pt" height="660.000000pt" viewBox="0 0 1200.000000 660.000000"
 preserveAspectRatio="xMidYMid meet">
<metadata>
Created by potrace 1.13, written by Peter Selinger 2001-2015
</metadata>
<g transform="translate(0.000000,660.000000) scale(0.100000,-0.100000)"
fill="#000000" stroke="none">
<path d="M2592 4524 c-176 -51 -245 -100 -477 -333 -88 -89 -167 -161 -176
-161 -9 0 -104 90 -210 201 -106 110 -211 211 -234 224 -62 37 -133 49 -201
35 -106 -22 -168 -70 -216 -167 -27 -56 -30 -70 -26 -135 2 -48 11 -88 25
-118 30 -61 669 -698 733 -730 61 -31 151 -37 226 -15 58 17 66 24 394 350
284 282 341 335 376 344 138 37 250 -121 165 -235 -41 -55 -1024 -1034 -1038
-1034 -7 0 -245 234 -530 519 -353 354 -532 527 -563 543 -69 35 -182 38 -252
5 -143 -66 -207 -213 -162 -368 15 -52 37 -75 672 -712 485 -486 670 -665 707
-685 70 -37 178 -38 250 -2 38 19 195 170 685 662 686 688 692 696 746 854 89
266 27 543 -167 748 -192 202 -476 285 -727 210z"/>
<path d="M5956 3629 c-10 -6 -38 -55 -63 -108 -24 -53 -55 -118 -68 -146 -12
-27 -36 -79 -53 -115 -16 -36 -46 -99 -65 -141 -40 -85 -87 -186 -124 -269
-27 -59 -66 -142 -133 -284 -37 -79 -40 -92 -29 -113 15 -28 59 -31 81 -5 13
15 58 105 58 116 0 2 20 47 45 100 l45 96 340 0 340 0 26 -57 c14 -32 41 -90
60 -130 19 -40 34 -75 34 -79 0 -3 9 -19 21 -35 38 -54 112 -27 93 34 -4 12
-30 72 -59 132 -29 61 -64 135 -77 165 -14 30 -40 85 -57 123 -17 37 -45 97
-61 133 -17 37 -46 99 -64 138 -19 39 -46 97 -60 129 -14 31 -38 83 -52 115
-96 211 -117 236 -178 201z m54 -160 c0 -4 22 -54 48 -111 27 -57 56 -119 64
-138 9 -19 27 -60 41 -90 13 -30 39 -86 56 -125 17 -38 40 -87 51 -107 l19
-38 -295 0 c-169 0 -294 4 -294 9 0 5 9 26 20 48 11 21 31 65 46 98 14 33 39
88 55 123 16 34 42 90 58 125 16 34 45 97 65 139 20 43 36 83 36 89 0 8 4 8
15 -1 8 -7 15 -16 15 -21z"/>
<path d="M11425 3620 c-43 -21 -54 -35 -251 -318 -78 -113 -109 -150 -118
-143 -7 6 -72 97 -144 204 -73 106 -148 209 -168 228 -32 31 -40 34 -94 34
-51 0 -63 -4 -88 -28 -40 -39 -55 -89 -38 -136 7 -21 45 -82 86 -137 41 -54
105 -142 144 -194 38 -52 94 -127 123 -166 l53 -72 0 -192 0 -192 39 -39 c49
-49 118 -56 173 -18 52 37 58 65 58 267 l0 185 38 51 c22 28 112 148 200 268
l162 216 0 64 c0 72 -17 99 -76 124 -43 18 -51 18 -99 -6z"/>
<path d="M4392 3614 l-22 -15 0 -568 c0 -537 1 -569 18 -584 17 -15 58 -17
385 -17 354 0 368 1 387 20 24 24 24 29 4 58 -15 22 -15 22 -350 22 l-334 0 0
530 c0 517 -1 531 -20 550 -24 24 -38 25 -68 4z"/>
<path d="M6650 3608 c-11 -12 -20 -26 -20 -30 0 -9 37 -64 130 -193 25 -34 65
-91 89 -126 25 -35 57 -80 71 -99 15 -19 61 -84 104 -144 l76 -108 0 -217 c0
-236 5 -261 55 -261 50 0 56 26 55 262 l-1 216 68 97 c93 132 168 238 230 326
181 255 179 251 147 283 -34 34 -52 20 -145 -112 -45 -65 -114 -162 -152 -217
-122 -173 -190 -270 -197 -278 -5 -6 -44 46 -219 298 -22 33 -73 107 -112 165
-113 166 -136 184 -179 138z"/>
<path d="M10100 3623 c-25 -9 -61 -46 -73 -73 -7 -16 -11 -145 -11 -360 -1
-328 -1 -336 -24 -386 -43 -95 -111 -137 -222 -137 -80 0 -142 25 -187 76 -58
66 -63 104 -63 459 0 263 -3 324 -15 348 -49 95 -191 94 -241 -2 -14 -26 -15
-77 -12 -382 l4 -351 27 -78 c38 -110 74 -162 150 -220 87 -66 150 -87 287
-94 299 -16 480 102 544 353 13 51 16 127 16 418 l0 356 -33 36 c-28 31 -41
37 -83 40 -27 2 -56 1 -64 -3z"/>
<path d="M8039 3597 c-70 -47 -69 -37 -69 -570 0 -459 1 -479 20 -517 36 -70
45 -72 367 -70 156 0 307 5 335 10 132 25 239 107 273 209 22 67 17 178 -11
236 -24 51 -95 120 -139 137 -19 6 -35 16 -35 21 0 5 20 27 44 48 116 102 120
303 8 412 -45 44 -119 81 -190 96 -31 6 -161 11 -311 11 -252 0 -259 -1 -292
-23z m548 -230 c44 -23 63 -54 63 -102 0 -48 -19 -79 -63 -102 -26 -15 -60
-18 -192 -18 l-160 0 -3 100 c-2 55 0 111 3 124 l6 23 157 -4 c122 -3 164 -8
189 -21z m79 -474 c87 -62 61 -184 -44 -213 -24 -6 -111 -9 -214 -8 l-173 3
-3 109 c-1 61 0 116 3 124 4 11 41 13 202 10 186 -3 200 -4 229 -25z"/>
</g>
</svg>
