<?xml version="1.0" standalone="no"?>
<!DOCTYPE svg PUBLIC "-//W3C//DTD SVG 20010904//EN"
 "http://www.w3.org/TR/2001/REC-SVG-20010904/DTD/svg10.dtd">
<svg version="1.0" xmlns="http://www.w3.org/2000/svg"
 width="1200.000000pt" height="660.000000pt" viewBox="0 0 1200.000000 660.000000"
 preserveAspectRatio="xMidYMid meet">
<metadata>
Created by potrace 1.13, written by Peter Selinger 2001-2015
</metadata>
<g transform="translate(0.000000,660.000000) scale(0.100000,-0.100000)"
fill="#000000" stroke="none">
<path d="M5810 6174 c-633 -52 -1154 -257 -1635 -643 -557 -446 -932 -1106
-1034 -1816 -35 -241 -33 -639 3 -883 18 -120 82 -385 102 -424 l15 -28 427 2
427 3 -3 1206 c-2 719 0 1209 5 1212 5 3 428 -412 939 -924 511 -511 934 -929
940 -929 6 0 426 416 932 925 507 509 927 926 934 927 11 3 13 -225 13 -1207
l0 -1210 430 0 430 0 27 80 c38 113 86 359 104 532 19 177 14 544 -10 693 -55
350 -126 580 -271 876 -220 449 -566 845 -980 1121 -380 254 -786 408 -1237
468 -109 15 -465 27 -558 19z m388 -876 c7 -7 29 -11 50 -9 25 1 43 -3 51 -13
7 -8 19 -12 27 -9 8 3 23 -2 33 -11 10 -9 20 -13 24 -10 9 9 67 -19 67 -33 0
-6 8 -9 20 -6 11 3 20 0 20 -6 0 -6 9 -11 20 -11 11 0 20 -4 20 -8 0 -5 12
-15 27 -23 43 -22 115 -98 109 -115 -3 -8 1 -14 9 -14 8 0 15 -9 15 -20 0 -11
5 -20 10 -20 6 0 10 -38 10 -95 0 -57 -4 -95 -10 -95 -5 0 -10 -9 -10 -20 0
-11 -7 -20 -15 -20 -8 0 -12 -6 -9 -14 3 -8 -4 -25 -15 -37 -12 -13 -21 -27
-21 -32 0 -6 -13 -23 -30 -39 -16 -15 -30 -33 -30 -38 0 -13 -86 -100 -99
-100 -5 0 -27 -18 -49 -40 -21 -22 -43 -40 -49 -40 -5 0 -18 -8 -29 -17 -28
-25 -61 -43 -79 -43 -8 0 -15 -4 -15 -10 0 -5 -9 -10 -20 -10 -11 0 -20 -3
-20 -8 0 -12 -60 -34 -80 -29 -13 3 -20 0 -20 -9 0 -11 -23 -14 -115 -14 -92
0 -115 3 -115 14 0 9 -7 12 -21 9 -20 -6 -62 11 -87 34 -7 7 -19 10 -28 6 -8
-3 -23 4 -33 16 -10 11 -26 21 -35 21 -9 0 -21 9 -28 20 -7 11 -19 20 -27 20
-8 0 -27 14 -43 30 -15 17 -33 30 -38 30 -13 0 -140 127 -140 140 0 5 -14 23
-31 40 -19 18 -29 35 -25 45 3 8 1 15 -5 15 -21 0 -41 31 -36 55 3 17 0 25 -9
25 -9 0 -14 11 -14 30 0 17 -4 30 -10 30 -5 0 -10 20 -10 45 0 25 5 45 10 45
6 0 10 14 10 30 0 20 5 30 15 30 8 0 12 6 9 14 -5 14 116 146 134 146 4 0 18
9 31 21 12 11 28 18 36 15 8 -3 17 -1 20 4 9 15 73 42 84 36 5 -3 17 1 25 10
9 9 23 14 31 11 7 -3 19 1 26 9 8 10 24 14 41 12 16 -3 33 1 39 9 16 18 409
19 427 1z"/>
<path d="M4744 2553 l1 -758 -607 4 c-432 2 -608 0 -608 -7 0 -14 120 -186
209 -302 87 -113 310 -336 441 -440 851 -679 1988 -828 2980 -392 437 193 835
507 1128 891 78 101 162 225 162 239 0 12 -86 14 -607 11 l-608 -4 4 758 c2
416 1 757 -2 757 -5 0 -935 -935 -1132 -1137 -54 -57 -104 -103 -110 -103 -11
0 -111 100 -870 870 -198 200 -365 366 -371 368 -8 2 -11 -201 -10 -755z"/>
</g>
</svg>
