<?xml version="1.0" standalone="no"?>
<!DOCTYPE svg PUBLIC "-//W3C//DTD SVG 20010904//EN"
 "http://www.w3.org/TR/2001/REC-SVG-20010904/DTD/svg10.dtd">
<svg version="1.0" xmlns="http://www.w3.org/2000/svg"
 width="1200.000000pt" height="660.000000pt" viewBox="0 0 1200.000000 660.000000"
 preserveAspectRatio="xMidYMid meet">
<metadata>
Created by potrace 1.13, written by Peter Selinger 2001-2015
</metadata>
<g transform="translate(0.000000,660.000000) scale(0.100000,-0.100000)"
fill="#000000" stroke="none">
<path d="M479 5150 c-2 -8 2 -1564 4 -1565 1 0 344 3 762 6 765 7 3837 1 3865
-6 41 -12 40 -21 38 788 l-3 777 -2333 3 c-1282 1 -2333 0 -2333 -3z"/>
<path d="M10815 5151 c-22 -4 -53 -13 -68 -20 -16 -6 -41 -11 -57 -11 -15 0
-41 -7 -56 -15 -16 -8 -36 -15 -44 -15 -50 0 -158 -81 -197 -146 -46 -77 -53
-151 -46 -469 5 -228 3 -277 -10 -315 l-15 -45 -340 -3 c-338 -2 -341 -2 -347
19 -4 11 -5 118 -4 237 4 221 -5 301 -43 402 -25 66 -80 153 -127 200 -46 46
-164 120 -192 120 -8 0 -27 7 -44 16 -24 13 -76 17 -266 22 -225 4 -237 4
-247 -14 -12 -24 -25 -114 -26 -184 l-1 -55 190 -6 c105 -4 202 -10 217 -14
40 -11 115 -80 140 -129 34 -69 41 -121 45 -376 l4 -245 -342 0 -342 0 -15
-65 c-8 -36 -15 -90 -16 -120 l-1 -55 935 0 c781 0 942 2 978 14 40 13 48 13
125 -12 45 -14 133 -31 195 -38 262 -27 471 47 603 213 35 45 53 77 104 193
26 58 39 238 25 358 -7 61 -19 122 -26 136 -8 14 -14 31 -14 36 0 28 -74 144
-127 200 -37 40 -100 86 -143 106 -85 39 -112 49 -133 49 -12 0 -35 7 -52 16
-34 17 -162 26 -220 15z m258 -347 c89 -63 117 -139 117 -312 0 -294 -103
-392 -384 -364 -60 6 -112 14 -117 19 -4 4 -9 152 -9 327 l-2 318 29 15 c40
21 134 32 236 29 79 -3 94 -7 130 -32z"/>
<path d="M7600 5120 c-234 -7 -298 -23 -405 -101 -51 -37 -105 -98 -105 -119
0 -6 -8 -23 -17 -37 -15 -22 -18 -50 -18 -153 0 -121 1 -127 33 -191 38 -77
67 -106 142 -147 86 -46 207 -62 462 -62 l215 0 40 -29 c71 -51 93 -154 51
-237 -47 -94 -108 -105 -563 -98 -187 3 -520 6 -740 7 -436 3 -406 0 -498 61
-71 47 -107 171 -107 361 1 216 33 331 116 404 70 62 113 71 333 71 214 0 211
-1 211 77 0 21 6 61 14 88 8 32 10 59 4 74 l-8 23 -273 -5 c-343 -8 -373 -13
-499 -95 -67 -43 -135 -112 -159 -161 -7 -15 -18 -32 -23 -40 -14 -18 -34 -73
-53 -146 -23 -84 -24 -472 -1 -561 39 -154 141 -285 268 -345 110 -53 92 -52
930 -60 773 -8 1016 -4 1110 22 206 55 300 179 303 398 2 209 -93 333 -309
404 -43 14 -94 17 -298 17 -264 0 -278 2 -322 52 -86 97 -32 255 93 272 25 3
222 6 438 6 454 0 418 -9 429 109 4 40 12 84 18 97 8 18 8 27 -3 40 -12 14
-45 16 -314 12 -165 -1 -388 -5 -495 -8z"/>
<path d="M10160 3280 c-14 -4 -43 -9 -65 -9 -22 -1 -62 -8 -89 -16 -27 -8 -71
-15 -97 -15 -39 0 -51 -4 -59 -21 -8 -14 -9 -94 -4 -268 7 -238 6 -249 -12
-259 -13 -7 -34 -5 -69 5 -27 9 -107 17 -176 20 -109 4 -133 2 -188 -17 -178
-60 -264 -156 -328 -365 -27 -88 -26 -374 1 -460 28 -90 69 -165 120 -222 110
-122 258 -177 471 -177 117 0 296 23 332 42 12 7 30 12 39 12 27 0 98 37 123
64 13 13 27 41 31 63 11 48 14 1627 3 1629 -4 1 -19 -2 -33 -6z m-355 -843
l40 -15 3 -326 2 -325 -28 -15 c-16 -8 -63 -18 -104 -22 -108 -9 -176 12 -237
75 -54 56 -69 95 -82 211 -11 92 2 265 21 284 5 5 10 16 10 24 0 25 53 83 99
108 42 22 54 24 141 20 52 -3 113 -11 135 -19z"/>
<path d="M480 2998 c0 -7 -1 -361 -2 -786 l-3 -773 2335 0 2335 1 3 779 c2
618 0 780 -10 782 -7 2 -382 1 -833 -3 -861 -7 -3777 -1 -3807 8 -11 3 -18 0
-18 -8z"/>
<path d="M6145 2721 c-88 -7 -135 -16 -245 -49 -77 -23 -118 -49 -146 -93
l-24 -39 2 -522 3 -523 170 0 170 0 3 451 c2 364 5 454 16 463 13 11 67 24
149 38 48 7 113 -12 150 -46 49 -45 52 -73 52 -506 l0 -400 171 -3 c132 -2
173 0 176 10 7 21 -9 841 -16 864 -13 37 37 59 179 80 59 9 124 -16 160 -61
l30 -37 5 -426 5 -427 170 0 170 0 0 460 c0 426 -1 464 -19 515 -42 121 -105
183 -234 232 -50 19 -76 22 -222 21 -117 0 -173 -4 -190 -13 -14 -7 -38 -17
-55 -21 -38 -9 -94 -29 -118 -41 -13 -6 -28 -3 -54 12 -95 56 -249 77 -458 61z"/>
<path d="M8165 2721 c-69 -7 -140 -23 -200 -43 -16 -5 -46 -14 -65 -19 -126
-30 -135 -35 -133 -65 4 -73 27 -210 36 -216 6 -3 27 -1 46 6 20 7 52 19 71
26 19 6 53 16 75 20 22 4 65 13 95 19 81 17 279 18 310 2 40 -21 71 -53 86
-90 17 -41 18 -123 2 -139 -8 -8 -54 -12 -139 -12 -300 0 -444 -35 -539 -130
-68 -68 -85 -117 -85 -245 0 -94 3 -117 23 -159 25 -53 115 -146 142 -146 9 0
22 -6 28 -12 42 -42 273 -55 432 -24 52 10 106 18 120 18 44 -1 172 -22 191
-32 10 -6 35 -10 56 -10 21 0 49 -7 61 -16 13 -9 30 -13 38 -10 13 5 15 65 12
493 -4 543 -3 536 -75 635 -33 46 -128 118 -156 118 -8 0 -28 7 -45 16 -37 18
-271 27 -387 15z m325 -711 c12 -7 15 -33 17 -116 1 -121 -6 -151 -39 -158
-13 -3 -53 -12 -89 -20 -82 -20 -201 -21 -237 -2 -68 35 -100 106 -80 174 28
93 112 130 303 131 61 0 117 -4 125 -9z"/>
<path d="M10860 2720 c-36 -4 -85 -13 -110 -20 -110 -29 -157 -42 -185 -52
-16 -5 -43 -13 -60 -17 -29 -7 -30 -9 -29 -62 2 -67 24 -188 36 -195 5 -3 14
-1 21 5 7 5 31 14 52 20 22 6 60 15 85 21 25 7 60 16 77 21 53 16 241 28 303
19 71 -10 105 -31 131 -81 22 -43 26 -138 7 -157 -8 -8 -56 -12 -148 -12 -302
0 -440 -37 -536 -143 -113 -125 -115 -339 -3 -461 56 -62 110 -92 208 -117 80
-21 219 -25 267 -9 26 9 156 30 194 31 8 1 56 -6 105 -15 50 -9 114 -21 144
-26 29 -5 58 -13 64 -19 6 -6 19 -11 30 -11 17 0 18 19 15 513 l-3 512 -29 54
c-16 30 -43 69 -61 87 -37 37 -108 84 -127 84 -7 0 -26 7 -43 16 -35 18 -298
28 -405 14z m329 -714 c8 -9 11 -55 9 -137 l-3 -124 -50 -13 c-27 -8 -66 -18
-85 -22 -19 -5 -71 -10 -115 -10 -62 0 -87 4 -113 20 -93 57 -97 197 -7 256
40 26 130 42 246 43 80 1 109 -2 118 -13z"/>
</g>
</svg>
