<?xml version="1.0" standalone="no"?>
<!DOCTYPE svg PUBLIC "-//W3C//DTD SVG 20010904//EN"
 "http://www.w3.org/TR/2001/REC-SVG-20010904/DTD/svg10.dtd">
<svg version="1.0" xmlns="http://www.w3.org/2000/svg"
 width="1200.000000pt" height="660.000000pt" viewBox="0 0 1200.000000 660.000000"
 preserveAspectRatio="xMidYMid meet">
<metadata>
Created by potrace 1.13, written by Peter Selinger 2001-2015
</metadata>
<g transform="translate(0.000000,660.000000) scale(0.100000,-0.100000)"
fill="#000000" stroke="none">
<path d="M4350 6194 c-366 -45 -648 -135 -926 -295 -410 -236 -724 -571 -929
-994 -110 -227 -181 -459 -217 -710 -19 -136 -16 -485 5 -625 118 -767 584
-1404 1272 -1741 205 -100 394 -161 640 -206 144 -26 595 -26 740 0 382 70
712 211 994 425 49 37 73 43 91 23 16 -19 129 -98 201 -142 251 -151 517 -250
824 -306 145 -26 595 -26 740 0 497 91 906 300 1246 637 368 365 590 809 664
1325 20 137 20 491 0 633 -92 656 -465 1243 -1025 1612 -52 34 -162 95 -245
135 -237 116 -385 162 -695 217 -48 8 -160 13 -315 13 -272 0 -408 -18 -630
-81 -263 -76 -541 -212 -722 -355 -35 -27 -67 -49 -72 -49 -6 0 -45 26 -88 58
-253 188 -584 332 -898 391 -33 6 -87 16 -120 22 -60 11 -469 21 -535 13z
m500 -835 c19 -6 56 -10 82 -9 26 0 58 -5 70 -11 13 -7 40 -12 60 -10 21 1 48
-4 60 -10 13 -7 36 -12 51 -11 15 1 38 -3 50 -10 12 -6 35 -11 50 -10 15 1 38
-3 50 -10 12 -6 35 -11 50 -10 15 1 38 -3 50 -10 12 -6 35 -11 50 -10 15 1 38
-3 50 -10 12 -6 39 -11 59 -9 21 1 48 -4 60 -10 13 -7 38 -12 56 -10 18 1 51
-3 73 -9 52 -14 376 -14 429 0 22 6 59 10 83 9 23 -1 52 3 64 9 12 7 35 11 50
10 15 -1 38 4 50 10 12 7 35 11 50 10 15 -1 38 4 50 10 12 7 35 11 50 10 15
-1 38 4 50 10 12 7 35 11 50 10 15 -1 38 4 50 10 12 7 35 11 50 10 15 -1 38 4
51 11 12 6 39 11 60 10 20 -2 47 3 60 10 12 7 48 12 80 12 31 -1 73 2 92 6 73
13 292 14 323 2 17 -7 49 -12 73 -10 23 1 55 -4 71 -12 15 -8 33 -12 40 -10 6
2 24 -2 40 -10 15 -8 34 -12 41 -10 7 3 21 -2 31 -11 10 -9 20 -13 24 -10 7 8
78 -17 95 -34 8 -7 18 -9 23 -6 13 8 199 -85 206 -102 3 -8 14 -14 24 -14 10
0 24 -9 31 -20 7 -11 21 -20 30 -20 10 0 23 -9 30 -20 7 -11 20 -20 29 -20 9
0 33 -18 53 -40 20 -22 41 -40 46 -40 14 0 120 -106 120 -120 0 -5 23 -32 50
-58 28 -27 50 -55 50 -63 0 -8 9 -20 20 -27 11 -7 20 -20 20 -30 0 -9 9 -23
20 -30 11 -7 20 -21 20 -32 0 -11 5 -20 10 -20 6 0 10 -9 10 -20 0 -11 5 -20
10 -20 6 0 10 -7 10 -16 0 -8 7 -22 15 -30 8 -9 18 -27 22 -42 3 -15 9 -29 12
-32 11 -9 53 -142 47 -148 -3 -3 1 -13 10 -23 9 -10 14 -24 11 -31 -2 -7 2
-26 10 -41 8 -16 13 -43 12 -61 -2 -17 3 -46 9 -62 14 -34 12 -309 -2 -354 -4
-14 -7 -37 -7 -53 1 -15 -5 -40 -12 -55 -8 -15 -12 -32 -10 -39 2 -6 -3 -25
-11 -41 -8 -16 -13 -32 -9 -35 3 -4 -4 -27 -16 -52 -11 -24 -21 -52 -21 -60 0
-8 -4 -15 -8 -15 -5 0 -15 -23 -22 -51 -8 -28 -22 -57 -32 -63 -10 -6 -18 -19
-18 -28 0 -10 -4 -18 -10 -18 -5 0 -10 -6 -10 -13 0 -23 -28 -71 -55 -97 -14
-13 -25 -28 -25 -35 0 -6 -9 -17 -20 -25 -11 -8 -20 -21 -20 -29 0 -18 -240
-261 -258 -261 -7 0 -25 -13 -39 -30 -13 -16 -32 -30 -41 -30 -10 0 -23 -9
-30 -20 -7 -11 -21 -20 -31 -20 -10 0 -21 -6 -24 -14 -7 -17 -233 -130 -246
-122 -5 3 -17 -1 -25 -10 -9 -9 -23 -13 -31 -10 -8 3 -21 -2 -30 -10 -9 -9
-22 -14 -30 -11 -7 3 -19 -1 -26 -9 -7 -8 -25 -14 -39 -12 -15 1 -34 -3 -43
-10 -8 -7 -32 -12 -54 -11 -21 2 -48 -3 -61 -10 -21 -11 -62 -13 -257 -14
-205 0 -256 3 -277 14 -13 7 -40 12 -60 10 -21 -1 -48 4 -60 10 -13 7 -36 12
-51 11 -15 -1 -38 3 -50 10 -12 6 -34 11 -50 10 -15 -1 -40 4 -56 12 -16 9
-31 13 -34 9 -4 -3 -21 0 -39 8 -18 7 -43 12 -55 11 -12 -2 -32 2 -45 9 -13 7
-35 12 -51 11 -15 -1 -40 4 -55 11 -15 7 -35 12 -44 10 -9 -2 -36 1 -60 8 -24
6 -65 12 -93 14 -27 1 -70 5 -95 8 -58 7 -133 7 -190 0 -25 -3 -75 -7 -112 -8
-36 -2 -75 -8 -87 -14 -11 -6 -33 -11 -48 -10 -15 0 -39 -2 -53 -6 -14 -5 -39
-9 -57 -10 -17 -1 -46 -8 -63 -15 -17 -7 -33 -10 -37 -7 -3 4 -18 0 -34 -9
-16 -8 -41 -13 -56 -12 -16 1 -38 -4 -50 -10 -12 -7 -35 -11 -50 -10 -15 1
-38 -4 -50 -10 -12 -7 -35 -11 -50 -10 -15 1 -38 -4 -51 -11 -12 -6 -39 -11
-60 -10 -20 2 -47 -3 -60 -10 -12 -7 -48 -12 -80 -12 -31 1 -73 -2 -92 -5 -75
-14 -189 -15 -231 -3 -24 6 -67 11 -96 10 -28 -1 -62 3 -75 10 -13 7 -35 12
-51 11 -15 -1 -40 4 -55 11 -15 8 -33 12 -40 10 -7 -3 -21 2 -31 11 -10 9 -20
13 -24 10 -9 -9 -127 36 -127 48 0 5 -7 8 -15 8 -20 0 -105 42 -105 52 0 4 -9
8 -20 8 -11 0 -20 5 -20 10 0 6 -9 10 -20 10 -11 0 -25 9 -32 20 -7 11 -21 20
-30 20 -10 0 -23 9 -30 20 -7 11 -20 20 -30 20 -9 0 -28 14 -41 30 -14 17 -32
30 -39 30 -17 0 -238 222 -238 239 0 7 -13 24 -30 38 -16 13 -30 32 -30 41 0
10 -9 23 -20 30 -11 7 -20 20 -20 30 0 9 -9 23 -20 30 -11 7 -20 21 -20 32 0
11 -4 20 -10 20 -5 0 -10 9 -10 20 0 11 -4 20 -10 20 -5 0 -10 9 -10 20 0 11
-4 20 -10 20 -5 0 -10 9 -10 20 0 11 -3 20 -8 20 -13 0 -78 177 -68 187 3 4
-1 14 -10 24 -10 11 -15 28 -12 44 3 14 -1 30 -9 36 -8 7 -13 29 -12 53 0 23
-4 57 -10 76 -6 19 -11 89 -11 155 0 66 5 136 11 155 6 19 10 53 10 76 -1 24
4 46 12 53 8 6 12 22 9 36 -3 16 2 33 12 44 9 10 13 20 10 24 -10 10 55 187
68 187 5 0 8 9 8 20 0 11 5 20 10 20 6 0 10 6 10 13 0 22 52 118 66 124 8 3
14 13 14 24 0 10 8 24 19 31 10 7 25 27 34 44 8 16 32 44 51 61 20 17 36 36
36 43 0 15 85 100 101 100 6 0 32 23 58 50 26 28 54 50 62 50 7 0 25 14 38 30
13 17 31 30 41 30 10 0 20 6 23 14 6 15 62 46 83 46 7 0 14 3 16 8 4 8 127 72
140 72 4 0 29 10 53 21 25 12 49 19 52 15 4 -3 14 1 24 10 10 9 24 14 31 11 7
-2 26 2 41 10 16 8 34 12 40 10 7 -2 24 2 40 10 15 7 44 13 65 13 20 -1 51 3
67 8 41 14 332 15 375 1z"/>
<path d="M9465 2551 c-3 -5 -1 -12 5 -16 5 -3 10 -17 10 -31 0 -13 5 -24 10
-24 6 0 10 11 10 24 0 14 5 28 10 31 6 3 10 10 10 16 0 12 -47 12 -55 0z"/>
<path d="M9550 2536 c0 -13 -3 -31 -6 -40 -4 -12 3 -15 35 -14 23 0 41 5 41
11 0 6 6 3 13 -8 18 -24 25 -9 20 38 -6 41 -31 52 -40 17 -3 -11 -9 -20 -14
-20 -4 0 -13 9 -19 20 -15 27 -30 25 -30 -4z"/>
<path d="M6837 1223 c-4 -3 -7 -44 -7 -89 l0 -83 -57 -3 -58 -3 0 -60 0 -60
58 -3 57 -3 0 -168 c0 -185 10 -234 57 -283 29 -30 100 -58 149 -58 49 0 128
21 154 40 22 17 23 20 10 64 -15 55 -33 74 -54 57 -8 -7 -39 -15 -68 -18 -44
-4 -57 -2 -78 15 -25 20 -25 21 -25 184 l0 163 105 5 105 5 3 57 c4 68 5 67
-128 70 l-85 3 -3 88 -3 87 -63 0 c-34 0 -66 -3 -69 -7z"/>
<path d="M3700 1049 c-14 -6 -37 -22 -52 -36 -16 -15 -29 -23 -29 -17 -1 5 -2
14 -4 19 -1 6 -3 16 -3 23 -2 9 -20 12 -69 10 l-68 -3 -3 -308 -2 -308 72 3
73 3 5 205 c3 143 9 212 18 228 35 60 143 83 197 40 49 -38 55 -69 55 -283 l0
-196 73 3 72 3 0 200 c0 177 2 204 18 228 26 40 75 67 124 67 60 0 90 -17 113
-65 18 -37 20 -61 20 -238 l0 -197 71 0 70 0 -3 233 c-3 217 -4 235 -25 274
-75 140 -278 168 -402 55 l-33 -31 -24 29 c-39 46 -100 70 -175 69 -35 0 -75
-5 -89 -10z"/>
<path d="M4775 1047 c-114 -45 -182 -127 -205 -247 -28 -142 40 -287 165 -356
12 -7 47 -17 78 -24 69 -16 146 -2 202 36 44 29 43 29 47 2 3 -21 9 -23 71
-26 l67 -3 -2 308 -3 308 -53 3 c-57 3 -82 -8 -82 -39 0 -23 -13 -24 -31 -2
-39 47 -179 69 -254 40z m182 -128 c125 -47 151 -241 44 -332 -55 -46 -161
-50 -221 -7 -66 47 -90 160 -54 249 32 81 142 124 231 90z"/>
<path d="M5533 1043 c-61 -21 -136 -92 -164 -155 -20 -45 -24 -68 -23 -153 1
-114 13 -152 71 -216 78 -86 191 -123 310 -100 76 15 161 54 170 77 6 16 -6
43 -36 83 l-18 24 -59 -29 c-111 -54 -235 -32 -277 49 -36 70 -33 71 200 64
147 -5 210 -4 219 4 29 24 8 164 -34 231 -31 49 -82 94 -132 117 -55 25 -164
27 -227 4z m177 -121 c37 -18 80 -74 80 -103 0 -18 -11 -19 -150 -19 -167 0
-169 1 -130 65 43 70 127 94 200 57z"/>
<path d="M6217 1048 c-20 -6 -57 -29 -82 -52 -102 -94 -78 -230 51 -287 22
-10 79 -25 127 -32 104 -17 140 -37 135 -75 -8 -72 -203 -83 -305 -17 -12 8
-24 15 -27 15 -11 0 -67 -92 -63 -103 7 -18 91 -57 155 -73 238 -57 449 87
378 257 -30 71 -87 102 -230 125 -108 18 -139 34 -134 72 2 20 13 32 42 46 35
17 48 18 111 9 39 -5 88 -18 108 -28 21 -10 39 -16 41 -14 6 8 56 100 56 104
0 9 -66 38 -115 51 -58 16 -192 17 -248 2z"/>
<path d="M7589 1040 c-19 -10 -42 -26 -50 -36 -13 -16 -14 -15 -19 12 -5 26
-9 29 -49 32 -25 2 -55 1 -68 -3 l-23 -5 2 -303 3 -302 68 -3 67 -3 0 196 c0
215 6 245 56 284 25 19 39 22 94 19 l65 -3 20 58 c17 51 18 59 5 67 -26 17
-132 11 -171 -10z"/>
<path d="M8039 1041 c-124 -48 -209 -173 -209 -306 0 -138 95 -267 231 -313
45 -15 169 -16 206 -1 75 31 93 41 130 74 63 55 97 133 101 232 4 74 1 87 -27
146 -38 79 -101 138 -177 167 -71 26 -190 27 -255 1z m230 -144 c101 -67 111
-229 18 -309 -11 -10 -43 -25 -72 -34 -48 -16 -55 -15 -102 0 -59 20 -82 37
-112 86 -25 42 -29 130 -7 181 43 102 179 139 275 76z"/>
<path d="M8605 505 c-30 -30 -31 -54 -4 -89 26 -33 68 -34 97 -3 30 32 28 71
-4 96 -35 27 -59 26 -89 -4z m82 -57 c-3 -8 -6 -5 -6 6 -1 11 2 17 5 13 3 -3
4 -12 1 -19z"/>
</g>
</svg>
