<?xml version="1.0" encoding="UTF-8"?>
<svg xmlns="http://www.w3.org/2000/svg" xmlns:xlink="http://www.w3.org/1999/xlink" width="339pt" height="236pt" viewBox="0 0 339 236" version="1.1">
<g id="surface1">
<path style=" stroke:none;fill-rule:nonzero;fill:rgb(13.72549%,12.156863%,12.54902%);fill-opacity:1;" d="M 85.050781 219.433594 C 85.050781 215.113281 87.882812 211.5625 92.507812 211.5625 C 96.925781 211.5625 99.90625 214.957031 99.90625 219.433594 C 99.90625 223.90625 96.925781 227.304688 92.507812 227.304688 C 87.882812 227.304688 85.050781 223.753906 85.050781 219.433594 Z M 104.941406 219.433594 L 104.941406 207.140625 L 99.601562 207.140625 L 99.601562 210.125 C 97.90625 207.910156 95.335938 206.523438 91.839844 206.523438 C 84.953125 206.523438 79.550781 211.925781 79.550781 219.433594 C 79.550781 226.945312 84.953125 232.34375 91.839844 232.34375 C 95.335938 232.34375 97.90625 230.953125 99.601562 228.742188 L 99.601562 231.726562 L 104.941406 231.726562 Z M 285.453125 219.433594 C 285.453125 215.113281 288.28125 211.5625 292.90625 211.5625 C 297.328125 211.5625 300.308594 214.957031 300.308594 219.433594 C 300.308594 223.90625 297.328125 227.304688 292.90625 227.304688 C 288.28125 227.304688 285.453125 223.753906 285.453125 219.433594 Z M 305.347656 219.433594 L 305.347656 197.269531 L 300 197.269531 L 300 210.125 C 298.304688 207.910156 295.734375 206.523438 292.242188 206.523438 C 285.351562 206.523438 279.953125 211.925781 279.953125 219.433594 C 279.953125 226.945312 285.351562 232.34375 292.242188 232.34375 C 295.734375 232.34375 298.304688 230.953125 300 228.742188 L 300 231.726562 L 305.347656 231.726562 Z M 171.25 211.308594 C 174.691406 211.308594 176.902344 213.46875 177.464844 217.273438 L 164.71875 217.273438 C 165.289062 213.722656 167.441406 211.308594 171.25 211.308594 Z M 171.355469 206.523438 C 164.152344 206.523438 159.117188 211.769531 159.117188 219.433594 C 159.117188 227.25 164.359375 232.34375 171.714844 232.34375 C 175.414062 232.34375 178.800781 231.417969 181.785156 228.898438 L 179.167969 224.9375 C 177.109375 226.578125 174.484375 227.511719 172.019531 227.511719 C 168.578125 227.511719 165.441406 225.914062 164.671875 221.488281 L 182.914062 221.488281 C 182.96875 220.820312 183.019531 220.152344 183.019531 219.433594 C 182.96875 211.769531 178.238281 206.523438 171.355469 206.523438 Z M 235.855469 219.433594 C 235.855469 215.113281 238.683594 211.5625 243.308594 211.5625 C 247.726562 211.5625 250.707031 214.957031 250.707031 219.433594 C 250.707031 223.90625 247.726562 227.304688 243.308594 227.304688 C 238.683594 227.304688 235.855469 223.753906 235.855469 219.433594 Z M 255.742188 219.433594 L 255.742188 207.140625 L 250.402344 207.140625 L 250.402344 210.125 C 248.703125 207.910156 246.136719 206.523438 242.644531 206.523438 C 235.753906 206.523438 230.351562 211.925781 230.351562 219.433594 C 230.351562 226.945312 235.753906 232.34375 242.644531 232.34375 C 246.136719 232.34375 248.703125 230.953125 250.402344 228.742188 L 250.402344 231.726562 L 255.742188 231.726562 Z M 205.6875 219.433594 C 205.6875 226.890625 210.875 232.34375 218.792969 232.34375 C 222.492188 232.34375 224.957031 231.519531 227.628906 229.410156 L 225.066406 225.089844 C 223.058594 226.53125 220.953125 227.304688 218.632812 227.304688 C 214.371094 227.25 211.234375 224.167969 211.234375 219.433594 C 211.234375 214.699219 214.371094 211.613281 218.632812 211.5625 C 220.953125 211.5625 223.058594 212.332031 225.066406 213.773438 L 227.628906 209.453125 C 224.957031 207.347656 222.492188 206.523438 218.792969 206.523438 C 210.875 206.523438 205.6875 211.972656 205.6875 219.433594 Z M 274.558594 206.523438 C 271.472656 206.523438 269.46875 207.964844 268.078125 210.125 L 268.078125 207.140625 L 262.785156 207.140625 L 262.785156 231.726562 L 268.132812 231.726562 L 268.132812 217.941406 C 268.132812 213.875 269.878906 211.613281 273.375 211.613281 C 274.457031 211.613281 275.585938 211.769531 276.714844 212.234375 L 278.363281 207.195312 C 277.179688 206.726562 275.640625 206.523438 274.558594 206.523438 Z M 131.363281 209.09375 C 128.792969 207.398438 125.25 206.523438 121.34375 206.523438 C 115.121094 206.523438 111.113281 209.507812 111.113281 214.394531 C 111.113281 218.402344 114.097656 220.875 119.589844 221.644531 L 122.113281 222.003906 C 125.042969 222.417969 126.425781 223.1875 126.425781 224.578125 C 126.425781 226.480469 124.472656 227.5625 120.824219 227.5625 C 117.125 227.5625 114.453125 226.378906 112.65625 224.992188 L 110.136719 229.152344 C 113.066406 231.3125 116.765625 232.34375 120.773438 232.34375 C 127.867188 232.34375 131.980469 229 131.980469 224.320312 C 131.980469 219.996094 128.746094 217.738281 123.398438 216.964844 L 120.878906 216.601562 C 118.566406 216.292969 116.714844 215.835938 116.714844 214.1875 C 116.714844 212.386719 118.460938 211.308594 121.390625 211.308594 C 124.527344 211.308594 127.5625 212.492188 129.050781 213.417969 Z M 200.285156 206.523438 C 197.203125 206.523438 195.199219 207.964844 193.816406 210.125 L 193.816406 207.140625 L 188.519531 207.140625 L 188.519531 231.726562 L 193.863281 231.726562 L 193.863281 217.941406 C 193.863281 213.875 195.609375 211.613281 199.105469 211.613281 C 200.1875 211.613281 201.316406 211.769531 202.445312 212.234375 L 204.09375 207.195312 C 202.910156 206.726562 201.367188 206.523438 200.285156 206.523438 Z M 154.699219 207.140625 L 145.964844 207.140625 L 145.964844 199.679688 L 140.5625 199.679688 L 140.5625 207.140625 L 135.582031 207.140625 L 135.582031 212.027344 L 140.5625 212.027344 L 140.5625 223.242188 C 140.5625 228.945312 142.773438 232.34375 149.09375 232.34375 C 151.410156 232.34375 154.082031 231.625 155.777344 230.441406 L 154.234375 225.863281 C 152.640625 226.785156 150.894531 227.25 149.503906 227.25 C 146.835938 227.25 145.964844 225.601562 145.964844 223.136719 L 145.964844 212.027344 L 154.699219 212.027344 Z M 74.828125 231.726562 L 74.828125 216.292969 C 74.828125 210.484375 71.128906 206.574219 65.164062 206.523438 C 62.027344 206.46875 58.792969 207.445312 56.527344 210.894531 C 54.832031 208.171875 52.160156 206.523438 48.40625 206.523438 C 45.785156 206.523438 43.21875 207.292969 41.214844 210.171875 L 41.214844 207.140625 L 35.867188 207.140625 L 35.867188 231.726562 L 41.261719 231.726562 L 41.261719 218.097656 C 41.261719 213.828125 43.625 211.5625 47.277344 211.5625 C 50.824219 211.5625 52.621094 213.875 52.621094 218.042969 L 52.621094 231.726562 L 58.019531 231.726562 L 58.019531 218.097656 C 58.019531 213.828125 60.484375 211.5625 64.03125 211.5625 C 67.679688 211.5625 69.425781 213.875 69.425781 218.042969 L 69.425781 231.726562 Z M 74.828125 231.726562 "/>
<path style=" stroke:none;fill-rule:nonzero;fill:rgb(100%,37.254902%,0%);fill-opacity:1;" d="M 210.769531 165.410156 L 129.8125 165.410156 L 129.8125 19.808594 L 210.769531 19.808594 Z M 210.769531 165.410156 "/>
<path style=" stroke:none;fill-rule:nonzero;fill:rgb(92.156863%,0%,10.588235%);fill-opacity:1;" d="M 134.996094 92.597656 C 134.996094 63.0625 148.816406 36.753906 170.335938 19.796875 C 154.597656 7.398438 134.738281 0 113.15625 0 C 62.054688 0 20.636719 41.457031 20.636719 92.597656 C 20.636719 143.742188 62.054688 185.199219 113.15625 185.199219 C 134.738281 185.199219 154.597656 177.796875 170.335938 165.398438 C 148.816406 148.445312 134.996094 122.136719 134.996094 92.597656 Z M 134.996094 92.597656 "/>
<path style=" stroke:none;fill-rule:nonzero;fill:rgb(96.862745%,61.960784%,10.588235%);fill-opacity:1;" d="M 319.953125 92.597656 C 319.953125 143.742188 278.535156 185.199219 227.433594 185.199219 C 205.851562 185.199219 185.992188 177.796875 170.246094 165.398438 C 191.773438 148.445312 205.59375 122.136719 205.59375 92.597656 C 205.59375 63.0625 191.773438 36.753906 170.246094 19.796875 C 185.992188 7.398438 205.851562 0 227.433594 0 C 278.535156 0 319.953125 41.457031 319.953125 92.597656 Z M 319.953125 92.597656 "/>
</g>
</svg>
