<svg id="Master_Card" data-name="Master Card" xmlns="http://www.w3.org/2000/svg" width="340" height="190" viewBox="0 0 340 190">
  <defs>
    <style>
      .cls-1 {
        fill-rule: evenodd;
      }
    </style>
  </defs>
  <path id="Master_Card-2" data-name="Master Card" class="cls-1" d="M139.438,40.01c9.825-.159,17.307,1.038,23.643,4.342a49.271,49.271,0,0,1,5.327,3.173c0.635,0.446,1.649,1.677,2.331,1.5,1.243-.41,2.29-1.645,3.33-2.338a53.69,53.69,0,0,1,5.5-3.006c4.032-2.029,8.783-2.353,13.652-3.674h5.494a36.507,36.507,0,0,1,15.318,3.34c11.491,5.209,18.126,11.887,23.642,23.044A42.08,42.08,0,0,1,239,70.735a35.415,35.415,0,0,1,2,12.357v4.676c-0.679,2.922-.732,5.956-1.665,8.683-4.923,14.386-14.022,23.5-28.138,28.721-5.266,1.95-14.941,3.465-21.81,1.67a57.121,57.121,0,0,1-12.987-4.675c-1.52-.83-4.55-3.647-6.16-3.841-1.435,1.983-4.332,2.9-6.493,4.175-7.3,4.31-21.99,7.036-32.3,3.339-14.9-5.342-24.158-14.23-29.3-29.388-1.778-5.237-3.059-14.279-1.332-20.873,4.142-15.822,11.742-25.262,24.974-31.894,2.818-1.412,6.257-2.157,9.49-3.006C136.575,40.338,138.5,40.728,139.438,40.01Zm92.238,93.177h2.5v16.2h-0.333a4.518,4.518,0,0,1-2,.167l-0.333-1.169a9.361,9.361,0,0,1-3,1.5c-3.672.878-7.516-4.31-6.16-8.349,0.7-2.1,3.326-5.059,6.992-4.008,0.878,0.252,1.392.959,2.331,1.169v-5.51ZM156.587,140.2a11.524,11.524,0,0,1-2.331-.167v-2.171a11.44,11.44,0,0,0,2.331-.167v-3.34h0.333a4.533,4.533,0,0,1,2-.167,12.36,12.36,0,0,1,.167,3.34c0.908,0.479,2.75.355,4.162,0.334a6.893,6.893,0,0,1,.167,2c-0.908.479-2.751,0.354-4.163,0.334-0.433,1.291-.18,3.583-0.166,5.176,0.231,0.357.247,1.013,0.5,1.336,0.486,0.508,1.11.532,2.165,0.5a1.4,1.4,0,0,1,1.332-.334,3.594,3.594,0,0,1,.666,2c-2.417,1.425-6.953,1.366-6.993-2.338C156.255,145.759,156.568,141.515,156.587,140.2Zm-49.282-2.338h2.5a2.843,2.843,0,0,0,.167,1c1.271-.85,3.287-2.025,5.494-1A13.229,13.229,0,0,1,116.8,139.2c0.218,0.078,2.279-1.5,2.831-1.67a6.233,6.233,0,0,1,3.329.334c3.741,1.62,2.891,6.18,2.831,11.355a5.361,5.361,0,0,1-2.5.334c-0.651-1.954-.18-5.383-0.166-7.681-0.467-.542-0.419-1.206-1.166-1.5-1.144-1.137-3.072-.11-3.662.835-1.093,1.4-.523,5.881-0.5,8.182a8.226,8.226,0,0,1-2.331.167c-0.854-1.652-.353-5.569-0.333-7.848a1.958,1.958,0,0,1-.333-0.835,3.791,3.791,0,0,0-2.664-1c-0.922.694-1.861,0.646-2,2.171-0.554.876-.185,5.877-0.166,7.347h-0.333a3.81,3.81,0,0,1-2.331,0V137.862Zm29.969,0h2.664v11.522H139.6a3.81,3.81,0,0,1-2.331,0v-0.835c-1.067.24-1.885,1.054-3,1.336-2.657.674-5.6-2.39-6.16-4.008-1.413-4.088,2.132-9.894,6.993-8.349,0.792,0.252,1.331.914,2.164,1.169v-0.835Zm8.658-.334c2.265-.088,5.878-0.2,6.326,1.5l-1,1.67c-1.041-.261-3.38-1.593-4.828-0.668a1.225,1.225,0,0,0-1,1.336,1.911,1.911,0,0,1,.333.5c2,0.194,5.737.674,6.327,2.337,0.787,0.817.523,2.532,0,3.34a5.4,5.4,0,0,1-5.994,2c-1.551-.435-3.476-0.09-3.663-1.837,0.575-.485.536-1.2,1.332-1.5,1.014,1.331,3.3,1.123,5.328,1a2.641,2.641,0,0,0,.666-0.835,1.128,1.128,0,0,0,.167-0.668c-3.257-1.89-7.287-.082-7.16-5.677,0.448-.379.54-1.15,1-1.5C144.378,138.061,145.324,138.006,145.932,137.528Zm23.642,0c4.724-.114,7.949,2.323,6.993,7.013h-8.325a2.4,2.4,0,0,0-.167.668c0.834,0.913.948,1.923,2.664,2,1.434,0.915,3.346-1.054,4.163-.835a4.832,4.832,0,0,1,1.165,1.837H175.9c-3.685,3.907-12.4.566-10.49-6.345a6.692,6.692,0,0,1,2.5-3.674A10.43,10.43,0,0,0,169.574,137.528Zm12.154,0.334V138.7h0.333c0.725-1.15,2.944-1.555,4.5-.835l-0.666,2.171a2.351,2.351,0,0,1-.666.167c-0.825-.679-1.842-0.074-2.664.167-1.035,2.094-.844,5.753-0.832,9.017a8.226,8.226,0,0,1-2.331.167c-0.817-1.59-.349-8.966-0.333-11.522A9.561,9.561,0,0,1,181.728,137.862Zm9.99-.334c2.319-.092,5.447-0.157,5.827,1.67-0.545.576-.56,1.462-1.5,1.67-0.987-1.213-2.763-.842-4.328-0.668a22.931,22.931,0,0,1-1.665,2c-0.056,1.017-.352,2.081.166,2.838,0.452,1.812,1.952,2.248,4.329,2.171a4.082,4.082,0,0,1,2-.835,6.571,6.571,0,0,1,1,2.171c-1.2.409-3,1.933-4.995,1.336-2.942-.882-6.149-3.02-5.161-7.18a8.532,8.532,0,0,1,.333-2,7.587,7.587,0,0,1,2.331-2.5A12.983,12.983,0,0,0,191.718,137.528Zm16.649,0.334h2.5v11.522h-0.333a4.512,4.512,0,0,1-2,.167l-0.333-1.169a10.944,10.944,0,0,1-3,1.5,2.22,2.22,0,0,1-1.5-.334c-1.027-.313-1.58-0.163-2.331-0.668-2.137-1.437-3.321-5.162-2-8.182a6.217,6.217,0,0,1,3.83-3.173c2.335-.682,3.781.712,4.828,1.336,0.2,0.121.141-.092,0.167-0.167A1.453,1.453,0,0,0,208.367,137.862Zm8.325,0V138.7h0.333c0.738-1.176,2.551-1.39,4.329-1v1a2.863,2.863,0,0,0-.5,1.336,2.351,2.351,0,0,1-.666.167c-0.826-.679-1.842-0.074-2.664.167-1.147,1.978-.848,5.837-0.832,9.017a8.232,8.232,0,0,1-2.331.167c-0.817-1.59-.349-8.966-0.333-11.522A9.561,9.561,0,0,1,216.692,137.862Zm-83.247,2a3.466,3.466,0,0,1-1.332.5c-1.542,2.24-1.816,2.483-1,5.51a12.881,12.881,0,0,1,1.831,1.336C139.191,147.449,138.655,139.766,133.445,139.866Zm34.63,2.672h5.661c0.056-.167.111-0.334,0.167-0.5-0.257-.326-0.251-0.8-0.5-1.169a8.753,8.753,0,0,0-1.332-1C169.615,139.78,168.33,140.472,168.075,142.538Zm36.3-2.672c-0.416.321-1.062,0.356-1.5,0.668a10.775,10.775,0,0,0-1.166,1.5,20.992,20.992,0,0,0,0,3.172c0.749,0.647,1.088,1.666,2.165,2a3.648,3.648,0,0,0,4.495-2.5c0.393-1.3-.287-2.521-0.5-3.339C206.766,140.628,206.311,139.886,204.371,139.866Zm23.309,0c-1.23.912-2.575,0.915-2.663,3.006-1.3,1.951,1.419,3.662,2.164,4.341,3.566,0.108,4.6-1.273,4.495-4.842-0.655-.723-0.792-1.643-1.831-2A3.315,3.315,0,0,0,227.68,139.866Z"/>
</svg>
