<?xml version="1.0" standalone="no"?>
<!DOCTYPE svg PUBLIC "-//W3C//DTD SVG 20010904//EN"
 "http://www.w3.org/TR/2001/REC-SVG-20010904/DTD/svg10.dtd">
<svg version="1.0" xmlns="http://www.w3.org/2000/svg"
 width="600.000000pt" height="330.000000pt" viewBox="0 0 600.000000 330.000000"
 preserveAspectRatio="xMidYMid meet">

<g transform="translate(0.000000,330.000000) scale(0.100000,-0.100000)"
fill="#000000" stroke="none">
<path d="M3630 3104 c-14 -2 -59 -9 -100 -15 -148 -22 -328 -95 -458 -185 -35
-24 -65 -44 -68 -44 -3 0 -32 18 -65 41 -384 260 -896 262 -1284 4 -233 -155
-407 -397 -482 -670 -25 -92 -27 -114 -27 -290 0 -173 3 -198 26 -287 58 -214
163 -393 319 -543 138 -133 278 -218 442 -270 343 -109 710 -57 1009 142 l67
45 48 -37 c72 -55 256 -141 363 -170 601 -159 1218 174 1409 764 41 125 55
219 55 361 -1 315 -117 593 -339 815 -166 166 -374 277 -597 320 -84 16 -272
27 -318 19z"/>
<path d="M4757 1250 c3 -11 7 -20 8 -20 1 0 5 9 8 20 3 12 0 20 -8 20 -8 0
-11 -8 -8 -20z"/>
<path d="M4790 1252 c0 -13 8 -18 25 -18 18 0 25 5 25 19 0 16 -3 17 -15 7
-10 -9 -15 -9 -15 -1 0 6 -4 11 -10 11 -5 0 -10 -8 -10 -18z"/>
<path d="M4630 560 l0 -79 -35 21 c-68 39 -171 5 -201 -68 -20 -49 -18 -123 6
-162 42 -69 147 -96 204 -51 21 17 26 18 26 5 0 -11 9 -16 30 -16 l30 0 0 215
0 215 -30 0 -30 0 0 -80z m-22 -136 c67 -77 -22 -200 -111 -152 -35 18 -46 40
-47 89 0 46 20 77 60 92 28 11 75 -3 98 -29z"/>
<path d="M2638 563 c-3 -46 -4 -48 -35 -51 -29 -3 -33 -7 -33 -33 0 -27 3 -29
35 -29 l35 0 0 -100 c0 -94 2 -103 25 -125 19 -20 34 -25 73 -25 61 0 86 16
77 52 -6 24 -10 26 -32 17 -64 -24 -83 -1 -83 102 l0 79 55 0 c54 0 55 0 55
29 0 29 -2 30 -52 33 l-53 3 -3 48 c-3 45 -5 47 -32 47 -27 0 -29 -2 -32 -47z"/>
<path d="M1440 513 c-8 -3 -23 -12 -32 -21 -16 -14 -18 -13 -18 1 0 12 -9 17
-30 17 l-30 0 0 -150 0 -150 30 0 30 0 0 84 c0 45 5 97 11 114 21 61 107 66
129 6 6 -14 10 -66 10 -115 l0 -89 30 0 30 0 0 84 c0 45 5 97 11 114 21 61
107 66 129 6 6 -14 10 -66 10 -115 l0 -89 30 0 30 0 0 120 c0 117 -1 120 -28
151 -40 45 -111 52 -163 16 l-37 -25 -20 20 c-20 21 -93 33 -122 21z"/>
<path d="M1965 507 c-38 -18 -60 -43 -80 -92 -54 -128 85 -262 205 -200 17 9
30 11 30 5 0 -5 16 -10 35 -10 l35 0 0 150 0 150 -35 0 c-26 0 -35 -4 -35 -17
0 -15 -2 -14 -20 2 -25 23 -97 29 -135 12z m109 -61 c68 -28 70 -138 4 -172
-45 -23 -94 -11 -118 29 -33 54 -20 115 31 143 31 17 42 17 83 0z"/>
<path d="M2323 506 c-37 -17 -53 -43 -53 -86 0 -47 35 -75 110 -88 73 -13 90
-24 74 -50 -15 -23 -103 -28 -142 -8 -28 15 -30 14 -41 -11 -14 -30 -9 -36 38
-52 125 -41 249 28 211 119 -14 33 -55 55 -123 65 -52 7 -68 25 -46 51 13 16
72 16 125 -1 15 -5 23 0 32 19 10 22 9 27 -10 37 -34 19 -139 21 -175 5z"/>
<path d="M2951 503 c-54 -28 -75 -64 -79 -136 -4 -72 16 -114 70 -148 41 -25
140 -23 182 4 25 17 25 19 10 42 -15 23 -18 24 -44 10 -45 -23 -97 -19 -125
10 -14 13 -25 29 -25 35 0 6 40 10 109 10 61 0 112 4 115 9 4 5 1 32 -4 59
-22 99 -123 150 -209 105z m119 -63 c39 -39 27 -50 -55 -50 -82 0 -89 7 -50
45 30 31 77 33 105 5z"/>
<path d="M3326 499 c-21 -17 -26 -18 -26 -5 0 12 -10 16 -35 16 l-35 0 0 -150
0 -150 35 0 35 0 0 100 c0 95 2 102 26 127 19 19 32 24 54 20 24 -5 30 -2 38
23 6 15 8 31 5 34 -14 14 -72 5 -97 -15z"/>
<path d="M3532 499 c-110 -55 -109 -230 2 -283 43 -20 118 -21 156 -1 34 17
35 22 15 49 -12 16 -18 17 -46 7 -51 -18 -78 -13 -110 18 -22 23 -29 39 -29
69 0 76 63 118 134 88 34 -14 36 -14 51 7 21 31 19 36 -20 53 -49 20 -103 18
-153 -7z"/>
<path d="M3842 503 c-49 -24 -75 -68 -80 -132 -4 -68 17 -115 67 -148 45 -30
118 -31 155 -2 21 17 26 18 26 5 0 -11 9 -16 30 -16 l30 0 0 150 0 150 -30 0
c-20 0 -30 -5 -30 -15 0 -12 -6 -11 -32 5 -40 24 -91 25 -136 3z m146 -79 c33
-38 30 -97 -7 -135 -37 -37 -79 -38 -120 -3 -27 22 -31 33 -31 73 0 48 20 79
60 94 28 11 75 -3 98 -29z"/>
<path d="M4265 508 c-11 -6 -23 -16 -27 -22 -5 -7 -8 -4 -8 7 0 13 -8 17 -35
17 l-35 0 0 -150 0 -150 35 0 35 0 0 103 c0 124 9 142 68 141 40 -1 51 10 52
54 0 15 -58 16 -85 0z"/>
<path d="M4780 234 c-11 -12 -10 -18 5 -32 10 -9 15 -12 12 -7 -3 6 3 16 14
23 20 13 26 4 9 -16 -5 -7 -2 -6 7 2 13 12 14 18 3 30 -7 9 -18 16 -25 16 -7
0 -18 -7 -25 -16z m28 -1 c-10 -2 -18 -9 -18 -15 0 -6 -3 -9 -6 -5 -10 10 6
27 24 26 15 -1 15 -2 0 -6z"/>
</g>
</svg>
