<?xml version="1.0" standalone="no"?>
<!DOCTYPE svg PUBLIC "-//W3C//DTD SVG 20010904//EN"
 "http://www.w3.org/TR/2001/REC-SVG-20010904/DTD/svg10.dtd">
<svg version="1.0" xmlns="http://www.w3.org/2000/svg"
 width="1200.000000pt" height="660.000000pt" viewBox="0 0 1200.000000 660.000000"
 preserveAspectRatio="xMidYMid meet">
<metadata>
Created by potrace 1.13, written by Peter Selinger 2001-2015
</metadata>
<g transform="translate(0.000000,660.000000) scale(0.100000,-0.100000)"
fill="#000000" stroke="none">
<path d="M5847 6163 c-4 -4 -34 -10 -65 -14 -101 -12 -257 -45 -367 -79 -54
-16 -116 -42 -241 -101 -23 -10 -44 -19 -48 -19 -4 0 -26 -13 -49 -28 -23 -16
-69 -46 -102 -68 -299 -196 -475 -395 -639 -723 -91 -180 -142 -328 -168 -481
-5 -30 -13 -80 -18 -111 -13 -71 -13 -446 -1 -501 29 -128 82 -331 100 -383
50 -139 163 -344 268 -484 110 -148 370 -383 493 -446 19 -10 49 -28 65 -40
63 -48 403 -181 485 -191 30 -3 82 -13 115 -22 93 -25 537 -24 660 1 173 36
354 96 486 162 109 55 260 147 280 171 7 9 30 27 49 40 76 52 134 103 220 197
82 90 240 298 240 316 0 4 18 43 41 87 22 43 49 95 59 114 9 19 24 58 33 85 8
28 27 80 40 117 14 36 29 93 33 125 3 32 11 69 16 83 30 80 37 410 13 596 -19
152 -103 419 -177 569 -46 91 -175 290 -228 350 -143 162 -258 265 -391 351
-41 26 -86 55 -100 65 -149 101 -553 240 -699 241 -19 0 -43 4 -52 9 -22 12
-341 23 -351 12z m478 -193 c690 -143 1204 -657 1347 -1345 19 -95 23 -140 23
-325 0 -185 -4 -230 -23 -325 -96 -462 -360 -851 -746 -1100 -246 -158 -491
-242 -781 -267 -470 -39 -929 116 -1286 435 -239 213 -420 510 -503 824 -131
497 -29 1029 279 1448 81 110 261 287 374 366 235 165 520 276 796 309 120 15
407 3 520 -20z"/>
<path d="M6136 5859 c-35 -27 -69 -96 -97 -195 -12 -43 -27 -85 -32 -91 -17
-23 -57 -15 -83 16 -33 40 -112 91 -140 91 -27 0 -32 -13 -40 -101 -4 -38 -12
-75 -18 -83 -6 -7 -49 -28 -96 -46 -47 -18 -130 -56 -185 -83 -216 -107 -295
-185 -340 -334 -2 -6 -31 -30 -65 -53 -93 -63 -192 -152 -255 -228 -53 -65
-135 -189 -135 -204 0 -22 30 0 108 79 114 113 277 243 365 289 40 21 72 44
75 56 2 10 19 49 37 86 52 109 103 151 300 247 226 111 367 165 434 165 21 0
23 -3 18 -35 -5 -30 -3 -35 15 -35 36 0 73 52 92 130 46 190 97 252 171 204
32 -21 115 -134 150 -204 57 -113 95 -260 95 -367 0 -60 -1 -63 -24 -63 -43 0
-40 -20 9 -70 53 -54 130 -92 188 -94 31 -1 44 5 63 27 14 16 24 41 24 58 0
20 5 29 17 29 19 0 142 -92 190 -142 49 -51 99 -141 118 -213 33 -119 49 -73
43 113 -5 141 -23 203 -84 300 -33 50 -45 102 -24 102 5 0 33 -9 61 -20 28
-12 57 -19 63 -17 13 4 -70 86 -154 149 -36 27 -123 78 -195 113 -118 59 -135
70 -180 126 -49 60 -165 164 -275 247 -99 74 -165 89 -214 51z"/>
<path d="M6210 5468 c-21 -35 -34 -98 -26 -125 3 -10 23 -29 43 -43 20 -14 63
-49 95 -78 31 -30 61 -51 67 -48 11 7 -11 124 -38 196 -25 66 -75 130 -102
130 -11 0 -28 -14 -39 -32z"/>
<path d="M5694 5319 c-16 -17 -68 -51 -116 -76 -80 -41 -138 -89 -138 -114 0
-5 22 2 49 16 27 13 84 34 128 45 43 11 92 26 108 32 43 16 95 57 95 74 0 16
-56 54 -81 54 -8 0 -28 -14 -45 -31z"/>
<path d="M5940 5320 c27 -37 24 -42 -75 -115 -51 -37 -78 -66 -96 -101 l-25
-49 -100 0 c-77 0 -109 -4 -143 -20 l-43 -19 -25 29 c-24 28 -26 28 -39 10
-21 -29 -17 -63 11 -91 14 -14 25 -34 25 -46 0 -11 -11 -33 -25 -50 -14 -16
-25 -41 -25 -54 0 -57 42 -86 59 -41 5 12 22 37 39 55 25 27 37 32 75 32 37 0
55 7 91 35 70 53 82 46 45 -28 -49 -95 -124 -161 -208 -183 -56 -14 -62 -29
-19 -42 94 -30 188 -20 226 21 11 12 26 43 35 69 14 43 53 107 136 227 33 46
29 71 -10 71 -23 0 -32 15 -16 28 6 5 63 37 126 71 115 62 140 82 141 114 0
31 -52 73 -112 91 -73 21 -73 21 -48 -14z"/>
<path d="M6281 5023 c26 -60 35 -179 20 -264 -6 -36 -42 -149 -81 -252 -97
-259 -95 -291 37 -490 75 -115 113 -191 113 -230 0 -89 80 60 88 163 6 88 -7
139 -70 270 -50 105 -67 173 -50 199 8 10 22 3 66 -32 62 -52 95 -71 103 -63
3 3 -5 29 -18 58 -21 48 -24 72 -29 249 l-5 195 -33 65 c-33 65 -129 179 -150
179 -7 0 -4 -17 9 -47z"/>
<path d="M6040 5020 c-93 -16 -122 -74 -130 -253 -4 -76 -11 -132 -18 -139 -9
-9 -21 -9 -49 0 -55 17 -108 -10 -169 -86 -60 -74 -101 -97 -158 -88 -60 10
-81 28 -122 107 -42 80 -77 104 -136 92 -68 -13 -89 -43 -29 -43 46 0 71 -33
71 -93 0 -29 5 -69 11 -90 24 -87 113 -141 195 -118 97 27 185 2 255 -73 23
-25 46 -43 51 -40 13 8 9 73 -7 103 -8 16 -35 47 -60 69 -25 22 -45 44 -45 50
0 15 63 52 88 52 32 0 85 -52 115 -114 35 -71 55 -161 65 -288 l8 -103 22 46
c75 159 71 332 -10 496 l-32 64 21 82 c45 173 100 271 176 310 32 17 36 22 25
33 -18 18 -95 31 -138 24z"/>
<path d="M7323 4938 c2 -18 14 -81 26 -139 52 -257 39 -636 -28 -812 -8 -21
-17 -27 -39 -27 -29 0 -30 1 -55 108 -41 170 -49 234 -45 342 3 114 -7 128
-43 58 -44 -86 -50 -131 -59 -453 -7 -264 -12 -322 -29 -390 -36 -134 -115
-269 -220 -369 -35 -34 -42 -37 -56 -26 -10 8 -15 23 -12 34 52 222 73 383 64
484 -7 72 1 78 49 31 l33 -32 5 24 c22 95 26 127 26 234 0 120 -16 234 -44
316 -9 24 -16 50 -16 57 0 17 51 15 74 -3 11 -8 28 -15 37 -15 34 0 3 168 -47
255 -28 48 -76 96 -167 164 -68 51 -87 60 -87 41 0 -15 38 -88 70 -135 40 -59
70 -121 70 -146 0 -17 -4 -20 -22 -16 -13 3 -50 13 -83 21 -33 8 -63 12 -68 7
-4 -4 6 -29 23 -54 38 -57 92 -175 113 -247 33 -114 44 -290 18 -290 -3 0 -38
16 -78 36 -73 38 -111 40 -100 6 4 -9 16 -44 28 -77 20 -52 23 -80 23 -215 1
-104 -4 -171 -13 -202 -19 -68 -41 -64 -64 12 -20 69 -33 70 -61 5 -24 -60
-95 -137 -160 -175 -76 -43 -104 -40 -71 7 28 40 45 130 35 184 -12 65 -31 99
-75 138 -49 43 -98 61 -164 61 -151 0 -278 -135 -356 -378 l-27 -84 -82 4
c-101 4 -185 39 -216 90 -25 42 -25 63 1 113 28 54 45 65 98 65 96 0 285 122
353 229 50 79 32 183 -48 271 -71 78 -171 120 -290 120 -117 0 -166 -23 -389
-184 -49 -36 -100 -65 -113 -66 -87 -1 -160 49 -206 141 -37 74 -34 102 24
216 28 54 49 106 48 116 -4 24 -109 67 -163 67 -22 0 -54 -9 -72 -20 l-32 -19
-16 22 c-21 30 -44 14 -69 -45 -27 -65 -17 -90 72 -178 51 -51 85 -94 102
-130 71 -158 179 -260 273 -260 9 0 44 -25 79 -56 72 -64 110 -87 141 -82 20
3 21 8 18 116 l-3 113 39 34 c119 109 287 124 369 34 19 -21 18 -21 -19 -51
-44 -35 -65 -74 -98 -176 -13 -40 -36 -88 -52 -107 -24 -29 -35 -35 -68 -35
-21 0 -59 9 -84 21 -24 11 -49 18 -55 14 -16 -10 -11 -85 11 -145 11 -30 27
-77 35 -105 46 -145 127 -190 404 -224 132 -17 130 -17 130 27 0 94 35 230 79
302 22 38 93 110 123 126 44 23 112 18 147 -11 84 -72 56 -235 -64 -372 -25
-28 -45 -56 -45 -61 0 -41 236 1 362 64 58 29 68 30 68 4 0 -52 -83 -239 -148
-335 -23 -34 -37 -64 -32 -69 12 -12 178 43 288 94 180 85 312 180 457 331
185 192 306 419 371 694 26 111 28 136 29 320 0 172 -4 214 -23 304 -26 114
-71 250 -108 324 -28 55 -38 60 -31 15z"/>
<path d="M5049 4523 c-43 -39 -73 -87 -66 -106 2 -7 25 9 53 36 27 27 66 58
87 68 46 24 47 39 2 39 -26 0 -45 -9 -76 -37z"/>
<path d="M5118 4430 c-44 -24 -116 -115 -147 -188 -24 -58 -19 -83 8 -42 74
112 174 190 243 190 35 0 36 13 2 39 -33 26 -58 26 -106 1z"/>
<path d="M5185 4294 c-56 -29 -93 -63 -134 -125 -41 -61 -59 -105 -48 -116 4
-3 31 17 61 45 97 88 177 113 224 70 l24 -23 19 24 c66 81 -46 177 -146 125z"/>
<path d="M5820 2135 c-14 -17 -4 -1273 10 -1290 16 -20 97 -41 210 -56 186
-24 341 -12 477 36 64 23 89 39 141 89 103 99 146 205 146 366 0 145 -28 221
-118 318 -94 101 -131 114 -344 121 -132 5 -175 9 -181 20 -5 8 -6 95 -4 195
5 150 3 183 -8 193 -19 15 -317 22 -329 8z m540 -638 c37 -18 51 -34 75 -82
27 -53 30 -70 30 -150 0 -121 -30 -189 -101 -231 -66 -39 -162 -46 -193 -15
-20 20 -21 31 -21 239 0 264 -2 260 110 261 38 0 69 -7 100 -22z"/>
<path d="M9019 2138 c-1 -7 -1 -308 1 -668 2 -476 5 -657 14 -662 6 -5 81 -7
166 -5 l155 2 3 203 c2 192 3 202 22 202 11 0 24 -9 30 -20 5 -10 47 -67 91
-126 45 -59 94 -128 110 -152 15 -25 42 -60 59 -79 l31 -33 181 2 c116 2 183
7 185 14 3 10 -67 110 -152 214 -126 155 -195 245 -195 256 0 7 15 31 33 53
17 23 57 73 87 111 30 39 90 111 133 161 43 50 76 96 74 102 -3 9 -59 12 -192
12 l-189 0 -49 -60 c-55 -67 -149 -189 -187 -244 -15 -20 -36 -37 -50 -39
l-23 -4 6 376 c7 365 7 375 -12 386 -30 15 -331 13 -332 -2z"/>
<path d="M2095 2006 c-8 -18 -19 -76 -25 -127 -6 -52 -17 -143 -24 -204 -16
-131 -40 -289 -66 -420 -11 -54 -23 -144 -50 -364 -5 -41 -7 -79 -4 -83 9 -14
310 -10 322 5 9 10 28 149 37 272 4 50 32 297 44 390 6 39 10 80 10 93 1 36
27 25 45 -18 9 -22 16 -46 16 -53 0 -7 14 -45 31 -85 30 -73 135 -371 150
-427 18 -67 50 -150 66 -167 13 -15 32 -18 109 -18 65 0 97 4 106 14 12 11 57
132 129 341 5 17 31 89 56 160 25 72 57 163 70 203 41 121 56 99 79 -108 7
-69 21 -186 30 -260 9 -74 17 -153 19 -175 9 -104 19 -161 29 -167 6 -4 75 -8
152 -8 158 0 170 5 161 62 -7 44 -26 161 -37 223 -27 156 -57 374 -75 540 -8
77 -19 153 -24 170 -5 16 -12 68 -16 115 -10 137 0 131 -228 128 l-192 -3 -24
-60 c-13 -33 -27 -73 -32 -90 -18 -66 -60 -197 -104 -320 -25 -71 -50 -143
-55 -160 -5 -16 -13 -43 -17 -60 -5 -16 -17 -31 -25 -33 -15 -3 -28 25 -52
113 -3 11 -23 72 -46 135 -22 63 -45 129 -49 145 -5 17 -14 44 -19 60 -6 17
-27 83 -47 147 -21 64 -44 119 -52 122 -8 4 -98 6 -199 6 l-185 0 -14 -34z"/>
<path d="M4040 1749 c-19 -4 -69 -12 -110 -18 -100 -14 -181 -31 -202 -42 -25
-13 -23 -41 9 -113 39 -91 43 -93 100 -73 47 16 138 33 236 44 71 8 132 -13
168 -56 19 -23 29 -45 27 -61 -3 -23 -8 -26 -68 -32 -316 -32 -435 -69 -511
-160 -58 -71 -71 -139 -43 -236 41 -143 225 -225 499 -225 131 1 285 20 360
45 l70 23 0 345 0 345 -38 62 c-33 55 -46 66 -103 93 -35 17 -90 36 -122 41
-31 6 -76 14 -100 20 -49 10 -122 10 -172 -2z m228 -638 c2 -71 -1 -108 -10
-118 -9 -12 -33 -14 -114 -11 -97 3 -104 5 -141 34 -39 32 -51 69 -39 120 12
48 118 83 241 80 l60 -1 3 -104z"/>
<path d="M7250 1750 c-19 -5 -69 -13 -110 -19 -169 -23 -220 -41 -220 -75 0
-14 4 -27 9 -30 4 -3 18 -32 30 -65 12 -32 27 -61 35 -64 7 -3 51 4 97 14 158
37 169 39 214 39 59 0 151 -41 166 -74 6 -13 9 -36 5 -49 -5 -23 -12 -26 -73
-30 -232 -16 -375 -56 -467 -131 -116 -95 -116 -266 1 -378 118 -113 441 -144
766 -74 37 8 75 20 83 26 12 10 14 65 14 325 0 287 -2 317 -20 371 -39 111
-138 184 -280 204 -114 17 -207 20 -250 10z m218 -542 c8 -8 12 -46 12 -104 0
-119 -5 -124 -109 -124 -128 0 -211 42 -211 107 0 38 17 60 68 90 62 37 215
56 240 31z"/>
<path d="M8298 1755 c-4 -4 -44 -11 -90 -16 -108 -11 -267 -51 -269 -68 0 -3
-1 -198 -3 -433 -2 -356 0 -428 12 -433 22 -8 286 -5 300 4 11 6 13 73 12 335
l-1 326 25 25 c23 23 33 25 110 25 81 0 88 -2 118 -29 l33 -30 -4 -315 c-2
-240 0 -320 9 -331 18 -21 312 -22 329 -1 15 17 3 711 -12 741 -40 80 -111
135 -208 161 -117 30 -345 55 -361 39z"/>
<path d="M4581 1721 c-16 -10 -11 -20 146 -349 34 -73 63 -135 63 -139 0 -4
21 -52 46 -107 25 -56 56 -123 69 -151 13 -27 35 -78 50 -112 l28 -63 -50
-102 c-111 -229 -116 -241 -106 -257 8 -13 36 -17 154 -19 79 -1 154 0 167 3
24 6 89 128 153 290 17 44 58 135 90 202 33 67 59 125 59 129 0 7 61 144 115
259 13 28 40 88 60 135 21 47 45 103 55 125 50 111 60 139 53 146 -5 4 -84 9
-176 11 -159 3 -169 2 -183 -17 -8 -11 -17 -31 -20 -45 -7 -33 -99 -316 -129
-400 -8 -19 -22 -62 -32 -95 -10 -33 -24 -60 -31 -60 -14 0 -38 57 -97 235
-102 311 -118 356 -133 373 -13 15 -35 17 -176 17 -89 0 -167 -4 -175 -9z"/>
</g>
</svg>
