<?xml version="1.0" standalone="no"?>
<!DOCTYPE svg PUBLIC "-//W3C//DTD SVG 20010904//EN"
 "http://www.w3.org/TR/2001/REC-SVG-20010904/DTD/svg10.dtd">
<svg version="1.0" xmlns="http://www.w3.org/2000/svg"
 width="1200.000000pt" height="660.000000pt" viewBox="0 0 1200.000000 660.000000"
 preserveAspectRatio="xMidYMid meet">
<metadata>
Created by potrace 1.13, written by Peter Selinger 2001-2015
</metadata>
<g transform="translate(0.000000,660.000000) scale(0.100000,-0.100000)"
fill="#000000" stroke="none">
<path d="M4219 6141 c-138 -54 -232 -173 -259 -326 -7 -41 -11 -124 -9 -200 4
-148 18 -187 82 -238 76 -62 198 -41 253 43 26 39 29 54 34 160 5 88 11 125
24 145 38 58 -51 55 1643 55 1525 0 1559 0 1590 -20 49 -29 57 -54 63 -181 4
-101 8 -120 29 -151 80 -117 247 -118 321 -1 l31 48 -3 196 -3 195 -34 68
c-42 82 -116 157 -190 194 l-56 27 -1735 2 c-1650 2 -1737 1 -1781 -16z"/>
<path d="M4044 4970 c-34 -16 -78 -48 -97 -70 -72 -79 -83 -116 -112 -395 -8
-77 -51 -472 -96 -878 -90 -814 -89 -782 -27 -853 37 -42 72 -61 125 -70 79
-12 172 36 210 109 11 21 31 185 68 541 30 281 58 552 64 601 6 50 15 142 22
205 16 159 23 202 33 204 9 1 97 -217 315 -779 62 -159 149 -382 193 -495 83
-214 107 -253 174 -285 76 -36 194 -5 240 63 12 18 51 107 87 199 36 93 97
249 135 348 180 462 265 681 316 810 32 82 60 140 68 140 9 0 15 -23 20 -75 3
-41 12 -120 18 -175 6 -55 15 -138 20 -185 16 -148 31 -292 40 -380 5 -47 14
-130 19 -185 40 -396 53 -504 62 -532 12 -39 88 -110 126 -118 15 -4 34 -8 41
-11 30 -9 112 19 150 52 54 46 77 106 69 182 -4 31 -16 136 -27 232 -11 96
-25 218 -31 270 -5 52 -14 131 -19 175 -28 255 -31 280 -60 550 -21 197 -30
282 -40 390 -6 61 -15 135 -20 166 -17 111 -84 201 -185 249 -54 26 -75 30
-143 30 -92 0 -151 -20 -217 -74 -50 -42 -79 -94 -145 -266 -46 -119 -257
-660 -387 -993 -26 -64 -51 -116 -57 -114 -10 3 -128 297 -383 957 -128 333
-140 357 -198 408 -72 63 -107 76 -215 80 -89 2 -99 0 -156 -28z"/>
<path d="M6569 4937 c-18 -12 -44 -38 -56 -56 l-23 -34 2 -1008 3 -1008 30
-31 c59 -62 31 -60 653 -60 352 0 587 3 615 10 263 58 462 259 504 507 13 80
13 99 0 176 -29 169 -145 335 -289 417 -32 17 -58 34 -58 36 0 2 18 27 40 56
86 112 130 242 130 381 0 108 -14 173 -55 262 -65 142 -174 252 -312 317 -118
56 -136 57 -664 58 l-486 0 -34 -23z m1005 -315 c63 -22 124 -76 161 -143 26
-47 29 -65 30 -134 0 -96 -25 -156 -92 -222 -73 -71 -123 -83 -334 -83 -161 0
-184 -2 -219 -20 -89 -46 -119 -153 -67 -242 46 -79 59 -82 387 -88 278 -5
286 -6 333 -30 200 -102 235 -362 68 -512 -86 -78 -93 -79 -581 -76 l-425 3
-3 774 c-1 460 2 778 7 785 7 8 109 10 348 8 289 -2 345 -5 387 -20z"/>
<path d="M3711 2380 c-39 -9 -77 -36 -103 -71 -37 -50 -47 -310 -16 -439 32
-134 114 -240 226 -293 l67 -32 2050 -3 c1282 -2 2074 1 2113 7 171 26 287
147 328 341 16 78 18 264 3 345 -19 104 -68 147 -168 148 -62 0 -102 -16 -141
-58 -23 -25 -25 -35 -30 -164 -6 -152 -18 -183 -83 -219 -30 -16 -151 -17
-1942 -20 -1050 -2 -1929 0 -1953 3 -55 8 -114 59 -130 113 -7 22 -12 88 -12
147 0 92 -3 111 -21 136 -36 51 -117 76 -188 59z"/>
<path d="M3649 992 c-32 -28 -32 -31 -55 -213 -26 -207 -30 -319 -12 -337 20
-20 76 -15 88 7 5 11 17 80 26 153 8 73 18 155 22 183 l7 49 74 -174 c41 -96
81 -183 89 -192 8 -10 27 -18 42 -18 44 0 49 9 145 240 27 63 54 122 62 130
11 12 13 9 13 -23 0 -21 4 -68 9 -105 6 -37 15 -105 21 -152 7 -47 16 -91 22
-97 15 -18 63 -16 82 3 21 20 20 40 -12 298 l-28 219 -32 28 c-36 33 -60 36
-102 14 -30 -16 -34 -23 -104 -185 -21 -47 -45 -102 -54 -122 -9 -21 -19 -38
-22 -38 -3 0 -12 17 -19 38 -8 20 -27 65 -42 100 -16 34 -29 65 -29 67 0 2
-11 29 -25 59 -44 96 -106 122 -166 68z"/>
<path d="M4335 995 c-24 -24 -25 -28 -25 -183 0 -185 13 -243 66 -302 95 -105
275 -108 360 -6 56 66 64 102 64 297 0 166 -1 180 -20 199 -24 24 -38 25 -68
4 -21 -15 -22 -21 -22 -182 0 -188 -8 -219 -69 -259 -42 -28 -86 -29 -128 -3
-56 34 -63 60 -63 245 0 163 0 166 -25 190 -13 14 -29 25 -35 25 -6 0 -22 -11
-35 -25z"/>
<path d="M4864 995 l-26 -26 4 -197 c3 -212 5 -220 62 -280 48 -52 84 -62 212
-62 111 0 114 1 130 26 16 24 16 27 -3 52 -19 26 -25 27 -127 32 -103 5 -109
6 -132 33 -24 28 -24 32 -24 217 l0 189 -26 20 c-34 27 -40 26 -70 -4z"/>
<path d="M5135 995 c-30 -29 -31 -36 -6 -66 17 -21 30 -25 103 -29 l83 -5 5
-223 c5 -241 6 -242 61 -242 51 0 54 15 54 249 l0 216 81 5 c62 4 87 10 103
24 27 25 26 41 -4 71 -24 25 -24 25 -240 25 -216 0 -216 0 -240 -25z"/>
<path d="M5676 997 c-23 -23 -24 -26 -25 -271 -2 -277 2 -296 59 -296 56 0 60
17 60 293 l0 248 -25 24 c-30 31 -40 31 -69 2z"/>
<path d="M5838 1004 l-28 -15 -1 -247 c-1 -136 0 -256 1 -267 3 -40 26 -45
197 -45 177 0 195 4 245 57 67 71 64 160 -9 247 -18 22 -21 31 -12 42 17 20
14 106 -4 141 -22 41 -70 80 -115 93 -58 16 -242 12 -274 -6z m274 -121 c41
-37 9 -103 -52 -103 -46 0 -77 -40 -58 -75 17 -30 28 -35 86 -35 43 0 58 -5
77 -25 31 -30 31 -52 3 -82 -20 -21 -29 -23 -135 -23 l-113 0 0 180 0 180 87
0 c66 0 91 -4 105 -17z"/>
<path d="M6522 1001 c-60 -21 -94 -49 -128 -106 -24 -42 -34 -94 -59 -300 -12
-105 -12 -123 1 -142 20 -31 68 -31 88 0 8 13 21 87 31 177 19 184 27 211 66
245 74 62 174 11 194 -97 l7 -38 -89 0 c-102 0 -133 -14 -133 -59 0 -45 15
-51 126 -51 117 0 108 7 119 -100 8 -73 25 -100 65 -100 53 0 63 43 40 190 -5
36 -14 101 -20 145 -19 131 -82 215 -186 244 -51 14 -59 14 -122 -8z"/>
<path d="M7360 1002 c-21 -17 -22 -25 -23 -190 -1 -95 -6 -172 -10 -172 -4 -1
-60 66 -123 147 -152 194 -170 213 -209 213 -17 0 -40 -9 -52 -19 -19 -18 -21
-35 -28 -260 -6 -214 -5 -244 9 -266 20 -30 65 -34 89 -7 14 16 17 45 17 190
0 95 3 172 8 172 6 0 57 -63 220 -278 24 -32 52 -65 64 -74 29 -26 74 -23 103
7 l25 24 0 243 c0 134 -4 248 -8 254 -7 10 -45 34 -55 34 -3 0 -15 -8 -27 -18z"/>
<path d="M7641 1006 c-49 -18 -111 -74 -132 -120 -15 -33 -19 -66 -19 -164 0
-138 10 -175 63 -230 50 -52 84 -62 217 -62 101 0 119 3 133 18 22 24 21 55
-1 75 -15 13 -39 17 -116 17 -161 0 -186 26 -186 191 l0 101 34 34 34 34 106
0 c93 0 109 3 126 20 26 26 25 54 -2 80 -19 17 -34 20 -122 19 -56 0 -116 -6
-135 -13z"/>
<path d="M8098 1007 c-66 -21 -123 -70 -153 -131 -26 -53 -27 -62 -23 -168 4
-124 15 -156 71 -209 53 -51 98 -69 175 -69 106 0 170 34 223 119 28 43 29 50
29 168 0 94 -4 132 -16 156 -56 112 -191 170 -306 134z m140 -127 c52 -32 72
-74 72 -153 0 -105 -26 -151 -102 -178 -48 -16 -109 2 -144 44 -22 26 -24 37
-24 126 0 107 8 128 64 162 40 24 92 24 134 -1z"/>
</g>
</svg>
