<?xml version="1.0" standalone="no"?>
<!DOCTYPE svg PUBLIC "-//W3C//DTD SVG 20010904//EN"
 "http://www.w3.org/TR/2001/REC-SVG-20010904/DTD/svg10.dtd">
<svg version="1.0" xmlns="http://www.w3.org/2000/svg"
 width="1200.000000pt" height="660.000000pt" viewBox="0 0 1200.000000 660.000000"
 preserveAspectRatio="xMidYMid meet">
<metadata>
Created by potrace 1.13, written by Peter Selinger 2001-2015
</metadata>
<g transform="translate(0.000000,660.000000) scale(0.100000,-0.100000)"
fill="#000000" stroke="none">
<path d="M1396 5744 c-203 -44 -325 -176 -391 -424 -27 -98 -43 -248 -31 -293
9 -37 52 -85 97 -107 46 -24 156 -27 197 -6 70 37 105 99 141 249 33 138 60
176 143 196 63 15 3502 15 3568 0 80 -18 108 -57 144 -206 31 -125 41 -152 74
-186 99 -105 288 -82 351 41 32 63 34 94 11 189 -71 303 -160 444 -322 511
-42 18 -107 36 -145 42 -43 6 -748 9 -1918 9 -1593 -1 -1860 -3 -1919 -15z"/>
<path d="M983 4482 c-116 -42 -134 -73 -163 -297 -30 -236 -109 -802 -119
-865 -5 -30 -42 -285 -82 -566 -67 -467 -72 -515 -60 -554 26 -89 98 -126 228
-118 89 6 140 36 172 100 22 47 32 112 106 688 25 195 54 423 66 505 11 83 26
202 35 265 19 150 33 220 45 220 5 0 21 -19 36 -42 24 -39 268 -625 443 -1063
72 -180 160 -392 191 -462 57 -126 230 -178 366 -110 94 48 98 56 261 482 213
557 305 785 402 990 29 61 61 129 71 153 10 23 25 42 32 42 32 0 55 -131 137
-765 10 -82 31 -240 45 -350 14 -110 30 -234 36 -275 30 -247 42 -285 98 -333
43 -36 103 -51 180 -43 108 10 161 57 169 148 2 30 -10 145 -28 268 -17 118
-35 242 -40 275 -4 33 -26 188 -49 345 -22 157 -61 434 -86 615 -86 626 -82
604 -114 659 -15 28 -41 59 -57 68 -75 44 -254 39 -342 -8 -87 -48 -120 -89
-189 -234 -139 -290 -272 -573 -388 -830 -146 -323 -243 -537 -248 -552 -11
-31 -27 -20 -53 40 -15 31 -40 86 -56 122 -17 36 -48 106 -70 155 -22 50 -52
115 -65 145 -14 30 -105 233 -203 451 -203 450 -218 483 -270 559 -85 124
-180 181 -310 187 -54 2 -90 -2 -127 -15z"/>
<path d="M4035 4481 c-65 -12 -101 -37 -124 -84 l-22 -44 1 -1064 0 -1064 23
-45 c15 -32 35 -52 65 -69 l44 -24 607 -4 c635 -5 737 -1 884 36 281 73 473
292 517 594 18 122 3 223 -52 337 -41 85 -99 152 -246 280 -61 54 -65 74 -25
146 85 156 103 217 103 344 0 106 -18 181 -69 285 -87 176 -245 299 -461 357
-70 19 -110 20 -640 23 -311 2 -583 0 -605 -4z m1124 -371 c80 -13 124 -36
179 -91 119 -120 123 -290 8 -405 -86 -85 -179 -107 -501 -119 -166 -6 -218
-22 -259 -78 -31 -42 -30 -160 1 -203 46 -65 65 -68 403 -75 327 -6 362 -11
475 -65 69 -32 138 -108 161 -176 25 -75 16 -179 -21 -247 -49 -89 -127 -146
-241 -176 -46 -12 -145 -15 -523 -15 -256 0 -474 0 -483 0 -10 0 -27 9 -38 20
-20 20 -20 33 -20 810 l0 789 22 21 c21 19 33 20 397 20 211 0 404 -5 440 -10z"/>
<path d="M7143 4083 c-18 -2 -46 -17 -63 -33 -47 -44 -45 -63 49 -410 11 -41
44 -172 75 -290 30 -118 82 -323 116 -455 34 -132 71 -257 83 -277 48 -87 169
-123 262 -78 55 26 85 69 114 160 22 67 143 486 166 575 22 83 52 150 68 153
18 4 30 -28 87 -228 23 -80 46 -156 50 -170 5 -14 30 -99 55 -190 59 -211 61
-218 104 -263 73 -77 202 -76 279 1 46 46 64 97 137 387 31 121 71 279 90 350
19 72 50 191 69 265 19 74 49 186 65 248 17 62 31 130 31 151 0 108 -166 148
-237 57 -11 -14 -24 -47 -28 -73 -3 -27 -11 -64 -16 -83 -5 -19 -23 -93 -39
-165 -84 -360 -195 -785 -204 -782 -30 10 -62 113 -166 535 -62 252 -119 471
-126 489 -43 98 -191 122 -258 43 -29 -35 -34 -51 -115 -360 -33 -124 -85
-317 -117 -430 -31 -113 -63 -225 -69 -250 -7 -25 -18 -45 -25 -45 -16 0 -44
76 -65 174 -8 36 -23 102 -34 146 -39 164 -94 401 -102 440 -43 202 -78 338
-93 360 -17 26 -73 57 -98 53 -7 0 -27 -3 -45 -5z"/>
<path d="M9656 4076 c-79 -30 -111 -78 -197 -306 -75 -198 -363 -933 -394
-1005 -42 -98 -45 -142 -10 -183 66 -79 175 -61 224 36 10 21 35 87 56 147 71
208 51 197 392 197 l265 0 37 -25 c21 -14 43 -38 48 -54 6 -15 31 -84 55 -152
65 -187 91 -216 183 -207 37 4 56 13 80 36 47 47 41 84 -44 295 -90 222 -74
183 -276 695 -91 234 -176 440 -187 457 -10 18 -33 42 -49 54 -39 27 -130 35
-183 15z m184 -556 c56 -140 106 -265 112 -277 22 -44 15 -45 -217 -44 -121 1
-224 6 -229 11 -6 6 26 99 79 232 48 123 99 251 113 286 13 35 28 60 32 55 5
-4 54 -123 110 -263z"/>
<path d="M10497 4083 c-34 -5 -107 -73 -107 -100 0 -27 41 -127 104 -253 52
-103 67 -129 190 -322 69 -107 117 -215 153 -343 24 -82 26 -108 27 -283 l2
-192 30 -31 c27 -27 37 -30 94 -30 57 -1 66 2 94 30 l31 31 6 248 c7 291 8
297 110 467 39 66 110 188 157 270 47 83 109 190 138 240 72 120 74 158 10
221 -51 51 -88 57 -140 22 -57 -40 -80 -76 -229 -374 -81 -160 -153 -297 -162
-304 -23 -19 -39 0 -91 104 -54 107 -250 488 -274 530 -29 52 -81 77 -143 69z"/>
<path d="M542 1649 c-55 -27 -76 -59 -101 -149 -91 -327 30 -578 319 -665 51
-15 259 -16 2562 -15 2755 1 2553 -4 2688 62 77 37 145 104 182 179 39 78 48
122 48 234 -1 232 -75 359 -218 373 -90 8 -189 -62 -213 -153 -7 -25 -9 -78
-5 -140 7 -111 -1 -134 -52 -158 -21 -9 -524 -11 -2418 -7 -2374 5 -2392 5
-2414 25 -35 31 -51 79 -57 174 -2 47 -12 105 -20 129 -40 110 -190 165 -301
111z"/>
</g>
</svg>
