<?xml version="1.0" standalone="no"?>
<!DOCTYPE svg PUBLIC "-//W3C//DTD SVG 20010904//EN"
 "http://www.w3.org/TR/2001/REC-SVG-20010904/DTD/svg10.dtd">
<svg version="1.0" xmlns="http://www.w3.org/2000/svg"
 width="1200.000000pt" height="660.000000pt" viewBox="0 0 1200.000000 660.000000"
 preserveAspectRatio="xMidYMid meet">
<metadata>
Created by potrace 1.13, written by Peter Selinger 2001-2015
</metadata>
<g transform="translate(0.000000,660.000000) scale(0.100000,-0.100000)"
fill="#000000" stroke="none">
<path d="M5790 6163 c-283 -10 -664 -101 -920 -220 -30 -14 -66 -30 -80 -36
-41 -19 -194 -110 -208 -124 -7 -7 -17 -13 -22 -13 -5 0 -15 -6 -22 -12 -7 -7
-40 -33 -73 -58 -92 -69 -218 -203 -279 -295 -135 -205 -176 -336 -176 -571 0
-223 30 -348 131 -542 59 -113 118 -192 219 -292 98 -99 127 -123 235 -195
229 -153 554 -275 860 -323 213 -34 252 -37 535 -37 277 1 359 6 530 36 396
68 731 209 975 409 244 201 386 422 450 703 21 94 21 381 0 472 -19 79 -61
189 -87 227 -10 14 -18 29 -18 33 0 12 -84 130 -134 189 -147 170 -408 352
-646 449 -25 10 -54 23 -65 28 -34 15 -238 82 -280 91 -335 76 -551 95 -925
81z m590 -108 c109 -17 241 -43 285 -55 17 -5 50 -14 75 -21 70 -18 113 -31
135 -39 11 -5 36 -13 55 -20 64 -22 74 -26 205 -90 145 -71 267 -148 262 -164
-4 -13 -209 -80 -293 -95 -182 -33 -407 1 -605 92 -59 27 -173 66 -252 85 -59
15 -286 16 -341 1 -121 -31 -174 -54 -256 -108 -39 -27 -70 -40 -107 -44 -53
-6 -157 -29 -223 -48 -40 -12 -223 -6 -290 9 -84 19 -196 51 -286 83 -49 17
-99 33 -111 36 -25 6 -32 33 -8 33 8 0 15 5 15 10 0 6 5 10 11 10 6 0 24 9 39
20 33 24 248 131 300 149 19 7 44 17 55 22 34 14 118 41 155 49 19 5 71 18
115 29 110 29 301 62 415 71 137 12 538 3 650 -15z m-202 -385 c79 -13 206
-53 286 -90 148 -69 309 -105 478 -109 155 -4 392 49 520 115 14 8 31 14 38
14 19 0 127 -109 185 -186 47 -62 111 -176 135 -239 24 -63 30 -83 32 -115 l3
-35 -70 -18 c-38 -10 -101 -27 -140 -37 -38 -10 -81 -22 -95 -25 -14 -4 -34
-10 -45 -15 -11 -4 -40 -13 -65 -20 -52 -14 -37 -9 -243 -89 l-157 -62 -108
93 c-59 51 -109 95 -112 98 -8 9 -205 178 -345 296 -225 189 -300 234 -395
234 -30 0 -71 -5 -92 -10 -42 -12 -163 -89 -257 -164 -113 -91 -153 -109 -235
-110 -84 -1 -134 21 -117 52 21 40 271 284 332 325 130 87 304 123 467 97z
m-1583 -76 c38 -14 77 -28 85 -31 8 -4 44 -15 80 -25 150 -44 138 -41 280 -73
107 -24 228 -23 322 4 85 23 111 26 106 12 -1 -5 -32 -40 -68 -78 -105 -110
-120 -131 -120 -168 0 -27 8 -40 39 -67 47 -40 108 -58 196 -58 84 0 124 19
276 131 242 178 314 186 484 54 116 -90 630 -529 712 -608 51 -49 63 -92 37
-135 -22 -38 -52 -52 -114 -52 -47 0 -52 3 -127 73 -205 190 -233 212 -270
208 -33 -3 -2 -45 131 -180 88 -90 146 -157 150 -174 15 -64 -52 -127 -136
-127 -49 0 -51 1 -151 98 -126 121 -160 145 -175 130 -20 -20 -14 -36 42 -95
105 -114 156 -180 156 -206 0 -53 -100 -103 -151 -77 -13 7 -65 53 -116 101
-89 86 -125 105 -137 74 -6 -16 23 -54 113 -147 61 -64 60 -76 -8 -96 -33 -10
-49 -9 -103 8 l-64 20 0 87 c1 76 -2 94 -23 131 -28 48 -94 95 -158 112 -38 9
-43 14 -43 40 0 38 -32 110 -61 137 -38 35 -99 56 -160 55 -48 -1 -60 3 -80
25 -43 45 -98 67 -170 68 -39 0 -77 -6 -93 -15 -23 -12 -30 -12 -49 0 -88 56
-153 64 -226 27 l-43 -22 -122 60 c-152 76 -257 110 -588 195 -138 36 -137 35
-117 99 30 93 62 159 123 250 57 87 226 261 252 261 10 0 50 -12 89 -26z
m-373 -675 c9 -5 27 -9 39 -9 12 0 36 -4 53 -9 17 -5 51 -15 76 -22 71 -18
230 -70 285 -91 28 -11 59 -24 70 -28 11 -4 50 -22 87 -41 l67 -33 -2 -61 c-4
-118 65 -202 174 -213 46 -4 51 -7 65 -41 8 -20 29 -51 46 -69 33 -34 120 -72
165 -72 17 0 39 -14 65 -41 51 -53 119 -82 176 -76 40 4 45 2 65 -28 27 -42
82 -78 143 -95 56 -16 117 -3 176 35 l37 24 56 -24 c97 -43 236 -29 284 28 8
11 31 15 72 16 77 0 140 34 178 97 22 37 31 43 58 44 48 0 127 33 165 68 18
18 40 53 49 79 15 47 17 48 65 54 132 16 212 116 184 227 -10 41 -9 48 6 59
10 7 24 13 31 13 7 0 21 4 31 9 74 40 442 155 607 190 22 5 48 12 58 16 15 6
17 0 17 -70 0 -159 -63 -344 -163 -476 -150 -200 -327 -341 -585 -465 -237
-114 -465 -179 -797 -226 -186 -27 -657 -14 -820 22 -22 5 -69 14 -105 21
-309 57 -630 197 -875 383 -116 88 -287 288 -332 386 -51 113 -53 120 -79 245
-14 72 -19 177 -8 188 8 8 93 -3 116 -14z m945 -231 c12 -11 25 -33 28 -49 10
-44 22 -44 70 0 49 45 97 59 149 41 39 -12 86 -61 86 -89 0 -34 20 -41 59 -20
105 56 213 -15 197 -130 -3 -25 -7 -55 -8 -66 -3 -18 3 -20 72 -20 89 0 119
-15 150 -75 26 -50 25 -93 -1 -140 -28 -50 -65 -70 -131 -70 -70 0 -119 37
-139 106 -16 54 -29 62 -61 40 -13 -9 -43 -16 -70 -16 -41 0 -54 5 -84 33 -26
23 -37 43 -39 67 -3 38 3 37 -98 24 -39 -5 -53 -2 -80 16 -46 31 -67 73 -67
129 0 26 -3 50 -6 54 -3 3 -24 -4 -45 -15 -51 -26 -102 -18 -141 24 -50 54
-32 144 37 174 38 17 93 9 122 -18z"/>
<path d="M8075 3066 c-119 -29 -128 -44 -133 -216 -3 -77 -8 -140 -12 -140 -3
0 -17 12 -31 26 -69 74 -222 91 -333 39 -135 -64 -216 -226 -216 -435 0 -145
43 -255 129 -332 70 -63 153 -88 290 -88 170 0 272 44 342 148 63 96 64 101
64 577 l0 430 -25 2 c-14 1 -47 -4 -75 -11z m-257 -471 c52 -23 81 -52 108
-113 29 -64 32 -174 8 -246 -55 -162 -247 -181 -323 -32 -22 43 -26 63 -26
145 0 85 3 103 28 152 32 65 43 76 94 95 50 17 66 17 111 -1z"/>
<path d="M8600 2814 c-173 -27 -286 -123 -342 -292 -26 -80 -25 -252 3 -334
25 -74 74 -154 120 -192 138 -117 419 -122 566 -10 48 36 109 131 133 208 19
58 21 84 18 184 -6 162 -40 246 -136 341 -74 72 -234 114 -362 95z m148 -218
c79 -41 119 -143 108 -273 -9 -112 -40 -169 -111 -202 -134 -63 -255 24 -271
196 -12 124 22 221 95 270 40 27 135 32 179 9z"/>
<path d="M3135 2796 c-100 -32 -176 -98 -223 -196 l-27 -55 0 -310 0 -310 94
-3 c60 -2 98 1 107 9 11 9 14 63 14 288 0 259 1 278 20 309 43 71 164 83 223
23 l32 -31 3 -287 c2 -186 7 -292 14 -300 12 -15 164 -18 186 -4 10 6 14 70
15 287 2 271 3 280 24 310 28 40 79 64 133 64 56 0 96 -23 120 -70 19 -36 20
-58 20 -309 0 -223 2 -271 14 -278 22 -12 184 -4 188 10 2 7 1 149 -2 317 l-5
305 -29 58 c-36 70 -89 120 -165 156 -47 22 -70 26 -141 26 -71 0 -94 -4 -140
-26 -30 -15 -67 -39 -82 -53 -15 -14 -30 -26 -34 -26 -4 0 -23 15 -44 34 -75
67 -213 94 -315 62z"/>
<path d="M4516 2799 c-122 -18 -235 -101 -287 -209 -64 -133 -63 -354 1 -480
46 -89 154 -166 270 -191 32 -7 92 -9 149 -6 134 8 195 33 272 114 56 59 79
92 79 115 0 16 -12 18 -119 18 -95 0 -121 -3 -132 -16 -40 -48 -167 -61 -239
-24 -45 23 -84 77 -94 131 -6 34 -4 37 19 43 14 4 146 6 293 6 147 0 273 0
280 0 17 0 16 140 -2 207 -36 135 -125 235 -242 271 -84 26 -170 33 -248 21z
m128 -189 c56 0 136 -82 136 -139 0 -21 -4 -21 -180 -21 -161 0 -180 2 -180
17 0 26 47 99 77 119 30 19 89 34 111 28 8 -2 24 -4 36 -4z"/>
<path d="M6800 2800 c-67 -14 -146 -57 -179 -97 -54 -65 -87 -215 -44 -199 8
3 54 6 103 6 87 0 88 0 100 29 20 49 54 73 109 79 100 9 161 -19 161 -76 0
-56 -54 -80 -211 -96 -143 -15 -246 -72 -288 -161 -32 -69 -29 -184 7 -250 52
-95 155 -132 340 -122 106 6 146 15 220 50 55 26 127 103 143 153 18 55 24
433 9 503 -25 114 -142 180 -330 187 -52 2 -115 -1 -140 -6z m256 -475 c10
-25 -16 -147 -37 -176 -40 -57 -151 -86 -214 -57 -46 21 -67 82 -44 130 17 38
54 58 146 79 49 11 97 24 108 29 29 12 35 12 41 -5z"/>
<path d="M5404 2781 c-154 -44 -248 -147 -283 -311 -8 -36 -11 -136 -9 -295
l3 -240 104 -3 c77 -2 107 1 113 10 4 7 8 122 8 256 0 264 4 286 56 333 35 31
102 51 157 47 l42 -3 3 113 3 112 -68 -1 c-37 0 -95 -8 -129 -18z"/>
<path d="M5916 2785 c-75 -21 -155 -80 -203 -153 -57 -84 -65 -115 -70 -264
-4 -110 -2 -135 16 -190 42 -128 117 -205 235 -244 65 -22 222 -24 291 -5 129
36 248 165 257 277 l3 39 -111 3 -111 3 -19 -53 c-25 -69 -66 -98 -141 -98
-77 0 -125 27 -154 87 -21 42 -24 62 -24 168 0 109 2 124 25 165 36 63 80 90
149 90 73 0 116 -26 142 -85 l20 -45 116 0 115 0 -7 46 c-21 140 -106 228
-257 263 -63 15 -211 12 -272 -4z"/>
<path d="M4545 1636 c-118 -28 -209 -99 -253 -196 l-26 -55 -9 -428 c-5 -235
-6 -439 -3 -452 6 -24 10 -25 77 -25 76 0 117 15 143 52 13 18 16 52 16 170 0
143 6 172 29 130 5 -10 34 -31 63 -48 49 -27 61 -29 148 -28 77 0 103 4 136
22 88 45 152 123 188 227 23 65 32 246 17 323 -31 161 -132 269 -287 311 -53
14 -175 13 -239 -3z m198 -201 c19 -8 44 -27 54 -42 43 -64 48 -84 48 -192 0
-90 -4 -112 -23 -148 -29 -56 -58 -81 -105 -94 -125 -33 -214 53 -225 216 -7
127 28 223 96 259 36 19 111 19 155 1z"/>
<path d="M5430 1636 c-135 -25 -206 -83 -240 -195 -12 -39 -19 -75 -15 -81 4
-6 48 -10 109 -10 l102 0 18 41 c22 49 61 69 135 69 84 0 131 -29 131 -79 0
-52 -35 -71 -172 -92 -147 -22 -161 -25 -213 -49 -50 -23 -99 -73 -120 -124
-23 -54 -22 -183 0 -227 42 -82 101 -121 216 -139 157 -25 349 23 431 108 76
79 81 102 79 367 -2 198 -4 235 -20 270 -36 78 -117 124 -258 144 -84 13 -97
13 -183 -3z m238 -513 c9 -121 -67 -203 -188 -203 -59 0 -97 27 -106 77 -14
75 36 124 149 143 28 5 66 14 82 19 50 16 60 10 63 -36z"/>
<path d="M6240 1636 c-64 -17 -92 -30 -128 -61 -90 -76 -136 -201 -136 -370 0
-169 39 -272 138 -363 108 -100 296 -110 391 -21 39 37 45 36 45 -5 0 -45 -26
-115 -53 -144 -28 -30 -89 -62 -119 -62 -34 1 -99 33 -127 64 -24 25 -28 26
-137 26 -62 0 -115 -4 -119 -9 -10 -17 42 -118 84 -163 111 -121 373 -156 515
-69 90 56 159 168 178 288 16 105 4 595 -16 657 -38 117 -121 193 -257 235
-46 14 -201 12 -259 -3z m179 -186 c83 -23 131 -114 131 -245 0 -47 -6 -104
-12 -126 -53 -171 -281 -175 -329 -7 -21 71 -16 204 10 271 30 76 72 109 151
116 8 0 30 -3 49 -9z"/>
<path d="M7145 1638 c-133 -44 -227 -146 -269 -287 -20 -68 -21 -227 -2 -299
31 -114 116 -219 216 -266 62 -28 71 -30 200 -30 128 -1 138 0 197 28 166 76
266 288 234 492 -21 128 -81 240 -160 298 -75 55 -152 76 -278 75 -59 0 -121
-5 -138 -11z m254 -216 c71 -57 99 -190 69 -323 -23 -100 -122 -170 -213 -153
-113 21 -176 138 -161 298 8 86 34 146 77 179 41 30 67 37 138 32 41 -3 62
-11 90 -33z"/>
</g>
</svg>
