<?xml version="1.0" standalone="no"?>
<!DOCTYPE svg PUBLIC "-//W3C//DTD SVG 20010904//EN"
 "http://www.w3.org/TR/2001/REC-SVG-20010904/DTD/svg10.dtd">
<svg version="1.0" xmlns="http://www.w3.org/2000/svg"
 width="1200.000000pt" height="660.000000pt" viewBox="0 0 1200.000000 660.000000"
 preserveAspectRatio="xMidYMid meet">
<metadata>
Created by potrace 1.13, written by Peter Selinger 2001-2015
</metadata>
<g transform="translate(0.000000,660.000000) scale(0.100000,-0.100000)"
fill="#000000" stroke="none">
<path d="M1212 4345 c-107 -20 -177 -42 -268 -85 -68 -31 -196 -109 -214 -129
-3 -3 -25 -24 -50 -45 -60 -53 -164 -179 -189 -228 -33 -66 1 -125 78 -135 37
-5 44 -2 78 34 21 22 61 69 90 105 53 67 161 156 247 203 27 14 90 41 140 58
87 30 98 31 251 31 140 1 169 -2 235 -23 98 -31 149 -54 241 -113 106 -67 162
-62 195 18 13 30 12 38 -1 63 -20 39 -77 82 -177 135 -204 108 -445 149 -656
111z"/>
<path d="M4643 4217 c-64 -43 -61 7 -57 -982 3 -495 5 -908 4 -919 0 -10 15
-33 34 -52 30 -30 40 -34 84 -34 40 0 57 6 81 26 17 14 31 31 31 38 0 15 42
56 57 56 6 0 45 -17 86 -38 132 -68 173 -77 342 -77 156 0 198 8 305 57 182
83 339 274 390 474 25 95 26 237 4 337 -9 40 -36 114 -61 166 -37 79 -59 109
-127 176 -145 146 -307 214 -507 215 -118 0 -223 -25 -335 -80 -44 -22 -85
-40 -90 -40 -6 0 -21 10 -33 21 l-23 22 7 271 c8 304 7 310 -58 360 -42 32
-90 33 -134 3z m783 -821 c228 -60 381 -293 345 -523 -30 -196 -202 -366 -396
-393 -312 -43 -585 226 -538 530 28 176 151 321 327 382 62 21 190 23 262 4z"/>
<path d="M11308 4210 c-24 -20 -38 -41 -43 -67 -4 -21 -6 -155 -6 -298 1 -143
-2 -265 -6 -271 -24 -33 -46 -33 -117 3 -124 62 -178 76 -322 81 -112 3 -143
1 -208 -17 -203 -56 -370 -193 -460 -377 -50 -104 -67 -171 -73 -296 -6 -113
12 -207 58 -316 84 -196 273 -354 494 -411 53 -14 274 -14 333 0 26 6 94 33
151 60 63 30 112 47 123 43 10 -3 25 -19 34 -36 30 -58 61 -78 121 -78 49 0
59 4 89 34 19 19 34 42 34 52 0 11 1 424 3 919 4 896 4 900 -17 938 -39 73
-124 90 -188 37z m-376 -818 c112 -37 203 -111 266 -215 81 -135 82 -322 2
-462 -42 -74 -137 -160 -217 -198 -59 -27 -82 -32 -166 -35 -110 -5 -163 6
-249 50 -236 123 -320 430 -180 657 54 87 166 175 264 206 65 20 214 19 280
-3z"/>
<path d="M6241 4143 c-13 -2 -43 -24 -67 -49 -41 -41 -44 -47 -44 -97 0 -40 6
-63 23 -88 67 -99 180 -105 255 -13 56 68 39 169 -38 225 -27 20 -90 30 -129
22z"/>
<path d="M1318 4009 c-201 -21 -386 -114 -525 -263 -85 -90 -117 -147 -109
-191 9 -44 48 -75 95 -75 43 0 62 16 121 94 117 155 306 248 505 248 135 0
245 -35 381 -122 54 -34 73 -36 113 -16 30 16 51 54 51 93 0 75 -244 206 -425
228 -99 12 -131 12 -207 4z"/>
<path d="M1303 3645 c-141 -31 -307 -155 -369 -277 -65 -128 -64 -118 -64
-604 l0 -443 30 -35 c48 -54 119 -60 170 -13 51 46 51 39 50 491 -1 422 -1
423 22 472 29 62 89 123 153 154 69 33 189 35 257 3 62 -29 128 -91 158 -150
l25 -48 0 -430 c0 -308 3 -436 12 -450 37 -65 105 -89 166 -60 75 35 72 20 69
485 -4 410 -4 416 18 474 27 71 92 141 165 176 69 33 189 34 256 1 68 -32 120
-81 154 -142 l30 -54 5 -442 5 -443 33 -32 c28 -29 39 -33 83 -33 46 0 54 4
85 38 l35 38 -3 462 -3 462 -33 74 c-72 164 -208 280 -384 327 -64 17 -177 18
-250 3 -69 -14 -183 -69 -233 -112 -80 -68 -86 -68 -165 -2 -124 104 -310 146
-477 110z"/>
<path d="M3515 3636 c-194 -63 -335 -179 -431 -355 -50 -92 -75 -183 -81 -296
-19 -339 183 -625 516 -734 52 -17 89 -21 197 -21 119 0 141 3 221 29 101 33
146 56 221 114 164 125 266 318 279 525 20 336 -190 638 -515 738 -108 33
-303 33 -407 0z m331 -240 c201 -53 344 -241 344 -451 0 -188 -107 -349 -285
-432 -49 -22 -78 -28 -158 -31 -134 -6 -209 16 -316 92 -59 42 -137 155 -161
234 -71 229 52 483 277 571 65 25 92 30 163 31 47 0 108 -6 136 -14z"/>
<path d="M6219 3645 c-60 -32 -59 -24 -59 -705 0 -673 -1 -657 54 -694 15 -9
46 -16 75 -16 42 0 54 5 80 30 17 17 33 45 36 63 3 18 5 310 3 650 l-3 619
-37 34 c-31 28 -45 34 -80 34 -24 -1 -55 -7 -69 -15z"/>
<path d="M7045 3645 c-365 -91 -607 -459 -542 -821 49 -272 241 -489 503 -569
108 -34 292 -35 404 -4 86 24 181 71 220 111 75 75 18 208 -89 208 -21 0 -61
-13 -94 -31 -86 -45 -142 -59 -237 -60 -249 -1 -450 185 -467 432 -14 195 91
370 274 457 68 32 89 37 169 40 100 5 173 -11 254 -54 74 -39 96 -44 132 -32
99 33 124 148 46 213 -45 38 -136 82 -220 105 -84 23 -269 26 -353 5z"/>
<path d="M7848 3637 c-14 -12 -31 -32 -37 -43 -8 -17 -16 -907 -11 -1271 0
-12 14 -38 31 -58 29 -32 35 -35 89 -35 47 0 62 4 84 25 14 13 31 36 36 50 6
16 10 201 10 468 0 406 2 445 19 482 63 138 211 192 352 129 36 -16 67 -24 81
-21 13 4 54 38 92 76 l70 70 -21 23 c-32 34 -127 89 -190 109 -85 29 -221 26
-315 -6 -91 -31 -96 -31 -138 0 -45 33 -114 34 -152 2z"/>
<path d="M9160 3637 c-126 -38 -215 -91 -310 -187 -125 -124 -188 -254 -209
-428 -36 -295 133 -600 404 -726 109 -51 146 -59 280 -64 144 -5 198 4 305 48
225 93 410 321 427 526 5 56 3 63 -23 93 -49 54 -136 58 -181 9 -11 -13 -30
-54 -42 -93 -50 -158 -178 -284 -331 -325 -73 -20 -200 -15 -276 10 -106 36
-131 78 -75 127 16 14 201 148 412 298 211 150 393 284 404 299 43 58 15 138
-83 233 -94 91 -210 155 -340 189 -85 22 -272 18 -362 -9z m365 -255 c56 -22
72 -33 79 -55 17 -47 35 -32 -408 -345 -128 -90 -239 -162 -251 -162 -76 0
-84 180 -15 325 38 78 104 152 175 194 91 55 147 70 255 70 80 0 106 -4 165
-27z"/>
</g>
</svg>
