<?xml version="1.0" standalone="no"?>
<!DOCTYPE svg PUBLIC "-//W3C//DTD SVG 20010904//EN"
 "http://www.w3.org/TR/2001/REC-SVG-20010904/DTD/svg10.dtd">
<svg version="1.0" xmlns="http://www.w3.org/2000/svg"
 width="1200.000000pt" height="660.000000pt" viewBox="0 0 1200.000000 660.000000"
 preserveAspectRatio="xMidYMid meet">
<metadata>
Created by potrace 1.13, written by Peter Selinger 2001-2015
</metadata>
<g transform="translate(0.000000,660.000000) scale(0.100000,-0.100000)"
fill="#000000" stroke="none">
<path d="M1653 4442 c-21 -21 -63 -86 -93 -145 -86 -168 -32 -144 -505 -216
-226 -35 -425 -70 -443 -78 -18 -9 -43 -34 -57 -57 l-24 -42 -1 -871 c0 -850
1 -871 20 -895 10 -14 32 -30 47 -37 21 -8 307 -11 1098 -9 1215 3 1108 -5
1147 89 l21 49 84 0 c124 0 158 23 182 125 6 28 29 232 51 454 22 222 43 407
45 411 3 4 35 13 72 20 101 19 242 67 293 100 68 44 91 85 103 184 12 102 -1
165 -42 198 -23 18 -35 19 -96 14 -38 -3 -99 -15 -135 -26 -36 -11 -82 -20
-104 -20 l-39 0 6 68 c36 410 36 413 -32 459 -29 19 -47 23 -116 23 l-82 0 -6
52 c-13 109 -48 116 -322 68 -93 -17 -307 -53 -475 -80 -168 -28 -315 -55
-328 -60 l-22 -10 0 -470 c1 -449 0 -473 -20 -545 -47 -166 -16 -121 204 300
121 231 236 447 255 480 61 101 148 129 236 75 72 -44 69 -9 69 -755 1 -618 0
-672 -16 -702 -57 -103 -209 -110 -275 -13 -23 33 -23 37 -23 378 0 344 0 345
-20 327 -11 -10 -20 -22 -20 -26 0 -5 -51 -106 -114 -226 -62 -120 -143 -276
-179 -348 -77 -152 -147 -239 -205 -255 -44 -11 -102 1 -145 32 -58 42 -57 25
-57 650 0 490 -2 570 -14 558 -8 -8 -123 -229 -256 -490 -421 -824 -455 -887
-490 -905 -66 -34 -150 0 -188 75 -28 56 -24 79 33 185 140 263 292 548 320
600 58 107 522 959 547 1005 14 25 40 72 58 105 60 111 84 144 121 164 44 25
74 26 124 5 40 -16 49 -15 40 8 -11 29 -80 58 -139 58 -52 0 -59 -3 -93 -38z
m1443 -263 c51 -31 57 -69 39 -235 -8 -76 -24 -238 -35 -359 -61 -640 -116
-1118 -131 -1146 -5 -10 -20 -21 -32 -24 -54 -12 -62 -10 -65 12 -3 22 23 303
98 1048 79 778 73 725 86 725 4 0 22 -9 40 -21z m460 -573 c41 -41 45 -87 11
-137 -39 -59 -124 -65 -173 -12 -32 34 -40 83 -20 121 22 43 54 62 104 62 37
0 50 -6 78 -34z"/>
<path d="M3435 3575 c-30 -29 -31 -45 -4 -79 38 -48 109 -24 109 37 0 26 -40
67 -67 67 -8 0 -25 -11 -38 -25z"/>
<path d="M4863 3840 c-66 -40 -63 -7 -63 -775 0 -787 -4 -747 75 -785 83 -40
175 8 190 100 4 22 9 40 12 40 3 0 32 -24 65 -54 139 -126 344 -151 528 -64
88 42 196 150 238 239 62 130 81 311 49 465 -35 166 -148 314 -290 379 -195
90 -387 62 -532 -77 -32 -32 -60 -58 -61 -58 -2 0 -4 119 -6 264 l-3 264 -25
27 c-53 57 -120 70 -177 35z m633 -657 c69 -23 153 -109 184 -188 33 -84 33
-216 0 -300 -49 -127 -164 -209 -295 -209 -87 0 -145 24 -215 90 -102 95 -136
245 -91 395 20 63 31 81 84 134 40 40 78 67 107 78 60 21 165 21 226 0z"/>
<path d="M10203 3838 c-65 -45 -62 -13 -60 -790 l2 -707 29 -30 c60 -63 142
-63 201 -1 30 31 30 33 33 158 l3 127 77 72 c42 40 82 73 87 73 6 0 80 -95
165 -211 196 -266 194 -264 271 -264 57 0 63 2 95 37 28 31 34 46 34 80 -1 45
-16 71 -120 205 -25 32 -91 118 -148 191 -57 73 -102 137 -100 142 2 5 70 70
151 144 82 74 159 149 173 167 45 61 26 152 -40 183 -40 19 -64 20 -103 5 -15
-5 -141 -123 -280 -262 -139 -138 -255 -248 -258 -245 -3 3 -6 193 -5 422 0
468 1 465 -69 504 -50 28 -98 28 -138 0z"/>
<path d="M6222 3843 c-22 -3 -47 -18 -73 -44 -34 -34 -39 -45 -39 -84 0 -92
56 -145 151 -145 96 0 164 65 156 147 -10 92 -83 139 -195 126z"/>
<path d="M9751 3840 c-129 -30 -147 -194 -29 -256 36 -19 122 -18 159 1 58 30
85 112 60 178 -22 57 -114 94 -190 77z"/>
<path d="M7680 3789 c-25 -8 -72 -48 -159 -137 -366 -372 -596 -602 -603 -602
-4 0 -8 146 -8 324 0 320 0 323 -23 357 -29 43 -60 59 -120 59 -40 0 -53 -5
-85 -34 l-37 -34 -3 -674 c-1 -370 0 -683 3 -695 3 -12 18 -35 35 -51 55 -56
142 -50 200 12 24 27 25 31 28 209 l3 182 112 113 c61 61 117 112 123 112 10
0 74 -79 365 -455 133 -173 151 -192 189 -207 98 -38 212 78 173 178 -3 9
-125 163 -270 342 l-263 326 32 34 c18 19 125 122 238 230 113 108 213 208
222 222 21 29 23 94 5 129 -27 54 -93 79 -157 60z"/>
<path d="M11085 3500 c-9 -28 2 -40 36 -40 l29 0 0 -78 c0 -80 16 -122 45
-122 23 0 30 21 35 110 l5 85 30 5 c24 4 30 10 30 30 0 25 -1 25 -102 28 -94
2 -102 1 -108 -18z"/>
<path d="M11337 3513 c-4 -3 -7 -60 -7 -125 0 -101 2 -120 16 -125 29 -11 49
12 54 61 l5 48 22 -26 c28 -32 36 -32 61 -1 21 26 37 20 26 -9 -4 -9 -1 -30 6
-47 9 -22 18 -29 34 -27 20 3 21 9 24 131 l3 127 -31 0 c-26 0 -34 -7 -58 -50
-15 -27 -30 -50 -34 -50 -4 0 -15 15 -24 33 -9 17 -23 40 -32 50 -15 17 -53
23 -65 10z"/>
<path d="M3940 3425 c-91 -17 -216 -77 -286 -139 -313 -276 -245 -797 126
-974 103 -49 163 -62 278 -62 108 1 186 19 279 65 200 99 323 301 323 530 0
102 -15 166 -62 264 -78 163 -239 283 -423 316 -97 17 -138 17 -235 0z m265
-257 c65 -33 130 -104 163 -176 21 -48 26 -72 26 -152 1 -89 -2 -101 -32 -162
-62 -126 -169 -193 -308 -192 -194 2 -335 155 -334 363 1 160 83 285 220 335
69 25 200 17 265 -16z"/>
<path d="M6226 3420 c-34 -11 -63 -36 -82 -72 -21 -40 -21 -966 0 -1006 51
-99 172 -105 233 -13 l23 33 -2 477 c0 357 -4 484 -13 507 -23 57 -99 92 -159
74z"/>
<path d="M7953 3423 c-34 -6 -81 -59 -88 -97 -8 -42 -10 -35 130 -431 64 -181
135 -381 157 -444 22 -63 47 -125 55 -137 17 -27 89 -64 123 -64 43 0 105 38
127 78 20 35 223 648 223 671 0 6 6 11 13 11 9 0 49 -112 117 -322 56 -178
112 -340 123 -360 22 -40 84 -78 128 -78 42 1 105 36 127 72 12 19 53 125 91
234 38 109 110 316 161 458 78 220 92 266 87 303 -12 105 -142 148 -215 70
-11 -12 -39 -78 -61 -147 -22 -69 -72 -227 -112 -352 -40 -125 -76 -225 -80
-222 -4 2 -19 39 -33 82 -13 42 -63 196 -111 342 -47 146 -94 275 -105 288
-63 75 -201 60 -244 -26 -7 -15 -59 -174 -116 -355 -57 -180 -108 -326 -113
-324 -5 1 -58 154 -117 339 -58 185 -114 347 -122 361 -18 27 -76 58 -105 56
-10 -1 -28 -4 -40 -6z"/>
<path d="M9753 3419 c-18 -5 -44 -25 -59 -45 l-27 -35 -1 -494 c-1 -484 -1
-494 20 -522 62 -84 186 -78 228 12 15 30 16 90 14 524 l-3 489 -25 27 c-25
28 -78 56 -102 54 -7 0 -27 -5 -45 -10z"/>
</g>
</svg>
