<?xml version="1.0" standalone="no"?>
<!DOCTYPE svg PUBLIC "-//W3C//DTD SVG 20010904//EN"
 "http://www.w3.org/TR/2001/REC-SVG-20010904/DTD/svg10.dtd">
<svg version="1.0" xmlns="http://www.w3.org/2000/svg"
 width="1200.000000pt" height="660.000000pt" viewBox="0 0 1200.000000 660.000000"
 preserveAspectRatio="xMidYMid meet">
<metadata>
Created by potrace 1.13, written by Peter Selinger 2001-2015
</metadata>
<g transform="translate(0.000000,660.000000) scale(0.100000,-0.100000)"
fill="#000000" stroke="none">
<path d="M5430 6166 c-41 -19 -307 -129 -590 -246 -283 -117 -537 -226 -563
-242 -49 -32 -97 -91 -124 -155 -26 -63 -20 -166 15 -248 16 -38 58 -137 92
-220 34 -82 68 -163 75 -180 7 -16 27 -66 45 -110 18 -44 41 -100 52 -125 11
-25 24 -54 28 -65 4 -11 15 -37 24 -57 9 -21 23 -55 30 -75 7 -21 24 -60 36
-88 37 -83 47 -106 90 -215 23 -58 50 -123 60 -145 10 -22 32 -76 50 -120 17
-44 43 -107 57 -140 47 -110 51 -119 87 -210 20 -49 41 -99 45 -110 5 -11 16
-36 24 -55 8 -19 36 -87 62 -150 103 -250 118 -288 157 -380 64 -151 70 -163
105 -207 42 -53 144 -105 217 -111 30 -2 72 2 101 11 44 13 521 208 630 257
22 10 76 32 120 50 44 17 94 37 110 45 97 42 130 56 227 95 142 57 194 97 238
184 30 59 34 77 34 139 0 69 -5 82 -108 322 -60 138 -115 267 -124 288 -24 59
-14 63 130 48 256 -27 467 -83 640 -171 33 -17 64 -28 69 -25 5 4 9 223 9 549
0 505 -1 544 -17 558 -29 25 -112 63 -203 93 -47 15 -100 33 -119 39 -32 11
-36 18 -138 271 -58 143 -111 267 -119 275 -11 11 -45 14 -172 13 -200 -1
-350 -29 -591 -110 -57 -19 -107 -31 -111 -26 -4 4 -21 42 -38 83 -128 320
-196 490 -211 519 -28 57 -87 116 -149 149 -52 28 -70 32 -133 32 -62 0 -86
-6 -149 -34z m187 -156 c22 0 74 -53 93 -94 11 -23 51 -115 89 -206 38 -91 88
-207 110 -259 23 -52 41 -100 41 -106 0 -6 -34 -27 -75 -48 -116 -57 -249
-143 -356 -229 -106 -85 -219 -202 -219 -226 0 -14 82 -219 135 -337 13 -27
37 -86 55 -130 18 -44 41 -99 51 -122 10 -24 19 -45 19 -49 0 -3 11 -29 24
-57 13 -29 27 -63 31 -77 4 -14 18 -47 30 -75 12 -27 37 -88 55 -135 18 -47
38 -90 44 -97 8 -9 30 -2 91 28 98 48 230 92 354 119 110 24 316 51 334 44 7
-2 70 -148 140 -324 110 -277 127 -325 121 -357 -12 -66 -43 -86 -279 -184
-881 -364 -945 -389 -981 -389 -44 0 -97 33 -115 70 -6 14 -72 171 -146 350
-74 178 -143 343 -153 365 -10 22 -37 87 -60 145 -23 58 -50 123 -60 145 -10
22 -34 78 -53 125 -19 47 -62 150 -95 230 -562 1358 -525 1265 -518 1306 14
72 46 92 326 204 58 23 123 50 145 60 34 16 713 297 755 313 8 3 24 4 35 2 11
-3 25 -5 32 -5z"/>
<path d="M5651 1625 c-66 -76 -15 -185 88 -185 49 0 101 54 101 107 0 69 -43
112 -111 113 -41 0 -51 -4 -78 -35z"/>
<path d="M2754 1620 c-25 -10 -27 -15 -99 -245 -99 -315 -106 -337 -161 -506
-30 -91 -54 -170 -54 -177 0 -20 37 -32 104 -32 78 0 113 12 125 42 6 13 30
88 54 168 25 80 62 198 82 263 20 65 41 117 47 115 9 -3 36 -71 148 -372 79
-211 75 -206 155 -206 79 0 76 -3 140 175 124 346 151 415 159 412 6 -2 13
-14 17 -28 4 -13 24 -78 44 -144 21 -66 45 -147 56 -180 10 -33 28 -93 40
-133 11 -40 28 -79 36 -87 10 -11 38 -15 98 -15 46 0 90 3 99 6 22 8 20 36 -9
118 -25 74 -60 186 -176 571 -39 127 -75 235 -82 242 -13 13 -166 21 -184 10
-10 -6 -30 -56 -162 -401 -33 -88 -63 -161 -66 -164 -11 -12 -26 19 -90 188
-135 356 -141 369 -171 381 -31 11 -121 11 -150 -1z"/>
<path d="M4781 1606 c-16 -20 -16 -903 1 -923 8 -10 32 -13 87 -11 72 3 76 4
89 31 13 27 15 27 35 13 68 -49 101 -60 182 -60 67 0 89 4 136 27 183 88 259
330 163 519 -87 172 -285 241 -442 153 -24 -14 -48 -22 -53 -19 -5 3 -9 59 -9
125 0 66 -5 129 -10 140 -9 16 -22 19 -89 19 -55 0 -82 -4 -90 -14z m446 -421
c120 -71 116 -262 -7 -325 -81 -41 -170 -18 -225 59 -24 34 -29 52 -30 99 0
76 26 127 84 163 59 38 117 39 178 4z"/>
<path d="M5982 1608 c-19 -19 -17 -738 3 -804 25 -85 77 -125 182 -139 89 -12
94 -7 91 88 l-3 81 -32 8 c-18 5 -37 17 -43 28 -7 13 -10 141 -9 375 0 194 -2
359 -6 364 -9 15 -168 14 -183 -1z"/>
<path d="M7147 1614 c-4 -4 -7 -215 -7 -470 0 -412 2 -463 16 -468 9 -3 51 -6
94 -6 101 0 102 2 99 165 -2 91 0 127 10 139 11 13 39 16 167 16 131 0 161 3
209 21 79 30 133 75 171 144 31 56 34 66 34 153 0 72 -4 102 -20 135 -32 67
-76 114 -138 144 l-57 28 -285 3 c-157 2 -289 0 -293 -4z m513 -184 c69 -29
97 -145 50 -209 -37 -53 -64 -61 -214 -61 -127 0 -136 1 -146 21 -15 27 -6
249 10 259 19 12 268 3 300 -10z"/>
<path d="M4195 1386 c-120 -29 -214 -105 -262 -214 -20 -46 -25 -74 -26 -142
0 -50 5 -102 13 -125 35 -97 104 -173 200 -219 58 -27 75 -31 160 -31 85 0
102 4 160 31 117 55 190 151 210 276 32 206 -98 389 -304 427 -72 13 -86 13
-151 -3z m142 -187 c34 -13 80 -55 99 -91 8 -15 14 -55 14 -90 -1 -52 -5 -70
-28 -102 -39 -56 -84 -78 -154 -74 -69 5 -116 37 -147 102 -28 60 -27 101 5
164 42 85 129 122 211 91z"/>
<path d="M6609 1389 c-237 -36 -371 -304 -269 -536 29 -65 101 -136 173 -169
53 -24 75 -28 152 -28 105 -1 167 17 236 68 53 39 111 121 107 151 -3 18 -11
20 -91 23 -85 3 -88 2 -126 -28 -88 -71 -210 -54 -264 37 -35 61 -32 62 247
65 l251 3 -1 80 c-1 68 -5 89 -32 141 -72 141 -223 218 -383 193z m133 -185
c35 -18 82 -80 74 -99 -4 -12 -30 -15 -151 -15 -138 0 -145 1 -145 20 0 31 66
97 108 108 41 10 73 6 114 -14z"/>
<path d="M8277 1390 c-101 -26 -192 -100 -243 -200 -26 -50 -28 -65 -28 -165
-1 -100 2 -115 26 -165 39 -80 88 -132 160 -171 59 -31 69 -34 153 -34 97 1
137 15 204 71 l32 26 35 -35 c35 -34 93 -57 148 -57 36 0 49 31 44 102 -4 51
-8 63 -34 83 l-29 23 3 240 c3 283 8 272 -98 272 -67 0 -92 -10 -102 -41 -3
-8 -26 -2 -69 20 -70 34 -143 45 -202 31z m171 -199 c46 -23 67 -46 87 -94 39
-93 -1 -199 -92 -246 -30 -15 -109 -14 -141 3 -59 31 -102 102 -102 168 1 137
134 227 248 169z"/>
<path d="M5660 1373 c-8 -3 -18 -11 -22 -17 -14 -20 -9 -661 4 -674 16 -16
160 -16 176 0 9 9 12 99 12 345 0 318 -1 333 -19 343 -21 10 -125 13 -151 3z"/>
<path d="M8832 1368 c-7 -7 -12 -17 -12 -23 0 -8 149 -350 200 -460 68 -146
74 -187 35 -233 -31 -37 -100 -72 -141 -72 -46 0 -54 -16 -54 -102 0 -75 1
-78 26 -84 77 -19 214 36 290 117 54 58 97 139 184 349 29 69 60 143 70 165
10 22 37 85 60 140 23 55 49 114 57 132 8 17 13 42 11 55 -3 21 -8 23 -80 26
-43 2 -86 -2 -97 -8 -11 -5 -29 -36 -41 -67 -12 -32 -28 -74 -37 -93 -8 -19
-19 -44 -24 -55 -5 -11 -22 -54 -38 -95 -16 -41 -35 -76 -43 -78 -10 -2 -38
53 -92 180 -43 101 -85 191 -94 201 -12 13 -31 17 -92 17 -46 0 -81 -5 -88
-12z"/>
</g>
</svg>
