<?xml version="1.0" standalone="no"?>
<!DOCTYPE svg PUBLIC "-//W3C//DTD SVG 20010904//EN"
 "http://www.w3.org/TR/2001/REC-SVG-20010904/DTD/svg10.dtd">
<svg version="1.0" xmlns="http://www.w3.org/2000/svg"
 width="1200.000000pt" height="660.000000pt" viewBox="0 0 1200.000000 660.000000"
 preserveAspectRatio="xMidYMid meet">
<metadata>
Created by potrace 1.13, written by Peter Selinger 2001-2015
</metadata>
<g transform="translate(0.000000,660.000000) scale(0.100000,-0.100000)"
fill="#000000" stroke="none">
<path d="M6050 6183 c-213 -10 -428 -53 -630 -128 -321 -118 -545 -261 -793
-504 -162 -159 -219 -226 -321 -380 -342 -515 -454 -1175 -301 -1776 51 -198
82 -286 161 -445 199 -402 522 -743 915 -966 201 -114 466 -210 703 -255 158
-31 531 -38 701 -14 714 99 1334 533 1678 1175 59 108 150 343 182 466 57 220
69 321 69 584 0 257 -13 377 -65 579 -61 241 -212 556 -361 753 -40 53 -58 86
-58 107 0 24 -16 44 -87 111 -353 331 -743 549 -1143 641 -151 34 -179 39
-328 49 -141 9 -179 10 -322 3z m305 -398 c129 -29 191 -54 323 -126 52 -28
109 -75 101 -83 -3 -3 -50 17 -105 44 -54 27 -105 50 -112 50 -7 0 -20 4 -30
9 -9 5 -42 14 -72 19 -30 6 -78 15 -106 21 -101 20 -259 -13 -414 -86 -159
-76 -334 -261 -434 -460 -84 -166 -126 -292 -153 -458 -8 -49 -19 -106 -23
-125 -19 -79 -33 -301 -26 -426 11 -205 24 -345 36 -404 6 -30 13 -75 16 -100
3 -25 9 -54 14 -65 10 -23 19 -65 27 -117 4 -27 1 -39 -9 -43 -14 -6 -167 18
-199 30 -11 4 -20 30 -29 78 -6 40 -16 83 -20 97 -5 14 -13 77 -20 140 -6 63
-15 140 -20 171 -13 70 -13 376 -1 432 5 23 14 85 21 137 6 52 15 109 20 125
5 17 14 50 20 75 7 25 16 56 21 69 9 22 8 23 -18 18 -71 -14 -170 -39 -185
-47 -10 -6 -23 -10 -28 -10 -19 0 -143 -62 -201 -101 -76 -51 -177 -152 -227
-226 -73 -108 -82 -85 -19 47 95 199 269 393 457 506 79 48 194 104 212 104
43 0 35 24 -53 158 -109 163 -111 177 -24 177 76 -1 314 -34 339 -47 17 -9 26
-3 65 43 176 206 369 337 556 375 81 16 227 16 300 -1z m197 -435 c80 -16 128
-32 184 -61 116 -60 246 -194 325 -337 l27 -47 108 -6 c106 -6 147 -12 189
-28 11 -5 38 -14 60 -20 38 -12 53 -17 115 -45 39 -16 130 -79 181 -124 125
-111 212 -324 187 -462 -15 -82 -29 -126 -50 -157 l-19 -28 7 55 c4 30 11 63
15 72 36 69 -23 272 -104 365 -11 12 -25 32 -31 45 -16 31 -97 91 -176 129
-88 43 -104 48 -210 74 -36 9 -224 34 -227 31 -3 -3 24 -98 37 -131 26 -63 43
-238 43 -450 1 -248 -6 -297 -50 -335 -55 -48 -62 -42 -57 48 2 42 9 113 16
158 6 48 8 115 4 165 -4 46 -11 129 -16 184 -4 55 -13 123 -19 150 -7 28 -14
62 -18 78 -3 15 -9 30 -14 33 -5 3 -9 16 -9 29 0 13 -4 27 -10 30 -5 3 -10 15
-10 26 0 17 -7 19 -82 19 -86 0 -239 -17 -273 -30 -11 -4 -47 -13 -80 -20 -33
-7 -69 -16 -80 -20 -11 -4 -47 -18 -80 -30 -114 -42 -226 -96 -323 -157 -97
-61 -222 -175 -259 -235 -10 -16 -21 -28 -25 -28 -4 0 -8 -7 -8 -15 0 -8 -4
-15 -8 -15 -5 0 -14 -16 -22 -35 -15 -37 -40 -48 -40 -16 0 10 15 47 33 81 46
91 186 230 317 317 99 65 304 173 329 173 6 0 19 4 29 9 37 19 70 31 137 51
136 41 198 53 313 65 44 5 62 11 62 21 0 24 -100 165 -151 214 -94 90 -210
144 -332 155 -64 5 -94 2 -209 -22 -20 -4 -28 -1 -28 8 0 16 89 59 123 60 12
0 31 4 42 9 28 12 75 12 137 0z m-643 -136 c91 -30 180 -61 196 -69 17 -7 62
-25 100 -40 39 -15 88 -35 110 -45 22 -10 56 -25 75 -33 175 -75 176 -82 17
-91 -67 -4 -135 -11 -152 -16 -16 -5 -50 -14 -75 -20 -67 -17 -113 -30 -135
-40 -11 -4 -47 -18 -80 -31 -99 -38 -276 -133 -389 -209 -59 -39 -110 -68
-115 -66 -5 3 -5 23 0 43 4 21 13 70 19 108 6 39 15 79 19 90 5 11 23 65 41
120 50 156 157 355 192 355 6 0 86 -25 177 -56z m-1593 -806 c-9 -29 -21 -62
-26 -73 -29 -67 -39 -253 -19 -361 14 -78 74 -203 133 -282 49 -65 146 -156
194 -182 15 -9 54 -31 87 -51 190 -112 417 -174 735 -200 130 -10 373 -5 450
11 25 5 83 14 130 20 47 6 101 15 120 20 19 5 58 14 85 20 92 21 334 95 390
120 61 27 297 144 339 168 163 95 406 312 496 442 13 19 27 37 31 40 8 6 50
79 81 140 13 25 26 47 29 50 3 3 9 12 12 20 4 8 4 -3 1 -25 -6 -46 -9 -53 -58
-155 -61 -128 -128 -219 -272 -370 -68 -71 -94 -106 -104 -140 -21 -67 -55
-140 -87 -185 -29 -39 -96 -85 -108 -73 -3 3 3 25 14 49 23 52 50 133 46 137
-2 2 -45 -24 -96 -58 -50 -34 -119 -78 -153 -97 -60 -34 -270 -137 -313 -154
-45 -18 -73 -29 -95 -38 -13 -5 -41 -15 -63 -21 -22 -6 -49 -16 -60 -21 -37
-16 -255 -71 -360 -90 -27 -5 -117 -13 -198 -18 -82 -5 -151 -11 -153 -14 -2
-2 9 -30 25 -63 17 -32 38 -77 49 -99 58 -123 193 -332 276 -430 68 -80 158
-170 231 -232 111 -93 356 -243 399 -243 9 0 16 -4 16 -10 0 -13 -6 -13 -43 4
-18 8 -56 22 -86 31 -83 27 -256 119 -389 208 -161 107 -380 322 -482 472 -19
28 -42 58 -50 68 -9 9 -23 30 -31 45 -8 15 -30 54 -50 87 -38 64 -79 149 -79
163 0 21 -42 44 -96 52 -114 18 -206 43 -301 81 -236 93 -411 219 -544 391
-75 97 -107 158 -139 266 -11 37 -25 81 -30 98 -13 41 -13 197 1 248 25 97 34
124 57 175 27 60 65 122 71 116 2 -2 -4 -28 -13 -57z m3511 -430 c-3 -8 -6 -5
-6 6 -1 11 2 17 5 13 3 -3 4 -12 1 -19z m-308 -393 c5 -28 -18 -90 -73 -195
-27 -52 -52 -99 -56 -105 -23 -30 -121 -227 -116 -232 16 -16 240 54 351 109
192 97 329 217 430 378 15 24 35 51 43 59 13 13 14 12 7 -9 -4 -14 -24 -60
-46 -103 -157 -316 -442 -573 -830 -751 l-106 -48 -13 -92 c-7 -50 -19 -102
-27 -115 -15 -23 -17 -23 -117 -16 -173 12 -453 97 -651 197 -36 18 -61 32
-193 104 -119 66 -119 73 -5 94 87 15 256 63 318 89 11 5 36 14 55 21 19 7 49
18 65 25 17 8 50 21 75 31 204 81 578 326 753 493 94 90 128 106 136 66z"/>
<path d="M6515 1176 c-54 -17 -78 -31 -145 -83 l-58 -45 0 -58 c0 -63 -25
-130 -68 -188 -33 -43 -29 -99 11 -161 56 -83 166 -114 338 -92 130 16 138 22
153 107 13 79 28 114 49 114 15 0 38 67 29 82 -3 4 -63 8 -134 8 -107 0 -129
-3 -134 -16 -11 -30 -6 -60 15 -77 11 -10 18 -25 15 -35 -3 -9 -8 -34 -12 -54
-6 -35 -9 -38 -40 -38 -85 0 -135 45 -142 126 -17 200 115 363 270 334 57 -11
73 -21 73 -48 0 -13 9 -17 40 -17 l39 0 18 59 c10 33 15 63 10 68 -27 27 -255
37 -327 14z"/>
<path d="M3568 1139 c-2 -27 1 -47 10 -56 15 -14 12 -42 -18 -178 -9 -38 -14
-65 -41 -202 -9 -48 -16 -63 -29 -63 -18 0 -40 -39 -40 -71 0 -19 6 -20 97
-17 96 3 96 3 106 31 6 20 6 36 -3 52 -12 23 -11 41 9 130 5 22 14 64 20 94
11 52 17 69 24 60 2 -2 19 -67 38 -144 l34 -140 47 -3 46 -3 92 146 c95 151
118 178 106 131 -4 -15 -18 -79 -31 -142 -16 -76 -31 -121 -43 -132 -22 -20
-43 -67 -35 -76 4 -3 59 -6 124 -6 l118 0 7 37 c5 28 3 39 -10 49 -16 12 -16
18 2 111 11 54 30 148 42 208 17 88 26 114 45 130 26 22 49 71 39 86 -3 5 -47
9 -99 9 l-94 0 -112 -165 c-62 -91 -117 -169 -124 -175 -9 -7 -21 29 -49 142
-55 221 -36 198 -165 198 l-109 0 -4 -41z"/>
<path d="M7418 1019 c-39 -13 -68 -33 -115 -82 -35 -36 -63 -61 -63 -55 0 5
10 31 21 58 25 58 20 80 -17 80 -43 0 -107 -44 -155 -107 -24 -32 -50 -65 -58
-73 -13 -13 -14 -13 -8 2 14 38 50 178 46 182 -2 2 -51 0 -109 -3 l-105 -6 -3
-40 c-3 -28 1 -43 14 -52 16 -12 14 -23 -26 -175 -23 -90 -45 -173 -47 -185
-5 -23 -3 -23 86 -23 l91 0 6 28 c3 15 10 43 14 62 4 19 11 46 14 60 7 34 77
126 117 156 33 24 73 31 98 15 11 -7 10 -13 -3 -33 -9 -13 -23 -46 -31 -74
-44 -146 24 -244 139 -200 43 16 122 94 154 151 l11 20 0 -20 c0 -11 -6 -47
-14 -80 -23 -94 -29 -89 86 -81 56 3 105 9 110 12 16 9 10 81 -6 88 -25 9 -22
35 35 271 32 133 44 119 -103 121 -98 1 -139 -3 -179 -17z m115 -123 c-4 -54
-136 -234 -165 -224 -22 8 -9 87 27 166 27 58 40 75 66 86 44 19 75 7 72 -28z"/>
<path d="M8372 1025 c-36 -20 -81 -65 -118 -120 -33 -48 -44 -44 -24 10 7 19
6 35 -5 61 -26 62 -92 67 -172 12 -39 -26 -91 -90 -106 -128 -12 -33 -6 31 8
87 23 89 28 84 -82 77 -107 -7 -123 -16 -123 -66 0 -18 7 -31 21 -39 24 -12
24 -6 -10 -164 -11 -49 -25 -116 -32 -148 -6 -31 -10 -59 -8 -62 7 -7 149 -8
156 -2 3 4 14 45 24 92 10 47 28 100 40 118 51 74 91 117 110 117 10 0 19 -2
19 -4 0 -3 -43 -194 -61 -265 -4 -19 -6 -39 -3 -43 9 -13 150 -9 161 5 6 6 13
30 17 52 3 22 9 56 12 75 8 42 82 150 125 181 l31 22 -4 -44 c-3 -24 -19 -98
-36 -163 -18 -66 -32 -124 -32 -128 0 -5 48 -7 108 -6 l107 3 3 39 c3 32 -1
43 -19 57 -19 14 -21 20 -12 45 6 16 16 56 23 89 7 33 16 71 20 85 25 75 21
99 -23 148 -23 25 -76 29 -115 7z"/>
<path d="M4515 1020 c-58 -10 -85 -24 -131 -64 -88 -75 -152 -214 -139 -297 8
-49 57 -106 103 -119 111 -31 217 3 313 99 72 71 108 144 111 225 3 57 -29
116 -73 137 -42 20 -131 29 -184 19z m41 -94 c16 -12 19 -26 18 -98 -1 -92
-16 -138 -60 -181 -34 -34 -73 -33 -92 3 -20 39 -9 162 20 219 22 42 56 70 84
71 5 0 19 -6 30 -14z"/>
<path d="M4880 1023 c-51 -3 -87 -9 -92 -16 -14 -21 -8 -69 9 -82 15 -12 15
-20 -7 -121 -12 -60 -29 -134 -36 -164 -26 -103 -27 -101 73 -98 l86 3 24 89
c18 71 33 102 71 152 45 59 86 94 97 82 6 -6 4 -17 -40 -200 -14 -59 -25 -112
-25 -118 0 -7 39 -10 113 -8 111 3 112 3 115 28 6 51 11 54 40 25 49 -50 106
-68 191 -62 92 7 207 41 219 65 13 25 22 91 13 96 -4 3 -41 -8 -82 -24 -95
-38 -157 -39 -188 -6 -26 28 -21 46 13 46 12 0 51 10 86 22 78 26 170 108 170
150 0 29 16 46 30 32 19 -20 61 -195 67 -279 l6 -91 -86 -80 c-48 -45 -84 -84
-80 -87 3 -4 39 -7 79 -7 l73 0 52 77 c29 43 98 131 153 197 56 65 124 147
153 183 58 71 81 132 64 170 -10 21 -16 23 -96 23 -90 0 -99 -6 -70 -44 36
-48 12 -125 -68 -221 -30 -35 -30 -34 -46 75 -10 75 -34 166 -48 185 -5 6 -43
9 -92 7 -72 -3 -84 -6 -88 -23 -7 -24 -7 -24 -43 3 -24 17 -43 21 -94 20 -84
-1 -159 -37 -226 -108 -63 -66 -91 -130 -96 -214 -2 -45 -7 -65 -16 -65 -18 0
-15 77 7 188 19 95 16 161 -9 185 -19 20 -94 19 -133 -1 -34 -18 -109 -96
-125 -132 -6 -14 -15 -25 -20 -25 -4 0 -8 -8 -8 -17 0 -9 -2 -14 -5 -11 -3 3
4 43 15 89 25 104 25 120 3 117 -10 -1 -56 -4 -103 -5z m679 -102 c25 -16 16
-63 -18 -93 -36 -32 -81 -38 -81 -10 0 31 57 112 79 112 3 0 12 -4 20 -9z"/>
</g>
</svg>
