<?xml version="1.0" standalone="no"?>
<!DOCTYPE svg PUBLIC "-//W3C//DTD SVG 20010904//EN"
 "http://www.w3.org/TR/2001/REC-SVG-20010904/DTD/svg10.dtd">
<svg version="1.0" xmlns="http://www.w3.org/2000/svg"
 width="1200.000000pt" height="660.000000pt" viewBox="0 0 1200.000000 660.000000"
 preserveAspectRatio="xMidYMid meet">
<metadata>
Created by potrace 1.13, written by Peter Selinger 2001-2015
</metadata>
<g transform="translate(0.000000,660.000000) scale(0.100000,-0.100000)"
fill="#000000" stroke="none">
<path d="M7168 4468 c-3 -7 -2 -165 0 -350 4 -261 2 -338 -7 -338 -7 0 -31 15
-54 34 -53 43 -182 106 -219 106 -15 0 -29 4 -32 9 -9 14 -162 33 -251 32 -72
-1 -142 -12 -245 -39 -177 -47 -379 -197 -498 -369 -37 -53 -93 -173 -120
-258 -23 -72 -26 -96 -26 -240 -1 -106 4 -177 13 -210 73 -267 186 -429 401
-573 86 -58 217 -110 317 -127 23 -3 47 -13 54 -21 17 -21 225 -20 236 1 5 8
35 21 68 29 103 25 198 65 248 104 12 9 43 38 68 65 26 26 50 47 53 47 3 0 6
-45 6 -99 0 -81 3 -100 16 -105 24 -9 307 -7 323 3 11 7 12 74 6 392 -4 226
-2 697 5 1143 11 642 10 760 -1 767 -23 14 -357 11 -361 -3z m-455 -892 c112
-20 198 -65 279 -147 73 -74 129 -174 149 -268 17 -79 7 -224 -20 -293 -93
-239 -340 -381 -588 -339 -204 35 -379 200 -437 413 -50 180 27 393 190 527
68 57 129 85 229 106 81 17 106 17 198 1z"/>
<path d="M417 4273 c-2 -5 -3 -480 -3 -1058 l1 -1050 199 -3 c110 -1 204 2
209 7 5 5 8 299 7 695 -1 653 0 686 17 686 17 0 75 -65 398 -445 70 -82 151
-177 179 -210 52 -60 194 -227 251 -296 113 -137 370 -435 381 -442 7 -4 91
-6 186 -5 l173 3 5 1045 c3 575 1 1053 -3 1063 -7 15 -26 17 -187 17 -98 0
-185 -3 -194 -6 -14 -5 -15 -80 -9 -705 6 -620 5 -699 -9 -699 -15 0 -54 45
-458 525 -605 718 -726 861 -740 872 -17 14 -396 19 -403 6z"/>
<path d="M3460 3960 c-321 -50 -602 -271 -722 -568 -36 -91 -67 -241 -68 -332
-1 -250 114 -520 292 -685 115 -107 293 -199 433 -225 39 -7 74 -19 78 -26 12
-20 220 -20 237 0 6 8 37 20 68 26 253 51 483 223 614 460 22 40 45 98 87 220
16 48 25 271 13 345 -34 210 -140 408 -292 549 -163 150 -363 233 -580 241
-58 2 -130 0 -160 -5z m278 -405 c180 -63 292 -175 359 -360 25 -70 25 -231 0
-300 -36 -98 -63 -141 -132 -211 -122 -123 -211 -159 -391 -158 l-120 0 -90
44 c-147 72 -257 204 -295 354 -6 26 -10 92 -8 154 4 104 6 112 46 193 66 132
176 229 317 279 67 24 251 27 314 5z"/>
<path d="M5560 3963 c-38 -4 -104 -19 -160 -36 -56 -18 -161 -92 -208 -147
-24 -28 -48 -48 -53 -45 -5 4 -9 44 -9 90 l0 84 -182 3 c-101 2 -187 0 -193
-4 -7 -4 -10 -307 -10 -875 l0 -868 197 -3 197 -2 4 502 c2 343 7 519 15 553
33 137 131 260 257 320 40 19 83 35 95 35 13 0 37 4 54 10 17 5 43 12 59 15
l27 5 -2 183 -3 182 -25 1 c-14 1 -41 0 -60 -3z"/>
<path d="M8540 3944 c-121 -24 -153 -35 -266 -91 -85 -41 -208 -139 -265 -209
-22 -27 -46 -56 -53 -65 -24 -29 -82 -142 -109 -209 -41 -106 -52 -174 -52
-330 0 -150 12 -230 46 -307 11 -24 19 -48 19 -54 0 -19 70 -139 115 -199 121
-158 275 -264 465 -320 41 -13 82 -29 91 -36 22 -20 326 -20 348 0 9 7 52 25
96 39 190 60 323 148 443 292 58 70 138 213 126 224 -10 9 -71 29 -184 61 -41
11 -89 27 -106 35 -37 16 -43 12 -78 -43 -15 -23 -43 -60 -62 -82 -60 -66
-225 -160 -281 -160 -16 0 -45 -5 -67 -11 -60 -17 -208 12 -299 59 -100 51
-250 202 -225 227 2 2 39 14 83 26 44 12 112 30 150 41 116 32 176 49 250 68
263 70 456 123 495 135 25 8 88 26 140 39 52 14 122 33 155 42 33 9 65 17 72
18 7 1 15 5 19 9 7 6 -31 177 -46 206 -4 9 -22 47 -40 86 -93 201 -279 382
-470 457 -63 25 -93 34 -193 57 -62 14 -234 12 -317 -5z m304 -329 c103 -27
218 -103 280 -186 42 -56 45 -75 14 -84 -13 -3 -39 -10 -58 -15 -19 -5 -66
-18 -105 -29 -38 -11 -88 -25 -110 -30 -22 -5 -65 -17 -95 -26 -30 -9 -95 -27
-145 -40 -94 -26 -186 -51 -307 -86 -40 -11 -92 -23 -115 -26 l-43 -6 0 44 c0
151 137 350 295 431 128 64 270 84 389 53z"/>
<path d="M10525 3949 c-193 -46 -331 -117 -459 -238 -137 -131 -234 -306 -276
-501 -13 -60 -8 -281 8 -365 31 -166 151 -368 285 -483 131 -113 244 -172 397
-209 36 -8 72 -22 81 -29 22 -19 224 -20 236 -1 4 8 31 20 58 27 127 34 272
121 336 200 52 64 58 56 61 -77 l3 -118 170 0 170 0 3 475 c2 394 0 491 -13
570 -39 236 -125 395 -293 542 -169 149 -361 218 -597 217 -71 -1 -148 -5
-170 -10z m262 -374 c48 -8 109 -28 145 -46 84 -42 204 -164 237 -239 13 -30
27 -62 31 -71 5 -9 14 -53 21 -97 34 -221 -87 -446 -293 -547 -195 -95 -432
-58 -590 92 -76 73 -112 125 -145 210 -23 58 -26 83 -26 178 -1 98 2 118 28
180 51 127 114 203 231 279 48 31 84 44 179 61 93 17 88 17 182 0z"/>
</g>
</svg>
