<?xml version="1.0" standalone="no"?>
<!DOCTYPE svg PUBLIC "-//W3C//DTD SVG 20010904//EN"
 "http://www.w3.org/TR/2001/REC-SVG-20010904/DTD/svg10.dtd">
<svg version="1.0" xmlns="http://www.w3.org/2000/svg"
 width="1200.000000pt" height="660.000000pt" viewBox="0 0 1200.000000 660.000000"
 preserveAspectRatio="xMidYMid meet">
<metadata>
Created by potrace 1.13, written by Peter Selinger 2001-2015
</metadata>
<g transform="translate(0.000000,660.000000) scale(0.100000,-0.100000)"
fill="#000000" stroke="none">
<path d="M1330 5400 c-7 -14 -21 -20 -43 -20 -67 0 -275 -78 -381 -143 -229
-139 -384 -320 -451 -527 -10 -30 -24 -67 -31 -82 -16 -31 -20 -367 -5 -396 5
-9 17 -42 26 -72 46 -151 161 -280 335 -372 146 -77 300 -110 520 -111 282 -1
511 58 725 186 133 80 272 232 362 397 127 230 135 547 20 765 -49 92 -163
200 -272 257 -95 49 -214 92 -279 102 -21 3 -46 12 -56 21 -14 12 -52 15 -238
15 -211 0 -222 -1 -232 -20z m398 -269 c189 -61 276 -200 277 -441 0 -280
-139 -526 -369 -653 -159 -88 -371 -108 -509 -47 -71 32 -161 121 -198 196
-28 56 -33 78 -37 162 -14 303 149 601 400 730 138 71 312 92 436 53z"/>
<path d="M5791 5400 c-15 -13 -38 -20 -65 -20 -22 0 -68 -5 -101 -11 -39 -6
-392 -10 -1020 -10 -1090 1 -1123 -1 -1325 -69 -76 -26 -188 -86 -255 -136
-214 -160 -300 -416 -208 -614 50 -105 130 -179 266 -244 42 -21 77 -44 77
-51 0 -8 -30 -22 -72 -34 -176 -52 -302 -130 -334 -208 -16 -38 -18 -91 -5
-126 25 -64 173 -157 301 -190 81 -21 71 -37 -40 -58 -147 -29 -242 -50 -280
-64 -127 -46 -195 -87 -237 -142 -21 -28 -28 -49 -31 -97 -3 -53 1 -68 27
-113 62 -105 221 -194 451 -252 94 -24 266 -51 324 -51 34 -1 93 -5 131 -10
81 -11 338 3 485 26 340 54 585 197 631 368 17 63 6 158 -25 209 -49 84 -160
166 -288 212 -125 45 -262 76 -608 135 -240 41 -364 76 -395 110 -23 25 -10
66 29 89 62 37 213 67 565 111 307 38 563 156 683 315 140 185 146 415 14 572
-14 17 -26 36 -26 42 0 8 97 11 335 11 235 0 335 -3 335 -11 0 -6 -23 -36 -51
-67 -68 -77 -163 -237 -193 -331 -71 -215 -51 -486 48 -656 42 -71 152 -177
228 -219 84 -47 203 -90 321 -117 127 -30 380 -32 517 -5 279 55 476 152 640
316 147 147 230 305 265 507 54 311 -36 560 -259 716 -95 67 -280 147 -337
147 -13 0 -30 9 -37 20 -12 19 -23 20 -235 20 -206 -1 -224 -2 -246 -20z m367
-269 c122 -42 188 -96 235 -192 55 -112 61 -346 12 -490 -89 -262 -318 -464
-552 -487 -255 -26 -450 81 -511 278 -28 90 -22 263 13 370 87 272 255 447
500 523 75 23 232 22 303 -2z m-2265 -62 c81 -32 122 -56 161 -96 48 -49 64
-80 77 -149 30 -163 -91 -329 -288 -395 -99 -33 -274 -32 -364 1 -161 59 -250
161 -251 288 0 94 41 174 129 252 77 67 163 105 278 119 84 11 201 2 258 -20z
m-213 -1532 c25 -8 70 -21 100 -30 196 -57 272 -99 285 -156 12 -58 -44 -123
-136 -157 -24 -9 -114 -26 -199 -39 -162 -24 -261 -23 -480 6 -273 34 -415
140 -302 226 90 69 192 102 507 164 54 11 170 3 225 -14z"/>
<path d="M10510 5405 c-6 -7 -33 -17 -58 -20 -201 -28 -475 -157 -610 -288
-204 -196 -319 -492 -283 -725 56 -360 286 -572 727 -672 132 -29 553 -29 622
0 13 6 33 10 46 10 55 0 340 86 370 112 6 4 18 8 27 8 23 0 69 60 69 89 0 12
9 62 20 109 12 48 23 95 25 105 4 21 -19 34 -38 20 -6 -5 -39 -19 -72 -32 -53
-20 -121 -47 -180 -72 -160 -68 -323 -101 -500 -103 -229 -2 -407 57 -525 176
-95 95 -136 212 -120 343 5 39 12 78 16 88 6 16 57 17 758 17 572 0 755 3 764
12 14 14 17 294 3 302 -5 3 -12 18 -15 33 -30 124 -179 296 -321 370 -84 43
-204 86 -268 96 -20 3 -44 13 -53 21 -22 23 -385 24 -404 1z m295 -276 c157
-21 266 -107 306 -240 17 -56 19 -72 9 -84 -11 -13 -82 -15 -496 -15 -273 0
-485 4 -488 9 -10 15 71 126 137 188 134 125 312 173 532 142z"/>
<path d="M8415 5355 c-103 -26 -104 -26 -205 -72 -81 -38 -157 -81 -263 -151
-37 -25 -70 -42 -74 -38 -4 3 -1 34 6 69 29 140 33 168 27 182 -4 13 -40 15
-224 15 -199 0 -220 -2 -235 -18 -10 -10 -17 -27 -17 -38 0 -10 -7 -50 -16
-89 -8 -38 -21 -104 -29 -145 -16 -84 -62 -302 -95 -455 -36 -164 -49 -227
-59 -280 -6 -27 -17 -79 -25 -115 -21 -93 -64 -292 -82 -380 -9 -41 -18 -78
-21 -83 -2 -4 1 -14 7 -22 10 -12 51 -15 225 -15 189 0 214 2 227 18 14 15 53
176 79 322 4 25 17 88 29 140 12 52 30 136 41 185 10 50 26 122 34 160 9 39
20 93 25 120 17 88 28 102 134 178 256 184 341 227 511 262 220 45 376 -52
375 -234 0 -49 -19 -161 -45 -276 -30 -132 -43 -190 -59 -260 -60 -275 -118
-535 -125 -563 -8 -27 -6 -34 9 -42 11 -6 108 -10 224 -10 169 0 207 3 220 15
17 18 19 22 45 140 11 50 32 142 46 205 86 383 123 551 135 611 4 26 13 64 19
85 18 63 13 194 -8 256 -29 84 -46 112 -111 181 -116 124 -243 168 -484 166
-121 -1 -169 -6 -241 -24z"/>
<path d="M5425 2688 c-83 -45 -99 -111 -41 -172 39 -41 58 -44 100 -15 37 25
96 100 96 121 0 22 -42 57 -81 68 -42 12 -49 12 -74 -2z"/>
<path d="M2364 2620 c-12 -4 -31 -21 -43 -36 -18 -22 -21 -36 -16 -63 20 -106
95 -121 183 -38 38 37 42 75 10 104 -46 42 -88 52 -134 33z"/>
<path d="M703 2433 c-7 -2 -13 -11 -13 -19 0 -8 -4 -22 -10 -32 -5 -9 -19 -46
-30 -82 -12 -36 -25 -74 -30 -85 -5 -11 -23 -60 -40 -110 -17 -49 -35 -99 -40
-110 -15 -36 -42 -109 -56 -155 -8 -25 -20 -55 -26 -67 -19 -38 -6 -50 57 -47
32 1 61 6 65 11 4 4 16 35 26 68 32 108 30 106 157 103 125 -3 115 3 148 -105
l21 -71 67 -4 c36 -2 70 0 75 4 6 5 -1 39 -18 85 -16 43 -45 125 -66 183 -21
58 -40 112 -43 120 -3 8 -20 56 -37 105 -50 143 -73 199 -84 207 -12 9 -104 9
-123 1z m126 -365 c11 -37 21 -70 21 -73 0 -3 -40 -5 -90 -5 -51 0 -90 4 -90
10 0 11 27 97 40 125 5 11 16 43 25 70 9 28 18 57 21 65 5 14 21 -27 73 -192z"/>
<path d="M5370 2306 c-36 -24 -47 -41 -73 -111 -46 -124 -128 -262 -173 -292
-43 -28 -54 -5 -94 202 -15 75 -28 111 -46 126 -19 16 -65 -20 -156 -124 -74
-85 -105 -113 -115 -103 -3 3 -1 49 5 102 12 118 8 134 -28 134 -23 0 -46 -21
-130 -117 -163 -187 -281 -279 -369 -290 -41 -5 -51 -2 -77 21 -33 31 -40 23
76 91 148 87 208 174 180 259 -22 68 -78 116 -137 116 -42 0 -129 -35 -167
-67 -72 -60 -130 -190 -138 -304 -3 -36 -7 -70 -11 -75 -9 -15 -126 -68 -134
-61 -10 11 22 294 42 370 18 67 18 68 -2 95 -22 29 -19 28 -128 12 -190 -28
-320 -113 -391 -258 -41 -85 -90 -152 -110 -152 -23 0 -44 42 -84 167 -43 133
-60 172 -84 192 -29 24 -70 -4 -127 -87 -65 -96 -98 -132 -120 -132 -20 0 -25
18 -35 125 -8 83 -18 115 -38 115 -19 0 -59 -49 -87 -107 -27 -56 -195 -228
-252 -258 -33 -17 -39 -18 -48 -5 -14 20 -5 173 17 286 20 105 15 144 -19 144
-26 0 -65 -38 -122 -120 -22 -30 -79 -97 -129 -148 -67 -69 -87 -95 -78 -104
17 -17 87 14 159 72 65 53 69 52 53 -15 -5 -22 -10 -89 -10 -149 -1 -97 1
-112 19 -130 18 -18 25 -19 53 -8 84 32 222 142 316 254 53 64 55 59 56 -107
1 -144 2 -150 22 -153 22 -3 98 66 182 168 70 83 131 140 151 140 21 0 35 -30
81 -174 58 -179 77 -180 181 -12 l30 49 34 -33 c30 -29 39 -32 74 -27 49 6
152 58 208 104 24 19 47 32 52 29 9 -6 6 -85 -5 -153 -5 -36 -7 -37 -151 -93
-124 -48 -195 -99 -230 -163 -14 -24 -18 -55 -18 -127 1 -112 19 -156 86 -214
37 -31 49 -36 93 -36 93 1 209 99 265 224 31 68 70 193 82 262 l11 64 68 40
c78 45 90 48 114 21 33 -36 114 -64 165 -56 91 13 237 102 359 218 58 54 76
59 68 20 -23 -123 -27 -174 -16 -208 6 -19 15 -37 20 -40 20 -13 70 29 169
139 105 118 147 156 174 156 22 0 40 -35 72 -137 35 -114 69 -155 110 -133 30
16 72 66 138 163 l47 68 0 -96 c0 -120 14 -155 64 -155 41 0 107 43 170 110
26 28 51 50 55 50 5 0 11 -13 14 -30 4 -16 22 -46 40 -67 31 -33 40 -37 96
-41 54 -4 70 -1 124 26 35 17 98 61 140 97 65 56 78 63 83 48 23 -65 46 -103
75 -124 29 -21 45 -24 109 -23 93 1 155 28 220 94 68 70 103 149 104 236 1
103 -33 160 -110 190 -88 34 -202 2 -283 -78 -51 -49 -101 -124 -101 -149 0
-63 -233 -203 -307 -184 -57 14 -74 126 -31 211 40 81 131 144 207 144 32 0
81 28 81 47 0 46 -72 54 -167 20 -120 -42 -223 -140 -266 -251 -18 -47 -36
-71 -94 -123 -97 -87 -108 -84 -107 27 1 47 8 114 17 150 34 141 41 198 27
214 -16 21 -19 20 -60 -8z m-1660 -84 c0 -26 -52 -151 -75 -180 -26 -32 -151
-102 -184 -102 -23 0 -51 31 -51 57 0 13 7 37 15 53 22 42 140 137 200 160 53
20 95 25 95 12z m538 -18 c45 -31 23 -130 -40 -177 -32 -24 -131 -77 -144 -77
-18 0 4 123 32 177 41 81 102 112 152 77z m2205 -33 c43 -42 18 -168 -48 -245
-33 -38 -124 -69 -164 -55 -35 12 -61 61 -61 116 0 30 12 54 58 118 35 47 67
82 82 87 43 12 110 2 133 -21z m-2827 -514 c-3 -13 -8 -49 -12 -80 -4 -32 -11
-60 -15 -63 -5 -3 -9 -14 -9 -25 0 -10 -4 -27 -9 -37 -4 -9 -20 -42 -33 -72
-38 -84 -73 -120 -114 -120 -46 0 -67 40 -66 132 1 118 48 183 183 258 66 36
83 38 75 7z"/>
<path d="M1295 2281 c-22 -4 -53 -14 -70 -22 l-30 -14 0 -255 0 -255 72 -3 73
-3 2 233 3 233 67 3 c61 3 71 0 93 -22 l25 -25 0 -211 0 -210 71 0 70 0 -3
224 -3 224 -31 38 c-42 52 -105 73 -214 72 -47 0 -103 -4 -125 -7z"/>
<path d="M7285 2283 c-22 -6 -83 -48 -103 -73 -51 -62 -78 -178 -61 -265 25
-127 77 -192 174 -220 44 -13 65 -14 112 -5 32 5 66 18 76 28 16 17 16 20 2
49 -15 30 -16 31 -80 25 -62 -4 -66 -3 -92 25 -71 76 -71 250 -1 320 27 26 79
34 129 19 24 -7 29 -4 43 25 19 39 10 54 -43 69 -37 10 -120 12 -156 3z"/>
<path d="M7722 2264 c-52 -26 -112 -94 -112 -128 0 -8 -4 -18 -10 -21 -6 -3
-10 -50 -10 -105 0 -83 4 -108 24 -152 27 -62 65 -100 121 -124 55 -23 150
-21 206 3 52 23 107 83 116 124 3 16 10 32 14 35 13 8 11 182 -3 223 -50 149
-207 214 -346 145z m179 -88 c66 -69 61 -291 -8 -346 -39 -30 -89 -26 -123 10
-32 35 -40 66 -40 169 0 96 13 144 47 171 36 28 94 27 124 -4z"/>
<path d="M8300 2274 c-30 -8 -58 -18 -63 -23 -4 -4 -6 -122 -5 -262 l3 -254
68 -3 67 -3 0 229 c0 260 -6 242 85 242 42 0 60 -5 80 -23 l27 -22 1 -210 2
-210 68 -3 67 -3 0 219 c0 252 -3 243 88 250 47 3 62 0 82 -16 l25 -20 0 -214
0 -213 70 0 70 0 3 200 c3 223 -5 264 -59 309 -63 53 -200 60 -291 15 l-48
-23 -42 24 c-36 21 -59 25 -143 27 -67 2 -118 -2 -155 -13z"/>
<path d="M9300 2281 c-19 -5 -47 -13 -62 -19 l-28 -12 0 -370 0 -370 65 0 64
0 3 107 3 107 61 -3 c80 -3 133 12 185 52 80 62 123 189 99 295 -22 101 -55
147 -135 192 -31 18 -59 23 -130 26 -49 2 -106 -1 -125 -5z m174 -86 c55 -26
76 -78 76 -184 0 -140 -34 -194 -133 -207 -76 -11 -77 -9 -77 202 0 164 2 184
18 193 25 15 79 13 116 -4z"/>
<path d="M9920 2274 c-71 -19 -76 -25 -56 -68 9 -20 18 -36 19 -36 1 0 20 7
42 15 22 8 68 14 103 15 54 0 66 -3 88 -25 17 -17 24 -34 22 -53 -3 -23 -9
-28 -43 -35 -110 -22 -143 -31 -175 -47 -79 -40 -119 -112 -105 -186 9 -51 67
-108 125 -124 91 -25 291 -8 326 27 13 14 15 42 11 208 -6 210 -11 231 -67
278 -17 15 -47 31 -68 37 -52 14 -157 11 -222 -6z m218 -356 l-3 -113 -67 -3
c-61 -3 -71 0 -93 22 -37 37 -35 107 4 146 16 16 41 32 57 35 16 4 40 11 54
15 51 17 51 18 48 -102z"/>
<path d="M10545 2281 c-22 -4 -53 -14 -70 -22 l-30 -14 0 -255 0 -255 68 -3
67 -3 0 229 c0 261 -7 242 91 242 93 0 93 0 99 -253 l5 -212 70 0 70 0 3 212
c3 242 -1 255 -78 307 -40 28 -51 30 -149 32 -58 2 -124 -1 -146 -5z"/>
<path d="M11036 2271 c-3 -5 3 -31 13 -57 11 -27 34 -89 51 -139 17 -49 35
-99 40 -110 4 -11 18 -49 30 -85 11 -36 26 -75 33 -88 18 -38 12 -83 -22 -157
-17 -38 -36 -78 -41 -87 -19 -33 -11 -38 63 -38 83 0 74 -11 127 150 30 91 35
105 58 160 5 14 20 54 32 90 11 36 25 74 30 85 17 38 82 230 87 258 l5 28 -63
-3 -64 -3 -38 -114 c-21 -63 -46 -146 -56 -185 -17 -65 -41 -101 -41 -60 0 9
-9 49 -20 88 -11 39 -25 89 -31 111 -6 22 -15 49 -19 60 -4 11 -13 39 -20 63
l-13 42 -68 0 c-37 0 -70 -4 -73 -9z"/>
</g>
</svg>
