<?xml version="1.0" standalone="no"?>
<!DOCTYPE svg PUBLIC "-//W3C//DTD SVG 20010904//EN"
 "http://www.w3.org/TR/2001/REC-SVG-20010904/DTD/svg10.dtd">
<svg version="1.0" xmlns="http://www.w3.org/2000/svg"
 width="1200.000000pt" height="660.000000pt" viewBox="0 0 1200.000000 660.000000"
 preserveAspectRatio="xMidYMid meet">
<metadata>
Created by potrace 1.13, written by Peter Selinger 2001-2015
</metadata>
<g transform="translate(0.000000,660.000000) scale(0.100000,-0.100000)"
fill="#000000" stroke="none">
<path d="M5700 6163 c-413 -40 -880 -208 -1250 -451 -192 -125 -308 -219 -475
-387 -362 -361 -600 -757 -740 -1231 -33 -110 -54 -216 -77 -394 -8 -61 -13
-224 -13 -450 0 -351 0 -356 28 -480 109 -495 262 -834 545 -1210 255 -340
617 -642 998 -833 291 -146 614 -248 874 -278 149 -17 656 -17 815 -1 352 37
767 190 1123 413 290 183 592 464 789 734 274 377 454 811 523 1261 28 178 38
520 21 701 -65 684 -372 1338 -840 1785 -317 305 -610 492 -1011 650 -228 90
-464 143 -740 168 -105 9 -487 11 -570 3z m602 -1170 c-2 -490 0 -573 12 -573
8 0 49 16 92 36 96 45 287 100 403 115 135 18 355 7 476 -25 245 -64 407 -156
586 -335 158 -158 249 -306 319 -519 47 -146 64 -251 64 -407 -1 -203 -35
-350 -127 -532 -308 -616 -939 -870 -1607 -647 -25 9 -80 31 -123 50 -43 19
-82 34 -87 34 -6 0 -11 -222 -12 -572 l-3 -573 -307 -3 c-242 -2 -308 0 -309
10 -1 7 -1 264 1 571 2 419 0 557 -9 557 -7 0 -30 -10 -53 -21 -120 -61 -312
-114 -468 -130 -270 -27 -537 37 -795 189 -172 101 -368 316 -461 505 -91 186
-129 334 -140 553 -14 282 76 558 262 804 57 75 204 218 289 281 225 165 552
252 831 219 128 -14 290 -54 369 -89 11 -5 51 -23 88 -40 37 -17 71 -31 76
-31 10 0 21 404 21 801 0 174 3 325 6 333 6 15 39 16 308 14 l301 -3 -3 -572z"/>
<path d="M6810 3959 c-145 -39 -259 -111 -351 -221 -183 -220 -210 -538 -68
-774 102 -168 288 -284 531 -330 239 -45 527 114 646 358 55 112 75 199 75
323 0 270 -129 481 -364 594 -151 72 -318 90 -469 50z"/>
<path d="M4915 3954 c-215 -52 -328 -118 -425 -249 -96 -130 -134 -260 -127
-435 2 -71 11 -134 21 -165 96 -281 283 -433 582 -475 262 -37 535 111 658
356 71 142 94 321 62 468 -41 182 -159 334 -326 420 -101 52 -199 78 -315 81
-60 2 -119 2 -130 -1z"/>
</g>
</svg>
