<?xml version="1.0" standalone="no"?>
<!DOCTYPE svg PUBLIC "-//W3C//DTD SVG 20010904//EN"
 "http://www.w3.org/TR/2001/REC-SVG-20010904/DTD/svg10.dtd">
<svg version="1.0" xmlns="http://www.w3.org/2000/svg"
 width="1200.000000pt" height="660.000000pt" viewBox="0 0 1200.000000 660.000000"
 preserveAspectRatio="xMidYMid meet">
<metadata>
Created by potrace 1.13, written by Peter Selinger 2001-2015
</metadata>
<g transform="translate(0.000000,660.000000) scale(0.100000,-0.100000)"
fill="#000000" stroke="none">
<path d="M6905 6201 c-233 -6 -242 -7 -297 -33 -32 -15 -74 -39 -93 -55 -47
-36 -114 -136 -130 -193 -7 -25 -24 -90 -39 -145 -14 -55 -31 -109 -36 -120
-5 -11 -16 -45 -24 -76 -8 -31 -21 -70 -29 -85 -8 -16 -20 -57 -27 -92 -7 -34
-17 -65 -21 -68 -5 -3 -9 -16 -9 -30 0 -13 -4 -32 -10 -42 -17 -31 -70 -196
-70 -219 0 -12 -4 -25 -10 -28 -5 -3 -10 -19 -10 -34 0 -15 -6 -33 -12 -39 -7
-7 -20 -47 -28 -90 -14 -72 -17 -77 -42 -80 -22 -3 -28 1 -28 15 0 11 -4 23
-9 29 -10 9 -39 103 -48 157 -3 15 -9 30 -14 33 -5 3 -9 16 -9 29 0 13 -4 26
-9 29 -5 3 -11 20 -14 38 -11 63 -19 93 -38 135 -10 24 -19 48 -19 55 0 13
-18 71 -31 103 -5 11 -13 41 -19 66 -5 26 -23 84 -38 130 -16 46 -39 118 -52
159 -12 41 -36 113 -52 160 -16 47 -32 96 -35 110 -7 32 -53 81 -128 136 l-59
44 -279 0 -279 0 -62 -27 c-33 -15 -78 -40 -99 -56 -42 -33 -102 -120 -123
-181 -8 -21 -18 -44 -22 -50 -5 -6 -16 -36 -25 -66 -9 -30 -28 -91 -43 -135
-14 -44 -29 -99 -33 -123 -4 -24 -13 -48 -19 -54 -7 -7 -12 -20 -12 -31 0 -16
-22 -96 -38 -137 -3 -8 -11 -33 -17 -55 -7 -22 -28 -85 -47 -140 -31 -89 -65
-193 -130 -405 -11 -36 -26 -81 -33 -100 -31 -88 -37 -109 -52 -165 -8 -33
-19 -64 -24 -69 -5 -6 -9 -19 -9 -30 0 -12 -21 -79 -46 -151 -25 -71 -50 -147
-55 -168 -5 -20 -20 -65 -33 -100 -13 -34 -45 -129 -71 -212 -26 -82 -53 -163
-60 -180 -16 -38 -65 -198 -65 -212 0 -35 26 -37 368 -34 189 1 341 7 347 12
5 5 15 9 22 9 18 0 115 64 151 99 54 54 119 188 137 281 4 19 15 60 25 90 10
30 23 73 29 95 23 86 72 241 81 257 6 10 10 26 10 35 0 10 12 50 26 88 14 39
36 113 50 165 13 52 30 109 38 125 8 17 20 51 26 77 16 63 30 74 62 48 25 -19
54 -83 78 -170 6 -25 16 -53 21 -62 5 -10 9 -27 9 -38 0 -11 4 -28 9 -38 5 -9
24 -64 41 -122 17 -58 35 -119 40 -136 6 -17 10 -40 10 -52 0 -11 4 -23 10
-27 5 -3 23 -52 40 -108 18 -56 61 -193 97 -304 63 -198 65 -203 113 -247 80
-74 88 -76 379 -76 273 0 301 4 397 53 27 14 73 50 102 80 45 46 58 68 88 153
20 54 40 113 44 129 5 17 19 64 30 105 12 41 29 100 38 130 8 30 21 64 29 75
7 11 13 28 13 38 0 10 15 66 34 125 19 59 40 127 47 152 6 25 17 59 25 75 7
17 16 44 19 60 14 58 48 160 56 170 5 5 9 19 9 31 0 12 7 25 16 28 26 10 50
-11 64 -56 7 -24 21 -68 32 -98 11 -30 24 -73 29 -95 9 -37 20 -72 39 -120 4
-11 13 -40 20 -65 7 -25 16 -56 20 -70 5 -14 20 -65 35 -115 14 -49 44 -146
65 -215 21 -69 41 -134 43 -145 11 -42 67 -196 86 -233 36 -70 150 -156 245
-183 35 -10 653 -13 679 -4 9 4 17 17 17 30 0 18 -53 189 -109 350 -6 17 -24
73 -40 126 -16 52 -34 106 -40 120 -5 13 -20 58 -32 99 -12 41 -30 98 -40 125
-10 28 -30 91 -45 140 -15 50 -30 97 -34 105 -4 8 -26 74 -48 145 -75 239
-133 430 -148 480 -8 28 -21 66 -29 85 -7 19 -25 76 -40 125 -14 50 -35 113
-45 140 -10 28 -33 97 -50 155 -17 58 -45 144 -61 192 -16 47 -29 95 -29 105
0 10 -4 23 -9 29 -5 5 -16 36 -26 69 -24 84 -68 147 -136 195 -53 37 -139 73
-164 68 -5 -1 -118 -4 -250 -7z"/>
<path d="M9669 2457 c-24 -12 -43 -45 -154 -264 -32 -62 -63 -113 -69 -113 -6
0 -22 24 -37 53 -52 108 -152 293 -167 310 -13 15 -34 17 -149 17 -158 0 -156
2 -94 -113 22 -40 100 -184 175 -321 l135 -249 3 -151 3 -151 127 -3 c113 -2
128 -1 136 15 5 10 8 77 7 148 l-2 130 40 80 c21 44 43 85 47 90 8 11 53 93
113 205 22 41 48 87 58 102 11 14 19 29 19 32 0 4 20 40 45 80 25 41 45 79 45
85 0 6 -9 15 -20 21 -26 14 -231 11 -261 -3z"/>
<path d="M2465 2448 c-82 -15 -184 -70 -245 -132 -203 -205 -200 -510 8 -709
241 -229 626 -159 775 141 l42 85 0 131 0 131 -37 77 c-104 211 -317 319 -543
276z m195 -259 c90 -40 138 -106 147 -202 5 -56 2 -72 -20 -121 -30 -65 -63
-99 -125 -126 -159 -71 -342 52 -342 228 0 49 38 138 71 169 80 73 180 92 269
52z"/>
<path d="M3112 2448 c-17 -17 -17 -949 0 -966 14 -14 344 -17 366 -4 12 8 57
80 101 164 39 73 32 78 -114 78 l-125 0 0 360 c0 345 -1 360 -19 370 -28 14
-194 13 -209 -2z"/>
<path d="M4782 2448 c-5 -8 -15 -183 -22 -423 -14 -465 -15 -488 -25 -505 -4
-6 1 -20 11 -31 15 -17 31 -19 133 -19 64 0 122 4 128 8 9 6 13 69 15 232 3
190 5 225 18 227 11 2 38 -56 100 -213 46 -119 90 -224 98 -235 11 -16 25 -19
81 -19 38 0 74 5 83 13 13 9 153 342 182 430 3 9 12 17 19 17 18 0 27 -101 27
-296 0 -131 2 -144 19 -154 11 -5 69 -10 129 -10 137 0 137 0 128 112 -4 46
-13 257 -20 469 -7 212 -16 391 -20 397 -5 8 -52 12 -154 12 l-148 0 -28 -67
c-16 -38 -43 -102 -61 -143 -18 -41 -57 -132 -86 -202 -30 -71 -59 -128 -65
-128 -10 0 -24 30 -96 205 -16 39 -38 89 -49 113 -11 24 -33 78 -50 120 -17
42 -35 83 -41 90 -7 8 -51 12 -153 12 -102 0 -145 -4 -153 -12z"/>
<path d="M7099 2448 c-6 -70 -3 -947 3 -960 8 -16 24 -18 127 -18 89 0 121 3
130 14 8 10 11 82 9 250 -3 217 -2 236 14 236 10 0 22 -8 27 -17 13 -26 284
-390 326 -440 l36 -43 108 0 c80 0 112 4 120 14 8 9 10 147 9 492 l-3 479
-130 0 -130 0 -3 -252 c-2 -213 -5 -253 -17 -253 -8 0 -20 10 -26 23 -7 12
-55 81 -107 152 -53 72 -120 164 -150 205 -101 138 -88 130 -224 130 -87 0
-118 -3 -119 -12z"/>
<path d="M8184 2448 c-10 -16 -12 -939 -2 -960 8 -17 35 -18 362 -18 301 0
355 2 366 15 14 17 16 213 1 228 -4 4 -105 8 -223 7 -164 0 -217 2 -224 12 -5
7 -9 33 -9 58 l0 45 188 5 c152 4 190 8 197 20 11 18 6 198 -7 211 -5 5 -89
10 -188 11 l-180 3 0 60 0 60 215 3 c156 2 216 6 222 15 13 20 10 211 -4 225
-17 17 -704 17 -714 0z"/>
<path d="M4030 2338 c-35 -62 -76 -135 -90 -163 -15 -27 -47 -86 -72 -130 -25
-44 -59 -105 -75 -135 -66 -120 -122 -219 -172 -305 -74 -128 -73 -129 72
-133 134 -3 138 -1 187 95 13 26 46 85 72 130 26 46 66 118 89 160 59 111 62
113 92 67 13 -22 68 -120 122 -219 55 -99 107 -193 118 -208 l19 -28 121 3
c118 3 122 4 125 25 2 13 -5 35 -16 50 -10 16 -63 109 -117 208 -99 182 -192
351 -313 570 -37 66 -74 121 -83 123 -11 2 -35 -31 -79 -110z"/>
<path d="M6360 2435 c-104 -33 -208 -110 -271 -202 -75 -108 -97 -303 -51
-433 31 -84 80 -157 142 -209 206 -173 510 -151 684 51 91 105 120 195 114
347 -4 97 -7 112 -41 181 -64 132 -165 223 -289 262 -72 22 -221 23 -288 3z
m214 -236 c48 -13 123 -82 147 -134 23 -49 25 -142 4 -191 -21 -51 -61 -95
-114 -126 -149 -89 -362 36 -360 212 1 167 160 284 323 239z"/>
<path d="M3524 971 c-17 -4 -36 -11 -42 -15 -17 -10 -17 -557 0 -574 18 -18
66 -15 76 6 5 9 10 46 11 81 1 36 4 68 7 73 3 4 47 8 97 8 147 1 208 43 237
164 10 43 11 64 2 93 -32 105 -93 145 -245 162 -106 12 -99 12 -143 2z m224
-106 c47 -19 72 -59 72 -115 0 -36 -6 -48 -36 -76 -36 -35 -43 -36 -154 -36
-75 0 -70 -9 -70 110 0 71 4 112 12 120 17 17 130 15 176 -3z"/>
<path d="M4275 950 c-67 -32 -92 -56 -122 -115 -42 -82 -45 -239 -7 -323 22
-48 71 -100 115 -123 30 -15 58 -19 131 -18 137 1 187 25 237 114 31 56 54
154 47 200 -2 17 -8 48 -11 70 -14 88 -91 188 -155 201 -14 3 -35 10 -48 15
-46 18 -124 10 -187 -21z m188 -74 c84 -31 112 -84 111 -211 -1 -103 -18 -144
-74 -182 -49 -34 -161 -33 -212 2 -55 37 -68 72 -68 184 0 81 4 102 23 135 41
73 133 103 220 72z"/>
<path d="M5000 952 c-64 -31 -89 -71 -90 -143 0 -80 54 -133 174 -169 141 -43
193 -105 134 -160 -20 -19 -33 -21 -103 -18 -64 2 -91 9 -134 31 -50 27 -54
27 -72 11 -67 -61 54 -134 223 -134 70 0 94 4 122 21 68 40 101 135 71 205
-16 38 -75 84 -137 106 -24 9 -64 24 -90 33 -54 20 -98 59 -98 85 0 10 14 30
31 44 36 31 87 34 169 10 67 -19 91 -19 101 -2 26 40 -9 71 -101 92 -99 22
-136 20 -200 -12z"/>
<path d="M5572 969 c-60 -8 -80 -43 -46 -80 14 -15 26 -17 74 -12 32 3 70 3
84 -1 l26 -6 0 -239 c0 -260 1 -266 57 -259 l28 3 3 247 2 247 36 7 c19 3 58
4 85 2 63 -6 96 14 85 55 -3 14 -16 29 -29 33 -26 9 -343 12 -405 3z"/>
<path d="M6251 951 c-20 -20 -21 -28 -21 -289 0 -288 1 -292 52 -292 37 0 50
28 47 99 -1 32 1 63 5 69 5 8 40 12 99 12 81 0 98 4 142 28 72 39 97 91 93
192 -4 88 -24 125 -93 166 -39 23 -58 26 -173 31 -123 6 -130 5 -151 -16z
m272 -92 c62 -28 75 -148 21 -194 -20 -17 -43 -24 -99 -28 -119 -9 -115 -13
-115 117 0 62 3 116 8 120 10 11 154 -1 185 -15z"/>
<path d="M7063 960 c-12 -5 -25 -19 -28 -32 -4 -13 -18 -45 -30 -73 -13 -27
-37 -84 -55 -125 -18 -41 -43 -99 -56 -128 -13 -29 -24 -55 -24 -57 0 -2 -14
-33 -31 -69 -39 -83 -37 -101 16 -101 39 0 40 1 75 72 l35 73 136 0 c152 0
147 2 179 -80 19 -50 39 -70 70 -70 42 0 56 23 37 62 -32 70 -57 127 -75 174
-11 27 -32 76 -47 109 -37 82 -50 113 -71 165 -31 82 -69 105 -131 80z m113
-275 c27 -71 29 -70 -70 -73 -49 -2 -93 1 -97 5 -4 4 8 42 27 83 18 41 41 93
50 115 l17 40 29 -65 c16 -36 36 -83 44 -105z"/>
<path d="M7656 954 c-14 -13 -16 -54 -16 -288 0 -198 3 -275 12 -284 19 -19
66 -15 78 7 6 12 10 119 10 278 0 218 -2 262 -16 281 -18 26 -46 28 -68 6z"/>
<path d="M8068 960 c-16 -10 -18 -35 -18 -288 0 -203 3 -281 12 -290 16 -16
246 -16 285 -1 151 61 203 136 203 294 0 92 -20 146 -73 202 -62 65 -115 83
-265 89 -84 3 -133 1 -144 -6z m290 -113 c24 -11 54 -36 68 -56 21 -31 24 -47
24 -116 -1 -44 -6 -89 -13 -101 -45 -78 -92 -104 -198 -111 -62 -5 -79 -3 -83
8 -2 8 -7 96 -10 196 -5 147 -4 184 7 195 21 20 150 11 205 -15z"/>
</g>
</svg>
