<?xml version="1.0" standalone="no"?>
<!DOCTYPE svg PUBLIC "-//W3C//DTD SVG 20010904//EN"
 "http://www.w3.org/TR/2001/REC-SVG-20010904/DTD/svg10.dtd">
<svg version="1.0" xmlns="http://www.w3.org/2000/svg"
 width="1200.000000pt" height="660.000000pt" viewBox="0 0 1200.000000 660.000000"
 preserveAspectRatio="xMidYMid meet">
<metadata>
Created by potrace 1.13, written by Peter Selinger 2001-2015
</metadata>
<g transform="translate(0.000000,660.000000) scale(0.100000,-0.100000)"
fill="#000000" stroke="none">
<path d="M673 5836 c-55 -18 -100 -46 -145 -93 -75 -78 -102 -163 -96 -303 l3
-85 5560 0 5560 0 3 85 c4 95 -10 175 -40 229 -31 56 -98 119 -158 149 l-55
27 -5295 2 c-4337 1 -5303 -1 -5337 -11z"/>
<path d="M440 5075 c-2 -101 1 -3589 3 -3589 1 -1 470 2 1042 5 1125 7 1077 5
1277 63 399 117 659 330 1194 976 537 649 651 786 657 796 3 6 -53 78 -125
160 -72 82 -224 255 -337 384 -113 129 -208 237 -211 240 -3 3 -53 60 -112
127 -138 158 -161 202 -161 308 0 119 42 194 142 253 40 23 57 27 126 27 89 0
119 -12 187 -73 36 -32 186 -202 726 -819 73 -84 134 -153 136 -153 2 0 89
104 192 232 104 127 234 286 289 352 55 67 147 179 204 249 137 170 193 207
307 207 77 0 134 -24 186 -78 66 -68 81 -107 82 -202 0 -103 -18 -145 -103
-247 -340 -407 -765 -931 -765 -945 -1 -9 123 -157 274 -328 151 -172 276
-316 278 -321 4 -10 -27 -49 -212 -270 -71 -85 -135 -157 -141 -161 -9 -5
-106 99 -291 311 -169 193 -284 316 -291 312 -15 -8 -290 -346 -752 -926 -120
-150 -301 -338 -397 -411 -41 -31 -74 -60 -74 -63 0 -7 7780 -8 7781 -1 4 19
7 3568 3 3581 -4 15 -84 17 -917 17 -515 0 -964 -4 -1032 -9 -268 -22 -486
-97 -709 -243 -245 -160 -393 -309 -922 -926 -149 -173 -339 -393 -422 -489
-150 -173 -152 -175 -134 -195 10 -12 77 -91 148 -176 135 -160 172 -205 503
-598 108 -128 208 -254 223 -280 92 -161 22 -358 -149 -422 -62 -23 -86 -24
-147 -8 -91 24 -131 66 -532 548 -212 256 -398 477 -413 493 l-27 27 -398
-466 c-224 -262 -418 -480 -443 -498 -60 -42 -97 -54 -166 -55 -102 -2 -198
62 -246 164 -44 94 -19 248 53 326 12 13 130 150 263 304 132 154 315 366 406
472 l166 192 -22 28 c-12 15 -116 141 -232 278 -291 347 -295 351 -295 364 0
18 342 441 357 441 7 0 41 -35 75 -78 66 -81 227 -277 391 -474 54 -65 100
-118 102 -118 2 0 93 105 202 233 108 127 200 234 203 237 13 12 166 197 265
320 228 283 362 423 514 540 45 33 81 62 81 63 0 1 -1768 2 -3930 2 -2613 0
-3930 -3 -3930 -10z m2060 -280 c288 -54 545 -185 751 -382 159 -153 265 -307
345 -500 355 -855 -157 -1806 -1076 -2000 -120 -25 -440 -25 -558 0 -294 63
-543 198 -747 402 -213 214 -343 454 -406 755 -28 136 -31 397 -6 535 57 305
194 569 404 777 101 100 138 130 248 202 188 124 395 195 665 230 66 8 295 -3
380 -19z m7508 14 c187 -20 325 -60 500 -146 400 -196 686 -563 783 -1008 26
-119 36 -352 19 -481 -42 -339 -192 -639 -436 -874 -116 -112 -204 -175 -344
-248 -224 -117 -411 -162 -670 -162 -401 0 -726 132 -1018 415 -363 349 -515
840 -416 1340 34 169 118 369 221 523 69 103 229 272 332 349 209 158 438 252
699 288 123 16 208 18 330 4z"/>
<path d="M2080 4254 c-351 -71 -608 -305 -717 -652 -25 -80 -27 -101 -27 -247
0 -178 15 -255 76 -384 129 -270 356 -449 660 -520 82 -19 288 -14 386 10 96
23 225 79 298 130 129 88 262 246 325 385 59 130 74 204 74 374 0 132 -4 167
-23 235 -76 265 -243 469 -481 589 -166 84 -394 116 -571 80z"/>
<path d="M9690 4255 c-326 -66 -602 -309 -701 -617 -24 -76 -49 -219 -49 -283
0 -170 67 -378 171 -532 95 -139 284 -280 454 -338 177 -60 424 -61 590 -2
218 78 405 237 512 437 81 150 108 260 106 445 -1 121 -4 152 -27 229 -122
409 -481 680 -896 675 -52 -1 -124 -7 -160 -14z"/>
<path d="M5985 1220 l-5550 -5 0 -115 c1 -102 4 -121 27 -171 36 -79 89 -133
166 -171 l67 -33 5305 0 5305 0 63 34 c75 41 125 94 160 170 22 47 27 73 30
166 3 85 1 113 -9 120 -9 7 -2040 8 -5564 5z"/>
</g>
</svg>
