<?xml version="1.0" standalone="no"?>
<!DOCTYPE svg PUBLIC "-//W3C//DTD SVG 20010904//EN"
 "http://www.w3.org/TR/2001/REC-SVG-20010904/DTD/svg10.dtd">
<svg version="1.0" xmlns="http://www.w3.org/2000/svg"
 width="1200.000000pt" height="660.000000pt" viewBox="0 0 1200.000000 660.000000"
 preserveAspectRatio="xMidYMid meet">
<metadata>
Created by potrace 1.13, written by Peter Selinger 2001-2015
</metadata>
<g transform="translate(0.000000,660.000000) scale(0.100000,-0.100000)"
fill="#000000" stroke="none">
<path d="M1779 4830 c-317 -37 -636 -187 -877 -414 -54 -51 -72 -84 -72 -133
0 -70 63 -133 133 -133 50 0 66 9 162 94 209 186 450 290 736 318 221 22 456
-24 674 -132 142 -71 231 -135 342 -248 178 -180 293 -402 343 -661 22 -110
36 -143 71 -162 70 -37 130 -28 178 27 27 30 31 42 31 93 0 108 -72 353 -148
506 -116 233 -339 480 -560 619 -146 91 -345 170 -522 206 -119 25 -365 34
-491 20z"/>
<path d="M1793 4296 c-161 -31 -335 -106 -453 -195 -63 -48 -872 -851 -907
-901 -14 -19 -18 -45 -18 -115 0 -49 3 -102 8 -117 9 -32 59 -62 88 -53 10 4
239 226 507 495 437 438 495 492 562 529 156 85 308 115 492 98 120 -11 155
-3 187 42 56 80 15 182 -84 211 -63 18 -298 22 -382 6z"/>
<path d="M4760 4126 c-337 -71 -598 -333 -665 -665 -23 -111 -16 -294 14 -399
42 -145 122 -274 240 -384 239 -226 583 -289 893 -164 104 42 171 89 274 191
89 89 106 111 152 205 75 154 87 205 87 390 0 135 -3 165 -23 230 -90 287
-319 510 -602 585 -87 23 -284 29 -370 11z m329 -386 c365 -144 420 -617 97
-839 -236 -162 -567 -69 -693 195 -37 78 -38 81 -38 199 0 118 1 121 37 198
62 129 174 224 309 262 75 21 216 14 288 -15z"/>
<path d="M8090 4125 c-251 -51 -480 -224 -593 -450 -106 -212 -116 -485 -25
-704 83 -199 262 -378 456 -457 255 -103 550 -77 770 67 516 338 521 1073 9
1421 -168 114 -416 164 -617 123z m281 -371 c237 -70 388 -297 350 -528 -41
-245 -260 -420 -506 -404 -308 22 -518 333 -419 623 29 85 99 180 167 229 79
55 94 63 159 80 71 20 182 19 249 0z"/>
<path d="M11318 4101 c-130 -11 -187 -66 -234 -220 -125 -414 -231 -736 -243
-736 -17 0 -12 -15 -172 485 -71 223 -136 420 -144 438 l-15 32 -164 0 -164 0
-10 -27 c-6 -16 -28 -80 -47 -143 -157 -496 -257 -790 -270 -790 -8 0 -15 2
-15 4 0 2 -32 105 -71 228 -39 122 -96 304 -126 403 -62 201 -69 218 -110 259
-55 56 -92 66 -260 66 -121 0 -153 -3 -153 -13 0 -8 38 -123 84 -258 83 -242
300 -897 393 -1184 l49 -150 194 0 195 0 33 100 c19 55 86 260 151 455 77 235
122 355 131 355 13 0 56 -123 230 -663 l81 -252 196 2 197 3 33 105 c62 193
305 922 400 1199 52 155 91 283 87 293 -5 16 -16 18 -92 16 -48 0 -122 -4
-164 -7z"/>
<path d="M5897 4093 c-4 -3 -7 -52 -7 -108 0 -123 21 -177 85 -212 39 -22 46
-23 398 -23 291 0 357 -2 357 -13 0 -14 -29 -48 -389 -456 -119 -134 -236
-267 -261 -296 -25 -29 -78 -89 -117 -133 l-73 -82 0 -135 c0 -131 1 -135 23
-140 12 -3 333 -4 712 -3 l690 3 3 100 c2 74 -1 111 -13 143 -16 40 -58 81
-99 96 -11 4 -188 7 -393 6 -321 0 -373 2 -373 14 0 8 172 201 383 427 210
227 408 442 440 476 l58 64 -3 137 -3 137 -706 3 c-388 1 -709 -1 -712 -5z"/>
<path d="M2489 4021 c-35 -35 -39 -44 -39 -89 0 -47 4 -55 51 -109 156 -177
212 -317 212 -528 0 -136 -15 -210 -68 -320 -220 -461 -816 -575 -1185 -228
-80 75 -142 161 -184 256 -13 29 -35 61 -51 71 -38 25 -96 31 -127 15 -14 -8
-123 -108 -241 -223 -228 -220 -245 -243 -233 -314 3 -20 30 -73 60 -117 218
-320 548 -550 920 -640 441 -107 921 -12 1279 255 109 82 245 212 292 279 72
104 -1 230 -125 218 -42 -5 -51 -12 -135 -100 -139 -146 -230 -215 -382 -291
-227 -113 -488 -157 -733 -122 -302 43 -555 175 -765 398 -102 108 -107 119
-69 161 82 91 130 137 144 137 8 0 33 -26 55 -56 48 -68 144 -159 222 -212
494 -335 1148 -193 1457 317 139 229 178 517 105 783 -39 141 -130 307 -225
410 -69 75 -91 88 -147 88 -44 0 -53 -4 -88 -39z"/>
<path d="M1839 3766 c-121 -34 -248 -136 -303 -244 -99 -195 -65 -415 88 -568
126 -126 299 -173 471 -129 235 62 393 301 355 541 -38 242 -241 416 -484 413
-44 0 -102 -6 -127 -13z m247 -282 c63 -39 104 -113 104 -189 0 -76 -41 -150
-104 -189 -152 -94 -340 11 -340 189 0 177 189 283 340 189z"/>
</g>
</svg>
