<?xml version="1.0" standalone="no"?>
<!DOCTYPE svg PUBLIC "-//W3C//DTD SVG 20010904//EN"
 "http://www.w3.org/TR/2001/REC-SVG-20010904/DTD/svg10.dtd">
<svg version="1.0" xmlns="http://www.w3.org/2000/svg"
 width="1200.000000pt" height="660.000000pt" viewBox="0 0 1200.000000 660.000000"
 preserveAspectRatio="xMidYMid meet">
<metadata>
Created by potrace 1.13, written by Peter Selinger 2001-2015
</metadata>
<g transform="translate(0.000000,660.000000) scale(0.100000,-0.100000)"
fill="#000000" stroke="none">
<path d="M10620 5049 c-25 -5 -72 -14 -105 -20 -169 -31 -343 -119 -418 -211
-59 -73 -71 -105 -71 -188 0 -90 22 -141 92 -216 158 -169 555 -261 900 -209
221 33 377 98 475 197 83 83 102 123 102 218 0 102 -32 169 -116 237 -166 137
-390 204 -674 202 -77 -1 -160 -5 -185 -10z m365 -114 c178 -32 281 -74 354
-143 110 -104 32 -215 -209 -295 -220 -74 -563 -60 -770 31 -56 24 -150 94
-167 124 -24 44 -16 82 27 130 58 67 181 122 340 153 92 17 328 18 425 0z"/>
<path d="M9169 4648 c-10 -9 -30 -88 -58 -233 -24 -121 -47 -237 -52 -257
l-10 -37 -71 -3 -72 -3 -23 -105 c-12 -58 -22 -111 -22 -117 -1 -9 18 -13 63
-13 36 0 67 -4 70 -9 3 -4 -1 -42 -10 -82 -9 -41 -22 -110 -31 -154 -19 -104
-24 -126 -67 -340 -20 -99 -36 -194 -36 -211 0 -17 14 -98 30 -180 35 -172 48
-192 160 -247 l64 -32 240 -3 c131 -2 242 0 247 5 10 10 52 223 45 230 -3 3
-97 5 -210 4 -185 -2 -208 0 -243 18 -68 35 -103 87 -103 156 0 19 36 214 80
434 44 221 80 403 80 406 0 2 111 6 247 7 l247 3 19 90 c10 50 21 102 24 118
l5 27 -241 0 c-186 0 -241 3 -241 13 0 17 30 167 60 297 4 19 14 60 21 90 7
30 13 73 13 95 l1 40 -105 3 c-75 2 -110 -1 -121 -10z"/>
<path d="M5555 4625 c-207 -52 -361 -195 -430 -399 -8 -23 -53 -234 -101 -471
-47 -236 -113 -560 -145 -720 -72 -349 -84 -414 -77 -420 3 -3 56 -2 118 2
l114 8 46 225 c116 557 133 635 137 643 2 4 137 7 298 7 l295 0 5 23 c18 77
38 175 39 192 1 20 -6 20 -296 23 -164 1 -298 3 -298 5 0 1 11 56 25 122 14
66 34 164 45 219 11 54 29 118 39 141 27 62 84 119 144 146 48 21 70 23 322
30 149 4 381 8 516 8 l246 1 13 63 c6 34 16 75 21 91 5 16 9 40 9 52 l0 24
-517 -1 c-380 -1 -531 -5 -568 -14z"/>
<path d="M796 4603 c-3 -10 -24 -110 -46 -223 -23 -113 -57 -279 -76 -370 -20
-91 -40 -187 -45 -215 -5 -27 -13 -68 -18 -90 -35 -161 -56 -260 -83 -390 -17
-82 -34 -168 -39 -190 -4 -22 -12 -58 -17 -80 -29 -119 -82 -384 -82 -407 0
-16 12 -18 114 -18 63 0 117 4 120 8 4 7 19 76 39 182 2 14 34 172 71 352 36
180 66 329 66 332 0 4 170 6 378 6 521 0 593 11 723 107 164 120 220 215 269
456 l21 102 -31 153 c-16 84 -30 155 -30 158 0 11 -84 84 -113 98 -94 44 -125
46 -683 46 -499 0 -533 -1 -538 -17z m1071 -239 c50 -24 85 -76 91 -132 4 -51
-16 -174 -48 -283 -24 -80 -85 -155 -157 -190 l-48 -23 -420 2 c-230 2 -421 4
-423 6 -4 4 16 107 48 256 30 133 59 279 66 320 3 19 7 41 10 48 3 9 96 12
425 12 370 0 425 -2 456 -16z"/>
<path d="M11513 4346 c-120 -146 -360 -258 -623 -291 -305 -39 -607 3 -784
110 -69 41 -76 42 -76 11 0 -94 138 -231 300 -297 270 -110 691 -110 956 -1
218 90 333 239 304 394 -9 44 -35 108 -45 108 -2 0 -16 -15 -32 -34z"/>
<path d="M8110 4100 c-283 -5 -332 -8 -375 -24 -205 -76 -304 -185 -355 -391
-41 -163 -10 -277 95 -355 90 -68 116 -73 435 -80 301 -7 331 -11 375 -59 43
-49 19 -195 -44 -262 -62 -64 -84 -67 -570 -75 -237 -4 -431 -8 -431 -10 0 -1
-9 -48 -20 -104 -11 -56 -20 -106 -20 -111 0 -12 782 -11 876 1 94 12 165 40
250 97 112 75 164 149 200 284 22 83 23 230 1 280 -19 44 -89 115 -136 139
-77 39 -113 43 -406 49 -283 6 -291 7 -328 30 -60 37 -70 87 -41 188 20 70 70
126 132 149 41 16 99 18 484 23 240 3 438 8 441 11 6 7 40 170 41 200 l1 25
-140 1 c-77 0 -286 -3 -465 -6z"/>
<path d="M2293 4088 c-11 -13 -43 -167 -43 -206 l0 -22 323 0 c292 0 326 -2
363 -19 75 -34 112 -117 94 -211 -5 -29 -10 -54 -10 -55 0 -2 -150 -5 -332 -8
-358 -4 -367 -6 -478 -62 -109 -55 -214 -156 -263 -250 -30 -59 -57 -159 -63
-236 -13 -149 37 -258 133 -294 26 -10 71 -28 98 -41 151 -68 118 -64 546 -64
l389 0 10 23 c5 12 32 134 60 271 27 136 64 312 81 390 16 77 41 192 54 255
41 189 30 298 -40 393 -41 56 -89 90 -171 120 -56 21 -78 23 -400 26 -274 3
-342 1 -351 -10z m670 -755 c3 -5 -16 -111 -42 -238 l-47 -230 -310 -3 -310
-2 -47 30 c-35 22 -54 43 -69 76 -18 41 -19 52 -8 112 15 87 41 142 88 179 96
77 120 82 454 82 158 1 289 -2 291 -6z"/>
<path d="M3517 4093 c-5 -8 -52 -233 -67 -318 -5 -27 -39 -196 -75 -375 -78
-385 -83 -423 -61 -507 29 -115 42 -127 211 -199 l150 -63 293 -1 c331 0 304
9 276 -90 -23 -83 -75 -146 -154 -186 l-65 -34 -422 0 c-392 0 -423 -1 -431
-17 -18 -34 -53 -206 -43 -216 5 -5 197 -7 452 -4 377 3 451 6 492 20 182 62
334 209 392 380 12 35 105 479 190 902 8 39 23 113 35 165 11 52 27 127 35
165 8 39 26 126 41 195 15 69 28 139 28 155 l1 30 -111 3 c-81 2 -114 -1 -121
-10 -5 -7 -21 -74 -36 -148 -70 -357 -216 -1061 -223 -1072 -3 -5 -144 -8
-313 -8 -303 0 -309 0 -352 23 -24 13 -54 38 -66 56 -41 61 -40 88 12 341 79
389 136 657 156 745 18 75 26 70 -103 73 -64 1 -119 -1 -121 -5z"/>
<path d="M6182 4088 c-8 -10 -42 -190 -42 -222 0 -4 156 -6 348 -6 239 1 356
-2 377 -10 40 -15 73 -47 97 -94 17 -33 19 -50 13 -107 -6 -60 -10 -70 -29
-74 -11 -2 -163 -6 -336 -8 -258 -4 -324 -7 -365 -21 -135 -44 -285 -164 -343
-274 -16 -31 -39 -87 -50 -124 l-20 -66 33 -162 c36 -178 45 -195 134 -247 82
-49 124 -53 571 -53 228 0 420 4 427 8 6 4 39 147 73 317 34 171 82 405 107
520 66 309 58 403 -43 515 -46 50 -105 84 -181 104 -80 21 -754 24 -771 4z
m728 -765 c0 -10 -11 -70 -24 -133 -52 -249 -68 -325 -71 -328 -1 -2 -144 -3
-316 -2 l-314 0 -40 28 c-150 104 -74 364 128 433 45 16 90 18 345 19 272 0
292 -1 292 -17z"/>
<path d="M11534 3936 c-17 -44 -224 -167 -355 -212 -273 -93 -607 -102 -869
-23 -84 26 -196 81 -239 119 -47 42 -55 39 -48 -20 30 -251 433 -430 899 -398
225 16 420 82 546 187 99 82 142 186 122 291 -5 29 -12 56 -15 61 -9 14 -35
11 -41 -5z"/>
<path d="M4811 2237 c-6 -8 -37 -83 -70 -168 -32 -85 -70 -183 -85 -218 -32
-79 -32 -91 -2 -91 19 0 27 10 45 51 11 29 21 58 21 65 0 11 24 14 109 14
l109 0 18 -52 c20 -64 30 -78 55 -78 23 0 24 20 5 63 -7 18 -24 59 -36 92 -12
33 -26 69 -30 80 -21 52 -69 182 -75 202 -7 24 -31 53 -44 53 -5 0 -14 -6 -20
-13z m53 -154 c15 -43 31 -86 36 -95 23 -42 14 -48 -71 -48 -61 0 -80 3 -77
13 3 6 20 56 38 110 19 53 37 97 41 97 3 0 18 -35 33 -77z"/>
<path d="M5258 2245 c-5 -5 -8 -116 -8 -247 l0 -238 89 0 c129 0 148 6 206 64
60 61 77 114 65 216 -10 97 -42 146 -118 184 -35 18 -221 34 -234 21z m215
-109 c26 -26 36 -45 41 -83 10 -81 -2 -140 -39 -179 -29 -30 -38 -34 -84 -34
l-51 0 0 165 0 165 50 0 c43 0 54 -4 83 -34z"/>
<path d="M5698 2244 c-5 -4 -8 -115 -8 -246 l0 -238 45 0 44 0 3 87 3 87 46
-2 c65 -5 150 22 184 58 23 24 29 41 33 87 3 48 0 64 -20 92 -40 60 -75 73
-206 79 -65 2 -120 1 -124 -4z m232 -93 c19 -15 25 -29 25 -59 0 -61 -15 -72
-101 -72 l-74 0 0 75 0 75 63 0 c45 0 69 -6 87 -19z"/>
<path d="M6241 2240 c-47 -11 -79 -38 -109 -90 -24 -40 -27 -55 -27 -145 0
-113 12 -150 67 -201 105 -99 264 -54 317 89 18 46 14 193 -6 230 -26 52 -56
88 -84 102 -34 18 -116 26 -158 15z m119 -90 c64 -46 66 -219 2 -292 -18 -21
-98 -24 -122 -5 -38 31 -60 152 -40 226 22 83 96 116 160 71z"/>
<path d="M6845 2237 c-141 -64 -156 -366 -24 -454 88 -58 204 -34 255 53 29
49 28 78 -1 82 -15 2 -25 -9 -42 -46 -25 -53 -53 -72 -109 -72 -92 0 -133 63
-134 202 0 112 17 157 71 187 36 21 44 22 90 11 51 -12 89 -47 89 -80 0 -23
24 -42 44 -34 9 3 16 15 16 25 0 28 -43 92 -76 113 -36 24 -139 31 -179 13z"/>
<path d="M7263 2120 c-55 -18 -113 -104 -113 -171 0 -72 47 -157 102 -185 71
-37 181 7 214 84 21 51 18 145 -6 192 -36 71 -117 104 -197 80z m115 -56 c71
-50 70 -193 -2 -242 -83 -57 -166 5 -166 122 0 89 36 136 103 136 23 0 53 -7
65 -16z"/>
<path d="M7638 2111 c-31 -17 -38 -18 -38 -6 0 9 -9 15 -25 15 l-25 0 0 -180
0 -180 25 0 25 0 0 134 0 134 31 26 c31 26 89 35 116 18 24 -16 32 -62 26
-160 -7 -122 -1 -155 30 -150 21 3 22 8 27 140 5 128 6 138 29 157 16 14 38
21 67 21 68 0 77 -22 75 -173 -1 -128 4 -151 35 -145 17 3 19 15 22 123 5 191
-21 240 -128 240 -48 0 -63 -5 -84 -24 l-24 -23 -30 22 c-43 32 -108 36 -154
11z"/>
<path d="M8255 2123 c-11 -3 -28 -12 -37 -20 -16 -14 -18 -14 -24 1 -3 9 -14
16 -24 16 -16 0 -18 -20 -23 -237 -6 -249 -2 -272 36 -257 14 5 17 20 17 86
l0 79 26 -20 c34 -27 98 -27 140 -2 44 27 74 97 74 171 0 134 -76 209 -185
183z m91 -60 c58 -59 56 -196 -4 -244 -34 -26 -90 -25 -119 3 -21 20 -23 30
-23 117 1 122 12 138 92 140 22 1 43 -6 54 -16z"/>
<path d="M8593 2123 c-33 -6 -85 -61 -81 -87 4 -31 36 -33 47 -2 13 32 40 46
90 46 48 0 81 -29 81 -72 0 -27 -2 -28 -51 -28 -72 0 -126 -18 -155 -53 -49
-58 -40 -108 26 -154 41 -29 94 -29 138 -3 l32 20 21 -21 c36 -36 43 -12 40
143 -3 157 -9 175 -66 202 -32 15 -74 18 -122 9z m137 -225 c-1 -78 -104 -128
-158 -78 -30 28 -28 64 4 89 21 16 41 21 90 21 l64 0 0 -32z"/>
<path d="M8985 2123 c-11 -3 -30 -14 -42 -26 l-23 -20 0 21 c0 17 -6 22 -25
22 l-25 0 0 -179 c0 -154 2 -180 16 -185 9 -3 20 -4 25 0 5 3 9 59 9 125 0
117 6 146 37 177 19 19 86 27 112 13 20 -11 21 -19 21 -156 0 -129 2 -145 18
-154 39 -21 45 -1 43 144 -1 75 -6 147 -11 160 -20 52 -82 75 -155 58z"/>
<path d="M9448 2103 c-8 -16 -29 -76 -48 -135 -19 -59 -39 -107 -44 -105 -4 2
-15 23 -23 47 -14 45 -46 132 -67 183 -10 26 -48 38 -59 20 -3 -5 6 -37 20
-73 14 -36 33 -89 44 -117 10 -29 29 -78 40 -109 16 -41 19 -58 10 -67 -6 -6
-11 -18 -11 -27 0 -25 -33 -50 -64 -50 -31 0 -44 -23 -26 -45 17 -20 49 -19
85 3 34 21 54 58 89 162 22 66 66 192 76 215 32 78 38 103 27 114 -18 18 -35
13 -49 -16z"/>
</g>
</svg>
