<?xml version="1.0" standalone="no"?>
<!DOCTYPE svg PUBLIC "-//W3C//DTD SVG 20010904//EN"
 "http://www.w3.org/TR/2001/REC-SVG-20010904/DTD/svg10.dtd">
<svg version="1.0" xmlns="http://www.w3.org/2000/svg"
 width="1200.000000pt" height="660.000000pt" viewBox="0 0 1200.000000 660.000000"
 preserveAspectRatio="xMidYMid meet">
<metadata>
Created by potrace 1.13, written by Peter Selinger 2001-2015
</metadata>
<g transform="translate(0.000000,660.000000) scale(0.100000,-0.100000)"
fill="#000000" stroke="none">
<path d="M962 5009 c-223 -60 -385 -210 -456 -421 l-26 -77 0 -1210 0 -1210
25 -80 c65 -205 238 -367 451 -421 76 -20 133 -20 5043 -20 l4966 0 75 21
c219 60 392 228 454 438 14 49 16 187 16 1272 0 1182 -1 1219 -20 1281 -58
187 -210 341 -409 412 l-86 31 -4980 2 c-4930 2 -4981 2 -5053 -18z m6921
-684 c75 -31 137 -114 137 -184 0 -62 -54 -147 -112 -176 -37 -18 -139 -20
-171 -2 -121 67 -150 206 -64 303 57 65 140 89 210 59z m1057 1 c109 -23 101
-10 98 -160 l-3 -131 -25 3 c-134 17 -158 15 -190 -20 -16 -18 -20 -35 -20
-100 l0 -77 108 -3 107 -3 0 -150 0 -150 -107 -3 -108 -3 -2 -487 -3 -487
-163 -3 c-141 -2 -163 0 -169 13 -3 9 -6 229 -7 488 l-1 472 -72 3 -73 3 0
154 0 154 73 3 72 3 6 135 c7 152 24 203 85 264 81 81 243 114 394 82z m-6515
-60 c169 -5 212 -13 313 -63 193 -95 305 -326 271 -563 -35 -249 -154 -384
-404 -457 -36 -10 -126 -16 -315 -19 l-265 -5 -5 -302 -5 -302 -170 0 -170 0
-3 850 c-2 749 0 851 13 861 15 11 323 11 740 0z m4039 8 c14 -6 16 -76 16
-690 l0 -684 428 -2 427 -3 3 -164 c2 -125 -1 -167 -10 -173 -13 -8 -1177 0
-1190 9 -5 2 -8 384 -8 848 0 793 1 845 18 854 18 11 290 15 316 5z m-2499
-435 c142 -52 228 -136 274 -265 21 -59 21 -72 19 -540 l-3 -479 -155 -3
c-136 -2 -156 0 -167 14 -7 10 -10 28 -7 41 8 30 1 29 -50 -6 -233 -160 -617
-37 -694 224 -26 87 -32 157 -21 224 22 127 73 209 172 274 139 91 387 120
540 61 57 -22 60 -20 55 35 -11 111 -69 163 -191 169 -98 6 -202 -16 -306 -66
-34 -16 -34 -15 -57 14 -13 16 -24 32 -24 36 0 3 -18 37 -40 76 -22 38 -40 76
-40 85 0 24 143 90 250 116 72 17 107 19 250 16 108 -3 147 -8 195 -26z m6020
11 c91 -38 127 -62 196 -130 53 -53 85 -95 107 -142 18 -37 32 -73 32 -81 0
-7 3 -17 7 -21 25 -24 55 -299 39 -360 l-6 -26 -380 0 -380 0 0 -24 c0 -36 34
-107 66 -140 54 -53 100 -70 194 -69 89 0 146 19 197 65 l22 20 78 -63 c43
-35 90 -74 104 -87 14 -12 34 -29 45 -37 18 -13 18 -15 -16 -50 -71 -75 -170
-130 -288 -161 -59 -16 -233 -19 -278 -5 -16 5 -49 15 -74 22 -156 46 -295
189 -355 364 -21 63 -45 205 -45 270 0 49 20 175 38 247 51 198 254 394 437
422 54 8 229 -2 260 -14z m-4977 -407 c72 -219 136 -417 142 -440 6 -24 13
-43 15 -43 2 0 9 19 15 43 6 23 70 221 142 440 l131 397 184 0 c117 0 183 -4
183 -10 0 -6 -4 -18 -9 -28 -5 -9 -24 -55 -41 -102 -18 -47 -36 -95 -41 -107
-5 -13 -13 -33 -18 -45 -5 -13 -23 -61 -41 -108 -18 -47 -36 -94 -40 -105 -11
-27 -85 -221 -122 -320 -16 -44 -34 -89 -38 -100 -4 -11 -22 -58 -40 -105 -18
-47 -36 -94 -40 -105 -4 -11 -18 -47 -30 -80 -12 -33 -26 -69 -30 -80 -4 -11
-22 -56 -38 -100 -17 -44 -48 -127 -71 -185 -23 -58 -41 -109 -41 -114 0 -5
-7 -18 -17 -28 -14 -16 -34 -18 -169 -18 -96 0 -155 4 -159 11 -4 5 3 36 15
67 12 31 25 66 30 77 4 11 12 31 18 45 5 14 20 52 32 85 26 71 39 104 51 127
12 23 11 64 0 86 -5 9 -24 55 -41 102 -18 47 -36 94 -40 105 -4 11 -27 70 -50
130 -23 61 -46 119 -50 130 -4 11 -31 81 -60 155 -73 191 -75 194 -99 253 -66
162 -131 334 -131 350 0 16 15 17 183 17 l184 0 131 -397z m2982 385 c0 -7 2
-293 4 -635 4 -513 3 -623 -8 -632 -9 -8 -66 -11 -172 -9 l-159 3 -3 643 -2
642 170 0 c129 0 170 -3 170 -12z"/>
<path d="M2028 3934 c-5 -4 -8 -103 -8 -221 l0 -213 234 0 c246 0 276 4 334
47 42 32 61 70 68 140 11 109 -29 188 -116 226 -40 18 -71 21 -275 25 -126 2
-233 1 -237 -4z"/>
<path d="M3605 3137 c-81 -32 -105 -66 -105 -148 0 -106 70 -169 187 -169 87
0 170 35 217 90 23 28 26 40 26 106 0 67 -2 75 -24 90 -61 39 -233 57 -301 31z"/>
<path d="M9718 3550 c-20 -11 -50 -39 -66 -62 -28 -42 -58 -125 -49 -135 6 -6
417 -4 427 2 8 5 -1 54 -18 95 -14 36 -70 89 -110 106 -49 20 -139 17 -184 -6z"/>
</g>
</svg>
