<?xml version="1.0" standalone="no"?>
<!DOCTYPE svg PUBLIC "-//W3C//DTD SVG 20010904//EN"
 "http://www.w3.org/TR/2001/REC-SVG-20010904/DTD/svg10.dtd">
<svg version="1.0" xmlns="http://www.w3.org/2000/svg"
 width="1200.000000pt" height="660.000000pt" viewBox="0 0 1200.000000 660.000000"
 preserveAspectRatio="xMidYMid meet">
<metadata>
Created by potrace 1.13, written by Peter Selinger 2001-2015
</metadata>
<g transform="translate(0.000000,660.000000) scale(0.100000,-0.100000)"
fill="#000000" stroke="none">
<path d="M4877 5093 c-13 -12 -8 -258 5 -271 8 -8 45 -12 100 -12 108 0 108 0
108 145 0 146 1 145 -114 145 -51 0 -96 -3 -99 -7z"/>
<path d="M5086 4808 c-13 -18 -16 -53 -16 -183 1 -207 -5 -198 143 -205 120
-6 162 1 177 30 6 10 10 90 10 177 0 213 8 203 -165 203 -127 0 -135 -1 -149
-22z"/>
<path d="M4685 4420 c-12 -13 -19 -37 -20 -63 l-1 -42 -63 -7 c-68 -8 -103
-25 -123 -60 -10 -18 -14 -156 -18 -603 -5 -564 -6 -581 -26 -620 -32 -61 -97
-97 -187 -103 -138 -9 -217 24 -263 109 -18 32 -19 74 -24 614 -5 606 -5 599
-50 640 -20 18 -36 20 -149 20 -93 0 -135 -4 -155 -15 -58 -30 -57 -18 -56
-653 1 -689 3 -717 89 -882 69 -133 212 -240 371 -277 74 -17 339 -17 410 1
240 60 394 235 441 502 17 98 19 160 19 510 l0 399 71 0 c68 0 106 11 121 34
4 6 8 116 8 244 0 219 -1 233 -20 252 -18 18 -33 20 -188 20 -157 0 -170 -1
-187 -20z"/>
<path d="M564 4300 c-56 -17 -108 -78 -132 -156 -22 -69 -22 -74 -22 -840 l0
-771 25 -27 c21 -22 32 -26 84 -26 49 0 64 4 81 22 11 12 20 31 20 42 1 12 0
148 0 304 l-1 282 223 0 c301 0 390 23 490 125 97 98 143 252 143 475 0 150
-18 251 -63 348 -36 79 -129 170 -207 201 -58 24 -70 25 -335 27 -156 2 -289
-1 -306 -6z m566 -262 c83 -38 113 -91 132 -230 9 -70 9 -111 0 -184 -13 -105
-37 -162 -79 -191 -64 -45 -88 -48 -328 -48 l-230 0 -3 290 c-3 310 2 359 41
375 12 6 114 8 227 7 160 -3 213 -7 240 -19z"/>
<path d="M1785 3909 c-113 -12 -170 -27 -193 -52 -44 -48 -36 -191 12 -203 12
-3 74 2 137 12 203 30 332 5 380 -72 21 -34 24 -53 28 -155 l3 -117 -188 -4
c-166 -4 -197 -7 -254 -28 -191 -68 -262 -198 -247 -452 7 -116 31 -179 94
-255 55 -66 124 -100 237 -118 75 -12 103 -12 193 0 204 26 302 106 348 282
22 83 23 791 1 873 -57 216 -254 319 -551 289z m365 -926 c0 -185 -14 -224
-95 -266 -34 -18 -58 -21 -161 -21 -118 -1 -121 0 -158 28 -51 39 -76 95 -76
175 0 74 24 134 67 165 41 30 126 44 281 45 l142 1 0 -127z"/>
<path d="M5710 3891 c-108 -34 -199 -110 -248 -207 -56 -112 -61 -174 -62
-677 -1 -348 2 -460 11 -476 18 -28 53 -41 113 -41 42 0 58 5 80 25 14 13 27
30 28 37 1 7 2 218 2 468 l1 455 25 50 c34 68 87 95 185 95 92 0 150 -28 179
-85 20 -38 21 -60 26 -518 l5 -479 28 -24 c52 -44 179 -25 192 29 3 12 6 227
8 477 l2 455 25 50 c34 68 87 95 185 95 84 0 150 -28 177 -75 29 -52 38 -187
38 -607 l0 -407 26 -20 c30 -24 116 -29 157 -10 49 22 49 23 44 545 -4 445 -6
495 -24 554 -42 143 -113 227 -229 273 -61 24 -83 27 -179 27 -101 0 -115 -2
-170 -29 -71 -35 -79 -41 -129 -104 l-39 -48 -27 42 c-35 52 -82 90 -147 117
-43 18 -70 22 -155 21 -57 0 -114 -4 -128 -8z"/>
<path d="M7454 3875 c-148 -56 -225 -140 -282 -303 -26 -77 -27 -77 -27 -392
l0 -315 28 -83 c55 -160 135 -244 277 -292 74 -25 287 -28 361 -6 164 50 267
172 310 368 19 84 20 119 16 368 -3 225 -7 287 -22 340 -46 168 -137 269 -284
318 -96 32 -290 31 -377 -3z m344 -285 c54 -30 87 -84 101 -164 16 -85 13
-417 -3 -493 -31 -144 -109 -192 -292 -180 -91 5 -127 20 -172 71 -51 58 -57
96 -57 356 0 264 7 305 61 369 48 56 97 71 219 68 85 -2 107 -6 143 -27z"/>
<path d="M8645 3879 c-131 -45 -210 -127 -263 -273 l-26 -71 -4 -484 c-2 -266
-1 -495 2 -507 13 -52 130 -73 194 -34 l32 20 0 452 c0 273 4 467 10 489 29
103 89 142 228 147 84 4 98 1 147 -22 43 -22 58 -36 77 -74 23 -47 23 -49 26
-507 1 -310 6 -467 13 -481 6 -12 22 -27 36 -33 31 -14 105 -14 136 0 51 23
51 21 49 499 -2 263 -7 478 -14 525 -25 180 -114 295 -271 354 -82 30 -284 30
-372 0z"/>
<path d="M9805 3876 c-89 -34 -146 -78 -191 -143 -96 -139 -118 -253 -112
-594 4 -186 9 -260 22 -312 49 -196 163 -312 344 -347 87 -17 352 -9 417 14
115 39 135 65 135 173 0 40 -5 84 -12 98 -14 30 -48 41 -86 27 -78 -29 -136
-37 -272 -37 -157 0 -186 7 -247 59 -40 33 -63 100 -66 192 l-2 69 326 0 c365
0 355 -2 380 73 19 59 6 362 -20 443 -41 128 -118 221 -231 276 -50 25 -66 27
-190 30 -122 3 -141 1 -195 -21z m325 -271 c66 -44 100 -116 100 -211 l0 -73
-241 -3 c-133 -2 -246 0 -252 4 -8 5 -8 31 1 93 15 116 41 160 112 198 51 27
61 29 145 25 80 -3 96 -7 135 -33z"/>
<path d="M10610 3870 c-62 -15 -70 -42 -44 -150 8 -36 24 -110 35 -165 12 -55
23 -111 26 -125 38 -188 79 -395 103 -519 17 -84 37 -179 46 -210 49 -167 131
-238 268 -229 l51 3 -3 -30 c-6 -50 -67 -168 -110 -211 -41 -41 -83 -63 -159
-83 -25 -7 -47 -21 -54 -32 -17 -32 -1 -152 25 -192 20 -30 26 -32 84 -35 137
-7 286 107 373 286 23 47 46 102 51 122 26 97 50 205 68 300 11 58 22 119 26
135 3 17 14 80 25 140 11 61 29 155 40 210 10 55 24 125 29 155 6 30 15 73 20
95 5 22 18 94 30 160 12 66 31 157 41 202 24 103 24 128 0 152 -43 43 -175 34
-207 -14 -9 -14 -20 -44 -26 -67 -12 -55 -48 -247 -58 -318 -5 -30 -15 -89
-23 -130 -8 -41 -22 -118 -32 -170 -62 -345 -68 -373 -96 -401 -23 -23 -85
-26 -115 -5 -24 17 -46 88 -74 246 -12 63 -27 144 -35 180 -11 55 -42 217 -58
310 -3 14 -12 61 -21 105 -9 44 -21 107 -28 140 -15 77 -34 122 -55 133 -28
14 -104 20 -143 12z"/>
<path d="M2425 3850 c-23 -26 -18 -74 33 -305 11 -49 30 -133 42 -185 12 -52
27 -124 34 -160 40 -194 99 -462 113 -508 50 -175 124 -242 255 -230 54 6 54
5 33 -65 -42 -138 -124 -217 -226 -217 -15 0 -41 -11 -56 -24 -24 -21 -28 -31
-26 -73 3 -68 24 -122 56 -141 23 -14 34 -15 89 -3 103 21 153 48 215 115 93
101 140 219 193 491 12 61 28 142 35 180 100 496 205 1048 205 1077 0 46 -28
68 -87 68 -88 0 -107 -26 -133 -180 -6 -36 -17 -96 -25 -135 -7 -38 -21 -110
-30 -160 -35 -192 -59 -313 -99 -520 -23 -117 -36 -154 -59 -170 -32 -23 -91
-19 -122 8 -26 23 -34 51 -83 277 -11 52 -30 138 -41 190 -12 52 -44 205 -71
340 -61 292 -64 304 -97 330 -36 28 -123 28 -148 0z"/>
</g>
</svg>
