<?xml version="1.0" standalone="no"?>
<!DOCTYPE svg PUBLIC "-//W3C//DTD SVG 20010904//EN"
 "http://www.w3.org/TR/2001/REC-SVG-20010904/DTD/svg10.dtd">
<svg version="1.0" xmlns="http://www.w3.org/2000/svg"
 width="1200.000000pt" height="660.000000pt" viewBox="0 0 1200.000000 660.000000"
 preserveAspectRatio="xMidYMid meet">
<metadata>
Created by potrace 1.13, written by Peter Selinger 2001-2015
</metadata>
<g transform="translate(0.000000,660.000000) scale(0.100000,-0.100000)"
fill="#000000" stroke="none">
<path d="M6525 5224 c-379 -55 -907 -330 -1410 -736 -191 -153 -436 -384 -690
-649 -480 -500 -882 -1051 -1139 -1559 -124 -245 -185 -394 -265 -655 -16 -50
-24 -141 -16 -185 9 -53 63 -110 104 -110 31 0 30 -2 88 140 34 84 161 335
230 455 215 372 508 771 856 1168 283 322 713 742 942 920 106 83 332 232 462
306 409 232 975 425 1435 490 124 17 174 59 147 123 -27 65 -147 172 -254 226
-100 50 -164 64 -315 67 -80 2 -158 1 -175 -1z"/>
<path d="M3262 4988 c-14 -14 -16 -94 -3 -169 6 -30 15 -88 21 -129 14 -91 16
-103 86 -455 67 -339 170 -810 185 -847 17 -41 55 -78 82 -78 46 0 82 59 121
196 104 372 78 732 -77 1053 -133 276 -347 497 -415 429z"/>
<path d="M975 4120 c-124 -13 -185 -26 -200 -41 -7 -8 -20 -57 -29 -109 -9
-52 -30 -166 -46 -252 -17 -87 -44 -231 -61 -320 -53 -284 -138 -728 -200
-1038 -6 -30 -15 -74 -21 -97 -18 -73 -18 -73 156 -73 177 0 169 -4 187 95 5
30 14 81 19 113 6 31 15 82 21 112 5 30 24 134 42 230 l32 174 180 2 c161 1
191 4 280 27 307 81 498 270 551 545 48 251 -43 455 -251 560 -113 57 -200 74
-400 77 -99 2 -216 0 -260 -5z m390 -275 c82 -21 134 -61 169 -129 26 -49 29
-67 29 -134 -2 -106 -29 -176 -100 -252 -101 -110 -245 -159 -428 -146 -49 3
-93 10 -97 14 -9 9 106 631 119 643 23 22 227 25 308 4z"/>
<path d="M2575 3606 c-228 -33 -399 -119 -548 -275 -123 -129 -196 -263 -243
-450 -81 -317 1 -581 209 -677 56 -26 72 -29 167 -29 120 0 182 16 264 69 65
42 143 122 187 191 19 30 38 54 43 55 5 0 6 -21 3 -47 -4 -27 -9 -92 -13 -146
l-7 -98 154 3 154 3 7 171 c8 219 23 319 113 768 41 202 75 379 75 391 0 21
-8 25 -67 39 -178 40 -362 52 -498 32z m193 -260 c6 -7 -53 -321 -84 -445 -37
-147 -102 -272 -188 -357 -52 -52 -84 -75 -120 -87 -167 -57 -276 40 -276 244
0 109 23 207 75 314 86 178 227 302 380 335 40 9 203 5 213 -4z"/>
<path d="M7013 3606 c-108 -22 -208 -79 -302 -173 -46 -46 -85 -82 -86 -81 -1
2 4 44 11 93 7 50 13 100 13 113 l1 23 -147 -3 -148 -3 -26 -170 c-27 -171
-78 -446 -169 -912 -28 -139 -50 -261 -50 -273 0 -19 6 -20 164 -20 l165 0 10
53 c6 28 33 178 61 332 28 154 57 307 66 340 49 185 169 346 298 400 48 20
133 19 176 -3 23 -11 43 -33 58 -62 41 -82 34 -146 -80 -720 -27 -140 -52
-274 -55 -297 l-6 -43 167 0 c164 0 166 0 171 23 3 12 39 209 81 437 104 564
108 685 29 810 -74 117 -234 171 -402 136z"/>
<path d="M8270 3606 c-246 -53 -432 -200 -549 -435 -73 -146 -104 -275 -104
-431 2 -304 137 -491 403 -556 84 -20 261 -17 381 7 100 20 253 71 264 89 6 9
-21 216 -30 230 -3 5 -32 -3 -65 -16 -120 -49 -276 -71 -378 -55 -112 18 -194
75 -229 160 -17 40 -33 139 -26 159 4 8 34 12 102 12 499 0 781 150 799 425
12 194 -85 339 -268 396 -84 26 -216 33 -300 15z m139 -247 c90 -19 137 -95
112 -179 -22 -75 -115 -128 -261 -149 -86 -12 -276 -19 -285 -10 -8 8 29 99
59 148 62 97 148 165 239 187 67 16 76 16 136 3z"/>
<path d="M9550 3605 c-245 -49 -441 -213 -561 -469 -107 -229 -118 -505 -27
-694 36 -76 121 -165 195 -205 160 -86 422 -91 668 -12 74 24 123 46 128 58 2
7 -3 62 -12 122 -13 86 -20 110 -31 108 -8 -1 -54 -16 -101 -32 -47 -17 -126
-35 -178 -41 -157 -18 -263 11 -337 92 -48 52 -67 100 -68 178 l-1 55 156 6
c322 14 524 73 638 187 107 107 137 266 79 419 -66 178 -304 277 -548 228z
m185 -259 c73 -31 99 -136 50 -208 -48 -71 -196 -115 -400 -118 -137 -2 -128
-4 -120 27 15 59 60 137 113 194 105 114 240 153 357 105z"/>
<path d="M10950 3598 c-105 -40 -200 -122 -267 -230 -20 -32 -38 -58 -41 -58
-2 0 -1 20 2 45 20 130 25 219 13 227 -21 14 -263 10 -274 -4 -6 -7 -15 -65
-22 -128 -25 -239 -54 -407 -175 -1025 -20 -99 -36 -190 -36 -202 0 -21 4 -22
153 -25 83 -2 157 -2 164 0 11 4 22 42 43 162 6 36 15 85 20 110 5 25 18 97
30 160 58 316 105 436 215 546 76 77 177 119 267 112 46 -3 49 1 58 54 4 24
17 90 29 148 12 57 19 110 17 117 -9 21 -132 16 -196 -9z"/>
<path d="M11345 3598 c-51 -38 -74 -71 -81 -116 -9 -62 9 -114 55 -155 109
-98 281 -22 281 126 0 56 -29 106 -84 143 -47 32 -128 33 -171 2z m140 -34
c46 -22 67 -57 67 -114 0 -54 -22 -94 -63 -116 -124 -64 -248 90 -159 198 40
49 96 60 155 32z"/>
<path d="M11393 3550 c-21 -9 -23 -15 -23 -99 0 -49 4 -92 9 -95 14 -9 33 21
29 46 -2 17 2 23 17 23 14 0 21 -8 23 -27 4 -30 26 -53 42 -43 14 9 13 28 -5
61 -13 25 -13 31 1 52 21 32 4 67 -39 82 -16 5 -30 10 -31 9 -1 0 -11 -4 -23
-9z m57 -59 c0 -27 -27 -34 -40 -11 -14 27 -13 30 15 30 18 0 25 -5 25 -19z"/>
<path d="M5295 3590 c-330 -86 -560 -370 -605 -745 -40 -333 113 -584 402
-661 78 -20 247 -18 339 6 282 71 496 292 580 599 30 108 37 322 15 411 -51
202 -189 345 -382 395 -82 21 -260 19 -349 -5z m222 -242 c65 -16 134 -85 162
-162 17 -46 22 -81 22 -152 -1 -248 -124 -495 -290 -579 -47 -24 -140 -31
-198 -14 -70 19 -143 95 -168 174 -40 125 -15 325 60 480 98 204 246 295 412
253z"/>
</g>
</svg>
