<?xml version="1.0" standalone="no"?>
<!DOCTYPE svg PUBLIC "-//W3C//DTD SVG 20010904//EN"
 "http://www.w3.org/TR/2001/REC-SVG-20010904/DTD/svg10.dtd">
<svg version="1.0" xmlns="http://www.w3.org/2000/svg"
 width="600.000000pt" height="330.000000pt" viewBox="0 0 600.000000 330.000000"
 preserveAspectRatio="xMidYMid meet">

<g transform="translate(0.000000,330.000000) scale(0.100000,-0.100000)"
fill="#000000" stroke="none">
<path d="M431 2328 c-14 -7 -28 -24 -32 -38 -16 -54 -181 -1140 -176 -1154 5
-13 28 -16 136 -16 l130 0 6 33 c3 17 19 115 35 217 37 233 35 230 178 230
298 1 438 84 507 303 67 210 4 355 -178 413 -70 23 -568 32 -606 12z"/>
<path d="M1981 2001 c-6 -11 -17 -63 -26 -118 -8 -54 -35 -227 -60 -384 -25
-158 -45 -296 -45 -308 0 -20 5 -21 100 -21 l99 0 10 38 c5 20 15 75 22 122 7
47 18 92 26 101 11 13 39 18 126 21 169 7 253 51 306 162 67 138 63 268 -9
337 -59 57 -121 69 -348 69 -178 0 -192 -1 -201 -19z m346 -176 c29 -20 37
-70 20 -120 -20 -58 -52 -77 -141 -83 -88 -5 -82 -16 -61 113 8 50 15 93 15
98 0 14 145 8 167 -8z"/>
<path d="M4170 2005 c-14 -17 -143 -800 -135 -822 3 -9 33 -13 104 -13 l99 0
6 28 c3 15 13 72 21 126 9 55 20 105 26 112 6 7 53 13 122 17 140 6 196 25
258 87 108 108 132 325 45 409 -61 59 -90 65 -322 69 -186 3 -212 2 -224 -13z
m347 -187 c50 -47 16 -160 -57 -185 -19 -7 -59 -12 -87 -12 l-53 -1 0 33 c0
33 17 152 25 175 3 8 28 12 77 12 60 0 76 -4 95 -22z"/>
<path d="M5595 2008 c-8 -23 -125 -780 -125 -810 l0 -28 84 0 c55 0 87 4 94
13 14 17 137 799 129 820 -5 14 -21 17 -92 17 -59 0 -87 -4 -90 -12z"/>
<path d="M1277 1902 c-35 -134 -117 -241 -229 -296 -76 -39 -155 -55 -318 -64
l-115 -7 -44 -272 c-35 -222 -41 -276 -31 -288 10 -12 36 -15 121 -15 91 0
112 3 127 18 13 13 24 60 41 170 15 100 29 159 40 171 12 14 40 21 116 29 135
14 206 42 270 106 131 131 167 378 72 483 l-32 34 -18 -69z"/>
<path d="M2790 1736 c-208 -56 -318 -331 -199 -496 44 -60 98 -84 190 -85 66
0 84 4 137 31 60 31 61 32 64 10 3 -19 10 -21 95 -24 l92 -3 10 38 c18 71 82
503 76 513 -3 5 -47 10 -97 10 -81 0 -90 -2 -95 -20 -6 -24 -16 -25 -33 -5
-17 20 -104 45 -154 44 -23 0 -61 -6 -86 -13z m213 -186 c26 -30 29 -38 25
-87 -5 -57 -25 -92 -72 -127 -21 -16 -42 -21 -93 -21 -59 0 -67 3 -89 28 -19
23 -24 39 -24 86 0 104 67 166 169 158 46 -3 59 -9 84 -37z"/>
<path d="M4969 1735 c-99 -27 -179 -105 -220 -214 -32 -85 -25 -200 16 -266
42 -69 105 -100 200 -100 71 0 118 13 167 47 34 24 38 23 38 -7 0 -25 1 -25
90 -25 84 0 91 2 100 23 10 25 80 471 80 511 l0 26 -94 0 c-93 0 -94 0 -100
-26 l-7 -26 -25 25 c-43 43 -153 58 -245 32z m190 -160 c16 -8 36 -31 46 -51
44 -93 -43 -214 -154 -214 -81 0 -120 38 -121 116 0 118 128 202 229 149z"/>
<path d="M3336 1721 c-3 -5 30 -116 75 -247 44 -132 78 -246 76 -254 -2 -8
-37 -61 -76 -118 -43 -60 -71 -109 -67 -117 4 -12 26 -15 99 -15 l94 0 251
364 c139 200 252 371 252 380 0 14 -15 16 -99 16 l-100 0 -101 -150 c-55 -82
-104 -150 -108 -150 -4 0 -22 53 -41 118 -19 64 -40 132 -47 150 l-13 32 -95
0 c-52 0 -97 -4 -100 -9z"/>
</g>
</svg>
