<svg id="SVG" xmlns="http://www.w3.org/2000/svg" width="700" height="700" viewBox="0 0 700 700">
  <defs>
    <style>
      .cls-1 {
        fill-rule: evenodd;
      }
    </style>
  </defs>
  <path id="Paypal_PP" data-name="Paypal PP" class="cls-1" d="M322.138,149.209c8.148-.007,15.782,0,24.02,0,4.163,0,9-.381,12.95.1,0.717,0.088,2.022-.1,2.924-0.1,1.856,0,3.259.208,5.222,0.208,2.387,0,5.119-.246,7.206.209h3.76l2.924,0.209h2.193c0.98,0.217,2.285-.052,3.447.208,0.783,0.175,1.856-.008,2.82.209,2.759,0.622,6.023.415,8.668,1.043,0.93,0.221,1.593-.023,2.506.209,1.5,0.381,3.212.406,4.8,0.835,3.712,1,7.525,1.486,11.07,2.712,6.814,2.356,13.784,4.41,19.948,7.512,14.269,7.181,25.542,16.374,33.106,30.255a82.856,82.856,0,0,1,5.013,11.268c1.13,3.108,1.611,6.52,2.507,9.807q0.1,1.044.208,2.087c0.588,2.335.488,5.231,1.045,7.72v2.5a35.839,35.839,0,0,1,0,9.911c-0.259,1.182.006,2.572-.209,3.547v1.774c-0.615,2.694-.363,5.875-1.044,8.555-0.994,3.906-1.184,8.065-2.3,11.894-1.977,6.8-3.422,13.641-5.849,20.031-3.579,9.427-7.13,18.5-12.114,26.5-2.215,3.554-4.676,6.962-7.1,10.328-1.2,1.669-2.717,3.144-3.968,4.8-0.976,1.292-2.476,2.264-3.447,3.547a43.892,43.892,0,0,1-7.937,7.407c-1.909,1.434-3.666,3.2-5.639,4.591a138.033,138.033,0,0,1-13.89,8.555c-6.314,3.4-13.381,5.876-20.574,8.346-3.287,1.128-6.794,1.757-10.131,2.713-3.951,1.131-8.19,1.289-12.219,2.3-1.544.386-3.166,0.288-4.595,0.626h-1.149c-2.165.5-4.879,0.34-7.1,0.835h-1.88a30.785,30.785,0,0,1-5.118.417,21.063,21.063,0,0,0-3.446.1h-2.3c-1.941.42-4.645,0.1-6.788,0.1-2.459,0-5.942.379-8.146-.1-0.912-.2-2.142.068-2.924-0.1l-10.757-.1a29.807,29.807,0,0,0-7.311,0c-0.68.148-1.643-.017-2.193,0.1h-3.029c-1.862.414-3.957,0.171-5.848,0.626-1.6.384-3.339,0.512-4.908,1.043a31.035,31.035,0,0,0-9.086,4.9,11.678,11.678,0,0,0-2.089,2.5,30.264,30.264,0,0,0-4.386,9.181c-1.068,3.522-1.2,7.555-2.089,11.163-0.49,1.984-.325,3.85-0.836,5.842-1.725,6.734-1.9,14.294-3.551,21.075-0.43,1.773-.422,3.587-0.835,5.216q-0.1,1.1-.209,2.191c-0.558,2.179-.7,4.806-1.253,6.99q-0.1,1.1-.209,2.191c-0.559,2.184-.7,4.81-1.253,6.99q-0.1,1.1-.209,2.191c-0.756,3.082-.894,6.633-1.671,9.7-0.315,1.242-.1,2.306-0.418,3.547-1,3.917-1.1,8.392-2.089,12.311-0.521,2.058-.33,4.1-0.835,6.156-1.6,6.531-1.755,13.711-3.342,20.239-0.514,2.115-.248,7.4-2.4,7.617-0.711.493-4.1,0.208-5.326,0.208h-58.9a20.434,20.434,0,0,1-5.849-.417,11.087,11.087,0,0,1-7.31-7.3c-0.882-2.647-.178-6.084.417-8.555,0.3-1.226.122-2.228,0.418-3.443,1.079-4.418,1.232-9.354,2.3-13.772q0.1-1.1.209-2.191c0.782-3.068.927-6.618,1.671-9.7q0.1-1.095.209-2.191c0.545-2.231.714-4.862,1.253-7.095q0.1-1.1.209-2.19c0.565-2.215.715-4.864,1.253-7.095q0.105-1.1.209-2.191c0.452-1.773.613-3.953,1.044-5.738q0.1-1.095.209-2.191c0.422-1.656.393-3.567,0.835-5.321,1.327-5.249,1.44-11.1,2.716-16.379q0.1-1.044.209-2.087c0.656-2.682.816-5.772,1.462-8.451q0.1-1.1.209-2.191c0.782-3.067.9-6.636,1.671-9.7q0.1-1.1.209-2.191c0.406-1.662.383-3.549,0.835-5.321,1.555-6.1,1.657-12.869,3.133-18.988q0.1-1.1.209-2.191c0.436-1.784.6-3.963,1.044-5.738q0.105-1.1.209-2.191c0.436-1.784.6-3.962,1.045-5.738,0.314-1.262.11-2.291,0.417-3.547,1.178-4.82,1.295-10.214,2.507-15.024,0.529-2.1.322-4.056,0.835-6.155,1.494-6.114,1.6-12.893,3.133-18.988v-0.835c0.519-2.122.493-4.419,1.045-6.677,1.4-5.711,1.541-12.01,2.924-17.736,0.426-1.763.426-3.593,0.835-5.217q0.1-1.1.209-2.19c0.436-1.785.6-3.962,1.045-5.739v-0.939c0.523-2.07.5-4.356,1.044-6.572,1.394-5.707,1.543-12.019,2.924-17.736,0.426-1.764.427-3.594,0.836-5.217q0.1-1.095.209-2.191c0.546-2.237.693-4.873,1.253-7.094q0.1-1.095.209-2.191c0.406-1.662.383-3.549,0.835-5.321,1.556-6.1,1.657-12.869,3.133-18.988q0.1-1.095.209-2.191c0.436-1.784.6-3.963,1.045-5.738q0.1-1.095.208-2.191c0.435-1.784.6-3.963,1.045-5.738,0.313-1.245.114-2.3,0.418-3.547,1.261-5.189,1.152-11.613,3.133-16.171,2.36-5.433,6.969-8.786,13.159-10.433,1.91-.509,4.561-0.209,6.788-0.209h13.368l33.106-.209h16.71C317.366,149.417,321.561,149.7,322.138,149.209ZM493.309,256.564c1.88,0.091,3.757,2.5,5.013,3.443,4.343,3.261,7.707,7.744,10.652,12.415a71.463,71.463,0,0,1,6.475,13.876c1.241,3.421,1.582,7.247,2.507,10.954,0.363,1.456.082,2.874,0.417,4.382a32.971,32.971,0,0,1,.418,3.443v2.608c0.531,1.838.119,5.221,0.1,7.512a63.292,63.292,0,0,1-.94,12.1v1.148c-0.365,1.562-.454,3.494-0.836,5.008q-0.1,1.1-.209,2.191c-0.652,2.539-.972,5.387-1.671,7.825-0.335,1.171-.275,2.177-0.626,3.338-1.287,4.248-2.281,8.736-3.76,12.728-1.364,3.681-2.328,7.329-3.969,10.642-0.23.466-.187,0.891-0.417,1.356-3.621,7.3-7.011,14.381-11.488,20.762C485.558,405.724,473.4,416,458.531,424.013c-5.157,2.778-10.95,4.8-16.709,6.886-2.337.848-4.8,1.322-7.1,2.086-0.8.265-1.4,0.191-2.193,0.418-3.673,1.045-7.825,1.528-11.7,2.5-1.938.488-3.994,0.407-5.848,0.834-2.585.6-5.5,0.273-8.042,0.835h-1.88c-3.319.729-7.524-.123-10.966,0.626h-2.3a29.35,29.35,0,0,1-5.431-.1,17.441,17.441,0,0,0-4.8.1c-1.45.317-2.751-.14-4.073,0.209-3.287.867-6.272,1.924-8.042,4.277-2.621,3.486-3.92,7.719-5.221,12.624q-0.105.991-.209,1.982c-0.646,2.641-.823,5.7-1.462,8.347-0.3,1.228-.118,2.215-0.418,3.442-0.647,2.644-.822,5.7-1.462,8.347q-0.1,1.1-.209,2.191c-0.559,2.187-.72,4.787-1.253,6.99q-0.105,1.1-.209,2.191c-0.445,1.741-.6,3.891-1.045,5.634q-0.1,1.1-.209,2.19c-1.645,6.437-1.775,13.668-3.341,20.136-0.4,1.664-.2,3.141-0.627,4.8-0.895,3.508-1,7.538-1.88,11.059-0.4,1.609-.153,3.229-0.627,4.7-1.083,3.356-2.875,6.554-5.43,8.451a19.092,19.092,0,0,1-7,3.234,20.661,20.661,0,0,1-4.7.209H282.87a21.4,21.4,0,0,1-5.118-.209,11.957,11.957,0,0,1-3.864-1.878c-2.017-1.5-3.237-4.2-3.237-7.72v-1.774c0.41-1.652.394-3.518,0.835-5.321,1.388-5.672,1.5-11.975,2.924-17.631,0.519-2.052.311-4.1,0.836-6.156,1.324-5.177,1.456-10.971,2.715-16.171,0.4-1.657.2-3.141,0.627-4.8,0.994-3.888,1.141-8.3,2.089-12.207,0.294-1.213.106-2.225,0.417-3.443,0.881-3.444,1.009-7.4,1.88-10.85q0.1-1.1.209-2.191c0.445-1.741.6-3.891,1.044-5.634q0.105-1.1.209-2.191c0.445-1.741.6-3.891,1.045-5.633q0.1-1.1.208-2.191c0.519-2.029.5-4.322,1.045-6.469,1.42-5.554,1.521-11.766,2.924-17.318,0.419-1.659.2-3.143,0.627-4.8,1.522-5.96,1.625-12.605,3.133-18.57q0.1-1.1.209-2.191c0.443-1.747.616-3.871,1.044-5.634a16.9,16.9,0,0,1,.627-3.026,9.19,9.19,0,0,1,4.908-4.8c1.562-.662,7.479-1.009,9.713-0.521l16.083,0.1h9.712a27.515,27.515,0,0,0,5.431-.209c1.793-.389,4.236.165,5.953-0.208h2.715a34.483,34.483,0,0,0,4.7-.418H356.6c3.014-.675,6.578-0.357,9.5-1.043h1.254c1.009-.234,2.19-0.14,3.342-0.417,3.13-.753,6.682-0.889,9.712-1.67,1.388-.357,2.6-0.257,3.969-0.626,4.137-1.118,8.519-1.851,12.428-3.129l2.611-.626c7.129-2.6,14.233-4.683,20.678-7.93,18.833-9.485,34.024-21.941,45.847-38.393a154.245,154.245,0,0,0,12.115-20.657c1.154-2.29,2.013-4.728,3.133-6.99l0.627-1.878c0.678-1.6,1.393-3.4,2.088-5.008,0.171-.394.038-0.649,0.209-1.043,1.042-2.393,1.6-4.992,2.507-7.616,1.926-5.561,3.209-11.652,4.8-17.632,0.673-2.524.974-5.316,1.566-7.72A1.14,1.14,0,0,0,493.309,256.564Z"/>
</svg>
