<svg id="SVG" xmlns="http://www.w3.org/2000/svg" width="700" height="700" viewBox="0 0 700 700">
  <defs>
    <style>
      .cls-1 {
        fill-rule: evenodd;
      }
    </style>
  </defs>
  <path id="Paypal" class="cls-1" d="M166.52,297.031h29.862a16.7,16.7,0,0,1,3.1.056l2.427,0.056c1.7,0.378,3.518.24,5.137,0.672,3.752,1,6.99,1.885,9.823,3.755a18.547,18.547,0,0,1,7,8.855A32.312,32.312,0,0,1,225,315.356a18.214,18.214,0,0,1,.113,4.2,41.749,41.749,0,0,1-1.467,9.919c-0.249.817-.3,1.513-0.565,2.3-0.5,1.48-1.017,2.97-1.637,4.371a28.419,28.419,0,0,1-14.282,14.683,50.872,50.872,0,0,1-5.758,2.017c-1.018.305-2.095,0.415-3.1,0.673-0.968.247-1.869,0.109-2.879,0.336-0.462.1-1.159,0.119-1.637,0.224h-0.847a17.472,17.472,0,0,1-3.331.112h-5.983c-2.717,0-5.6-.232-7.057,1.009-1.494,1.274-1.387,3.061-1.919,5.268q-0.055.56-.113,1.121c-0.274,1.116-.275,2.343-0.564,3.53-0.808,3.313-.891,6.942-1.694,10.256-0.546,2.255-.309,4.786-1.693,6.164a5.01,5.01,0,0,1-2.258,1.233,13.6,13.6,0,0,1-2.936.056h-11.12a9.377,9.377,0,0,1-2.428-.056c-2.019-.654-2.1-2.746-1.524-5.044,0.2-.787.181-1.668,0.4-2.522,0.771-3.064.818-6.457,1.581-9.526,0.274-1.1.175-2.149,0.452-3.251,0.769-3.067.818-6.46,1.58-9.527,0.16-.643.065-1.206,0.226-1.849,0.42-1.674.487-3.595,0.9-5.268,0.16-.643.065-1.206,0.226-1.849,0.42-1.674.487-3.59,0.9-5.268,0.161-.649.065-1.2,0.226-1.849,0.241-.977.32-2.157,0.564-3.139q0.057-.56.113-1.12c0.242-.98.327-2.155,0.565-3.139q0.055-.56.113-1.121c0.28-1.117.274-2.344,0.564-3.53,0.752-3.077.831-6.458,1.581-9.527,0.217-.887.117-1.694,0.339-2.578,0.713-2.846.774-6,1.467-8.854,0.392-1.617.25-3.486,1.016-4.708a4.727,4.727,0,0,1,2.315-1.849A6.264,6.264,0,0,0,166.52,297.031Zm221.961,0h25.628c7.655,0,14.556.047,19.927,2.241,0.729,0.3,1.406.435,2.089,0.785a19.066,19.066,0,0,1,9.483,9.751,33.588,33.588,0,0,1,1.355,5.548v0.561a11.305,11.305,0,0,1,.113,3.642V320.9a16.055,16.055,0,0,1-.226,1.849v0.617c-0.482,2.047-.671,4.233-1.242,6.108-0.126.415-.1,0.728-0.225,1.121-0.584,1.76-1.088,3.518-1.807,5.156a28.622,28.622,0,0,1-14.451,15.075,50.941,50.941,0,0,1-5.758,2.017c-1.019.305-2.1,0.415-3.105,0.673-0.968.247-1.868,0.109-2.879,0.336-0.462.1-1.158,0.119-1.637,0.224H414.9a17.472,17.472,0,0,1-3.331.112h-5.984c-2.716,0-5.6-.232-7.056,1.009-1.865,1.59-1.474,4.308-2.145,7.061-0.278,1.143-.267,2.378-0.564,3.587-0.81,3.286-.89,6.911-1.694,10.2-0.519,2.124-.249,4.519-1.468,5.94-0.745.87-2.134,0.841-3.782,0.841H376.231a9.368,9.368,0,0,1-2.427-.056c-1.821-.59-2.085-2.235-1.58-4.315,0.037-.355.075-0.71,0.112-1.065,0.223-.907.216-1.893,0.452-2.858,0.7-2.856.776-6,1.468-8.854,0.267-1.1.174-2.146,0.451-3.251,0.6-2.369.653-5.023,1.242-7.4,0.162-.649.065-1.2,0.226-1.849,0.757-3.067.836-6.452,1.581-9.527,0.287-1.187.286-2.413,0.564-3.531q0.057-.561.113-1.121c0.241-.986.321-2.159,0.565-3.138q0.056-.561.112-1.121c0.241-.986.322-2.159,0.565-3.138,0.16-.644.068-1.2,0.226-1.849,0.411-1.682.486-3.592,0.9-5.268,0.16-.644.064-1.206,0.226-1.85,0.534-2.13.6-4.535,1.129-6.668,0.22-.888.119-1.688,0.338-2.578,0.7-2.827.765-5.969,1.468-8.8,0.441-1.774.256-4.163,1.129-5.492a4.8,4.8,0,0,1,2.032-1.737A13.689,13.689,0,0,0,388.481,297.031Zm144.229,0h11.968c1.945,0,3.96-.2,4.8.9,0.872,1.137.468,3.18,0.113,4.652-0.151.627-.072,1.161-0.226,1.793-0.807,3.313-.894,6.941-1.693,10.256-0.287,1.187-.288,2.412-0.565,3.53-0.353,1.428-.335,2.938-0.677,4.315q-0.113.9-.226,1.794c-0.553,2.266-.623,4.794-1.185,7.061q-0.086.728-.17,1.457c-0.41,1.681-.488,3.591-0.9,5.268-0.159.643-.065,1.2-0.226,1.849-0.419,1.675-.5,3.586-0.9,5.268q-0.057.56-.113,1.121c-0.245.978-.327,2.154-0.564,3.138q-0.057.56-.113,1.121c-0.245.978-.328,2.154-0.565,3.138q-0.056.559-.113,1.121c-0.163.654-.157,1.4-0.338,2.129-0.767,3.066-.84,6.452-1.581,9.527-0.21.871-.127,1.652-0.339,2.522-0.578,2.378-.655,5.025-1.242,7.4q-0.056.561-.113,1.121c-0.51,2.112-.526,3.511-2.088,4.6-1.077.749-2.635,0.729-4.516,0.729H519.9c-1.925-.458-2.445-1.961-1.919-4.147q0.057-.561.113-1.121c0.881-3.521.934-7.458,1.806-10.984,0.274-1.106.183-2.146,0.452-3.25,0.754-3.094.817-6.5,1.581-9.583,0.159-.644.064-1.206,0.225-1.849,0.479-1.912.554-4.078,1.016-6,0.156-.645.065-1.205,0.226-1.849,0.419-1.673.489-3.594,0.9-5.268,0.16-.644.069-1.2,0.226-1.849,0.388-1.592.389-3.341,0.791-4.988,0.276-1.137.263-2.383,0.564-3.586,0.224-.9.213-1.89,0.452-2.859,0.872-3.542.951-7.433,1.806-10.983,0.21-.871.127-1.652,0.339-2.522,0.752-3.094.818-6.5,1.58-9.583,0.345-1.4.178-3.62,1.016-4.484a3.811,3.811,0,0,1,.9-0.672A6.177,6.177,0,0,0,532.71,297.031Zm-348.8,17.148a2.064,2.064,0,0,1-.508.112,3,3,0,0,0-1.411,1.121c-0.611,1.075-.452,2.908-0.791,4.259-0.164.654-.157,1.405-0.338,2.13-0.768,3.064-.831,6.451-1.581,9.527-0.342,1.4-.349,2.864-0.677,4.2a14.449,14.449,0,0,0-.17,1.457,10.473,10.473,0,0,0,2.484.056h4.347a13.519,13.519,0,0,0,2.653-.112c0.739-.16,1.385.044,2.088-0.112a23.249,23.249,0,0,0,4.8-1.121,11.057,11.057,0,0,0,6.04-6.557,21.606,21.606,0,0,0,.677-3.026,13.3,13.3,0,0,0,.113-5.492,7.527,7.527,0,0,0-3.33-4.764C195.084,313.887,189.089,314.187,183.907,314.179Zm216.485,22.865h5.532a15.729,15.729,0,0,0,2.879-.056h1.129c1.05-.228,2.261-0.16,3.218-0.392,0.865-.21,1.578-0.179,2.371-0.449a15.629,15.629,0,0,0,4.572-2.578,4.342,4.342,0,0,0,.677-0.84,13.548,13.548,0,0,0,2.146-3.923c0.229-.7.259-1.314,0.451-2.074,0.859-3.4.4-7.111-1.242-9.3-2.123-2.833-7.241-3.251-12.249-3.251-2.2,0-4.759-.308-5.7.953a6.314,6.314,0,0,0-.677,2.41c-0.244,1.01-.322,2.184-0.565,3.194q-0.056.561-.113,1.121c-0.521,2.133-.615,4.527-1.129,6.669-0.156.651-.066,1.195-0.225,1.849-0.273,1.115-.274,2.339-0.565,3.531A16.348,16.348,0,0,0,400.392,337.044Zm-146.77-12.833c5.958-.087,11.572.914,15.129,3.25a12.386,12.386,0,0,1,3.218,3.082c0.115,0.162.823,1.45,0.9,1.233a5.477,5.477,0,0,0,.226-1.457c0.4-1.657.328-3.5,1.58-4.315,1.01-.654,3.3-0.392,4.911-0.392h8.581c2.777,0,4.681-.239,5.363,1.9a3.483,3.483,0,0,1-.113,1.681c-0.238.977-.229,1.956-0.452,2.858-0.219.885-.119,1.688-0.339,2.578-0.579,2.351-.668,4.988-1.242,7.341q-0.055.561-.112,1.121c-0.3,1.223-.377,2.65-0.678,3.867q-0.057.561-.113,1.121c-0.305,1.219-.382,2.644-0.677,3.867q-0.057.559-.113,1.12c-0.338,1.349-.326,2.855-0.677,4.26-0.225.895-.214,1.889-0.452,2.858-0.809,3.283-.88,6.912-1.694,10.2-0.159.644-.065,1.206-0.225,1.849-0.418,1.676-.488,3.587-0.9,5.268-0.193.78-.113,1.514-0.338,2.242a4.51,4.51,0,0,1-3.274,3.026,14,14,0,0,1-3.162.056h-6.661c-1.46,0-4.887.242-5.758-.28-2.327-1.395-.777-4.1-0.677-6.669h-0.113a7.076,7.076,0,0,1-1.242,1.177,30.709,30.709,0,0,1-2.935,2.241,32.571,32.571,0,0,1-9.371,4.147l-3.048.561H248.6a16.657,16.657,0,0,1-5.532.112l-1.467-.056c-1.437-.327-2.891-0.322-4.234-0.729-8.579-2.6-13.146-7.564-15.75-16.083a25.48,25.48,0,0,1-1.072-7.454q0.029-1.512.056-3.026c0.207-.9.11-1.885,0.339-2.8a48.774,48.774,0,0,1,1.694-6.725,54.28,54.28,0,0,1,2.37-5.324,35.464,35.464,0,0,1,16.089-14.962l1.016-.337a46.166,46.166,0,0,1,4.685-1.569c0.756-.226,1.576-0.265,2.314-0.448l2.879-.336A7.174,7.174,0,0,0,253.622,324.211Zm221.961,0c8.7-.149,16.318,2.018,19.193,7.621h0.057v-0.056a4.564,4.564,0,0,0,.225-1.345c0.359-1.484.279-3.484,1.355-4.259,1.05-.756,3.15-0.56,4.968-0.56H510.3c2.655,0,4.546-.186,5.193,1.849,0.287,0.9-.3,3.586-0.508,4.427l-0.282,2.13c-0.639,2.62-.721,5.5-1.355,8.126-0.4,1.641-.4,3.356-0.79,4.931q-0.057.561-.113,1.121c-0.3,1.224-.382,2.642-0.677,3.867q-0.057.559-.113,1.121c-0.245.978-.328,2.154-0.565,3.138q-0.055.559-.113,1.121c-0.219.877-.221,1.856-0.451,2.8-0.751,3.079-.834,6.454-1.581,9.527-0.159.654-.064,1.2-0.226,1.849-0.472,1.9-.556,4.046-1.016,5.94-0.191.788-.113,1.515-0.339,2.242a4.54,4.54,0,0,1-2.822,2.858,12.045,12.045,0,0,1-3.443.168h-6.831c-1.775,0-4.818.3-5.927-.392-2.085-1.294-.573-4.259-0.508-6.557H487.72a4.831,4.831,0,0,1-1.411,1.345c-0.563.419-1.062,0.991-1.637,1.4-0.534.381-1.075,0.656-1.637,1.009a34.518,34.518,0,0,1-5.194,2.69c-1.157.474-2.454,0.757-3.669,1.12-1.3.389-2.694,0.363-4.064,0.673h-0.847a12.337,12.337,0,0,1-4.234,0c-0.744-.165-1.373.06-2.089-0.112a47.248,47.248,0,0,1-5.136-1.121,21.316,21.316,0,0,1-10.274-7.341c-0.721-.994-1.327-2.08-1.976-3.139-1.214-1.98-1.806-4.563-2.484-7.061-0.189-.7-0.114-1.335-0.282-2.073-0.1-.439-0.124-1.069-0.226-1.513v-1.121a12,12,0,0,1,.056-3.7c0.163-.716,0-1.39.17-2.073,0.39-1.606.541-3.315,1.016-4.764q0.112-.533.226-1.064a42.551,42.551,0,0,1,2.145-5.549A35.177,35.177,0,0,1,456.9,330.543c1.318-.924,2.72-1.731,4.121-2.578,0.418-.252.853-0.33,1.3-0.56a36.964,36.964,0,0,1,8.072-2.69c1.146-.284,2.4-0.19,3.556-0.448A7.174,7.174,0,0,0,475.583,324.211Zm-172.341,1.4h11.629c2.182,0,4.433-.147,5.757.672,2.12,1.312,2.726,5.9,3.613,8.574,1.282,3.861,2.328,7.915,3.613,11.769,0.325,0.974.463,1.88,0.79,2.858,0.548,1.635.96,3.354,1.524,5.043,0.329,0.983.709,2.045,0.96,3.083h0.113v-0.056a15.788,15.788,0,0,0,1.581-2.354c1.123-1.676,2.266-3.377,3.443-5.044,3.6-5.1,7.174-10.294,10.669-15.467,1.276-1.888,2.542-3.76,3.839-5.6,0.914-1.3,1.538-2.652,3.161-3.25,1.134-.419,3.036-0.224,4.516-0.224h9.314c2.451,0,3.961-.207,4.911,1.345a2.868,2.868,0,0,1,.169,2.073,16.064,16.064,0,0,1-2.145,3.138c-1.815,2.564-3.494,5.167-5.306,7.734-1.261,1.786-2.616,3.566-3.838,5.38-3.329,4.938-6.79,9.782-10.218,14.626-4.375,6.183-8.621,12.442-12.983,18.606-4.033,5.7-7.95,11.466-11.968,17.148-1.314,1.858-2.477,3.787-3.838,5.6-1.293,1.726-3.187,1.569-6.153,1.569H307.25c-2.8,0-4.866.348-5.589-1.793a2.936,2.936,0,0,1,.226-2.017c1.03-1.673,2.366-3.222,3.5-4.82,2.841-4,5.636-7.982,8.467-11.992,0.814-1.153,1.657-2.305,2.484-3.475A7.815,7.815,0,0,0,317.58,377a4.4,4.4,0,0,1-.339-1.009c-0.275-.716-0.475-1.541-0.79-2.3-1.013-2.437-1.635-5.051-2.6-7.565-0.645-1.687-1.218-3.524-1.862-5.212-0.281-.736-0.376-1.458-0.678-2.185-0.655-1.579-1.019-3.307-1.693-4.932s-1.054-3.421-1.75-5.1c-1.4-3.377-2.381-7.055-3.669-10.479l-2.541-7.566c-0.319-.858-1.038-2.2-0.564-3.418a2.937,2.937,0,0,1,1.3-1.4A7.638,7.638,0,0,0,303.242,325.612ZM257.461,339.9a6.675,6.675,0,0,1-1.355.056c-0.868.2-1.8,0.2-2.653,0.448a19.582,19.582,0,0,0-5.532,2.522,17.491,17.491,0,0,0-6.1,8.126,19.974,19.974,0,0,0-.564,2.354,14.379,14.379,0,0,0,.226,7.789,11.026,11.026,0,0,0,7.4,6.781,21.518,21.518,0,0,0,10.669-.448c4.773-2.077,8.08-5.128,9.935-10.087a28.134,28.134,0,0,0,.79-3.139v-0.56a11.955,11.955,0,0,0-.564-6.165C267.9,342.731,264.121,339.919,257.461,339.9Zm221.961,0a6.675,6.675,0,0,1-1.355.056c-0.868.2-1.8,0.2-2.653,0.448a18.4,18.4,0,0,0-6.21,3.139,5.086,5.086,0,0,0-.564.336,20.114,20.114,0,0,0-4.855,7.173,20.6,20.6,0,0,0-.621,2.578,14.048,14.048,0,0,0-.113,6.052,17.507,17.507,0,0,0,.791,2.466c1.26,2.934,3.839,4.765,7,5.828a21.51,21.51,0,0,0,10.669-.448c4.774-2.077,8.08-5.127,9.936-10.087a30.182,30.182,0,0,0,.79-3.083v-0.616a12.012,12.012,0,0,0-.452-5.828C490.1,342.847,486.177,339.919,479.422,339.9Z"/>
</svg>
