<?xml version="1.0" standalone="no"?>
<!DOCTYPE svg PUBLIC "-//W3C//DTD SVG 20010904//EN"
 "http://www.w3.org/TR/2001/REC-SVG-20010904/DTD/svg10.dtd">
<svg version="1.0" xmlns="http://www.w3.org/2000/svg"
 width="1200.000000pt" height="660.000000pt" viewBox="0 0 1200.000000 660.000000"
 preserveAspectRatio="xMidYMid meet">
<metadata>
Created by potrace 1.13, written by Peter Selinger 2001-2015
</metadata>
<g transform="translate(0.000000,660.000000) scale(0.100000,-0.100000)"
fill="#000000" stroke="none">
<path d="M5945 6213 c-78 -10 -176 -88 -204 -163 -7 -19 -17 -43 -22 -52 -12
-24 -12 -95 1 -103 6 -3 10 -18 10 -33 0 -48 108 -163 169 -180 51 -14 164 -8
206 12 48 22 111 79 133 121 14 28 33 97 33 120 -2 37 -20 115 -33 140 -22 41
-86 99 -128 118 -37 16 -116 26 -165 20z"/>
<path d="M5235 5546 c-64 -29 -140 -112 -150 -163 -23 -111 1 -200 73 -276 69
-72 209 -99 299 -57 66 30 129 102 149 170 9 32 9 116 -1 155 -40 158 -218
240 -370 171z"/>
<path d="M6516 5542 c-77 -42 -156 -154 -139 -198 3 -8 0 -21 -7 -29 -11 -13
-11 -20 0 -39 7 -13 9 -29 6 -34 -6 -10 3 -30 53 -114 32 -53 124 -98 202 -98
151 0 261 97 279 244 14 119 -59 238 -170 279 -70 26 -164 21 -224 -11z"/>
<path d="M5886 5550 c-37 -12 -111 -83 -139 -135 -28 -53 -30 -172 -4 -228 86
-180 336 -209 464 -54 19 24 52 93 53 113 4 110 -9 162 -57 222 -53 65 -115
92 -210 91 -43 0 -91 -5 -107 -9z"/>
<path d="M4601 4912 c-58 -23 -146 -117 -156 -169 -15 -72 -9 -166 13 -208 30
-57 50 -78 110 -113 47 -29 60 -32 130 -32 98 0 141 20 208 93 55 59 64 85 64
176 0 61 -33 147 -73 189 -63 67 -209 99 -296 64z"/>
<path d="M7185 4912 c-89 -37 -165 -129 -165 -199 0 -16 -5 -34 -11 -40 -7 -7
-8 -17 -1 -29 5 -11 12 -40 16 -66 4 -25 14 -52 21 -58 8 -7 15 -18 15 -24 0
-19 39 -51 97 -80 43 -21 66 -26 125 -25 40 0 87 6 104 12 46 18 109 76 134
126 25 50 43 151 29 166 -5 5 -9 21 -9 36 0 14 -9 38 -20 52 -11 14 -20 29
-20 34 0 17 -54 60 -105 84 -64 30 -154 35 -210 11z"/>
<path d="M5270 4911 c-69 -21 -132 -75 -165 -141 -21 -40 -33 -173 -18 -192 6
-7 13 -25 16 -39 9 -37 106 -125 153 -138 60 -17 164 -13 199 7 72 42 94 58
100 72 3 8 16 33 30 55 32 52 35 161 6 227 -24 54 -106 135 -151 148 -40 12
-133 12 -170 1z"/>
<path d="M5915 4912 c-38 -14 -101 -51 -115 -67 -61 -73 -97 -202 -71 -253 5
-9 16 -33 24 -53 20 -47 70 -104 110 -125 19 -10 66 -19 113 -21 74 -5 84 -3
141 25 69 35 117 98 132 173 5 24 12 51 15 60 4 10 3 20 -3 24 -6 3 -11 21
-12 38 0 18 -9 46 -20 62 -10 17 -24 39 -30 50 -5 11 -33 35 -60 54 -45 31
-59 35 -127 37 -42 2 -86 0 -97 -4z"/>
<path d="M6550 4911 c-76 -25 -170 -136 -170 -200 0 -15 -4 -31 -10 -37 -6 -6
-6 -21 -1 -39 5 -17 15 -48 22 -70 33 -109 125 -175 241 -175 90 0 134 16 187
65 63 60 96 144 87 227 -7 67 -15 86 -63 146 -49 61 -102 85 -193 88 -41 2
-86 0 -100 -5z"/>
<path d="M4000 4281 c-82 -27 -150 -82 -190 -156 -31 -56 -31 -174 0 -235 51
-99 133 -151 244 -152 107 -2 204 57 249 152 18 36 22 62 21 132 -1 78 -3 91
-29 127 -37 54 -108 111 -153 123 -54 15 -113 18 -142 9z"/>
<path d="M7870 4284 c-63 -25 -119 -57 -141 -81 -57 -63 -72 -106 -71 -205 1
-112 57 -195 162 -240 60 -26 153 -27 205 -1 61 29 115 64 115 74 0 5 8 22 17
36 39 60 56 168 34 211 -5 9 -15 33 -22 51 -24 65 -102 131 -174 148 -37 9
-110 13 -125 7z"/>
<path d="M4601 4260 c-54 -25 -96 -60 -129 -108 -21 -31 -26 -51 -30 -122 -4
-78 -2 -90 24 -144 36 -73 100 -123 172 -133 26 -3 52 -9 57 -14 6 -4 17 -4
25 1 8 6 26 10 40 10 33 0 143 65 157 93 51 97 55 111 50 182 -11 154 -99 242
-251 251 -57 4 -79 1 -115 -16z"/>
<path d="M5285 4271 c-86 -22 -154 -79 -176 -146 -7 -22 -17 -44 -21 -49 -13
-16 -9 -104 8 -156 20 -61 66 -111 143 -154 48 -27 165 -25 224 3 62 30 81 48
116 113 27 49 31 66 31 131 0 42 -4 79 -10 82 -5 3 -10 14 -10 24 0 26 -65 97
-116 127 -47 28 -135 40 -189 25z"/>
<path d="M5923 4271 c-18 -5 -44 -16 -57 -25 -43 -28 -116 -110 -122 -136 -3
-14 -10 -35 -15 -48 -12 -29 -12 -87 0 -110 5 -9 17 -34 26 -56 21 -47 56 -84
114 -121 40 -25 54 -28 127 -27 71 1 88 4 125 28 80 50 129 116 129 175 0 17
5 39 10 49 7 13 7 26 1 37 -6 10 -13 34 -16 54 -7 45 -70 119 -131 155 -48 28
-134 39 -191 25z"/>
<path d="M6557 4266 c-86 -31 -177 -133 -177 -199 0 -12 -5 -28 -12 -35 -9 -9
-9 -15 0 -24 7 -7 12 -29 12 -49 0 -68 69 -158 147 -193 59 -26 175 -25 228 3
52 27 108 86 124 131 7 19 18 45 23 56 11 23 7 70 -12 144 -10 42 -45 91 -82
115 -8 6 -27 18 -41 29 -51 35 -144 45 -210 22z"/>
<path d="M7173 4256 c-58 -28 -103 -71 -135 -131 -30 -57 -29 -185 3 -241 46
-80 120 -134 184 -134 15 0 35 -5 45 -10 13 -7 21 -7 25 0 3 5 20 10 36 10 61
0 153 71 195 150 25 46 26 181 2 226 -21 39 -93 111 -131 131 -16 8 -61 17
-101 19 -61 5 -78 2 -123 -20z"/>
<path d="M4675 3633 c-118 -23 -167 -56 -210 -142 -25 -50 -27 -62 -23 -142 3
-64 9 -93 21 -107 9 -10 17 -23 17 -28 0 -15 61 -70 95 -86 74 -35 113 -42
168 -29 122 31 169 68 207 164 18 47 22 70 17 125 -6 76 -24 119 -73 167 -53
53 -158 91 -219 78z"/>
<path d="M5305 3627 c-106 -24 -187 -87 -201 -156 -4 -17 -11 -34 -15 -37 -13
-8 -11 -108 2 -141 31 -75 40 -90 71 -119 49 -47 91 -65 169 -71 63 -5 74 -3
134 26 98 48 145 126 145 238 0 83 -34 159 -94 207 -38 31 -88 52 -110 47 -5
-1 -21 2 -35 7 -14 4 -44 4 -66 -1z"/>
<path d="M5965 3629 c-11 -4 -37 -11 -58 -14 -55 -9 -123 -74 -159 -152 -28
-63 -37 -136 -18 -148 6 -3 10 -16 10 -28 0 -58 99 -157 176 -176 74 -19 126
-14 190 19 33 16 70 40 81 52 33 36 63 96 63 126 0 16 5 33 12 40 9 9 9 15 0
24 -7 7 -12 27 -12 45 0 75 -94 186 -167 198 -21 3 -52 9 -68 14 -17 4 -39 4
-50 0z"/>
<path d="M6615 3628 c-16 -4 -47 -10 -68 -13 -73 -12 -167 -123 -167 -198 0
-18 -5 -38 -12 -45 -9 -9 -9 -15 0 -24 7 -7 12 -24 12 -39 0 -63 71 -147 157
-186 49 -22 64 -25 126 -20 57 5 79 12 116 38 62 42 111 104 111 139 0 16 5
32 10 35 17 10 11 81 -12 142 -22 61 -89 134 -138 151 -54 20 -106 27 -135 20z"/>
<path d="M7230 3630 c-58 -8 -96 -29 -141 -77 -46 -48 -69 -93 -69 -136 0 -18
-5 -38 -12 -45 -9 -9 -9 -15 0 -24 7 -7 12 -24 12 -40 0 -15 9 -44 21 -65 48
-86 110 -127 226 -149 37 -7 132 24 170 55 73 60 101 106 109 178 20 189 -128
331 -316 303z"/>
<path d="M4564 2954 c-49 -29 -66 -47 -92 -93 -27 -49 -32 -69 -32 -122 0
-108 9 -135 59 -191 74 -82 187 -119 268 -87 115 46 147 73 181 156 44 103 26
209 -48 287 -59 62 -118 86 -210 86 -57 0 -73 -5 -126 -36z"/>
<path d="M5276 2981 c-3 -4 -18 -11 -34 -14 -16 -3 -51 -26 -78 -50 -81 -74
-104 -177 -64 -286 37 -101 118 -161 230 -169 96 -6 144 10 204 71 59 60 76
105 76 200 0 102 -46 176 -139 226 -49 26 -70 31 -124 31 -36 0 -68 -4 -71 -9z"/>
<path d="M5895 2972 c-22 -7 -59 -32 -83 -55 -40 -39 -50 -55 -81 -130 -13
-34 -14 -91 -2 -115 6 -9 12 -29 15 -44 3 -14 21 -46 39 -70 79 -105 251 -130
367 -52 44 30 100 119 100 159 0 17 5 36 12 43 9 9 9 15 0 24 -7 7 -12 31 -12
55 0 35 -7 51 -43 95 -57 70 -116 99 -205 101 -37 1 -85 -4 -107 -11z"/>
<path d="M6525 2963 c-64 -33 -82 -48 -117 -102 -17 -28 -28 -58 -28 -81 0
-20 -5 -41 -12 -48 -9 -9 -9 -15 0 -24 7 -7 12 -24 12 -39 0 -33 36 -103 72
-139 68 -68 198 -89 297 -48 67 28 141 111 141 158 0 16 5 32 10 35 17 10 11
81 -11 142 -54 146 -228 216 -364 146z"/>
<path d="M7148 2959 c-44 -23 -64 -40 -92 -86 -24 -38 -36 -69 -36 -93 0 -20
-5 -41 -12 -48 -9 -9 -9 -15 0 -24 7 -7 12 -26 12 -43 0 -33 48 -118 83 -148
39 -33 126 -67 170 -67 47 0 139 30 177 58 46 35 88 108 95 168 13 103 -12
178 -82 246 -77 75 -211 90 -315 37z"/>
<path d="M4595 2331 c-48 -22 -145 -122 -145 -150 0 -11 -4 -23 -10 -26 -14
-9 -12 -113 3 -155 21 -60 59 -116 91 -136 81 -49 92 -53 157 -54 95 0 148 21
208 85 27 29 53 66 57 81 4 16 10 34 14 39 12 17 -7 151 -28 191 -60 117 -231
179 -347 125z"/>
<path d="M5246 2325 c-75 -31 -102 -56 -137 -130 -50 -104 -37 -215 34 -293
108 -117 284 -125 392 -17 52 53 68 91 73 178 6 98 -12 147 -76 209 -80 79
-178 98 -286 53z"/>
<path d="M5896 2329 c-54 -20 -130 -87 -144 -128 -39 -109 -40 -134 -12 -211
23 -63 100 -148 143 -157 15 -3 30 -10 33 -14 3 -5 36 -9 74 -9 249 0 361 293
179 469 -69 68 -176 87 -273 50z"/>
<path d="M6543 2333 c-77 -27 -163 -133 -163 -201 0 -15 -4 -32 -10 -38 -6 -6
-6 -20 -1 -39 6 -17 14 -48 20 -70 14 -55 68 -115 131 -148 41 -22 66 -27 120
-27 38 0 71 4 74 9 3 4 18 11 33 14 80 16 169 154 160 245 -12 121 -49 192
-118 228 -87 45 -169 54 -246 27z"/>
<path d="M7198 2340 c-15 -4 -47 -21 -72 -37 -50 -32 -106 -122 -106 -170 0
-16 -5 -34 -11 -40 -7 -7 -8 -17 -1 -29 5 -11 12 -38 16 -61 16 -107 127 -193
249 -193 136 0 224 64 270 196 30 90 -5 210 -82 276 -68 58 -180 83 -263 58z"/>
<path d="M6447 1543 c-7 -6 -97 -22 -150 -26 l-28 -2 1 -435 c0 -297 4 -436
11 -441 19 -11 177 -11 199 1 20 11 20 16 14 204 -4 106 -4 204 -1 218 9 34
68 63 97 48 19 -10 20 -20 20 -240 l0 -229 33 -6 c17 -3 68 -5 112 -3 l80 3 2
260 3 260 -28 50 c-35 66 -74 85 -167 85 -38 -1 -87 -7 -108 -14 -21 -8 -40
-10 -43 -5 -3 5 -4 65 -3 133 1 67 -1 128 -5 134 -8 13 -29 16 -39 5z"/>
<path d="M7154 1286 c-68 -20 -86 -30 -123 -68 -49 -49 -91 -119 -91 -152 0
-14 -3 -27 -7 -29 -10 -6 -6 -139 5 -197 26 -127 122 -209 257 -218 91 -6 140
9 212 62 90 66 105 101 110 261 3 80 0 147 -6 172 -15 54 -96 138 -154 159
-48 17 -160 23 -203 10z m108 -173 c16 -14 18 -33 18 -147 0 -144 -10 -176
-54 -176 -43 0 -51 24 -51 154 0 135 13 186 48 186 11 0 29 -7 39 -17z"/>
<path d="M7761 1291 c-8 -5 -47 -12 -87 -16 l-73 -7 5 -46 c3 -26 10 -64 16
-85 8 -26 9 -145 5 -397 -6 -316 -5 -362 9 -367 33 -13 212 34 219 57 2 8 1
56 -3 106 l-7 90 75 -4 c69 -3 80 -1 139 30 36 18 70 42 75 53 6 11 14 22 17
25 3 3 12 23 19 45 7 22 16 48 21 57 14 27 11 266 -3 307 -23 66 -87 131 -146
149 -48 14 -134 16 -147 3 -20 -18 -71 -22 -85 -6 -14 17 -29 19 -49 6z m187
-236 c2 -27 7 -54 13 -59 12 -13 12 -41 -1 -80 -5 -17 -12 -44 -15 -59 -7 -36
-70 -70 -85 -47 -15 23 -12 274 2 288 7 7 29 12 48 10 34 -3 35 -4 38 -53z"/>
<path d="M5798 1284 c-14 -3 -32 -12 -38 -20 -7 -8 -18 -14 -24 -14 -18 0 -51
-39 -73 -85 -23 -48 -22 -138 1 -183 22 -43 72 -75 136 -89 99 -21 133 -31
148 -47 14 -14 14 -17 -3 -36 -10 -11 -30 -20 -45 -20 -37 0 -129 29 -162 52
-14 10 -33 18 -42 18 -19 0 -88 -132 -80 -153 5 -15 28 -28 84 -47 19 -7 46
-17 59 -24 13 -6 71 -11 130 -11 101 0 109 2 175 34 37 19 71 42 74 50 3 9 14
27 24 40 21 28 26 157 7 194 -18 35 -52 68 -84 81 -35 15 -105 30 -122 27 -7
-1 -27 8 -45 21 -18 13 -35 24 -37 25 -2 1 2 9 9 18 16 19 98 20 125 1 11 -7
34 -17 51 -20 31 -7 32 -6 63 60 17 37 28 71 24 75 -4 4 -33 17 -63 29 -55 21
-226 35 -292 24z"/>
<path d="M3820 1273 l-35 -4 3 -437 c1 -240 7 -441 11 -445 5 -5 37 -6 71 -2
84 10 93 24 90 152 -3 121 -3 118 16 102 10 -9 46 -13 102 -14 90 0 114 9 173
65 49 46 81 154 82 275 0 136 -36 227 -111 279 -37 26 -54 31 -118 34 -75 4
-133 -12 -151 -41 -5 -8 -9 -3 -13 13 -5 21 -12 25 -45 26 -22 1 -56 -1 -75
-3z m306 -145 c31 -36 42 -86 40 -188 -3 -105 -17 -145 -63 -178 -16 -11 -38
-18 -51 -16 -29 5 -85 33 -94 48 -4 6 -8 75 -8 152 l0 142 35 31 c46 40 110
44 141 9z"/>
<path d="M4585 1266 c-11 -8 -27 -16 -35 -16 -16 0 -88 -35 -104 -50 -14 -14
46 -100 69 -100 11 0 47 14 80 30 75 37 118 38 150 6 26 -26 40 -67 31 -91 -4
-11 -22 -15 -73 -15 -173 0 -276 -79 -275 -207 2 -85 12 -110 66 -162 34 -33
40 -35 121 -39 77 -4 90 -2 141 23 l56 27 32 -31 c17 -17 39 -31 47 -31 14 0
79 75 79 91 0 5 -11 20 -25 35 -25 27 -25 27 -25 231 l0 204 -49 52 -49 52
-109 3 c-86 3 -112 0 -128 -12z m175 -416 l0 -80 -40 -20 c-21 -11 -48 -20
-59 -20 -29 0 -71 49 -71 83 0 69 53 111 148 116 21 1 22 -2 22 -79z"/>
<path d="M5075 1273 c-77 -9 -88 -20 -65 -61 5 -9 33 -89 61 -177 28 -88 61
-189 74 -225 13 -36 31 -89 40 -117 9 -29 24 -57 32 -62 15 -8 13 -14 -9 -57
-21 -40 -36 -54 -82 -77 -31 -16 -56 -31 -56 -35 0 -4 11 -25 23 -47 21 -36
26 -40 58 -37 42 4 86 24 119 55 27 24 70 82 70 94 0 4 15 48 34 98 36 97 73
204 112 330 14 44 29 87 33 95 5 9 12 31 16 49 4 18 18 58 31 88 31 70 23 83
-53 83 -62 0 -93 -13 -93 -39 0 -19 -26 -106 -39 -131 -4 -8 -13 -40 -20 -70
-7 -30 -16 -64 -20 -75 -5 -11 -14 -33 -20 -48 -6 -16 -9 -32 -6 -36 6 -11
-22 -48 -30 -40 -3 4 -8 17 -9 30 -5 36 -18 83 -26 94 -4 6 -13 37 -20 70 -7
33 -15 65 -19 70 -4 6 -15 39 -25 75 -33 119 -27 114 -111 103z"/>
</g>
</svg>
