<?xml version="1.0" standalone="no"?>
<!DOCTYPE svg PUBLIC "-//W3C//DTD SVG 20010904//EN"
 "http://www.w3.org/TR/2001/REC-SVG-20010904/DTD/svg10.dtd">
<svg version="1.0" xmlns="http://www.w3.org/2000/svg"
 width="1200.000000pt" height="660.000000pt" viewBox="0 0 1200.000000 660.000000"
 preserveAspectRatio="xMidYMid meet">
<metadata>
Created by potrace 1.13, written by Peter Selinger 2001-2015
</metadata>
<g transform="translate(0.000000,660.000000) scale(0.100000,-0.100000)"
fill="#000000" stroke="none">
<path d="M763 4221 c-167 -57 -298 -200 -339 -369 -15 -64 -18 -152 -6 -152
21 0 134 64 139 79 18 59 44 103 91 152 186 197 503 136 606 -118 20 -48 29
-59 60 -69 20 -7 46 -20 58 -29 33 -23 38 -19 38 29 0 211 -145 408 -350 475
-81 27 -221 28 -297 2z"/>
<path d="M6959 4066 c-72 -15 -131 -54 -166 -109 l-28 -42 0 -605 0 -605 120
0 120 0 5 370 5 370 83 3 83 3 -3 122 -3 122 -80 5 -80 5 -3 35 c-5 57 16 74
95 80 l68 5 0 125 0 125 -80 2 c-44 1 -105 -4 -136 -11z"/>
<path d="M11535 4030 c-3 -5 -5 -76 -4 -157 l1 -148 -258 -6 c-143 -3 -276
-11 -297 -16 -67 -19 -130 -68 -151 -118 -36 -81 -37 -90 -34 -401 3 -333 4
-341 60 -404 68 -77 139 -93 373 -87 187 4 224 12 286 60 55 42 87 102 93 174
3 32 8 290 10 574 3 373 1 520 -7 528 -14 14 -64 15 -72 1z m-5 -402 c0 -7 0
-171 0 -364 -1 -415 2 -403 -105 -465 -38 -22 -49 -24 -235 -24 -184 0 -198 1
-242 23 -80 40 -83 52 -86 377 -3 309 1 344 53 398 59 63 63 63 383 65 180 2
232 -1 232 -10z"/>
<path d="M8552 3709 c-68 -11 -101 -29 -141 -74 -60 -68 -61 -77 -61 -416 0
-346 3 -366 63 -435 46 -52 79 -69 168 -83 77 -13 388 -14 407 -2 8 5 12 21
10 37 l-3 29 -225 6 c-245 6 -270 12 -308 67 -40 60 -42 75 -42 384 0 427 -15
409 345 417 l230 6 3 23 c7 49 -6 52 -207 51 -102 -1 -210 -5 -239 -10z"/>
<path d="M9217 3713 c-4 -3 -7 -21 -7 -40 l0 -33 273 -1 c338 0 360 -3 408
-57 30 -34 38 -54 48 -112 6 -39 9 -75 6 -81 -4 -5 -115 -9 -265 -9 -174 0
-275 -4 -306 -12 -59 -16 -115 -65 -145 -125 -21 -44 -23 -62 -23 -208 0 -154
1 -162 26 -205 34 -60 104 -112 170 -128 31 -7 122 -12 217 -12 210 0 256 12
326 84 70 71 75 98 75 424 0 298 -5 329 -65 419 -41 61 -70 78 -156 92 -70 12
-572 15 -582 4z m721 -620 c-3 -240 -5 -248 -72 -296 -30 -21 -40 -22 -246
-22 -227 0 -242 3 -295 52 -40 37 -45 58 -45 202 0 149 9 188 52 228 49 46 86
52 356 52 l254 1 -4 -217z"/>
<path d="M10483 3705 c-68 -17 -115 -46 -145 -92 -48 -74 -49 -91 -46 -518 l3
-400 30 0 30 0 5 400 c3 220 10 411 14 425 27 76 73 105 186 117 73 8 75 9 78
37 2 16 -2 32 -10 37 -18 12 -83 9 -145 -6z"/>
<path d="M515 3676 c-62 -29 -90 -59 -110 -115 -12 -36 -15 -101 -15 -361 0
-210 4 -328 11 -351 18 -51 55 -97 102 -122 41 -21 52 -22 375 -25 382 -3 423
1 482 55 71 64 75 86 75 448 l0 320 -26 56 c-22 45 -37 63 -75 85 l-49 29
-360 3 -360 2 -50 -24z"/>
<path d="M1968 3675 c-55 -29 -92 -74 -106 -130 -6 -24 -12 -273 -14 -625 l-3
-585 125 0 125 0 1 180 1 180 194 5 c215 6 225 9 291 77 67 69 68 76 68 422 0
339 -5 377 -58 435 -57 61 -83 66 -342 65 -229 0 -236 -1 -282 -24z m398 -231
c38 -10 44 -45 44 -249 0 -248 9 -235 -159 -235 -166 0 -161 -7 -161 236 0
194 6 229 42 244 25 10 201 13 234 4z"/>
<path d="M2854 3687 c-2 -7 -3 -62 -2 -123 l3 -109 261 -5 c278 -5 294 -8 294
-55 l0 -23 -202 -4 c-227 -5 -252 -11 -306 -72 -44 -50 -52 -91 -52 -269 0
-204 17 -248 115 -300 38 -21 53 -22 285 -22 211 0 249 2 276 17 45 25 101 91
113 135 15 52 14 645 0 698 -14 51 -81 116 -136 133 -60 18 -642 17 -649 -1z
m538 -574 c13 -11 18 -30 18 -65 0 -87 -2 -88 -152 -88 -157 0 -168 5 -168 82
0 87 2 88 152 88 108 0 135 -3 150 -17z"/>
<path d="M3852 3288 c3 -401 4 -414 25 -453 26 -49 78 -99 118 -116 18 -8 105
-15 220 -18 173 -6 190 -8 193 -24 7 -35 -18 -76 -54 -87 -22 -8 -115 -11
-266 -9 l-233 2 0 -124 0 -124 300 -3 c184 -2 314 1 335 7 50 15 104 63 131
118 l24 48 3 598 3 598 -123 -3 -122 -3 3 -340 c4 -427 17 -395 -164 -395
-102 0 -125 3 -136 17 -11 13 -14 85 -14 367 l0 351 -123 3 -123 3 3 -413z"/>
<path d="M4973 3684 c-23 -9 -57 -33 -76 -54 -46 -50 -60 -118 -56 -269 4
-104 7 -121 31 -162 27 -46 79 -89 131 -108 16 -6 89 -11 163 -11 121 0 136
-2 154 -20 24 -24 26 -63 4 -84 -13 -14 -49 -16 -237 -16 -122 0 -228 -4 -235
-8 -9 -7 -12 -39 -10 -128 l3 -119 250 -3 c319 -4 345 -1 396 45 22 20 52 57
67 82 26 44 27 52 27 191 0 165 -11 201 -82 259 -53 44 -88 51 -245 51 -125 0
-140 2 -158 20 -24 24 -25 49 -6 76 13 18 31 19 253 24 l238 5 0 120 0 120
-285 2 c-231 1 -293 -1 -327 -13z"/>
<path d="M5764 3687 c-2 -7 -3 -62 -2 -123 l3 -109 261 -5 c279 -5 294 -8 294
-56 l0 -24 -178 0 c-244 0 -305 -19 -354 -113 -20 -37 -23 -61 -26 -202 -4
-181 4 -228 49 -279 55 -63 94 -71 359 -71 224 0 237 1 277 22 22 12 51 35 63
50 49 62 50 75 50 427 0 301 -2 335 -19 372 -25 56 -66 92 -125 109 -69 21
-644 22 -652 2z m537 -567 c16 -9 19 -22 19 -73 0 -36 -5 -68 -12 -75 -8 -8
-54 -12 -140 -12 -115 0 -130 2 -148 20 -22 22 -26 70 -9 119 l11 31 130 0
c71 0 138 -5 149 -10z"/>
<path d="M7470 3688 c-53 -15 -100 -56 -124 -107 -20 -44 -21 -57 -18 -381 3
-325 4 -336 26 -380 25 -51 84 -97 142 -110 21 -5 170 -10 330 -10 257 0 293
2 298 16 9 23 7 217 -2 231 -6 9 -75 13 -267 15 l-260 3 -12 27 c-7 14 -11 32
-8 40 3 7 127 60 276 118 234 91 271 108 276 129 3 13 3 76 0 140 -6 132 -23
187 -69 226 -61 51 -83 55 -327 54 -124 0 -242 -5 -261 -11z m369 -249 c57
-20 35 -39 -109 -95 -74 -29 -141 -53 -147 -53 -9 -1 -13 17 -13 59 0 57 2 61
33 80 25 16 50 20 118 20 47 0 100 -5 118 -11z"/>
</g>
</svg>
