<svg xmlns="http://www.w3.org/2000/svg" width="700" height="700" viewBox="0 0 700 700">
  <defs>
    <style>
      .cls-1 {
        fill-rule: evenodd;
      }
    </style>
  </defs>
  <path id="Paytm" class="cls-1" d="M407.124,285h4.127q0.206,0.621.412,1.242c2.695,3.251-1.734,14.23,1.238,18.217,2.378,1.526,9.852.469,13.2,0.414,2.538,4.2,1.291,18.164,1.238,24.84a7.467,7.467,0,0,0-1.651,1.242l-11.554-.414A7.327,7.327,0,0,0,412.9,332.2c-1.941,2.315-.412,12.844-0.412,16.975V394.3c0,4.583,1,17.452-1.238,19.459-1.558,1.18-15.76.649-18.156-.414a15.623,15.623,0,0,1-4.127-3.312c-5.168-5.142-4.539-13.884-4.539-24.427V350c0-6.032.556-13.3-.412-18.631a10.445,10.445,0,0,1-1.651-.828c-3.643-.953-8.256,2.236-11.554,0-2.2-1.493-1.783-19.792-1.238-24.012,1.276-.852,1.208-1.433,3.3-1.656,2.2-1.312,8.588-.575,11.141-1.656a32.613,32.613,0,0,0,11.966-9.109c1.226-1.643,2.1-3.755,3.714-4.968C401.524,287.769,405.769,286.525,407.124,285Zm71.8,18.217c7.967-.115,13.187.948,17.744,4.14,2.5,1.754,4.082,5.459,7.427,6.21,7.886-12.189,30.383-14,39.613-1.656a39.359,39.359,0,0,1,5.777,12.42v57.548c0,7.488,1.562,18.895-.825,24.841-2.679,6.672-8.6,7.426-18.156,7.452-2.988.008-5.931,1.04-7.84-.414-2.5-2.867-1.238-12.362-1.238-17.389,0-14.949.412-30.828,0.413-46.369,0-8.035,1.927-19.775-5.777-20.287-1.44-.972-4.086-0.176-5.777,0-1.5,1.879-3.391,2.174-3.714,5.383-1.433,2.288-.413,15.068-0.413,19.872v36.019c0,7.534.255,14.743-2.888,19.045-3.493,4.78-14.135,5.025-22.283,4.968-0.641-.839-1.444-1.183-2.063-2.07-2-2.679-.413-16.035-0.412-21.943V336.338q-0.827-2.277-1.651-4.555c-2.083-1.384-3.084-2.749-6.6-2.9-1.442,1-3.583,1.024-4.952,2.07q-1.238,1.863-2.476,3.727c0.03,16.475-.4,34.591-0.412,51.337-0.007,7.709,1.237,18.529-2.063,23.185-4.132,5.829-15.464,5.263-24.346,4.968a7.459,7.459,0,0,0-1.238-1.656v-71.21c0-11.118-1.515-25.866.413-36.019,5.131-1.711,19.839-.445,26.408-0.414,1.109,1.782,1.3,3.761,1.238,7.038h0.826c1.9-2.643,6.447-5.67,9.49-7.038C475.1,304,477.326,304.36,478.923,303.217ZM171.1,304.873c19.707-.21,35.751-0.69,42.5,12.006,3.319,6.243,2.476,17,2.475,26.5v13.662c0,29.346-10.474,32.563-39.613,32.293-1.645,3.166-.875,10.331-0.825,14.9-1.346,1.8-1.567,4.455-2.888,6.21-3.284,4.361-12.162,4.631-19.807,4.554-3.138-3.931-3.035-2.952-2.888-10.35,1.642-2.7.412-17.559,0.412-21.943v-41.4q0.207-10.143.413-20.287c1.761-6.636,5.635-12.008,11.554-14.49C164.773,305.546,168.888,306.239,171.1,304.873Zm63.134,0c14.638-.119,43.464-2.742,49.516,5.382a23.221,23.221,0,0,1,4.126,12.42c0.224,3.842-1.374,9.993-.412,14.491,1.128,5.276,0,13.369,0,19.872,0,19.006,3.6,45.928-7.84,53.822-4.853,3.349-12.457,3.726-20.632,3.726-18.589,0-30.562-1.52-35.487-14.9-1.559-4.236-.138-8.947-1.238-14.077-0.528-2.462-.413-6.4-0.413-9.522q0.412-8.28.826-16.561c2.569-9.345,8.729-15.341,17.743-18.216,5.6-1.786,19.184,1.912,21.045-2.9,2.138-2.872.036-7.042-2.476-7.867-1.385-.454-3.783.253-4.539,0.414l-12.379-.414c-8.65-2.323-12.033-12.573-9.9-24.012A10.349,10.349,0,0,0,234.23,304.873Zm63.133,0c5.9,0.118,16.888-.648,22.695.414,1.432,2.8.825,8.7,0.825,12.834v29.4c0.648,0.889.582,2.319,1.238,3.312,2.151,3.253,6.759,2.664,10.729,2.07,0.8-1.094,1.562-1.39,2.063-2.9,1.638-2.177.825-8.42,0.825-12.006V306.529l1.238-.828c2.138-1.627,15.51-.021,19.807-0.828,1.758-.331,4.076.676,4.539,1.656v78.248c-1.548,2.6-.5,10.511-1.651,13.662-5.415,14.883-16.539,15.733-36.725,15.733-4.3,0-14.163,1.372-16.505-.414-1.351-1.576-.828-5.837-0.825-8.694,0.011-10.5,3.374-14.268,11.966-16.147,5.426-1.186,15.112,2.237,17.331-2.07,1.786-1.84.674-5.906-.825-7.038-4-3.045-12.344.194-18.156-1.242l-7.428-2.484c-4.794-2.569-9.59-7.475-11.554-12.835-1.925-5.255-1.238-13.125-1.238-19.872V306.115A7.444,7.444,0,0,0,297.363,304.873Zm-120.9,26.082c-2.092,4.076-.864,23.644-0.825,30.223,2.65,3.217,4.588,2.645,10.316,2.484a13.1,13.1,0,0,1,2.888-1.242,13.192,13.192,0,0,0,2.064-3.726c0.848-3.1.167-23.378-.413-24.841a4.065,4.065,0,0,0-3.714-2.484C184.905,330.158,179.194,330.9,176.46,330.955Zm78.4,33.121c-1.14.7-4.53,1.128-5.777,1.656-2.436,5.024-1.929,15.537-.412,21.115,3.693,1.206,7.55,3.092,12.792,2.07a6.283,6.283,0,0,0,.825-1.656c0.476-.857,0-3.425,0-5.382,0-3.552.92-13.881-.413-16.147-0.542-.92-1.446-1.1-2.888-1.242C258.166,363.937,256.3,364.034,254.861,364.076Z"/>
</svg>
