<svg xmlns="http://www.w3.org/2000/svg" width="700" height="227" viewBox="0 0 700 227">
  <defs>
    <style>
      .cls-1 {
        fill-rule: evenodd;
      }
    </style>
  </defs>
  <path id="Paytm" class="cls-1" d="M450,237h7.222q0.36,1.085.722,2.169c4.716,5.676-3.035,24.848,2.166,31.809,4.161,2.664,17.242.82,23.11,0.723,4.441,7.34,2.26,31.718,2.166,43.375a13.064,13.064,0,0,0-2.888,2.169l-20.221-.723c-0.928,1.326-1.421,1.238-2.167,2.892-3.4,4.042-.722,22.427-0.722,29.64,0,27.576,0,51.411,0,78.8,0,8,1.75,30.474-2.166,33.978-2.727,2.061-27.583,1.134-31.776-.723-2.689-1.191-5.218-3.8-7.222-5.783-9.045-8.978-7.944-24.244-7.944-42.653V350.5c0-10.532.974-23.227-.722-32.532-1.366-.3-2.155-1.254-2.888-1.446-6.377-1.664-14.45,3.905-20.221,0-3.854-2.607-3.121-34.56-2.167-41.93,2.232-1.486,2.113-2.5,5.778-2.891,3.841-2.291,15.03-1,19.5-2.892,7.4-3.126,16.356-9.772,20.943-15.905,2.146-2.868,3.672-6.556,6.5-8.675C440.2,241.834,447.631,239.663,450,237Zm125.658,31.809c13.943-.2,23.078,1.656,31.053,7.229,4.383,3.063,7.145,9.533,13,10.844,13.8-21.283,53.173-24.441,69.328-2.892,4.455,5.942,7.8,13.716,10.111,21.688V406.166c0,13.076,2.733,32.993-1.445,43.375-4.688,11.651-15.057,12.967-31.775,13.013-5.23.014-10.379,1.816-13.721-.723-4.377-5-2.167-21.586-2.167-30.363,0-26.1.722-53.832,0.722-80.968,0-14.031,3.375-34.53-10.11-35.424-2.519-1.7-7.15-.308-10.11,0-2.621,3.281-5.934,3.8-6.5,9.4-2.508,4-.723,26.312-0.722,34.7V422.07c0,13.155.446,25.743-5.055,33.255-6.114,8.347-24.739,8.775-39,8.675-1.122-1.465-2.528-2.066-3.61-3.615-3.495-4.678-.724-28-0.723-38.315V326.643q-1.443-3.975-2.888-7.952c-3.645-2.417-5.4-4.8-11.555-5.06-2.523,1.753-6.27,1.788-8.666,3.614l-4.333,6.507c0.051,28.769-.695,60.4-0.722,89.643-0.013,13.46,2.165,32.354-3.611,40.484-7.231,10.178-27.064,9.19-42.608,8.675a13.08,13.08,0,0,0-2.167-2.892V335.318c0-19.412-2.652-45.166.722-62.894,8.98-2.988,34.721-.777,46.219-0.723,1.941,3.113,2.282,6.568,2.167,12.289h1.444c3.332-4.614,11.284-9.9,16.61-12.289C568.963,270.17,572.865,270.805,575.661,268.809ZM36.921,271.7c34.489-.367,62.569-1.205,74.383,20.965,5.81,10.9,4.334,29.691,4.334,46.267V362.79c0,51.242-18.332,56.86-69.329,56.388-2.879,5.528-1.532,18.039-1.444,26.026-2.356,3.145-2.742,7.779-5.055,10.844-5.747,7.615-21.285,8.087-34.664,7.952-5.493-6.864-5.312-5.155-5.055-18.073,2.875-4.712.722-30.66,0.722-38.316V335.318q0.361-17.709.722-35.423c3.082-11.588,9.862-20.968,20.221-25.3C25.855,272.877,33.057,274.087,36.921,271.7Zm110.492,0c25.619-.208,76.068-4.787,86.661,9.4,4,5.351,6.712,12.972,7.221,21.688,0.392,6.708-2.405,17.449-.722,25.3,1.974,9.213,0,23.345,0,34.7,0,33.186,6.292,80.2-13.721,93.981-8.492,5.848-21.8,6.5-36.109,6.506-32.533,0-53.486-2.654-62.106-26.025-2.728-7.4-.242-15.622-2.167-24.58-0.924-4.3-.722-11.174-0.722-16.627q0.721-14.459,1.444-28.918c4.5-16.318,15.277-26.788,31.054-31.809,9.8-3.119,33.573,3.34,36.83-5.06,3.744-5.015.064-12.3-4.333-13.736-2.424-.793-6.621.441-7.944,0.723l-21.665-.723c-15.138-4.056-21.058-21.955-17.332-41.93A18,18,0,0,0,147.413,271.7Zm110.492,0c10.334,0.207,29.557-1.131,39.72.723,2.506,4.89,1.444,15.2,1.444,22.41v51.328c1.134,1.552,1.017,4.05,2.167,5.784,3.763,5.679,11.828,4.651,18.776,3.614,1.4-1.911,2.734-2.427,3.611-5.06,2.867-3.8,1.444-14.7,1.444-20.965V274.592l2.167-1.446c3.742-2.839,27.144-.035,34.664-1.445,3.076-.577,7.134,1.181,7.944,2.891V411.226c-2.709,4.537-.882,18.355-2.889,23.857-9.477,25.986-28.945,27.471-64.273,27.471-7.528,0-24.788,2.4-28.887-.723-2.364-2.752-1.45-10.191-1.444-15.181,0.019-18.332,5.905-24.914,20.943-28.195,9.5-2.072,26.447,3.907,30.331-3.614,3.125-3.213,1.18-10.312-1.444-12.29-7-5.316-21.6.339-31.776-2.169l-13-4.337c-8.391-4.486-16.784-13.052-20.221-22.411-3.37-9.177-2.166-22.92-2.166-34.7V273.869A13.029,13.029,0,0,0,257.9,271.7Zm-211.6,45.544c-3.661,7.117-1.514,41.286-1.444,52.774,4.638,5.616,8.03,4.618,18.054,4.338,1.246-.978,3.5-1.539,5.055-2.169,1.28-1.969,2.893-3.89,3.611-6.507,1.484-5.411.293-40.822-.722-43.375-0.967-2.432-3.13-4.031-6.5-4.338C61.089,315.852,51.094,317.149,46.309,317.245ZM183.522,375.08c-2,1.228-7.929,1.968-10.111,2.891-4.264,8.772-3.376,27.13-.722,36.87,6.463,2.106,13.213,5.4,22.387,3.614a10.872,10.872,0,0,0,1.445-2.891c0.833-1.5,0-5.982,0-9.4-0.007-6.2,1.61-24.239-.722-28.195-0.949-1.608-2.532-1.913-5.056-2.169C189.305,374.836,186.044,375.005,183.522,375.08Z" transform="translate(0 -237)"/>
</svg>
