<?xml version="1.0" standalone="no"?>
<!DOCTYPE svg PUBLIC "-//W3C//DTD SVG 20010904//EN"
 "http://www.w3.org/TR/2001/REC-SVG-20010904/DTD/svg10.dtd">
<svg version="1.0" xmlns="http://www.w3.org/2000/svg"
 width="1200.000000pt" height="660.000000pt" viewBox="0 0 1200.000000 660.000000"
 preserveAspectRatio="xMidYMid meet">
<metadata>
Created by potrace 1.13, written by Peter Selinger 2001-2015
</metadata>
<g transform="translate(0.000000,660.000000) scale(0.100000,-0.100000)"
fill="#000000" stroke="none">
<path d="M7635 4973 c-16 -8 -86 -71 -155 -138 -124 -121 -223 -195 -310 -230
-128 -51 -228 -74 -322 -75 -89 0 -124 -13 -144 -51 -20 -39 -20 -524 -1 -572
22 -52 43 -57 247 -60 l185 -2 1 -1113 2 -1113 33 -35 33 -34 274 0 274 0 35
35 35 35 -2 1102 c-1 607 -2 1109 -1 1116 1 9 47 12 196 12 l195 0 29 28 30
27 3 283 3 284 -33 29 -32 29 -195 0 -195 0 0 191 0 191 -39 39 c-32 32 -45
39 -77 39 -22 -1 -52 -8 -69 -17z"/>
<path d="M579 4515 c-60 -33 -57 51 -61 -1488 l-3 -1409 33 -29 32 -29 277 0
276 0 34 26 34 26 -1 421 c-1 232 -1 428 -1 435 1 9 63 12 274 12 301 0 366 8
484 57 137 58 236 154 299 290 65 139 63 119 95 795 13 268 8 339 -28 468 -55
200 -197 343 -398 404 -110 33 -171 36 -744 36 -479 -1 -580 -3 -602 -15z
m1043 -705 l38 -41 0 -265 c0 -253 -1 -267 -21 -295 -39 -55 -60 -60 -261 -57
l-183 3 -3 335 c-1 184 0 341 3 347 3 10 51 13 196 13 l192 0 39 -40z"/>
<path d="M2829 4501 l-29 -29 6 -264 c3 -144 10 -277 15 -293 19 -64 27 -65
434 -65 l367 0 29 -31 c49 -52 36 -153 -25 -193 -22 -14 -58 -16 -243 -16
-255 0 -320 -10 -440 -70 -126 -62 -227 -171 -291 -311 -65 -142 -69 -182 -77
-611 -7 -477 5 -593 83 -743 48 -94 166 -211 253 -253 145 -69 107 -66 719
-66 l555 1 50 27 c67 38 110 80 135 133 20 43 21 54 20 1071 -1 1122 0 1113
-59 1300 -16 52 -79 162 -123 215 -43 50 -138 122 -200 151 -155 70 -207 76
-711 76 l-439 0 -29 -29z m856 -1596 l35 -36 0 -279 0 -279 -34 -35 -33 -36
-168 0 -167 0 -34 34 -34 34 0 282 0 282 34 34 34 34 166 0 165 0 36 -35z"/>
<path d="M4650 4503 l-21 -27 1 -671 c1 -368 6 -698 11 -733 18 -121 52 -200
131 -305 64 -86 151 -157 253 -206 145 -69 216 -81 480 -81 l213 0 31 -35 c52
-59 40 -137 -29 -183 l-34 -23 -376 6 c-416 7 -416 7 -437 -55 -8 -24 -12
-123 -12 -302 l-1 -268 29 -32 29 -33 434 3 c421 4 436 4 538 29 283 67 445
219 520 488 37 132 39 216 39 1320 0 834 -2 1084 -12 1096 -28 36 -51 39 -335
39 l-280 0 -28 -32 -27 -33 5 -620 c6 -666 6 -665 -44 -681 -12 -4 -98 -6
-191 -6 -181 1 -209 8 -226 55 -5 12 -6 299 -3 637 l5 615 -31 33 -30 32 -290
0 -291 0 -21 -27z"/>
<path d="M8574 4511 c-69 -42 -64 85 -64 -1472 l0 -1406 34 -39 34 -39 262 -3
262 -3 44 44 44 44 0 1026 0 1025 23 43 c60 114 219 154 334 83 54 -33 88 -78
104 -137 7 -28 8 -338 3 -1037 l-7 -998 41 -43 41 -44 256 -3 257 -3 44 44 44
44 0 1020 c0 925 2 1023 16 1054 72 149 262 182 379 64 82 -81 78 -21 70
-1146 l-8 -989 45 -45 45 -45 253 0 253 0 43 44 44 43 0 1124 c0 1099 0 1126
-20 1198 -58 208 -223 401 -422 494 -278 130 -538 91 -760 -112 l-57 -52 -71
60 c-109 91 -222 143 -378 172 -150 28 -346 -22 -480 -123 -35 -27 -67 -48
-71 -48 -5 0 -11 26 -13 57 -4 51 -9 60 -43 90 l-38 33 -256 0 c-234 0 -259
-2 -287 -19z"/>
</g>
</svg>
