<?xml version="1.0" standalone="no"?>
<!DOCTYPE svg PUBLIC "-//W3C//DTD SVG 20010904//EN"
 "http://www.w3.org/TR/2001/REC-SVG-20010904/DTD/svg10.dtd">
<svg version="1.0" xmlns="http://www.w3.org/2000/svg"
 width="1200.000000pt" height="660.000000pt" viewBox="0 0 1200.000000 660.000000"
 preserveAspectRatio="xMidYMid meet">
<metadata>
Created by potrace 1.13, written by Peter Selinger 2001-2015
</metadata>
<g transform="translate(0.000000,660.000000) scale(0.100000,-0.100000)"
fill="#000000" stroke="none">
<path d="M5770 6209 c-201 -19 -296 -34 -450 -71 -75 -18 -290 -85 -345 -107
-142 -58 -199 -84 -310 -141 -273 -140 -487 -294 -695 -500 -361 -359 -590
-732 -749 -1223 -53 -163 -101 -390 -121 -567 -15 -129 -12 -478 5 -620 49
-425 186 -815 425 -1210 299 -495 786 -919 1317 -1146 59 -26 119 -50 133 -54
14 -5 62 -22 106 -38 392 -144 947 -189 1387 -112 439 77 860 256 1248 531
352 249 693 656 882 1050 141 294 195 462 262 804 33 175 48 652 25 804 -27
175 -33 211 -47 281 -34 170 -61 269 -94 345 -4 11 -15 43 -24 70 -9 28 -23
65 -31 83 -8 17 -21 49 -30 70 -35 82 -111 231 -154 302 -25 41 -51 86 -58
100 -19 36 -147 215 -213 296 -83 102 -310 329 -406 405 -154 122 -237 180
-392 268 -217 124 -440 223 -616 271 -377 104 -728 141 -1055 109z m505 -194
c311 -31 467 -67 724 -167 287 -112 595 -323 810 -556 106 -115 154 -177 262
-335 274 -404 395 -838 375 -1346 -4 -91 -9 -167 -11 -169 -3 -3 -38 27 -79
65 -179 171 -401 270 -649 289 l-89 7 -68 91 c-267 357 -581 602 -967 755
-336 132 -673 188 -983 163 -752 -62 -1362 -441 -1718 -1068 -29 -50 -61 -112
-72 -138 -12 -25 -25 -44 -31 -41 -14 9 -10 376 6 498 43 326 123 557 292 845
124 211 333 450 529 604 260 205 590 368 899 444 33 8 76 19 95 24 19 5 73 14
120 20 47 6 112 15 145 19 96 14 249 12 410 -4z m1452 -423 c26 -21 84 -72
128 -113 44 -42 102 -95 129 -120 47 -43 189 -203 252 -284 115 -149 231 -349
316 -545 9 -19 25 -55 35 -80 11 -25 25 -61 32 -80 78 -241 100 -327 141 -560
50 -282 40 -656 -25 -966 -57 -275 -98 -368 -88 -201 12 194 -35 428 -123 605
l-56 113 11 92 c29 228 33 302 28 462 -3 94 -11 202 -17 240 -94 567 -326 991
-768 1408 -34 32 -62 60 -62 63 0 12 23 0 67 -34z m-3997 -707 c0 -3 -15 -36
-34 -73 -94 -188 -156 -399 -197 -672 -51 -333 -19 -719 83 -1040 29 -90 31
-104 33 -285 5 -434 112 -808 318 -1119 68 -103 74 -116 56 -116 -17 0 -157
181 -262 338 -86 129 -208 362 -257 493 -54 144 -57 152 -84 249 -45 164 -64
260 -86 440 -47 372 -4 812 115 1174 80 241 262 616 301 616 8 0 14 -2 14 -5z
m2010 -385 c233 -19 427 -61 630 -137 123 -46 359 -167 461 -237 182 -126 428
-348 417 -378 -3 -7 -21 -19 -41 -26 -61 -22 -223 -114 -319 -182 -121 -84
-322 -286 -421 -422 -90 -124 -193 -321 -236 -452 -17 -50 -43 -145 -58 -211
-24 -107 -26 -141 -27 -320 -1 -159 3 -217 18 -285 30 -140 70 -250 118 -333
44 -74 42 -77 -59 -77 -97 0 -413 26 -483 39 -323 62 -660 198 -918 372 -201
136 -467 381 -584 539 -205 277 -358 591 -418 861 l-12 56 59 124 c201 418
523 723 964 912 153 66 339 119 481 137 249 32 274 33 428 20z m2220 -1036
c122 -28 284 -125 384 -232 l29 -31 -17 -58 c-52 -171 -84 -255 -146 -380 -91
-183 -276 -460 -295 -442 -3 4 2 58 11 120 13 87 15 147 10 254 -14 284 -43
444 -119 655 -25 68 -44 127 -42 131 6 9 111 -1 185 -17z m-511 -175 c35 -72
72 -157 82 -188 114 -329 133 -739 50 -1056 -17 -64 -22 -73 -72 -113 -203
-160 -585 -332 -872 -393 -137 -29 -145 -27 -180 46 -131 263 -113 686 42
1049 54 125 184 300 330 446 148 146 287 242 461 315 93 39 89 42 159 -106z
m1013 -226 c120 -201 139 -456 58 -771 -38 -152 -148 -403 -212 -485 -138
-179 -199 -250 -322 -373 -188 -187 -325 -270 -534 -323 -96 -25 -272 -40
-272 -23 0 5 28 33 63 60 136 110 328 335 422 497 86 149 177 363 210 495 14
57 29 82 109 183 108 138 199 281 272 427 48 96 124 274 124 291 0 16 31 79
39 79 5 0 24 -26 43 -57z m-4709 -376 c37 -81 210 -331 304 -440 345 -396 746
-650 1258 -795 39 -11 84 -23 100 -26 17 -3 53 -11 80 -16 178 -37 455 -53
680 -38 l139 9 86 -90 c119 -125 300 -238 429 -266 17 -3 33 -10 35 -14 10
-16 -243 -152 -383 -206 -216 -82 -407 -122 -626 -132 -239 -10 -395 14 -667
103 -479 156 -839 399 -1092 737 -125 167 -232 368 -296 557 -65 194 -79 271
-87 483 -7 205 -1 224 40 134z m3777 -825 c0 -20 -124 -256 -177 -337 -73
-110 -186 -246 -286 -343 -67 -64 -79 -72 -104 -66 -61 13 -211 92 -278 145
-67 53 -145 143 -145 168 0 6 12 13 28 16 280 61 629 209 852 364 81 57 110
70 110 53z m-21 -806 c-18 -16 -287 -154 -372 -190 -203 -89 -481 -169 -696
-201 -139 -22 -346 -34 -421 -26 l-65 7 70 8 c352 38 662 137 945 300 68 39
83 44 161 50 109 7 237 30 314 54 34 11 62 15 64 10 1 -5 1 -11 0 -12z"/>
</g>
</svg>
