<?xml version="1.0" standalone="no"?>
<!DOCTYPE svg PUBLIC "-//W3C//DTD SVG 20010904//EN"
 "http://www.w3.org/TR/2001/REC-SVG-20010904/DTD/svg10.dtd">
<svg version="1.0" xmlns="http://www.w3.org/2000/svg"
 width="1200.000000pt" height="660.000000pt" viewBox="0 0 1200.000000 660.000000"
 preserveAspectRatio="xMidYMid meet">
<metadata>
Created by potrace 1.13, written by Peter Selinger 2001-2015
</metadata>
<g transform="translate(0.000000,660.000000) scale(0.100000,-0.100000)"
fill="#000000" stroke="none">
<path d="M1520 4609 c-361 -71 -621 -220 -829 -474 -99 -121 -155 -213 -205
-340 -42 -106 -51 -137 -85 -287 -14 -61 -14 -385 0 -446 5 -26 15 -67 21 -92
39 -166 139 -371 253 -516 181 -232 467 -414 740 -473 28 -6 71 -15 97 -21 62
-13 352 -13 420 1 387 78 686 275 895 589 105 158 143 254 202 512 14 60 14
374 1 436 -6 26 -15 70 -21 97 -36 167 -130 364 -248 520 -50 65 -227 230
-296 275 -172 112 -350 183 -551 219 -71 13 -329 13 -394 0z m331 -89 c156
-19 251 -44 375 -100 172 -77 372 -260 463 -422 12 -21 29 -53 39 -70 36 -64
68 -163 91 -276 13 -63 15 -292 3 -292 -5 0 -17 10 -28 22 -56 63 -183 119
-299 132 -28 3 -44 12 -55 28 -37 57 -155 180 -217 227 -126 95 -299 168 -469
200 -216 40 -486 -17 -690 -145 -119 -75 -259 -224 -320 -341 -16 -30 -32 -57
-36 -59 -11 -7 -10 142 2 212 42 247 119 404 279 564 127 127 146 140 286 209
121 60 198 84 335 106 100 16 141 17 241 5z m811 -342 c36 -40 75 -89 88 -108
13 -19 27 -37 30 -40 23 -21 108 -196 139 -287 54 -159 74 -287 68 -447 -4
-132 -32 -316 -47 -316 -4 0 -10 35 -14 78 -8 87 -17 124 -52 201 -24 51 -24
56 -14 154 32 285 -53 560 -243 790 -62 75 -26 55 45 -25z m-2031 -270 c-51
-129 -65 -212 -64 -398 0 -158 3 -184 27 -270 19 -69 28 -126 31 -210 7 -184
51 -341 127 -452 25 -36 23 -46 -3 -17 -37 41 -106 152 -146 234 -77 158 -112
306 -120 499 -9 228 37 429 148 648 23 44 23 22 0 -34z m1072 -93 c107 -20
216 -58 310 -108 81 -43 267 -189 267 -210 0 -7 -15 -18 -32 -26 -145 -62
-323 -243 -396 -401 -55 -119 -67 -178 -66 -325 0 -121 3 -148 23 -200 13 -33
27 -64 32 -70 5 -5 9 -15 9 -22 0 -18 -142 -17 -240 2 -130 24 -190 43 -289
91 -283 137 -488 370 -578 657 l-26 82 42 81 c117 230 342 395 611 449 90 18
240 18 333 0z m907 -460 c79 -16 180 -88 180 -130 0 -27 -43 -144 -77 -208
-41 -78 -104 -167 -114 -161 -5 3 -7 10 -4 15 4 5 6 63 6 128 -1 120 -18 230
-46 297 -21 50 -20 77 3 70 9 -2 33 -8 52 -11z m-235 -75 c61 -120 80 -213 79
-380 -1 -182 -10 -210 -85 -262 -109 -76 -285 -147 -394 -160 -27 -3 -32 2
-55 47 -22 45 -24 62 -25 175 0 104 4 137 23 194 43 129 105 222 208 315 58
51 176 120 206 121 11 0 27 -18 43 -50z m501 -188 c41 -141 -17 -375 -130
-521 -70 -90 -177 -196 -230 -226 -66 -39 -149 -65 -205 -65 l-46 0 38 31 c98
81 223 274 263 405 9 32 29 75 44 94 49 65 107 155 133 205 23 46 33 67 67
150 l12 30 18 -23 c10 -12 26 -48 36 -80z m-2086 -247 c49 -64 169 -180 240
-232 196 -145 513 -237 747 -218 l82 7 48 -48 c27 -27 79 -64 116 -83 37 -19
67 -37 67 -41 0 -11 -155 -84 -210 -100 -25 -7 -66 -19 -91 -27 -81 -24 -255
-19 -374 12 -236 62 -436 186 -563 351 -56 74 -129 221 -154 314 -11 42 -27
212 -21 223 3 4 20 -18 40 -50 19 -32 52 -80 73 -108z m1589 -291 c-62 -114
-169 -246 -209 -259 -27 -9 -105 30 -156 77 -24 22 -44 44 -44 49 0 4 19 13
43 20 125 35 212 72 342 148 28 16 51 28 53 26 1 -1 -12 -29 -29 -61z m-83
-349 c-145 -70 -342 -127 -431 -124 -26 1 -31 3 -15 6 61 10 173 51 259 95 70
36 106 48 140 49 25 0 55 4 66 9 11 5 31 9 45 8 17 0 -4 -14 -64 -43z"/>
<path d="M7613 3849 c-45 -5 -106 -18 -135 -30 -126 -49 -244 -145 -280 -227
-22 -48 -26 -132 -9 -174 14 -38 90 -94 209 -157 143 -75 164 -106 119 -172
-45 -67 -165 -76 -307 -24 -126 45 -113 49 -165 -55 -29 -57 -43 -96 -37 -102
23 -23 152 -41 312 -42 144 0 176 2 255 23 136 36 219 99 249 189 44 127 -2
215 -168 326 -120 80 -152 126 -124 183 7 16 32 38 58 51 39 20 54 22 117 17
40 -4 96 -13 125 -21 42 -11 55 -11 65 -1 16 16 56 188 46 197 -10 9 -167 30
-213 29 -19 -1 -72 -6 -117 -10z"/>
<path d="M8630 3853 c-61 -6 -172 -35 -250 -65 -143 -54 -283 -182 -350 -322
-68 -141 -76 -254 -26 -391 19 -55 36 -80 74 -116 118 -109 252 -130 571 -89
84 10 155 20 156 22 6 6 36 181 32 185 -3 2 -38 -3 -79 -11 -275 -57 -425 -38
-472 59 -24 51 -12 121 19 118 11 -2 76 -3 145 -3 250 -2 456 72 539 194 68
98 55 225 -31 328 -41 48 -200 103 -278 96 -8 -1 -31 -3 -50 -5z m49 -218 c46
-23 54 -69 22 -121 -23 -38 -77 -54 -183 -54 -40 0 -95 -7 -122 -15 -28 -8
-53 -12 -58 -7 -4 4 7 30 26 57 79 118 230 185 315 140z"/>
<path d="M3697 3833 c-5 -9 -16 -56 -52 -208 -53 -225 -199 -719 -307 -1039
-18 -53 -26 -92 -21 -97 5 -5 78 -8 163 -7 l153 3 23 95 c13 52 34 140 47 195
l24 100 164 -3 c147 -4 174 -1 264 21 100 24 202 69 261 114 121 92 263 380
264 534 0 102 -69 211 -160 252 -37 17 -66 21 -160 21 -145 1 -211 -19 -377
-115 -23 -13 -44 -22 -46 -19 -3 3 -1 28 5 55 6 28 11 61 12 75 l1 25 -127 3
c-69 1 -128 -1 -131 -5z m619 -224 c67 -32 96 -177 56 -277 -55 -138 -228
-240 -469 -275 -107 -16 -103 -19 -77 71 18 67 89 278 109 326 30 71 103 131
198 162 49 16 142 12 183 -7z"/>
<path d="M5595 3829 c-181 -13 -281 -28 -368 -55 -235 -74 -405 -242 -468
-464 -32 -109 -21 -216 32 -321 30 -60 73 -99 138 -125 102 -41 295 17 451
135 36 27 68 47 71 45 3 -2 2 -25 -2 -51 -4 -26 -8 -67 -8 -91 l-1 -43 133 3
132 3 8 80 c26 278 83 554 160 782 20 56 33 104 29 107 -7 8 -170 5 -307 -5z
m-31 -178 c10 -15 -94 -383 -122 -434 -52 -96 -156 -155 -252 -144 -61 7 -83
21 -109 68 -42 74 -20 246 41 324 31 40 126 106 182 128 50 19 220 66 243 67
6 0 14 -4 17 -9z"/>
<path d="M6740 3829 c-412 -29 -606 -116 -757 -339 -131 -194 -135 -425 -9
-569 55 -62 194 -84 306 -47 80 27 198 90 254 136 27 22 50 39 52 37 7 -7 -34
-134 -59 -184 -35 -68 -115 -148 -174 -174 -96 -42 -280 -33 -436 20 -42 15
-58 17 -65 8 -11 -14 -42 -174 -42 -215 0 -33 -6 -31 170 -57 223 -34 424 -5
573 83 79 46 185 152 230 229 33 56 88 223 116 348 6 28 27 140 46 250 39 226
47 266 81 385 13 46 24 88 24 92 0 10 -152 8 -310 -3z m-36 -177 c9 -16 -84
-355 -115 -419 -35 -72 -91 -125 -157 -147 -95 -33 -173 -13 -210 53 -33 58
-31 180 3 258 31 68 43 83 114 136 64 47 122 71 246 103 103 26 112 27 119 16z"/>
<path d="M9965 3833 c-300 -19 -431 -45 -564 -110 -167 -83 -292 -232 -345
-412 -39 -134 -2 -314 81 -393 56 -54 150 -76 239 -58 110 23 296 118 343 174
26 31 29 15 9 -51 -43 -143 -116 -241 -217 -290 -52 -26 -65 -28 -171 -27 -88
1 -134 6 -195 24 -44 13 -93 23 -110 24 l-29 1 -23 -115 c-12 -63 -19 -118
-15 -121 9 -8 100 -26 189 -39 190 -27 396 2 523 72 99 55 175 124 235 212 47
68 63 104 91 202 33 110 52 194 74 319 5 28 21 115 35 195 14 80 39 195 55
256 17 61 30 118 30 127 0 15 -12 17 -92 15 -51 -1 -115 -3 -143 -5z m-112
-179 c12 -4 13 -12 2 -52 -7 -26 -30 -110 -50 -187 -43 -161 -70 -220 -124
-273 -70 -68 -192 -92 -259 -52 -86 52 -94 224 -18 354 48 82 197 164 361 199
39 9 71 16 72 16 1 1 8 -2 16 -5z"/>
<path d="M10403 3803 c-26 -61 -30 -72 -72 -203 -141 -439 -155 -600 -62 -697
42 -44 81 -57 171 -57 64 0 101 5 150 23 83 29 183 83 237 127 23 19 45 34 49
34 4 0 4 -29 2 -65 -3 -36 -2 -67 2 -70 4 -3 61 -9 126 -15 102 -9 120 -8 130
4 6 8 18 64 28 123 29 182 71 351 156 628 29 94 55 178 57 188 5 16 -5 17
-137 15 l-143 -3 -13 -40 c-6 -22 -21 -74 -33 -115 -45 -158 -121 -379 -156
-451 -41 -86 -68 -115 -141 -153 -149 -77 -268 -22 -248 113 7 48 62 240 140
488 25 79 42 147 39 153 -4 6 -60 10 -136 10 l-129 0 -17 -37z"/>
<path d="M11573 3832 c-7 -4 -21 -48 -32 -97 -61 -270 -142 -567 -196 -718
-19 -54 -35 -105 -35 -113 0 -12 22 -14 143 -12 l142 3 3 464 c1 256 -1 468
-5 472 -5 5 -14 5 -20 1z"/>
<path d="M11354 2616 c-3 -7 -4 -114 -2 -237 3 -190 6 -229 21 -259 22 -45 76
-101 113 -119 16 -7 37 -17 46 -22 10 -5 29 -9 43 -9 l26 0 -6 318 c-4 174 -8
323 -10 330 -6 18 -224 17 -231 -2z"/>
</g>
</svg>
