<?xml version="1.0" standalone="no"?>
<!DOCTYPE svg PUBLIC "-//W3C//DTD SVG 20010904//EN"
 "http://www.w3.org/TR/2001/REC-SVG-20010904/DTD/svg10.dtd">
<svg version="1.0" xmlns="http://www.w3.org/2000/svg"
 width="1200.000000pt" height="660.000000pt" viewBox="0 0 1200.000000 660.000000"
 preserveAspectRatio="xMidYMid meet">
<metadata>
Created by potrace 1.13, written by Peter Selinger 2001-2015
</metadata>
<g transform="translate(0.000000,660.000000) scale(0.100000,-0.100000)"
fill="#000000" stroke="none">
<path d="M4976 5142 c-3 -5 -8 -29 -12 -53 -4 -24 -13 -58 -21 -76 -14 -30
-16 -31 -96 -37 -99 -6 -231 -29 -332 -56 -22 -6 -56 -15 -75 -19 -55 -13 -87
-28 -93 -45 -4 -9 -15 -16 -26 -16 -11 0 -23 -4 -26 -10 -3 -5 -15 -10 -25
-10 -17 0 -62 -18 -168 -69 -19 -9 -38 -24 -44 -34 -5 -10 -26 -26 -46 -35
-57 -26 -129 -79 -218 -159 -45 -40 -88 -73 -97 -73 -9 0 -18 -9 -22 -19 -3
-11 -38 -50 -78 -88 -40 -38 -84 -87 -100 -109 -15 -22 -43 -57 -62 -78 -19
-21 -35 -42 -35 -46 0 -4 -9 -15 -20 -25 -11 -10 -20 -24 -20 -30 0 -7 -7 -18
-15 -25 -17 -14 -45 -67 -45 -85 0 -6 -16 -30 -35 -52 -19 -23 -35 -46 -35
-52 0 -6 -13 -37 -30 -69 -16 -33 -30 -65 -30 -71 0 -26 -40 -124 -56 -135 -9
-7 -18 -23 -19 -37 -2 -13 -10 -58 -18 -99 -70 -347 -72 -543 -12 -900 11 -64
28 -115 45 -130 9 -8 27 -43 39 -77 38 -108 60 -150 106 -204 25 -29 45 -58
45 -65 0 -33 166 -213 237 -256 29 -18 53 -38 53 -44 0 -12 76 -65 115 -81 40
-16 85 -48 85 -59 0 -7 17 -18 38 -24 20 -6 57 -19 82 -29 72 -29 176 -61 200
-61 13 0 24 -8 27 -19 3 -13 18 -21 46 -26 23 -3 65 -11 92 -16 114 -20 256
-34 355 -33 95 0 274 16 325 28 11 3 41 8 68 11 30 4 57 15 74 31 15 13 38 24
54 24 15 0 38 4 51 9 13 5 50 17 83 26 33 9 86 27 118 41 32 13 64 24 71 24 8
0 19 7 26 15 13 16 115 75 129 75 16 0 117 63 193 120 40 31 85 62 100 69 15
8 30 21 33 30 5 17 99 102 122 111 8 3 31 28 51 55 21 28 52 59 69 70 18 11
39 34 47 51 20 41 97 144 108 144 4 0 15 18 24 40 9 22 19 40 24 40 4 0 15 19
25 43 27 65 45 99 75 137 15 19 30 46 33 60 3 14 21 68 40 120 18 52 39 124
47 160 7 36 21 76 30 90 25 36 33 132 34 425 0 264 -9 372 -37 404 -8 9 -17
30 -21 46 -4 17 -11 49 -16 72 -5 23 -21 65 -35 92 -14 28 -25 59 -25 71 0 11
-18 39 -40 62 -22 24 -40 50 -40 59 0 26 -59 108 -145 204 -45 50 -87 100 -94
113 -6 12 -17 22 -24 22 -7 0 -35 19 -62 41 -28 23 -62 46 -77 51 -16 6 -28
16 -28 23 0 19 -109 85 -141 85 -10 0 -21 5 -24 10 -3 6 -13 10 -21 10 -8 0
-14 -4 -14 -10 0 -5 6 -10 14 -10 8 0 16 -7 20 -15 3 -8 12 -15 21 -15 10 0
15 -9 15 -26 0 -19 -4 -25 -15 -20 -8 3 -22 9 -30 12 -13 5 -16 -1 -15 -27 1
-19 -1 -43 -5 -54 -5 -16 0 -24 19 -35 14 -7 26 -19 26 -26 0 -8 12 -21 28
-31 15 -10 30 -22 34 -27 12 -17 -10 -33 -40 -28 -23 3 -30 -1 -35 -17 -6 -23
-27 -27 -59 -10 -37 20 -31 0 16 -56 43 -49 51 -75 26 -75 -5 0 -30 14 -55 31
-51 35 -75 31 -31 -4 33 -26 32 -60 0 -65 -19 -3 -21 -8 -17 -46 3 -26 1 -46
-6 -50 -22 -14 -10 -45 37 -92 50 -51 122 -137 122 -146 0 -3 15 -21 33 -40
17 -19 37 -45 44 -59 60 -127 64 -154 24 -154 -18 0 -30 13 -57 64 -19 35 -40
69 -48 75 -19 14 -86 104 -86 114 0 11 -54 62 -65 62 -5 0 -19 10 -32 22 -13
12 -23 16 -23 10 0 -6 20 -28 45 -49 25 -20 45 -41 45 -47 0 -5 16 -28 35 -52
20 -24 42 -58 50 -77 8 -19 30 -53 50 -77 44 -53 44 -85 0 -85 -26 0 -34 9
-77 80 -27 44 -52 86 -56 94 -11 19 -39 37 -47 29 -8 -8 17 -61 36 -75 20 -15
65 -107 74 -153 4 -19 11 -39 15 -45 31 -43 50 -449 22 -477 -7 -7 -12 -28
-12 -47 0 -19 -9 -62 -20 -95 -11 -34 -25 -77 -31 -96 -6 -19 -24 -52 -40 -72
-16 -20 -29 -40 -29 -44 0 -3 -18 -33 -40 -65 -22 -32 -40 -65 -40 -72 0 -15
-41 -57 -56 -57 -13 0 -94 -83 -94 -96 0 -15 -39 -48 -74 -62 -15 -7 -54 -32
-85 -56 -64 -49 -171 -106 -200 -106 -11 0 -22 -4 -26 -10 -11 -18 -130 -47
-235 -57 -30 -3 -63 -12 -73 -21 -26 -23 -197 -24 -223 -1 -11 10 -45 19 -79
22 -97 10 -149 22 -206 49 -30 14 -71 33 -93 42 -62 27 -236 177 -236 203 0 7
-11 20 -25 29 -31 20 -72 91 -92 157 -8 29 -22 66 -32 82 -48 86 -65 248 -46
458 4 48 12 90 16 93 5 3 9 14 9 24 0 11 8 34 18 52 10 18 26 60 35 93 21 70
64 159 90 182 9 9 17 20 17 25 0 8 83 113 101 128 4 3 9 15 13 28 4 12 22 28
39 36 18 7 62 40 98 72 65 57 159 112 266 153 29 11 77 34 107 50 30 16 72 31
93 34 21 3 52 9 70 12 26 6 32 4 38 -15 4 -12 2 -27 -4 -33 -12 -12 -15 -89
-4 -100 3 -4 20 2 37 12 17 10 42 21 56 24 14 4 44 22 67 42 23 19 47 35 53
35 7 0 24 8 38 19 35 24 112 61 129 61 7 0 17 9 23 20 12 23 80 60 109 60 11
0 22 4 25 9 8 13 132 71 150 71 9 0 16 5 16 10 0 14 89 70 111 70 33 0 30 20
-5 41 -19 11 -38 30 -42 42 -8 27 -83 107 -101 107 -7 0 -24 17 -37 38 -30 46
-73 88 -117 111 -19 10 -35 27 -37 38 -3 21 -86 105 -115 116 -10 4 -20 14
-24 23 -3 10 -31 43 -62 75 -55 56 -94 79 -105 61z"/>
<path d="M6999 4816 c-2 -2 -4 -737 -4 -1633 l0 -1628 78 0 c42 0 518 2 1056
3 773 2 980 5 983 15 2 6 2 225 0 485 l-4 472 -528 0 c-462 0 -529 2 -540 15
-10 13 -12 241 -9 1143 l4 1127 -516 3 c-283 1 -517 0 -520 -2z"/>
<path d="M440 4794 c-13 -4 -15 -192 -13 -1620 l1 -1616 24 -12 c17 -9 137
-12 464 -12 370 1 444 3 458 16 17 13 18 44 11 496 -6 398 -5 483 6 489 7 5
54 8 104 7 123 -3 483 24 575 43 41 8 98 19 125 24 68 13 146 40 167 58 21 19
115 63 134 63 7 0 44 32 81 70 37 39 73 70 79 70 6 0 16 10 22 23 7 12 16 29
21 37 5 8 24 45 41 83 18 37 37 67 41 67 5 0 9 11 9 24 0 14 5 28 10 31 6 3
10 17 10 30 0 13 4 26 9 29 5 3 12 25 15 48 4 24 12 75 18 113 14 93 15 530 2
625 -7 41 -19 92 -28 114 -9 21 -16 50 -16 63 0 14 -11 38 -25 55 -14 16 -28
42 -31 56 -8 36 -23 69 -56 119 -15 23 -28 46 -28 52 0 6 -6 11 -12 11 -7 0
-22 13 -32 28 -11 16 -32 37 -48 48 -16 10 -34 30 -41 44 -7 14 -21 26 -32 29
-11 2 -31 11 -45 21 -14 9 -62 32 -107 50 -45 17 -89 41 -99 51 -9 10 -28 19
-42 19 -24 0 -73 13 -117 31 -11 4 -47 11 -80 15 -66 7 -1551 14 -1575 8z
m1160 -608 c85 -17 112 -25 122 -39 3 -6 26 -20 49 -31 51 -25 97 -85 112
-147 15 -65 21 -490 7 -574 -6 -38 -21 -90 -33 -115 -26 -53 -81 -110 -106
-110 -10 0 -33 -8 -52 -17 -35 -18 -253 -34 -301 -23 l-23 6 -3 519 c-1 286 0
526 3 533 6 17 130 16 225 -2z"/>
<path d="M9276 4784 c-11 -28 -7 -824 4 -845 10 -18 27 -19 520 -19 l508 0 4
433 c2 237 2 435 0 440 -2 4 -234 7 -517 7 -458 0 -514 -2 -519 -16z"/>
<path d="M9776 3700 l-478 -5 1 -1065 1 -1065 488 -7 c268 -3 495 -4 505 -1
16 4 17 64 17 1069 l0 1064 -26 10 c-14 6 -26 9 -27 8 -1 -2 -217 -5 -481 -8z"/>
<path d="M11153 2002 c-11 -11 -13 -58 -11 -230 l3 -217 65 0 65 0 1 73 c1 40
4 75 7 78 3 3 19 -9 35 -26 25 -29 32 -32 65 -26 27 5 39 14 49 37 12 28 13
26 18 -53 l5 -83 65 0 65 0 5 219 c6 248 6 246 -66 246 -36 0 -50 -5 -69 -26
-14 -15 -25 -35 -25 -45 0 -10 -4 -21 -10 -24 -5 -3 -10 -15 -10 -26 0 -10 -6
-19 -14 -19 -7 0 -16 -9 -19 -21 -8 -32 -30 -18 -43 28 -20 68 -44 104 -79
119 -40 16 -83 15 -102 -4z"/>
<path d="M10567 2004 c-12 -12 -8 -71 6 -82 7 -6 42 -12 77 -14 l65 -3 3 -164
c1 -101 7 -170 13 -178 15 -17 105 -17 116 0 4 6 7 83 6 169 -1 181 -1 182 77
175 43 -4 54 -1 71 16 13 14 19 32 17 52 l-3 30 -221 3 c-121 1 -223 -1 -227
-4z"/>
</g>
</svg>
