<?xml version="1.0" standalone="no"?>
<!DOCTYPE svg PUBLIC "-//W3C//DTD SVG 20010904//EN"
 "http://www.w3.org/TR/2001/REC-SVG-20010904/DTD/svg10.dtd">
<svg version="1.0" xmlns="http://www.w3.org/2000/svg"
 width="1200.000000pt" height="660.000000pt" viewBox="0 0 1200.000000 660.000000"
 preserveAspectRatio="xMidYMid meet">
<metadata>
Created by potrace 1.13, written by Peter Selinger 2001-2015
</metadata>
<g transform="translate(0.000000,660.000000) scale(0.100000,-0.100000)"
fill="#000000" stroke="none">
<path d="M11548 4545 c-15 -8 -29 -24 -33 -35 -3 -11 -12 -20 -18 -20 -7 0
-43 -29 -82 -64 -40 -36 -76 -61 -85 -59 -8 2 -26 -7 -39 -21 -14 -14 -29 -26
-34 -26 -5 0 -16 -8 -23 -17 -12 -17 -15 -17 -44 -1 -36 21 -55 13 -103 -39
-36 -41 -52 -41 -72 -3 -9 17 -18 30 -22 30 -17 0 -94 -68 -99 -87 -3 -13 -12
-23 -20 -23 -8 0 -23 -6 -34 -12 -17 -11 -26 -10 -51 4 l-30 18 -44 -41 c-25
-23 -45 -50 -45 -61 0 -10 -11 -29 -23 -41 -13 -12 -29 -32 -36 -44 -15 -28
-25 -29 -50 -2 l-19 21 -25 -38 c-24 -39 -38 -88 -37 -133 0 -13 -6 -31 -12
-39 -7 -8 -13 -47 -14 -86 -2 -68 0 -75 35 -126 21 -30 79 -91 128 -135 50
-44 93 -86 97 -93 9 -20 -15 -50 -54 -69 -26 -12 -75 -18 -192 -22 -86 -3
-158 -8 -160 -11 -5 -6 -165 -217 -257 -337 -34 -46 -67 -83 -72 -83 -5 0 -9
211 -9 520 0 410 -3 520 -12 519 -7 0 -74 -30 -148 -67 l-135 -67 3 -840 c1
-462 6 -843 11 -848 4 -4 68 -6 142 -5 l134 3 5 243 c3 133 9 242 13 242 5 1
66 -97 138 -215 71 -119 138 -230 150 -246 l20 -29 190 0 c118 0 189 4 189 10
0 5 -98 157 -218 337 -120 181 -222 334 -226 340 -4 8 49 80 146 195 211 254
240 282 350 354 90 59 158 127 158 159 0 7 9 20 20 30 11 10 20 22 20 27 0 16
43 68 56 68 7 0 22 14 34 30 16 23 29 30 54 30 17 0 37 5 43 11 6 6 40 12 76
14 l66 4 3 -32 c2 -26 7 -32 28 -33 14 0 36 -4 49 -8 14 -5 33 -3 47 5 22 11
26 10 40 -9 24 -35 82 -30 121 11 43 44 52 84 24 103 -27 20 -27 45 3 73 15
14 22 29 19 45 -3 13 0 27 6 30 21 14 12 56 -14 68 -24 11 -25 15 -19 57 4 25
9 50 12 55 3 5 6 23 8 39 1 22 -3 31 -18 35 -18 4 -19 10 -13 51 4 25 8 64 9
86 1 22 6 48 10 58 5 10 4 23 -3 31 -9 10 -7 16 4 26 11 9 15 30 14 74 -1 34
3 73 9 87 16 41 4 48 -40 24z"/>
<path d="M8710 3822 l-135 -67 3 -839 c2 -462 5 -843 8 -848 6 -9 244 -11 268
-2 15 6 17 34 16 248 -1 154 2 241 9 241 5 0 69 -99 142 -220 72 -121 140
-232 151 -247 l19 -28 184 0 c101 0 186 4 189 8 3 5 -68 118 -158 253 -89 134
-190 288 -225 342 l-63 97 153 183 c84 100 179 212 212 249 32 37 56 72 52 78
-4 6 -65 10 -160 10 -122 0 -157 -3 -168 -15 -8 -8 -75 -94 -148 -191 -165
-219 -174 -229 -185 -222 -5 4 -7 210 -4 510 3 276 3 509 1 516 -5 19 -19 15
-161 -56z"/>
<path d="M2305 3769 c-126 -30 -223 -72 -310 -134 -84 -59 -205 -189 -253
-271 -172 -290 -158 -727 33 -1014 178 -268 544 -398 875 -312 287 75 464 209
575 437 68 137 87 221 92 410 4 135 2 174 -15 251 -59 268 -197 458 -404 558
-141 69 -223 86 -403 85 -82 -1 -168 -5 -190 -10z m260 -213 c140 -37 265
-145 334 -288 59 -124 72 -183 78 -354 7 -184 -10 -280 -67 -399 -85 -177
-235 -275 -417 -275 -242 0 -427 167 -504 455 -31 115 -31 346 -1 460 59 219
188 364 359 404 58 14 162 12 218 -3z"/>
<path d="M447 3751 l-69 -6 -1 -840 -2 -840 162 -3 163 -2 2 732 3 733 135 0
c200 0 269 -33 326 -157 27 -59 29 -71 29 -193 0 -115 -3 -136 -24 -182 -24
-55 -83 -116 -129 -135 -15 -6 -56 -16 -92 -22 l-65 -12 -52 -99 c-29 -55 -52
-106 -53 -112 0 -19 201 -17 298 2 283 56 456 277 455 580 0 294 -140 491
-390 551 -43 10 -131 13 -343 12 -157 -1 -316 -4 -353 -7z"/>
<path d="M3582 3753 l-82 -4 2 -842 3 -842 155 0 155 0 3 733 2 734 143 -4
c132 -3 146 -5 200 -32 108 -52 151 -144 152 -321 0 -213 -70 -311 -245 -340
l-65 -11 -52 -99 c-29 -55 -52 -106 -53 -114 0 -19 262 -9 345 14 197 55 340
202 391 405 23 89 15 301 -14 380 -68 190 -177 292 -359 336 -55 13 -435 17
-681 7z"/>
<path d="M5170 3751 l-75 -6 0 -840 0 -840 160 0 160 0 -3 715 c-2 393 0 723
3 733 6 15 22 17 124 17 68 0 138 -6 169 -14 144 -39 211 -166 200 -382 -9
-183 -92 -282 -255 -302 l-58 -7 -52 -105 c-28 -57 -49 -108 -47 -112 9 -14
213 -8 292 8 218 44 374 185 438 399 22 73 25 263 5 345 -7 30 -30 92 -52 136
-61 129 -163 209 -315 248 -50 13 -115 16 -340 14 -154 -1 -313 -4 -354 -7z"/>
<path d="M11125 3590 c-3 -5 -18 -10 -32 -10 -16 0 -41 -16 -72 -47 -52 -52
-151 -186 -151 -204 0 -6 11 -8 28 -5 15 3 47 8 72 11 108 16 251 59 345 104
98 48 154 90 124 92 -8 1 -18 2 -24 4 -5 1 -45 3 -88 3 -71 2 -80 4 -109 32
-31 30 -80 41 -93 20z"/>
<path d="M6613 3300 c-102 -19 -283 -94 -283 -118 0 -13 71 -186 80 -195 4 -5
27 5 51 22 110 77 299 76 340 -1 7 -12 14 -64 17 -115 5 -107 9 -104 -113
-123 -134 -21 -280 -61 -340 -93 -115 -62 -152 -148 -142 -333 7 -155 53 -242
151 -288 91 -43 179 -32 370 46 68 28 101 37 104 29 17 -50 96 -101 157 -101
67 0 259 73 271 103 5 13 -40 132 -58 154 -5 7 -23 9 -44 6 -25 -4 -40 -1 -54
12 -20 18 -20 30 -18 384 3 365 3 366 -21 425 -31 76 -93 138 -169 166 -66 25
-215 35 -299 20z m205 -833 l3 -128 -38 -16 c-64 -26 -166 -38 -213 -24 -50
15 -70 50 -70 126 0 82 19 111 84 130 86 25 179 44 206 42 l25 -2 3 -128z"/>
<path d="M8015 3303 c-84 -17 -195 -72 -277 -135 -43 -33 -50 -27 -47 42 2 27
0 52 -3 55 -7 7 -288 -132 -289 -143 -1 -4 -2 -239 -4 -522 -2 -346 0 -519 7
-527 15 -18 287 -18 289 0 1 6 0 188 -1 403 -1 216 1 401 5 413 8 25 109 96
166 117 87 30 172 11 201 -45 10 -20 14 -126 18 -461 l5 -435 141 -3 c108 -2
143 1 146 10 3 7 2 234 -2 503 -6 479 -7 491 -29 548 -53 134 -189 210 -326
180z"/>
<path d="M10928 3199 c-104 -52 -139 -74 -143 -91 -3 -13 -4 -252 -3 -533 l3
-510 148 -3 147 -3 0 600 c0 330 -3 602 -7 604 -5 3 -70 -26 -145 -64z"/>
</g>
</svg>
