<?xml version="1.0" standalone="no"?>
<!DOCTYPE svg PUBLIC "-//W3C//DTD SVG 20010904//EN"
 "http://www.w3.org/TR/2001/REC-SVG-20010904/DTD/svg10.dtd">
<svg version="1.0" xmlns="http://www.w3.org/2000/svg"
 width="1200.000000pt" height="660.000000pt" viewBox="0 0 1200.000000 660.000000"
 preserveAspectRatio="xMidYMid meet">
<metadata>
Created by potrace 1.13, written by Peter Selinger 2001-2015
</metadata>
<g transform="translate(0.000000,660.000000) scale(0.100000,-0.100000)"
fill="#000000" stroke="none">
<path d="M5255 4410 c-55 -15 -108 -31 -117 -35 -21 -8 -31 -39 -58 -180 -12
-60 -24 -118 -26 -127 -5 -16 -20 -18 -123 -18 -83 0 -122 -4 -129 -12 -5 -7
-20 -46 -32 -87 -18 -60 -19 -75 -8 -83 7 -5 56 -6 108 -3 104 6 125 -1 118
-36 -10 -43 -100 -432 -124 -534 -48 -199 -75 -368 -69 -420 14 -111 71 -178
180 -210 64 -18 264 -20 348 -4 53 11 57 14 67 48 19 67 34 150 28 156 -3 3
-17 1 -32 -5 -36 -13 -159 -13 -207 1 -21 7 -49 23 -61 36 -21 23 -23 33 -22
132 1 60 8 137 17 172 8 35 25 107 36 159 12 52 26 113 31 135 5 22 16 72 25
110 8 39 26 115 38 170 l24 100 147 3 147 3 15 36 c9 19 16 61 17 92 l2 56
-138 1 c-76 1 -140 4 -143 7 -3 2 14 78 37 168 22 90 42 171 43 179 2 23 -30
21 -139 -10z"/>
<path d="M7936 4104 c-73 -20 -143 -57 -224 -119 -39 -30 -74 -55 -77 -55 -4
0 -3 27 1 60 l7 60 -196 0 c-108 0 -198 -4 -201 -8 -4 -7 -19 -98 -47 -291 -5
-35 -22 -119 -38 -185 -16 -67 -34 -148 -40 -181 -7 -33 -16 -76 -21 -95 -5
-19 -14 -62 -20 -95 -7 -33 -16 -73 -21 -90 -8 -28 -17 -69 -38 -170 -19 -90
-50 -227 -72 -320 -16 -64 -27 -117 -38 -170 -5 -27 -14 -63 -19 -80 -16 -49
-34 -137 -35 -175 l-2 -35 207 -3 206 -2 10 32 c5 18 15 58 21 88 9 49 46 223
71 335 4 22 14 67 20 100 23 118 34 155 45 155 6 0 19 -16 30 -36 37 -68 136
-139 230 -163 87 -23 231 -12 366 28 94 28 220 136 295 251 75 116 108 202
145 374 20 92 18 387 -4 459 -40 139 -91 221 -171 272 -111 71 -263 94 -390
59z m28 -251 c54 -9 115 -71 140 -141 18 -51 18 -58 2 -180 -26 -194 -43 -256
-108 -387 -46 -93 -107 -165 -159 -188 -136 -58 -230 -33 -303 83 -35 54 -49
208 -31 325 17 109 24 144 35 170 98 242 240 349 424 318z"/>
<path d="M2650 4088 c-19 -5 -49 -13 -66 -19 -17 -5 -38 -9 -48 -9 -25 0 -103
-42 -166 -89 -135 -100 -243 -286 -290 -501 -7 -30 -16 -66 -21 -80 -30 -94
-14 -303 33 -420 52 -131 159 -234 278 -269 25 -7 58 -17 74 -22 40 -12 332
-11 373 1 18 6 50 15 71 21 128 37 244 125 331 252 65 96 142 280 174 417 38
163 29 345 -22 453 -57 120 -191 222 -345 262 -65 17 -318 19 -376 3z m305
-183 c108 -29 175 -107 196 -230 11 -63 9 -88 -15 -240 -33 -212 -68 -316
-139 -410 -62 -81 -104 -118 -182 -158 -77 -39 -84 -41 -175 -41 -105 -1 -150
15 -202 71 -59 63 -73 107 -76 248 -6 205 22 339 101 489 58 108 129 184 218
231 39 20 83 41 98 45 43 13 113 11 176 -5z"/>
<path d="M3950 4089 c-129 -34 -205 -75 -269 -144 -68 -74 -96 -144 -96 -240
0 -65 5 -90 26 -135 42 -89 135 -168 274 -234 206 -98 269 -132 304 -166 108
-105 59 -247 -102 -295 -76 -23 -203 -30 -268 -15 -87 20 -108 36 -136 97 -22
48 -25 65 -20 119 l6 64 -123 0 c-98 0 -126 -3 -136 -15 -18 -22 -25 -144 -10
-203 17 -74 61 -137 122 -176 164 -104 388 -124 652 -57 132 33 276 144 321
246 48 108 28 245 -50 340 -40 49 -165 135 -265 183 -36 16 -109 51 -162 76
-60 29 -104 56 -115 72 -10 17 -18 53 -20 102 -4 64 -1 82 16 109 60 95 261
132 382 70 51 -26 76 -67 87 -140 l7 -52 125 0 125 0 0 76 c-1 162 -100 271
-285 315 -63 15 -335 17 -390 3z"/>
<path d="M6155 4088 c-192 -48 -283 -98 -377 -209 -76 -91 -159 -272 -197
-434 -7 -27 -17 -68 -23 -90 -23 -87 -11 -283 22 -370 58 -152 179 -255 354
-300 63 -17 270 -21 308 -6 13 5 48 14 78 21 115 26 266 112 333 190 47 55 96
149 99 191 l3 34 -144 0 -145 0 -25 -50 c-41 -79 -107 -139 -178 -158 -75 -21
-193 -22 -262 -1 -60 18 -125 75 -156 139 -25 50 -32 194 -15 276 l13 59 483
0 483 0 13 23 c9 15 14 82 16 218 3 187 2 198 -19 245 -46 97 -168 187 -294
215 -66 15 -319 20 -370 7z m266 -168 c52 -15 139 -88 160 -134 19 -41 27
-182 13 -233 l-6 -23 -344 0 -344 0 0 30 c0 46 43 153 84 209 58 79 131 130
226 157 47 14 152 11 211 -6z"/>
<path d="M9250 4080 c-71 -9 -213 -52 -285 -86 -102 -49 -189 -157 -208 -261
-5 -26 -2 -35 13 -43 10 -6 94 -10 193 -10 196 0 195 -1 218 78 22 74 67 102
164 102 54 0 108 -21 143 -56 l35 -35 -6 -77 c-3 -42 -10 -93 -16 -112 l-11
-35 -197 -1 c-205 -2 -284 -12 -423 -55 -78 -24 -101 -34 -160 -73 -135 -87
-190 -185 -190 -337 0 -261 164 -429 418 -429 127 0 238 43 333 129 31 27 59
47 63 44 3 -3 6 -39 6 -80 l0 -73 213 2 212 3 7 105 c7 110 19 195 37 270 6
25 14 61 17 80 3 19 9 46 14 60 4 14 13 52 20 85 7 33 18 80 25 105 32 113 40
172 39 290 0 115 -3 130 -28 182 -51 107 -148 174 -307 212 -76 18 -261 27
-339 16z m190 -749 c0 -103 -52 -230 -126 -307 -57 -58 -95 -79 -173 -95 -67
-14 -125 -1 -169 36 -55 46 -63 176 -17 243 27 37 123 102 188 127 51 19 83
23 180 24 l117 1 0 -29z"/>
<path d="M1435 4070 c-11 -4 -40 -14 -65 -21 -60 -17 -153 -71 -218 -126 l-53
-46 3 94 3 94 -112 3 c-130 3 -127 5 -137 -98 -11 -103 -26 -198 -47 -290 -11
-47 -24 -103 -29 -125 -13 -56 -34 -149 -70 -300 -16 -71 -42 -179 -56 -240
-13 -60 -33 -146 -44 -190 -11 -44 -33 -138 -50 -210 -75 -316 -92 -381 -100
-402 -20 -48 -8 -53 131 -53 155 0 145 -9 183 170 15 69 31 145 37 170 6 25
15 65 20 90 6 25 14 61 19 80 5 19 14 62 21 95 7 33 16 64 20 69 5 6 35 -16
72 -51 98 -94 200 -133 352 -133 233 0 420 105 559 314 47 71 96 180 124 276
13 41 27 89 32 105 5 17 13 89 16 160 5 104 3 143 -10 194 -45 174 -157 307
-306 361 -43 16 -78 20 -165 19 -60 0 -119 -4 -130 -9z m181 -179 c44 -20 104
-84 137 -146 16 -31 22 -63 25 -145 6 -156 -23 -279 -103 -445 -85 -175 -169
-255 -303 -289 -172 -43 -305 4 -376 134 l-28 52 4 157 5 156 42 90 c23 50 48
104 56 120 61 135 72 154 129 210 37 37 86 73 126 92 58 28 75 32 155 32 67 0
100 -4 131 -18z"/>
<path d="M11157 4066 c-14 -14 -58 -90 -203 -351 -42 -77 -116 -210 -164 -295
-48 -85 -100 -177 -115 -205 -33 -60 -46 -77 -53 -70 -3 2 -9 41 -13 85 -5 44
-13 116 -19 160 -21 172 -29 237 -35 285 -3 28 -10 82 -15 120 -5 39 -14 108
-21 155 -17 130 1 120 -217 120 -103 0 -193 -4 -201 -9 -15 -10 -11 -37 45
-331 13 -69 28 -150 34 -180 5 -30 16 -89 24 -130 8 -41 27 -142 41 -225 14
-82 35 -202 46 -265 11 -63 25 -147 31 -186 l11 -70 -72 -105 c-39 -57 -108
-158 -153 -224 -45 -66 -88 -126 -95 -133 -7 -7 -13 -22 -13 -33 0 -19 8 -19
226 -17 l227 3 16 30 c9 17 47 86 85 155 38 69 80 145 94 170 14 25 46 81 71
125 25 44 51 88 56 97 6 10 32 55 60 100 228 382 361 605 364 613 2 6 12 21
21 35 10 14 27 41 37 60 39 69 266 446 285 473 38 54 28 57 -181 57 -150 0
-193 -3 -204 -14z"/>
</g>
</svg>
