<?xml version="1.0" standalone="no"?>
<!DOCTYPE svg PUBLIC "-//W3C//DTD SVG 20010904//EN"
 "http://www.w3.org/TR/2001/REC-SVG-20010904/DTD/svg10.dtd">
<svg version="1.0" xmlns="http://www.w3.org/2000/svg"
 width="1200.000000pt" height="660.000000pt" viewBox="0 0 1200.000000 660.000000"
 preserveAspectRatio="xMidYMid meet">
<metadata>
Created by potrace 1.13, written by Peter Selinger 2001-2015
</metadata>
<g transform="translate(0.000000,660.000000) scale(0.100000,-0.100000)"
fill="#000000" stroke="none">
<path d="M2370 5739 c-238 -36 -432 -95 -645 -198 -1106 -533 -1567 -1853
-1031 -2956 260 -533 725 -941 1287 -1129 355 -118 607 -136 1196 -85 180 16
329 22 543 23 271 1 304 -1 403 -22 354 -75 674 -239 1002 -516 33 -28 62 -54
63 -58 2 -5 21 -8 42 -8 29 0 42 5 50 20 15 28 4 56 -44 115 -266 324 -560
543 -897 669 -125 46 -228 75 -424 121 -305 70 -493 147 -667 272 -159 114
-326 303 -438 495 -25 43 -51 80 -58 83 -26 10 -34 -47 -28 -185 3 -74 11
-164 16 -199 16 -97 18 -95 -113 -88 -282 16 -526 95 -752 244 -131 87 -318
273 -404 402 -191 288 -278 633 -242 964 96 877 930 1473 1786 1275 562 -130
1013 -603 1109 -1163 20 -114 29 -305 19 -370 l-8 -50 -240 3 c-139 2 -246 -1
-254 -7 -19 -13 -6 -41 19 -41 25 0 153 -34 235 -61 90 -31 234 -114 303 -174
180 -157 288 -350 338 -606 18 -93 26 -108 47 -91 21 18 130 244 172 357 52
139 101 342 121 498 24 193 16 492 -20 677 -59 306 -165 570 -331 819 -221
334 -547 616 -903 783 -158 74 -350 137 -515 169 -226 43 -522 51 -737 18z"/>
<path d="M6480 5100 c-135 -29 -205 -58 -315 -129 -181 -118 -305 -286 -375
-506 -30 -94 -39 -318 -17 -420 60 -280 240 -511 493 -632 141 -67 224 -85
384 -86 162 0 244 19 392 90 l97 46 49 -51 48 -52 208 0 c206 0 246 6 246 35
0 8 -63 87 -140 176 -78 89 -139 164 -138 168 106 198 133 299 132 486 -1 110
-6 157 -23 220 -69 255 -239 463 -476 583 -167 84 -383 111 -565 72z m256
-391 c171 -31 316 -163 371 -339 22 -71 24 -242 2 -285 l-14 -30 -192 -3
c-257 -3 -254 2 -106 -173 40 -48 73 -92 73 -97 0 -6 -26 -21 -57 -33 -82 -32
-213 -32 -305 -1 -173 60 -291 210 -321 408 -21 139 34 310 131 411 115 120
263 170 418 142z"/>
<path d="M7887 5062 c-14 -15 -16 -102 -15 -842 0 -734 2 -827 15 -842 14 -16
37 -18 198 -18 149 0 185 3 195 15 9 11 12 204 12 847 0 789 -1 832 -18 845
-13 10 -64 13 -194 13 -156 0 -179 -2 -193 -18z"/>
<path d="M8457 5062 c-10 -10 -17 -25 -17 -33 0 -8 30 -100 66 -205 36 -104
160 -470 275 -813 115 -343 214 -630 220 -637 9 -11 49 -14 173 -14 88 0 168
4 175 9 8 5 85 223 171 483 86 260 160 473 165 473 9 0 74 -187 240 -694 43
-134 85 -250 93 -257 10 -11 52 -14 176 -14 143 0 165 2 178 18 8 9 88 238
178 507 89 270 211 633 271 807 60 174 109 326 109 337 0 44 -31 51 -235 51
-140 0 -196 -3 -209 -13 -11 -8 -47 -112 -102 -297 -46 -157 -110 -372 -141
-477 -32 -106 -63 -193 -69 -193 -10 0 -93 244 -279 817 -38 119 -50 144 -68
148 -12 3 -85 4 -162 3 l-140 -3 -17 -35 c-10 -19 -84 -237 -165 -484 -82
-247 -152 -449 -157 -450 -5 0 -22 42 -37 94 -15 52 -43 147 -62 210 -18 63
-69 234 -112 380 -53 181 -84 271 -97 283 -18 15 -44 17 -213 17 -173 0 -194
-2 -208 -18z"/>
<path d="M11077 5062 c-16 -17 -17 -90 -17 -848 0 -632 3 -833 12 -842 15 -15
375 -17 398 -2 12 7 14 123 13 846 0 800 -1 838 -18 851 -14 10 -64 13 -195
13 -159 0 -179 -2 -193 -18z"/>
<path d="M5895 2938 c-3 -7 -4 -224 -3 -483 l3 -470 84 -3 c61 -2 87 1 93 10
5 7 8 101 6 208 l-3 195 60 0 59 0 26 -45 c25 -43 64 -114 138 -250 67 -125
61 -120 162 -120 49 0 91 4 95 9 3 6 -3 25 -14 43 -92 162 -181 315 -217 375
-24 40 -44 75 -44 78 0 2 26 49 58 102 32 54 91 153 132 221 47 80 69 127 63
133 -5 5 -48 9 -94 7 l-83 -3 -45 -75 c-24 -41 -74 -127 -111 -190 l-66 -115
-62 -3 -62 -3 -2 193 -3 193 -83 3 c-60 2 -84 -1 -87 -10z"/>
<path d="M6893 2676 c-137 -45 -235 -155 -251 -284 -22 -168 52 -313 196 -384
63 -31 72 -33 177 -33 101 0 115 2 170 29 73 36 142 104 175 171 22 43 25 64
25 155 0 95 -3 110 -27 156 -37 69 -102 133 -174 168 -50 25 -74 30 -154 33
-62 2 -109 -2 -137 -11z m212 -156 c25 -12 55 -38 71 -62 26 -37 29 -49 29
-124 0 -75 -3 -86 -30 -125 -69 -98 -202 -115 -291 -37 -53 47 -68 83 -68 163
0 104 46 172 135 200 53 17 96 13 154 -15z"/>
<path d="M8810 2674 c-69 -25 -124 -68 -164 -128 -133 -201 -53 -474 163 -557
74 -29 213 -29 286 -2 55 21 135 69 135 81 0 16 -61 112 -72 112 -6 0 -36 -12
-66 -27 -132 -65 -264 -29 -313 85 -11 25 -17 47 -15 49 3 3 106 4 229 4 191
-2 226 0 237 14 19 23 8 149 -19 210 -26 59 -81 119 -136 148 -54 28 -200 34
-265 11z m175 -128 c37 -16 75 -68 75 -103 0 -23 -1 -23 -145 -23 -132 0 -145
2 -145 18 0 35 44 86 92 107 43 18 80 19 123 1z"/>
<path d="M10355 2681 c-126 -33 -220 -139 -246 -277 -49 -264 166 -479 434
-435 63 11 147 46 186 78 l23 19 -28 57 c-16 31 -35 57 -43 57 -8 0 -39 -12
-69 -27 -140 -68 -277 -23 -320 105 -10 28 -9 32 6 32 9 1 112 1 227 0 116 0
216 4 224 9 10 6 12 28 9 87 -6 128 -63 225 -162 276 -45 23 -183 34 -241 19z
m167 -142 c25 -13 58 -68 58 -96 0 -23 -1 -23 -145 -23 -132 0 -145 2 -145 18
0 17 22 54 48 81 36 37 132 48 184 20z"/>
<path d="M7535 2668 c-3 -7 -4 -164 -3 -348 l3 -335 455 0 455 0 0 345 0 345
-80 0 -80 0 -3 -267 -2 -268 -105 0 -105 0 -2 268 -3 267 -80 0 -80 0 -3 -268
-2 -268 -103 3 -102 3 -5 265 -5 265 -73 3 c-52 2 -74 -1 -77 -10z"/>
<path d="M9465 2668 c-2 -7 -6 -94 -8 -193 -3 -153 -7 -188 -25 -235 -22 -55
-29 -64 -89 -100 -32 -19 -33 -22 -33 -85 0 -49 4 -67 15 -71 30 -12 105 8
152 39 98 66 141 172 150 375 l6 132 78 0 79 0 2 -272 3 -273 85 0 85 0 0 345
0 345 -248 3 c-193 2 -248 0 -252 -10z"/>
<path d="M10895 2668 c-3 -7 -4 -164 -3 -348 l3 -335 79 -3 c49 -2 83 1 90 8
7 7 11 60 11 138 l0 127 41 3 42 3 70 -113 c112 -180 97 -168 207 -168 52 0
96 4 100 9 3 5 -10 31 -30 58 -70 97 -205 293 -205 299 0 3 47 75 105 161 58
86 105 160 105 165 0 4 -43 8 -95 8 l-94 0 -47 -72 c-26 -40 -62 -99 -81 -130
-29 -50 -38 -58 -63 -58 -17 0 -33 -1 -37 -2 -5 -2 -10 56 -13 127 l-5 130
-88 3 c-64 2 -89 -1 -92 -10z"/>
<path d="M4210 2618 c-47 -49 -4 -198 81 -286 79 -83 129 -62 129 54 0 170
-132 315 -210 232z"/>
<path d="M3741 2257 c-127 -65 -65 -296 94 -350 62 -22 100 -21 150 2 53 24
76 51 82 99 7 56 -11 103 -63 161 -77 85 -193 124 -263 88z"/>
</g>
</svg>
