<?xml version="1.0" standalone="no"?>
<!DOCTYPE svg PUBLIC "-//W3C//DTD SVG 20010904//EN"
 "http://www.w3.org/TR/2001/REC-SVG-20010904/DTD/svg10.dtd">
<svg version="1.0" xmlns="http://www.w3.org/2000/svg"
 width="1200.000000pt" height="660.000000pt" viewBox="0 0 1200.000000 660.000000"
 preserveAspectRatio="xMidYMid meet">
<metadata>
Created by potrace 1.13, written by Peter Selinger 2001-2015
</metadata>
<g transform="translate(0.000000,660.000000) scale(0.100000,-0.100000)"
fill="#000000" stroke="none">
<path d="M6366 4153 c-4 -10 -11 -47 -16 -83 -13 -96 -142 -849 -190 -1108
-12 -63 -19 -116 -16 -119 8 -8 180 -3 187 5 3 4 18 88 33 187 15 99 31 189
36 200 7 18 10 15 25 -20 23 -56 112 -259 140 -322 13 -29 28 -53 32 -53 124
-6 188 -2 191 11 1 8 -29 81 -67 162 -39 81 -80 169 -92 195 -12 26 -27 59
-35 73 -13 26 -10 31 123 185 74 88 153 179 174 203 22 23 39 47 39 52 0 11
-200 12 -215 1 -6 -4 -73 -85 -149 -180 -76 -96 -139 -172 -141 -170 -3 3 42
258 117 663 6 33 12 76 12 95 l1 35 -91 3 c-80 2 -92 0 -98 -15z"/>
<path d="M3720 4101 c-70 -15 -136 -56 -215 -136 -65 -65 -89 -98 -127 -175
-71 -144 -102 -257 -116 -420 -24 -264 43 -428 205 -503 46 -21 62 -22 346
-25 163 -2 297 -2 297 0 1 2 7 39 15 82 8 44 12 83 9 88 -3 4 -50 8 -105 8
l-100 0 54 55 c115 118 197 360 197 579 -1 207 -79 360 -215 422 -57 27 -181
39 -245 25z m156 -210 c120 -73 115 -458 -8 -681 -73 -132 -147 -187 -239
-178 -61 6 -96 30 -129 89 -23 41 -25 53 -24 179 0 139 14 216 63 348 38 102
111 204 176 244 40 24 120 24 161 -1z"/>
<path d="M5374 4101 c-40 -18 -69 -71 -69 -129 0 -46 4 -57 28 -78 44 -38 107
-34 155 10 35 33 37 38 37 95 0 48 -4 65 -21 82 -24 24 -96 35 -130 20z"/>
<path d="M7155 4068 c-3 -7 -23 -120 -45 -250 -58 -347 -118 -688 -156 -887
-13 -70 -14 -85 -3 -92 22 -14 175 -11 187 4 5 6 26 111 46 232 20 121 41 230
46 243 9 20 16 22 87 22 43 0 104 4 136 10 203 33 327 192 327 420 0 149 -61
242 -190 291 -43 16 -77 19 -240 19 -143 0 -192 -3 -195 -12z m379 -197 c36
-34 49 -83 44 -162 -6 -78 -26 -118 -81 -163 -36 -28 -44 -31 -139 -34 l-101
-4 6 23 c3 13 17 96 32 184 15 88 29 166 31 173 3 11 25 13 93 10 78 -3 93 -6
115 -27z"/>
<path d="M9770 4055 c-5 -13 -19 -64 -30 -112 -23 -95 -229 -918 -256 -1021
-23 -90 -22 -92 89 -92 64 0 98 4 105 13 6 6 18 46 27 87 10 41 23 95 30 120
l12 45 153 3 c85 1 157 -1 162 -6 4 -4 19 -59 33 -122 15 -63 30 -119 34 -123
9 -9 208 -13 217 -4 3 3 -37 178 -90 389 -83 336 -113 457 -182 748 -9 36 -18
73 -20 83 -5 15 -20 17 -140 17 -134 0 -135 0 -144 -25z m185 -395 c21 -96 48
-220 60 -275 12 -55 20 -103 18 -107 -2 -5 -60 -8 -129 -8 -114 0 -124 2 -124
18 0 10 22 117 49 238 27 120 54 246 61 278 8 39 15 55 20 45 4 -8 24 -93 45
-189z"/>
<path d="M10479 4078 c0 -2 -1 -279 -1 -616 -1 -519 1 -615 13 -623 16 -10
159 -12 183 -3 14 5 16 37 16 250 l0 244 68 0 c201 0 312 59 380 200 48 101
47 260 -3 365 -29 62 -58 94 -111 129 -71 46 -130 56 -346 56 -109 0 -198 -1
-199 -2z m425 -211 c43 -29 69 -97 64 -171 -8 -130 -73 -189 -203 -184 l-70 3
-3 184 c-1 106 1 187 7 190 21 13 177 -4 205 -22z"/>
<path d="M11338 3473 c-2 -334 1 -616 5 -626 7 -16 20 -17 110 -15 l102 3 0
620 0 620 -107 3 -107 3 -3 -608z"/>
<path d="M1066 3960 c-278 -44 -488 -176 -585 -366 -39 -77 -49 -150 -41 -292
9 -149 39 -214 154 -327 86 -85 181 -141 312 -183 166 -54 417 -56 579 -6 110
34 128 34 235 -2 81 -26 94 -28 270 -28 211 0 281 14 425 83 156 75 277 194
326 321 27 68 37 238 20 322 -65 309 -459 526 -873 480 -62 -7 -150 -25 -200
-42 -83 -26 -92 -27 -124 -14 -115 48 -364 75 -498 54z"/>
<path d="M5862 3739 c-67 -26 -166 -122 -209 -204 -17 -33 -44 -101 -59 -150
-23 -77 -27 -109 -28 -225 -1 -129 1 -137 27 -190 38 -74 72 -108 135 -136 38
-17 71 -24 117 -24 70 0 161 28 188 58 15 17 15 22 -4 72 -36 95 -32 92 -85
68 -35 -15 -57 -18 -89 -14 -73 11 -97 58 -97 186 0 158 73 344 151 384 38 20
101 20 127 1 10 -8 24 -15 31 -15 6 0 33 30 58 67 l47 67 -31 27 c-63 52 -183
64 -279 28z"/>
<path d="M7974 3742 c-62 -22 -132 -63 -159 -92 -15 -17 -17 -24 -7 -38 6 -9
22 -34 34 -54 25 -41 39 -46 57 -24 23 27 100 56 148 56 51 -1 73 -12 91 -47
16 -29 15 -128 0 -140 -7 -5 -41 -10 -76 -12 -124 -5 -245 -52 -304 -120 -73
-83 -108 -236 -74 -325 35 -93 121 -138 230 -122 50 8 121 55 138 91 16 36 26
22 20 -30 l-5 -46 84 3 84 3 3 40 c2 22 23 162 48 310 54 320 55 385 8 462
-42 68 -96 96 -193 100 -54 2 -91 -2 -127 -15z m139 -523 c-3 -61 -43 -151
-88 -198 -37 -39 -47 -44 -87 -45 -65 -1 -83 21 -83 99 0 49 5 69 25 97 40 60
104 88 190 85 l45 -2 -2 -36z"/>
<path d="M4395 3718 c-2 -7 -16 -78 -30 -158 -13 -80 -34 -197 -45 -260 -32
-178 -41 -261 -35 -305 18 -121 85 -185 195 -185 80 0 146 37 202 114 l30 41
-6 -62 -7 -63 90 0 c49 0 92 4 95 8 3 5 12 58 21 118 9 60 41 246 72 414 31
168 56 314 57 325 1 18 -6 20 -90 23 -65 2 -94 -1 -101 -10 -5 -7 -17 -62 -27
-123 -29 -191 -63 -378 -81 -438 -42 -144 -177 -225 -233 -139 -29 44 -21 112
58 532 11 58 21 121 22 140 l3 35 -93 3 c-68 2 -94 -1 -97 -10z"/>
<path d="M5275 3708 c-3 -13 -14 -75 -25 -138 -29 -171 -69 -401 -91 -520 -30
-166 -34 -210 -18 -211 33 -1 174 3 177 5 1 2 16 82 32 177 43 252 89 513 106
596 23 120 29 113 -81 113 -90 0 -95 -1 -100 -22z"/>
<path d="M8493 3673 c4 -32 20 -177 37 -323 17 -146 35 -310 40 -365 6 -55 13
-114 16 -131 5 -25 -3 -51 -34 -116 -54 -110 -78 -133 -145 -134 l-52 0 -17
-65 c-25 -97 -24 -106 18 -119 82 -28 192 9 271 89 55 55 89 120 193 361 18
41 40 93 50 115 139 317 208 473 236 533 19 41 34 75 34 78 0 2 11 28 25 58
14 30 25 60 25 66 0 7 -32 10 -97 8 l-98 -3 -66 -165 c-36 -91 -92 -234 -125
-317 -32 -84 -62 -153 -65 -153 -9 0 -16 83 -29 335 -6 110 -13 224 -16 253
l-5 52 -101 0 -101 0 6 -57z"/>
</g>
</svg>
