<?xml version="1.0" standalone="no"?>
<!DOCTYPE svg PUBLIC "-//W3C//DTD SVG 20010904//EN"
 "http://www.w3.org/TR/2001/REC-SVG-20010904/DTD/svg10.dtd">
<svg version="1.0" xmlns="http://www.w3.org/2000/svg"
 width="1200.000000pt" height="660.000000pt" viewBox="0 0 1200.000000 660.000000"
 preserveAspectRatio="xMidYMid meet">
<metadata>
Created by potrace 1.13, written by Peter Selinger 2001-2015
</metadata>
<g transform="translate(0.000000,660.000000) scale(0.100000,-0.100000)"
fill="#000000" stroke="none">
<path d="M1885 4317 c-110 -72 -318 -208 -463 -302 -223 -145 -263 -175 -273
-202 -28 -86 -78 -288 -71 -295 4 -4 117 65 251 153 135 87 248 159 253 159 5
0 7 -8 4 -17 -3 -10 -39 -146 -80 -303 -93 -352 -153 -578 -212 -784 -26 -92
-41 -163 -36 -168 5 -5 84 -7 177 -6 l168 3 37 145 c89 347 262 993 371 1380
16 58 34 121 39 140 5 19 21 75 35 125 14 49 25 93 25 97 0 20 -39 -1 -225
-125z"/>
<path d="M2326 3958 c-8 -29 -44 -168 -81 -308 -36 -140 -107 -403 -157 -585
-137 -500 -136 -499 -131 -507 8 -14 301 -9 310 5 7 12 49 168 115 427 17 69
35 131 41 138 16 20 253 16 297 -6 55 -27 65 -62 89 -307 12 -121 24 -230 27
-243 4 -22 5 -22 172 -20 l167 3 -1 30 c0 17 -13 127 -28 245 -31 242 -46 289
-108 329 l-37 24 90 44 c156 76 256 199 299 369 11 42 20 96 20 119 0 61 -25
135 -60 177 -39 47 -136 94 -220 108 -36 5 -228 10 -427 10 l-362 0 -15 -52z
m699 -220 c54 -29 69 -54 68 -111 -1 -59 -21 -111 -59 -156 -59 -71 -145 -91
-381 -91 -150 0 -163 1 -163 18 0 19 87 340 97 355 3 5 93 7 207 5 162 -3 207
-6 231 -20z"/>
<path d="M1015 3371 l-430 -276 -27 -105 c-16 -58 -48 -177 -73 -265 -24 -88
-41 -163 -37 -167 5 -5 168 -7 362 -6 l355 3 31 120 c18 66 82 310 144 543 62
233 111 424 109 426 -2 2 -197 -121 -434 -273z"/>
<path d="M3858 3605 c-183 -46 -336 -185 -433 -390 -60 -125 -79 -208 -79
-335 -1 -113 14 -164 70 -237 62 -81 201 -124 334 -104 84 13 195 63 250 111
41 37 48 27 26 -36 -9 -26 -13 -50 -10 -55 9 -15 290 -11 301 4 5 6 17 41 26
77 15 57 176 660 228 854 11 38 19 76 19 83 0 10 -33 13 -150 13 l-149 0 -17
-57 c-22 -79 -23 -79 -51 -36 -32 49 -74 82 -126 101 -59 21 -171 24 -239 7z
m197 -236 c85 -23 121 -88 112 -198 -13 -146 -85 -291 -173 -350 -114 -75
-274 -59 -318 33 -33 69 -12 226 44 335 70 139 211 214 335 180z"/>
<path d="M6250 3609 c-168 -34 -278 -95 -392 -218 -75 -81 -125 -170 -162
-290 -96 -305 14 -514 294 -561 118 -20 284 3 395 55 135 63 263 191 330 330
162 338 87 604 -191 675 -82 21 -195 25 -274 9z m131 -239 c103 -29 131 -143
77 -320 -57 -183 -155 -272 -303 -274 -162 -2 -213 100 -156 309 52 187 160
290 311 294 19 0 51 -4 71 -9z"/>
<path d="M7615 3606 c-68 -17 -139 -53 -192 -100 -24 -21 -46 -36 -49 -34 -2
3 3 24 11 48 26 73 32 70 -135 70 -176 0 -153 19 -200 -165 -17 -66 -76 -284
-131 -485 -54 -201 -99 -371 -99 -378 0 -17 294 -17 307 1 6 6 18 46 28 87 46
193 128 480 151 527 66 136 207 188 399 148 l30 -6 34 123 c19 68 36 129 39
136 6 17 -58 42 -105 41 -21 0 -60 -6 -88 -13z"/>
<path d="M8465 3601 c-81 -24 -151 -61 -207 -111 -52 -45 -55 -44 -33 20 29
83 34 80 -130 80 -141 0 -146 -1 -155 -22 -5 -13 -46 -162 -91 -333 -44 -170
-103 -391 -130 -490 -28 -99 -62 -223 -76 -275 -45 -167 -61 -224 -77 -275
-28 -90 -37 -85 138 -85 89 0 157 4 161 10 3 5 22 71 41 147 70 275 106 408
111 413 3 3 10 -4 17 -15 58 -103 201 -152 357 -121 121 23 201 68 299 166
100 100 141 166 186 298 74 220 62 394 -35 505 -85 96 -231 131 -376 88z m66
-246 c71 -37 93 -135 60 -266 -28 -111 -64 -180 -123 -235 -64 -60 -107 -77
-193 -78 -122 -1 -175 52 -175 174 0 107 44 235 109 317 33 43 105 90 156 102
48 12 128 5 166 -14z"/>
<path d="M9533 3606 c-210 -53 -388 -235 -475 -487 -30 -87 -32 -104 -33 -224
0 -116 3 -136 24 -182 60 -133 208 -201 379 -173 89 14 179 53 239 105 23 19
44 31 47 26 3 -5 -1 -28 -9 -52 -25 -70 -24 -70 141 -67 l147 3 13 40 c7 22
40 146 74 275 34 129 91 340 126 469 35 129 64 238 64 243 0 4 -68 8 -150 8
-170 0 -156 7 -181 -90 -10 -40 -13 -43 -23 -26 -28 48 -80 95 -129 116 -63
28 -179 35 -254 16z m240 -252 c36 -19 63 -64 71 -118 9 -57 -17 -186 -53
-261 -61 -131 -154 -198 -276 -199 -88 -1 -130 21 -163 84 -20 38 -23 55 -18
110 5 61 34 169 58 215 26 50 87 119 129 146 77 49 182 58 252 23z"/>
<path d="M11234 3573 c-14 -16 -49 -62 -78 -103 -29 -41 -103 -147 -166 -235
-63 -88 -130 -183 -149 -212 -20 -29 -41 -52 -47 -53 -10 0 -16 40 -55 375
-10 94 -23 186 -27 205 l-7 35 -162 3 c-90 1 -163 -1 -163 -5 0 -5 18 -111 40
-238 22 -126 59 -343 81 -482 l42 -251 -39 -54 c-51 -70 -157 -215 -244 -333
-38 -52 -70 -99 -70 -105 0 -7 52 -10 162 -8 l162 3 53 75 c30 41 87 122 127
180 83 120 261 373 426 605 63 88 139 195 169 238 31 44 76 107 101 142 25 34
65 91 89 126 25 35 51 70 58 78 30 30 8 36 -136 39 l-141 3 -26 -28z"/>
<path d="M4794 3563 c-4 -16 -15 -59 -25 -98 -31 -116 -54 -105 220 -105 132
0 242 -4 245 -8 5 -9 -38 -47 -419 -375 -126 -109 -233 -204 -237 -211 -8 -14
-58 -191 -58 -205 0 -8 143 -11 455 -11 l455 0 10 25 c18 47 51 196 45 205 -3
5 -118 6 -265 3 -174 -4 -260 -3 -260 4 0 6 152 142 338 302 l337 291 28 99
c15 54 27 101 27 105 0 3 -200 6 -445 6 l-445 0 -6 -27z"/>
</g>
</svg>
