<?xml version="1.0" standalone="no"?>
<!DOCTYPE svg PUBLIC "-//W3C//DTD SVG 20010904//EN"
 "http://www.w3.org/TR/2001/REC-SVG-20010904/DTD/svg10.dtd">
<svg version="1.0" xmlns="http://www.w3.org/2000/svg"
 width="1200.000000pt" height="660.000000pt" viewBox="0 0 1200.000000 660.000000"
 preserveAspectRatio="xMidYMid meet">
<metadata>
Created by potrace 1.13, written by Peter Selinger 2001-2015
</metadata>
<g transform="translate(0.000000,660.000000) scale(0.100000,-0.100000)"
fill="#000000" stroke="none">
<path d="M419 4300 c0 -3 0 -459 -1 -1015 l0 -1010 2121 -3 2121 -2 10 22 c5
13 25 88 46 168 20 80 60 235 90 345 29 110 65 245 79 300 51 192 75 289 86
349 6 34 15 67 21 74 7 8 45 12 125 12 131 0 134 -2 113 -82 -6 -27 -11 -51
-9 -53 2 -2 32 18 66 43 99 75 167 96 298 97 101 0 114 -2 155 -27 58 -34 82
-60 117 -128 26 -51 28 -63 28 -170 -1 -93 -5 -130 -25 -190 -66 -209 -194
-380 -334 -446 -171 -81 -363 -63 -455 41 -18 21 -34 35 -36 33 -7 -7 -105
-356 -105 -373 0 -13 128 -15 1044 -15 l1045 0 21 58 c11 31 23 63 25 71 6 15
11 14 110 -25 61 -25 83 -28 180 -28 92 0 120 4 169 23 71 28 143 95 179 167
29 56 69 175 62 182 -2 2 -25 -14 -51 -36 -60 -54 -115 -85 -194 -112 -85 -29
-223 -25 -286 8 -143 74 -186 280 -108 519 53 163 192 345 305 399 88 43 113
49 219 49 79 0 116 -5 150 -18 50 -21 107 -70 121 -105 10 -25 29 -21 29 6 0
9 7 35 14 57 l14 40 129 0 c108 0 128 -2 126 -15 -1 -8 -11 -49 -22 -90 -12
-41 -30 -106 -40 -145 -98 -360 -174 -632 -187 -672 -36 -106 -111 -231 -181
-301 -14 -14 -21 -27 -15 -31 6 -3 859 -4 1896 -1 l1887 5 0 1009 c0 555 -2
1010 -4 1013 -6 5 -11147 9 -11148 3z m4376 -470 c3 -5 1 -18 -4 -28 -6 -11
-12 -34 -15 -53 -4 -30 -30 -132 -56 -224 -5 -16 -18 -66 -30 -110 -12 -44
-25 -93 -30 -110 -50 -177 -96 -350 -145 -545 l-52 -205 -122 -3 c-138 -3
-133 -6 -106 83 8 27 12 51 10 53 -3 3 -25 -14 -50 -37 -159 -147 -443 -159
-554 -24 -118 143 -87 432 70 664 124 183 245 253 439 253 95 0 109 -3 150
-26 25 -14 59 -44 77 -67 18 -23 36 -43 40 -44 4 -1 11 16 15 38 4 22 11 58
17 80 21 88 69 273 76 293 6 21 12 22 135 22 73 0 131 -4 135 -10z m-1548
-282 c111 -29 185 -102 219 -217 25 -86 8 -255 -34 -340 l-17 -36 -337 -3
-338 -2 0 -58 c0 -53 4 -63 36 -100 51 -60 90 -74 204 -74 97 1 172 18 264 63
39 19 66 24 66 13 0 -21 -45 -186 -54 -199 -15 -21 -138 -53 -256 -66 -279
-31 -458 51 -519 240 -14 43 -14 161 0 215 24 96 29 109 63 186 26 59 109 171
169 226 56 52 141 104 212 129 91 33 241 44 322 23z m3458 -3 c118 -14 209
-69 241 -144 25 -59 17 -161 -22 -310 -77 -289 -103 -389 -119 -463 -12 -54
-22 -79 -33 -82 -10 -2 -62 -4 -117 -3 -113 2 -109 -1 -90 90 l8 39 -48 -37
c-67 -50 -120 -76 -190 -91 -156 -34 -305 3 -367 89 -20 28 -23 44 -23 122 1
81 4 97 33 156 39 82 92 131 186 174 114 52 184 66 361 72 101 4 163 10 167
17 4 6 8 28 8 48 0 97 -43 128 -180 128 -104 0 -155 -12 -262 -62 -38 -17 -71
-29 -73 -26 -3 3 5 51 17 108 16 76 27 105 42 115 51 33 307 79 386 69 14 -1
48 -5 75 -9z m2387 1 c110 -29 170 -69 223 -150 75 -111 83 -239 28 -406 -57
-174 -182 -316 -348 -395 -103 -49 -149 -62 -260 -71 -304 -24 -493 155 -455
430 49 352 325 600 672 605 48 1 111 -5 140 -13z m1083 -1 c138 -22 145 -24
145 -51 0 -13 -4 -32 -9 -42 -5 -9 -20 -44 -33 -77 -28 -69 -25 -68 -148 -40
-144 33 -289 -15 -290 -96 0 -33 17 -44 130 -89 146 -58 191 -89 216 -149 28
-68 10 -176 -46 -266 -73 -118 -267 -205 -459 -205 -97 0 -260 25 -278 43 -9
9 -5 33 19 107 17 52 33 98 37 102 3 4 29 -4 56 -16 55 -26 139 -46 189 -46
94 0 206 67 206 122 0 32 -22 51 -95 83 -222 98 -271 148 -263 266 12 179 171
314 418 354 100 16 102 16 205 0z m-8022 -45 c0 -19 -6 -53 -12 -75 -27 -106
-28 -105 21 -45 95 115 175 160 289 160 49 0 71 -4 75 -13 5 -13 -1 -44 -26
-132 -6 -22 -15 -53 -19 -70 l-7 -30 -94 -5 c-127 -7 -167 -27 -234 -114 -45
-60 -73 -120 -99 -211 -10 -38 -23 -83 -27 -100 -5 -16 -18 -66 -30 -110 -12
-44 -26 -96 -31 -115 -6 -19 -13 -45 -16 -58 -8 -34 -27 -38 -153 -38 l-115 1
1 35 c1 19 7 53 13 75 15 49 28 100 36 140 4 17 10 39 15 50 5 11 11 31 14 45
2 14 10 43 16 65 15 53 28 103 35 140 4 17 10 39 15 50 5 11 11 34 15 50 11
54 24 109 34 150 22 86 30 121 37 150 4 17 12 33 18 38 6 4 61 6 121 5 l110
-3 -2 -35z"/>
<path d="M4073 3309 c-115 -44 -213 -222 -213 -386 0 -83 21 -138 64 -166 32
-22 140 -23 189 -2 77 32 156 130 196 241 30 86 29 204 -2 259 -41 73 -131 94
-234 54z"/>
<path d="M3010 3363 c-8 -3 -33 -14 -55 -24 -57 -25 -141 -119 -159 -176 l-7
-23 215 0 215 0 7 37 c8 43 -10 119 -34 146 -28 32 -69 47 -119 46 -26 0 -55
-3 -63 -6z"/>
<path d="M6420 2975 c-122 -28 -179 -68 -199 -141 -11 -41 -3 -70 29 -99 18
-16 36 -20 99 -20 65 0 83 4 123 27 59 35 111 96 149 174 16 34 29 65 29 68 0
11 -173 4 -230 -9z"/>
<path d="M8855 3351 c-127 -33 -250 -180 -284 -339 -43 -204 54 -330 225 -292
64 14 102 39 162 104 81 90 132 215 132 328 0 75 -36 160 -78 182 -36 19 -117
27 -157 17z"/>
<path d="M5366 3317 c-48 -14 -129 -86 -172 -153 -97 -152 -100 -360 -4 -409
43 -22 142 -20 191 6 130 66 234 278 214 433 -14 113 -100 159 -229 123z"/>
<path d="M7602 3317 c-43 -14 -126 -88 -157 -141 -88 -151 -88 -343 1 -401 39
-26 138 -24 192 4 157 80 254 314 191 460 -34 80 -124 111 -227 78z"/>
</g>
</svg>
