<?xml version="1.0" standalone="no"?>
<!DOCTYPE svg PUBLIC "-//W3C//DTD SVG 20010904//EN"
 "http://www.w3.org/TR/2001/REC-SVG-20010904/DTD/svg10.dtd">
<svg version="1.0" xmlns="http://www.w3.org/2000/svg"
 width="1200.000000pt" height="660.000000pt" viewBox="0 0 1200.000000 660.000000"
 preserveAspectRatio="xMidYMid meet">
<metadata>
Created by potrace 1.13, written by Peter Selinger 2001-2015
</metadata>
<g transform="translate(0.000000,660.000000) scale(0.100000,-0.100000)"
fill="#000000" stroke="none">
<path d="M4851 4878 c-66 -30 -137 -108 -156 -170 -20 -69 -19 -117 4 -178 26
-68 61 -112 113 -142 156 -91 340 -37 415 120 34 72 39 121 19 185 -26 80 -64
127 -136 170 -60 34 -71 37 -140 36 -53 0 -88 -7 -119 -21z"/>
<path d="M9355 3638 l3 -1163 208 -3 c114 -1 211 1 215 5 5 5 9 528 10 1163
l1 1155 -220 3 -220 2 3 -1162z"/>
<path d="M2191 4684 c-81 -28 -166 -78 -220 -128 -54 -51 -141 -188 -141 -223
0 -7 -4 -21 -9 -31 -18 -34 -32 -166 -21 -202 5 -19 10 -49 10 -67 0 -17 5
-35 10 -38 6 -3 10 -13 10 -20 0 -8 18 -53 40 -99 68 -144 64 -234 -15 -311
-70 -67 -157 -82 -247 -41 -60 26 -68 34 -133 131 -60 88 -78 109 -141 156
-106 78 -200 109 -338 109 -145 0 -254 -40 -373 -138 -54 -44 -124 -142 -148
-207 -10 -27 -22 -54 -27 -60 -4 -5 -8 -26 -8 -46 0 -21 -5 -41 -10 -44 -13
-8 -13 -142 0 -150 6 -3 10 -19 10 -35 0 -16 7 -46 16 -67 9 -21 22 -49 28
-63 19 -45 83 -134 123 -171 41 -40 145 -109 163 -109 5 0 18 -4 28 -9 9 -5
37 -15 62 -23 57 -16 255 -17 272 0 7 7 20 12 30 12 23 0 101 37 153 71 50 35
112 99 156 164 79 117 139 160 225 160 99 0 192 -72 214 -167 17 -69 6 -116
-59 -248 -44 -90 -65 -212 -51 -292 28 -149 71 -241 153 -327 51 -53 157 -124
212 -141 22 -7 53 -17 68 -23 16 -5 79 -10 140 -9 94 1 123 5 182 27 39 14 82
34 97 45 15 11 31 20 35 20 5 0 41 33 80 72 75 76 141 189 158 273 12 55 11
211 -2 263 -22 91 -83 194 -159 270 -41 39 -79 72 -85 72 -6 0 -23 8 -37 18
-45 31 -160 63 -246 68 -123 8 -164 22 -217 74 -37 37 -47 56 -56 100 -16 78
0 139 50 196 51 58 92 75 202 85 173 15 237 36 336 111 181 137 263 365 212
585 -18 74 -78 186 -133 246 -56 61 -158 137 -184 137 -8 0 -18 5 -21 10 -3 6
-16 10 -29 10 -12 0 -28 6 -34 13 -9 8 -54 13 -135 15 -109 2 -130 -1 -196
-24z"/>
<path d="M4265 4088 c-127 -31 -213 -71 -274 -127 -24 -22 -47 -39 -51 -36 -4
2 -5 29 -2 60 7 86 9 85 -203 85 -101 0 -190 -3 -199 -6 -14 -6 -16 -85 -16
-800 l0 -794 218 2 217 3 3 485 c1 303 6 488 12 494 6 6 10 16 10 24 0 12 40
72 65 97 25 25 85 63 138 88 53 25 68 27 181 27 l123 0 11 58 c7 31 13 80 16
107 2 28 10 85 17 128 18 107 12 111 -124 114 -56 1 -120 -3 -142 -9z"/>
<path d="M6320 4090 c-8 -5 -28 -10 -45 -10 -59 -1 -216 -69 -266 -116 -14
-13 -28 -21 -32 -17 -4 3 -7 30 -7 60 0 29 -3 53 -7 53 -57 3 -395 1 -397 -1
-2 -2 -5 -535 -7 -1184 l-4 -1180 220 0 220 0 -4 431 c-2 237 -1 436 3 443 5
8 17 4 39 -12 18 -13 62 -38 99 -56 227 -107 520 -70 753 95 103 73 183 170
244 295 51 104 70 191 78 348 17 356 -178 676 -487 801 -30 12 -64 26 -75 30
-50 21 -300 37 -325 20z m229 -431 c97 -47 178 -141 217 -254 24 -68 24 -212
-1 -283 -48 -143 -152 -241 -292 -278 -68 -18 -110 -18 -196 0 -133 28 -221
92 -273 197 -43 86 -54 132 -54 224 0 158 57 274 173 356 63 43 104 60 177 69
91 12 185 0 249 -31z"/>
<path d="M8220 4090 c-8 -5 -28 -10 -45 -10 -59 -1 -216 -69 -266 -116 -14
-13 -28 -24 -32 -24 -4 0 -7 27 -7 59 0 44 -4 60 -16 65 -23 9 -382 7 -388 -2
-2 -4 -6 -539 -8 -1187 l-3 -1180 220 0 220 0 -4 431 c-2 237 -1 437 3 443 5
7 17 3 39 -13 42 -32 159 -85 216 -98 74 -16 230 -21 291 -8 288 60 468 196
589 442 53 108 72 196 78 353 5 125 -2 178 -40 300 -103 332 -402 555 -745
555 -48 0 -94 -5 -102 -10z m224 -429 c74 -38 113 -70 154 -126 45 -60 62 -92
62 -114 0 -9 5 -22 11 -28 18 -18 15 -210 -5 -268 -58 -170 -221 -295 -384
-295 -107 0 -247 54 -315 122 -66 67 -127 217 -127 315 0 49 26 148 55 208 24
49 116 147 164 174 100 56 287 62 385 12z"/>
<path d="M10690 4090 c-8 -5 -28 -10 -45 -10 -93 -1 -285 -108 -380 -211 -79
-85 -157 -221 -184 -319 -7 -25 -18 -63 -24 -85 -18 -61 -14 -356 6 -425 70
-245 196 -404 405 -510 132 -67 210 -83 397 -83 219 0 330 31 505 142 54 34
150 123 150 138 0 11 -233 243 -244 243 -4 0 -31 -20 -58 -45 -97 -87 -272
-146 -386 -131 -123 17 -204 58 -277 137 -50 55 -92 139 -97 194 l-3 30 535 2
c294 2 540 3 546 3 21 0 34 52 34 135 0 46 -4 87 -10 90 -5 3 -10 23 -10 43 0
53 -33 153 -86 259 -103 207 -297 358 -514 399 -63 12 -244 15 -260 4z m240
-368 c86 -38 180 -149 180 -213 l0 -26 -172 -6 c-284 -11 -444 -9 -456 6 -15
18 25 102 73 156 87 96 260 134 375 83z"/>
<path d="M4748 3283 c-2 -428 -1 -786 1 -795 3 -17 22 -18 217 -18 164 0 214
3 214 13 1 6 1 363 0 792 l0 780 -215 3 -215 2 -2 -777z"/>
</g>
</svg>
