<?xml version="1.0" standalone="no"?>
<!DOCTYPE svg PUBLIC "-//W3C//DTD SVG 20010904//EN"
 "http://www.w3.org/TR/2001/REC-SVG-20010904/DTD/svg10.dtd">
<svg version="1.0" xmlns="http://www.w3.org/2000/svg"
 width="1200.000000pt" height="660.000000pt" viewBox="0 0 1200.000000 660.000000"
 preserveAspectRatio="xMidYMid meet">
<metadata>
Created by potrace 1.13, written by Peter Selinger 2001-2015
</metadata>
<g transform="translate(0.000000,660.000000) scale(0.100000,-0.100000)"
fill="#000000" stroke="none">
<path d="M4593 5086 c-9 -5 -30 -10 -47 -12 -52 -4 -119 -20 -160 -37 -21 -10
-47 -17 -57 -17 -11 0 -36 -9 -56 -20 -21 -11 -42 -20 -48 -20 -15 0 -185 -87
-205 -105 -9 -8 -20 -15 -24 -15 -4 0 -32 -20 -60 -45 -29 -25 -57 -45 -62
-45 -12 0 -194 -182 -194 -194 0 -5 -20 -32 -45 -60 -24 -28 -58 -67 -74 -86
-96 -112 -150 -175 -221 -257 -44 -50 -80 -96 -80 -100 0 -5 -18 -27 -40 -48
-22 -21 -40 -44 -40 -50 0 -7 -21 -33 -47 -58 -27 -26 -66 -70 -88 -97 -22
-28 -79 -96 -127 -153 -48 -56 -107 -126 -130 -155 -24 -29 -60 -72 -80 -94
-21 -22 -38 -43 -38 -46 0 -4 -16 -23 -36 -43 -20 -20 -41 -46 -48 -57 -6 -11
-48 -62 -93 -114 -46 -51 -102 -117 -125 -146 -24 -28 -82 -97 -130 -151 -49
-54 -88 -103 -88 -108 0 -5 -18 -27 -40 -48 -22 -21 -40 -43 -40 -47 0 -12
-62 -80 -185 -203 -87 -88 -112 -107 -195 -147 -52 -26 -108 -49 -125 -53 -16
-3 -50 -10 -75 -15 -25 -5 -286 -10 -580 -12 l-535 -3 0 -365 0 -365 585 4
c601 4 697 9 775 41 11 4 46 16 77 25 32 9 60 21 64 26 3 5 13 9 23 9 31 0
244 114 321 172 101 75 399 388 460 483 8 13 51 64 95 113 44 50 100 116 125
147 25 32 84 101 133 155 48 54 87 101 87 104 0 4 34 46 75 94 42 48 98 114
126 147 27 33 87 105 134 160 46 55 111 131 142 169 32 38 70 81 86 97 15 15
27 31 27 35 0 5 16 25 36 45 20 20 41 46 48 57 6 11 48 62 93 114 46 51 101
116 123 143 22 28 80 96 128 152 48 56 97 116 110 132 32 42 168 143 222 165
25 10 54 23 64 28 79 42 142 46 721 50 l530 3 3 362 2 363 -24 6 c-39 9 -1155
0 -1173 -10z"/>
<path d="M6466 5091 c-8 -12 -8 -3579 -1 -3592 4 -5 159 -9 390 -9 322 0 385
2 392 14 4 8 6 819 3 1803 l-5 1788 -387 3 c-220 1 -389 -2 -392 -7z"/>
<path d="M7932 5092 c-9 -6 -12 -87 -10 -368 l3 -359 530 -3 c292 -2 555 -7
585 -12 68 -10 127 -28 135 -40 4 -6 14 -10 23 -10 41 0 223 -124 259 -177 10
-14 53 -65 96 -113 42 -49 77 -92 77 -95 0 -4 38 -50 85 -103 46 -54 106 -123
132 -154 27 -32 65 -75 86 -97 20 -21 37 -42 37 -46 0 -4 38 -49 85 -101 59
-65 85 -102 85 -119 0 -17 -26 -54 -85 -119 -47 -52 -85 -97 -85 -101 0 -4
-17 -25 -37 -46 -21 -22 -59 -65 -86 -97 -26 -31 -86 -100 -132 -154 -47 -53
-85 -99 -85 -103 0 -3 -35 -46 -77 -95 -43 -48 -86 -99 -96 -113 -23 -35 -153
-132 -225 -168 -61 -32 -113 -48 -177 -56 -22 -2 -46 -6 -54 -9 -8 -3 -254 -6
-545 -7 l-531 -2 -3 -359 c-2 -281 1 -362 10 -368 14 -9 1177 0 1192 10 5 3
23 6 40 8 52 4 119 20 160 37 21 10 48 17 60 17 12 0 31 7 42 15 10 8 25 15
33 15 20 0 218 99 232 116 6 8 17 14 23 14 6 0 34 20 63 45 28 25 55 45 60 45
11 0 193 183 193 195 0 5 16 26 36 46 20 20 41 46 48 57 10 18 87 108 221 258
25 28 45 54 45 59 0 4 23 33 51 64 109 120 119 132 119 139 1 14 71 82 85 82
9 0 19 -10 24 -22 5 -13 30 -43 55 -68 25 -24 46 -48 46 -52 0 -5 15 -24 33
-43 17 -19 57 -64 87 -100 30 -36 76 -90 103 -119 26 -29 47 -57 47 -61 0 -4
21 -32 48 -60 26 -29 63 -72 82 -96 19 -24 73 -84 121 -133 47 -50 102 -110
124 -133 21 -24 44 -43 50 -43 7 0 20 -9 30 -20 10 -11 23 -20 29 -20 7 0 18
-9 26 -20 8 -11 21 -20 29 -20 12 0 13 75 9 520 l-6 520 -68 77 c-38 42 -73
84 -79 94 -5 9 -46 58 -90 108 -150 170 -225 259 -225 266 0 7 75 96 225 266
44 50 85 99 90 108 6 10 41 52 79 94 l69 77 5 520 c4 445 3 520 -9 520 -8 0
-21 -9 -29 -20 -8 -11 -19 -20 -26 -20 -6 0 -19 -9 -29 -20 -10 -11 -23 -20
-30 -20 -6 0 -29 -19 -50 -42 -22 -24 -77 -84 -124 -134 -48 -49 -102 -109
-121 -133 -19 -24 -56 -67 -82 -96 -27 -28 -48 -56 -48 -60 0 -4 -21 -32 -47
-61 -27 -29 -73 -83 -103 -119 -30 -36 -70 -81 -87 -100 -18 -19 -33 -38 -33
-43 0 -4 -21 -28 -46 -52 -25 -25 -50 -55 -55 -67 -5 -13 -15 -23 -24 -23 -14
0 -84 68 -85 82 0 7 -10 19 -119 139 -28 31 -51 60 -51 64 0 5 -20 31 -45 59
-134 150 -211 240 -221 258 -7 11 -28 37 -48 57 -20 20 -36 41 -36 47 0 11
-182 194 -194 194 -4 0 -31 20 -59 45 -29 25 -57 45 -63 45 -6 0 -17 6 -23 14
-14 17 -212 116 -232 116 -8 0 -23 7 -33 15 -11 8 -30 15 -42 15 -12 0 -39 7
-60 17 -41 17 -108 33 -160 37 -17 2 -35 5 -40 9 -15 9 -1178 18 -1192 9z"/>
</g>
</svg>
