<?xml version="1.0" standalone="no"?>
<!DOCTYPE svg PUBLIC "-//W3C//DTD SVG 20010904//EN"
 "http://www.w3.org/TR/2001/REC-SVG-20010904/DTD/svg10.dtd">
<svg version="1.0" xmlns="http://www.w3.org/2000/svg"
 width="1200.000000pt" height="660.000000pt" viewBox="0 0 1200.000000 660.000000"
 preserveAspectRatio="xMidYMid meet">
<metadata>
Created by potrace 1.13, written by Peter Selinger 2001-2015
</metadata>
<g transform="translate(0.000000,660.000000) scale(0.100000,-0.100000)"
fill="#000000" stroke="none">
<path d="M1550 5414 c-19 -3 -44 -9 -55 -14 -11 -5 -36 -11 -55 -14 -57 -7
-134 -27 -145 -37 -5 -5 -19 -9 -31 -9 -13 0 -26 -4 -29 -10 -3 -5 -13 -10
-22 -10 -8 0 -29 -6 -46 -14 -18 -7 -52 -22 -77 -32 -24 -11 -73 -38 -108 -61
-35 -24 -66 -43 -69 -43 -3 0 -20 -12 -38 -27 -112 -95 -135 -116 -135 -127 0
-7 -9 -21 -21 -32 -42 -38 -129 -185 -129 -219 0 -8 -4 -24 -10 -35 -5 -11
-14 -29 -20 -40 -5 -11 -10 -35 -10 -53 0 -19 -3 -37 -7 -40 -8 -9 -8 -135 0
-144 4 -3 7 -35 7 -69 0 -35 5 -66 10 -69 6 -3 10 -19 10 -35 0 -16 5 -32 10
-35 6 -3 10 -17 10 -30 0 -13 4 -26 9 -30 5 -3 13 -19 16 -37 7 -28 32 -70 75
-122 46 -56 114 -126 122 -126 5 0 30 -18 56 -39 26 -21 67 -49 92 -61 58 -30
181 -81 200 -84 67 -12 98 -19 115 -26 29 -11 95 -28 135 -34 19 -3 49 -8 65
-11 17 -2 50 -7 75 -10 25 -4 52 -9 60 -13 8 -3 96 -12 195 -19 99 -7 218 -17
265 -23 47 -6 110 -13 140 -16 30 -3 60 -9 65 -14 6 -4 28 -10 51 -14 51 -7
125 -40 146 -63 46 -52 86 -201 59 -217 -6 -4 -8 -12 -5 -18 7 -11 -25 -88
-38 -88 -4 0 -8 -6 -8 -13 0 -36 -114 -107 -285 -178 -76 -32 -468 -46 -595
-21 -95 18 -155 34 -165 43 -5 5 -18 9 -30 9 -12 0 -25 4 -30 8 -6 5 -36 17
-67 26 -32 10 -73 28 -91 39 -18 12 -48 31 -67 41 -19 11 -51 32 -71 48 -20
15 -40 28 -44 28 -4 0 -37 26 -73 58 -37 32 -75 64 -85 72 -16 12 -38 -7 -240
-206 -122 -120 -223 -223 -226 -228 -4 -10 109 -126 125 -126 6 0 18 -7 25
-16 12 -15 61 -50 108 -79 10 -5 35 -24 56 -40 22 -17 54 -37 70 -45 17 -8 44
-24 60 -36 33 -23 98 -54 112 -54 5 0 32 -11 59 -25 27 -14 57 -25 66 -25 9 0
20 -4 23 -10 3 -6 16 -10 28 -10 12 0 31 -7 41 -15 11 -8 30 -15 42 -15 13 0
25 -4 28 -9 3 -5 23 -11 43 -14 48 -7 94 -17 113 -25 74 -30 540 -45 710 -23
47 6 103 14 125 16 77 9 169 31 190 46 6 3 31 9 56 13 42 6 242 100 279 131 8
7 20 14 27 16 21 7 213 190 213 203 0 7 11 23 25 36 27 25 128 225 139 275 17
74 20 122 21 314 0 155 -3 205 -12 209 -7 2 -13 12 -13 23 0 11 -4 27 -9 37
-5 9 -24 48 -42 87 -33 68 -139 195 -163 195 -7 0 -25 14 -41 30 -16 17 -33
30 -38 30 -4 0 -23 10 -40 23 -18 13 -52 31 -77 41 -25 10 -63 27 -85 37 -37
18 -93 32 -170 45 -16 3 -39 9 -50 14 -36 16 -242 39 -500 55 -44 3 -89 10
-100 15 -11 4 -67 11 -125 15 -57 3 -109 10 -115 14 -5 5 -37 12 -69 16 -65 8
-80 13 -175 59 -83 40 -134 90 -154 154 -20 61 -21 70 -4 124 12 42 97 138
122 138 7 0 18 7 25 15 17 20 100 57 185 82 68 20 476 29 560 13 33 -6 78 -14
100 -17 22 -3 45 -9 50 -13 6 -4 26 -11 45 -14 45 -9 82 -22 146 -52 28 -13
55 -24 61 -24 15 0 159 -75 189 -99 14 -11 32 -21 38 -21 6 0 103 92 216 205
175 175 203 208 194 222 -13 21 -94 81 -110 82 -6 1 -17 7 -24 15 -15 19 -290
156 -311 156 -9 0 -19 3 -23 7 -7 8 -58 27 -131 49 -27 9 -60 20 -73 25 -13 5
-34 9 -47 9 -13 0 -27 5 -30 10 -3 6 -17 7 -30 4 -12 -3 -26 -1 -29 5 -4 6
-31 11 -60 11 -28 0 -57 5 -64 12 -8 8 -98 12 -319 14 -170 1 -324 0 -343 -2z"/>
<path d="M4225 5409 c-38 -4 -90 -12 -115 -19 -25 -6 -55 -11 -67 -11 -12 1
-25 -4 -28 -9 -3 -6 -19 -10 -34 -10 -15 0 -31 -4 -36 -8 -6 -4 -28 -14 -50
-21 -72 -22 -118 -42 -250 -108 -177 -88 -216 -112 -303 -187 l-33 -29 208
-209 c225 -225 218 -221 276 -172 16 13 34 24 42 24 7 0 18 7 25 15 27 32 311
145 366 145 11 0 26 6 32 13 17 16 512 18 533 1 8 -6 36 -15 63 -19 45 -6 63
-12 106 -36 8 -5 35 -20 60 -33 64 -34 160 -150 160 -193 0 -11 5 -24 10 -29
7 -7 9 -82 8 -205 l-3 -194 -530 0 c-517 0 -744 -11 -769 -36 -6 -5 -19 -9
-30 -9 -34 0 -104 -27 -222 -85 -94 -47 -121 -66 -180 -127 -90 -95 -144 -177
-144 -221 0 -9 -4 -19 -10 -22 -5 -3 -10 -17 -10 -30 0 -13 -4 -27 -10 -30 -5
-3 -10 -19 -10 -35 0 -16 -4 -32 -10 -35 -5 -3 -10 -24 -10 -45 0 -21 -4 -42
-10 -45 -6 -4 -10 -58 -10 -130 0 -72 4 -126 10 -130 6 -3 10 -26 10 -50 0
-24 5 -47 10 -50 6 -3 10 -25 10 -49 0 -23 4 -46 8 -52 5 -5 15 -29 22 -54 8
-25 17 -49 20 -55 4 -5 13 -26 20 -45 25 -63 89 -147 176 -229 89 -84 95 -89
190 -135 32 -15 72 -34 87 -42 16 -8 37 -14 47 -14 10 0 21 -4 24 -9 3 -5 23
-12 43 -16 142 -29 238 -37 413 -37 185 0 272 7 306 23 11 6 24 9 30 8 13 -4
124 32 130 42 3 5 14 9 24 9 23 0 162 70 173 88 4 6 14 12 20 12 7 0 48 36 92
80 43 44 81 77 84 74 4 -3 6 -65 6 -137 l0 -132 348 -3 347 -2 0 1054 c0 693
-3 1057 -10 1061 -5 3 -10 30 -10 60 0 30 -4 57 -10 60 -5 3 -10 24 -10 46 0
21 -4 47 -9 57 -6 9 -20 51 -32 92 -22 74 -48 130 -75 161 -8 8 -14 20 -14 25
0 9 -204 212 -241 240 -19 14 -143 73 -234 112 -38 16 -95 33 -125 37 -30 4
-59 11 -65 15 -11 8 -49 15 -160 30 -82 10 -568 10 -670 -1z m993 -1888 c2
-30 -2 -59 -7 -64 -6 -6 -11 -48 -11 -94 0 -46 -4 -92 -10 -103 -5 -11 -14
-29 -20 -40 -5 -11 -10 -27 -10 -36 0 -10 -11 -32 -25 -50 -14 -18 -25 -37
-25 -41 0 -18 -126 -123 -148 -123 -5 0 -26 -9 -47 -19 -22 -10 -45 -17 -52
-14 -7 3 -19 1 -26 -5 -6 -5 -41 -13 -77 -17 -98 -10 -436 -8 -510 3 -90 14
-161 30 -185 41 -11 5 -36 16 -55 24 -50 22 -120 75 -120 91 0 7 -9 21 -20 31
-11 10 -20 26 -20 36 0 10 -4 21 -10 24 -5 3 -10 19 -10 34 0 15 -6 33 -12 39
-10 10 -10 17 0 32 6 11 12 33 12 48 0 31 37 111 66 144 26 28 111 68 162 75
23 3 45 10 48 14 3 5 32 9 64 9 32 0 62 5 65 10 4 7 174 9 493 8 l487 -3 3
-54z"/>
<path d="M6835 5410 c-27 -4 -68 -13 -90 -20 -22 -6 -60 -16 -85 -21 -49 -11
-225 -96 -242 -116 -6 -7 -16 -13 -22 -13 -13 0 -246 -231 -246 -244 0 -5 -6
-17 -14 -25 -21 -25 -51 -86 -103 -211 -8 -19 -19 -43 -24 -52 -5 -10 -9 -28
-9 -41 0 -13 -5 -28 -10 -33 -40 -40 -39 -1417 1 -1458 5 -6 9 -29 9 -53 0
-24 5 -43 10 -43 6 0 10 -11 10 -24 0 -14 5 -28 10 -31 6 -3 10 -16 10 -29 0
-13 6 -36 14 -52 8 -16 24 -50 35 -76 12 -26 25 -50 31 -53 5 -3 17 -23 27
-43 26 -54 177 -207 258 -260 70 -47 210 -118 275 -141 19 -7 44 -17 55 -22
11 -5 46 -13 78 -19 31 -5 83 -15 115 -21 107 -19 448 2 487 31 6 4 33 11 60
15 28 4 52 10 55 13 3 4 42 26 86 49 105 53 124 64 148 86 11 9 23 17 27 17 4
0 40 34 80 75 40 41 79 75 87 75 10 0 12 -26 9 -127 -6 -163 -22 -268 -47
-303 -11 -16 -20 -31 -20 -35 0 -27 -124 -175 -147 -175 -7 0 -13 -4 -13 -8 0
-4 -14 -17 -31 -27 -17 -11 -42 -27 -54 -35 -61 -40 -119 -70 -136 -70 -10 0
-20 -4 -24 -9 -3 -6 -27 -13 -53 -17 -26 -3 -55 -11 -64 -16 -26 -13 -308 -12
-321 1 -6 6 -22 11 -36 11 -15 0 -44 7 -66 14 -49 17 -214 101 -273 139 -24
16 -48 27 -52 25 -13 -4 -460 -451 -460 -459 0 -4 17 -21 38 -38 20 -17 47
-40 59 -51 12 -11 25 -20 29 -20 4 0 16 -7 26 -16 20 -19 47 -34 219 -123 119
-61 187 -87 257 -98 18 -3 35 -9 38 -14 3 -5 18 -9 33 -9 15 0 31 -4 37 -9 5
-5 32 -12 59 -16 76 -11 483 -7 540 6 28 5 67 13 88 16 20 3 40 9 43 14 3 5
14 9 25 9 10 0 27 4 37 9 9 6 44 18 77 27 69 20 307 145 346 180 14 13 30 24
37 24 6 0 19 11 28 25 9 14 22 25 29 25 21 0 225 231 225 256 0 4 6 15 14 23
19 22 86 152 86 168 0 7 8 27 19 46 10 18 22 53 25 78 4 24 11 53 15 64 19 48
31 94 31 122 0 16 3 33 7 37 4 4 6 38 4 76 -1 38 0 74 4 80 9 15 12 2899 3
2902 -4 2 -161 2 -349 0 l-340 -3 2 -155 c1 -85 -1 -157 -4 -161 -4 -3 -49 35
-101 85 -98 93 -168 144 -246 180 -99 44 -119 52 -142 52 -14 0 -28 3 -32 7
-3 4 -23 13 -44 21 -43 16 -475 26 -557 12z m617 -589 c13 -5 48 -17 78 -26
54 -16 149 -65 227 -117 35 -23 55 -48 99 -120 6 -10 18 -26 27 -36 10 -10 17
-23 17 -29 0 -6 10 -32 23 -59 28 -62 38 -214 39 -594 0 -346 -10 -480 -42
-535 -13 -22 -33 -58 -44 -79 -26 -50 -123 -156 -142 -156 -8 0 -14 -4 -14 -9
0 -5 -13 -14 -30 -21 -16 -7 -30 -16 -30 -21 0 -5 -8 -9 -17 -9 -10 0 -33 -9
-51 -20 -18 -11 -40 -20 -50 -20 -10 0 -22 -4 -28 -10 -5 -5 -43 -12 -84 -15
-41 -4 -85 -11 -96 -17 -12 -6 -39 -8 -60 -5 -135 18 -201 29 -219 36 -152 62
-252 120 -311 179 -19 19 -34 37 -34 42 0 4 -7 14 -16 21 -9 7 -21 25 -26 39
-35 85 -46 123 -42 135 3 7 1 16 -5 20 -7 4 -11 44 -11 100 0 52 -4 97 -10
100 -6 4 -10 108 -10 280 0 172 4 276 10 280 6 3 10 48 10 100 0 57 4 96 11
101 6 3 9 15 6 25 -6 21 14 93 35 130 17 31 160 179 172 179 5 0 17 6 25 14
26 23 150 86 169 86 10 0 22 3 26 7 27 28 342 46 398 24z"/>
<path d="M9875 5413 c-27 -2 -54 -8 -59 -14 -6 -5 -25 -9 -42 -9 -18 0 -36 -4
-39 -10 -3 -5 -16 -9 -28 -9 -22 1 -121 -32 -134 -44 -3 -4 -14 -7 -23 -7 -25
0 -166 -73 -210 -109 -22 -17 -41 -31 -44 -31 -41 0 -336 -316 -336 -359 0 -4
-9 -16 -20 -26 -11 -10 -20 -22 -20 -26 0 -8 -69 -160 -91 -202 -5 -10 -14
-37 -19 -60 -30 -132 -36 -156 -43 -163 -4 -4 -7 -29 -7 -55 0 -26 -4 -51 -10
-54 -5 -3 -10 -26 -10 -50 0 -24 -4 -47 -10 -50 -6 -4 -10 -108 -10 -281 0
-176 4 -274 10 -274 6 0 10 -22 10 -49 0 -28 5 -53 10 -56 6 -3 10 -24 10 -45
0 -21 5 -42 10 -45 6 -3 10 -19 10 -35 0 -16 5 -32 10 -35 6 -4 8 -16 5 -26
-4 -11 -2 -25 3 -32 5 -7 12 -28 16 -47 9 -48 112 -256 151 -305 18 -22 34
-45 36 -52 5 -14 244 -256 293 -295 19 -16 38 -28 44 -28 5 0 22 -10 37 -22
34 -26 174 -98 192 -98 8 0 21 -4 31 -9 56 -29 212 -72 259 -71 17 0 34 -4 38
-10 3 -5 35 -10 70 -10 35 0 67 -4 70 -10 4 -6 68 -10 160 -10 92 0 156 4 160
10 3 6 30 10 58 11 29 0 75 5 102 10 28 6 65 13 83 16 18 3 35 9 38 14 3 5 16
9 28 9 27 0 155 45 170 60 5 5 18 10 28 10 22 0 151 64 194 97 17 13 35 23 40
23 5 0 33 18 62 40 29 22 55 40 59 40 7 0 126 103 170 148 18 19 33 39 33 46
0 7 -90 102 -201 210 l-201 198 -27 -26 c-15 -14 -31 -26 -35 -26 -5 0 -23
-12 -41 -27 -37 -32 -49 -40 -129 -88 -32 -19 -62 -35 -67 -35 -5 0 -30 -10
-56 -21 -27 -12 -57 -26 -68 -31 -29 -12 -113 -29 -170 -34 -27 -3 -59 -10
-70 -15 -41 -20 -392 3 -460 30 -11 5 -40 18 -63 30 -24 11 -51 21 -60 21 -10
0 -28 9 -42 20 -14 11 -30 20 -36 20 -5 0 -23 13 -39 30 -16 17 -34 30 -39 30
-12 0 -66 54 -66 65 0 4 -18 27 -39 50 -23 25 -45 62 -51 85 -6 24 -16 52 -22
64 -25 49 -28 57 -28 89 0 18 -5 38 -11 44 -6 6 -9 23 -7 39 l3 29 1068 1
1068 0 14 28 c8 16 15 55 15 88 0 33 4 67 8 76 12 25 -4 542 -17 555 -6 6 -11
28 -11 48 0 21 -4 40 -9 43 -5 3 -11 20 -14 38 -11 67 -25 118 -34 130 -8 11
-24 55 -27 78 -1 9 -99 204 -108 215 -4 5 -21 26 -38 46 -16 20 -30 40 -30 45
0 11 -172 184 -183 184 -5 0 -26 14 -46 30 -20 17 -42 35 -49 41 -22 18 -191
99 -206 99 -8 0 -18 5 -21 10 -3 6 -17 10 -30 10 -13 0 -26 4 -29 9 -3 4 -20
12 -38 16 -35 9 -48 11 -113 21 -22 4 -46 11 -53 17 -13 11 -537 19 -637 10z
m499 -562 c3 -4 35 -11 72 -15 52 -5 88 -18 164 -56 53 -28 105 -59 115 -70
10 -11 23 -20 29 -20 28 0 129 -130 172 -220 53 -111 65 -147 68 -210 1 -19 4
-40 8 -45 3 -6 7 -29 9 -52 l3 -42 -794 -4 c-437 -2 -802 -6 -810 -8 -18 -5
-27 48 -11 64 6 6 11 35 11 63 0 29 5 56 10 59 6 3 10 17 10 30 0 24 6 41 41
122 11 24 19 47 19 52 0 5 7 15 16 22 9 7 19 20 23 29 3 9 50 57 104 108 93
86 196 152 240 152 9 0 18 4 21 9 3 5 34 12 68 16 35 4 70 11 78 16 20 11 327
12 334 0z"/>
</g>
</svg>
