<?xml version="1.0" standalone="no"?>
<!DOCTYPE svg PUBLIC "-//W3C//DTD SVG 20010904//EN"
 "http://www.w3.org/TR/2001/REC-SVG-20010904/DTD/svg10.dtd">
<svg version="1.0" xmlns="http://www.w3.org/2000/svg"
 width="1200.000000pt" height="660.000000pt" viewBox="0 0 1200.000000 660.000000"
 preserveAspectRatio="xMidYMid meet">
<metadata>
Created by potrace 1.13, written by Peter Selinger 2001-2015
</metadata>
<g transform="translate(0.000000,660.000000) scale(0.100000,-0.100000)"
fill="#000000" stroke="none">
<path d="M6260 4848 c0 -2 -1 -691 -1 -1533 l-2 -1530 413 -3 413 -2 -4 397
-4 398 450 6 c520 7 628 13 745 41 298 72 477 281 529 618 22 142 31 284 31
486 0 357 -27 530 -107 685 -116 227 -305 356 -608 415 -81 16 -182 18 -972
21 -486 2 -883 3 -883 1z m1526 -683 c120 -31 182 -101 203 -227 18 -104 11
-449 -10 -505 -21 -55 -57 -98 -98 -119 -46 -22 -187 -32 -526 -36 l-280 -3
-3 440 c-1 242 0 446 3 453 7 19 634 17 711 -3z"/>
<path d="M9415 4838 c-5 -18 -40 -140 -65 -228 -12 -41 -33 -113 -47 -160 -13
-47 -33 -114 -43 -150 -11 -36 -33 -112 -50 -170 -17 -58 -40 -136 -51 -175
-11 -38 -29 -99 -40 -135 -10 -36 -24 -83 -30 -105 -6 -22 -15 -49 -19 -60 -4
-11 -13 -40 -20 -65 -7 -25 -16 -56 -20 -70 -4 -14 -13 -45 -20 -70 -7 -25
-20 -70 -30 -100 -10 -30 -23 -75 -30 -100 -7 -25 -20 -70 -30 -100 -10 -30
-23 -75 -30 -100 -7 -25 -16 -54 -20 -65 -4 -11 -13 -40 -20 -65 -7 -25 -21
-70 -30 -100 -10 -30 -32 -102 -50 -160 -18 -58 -45 -145 -61 -195 -92 -293
-209 -671 -209 -677 0 -5 191 -8 425 -8 l424 0 15 53 c18 63 56 207 91 342 14
55 30 110 35 123 l10 22 544 0 c423 0 546 -3 554 -12 5 -7 40 -118 77 -247 36
-129 71 -244 76 -257 l9 -24 415 0 c392 0 416 1 412 18 -8 26 -83 268 -137
442 -139 441 -687 2249 -764 2520 l-24 85 -621 3 c-492 2 -622 0 -626 -10z
m646 -630 c7 -13 16 -38 21 -58 5 -19 13 -48 18 -65 5 -16 14 -47 19 -67 6
-21 15 -53 20 -70 5 -18 33 -112 61 -208 28 -96 56 -190 61 -207 5 -18 13 -48
18 -65 6 -18 14 -49 20 -68 5 -19 19 -66 30 -105 11 -38 34 -117 51 -175 46
-152 51 -173 53 -195 2 -20 -5 -20 -382 -23 l-383 -2 5 27 c3 16 10 45 16 66
6 20 16 54 22 75 5 20 14 51 19 67 11 38 26 89 40 140 12 43 16 59 50 175 11
41 30 109 41 150 20 72 28 102 48 173 6 17 15 50 21 72 6 22 15 55 21 73 5 17
13 47 18 65 6 17 15 49 20 70 6 20 15 52 20 70 5 17 13 43 16 57 16 60 18 61
36 28z"/>
<path d="M1430 4820 c-373 -17 -503 -41 -669 -122 -200 -100 -290 -234 -331
-499 -18 -110 -8 -530 15 -628 62 -273 194 -405 480 -481 115 -30 314 -53 705
-80 230 -16 372 -30 413 -41 42 -11 101 -59 122 -98 7 -14 19 -54 25 -88 16
-79 -2 -207 -34 -256 -31 -46 -94 -86 -161 -102 -74 -18 -506 -20 -604 -4
-151 25 -221 114 -221 280 l0 66 -371 7 c-204 3 -375 3 -381 0 -12 -8 -3 -282
13 -397 39 -285 226 -476 524 -535 210 -42 291 -47 780 -47 525 0 563 4 764
71 126 42 192 78 268 147 162 148 209 319 207 747 -2 321 -20 415 -105 541
-120 178 -340 270 -719 299 -74 6 -189 15 -255 20 -66 5 -192 15 -280 21 -243
16 -297 30 -354 89 -37 40 -52 94 -52 194 0 147 46 227 150 260 66 21 208 36
346 36 224 0 363 -46 397 -130 6 -14 16 -68 22 -120 l11 -95 375 0 375 0 6 70
c7 93 -7 286 -26 360 -28 111 -91 222 -169 300 -160 158 -359 209 -855 219
-130 2 -315 1 -411 -4z"/>
<path d="M4855 4815 c-266 -43 -450 -112 -647 -244 -243 -163 -398 -336 -528
-589 l-55 -107 -170 4 -171 3 -102 -222 c-56 -122 -102 -226 -102 -231 0 -5
98 -9 220 -9 l220 0 0 -99 c0 -54 3 -111 6 -127 l6 -29 -111 3 -111 4 -76
-159 c-104 -217 -134 -282 -134 -293 0 -5 41 -7 98 -5 221 10 400 14 421 8 15
-4 31 -25 50 -68 61 -135 210 -336 336 -453 387 -362 951 -498 1481 -357 51
14 116 34 145 45 75 30 225 107 277 142 l43 30 -2 274 c-1 201 -4 274 -13 274
-6 0 -36 -25 -66 -56 -161 -164 -400 -278 -635 -304 -285 -30 -569 54 -793
235 -44 35 -99 86 -121 112 -89 105 -90 107 -79 114 6 4 257 5 558 1 463 -4
548 -3 556 9 5 8 50 104 101 214 51 110 98 208 103 218 10 16 -29 17 -749 17
l-758 0 -7 38 c-3 20 -6 78 -6 127 l0 90 823 -3 823 -3 102 222 c56 122 102
225 102 230 0 6 -340 9 -842 9 -632 0 -842 3 -840 11 14 56 195 244 305 318
232 156 520 221 774 177 109 -20 273 -75 351 -120 93 -52 203 -139 266 -208
31 -34 58 -59 61 -57 2 3 46 93 96 199 l91 195 -39 33 c-57 50 -183 145 -223
169 -76 46 -239 122 -325 151 -198 68 -518 98 -710 67z"/>
</g>
</svg>
