<?xml version="1.0" standalone="no"?>
<!DOCTYPE svg PUBLIC "-//W3C//DTD SVG 20010904//EN"
 "http://www.w3.org/TR/2001/REC-SVG-20010904/DTD/svg10.dtd">
<svg version="1.0" xmlns="http://www.w3.org/2000/svg"
 width="1200.000000pt" height="660.000000pt" viewBox="0 0 1200.000000 660.000000"
 preserveAspectRatio="xMidYMid meet">
<metadata>
Created by potrace 1.13, written by Peter Selinger 2001-2015
</metadata>
<g transform="translate(0.000000,660.000000) scale(0.100000,-0.100000)"
fill="#000000" stroke="none">
<path d="M1642 5118 c-7 -7 -12 -16 -12 -21 0 -10 -61 -90 -72 -95 -5 -2 -8
-10 -8 -17 0 -8 -13 -34 -30 -58 -16 -25 -30 -50 -30 -55 0 -6 -6 -23 -14 -39
-32 -62 -46 -102 -46 -131 0 -17 -4 -34 -10 -37 -15 -9 -12 -174 5 -220 8 -22
14 -56 15 -76 0 -20 7 -42 15 -49 8 -7 15 -19 15 -27 0 -20 47 -108 81 -153
14 -19 28 -41 30 -47 2 -7 130 -142 284 -299 154 -158 282 -291 284 -297 2 -6
43 -51 91 -101 49 -50 104 -111 123 -136 20 -25 49 -61 65 -80 16 -19 37 -48
48 -65 10 -16 29 -41 41 -55 13 -14 23 -32 23 -41 0 -9 6 -19 14 -22 8 -3 22
-24 32 -46 10 -23 21 -41 26 -41 4 0 8 -8 8 -19 0 -10 7 -24 15 -31 8 -7 15
-23 15 -37 0 -13 7 -26 15 -29 8 -4 15 -18 15 -34 0 -15 7 -41 15 -56 8 -16
15 -38 15 -50 0 -11 4 -24 9 -30 5 -5 11 -25 13 -44 3 -39 32 -54 42 -23 3 10
24 39 46 63 22 25 40 49 40 54 0 4 14 25 30 46 17 21 30 42 30 47 0 6 12 32
27 59 27 47 28 55 27 187 -1 113 -4 140 -18 155 -9 10 -16 28 -16 40 0 11 -4
24 -10 27 -5 3 -10 15 -10 27 0 22 -20 61 -62 122 -16 21 -28 45 -28 51 0 7
-7 15 -15 19 -8 3 -15 14 -15 24 0 10 -9 27 -21 38 -12 10 -28 32 -35 47 -8
15 -37 52 -64 83 -28 30 -50 59 -50 64 0 5 -35 46 -77 91 -43 44 -82 89 -88
99 -5 10 -82 92 -169 184 -88 91 -164 173 -169 183 -6 10 -39 48 -73 85 -35
37 -71 80 -81 95 -9 16 -33 48 -53 73 -54 69 -94 130 -119 182 -13 27 -27 50
-32 54 -5 3 -9 17 -9 32 0 15 -7 36 -15 46 -8 11 -15 32 -15 47 0 15 -4 30 -9
34 -6 3 -13 26 -17 50 -3 25 -10 48 -15 51 -5 3 -9 25 -9 48 0 48 -18 74 -38
54z"/>
<path d="M1130 4572 c0 -5 -21 -36 -46 -68 -55 -71 -154 -267 -154 -306 0 -15
-7 -46 -16 -69 -14 -33 -16 -61 -11 -146 3 -59 11 -111 17 -117 5 -5 10 -22
10 -36 0 -14 7 -35 15 -46 8 -10 15 -31 15 -45 0 -15 7 -32 15 -39 8 -7 15
-17 15 -23 0 -5 11 -25 25 -43 14 -18 25 -37 25 -42 0 -9 102 -126 146 -167
12 -11 45 -47 74 -80 29 -33 153 -161 274 -285 122 -124 239 -247 261 -275 22
-27 61 -75 87 -105 88 -104 175 -232 223 -330 20 -41 43 -88 51 -103 8 -16 14
-37 14 -47 0 -10 4 -21 9 -24 5 -3 12 -18 15 -33 18 -80 41 -143 51 -143 6 0
25 19 42 43 77 108 123 179 123 191 0 8 7 19 15 26 8 7 15 20 15 29 0 9 6 23
13 29 21 22 16 235 -7 307 -35 108 -140 296 -240 428 -25 32 -175 217 -190
233 -6 7 -36 38 -67 70 -30 33 -62 69 -70 81 -8 11 -82 91 -164 177 -83 86
-152 162 -154 169 -2 7 -22 32 -46 57 -23 25 -62 72 -85 105 -24 33 -48 63
-53 66 -26 18 -157 279 -157 313 0 9 -4 24 -10 34 -11 21 -29 99 -38 167 -5
36 -12 51 -24 53 -10 2 -18 -1 -18 -6z"/>
<path d="M9797 4184 c-4 -4 -7 -425 -7 -935 0 -836 2 -927 16 -933 23 -9 247
-7 262 2 10 7 12 201 10 938 l-3 929 -136 3 c-74 1 -138 -1 -142 -4z"/>
<path d="M613 4023 c-4 -10 -23 -38 -43 -63 -20 -25 -45 -63 -57 -85 -12 -22
-30 -56 -41 -76 -17 -31 -32 -74 -73 -205 -12 -39 -12 -251 0 -258 5 -4 12
-25 16 -49 10 -62 87 -213 148 -289 64 -80 176 -200 421 -448 219 -223 447
-481 501 -568 6 -10 26 -42 45 -72 47 -74 130 -246 130 -269 0 -6 4 -19 9 -29
13 -23 41 -117 41 -136 0 -27 22 -29 45 -4 27 30 136 191 157 233 37 73 50
140 45 231 -4 86 -23 178 -45 219 -5 11 -24 48 -41 83 -72 144 -276 422 -431
583 -14 15 -52 55 -86 90 -34 35 -80 87 -104 114 -23 28 -70 79 -104 114 -111
118 -282 335 -349 446 -20 33 -50 97 -66 143 -16 46 -32 86 -35 89 -3 4 -6 16
-6 28 0 13 -7 39 -15 58 -8 20 -15 50 -15 67 0 56 -33 92 -47 53z"/>
<path d="M4150 3770 c-139 -7 -179 -21 -239 -82 -64 -65 -66 -75 -66 -363 l0
-260 28 -47 c29 -49 71 -87 122 -110 22 -10 129 -14 425 -18 l395 -5 0 -135 0
-135 -470 4 c-408 3 -473 1 -483 -12 -9 -10 -12 -55 -10 -153 l3 -139 525 0
c514 0 526 0 570 21 54 26 101 71 126 122 17 33 19 63 19 282 0 227 -2 248
-21 290 -11 25 -36 60 -55 79 -67 66 -63 65 -504 71 l-400 5 -3 137 -3 138
458 2 458 3 6 145 c5 113 4 147 -6 155 -15 12 -675 16 -875 5z"/>
<path d="M6780 3772 c-11 -4 -14 -269 -4 -296 5 -14 52 -16 425 -16 230 0 419
-3 419 -7 0 -5 -192 -226 -425 -493 l-426 -485 3 -80 3 -80 665 -2 c366 -2
671 1 678 6 11 6 12 37 5 152 l-8 144 -415 0 c-305 0 -415 3 -415 11 0 12 109
141 505 599 124 143 251 290 283 328 l57 67 0 75 c0 41 -3 75 -7 76 -21 3
-1334 4 -1343 1z"/>
<path d="M8272 3771 c-9 -6 -12 -44 -10 -157 l3 -149 423 -3 c232 -1 422 -6
422 -10 0 -4 -32 -44 -71 -87 -40 -44 -197 -222 -349 -395 -153 -173 -312
-353 -354 -400 l-76 -85 0 -82 c0 -77 1 -83 23 -88 12 -3 317 -4 677 -3 l655
3 -3 145 c-1 99 -6 146 -14 151 -7 5 -193 5 -414 2 -297 -5 -403 -3 -408 5 -8
13 29 58 518 627 l326 380 0 68 c0 45 -4 69 -12 71 -26 8 -1323 15 -1336 7z"/>
<path d="M5490 3761 c-76 -16 -144 -72 -179 -151 -20 -43 -21 -64 -21 -565 l0
-520 24 -50 c27 -59 98 -128 149 -144 26 -9 187 -13 564 -14 l528 -2 6 130 c4
73 2 135 -3 142 -15 19 -181 26 -598 27 l-395 1 0 135 0 135 435 5 435 5 54
30 c58 32 102 83 123 143 9 26 13 102 13 252 0 262 -7 293 -79 365 -85 85 -87
85 -590 84 -237 -1 -447 -4 -466 -8z m858 -421 c1 -63 0 -125 -3 -138 l-5 -22
-388 2 -387 3 -3 138 -3 137 393 -2 393 -3 3 -115z"/>
<path d="M10474 3759 c-62 -18 -127 -71 -156 -128 l-28 -53 0 -525 c0 -365 3
-537 11 -564 15 -48 60 -103 112 -136 59 -37 173 -44 692 -41 l450 3 3 139 c2
98 -1 143 -10 153 -10 13 -75 14 -496 7 -409 -6 -485 -5 -493 7 -11 17 -12
239 -1 256 6 9 118 13 442 15 424 3 436 4 475 25 54 29 99 78 127 138 22 48
23 60 23 275 -1 186 -4 231 -17 260 -30 65 -74 115 -129 145 l-54 30 -460 2
c-260 1 -474 -2 -491 -8z m876 -439 l0 -140 -393 0 -394 0 -7 131 c-3 72 -4
135 0 140 3 5 171 9 400 9 l394 0 0 -140z"/>
</g>
</svg>
