<?xml version="1.0" standalone="no"?>
<!DOCTYPE svg PUBLIC "-//W3C//DTD SVG 20010904//EN"
 "http://www.w3.org/TR/2001/REC-SVG-20010904/DTD/svg10.dtd">
<svg version="1.0" xmlns="http://www.w3.org/2000/svg"
 width="1200.000000pt" height="660.000000pt" viewBox="0 0 1200.000000 660.000000"
 preserveAspectRatio="xMidYMid meet">
<metadata>
Created by potrace 1.13, written by Peter Selinger 2001-2015
</metadata>
<g transform="translate(0.000000,660.000000) scale(0.100000,-0.100000)"
fill="#000000" stroke="none">
<path d="M1813 4906 c-181 -44 -328 -184 -449 -427 -43 -86 -114 -280 -114
-311 0 -29 -26 -49 -90 -67 -277 -82 -293 -88 -304 -117 -4 -9 -31 -208 -61
-443 -57 -439 -92 -705 -126 -966 -11 -82 -24 -184 -29 -225 -6 -41 -20 -127
-31 -192 -12 -65 -19 -124 -15 -133 3 -8 15 -15 27 -15 23 0 1142 -205 1639
-301 194 -37 143 -42 605 59 176 39 372 80 435 93 63 12 121 28 129 35 11 10
10 28 -7 116 -21 101 -51 277 -72 428 -7 41 -15 100 -20 130 -5 30 -14 89 -20
130 -6 41 -16 102 -21 135 -5 33 -14 94 -20 135 -106 752 -191 1326 -198 1333
-4 4 -68 12 -141 17 l-132 8 -103 101 c-112 111 -122 115 -206 86 -50 -18 -57
-14 -83 55 -53 139 -161 236 -274 247 -36 4 -55 13 -82 39 -65 62 -130 76
-237 50z m116 -115 c10 -6 2 -16 -32 -40 -105 -72 -204 -230 -248 -396 -12
-44 -24 -87 -28 -95 -8 -16 -228 -93 -242 -84 -5 2 3 37 17 77 113 314 276
506 456 536 29 5 55 9 58 10 3 0 11 -3 19 -8z m324 -166 c41 -55 81 -145 70
-156 -8 -8 -119 -49 -133 -49 -4 0 -10 42 -14 93 -3 50 -11 109 -17 130 -5 20
-7 42 -4 47 10 16 64 -20 98 -65z m-214 13 c15 -47 31 -155 31 -210 l0 -46
-117 -37 c-65 -20 -133 -41 -151 -47 -49 -15 -57 -1 -33 60 54 137 133 249
206 294 42 25 52 23 64 -14z m-2 -851 c73 -22 73 -18 8 -213 -32 -97 -65 -178
-72 -181 -8 -3 -24 -1 -36 5 -66 31 -99 37 -197 37 -94 0 -108 -2 -138 -23
-61 -44 -79 -118 -43 -177 10 -17 63 -64 117 -105 194 -146 264 -239 290 -385
20 -112 -7 -258 -65 -360 -72 -125 -197 -205 -340 -218 -72 -6 -195 8 -256 28
-123 42 -265 135 -265 173 0 30 73 262 83 262 5 0 39 -20 76 -44 157 -104 277
-112 331 -23 46 74 11 159 -105 256 -90 75 -163 154 -189 204 -64 127 -56 292
21 456 83 176 271 300 493 325 62 7 244 -3 287 -17z"/>
<path d="M10205 4359 c-27 -4 -66 -12 -85 -17 -19 -6 -46 -14 -60 -18 -90 -27
-209 -132 -269 -237 -36 -63 -77 -186 -87 -260 -9 -68 -22 -77 -109 -77 l-73
0 -11 -47 c-7 -27 -13 -57 -15 -68 -2 -11 -9 -46 -16 -78 -16 -84 -14 -87 75
-87 65 0 75 -2 75 -17 0 -15 -38 -220 -55 -298 -2 -11 -18 -96 -35 -190 -16
-93 -34 -183 -40 -200 -5 -16 -19 -88 -30 -160 -12 -71 -25 -137 -30 -146 -5
-9 -6 -20 -3 -23 4 -3 89 -6 190 -6 l183 0 11 26 c5 15 12 43 14 63 3 20 10
52 15 71 5 19 32 163 60 320 28 157 59 332 70 390 10 58 22 119 25 137 l6 32
127 3 127 3 18 90 c23 114 27 135 30 160 2 19 -5 20 -116 23 -135 3 -136 4
-117 84 17 68 56 133 104 172 33 27 45 31 99 31 34 0 77 -2 96 -5 l34 -5 18
70 c10 39 27 105 39 148 11 43 18 82 15 87 -4 6 -19 10 -34 10 -15 0 -31 4
-36 9 -13 12 -145 18 -210 10z"/>
<path d="M5178 4329 c-6 -4 -28 -105 -49 -225 -21 -121 -43 -237 -48 -259 -6
-22 -22 -107 -36 -190 -52 -305 -66 -381 -75 -410 -4 -16 -18 -86 -30 -155
-12 -69 -28 -156 -36 -195 -8 -38 -19 -90 -25 -115 -10 -50 -59 -307 -62 -330
-2 -13 26 -15 186 -18 144 -2 189 0 192 10 5 13 53 263 59 308 2 14 8 45 14
70 6 25 20 101 32 170 23 142 39 197 83 290 38 81 73 124 129 161 70 47 159
34 186 -26 7 -14 12 -61 11 -103 0 -69 -4 -97 -25 -207 -3 -16 -6 -37 -8 -45
-1 -8 -5 -22 -8 -30 -3 -8 -18 -82 -33 -165 -14 -82 -28 -159 -31 -170 -2 -11
-13 -65 -23 -120 -11 -55 -20 -105 -21 -110 -7 -34 -1 -35 184 -35 191 0 194
1 202 43 2 12 15 85 29 162 13 77 36 208 51 290 14 83 29 161 35 175 5 14 11
45 14 70 2 25 9 70 15 100 14 77 13 267 -3 317 -22 73 -69 129 -139 164 -55
28 -74 32 -143 33 -119 1 -226 -39 -322 -120 -28 -24 -54 -44 -58 -44 -4 0 -4
15 -1 33 4 17 8 43 11 57 9 50 53 266 59 290 7 28 9 40 31 165 9 50 21 98 26
108 12 21 3 56 -14 58 -46 5 -351 3 -359 -2z"/>
<path d="M9206 4308 c-81 -22 -156 -128 -156 -220 0 -46 42 -131 77 -156 95
-68 273 -14 319 95 18 42 18 145 0 187 -17 41 -67 80 -121 95 -47 13 -66 13
-119 -1z"/>
<path d="M6830 3780 c-226 -36 -425 -190 -539 -417 -17 -34 -45 -111 -63 -170
-28 -96 -32 -123 -32 -238 -1 -143 9 -193 57 -290 41 -83 79 -129 143 -171 84
-56 146 -75 263 -81 173 -9 278 18 418 110 138 91 244 235 302 411 39 119 43
144 48 291 5 121 -5 197 -33 262 -8 17 -14 34 -14 38 0 17 -84 126 -117 152
-114 89 -277 128 -433 103z m93 -299 c46 -11 82 -42 105 -91 26 -53 22 -241
-7 -343 -12 -44 -30 -97 -41 -120 -11 -22 -20 -45 -20 -49 0 -20 -84 -120
-122 -146 -88 -58 -185 -26 -235 76 -24 50 -27 67 -26 147 0 49 6 108 11 130
49 188 82 256 161 336 53 52 67 60 126 67 6 1 27 -2 48 -7z"/>
<path d="M8285 3776 c-88 -21 -164 -63 -229 -126 -64 -62 -84 -73 -71 -42 14
34 22 147 11 154 -6 4 -80 8 -164 8 l-152 0 -12 -27 c-6 -16 -12 -44 -14 -63
-2 -19 -5 -51 -8 -70 -3 -19 -7 -53 -10 -75 -12 -92 -76 -466 -96 -560 -14
-65 -33 -164 -59 -300 -11 -60 -23 -121 -26 -135 -4 -14 -20 -92 -35 -175 -44
-233 -69 -357 -81 -396 -7 -20 -8 -42 -5 -48 11 -17 370 -15 383 2 5 6 28 124
51 261 22 137 45 253 50 258 5 5 25 1 48 -8 81 -34 293 -28 379 10 17 8 41 19
55 25 179 81 329 276 406 527 37 121 39 138 38 319 0 159 0 161 -33 238 -54
127 -145 203 -273 227 -63 12 -90 12 -153 -4z m-6 -325 c29 -15 43 -32 61 -73
20 -47 22 -63 17 -153 -16 -275 -178 -525 -339 -525 -56 0 -111 16 -131 38
-14 15 -13 30 9 157 14 77 27 156 29 175 3 19 9 46 14 60 5 14 15 45 22 70 23
80 96 192 147 226 67 46 115 53 171 25z"/>
<path d="M4350 3766 c-173 -52 -256 -107 -319 -213 -49 -83 -65 -153 -58 -250
5 -60 12 -83 42 -132 41 -69 102 -126 189 -178 34 -20 77 -49 97 -65 41 -31
72 -97 63 -132 -15 -59 -118 -115 -186 -101 -16 4 -39 8 -51 10 -42 6 -138 35
-168 51 -17 8 -37 14 -46 12 -16 -3 -107 -254 -97 -269 2 -4 39 -21 82 -37
190 -74 457 -67 615 15 157 81 237 214 237 391 -1 145 -53 224 -225 339 -60
40 -124 88 -142 105 -57 55 -39 124 44 167 32 16 160 13 228 -5 88 -24 97 -23
107 11 4 17 23 74 40 127 24 72 29 101 21 109 -6 6 -37 20 -70 32 -75 26 -332
35 -403 13z"/>
<path d="M10551 3753 l-183 -3 6 -23 c18 -69 38 -170 61 -307 14 -85 30 -171
36 -190 5 -19 30 -152 55 -295 25 -143 47 -269 50 -280 26 -120 25 -135 -3
-186 -57 -105 -232 -247 -347 -281 -47 -15 -53 -27 -33 -81 8 -23 20 -64 27
-92 7 -27 17 -54 21 -59 5 -6 9 -20 9 -32 0 -13 5 -26 10 -29 6 -3 10 -14 10
-25 0 -39 46 -36 150 13 226 106 403 304 608 682 96 174 554 1154 550 1174 -3
14 -27 16 -178 19 -96 1 -184 0 -195 -2 -15 -4 -28 -27 -49 -83 -15 -43 -48
-129 -72 -191 -24 -62 -44 -116 -44 -121 0 -5 -11 -33 -24 -62 -13 -30 -36
-90 -52 -134 -83 -236 -103 -288 -104 -270 -4 81 -11 154 -17 175 -4 14 -8 43
-9 65 -2 22 -15 167 -31 323 -22 218 -31 285 -43 292 -8 5 -17 9 -20 8 -3 -2
-88 -4 -189 -5z"/>
<path d="M9000 3748 c-1 -5 -30 -171 -36 -198 -2 -14 -6 -34 -8 -45 -2 -11 -6
-27 -8 -35 -3 -8 -11 -46 -17 -85 -6 -38 -22 -128 -36 -200 -13 -71 -36 -191
-49 -265 -14 -74 -33 -169 -42 -210 -30 -139 -52 -265 -47 -272 2 -5 87 -8
189 -8 139 0 186 3 189 13 3 6 30 152 60 322 31 171 58 319 60 330 2 11 22
115 45 230 22 116 49 255 60 310 11 55 20 103 20 108 0 6 -380 11 -380 5z"/>
</g>
</svg>
