<?xml version="1.0" standalone="no"?>
<!DOCTYPE svg PUBLIC "-//W3C//DTD SVG 20010904//EN"
 "http://www.w3.org/TR/2001/REC-SVG-20010904/DTD/svg10.dtd">
<svg version="1.0" xmlns="http://www.w3.org/2000/svg"
 width="1200.000000pt" height="660.000000pt" viewBox="0 0 1200.000000 660.000000"
 preserveAspectRatio="xMidYMid meet">
<metadata>
Created by potrace 1.13, written by Peter Selinger 2001-2015
</metadata>
<g transform="translate(0.000000,660.000000) scale(0.100000,-0.100000)"
fill="#000000" stroke="none">
<path d="M5631 6104 c-232 -51 -467 -238 -649 -517 -127 -195 -269 -532 -322
-767 -12 -54 -33 -90 -53 -90 -23 0 -544 -163 -580 -182 -65 -33 -55 19 -162
-818 -231 -1812 -320 -2485 -340 -2580 -7 -38 -9 -69 -4 -74 5 -5 77 -22 161
-37 182 -33 607 -111 913 -169 414 -78 740 -139 1330 -249 522 -97 591 -110
665 -125 95 -20 176 -20 265 0 112 25 336 74 380 83 22 5 128 28 235 51 397
85 570 122 780 166 118 25 218 50 222 57 4 7 5 19 2 27 -12 34 -35 175 -135
845 -86 577 -98 658 -133 905 -20 140 -40 275 -45 300 -6 25 -20 117 -32 205
-11 88 -27 201 -35 250 -7 50 -29 203 -49 340 -19 138 -39 270 -44 295 -6 25
-20 117 -32 205 -11 88 -32 234 -45 325 -13 91 -33 230 -44 310 -26 184 -27
187 -49 199 -10 6 -122 17 -247 26 l-229 15 -175 175 c-207 207 -197 202 -344
155 -54 -17 -102 -28 -106 -23 -5 4 -24 48 -44 97 -106 264 -275 420 -486 447
-84 11 -86 12 -142 65 -87 83 -141 104 -263 103 -55 -1 -129 -7 -164 -15z
m217 -190 c36 -10 25 -26 -50 -74 -230 -147 -408 -466 -484 -867 -3 -18 -22
-27 -107 -53 -56 -18 -153 -48 -215 -67 -62 -20 -116 -32 -120 -29 -14 14 98
306 179 468 142 282 296 462 478 557 104 54 249 83 319 65z m427 -178 c98 -41
180 -146 248 -319 28 -69 28 -87 1 -87 -8 0 -22 -4 -32 -9 -37 -20 -193 -63
-207 -57 -12 4 -15 29 -14 139 0 96 -5 158 -20 222 -10 50 -20 95 -21 100 -6
29 -1 30 45 11z m-235 -97 c12 -38 25 -96 31 -127 12 -73 28 -293 22 -308 -2
-7 -37 -21 -76 -33 -40 -13 -83 -26 -97 -31 -14 -5 -72 -23 -130 -41 -58 -17
-132 -40 -164 -50 -64 -21 -96 -24 -96 -10 0 9 18 67 30 96 4 11 20 52 35 90
34 91 105 214 167 292 70 85 204 191 245 193 7 0 22 -32 33 -71z m-205 -1454
c103 -7 111 -8 233 -46 70 -22 72 -23 72 -55 0 -18 -4 -36 -10 -39 -5 -3 -10
-17 -10 -30 0 -13 -4 -27 -10 -30 -5 -3 -10 -15 -10 -26 0 -10 -4 -27 -10 -37
-5 -9 -42 -114 -81 -232 -39 -118 -75 -219 -80 -224 -5 -6 -25 -2 -51 9 -24 9
-52 21 -63 25 -154 60 -371 73 -490 29 -103 -38 -167 -124 -168 -224 -1 -101
46 -158 283 -337 317 -238 421 -380 466 -633 39 -220 -16 -488 -139 -675 -65
-98 -200 -217 -297 -262 -135 -63 -186 -72 -375 -72 -152 0 -181 2 -271 26
-205 54 -366 139 -497 261 -53 50 -52 43 -16 162 54 179 79 265 90 305 18 68
30 76 65 47 112 -92 279 -180 399 -209 76 -19 94 -20 143 -10 192 40 236 265
87 439 -19 23 -86 84 -148 135 -61 51 -132 111 -155 133 -97 89 -183 232 -213
355 -18 71 -18 295 0 380 66 324 272 589 564 725 93 44 132 56 282 91 40 9
276 32 295 28 8 -1 60 -6 115 -9z m995 -5 c0 -5 8 -10 18 -10 10 0 24 -9 32
-20 8 -11 22 -20 32 -20 10 0 18 -7 18 -16 0 -8 23 -37 50 -64 28 -27 50 -54
50 -61 0 -6 10 -20 21 -30 12 -11 19 -25 15 -34 -3 -9 0 -15 10 -15 11 0 15
-6 11 -20 -3 -14 0 -20 10 -20 10 0 14 -6 10 -20 -3 -11 -1 -20 5 -20 17 0 40
-30 34 -45 -3 -8 2 -21 10 -30 9 -9 13 -22 10 -30 -3 -9 1 -15 10 -15 11 0 15
-6 11 -20 -3 -10 2 -25 10 -31 8 -7 12 -21 10 -31 -3 -12 0 -18 10 -18 10 0
14 -6 10 -20 -3 -10 2 -25 10 -31 8 -7 12 -21 10 -30 -3 -10 2 -24 10 -30 8
-7 12 -21 10 -30 -3 -10 2 -24 10 -30 8 -7 13 -25 11 -39 -1 -15 3 -35 11 -43
7 -9 11 -26 10 -39 -2 -13 3 -38 10 -55 7 -18 11 -42 8 -53 -3 -10 2 -25 10
-31 9 -8 13 -26 12 -50 -2 -20 3 -44 10 -52 7 -9 11 -35 10 -61 -2 -25 3 -51
10 -60 7 -9 12 -36 10 -70 -2 -32 2 -61 10 -70 7 -8 11 -38 10 -73 -1 -32 3
-69 10 -81 7 -13 11 -55 10 -100 -1 -43 3 -88 10 -99 18 -34 15 -517 -3 -532
-8 -7 -12 -21 -9 -31 3 -13 0 -20 -8 -20 -11 0 -13 -13 -11 -50 3 -38 1 -50
-10 -50 -10 0 -13 -9 -10 -30 3 -22 0 -30 -11 -30 -10 0 -13 -6 -10 -19 4 -17
-13 -29 -52 -35 -5 -1 -9 -9 -7 -19 3 -18 -19 -47 -37 -47 -6 0 -8 -7 -5 -15
7 -17 -41 -68 -59 -62 -7 2 -25 -2 -40 -10 -16 -8 -38 -13 -50 -13 -35 3 -43
-1 -22 -11 17 -7 16 -9 -10 -8 -44 2 -52 -1 -30 -11 19 -8 19 -9 -2 -9 -13 -1
-23 -5 -23 -11 0 -5 -22 -10 -50 -10 -27 0 -50 -4 -50 -10 0 -5 -7 -10 -15
-10 -8 0 -15 5 -15 10 0 6 -25 10 -56 10 -36 0 -61 5 -70 15 -14 13 -14 15 1
15 9 0 14 4 11 9 -3 5 -15 7 -26 4 -28 -7 -80 16 -81 36 -1 13 -2 13 -6 -1 -6
-25 -33 -23 -33 2 0 11 -4 20 -10 20 -5 0 -10 9 -10 20 0 11 -5 20 -11 20 -6
0 -10 12 -9 27 3 47 1 53 -21 53 -19 0 -20 5 -19 118 1 64 1 123 1 130 -1 6
-10 12 -21 12 -20 0 -21 5 -20 190 1 131 -2 195 -10 205 -7 8 -10 41 -9 79 1
40 -2 71 -10 80 -7 8 -11 35 -10 60 2 25 -3 51 -10 60 -7 8 -11 30 -10 49 2
19 -3 42 -10 50 -7 9 -11 31 -10 50 2 19 -3 42 -10 51 -8 10 -12 35 -9 71 2
39 -1 55 -9 55 -10 0 -13 36 -13 145 0 112 3 145 13 145 9 0 12 11 9 36 -3 23
0 39 9 45 8 4 12 22 11 43 -2 25 2 36 11 36 9 0 12 9 9 30 -3 22 0 30 11 30
10 0 13 6 10 18 -2 10 2 24 10 31 8 6 13 21 10 31 -4 14 0 20 10 20 10 0 13 6
10 18 -2 10 2 24 10 31 8 6 13 21 10 31 -4 13 0 20 9 20 10 0 13 8 10 30 -3
21 0 30 10 30 10 0 13 9 10 30 -3 18 0 30 7 30 6 0 11 14 11 30 0 17 5 30 10
30 6 0 10 18 10 40 0 22 5 40 10 40 6 0 10 18 10 40 0 22 5 40 10 40 6 0 10
23 10 50 0 28 5 50 10 50 6 0 10 14 10 30 0 17 5 30 10 30 6 0 10 7 10 15 0
31 24 44 78 45 28 0 52 -4 52 -10z"/>
<path d="M6778 4133 c18 -2 45 -2 60 0 15 2 0 4 -33 4 -33 0 -45 -2 -27 -4z"/>
<path d="M6730 4109 c0 -5 5 -7 10 -4 6 3 10 8 10 11 0 2 -4 4 -10 4 -5 0 -10
-5 -10 -11z"/>
<path d="M6865 4110 c4 -6 11 -8 16 -5 14 9 11 15 -7 15 -8 0 -12 -5 -9 -10z"/>
<path d="M6710 4083 c0 -12 -6 -23 -12 -26 -7 -2 -10 -7 -7 -11 12 -12 38 29
29 44 -8 12 -10 11 -10 -7z"/>
<path d="M6950 4045 c30 -30 56 -55 59 -55 8 0 -94 108 -104 109 -5 1 15 -24
45 -54z"/>
<path d="M7020 3956 c0 -2 7 -9 15 -16 13 -11 14 -10 9 4 -5 14 -24 23 -24 12z"/>
<path d="M7224 1558 l-19 -23 23 19 c21 18 27 26 19 26 -2 0 -12 -10 -23 -22z"/>
</g>
</svg>
