<?xml version="1.0" standalone="no"?>
<!DOCTYPE svg PUBLIC "-//W3C//DTD SVG 20010904//EN"
 "http://www.w3.org/TR/2001/REC-SVG-20010904/DTD/svg10.dtd">
<svg version="1.0" xmlns="http://www.w3.org/2000/svg"
 width="1200.000000pt" height="660.000000pt" viewBox="0 0 1200.000000 660.000000"
 preserveAspectRatio="xMidYMid meet">
<metadata>
Created by potrace 1.13, written by Peter Selinger 2001-2015
</metadata>
<g transform="translate(0.000000,660.000000) scale(0.100000,-0.100000)"
fill="#000000" stroke="none">
<path d="M8308 5181 c-130 -43 -230 -130 -287 -251 -35 -72 -36 -79 -36 -190
0 -112 1 -117 37 -193 126 -267 457 -349 696 -173 66 49 130 138 159 218 27
79 24 234 -6 310 -46 118 -152 224 -268 269 -81 31 -217 36 -295 10z"/>
<path d="M1592 4979 c-595 -49 -1021 -343 -1165 -804 -72 -231 -60 -524 31
-730 122 -278 354 -475 688 -584 154 -50 427 -100 551 -102 77 0 189 -21 238
-44 200 -93 216 -333 30 -467 -94 -69 -213 -99 -420 -105 -311 -11 -699 53
-990 162 -51 19 -98 35 -104 35 -8 0 -11 -114 -9 -418 l3 -417 86 -21 c122
-31 306 -61 514 -85 160 -18 225 -20 590 -16 379 3 418 5 510 26 299 66 538
188 712 360 78 78 172 207 205 281 51 113 63 147 77 215 6 28 15 71 21 97 5
26 10 95 10 155 -1 256 -69 458 -218 644 -168 210 -436 358 -792 438 -98 22
-320 51 -390 51 -134 0 -274 57 -330 135 -33 47 -35 53 -35 135 0 101 15 140
76 195 49 44 120 77 209 96 81 17 397 18 493 1 37 -7 97 -17 135 -23 188 -32
414 -92 587 -158 61 -23 115 -43 120 -44 6 -1 11 139 13 399 l2 402 -72 25
c-392 138 -931 202 -1376 166z"/>
<path d="M3900 4896 c-250 -51 -461 -94 -468 -97 -10 -3 -13 -332 -13 -1689 0
-927 0 -1691 1 -1697 0 -19 949 -19 952 0 0 6 0 242 -2 523 -2 346 1 513 8
518 17 10 117 -165 185 -324 8 -19 24 -56 36 -82 11 -26 21 -54 21 -61 0 -7 4
-17 8 -23 4 -5 14 -27 21 -49 7 -22 16 -49 21 -60 14 -32 67 -212 96 -325 14
-58 31 -111 36 -118 8 -9 131 -12 577 -10 l566 3 -3 30 c-5 46 -87 263 -165
440 -89 198 -292 604 -390 775 -11 19 -29 51 -40 72 l-20 36 39 48 c22 26 53
66 69 89 84 119 115 165 133 196 11 19 43 72 71 119 61 100 198 367 248 483
48 112 123 309 123 325 0 9 -115 12 -544 12 -423 0 -546 -3 -553 -12 -5 -7
-25 -51 -43 -98 -50 -125 -178 -377 -231 -452 -11 -14 -19 -29 -19 -32 0 -8
-100 -158 -110 -166 -3 -3 -17 -21 -30 -40 -13 -19 -27 -37 -30 -40 -3 -3 -18
-22 -33 -42 -15 -21 -33 -38 -39 -38 -8 0 -9 257 -4 940 6 777 5 940 -6 939
-7 0 -218 -42 -468 -93z"/>
<path d="M9768 4906 c-247 -46 -450 -85 -453 -88 -4 -3 -7 -771 -8 -1707 -2
-1694 -2 -1702 18 -1707 11 -2 219 -3 463 -2 l444 3 0 1790 c1 1037 -3 1790
-8 1791 -5 1 -210 -35 -456 -80z"/>
<path d="M11125 4905 c-247 -46 -450 -84 -450 -85 0 0 0 -768 0 -1708 l0
-1707 464 0 465 0 0 1790 c1 1575 -1 1790 -14 1792 -8 1 -217 -36 -465 -82z"/>
<path d="M7199 4045 c-528 -72 -850 -304 -984 -707 -58 -178 -58 -162 -65
-1073 -4 -519 -3 -845 3 -853 8 -9 109 -12 471 -10 l461 3 0 725 c0 802 0 797
68 938 55 114 210 194 402 208 39 3 85 7 103 10 l32 5 0 378 c0 336 -2 380
-16 385 -28 11 -377 4 -475 -9z"/>
<path d="M7981 4013 c0 -5 -1 -593 -3 -1308 l-3 -1300 465 0 465 0 -4 1305 -3
1305 -459 3 c-252 1 -459 -1 -458 -5z"/>
</g>
</svg>
