<?xml version="1.0" standalone="no"?>
<!DOCTYPE svg PUBLIC "-//W3C//DTD SVG 20010904//EN"
 "http://www.w3.org/TR/2001/REC-SVG-20010904/DTD/svg10.dtd">
<svg version="1.0" xmlns="http://www.w3.org/2000/svg"
 width="1200.000000pt" height="660.000000pt" viewBox="0 0 1200.000000 660.000000"
 preserveAspectRatio="xMidYMid meet">
<metadata>
Created by potrace 1.13, written by Peter Selinger 2001-2015
</metadata>
<g transform="translate(0.000000,660.000000) scale(0.100000,-0.100000)"
fill="#000000" stroke="none">
<path d="M10422 5068 c-7 -7 -12 -16 -12 -20 0 -5 -34 -79 -76 -166 -42 -86
-82 -174 -91 -194 -8 -21 -21 -38 -29 -38 -13 0 -120 48 -289 129 -44 22 -84
35 -89 31 -5 -5 0 -28 13 -54 11 -25 21 -48 21 -51 0 -2 11 -28 24 -57 63
-139 96 -220 96 -233 0 -18 -39 -43 -228 -147 -160 -87 -174 -96 -167 -108 6
-9 86 -23 270 -45 72 -9 133 -20 137 -24 4 -3 -4 -45 -18 -91 -14 -47 -36
-123 -50 -170 -14 -47 -31 -107 -39 -134 -27 -88 -18 -88 77 2 181 170 215
201 245 226 l32 27 43 -58 c24 -33 77 -107 118 -166 41 -59 79 -107 86 -107
13 0 24 106 25 254 1 56 4 126 7 156 l7 55 210 13 c219 13 240 16 231 31 -4 5
-76 63 -161 127 -109 83 -155 124 -153 136 2 9 67 98 146 197 78 99 142 182
142 185 0 13 -40 4 -135 -30 -247 -89 -298 -105 -304 -97 -7 7 -33 200 -50
367 -6 61 -17 76 -39 54z"/>
<path d="M6080 3745 c-85 -7 -163 -14 -172 -14 -20 -1 -26 -22 -58 -196 -53
-289 -71 -381 -79 -395 -7 -13 -50 -15 -292 -15 -303 0 -371 -8 -549 -65 -242
-78 -447 -244 -554 -450 -128 -245 -142 -549 -34 -739 52 -93 159 -191 259
-239 152 -74 214 -86 449 -85 190 0 213 2 305 26 282 75 469 242 575 514 31
79 53 168 96 385 121 624 246 1242 250 1250 7 11 -15 38 -30 37 -6 -1 -81 -8
-166 -14z m-392 -881 c6 -2 12 -16 12 -31 0 -44 -117 -609 -141 -680 -49 -147
-168 -265 -306 -302 -174 -47 -377 -22 -475 59 -21 18 -51 59 -70 97 -30 62
-32 72 -31 167 1 124 27 230 83 341 130 260 388 374 805 358 61 -3 116 -6 123
-9z"/>
<path d="M9754 3478 c-231 -269 -669 -720 -878 -903 -58 -51 -70 -57 -80 -44
-6 8 -50 60 -97 115 -47 54 -136 162 -198 239 -61 77 -125 157 -142 178 l-30
37 -170 0 c-145 0 -169 -2 -169 -15 0 -29 260 -405 442 -638 60 -77 107 -145
104 -153 -13 -34 -520 -390 -731 -514 -203 -119 -207 -125 -72 -115 303 22
664 148 951 332 37 24 71 43 75 41 4 -2 55 -57 112 -123 58 -66 163 -180 233
-252 l128 -133 232 0 c128 0 236 3 239 7 8 7 -35 56 -202 228 -64 66 -177 185
-251 265 -74 80 -152 164 -174 187 l-39 42 104 108 c307 318 540 694 694 1120
46 125 33 124 -81 -9z"/>
<path d="M3185 3105 c-485 -60 -837 -348 -946 -773 -81 -318 29 -588 293 -716
153 -75 231 -90 443 -90 132 0 201 5 260 18 244 53 434 153 589 311 108 110
180 227 229 374 34 101 40 131 44 236 4 92 2 135 -11 185 -65 255 -269 412
-595 455 -124 17 -171 17 -306 0z m182 -266 c135 -18 225 -79 278 -187 68
-139 34 -374 -80 -552 -109 -170 -262 -267 -455 -289 -153 -17 -290 9 -367 69
-211 166 -106 643 188 849 103 73 191 103 346 120 6 0 47 -4 90 -10z"/>
<path d="M7160 3109 c-404 -33 -744 -255 -896 -583 -54 -119 -75 -207 -81
-346 -6 -146 4 -209 51 -306 108 -225 328 -354 673 -395 174 -21 389 20 590
112 54 25 103 57 103 67 0 4 -87 5 -194 3 -214 -3 -326 7 -453 44 -208 60
-331 178 -368 352 -17 80 -19 149 -5 158 6 3 58 -2 118 -12 151 -25 490 -25
616 1 295 59 476 174 558 352 19 41 23 66 23 154 0 96 -2 110 -29 163 -70 138
-216 214 -451 237 -119 11 -116 11 -255 -1z m270 -267 c70 -34 95 -75 94 -152
0 -30 -8 -69 -17 -86 -36 -71 -137 -132 -264 -160 -140 -31 -500 -27 -589 7
l-24 9 29 57 c99 193 283 322 501 354 96 13 208 1 270 -29z"/>
<path d="M10675 3113 c-16 -2 -66 -10 -110 -19 -413 -78 -739 -363 -847 -739
-19 -68 -23 -103 -22 -230 0 -130 3 -158 22 -210 77 -205 256 -342 517 -392
108 -21 363 -21 470 0 245 48 440 146 607 305 152 145 243 321 295 567 37 177
-29 388 -164 521 -136 135 -350 206 -613 202 -69 0 -138 -3 -155 -5z m223
-273 c202 -47 308 -221 273 -449 -46 -292 -235 -514 -497 -581 -131 -34 -285
-24 -388 24 -65 29 -112 77 -145 146 -23 49 -26 67 -25 160 1 332 228 630 526
695 75 16 196 18 256 5z"/>
<path d="M1440 3090 c-296 -36 -490 -107 -619 -226 -86 -80 -123 -155 -129
-262 -6 -98 11 -152 65 -212 76 -85 163 -116 443 -156 263 -38 315 -54 358
-109 62 -78 13 -209 -101 -266 -112 -57 -341 -86 -557 -69 -207 16 -340 30
-393 42 -60 13 -69 6 -91 -77 -8 -33 -21 -79 -28 -102 -6 -23 -10 -45 -6 -48
8 -8 103 -31 183 -44 39 -7 95 -16 125 -21 145 -24 386 -33 534 -21 326 27
522 98 659 237 128 130 176 367 102 503 -63 115 -179 168 -471 215 -264 43
-323 61 -363 112 -27 35 -28 93 0 128 50 63 180 109 364 126 127 12 446 12
555 1 41 -4 80 -6 87 -4 16 6 87 203 76 214 -30 30 -622 59 -793 39z"/>
</g>
</svg>
