<?xml version="1.0" standalone="no"?>
<!DOCTYPE svg PUBLIC "-//W3C//DTD SVG 20010904//EN"
 "http://www.w3.org/TR/2001/REC-SVG-20010904/DTD/svg10.dtd">
<svg version="1.0" xmlns="http://www.w3.org/2000/svg"
 width="1200.000000pt" height="660.000000pt" viewBox="0 0 1200.000000 660.000000"
 preserveAspectRatio="xMidYMid meet">
<metadata>
Created by potrace 1.13, written by Peter Selinger 2001-2015
</metadata>
<g transform="translate(0.000000,660.000000) scale(0.100000,-0.100000)"
fill="#000000" stroke="none">
<path d="M3955 5043 c-142 -22 -315 -92 -445 -178 -276 -183 -521 -533 -645
-920 -20 -65 -28 -96 -55 -217 -15 -69 -12 -283 5 -347 50 -191 197 -323 405
-367 105 -22 345 -15 452 14 333 90 597 332 797 731 112 224 177 416 206 610
18 116 18 164 0 264 -35 196 -149 327 -340 387 -56 18 -99 23 -210 25 -77 2
-153 1 -170 -2z m95 -458 c53 -27 70 -64 70 -152 0 -91 -12 -144 -71 -324
-118 -354 -247 -574 -374 -633 -70 -34 -192 -37 -242 -6 -89 54 -90 203 -4
466 121 370 271 593 436 652 45 16 152 14 185 -3z"/>
<path d="M7170 5031 c-291 -62 -551 -247 -765 -546 -118 -164 -248 -450 -305
-671 -30 -113 -38 -326 -16 -418 47 -199 195 -338 406 -382 99 -20 293 -20
396 1 372 77 653 324 864 762 34 71 66 138 71 151 56 138 76 199 109 327 29
115 36 300 16 395 -44 208 -180 339 -399 384 -101 21 -269 20 -377 -3z m160
-449 c53 -26 71 -71 66 -162 -10 -155 -114 -470 -229 -690 -105 -204 -199
-280 -348 -280 -88 0 -131 21 -162 80 -41 79 2 308 107 570 99 246 216 408
338 469 74 37 169 43 228 13z"/>
<path d="M10483 5023 c-447 -2 -813 -6 -813 -10 0 -4 15 -23 34 -43 86 -88
136 -219 136 -354 l0 -66 176 0 176 0 -6 -32 c-3 -18 -125 -358 -269 -754
-145 -397 -261 -726 -259 -733 6 -17 526 -16 539 2 6 6 26 57 46 112 19 55 67
188 105 295 287 803 376 1049 388 1079 l14 34 344 -5 c190 -3 349 -2 354 1 5
3 17 26 25 51 9 25 30 83 47 130 18 47 35 96 40 110 11 36 40 111 52 137 6 12
8 29 5 37 -6 14 -29 16 -164 14 -87 -2 -524 -4 -970 -5z"/>
<path d="M2080 5013 c-154 -23 -269 -75 -366 -165 -109 -103 -193 -245 -262
-446 -30 -91 -36 -121 -36 -197 -1 -109 14 -144 98 -223 68 -64 144 -101 305
-148 136 -39 165 -54 187 -95 19 -37 18 -51 -8 -105 -26 -56 -64 -81 -135 -90
-30 -3 -336 -7 -680 -8 l-625 -1 -13 -35 c-86 -228 -166 -463 -159 -469 5 -4
342 -4 749 -1 692 7 746 9 830 27 245 55 418 165 536 340 68 101 99 169 135
302 52 190 28 327 -74 426 -65 64 -166 108 -350 156 -30 7 -69 26 -88 44 -67
57 -53 151 28 200 31 19 56 20 440 25 223 3 408 7 411 10 2 3 40 50 84 105
103 130 263 278 351 324 12 6 22 16 22 21 0 9 -1321 12 -1380 3z"/>
<path d="M5430 5004 c-36 -8 -103 -33 -150 -55 -68 -33 -101 -58 -165 -123
-104 -105 -152 -198 -245 -476 -10 -30 -33 -93 -50 -140 -17 -47 -40 -110 -50
-140 -10 -30 -33 -93 -50 -140 -59 -162 -72 -195 -80 -220 -4 -14 -22 -63 -40
-110 -17 -47 -49 -132 -70 -190 -21 -58 -61 -165 -88 -238 -34 -90 -46 -135
-38 -138 6 -2 141 -3 300 -2 l288 3 99 280 c55 154 115 325 135 380 19 55 39
104 43 108 5 5 123 8 262 8 140 -1 259 2 264 6 6 5 22 42 37 83 14 41 45 127
67 190 23 63 39 121 36 129 -4 11 -51 12 -248 10 -133 -2 -247 0 -254 4 -9 5
-4 29 19 90 16 45 34 94 38 109 15 49 44 87 76 103 27 12 87 15 358 15 l325 0
57 73 c32 39 92 105 133 146 72 69 230 194 279 220 12 6 22 16 22 21 0 6 -229
10 -622 9 -492 -1 -637 -4 -688 -15z"/>
<path d="M8391 4998 c-11 -29 -79 -222 -132 -375 -22 -65 -47 -136 -56 -158
-8 -22 -23 -65 -33 -95 -27 -79 -70 -202 -80 -225 -5 -11 -16 -40 -24 -65 -8
-25 -29 -83 -46 -130 -18 -47 -35 -96 -40 -110 -5 -14 -23 -63 -40 -110 -17
-47 -35 -96 -40 -110 -5 -14 -23 -63 -40 -110 -135 -361 -170 -457 -170 -469
0 -8 81 -11 301 -9 l302 3 79 220 c89 247 116 321 128 350 5 11 14 38 21 60
24 74 42 72 58 -5 13 -67 131 -592 137 -612 5 -17 29 -18 325 -18 175 0 319 3
319 6 0 9 -45 174 -92 339 -54 191 -93 304 -139 403 -22 46 -39 89 -39 95 1 7
49 35 108 64 235 115 376 272 453 508 19 55 24 93 24 175 0 95 -3 111 -28 161
-49 102 -145 170 -295 212 -72 20 -105 21 -514 25 l-438 3 -9 -23z m584 -389
c64 -10 82 -17 111 -44 27 -26 34 -40 34 -71 0 -122 -97 -279 -204 -332 -76
-39 -277 -59 -289 -29 -2 7 6 42 20 77 14 36 38 100 54 143 76 202 93 243 107
255 20 15 69 15 167 1z"/>
<path d="M903 2805 c-50 -22 -95 -125 -69 -160 18 -24 114 -25 151 -1 29 19
64 87 65 123 0 47 -79 68 -147 38z"/>
<path d="M1241 2802 c-46 -23 -71 -59 -78 -111 -7 -53 2 -61 80 -61 51 0 62 4
87 28 31 31 56 101 47 126 -14 36 -84 45 -136 18z"/>
<path d="M7368 2544 c-134 -32 -236 -112 -295 -232 -31 -63 -38 -87 -38 -137
0 -82 30 -126 120 -180 106 -64 150 -99 153 -124 5 -35 -5 -66 -35 -102 -75
-89 -235 -93 -353 -9 -39 27 -58 17 -86 -47 -35 -79 -32 -108 14 -136 20 -13
56 -28 78 -35 57 -17 209 -15 268 3 175 53 301 175 341 330 32 127 -13 198
-180 283 -90 45 -114 96 -75 160 54 89 187 105 294 35 29 -19 44 -23 55 -16
21 13 49 73 57 121 6 35 3 42 -19 57 -66 43 -193 55 -299 29z"/>
<path d="M10490 2545 c-157 -37 -241 -85 -362 -206 -85 -86 -103 -110 -147
-201 -112 -229 -118 -407 -18 -516 92 -100 325 -121 576 -52 55 15 92 53 113
117 9 26 31 86 48 133 30 80 90 258 90 265 0 2 -7 11 -16 19 -13 13 -44 16
-184 16 -93 0 -176 -3 -185 -6 -18 -7 -50 -65 -59 -111 -10 -43 15 -55 107
-52 70 2 72 2 71 -22 -2 -32 -53 -170 -71 -190 -19 -22 -123 -43 -170 -35
-115 21 -163 78 -163 193 0 124 58 253 161 356 146 146 325 174 503 79 l68
-37 21 27 c25 33 47 94 47 130 0 37 -52 72 -146 97 -54 15 -215 12 -284 -4z"/>
<path d="M695 2546 c-5 -2 -22 -7 -36 -10 -29 -6 -28 -5 -69 -121 -16 -44 -43
-118 -60 -165 -18 -47 -35 -96 -40 -110 -5 -14 -23 -63 -40 -110 -55 -146 -80
-235 -80 -282 0 -73 34 -134 95 -174 52 -34 98 -44 202 -44 180 0 286 42 404
159 75 76 124 158 162 271 9 25 57 159 107 299 50 140 89 260 86 268 -7 18
-156 18 -178 1 -9 -7 -67 -152 -128 -323 -62 -170 -119 -323 -127 -339 -8 -16
-35 -51 -60 -77 -94 -101 -261 -119 -316 -36 -36 55 -30 81 113 477 90 252
103 291 93 301 -10 10 -110 22 -128 15z"/>
<path d="M4410 2542 c-58 -4 -77 -11 -84 -29 -4 -9 -16 -103 -26 -208 -45
-433 -58 -551 -75 -693 -7 -57 19 -72 123 -71 48 1 98 4 112 8 26 7 62 58 159
224 211 363 256 432 259 402 1 -16 -13 -158 -32 -315 -30 -249 -33 -287 -20
-300 11 -11 41 -16 107 -18 139 -4 134 -9 301 263 78 127 206 333 284 459 79
126 144 238 145 249 1 14 -6 23 -26 29 -41 14 -135 0 -154 -22 -14 -16 -181
-298 -381 -642 -32 -54 -61 -98 -66 -98 -4 0 -6 19 -3 43 4 23 23 190 43 370
27 236 34 331 26 339 -14 14 -162 14 -188 0 -10 -6 -120 -179 -244 -386 -124
-207 -226 -370 -228 -362 -2 8 17 169 42 358 25 189 46 355 46 370 0 23 -4 26
-42 29 -24 2 -59 3 -78 1z"/>
<path d="M6752 2540 c-23 -4 -47 -11 -52 -16 -7 -7 -327 -871 -347 -938 -9
-30 23 -46 91 -46 103 0 103 0 184 230 17 47 74 207 127 355 133 370 141 393
130 404 -14 12 -83 18 -133 11z"/>
<path d="M8042 2543 c-53 -5 -56 -10 -120 -188 -28 -77 -81 -223 -117 -325
-80 -219 -93 -306 -57 -377 49 -95 128 -127 300 -121 160 6 261 45 374 146 46
41 112 148 146 237 62 161 212 585 212 599 0 8 -5 18 -12 22 -14 9 -129 8
-157 -1 -22 -7 -28 -21 -152 -365 -50 -140 -101 -275 -112 -300 -26 -55 -89
-119 -142 -145 -54 -26 -141 -31 -187 -12 -77 32 -85 106 -29 260 16 45 66
183 110 306 81 223 88 246 74 254 -14 9 -88 14 -131 10z"/>
<path d="M1732 2522 c-17 -13 -59 -117 -158 -387 -74 -204 -144 -395 -155
-425 -31 -82 -42 -128 -35 -145 5 -13 36 -15 213 -15 225 0 268 7 370 56 209
102 308 387 158 458 -19 9 -35 19 -35 21 0 3 17 13 38 24 87 45 159 150 169
249 8 76 -13 114 -86 150 -55 26 -61 27 -256 30 -181 2 -202 1 -223 -16z m308
-150 c33 -16 35 -19 35 -69 -1 -43 -6 -59 -31 -90 -48 -59 -85 -76 -181 -81
-66 -4 -83 -2 -83 9 0 19 71 221 83 237 15 19 135 15 177 -6z m-86 -421 c31
-29 33 -69 7 -126 -37 -81 -100 -114 -230 -121 -47 -3 -91 -1 -98 3 -9 7 -2
36 27 118 64 176 44 157 164 153 94 -3 107 -5 130 -27z"/>
<path d="M2674 2526 c-26 -18 -25 -17 -209 -525 -80 -222 -145 -413 -143 -425
3 -21 8 -21 263 -26 162 -3 269 -1 284 5 17 7 31 27 45 66 32 90 33 89 -163
89 -93 0 -172 4 -175 9 -4 6 45 157 79 244 6 15 24 17 155 17 169 0 176 3 205
82 28 77 27 78 -145 78 -82 0 -150 2 -150 4 0 8 71 199 80 217 10 17 26 19
193 21 l182 3 22 45 c12 25 23 59 25 75 l3 30 -265 3 c-221 2 -269 0 -286 -12z"/>
<path d="M3503 2528 c-29 -14 -32 -20 -178 -423 -70 -192 -143 -392 -162 -444
-33 -90 -34 -95 -17 -108 21 -15 121 -17 158 -3 34 12 33 10 142 323 l27 77
54 0 c45 0 58 -4 78 -26 26 -28 30 -54 40 -244 5 -90 9 -118 22 -128 25 -19
153 -16 182 4 24 17 24 18 17 158 -9 170 -20 227 -52 265 l-24 28 67 33 c132
65 215 183 221 316 4 65 2 73 -24 104 -56 65 -94 74 -324 77 -135 2 -213 -1
-227 -9z m338 -177 c48 -58 -9 -177 -106 -222 -38 -17 -183 -28 -197 -14 -8 8
81 249 96 260 8 6 48 8 101 4 76 -5 90 -9 106 -28z"/>
<path d="M5882 2517 c-12 -12 -37 -65 -56 -117 -19 -52 -83 -228 -141 -390
-59 -162 -119 -326 -132 -364 -38 -103 -45 -100 245 -104 130 -2 251 -1 268 3
37 6 73 64 77 122 l2 38 -178 3 -178 2 6 28 c3 15 23 74 44 132 l39 105 138 2
c77 2 149 5 161 8 27 6 62 69 65 117 l3 33 -152 3 c-84 1 -153 5 -153 9 0 3
19 57 41 119 l42 114 178 0 c197 0 196 0 225 68 8 20 14 48 12 62 l-3 25 -266
3 -265 2 -22 -23z"/>
<path d="M9081 2513 c-24 -22 -47 -75 -111 -258 -75 -210 -116 -323 -217 -594
-33 -91 -34 -96 -16 -109 12 -9 38 -12 80 -10 66 4 97 22 106 61 3 12 32 99
65 192 33 94 87 244 119 335 l58 165 8 -65 c5 -36 24 -162 43 -280 67 -424 58
-403 175 -408 59 -2 81 1 109 16 42 23 45 31 166 371 48 135 115 321 149 415
45 121 60 175 53 184 -7 7 -36 12 -77 12 -39 0 -74 -5 -83 -12 -9 -7 -37 -71
-63 -143 -69 -193 -162 -456 -172 -489 -16 -53 -30 -40 -36 36 -9 105 -84 544
-97 568 -17 32 -44 40 -139 40 -85 0 -93 -2 -120 -27z"/>
</g>
</svg>
