<?xml version="1.0" standalone="no"?>
<!DOCTYPE svg PUBLIC "-//W3C//DTD SVG 20010904//EN"
 "http://www.w3.org/TR/2001/REC-SVG-20010904/DTD/svg10.dtd">
<svg version="1.0" xmlns="http://www.w3.org/2000/svg"
 width="1200.000000pt" height="660.000000pt" viewBox="0 0 1200.000000 660.000000"
 preserveAspectRatio="xMidYMid meet">
<metadata>
Created by potrace 1.13, written by Peter Selinger 2001-2015
</metadata>
<g transform="translate(0.000000,660.000000) scale(0.100000,-0.100000)"
fill="#000000" stroke="none">
<path d="M1455 5270 c-3 -5 -21 -10 -40 -10 -66 0 -345 -105 -345 -130 0 -4
-11 -11 -24 -14 -13 -3 -47 -24 -75 -46 -28 -22 -53 -40 -56 -40 -8 0 -151
-148 -186 -192 -46 -59 -100 -189 -120 -293 -15 -78 -23 -303 -11 -318 5 -7
13 -34 17 -62 8 -54 59 -175 115 -270 63 -107 180 -214 310 -282 25 -13 52
-27 60 -32 42 -25 234 -106 295 -126 39 -12 84 -29 100 -37 17 -8 42 -18 58
-22 l27 -6 0 349 c0 267 -3 351 -12 358 -7 6 -42 25 -78 43 -124 64 -200 167
-200 270 0 69 56 130 166 182 45 21 91 38 101 38 19 0 20 12 27 316 3 173 4
319 1 325 -8 12 -122 12 -130 -1z"/>
<path d="M1830 4954 c0 -170 4 -314 8 -320 4 -6 32 -22 62 -34 133 -54 248
-119 307 -173 26 -23 65 -17 99 14 11 11 39 32 61 47 23 15 79 55 125 89 45
35 98 73 116 85 65 45 92 70 92 87 0 17 -128 151 -144 151 -5 0 -32 21 -60 46
-86 78 -94 84 -102 84 -4 0 -19 11 -33 24 -34 31 -223 133 -291 156 -19 7 -50
19 -68 27 -18 8 -64 17 -102 20 l-70 6 0 -309z"/>
<path d="M7091 5055 c-78 -28 -165 -110 -207 -194 -24 -49 -28 -68 -28 -151
-1 -98 9 -137 48 -195 30 -45 99 -115 112 -115 6 0 19 -9 28 -19 24 -26 132
-45 213 -38 79 8 164 45 217 95 41 40 110 168 101 191 -3 7 0 20 6 27 19 23 2
150 -27 209 -45 90 -171 195 -234 195 -10 0 -22 5 -25 10 -11 18 -137 9 -204
-15z"/>
<path d="M9495 5071 c-6 -4 -32 -14 -60 -21 -66 -18 -146 -93 -187 -175 -31
-62 -36 -79 -45 -154 -11 -89 43 -208 132 -289 78 -72 123 -87 250 -86 80 0
96 3 150 31 68 35 144 111 164 163 7 19 17 44 21 55 28 69 35 126 22 164 -6
14 -13 35 -18 46 -4 11 -8 25 -8 30 -6 60 -138 196 -208 216 -24 7 -47 16 -52
21 -13 11 -149 10 -161 -1z"/>
<path d="M5742 4976 l-43 -10 6 -1176 c4 -646 9 -1177 11 -1179 2 -2 4 -19 4
-37 0 -18 4 -35 9 -38 4 -3 11 -23 14 -45 3 -22 12 -54 21 -72 9 -18 16 -37
16 -44 0 -7 14 -31 30 -53 17 -23 30 -45 30 -49 0 -12 83 -93 96 -93 6 0 16
-6 23 -13 14 -17 105 -62 156 -78 138 -40 379 -42 563 -4 l32 7 -2 267 -3 266
-29 3 c-16 2 -33 -1 -39 -7 -14 -14 -74 -14 -82 -1 -3 6 -21 10 -40 10 -43 0
-104 33 -152 82 l-38 39 -2 1110 c-2 611 -5 1115 -8 1120 -8 13 -519 9 -573
-5z"/>
<path d="M10588 4980 c-157 -3 -289 -8 -293 -11 -3 -4 -6 -181 -5 -393 l1
-385 -138 -3 -138 -3 3 -275 c1 -151 2 -281 2 -287 0 -10 34 -13 135 -13 101
0 135 -3 135 -12 0 -7 1 -215 0 -463 0 -431 4 -510 30 -600 6 -22 13 -47 15
-55 12 -62 19 -81 31 -91 8 -6 14 -18 14 -26 0 -37 145 -202 178 -203 6 0 12
-4 12 -9 0 -5 15 -14 33 -21 17 -7 41 -16 52 -20 100 -41 173 -53 325 -53 132
1 298 17 312 31 5 5 7 127 6 273 l-3 264 -35 -1 c-19 0 -48 -2 -65 -3 -108 -6
-211 42 -263 123 l-27 41 -3 407 -3 406 22 7 c12 4 115 4 229 0 149 -5 209 -4
214 4 8 13 8 572 0 580 -2 3 -107 5 -232 6 l-227 0 4 391 c4 377 3 391 -15
395 -10 2 -148 2 -306 -1z"/>
<path d="M10972 4977 c-6 -7 -9 -23 -5 -35 5 -19 12 -22 54 -22 l49 0 0 -140
c0 -137 1 -141 23 -149 43 -16 46 -7 49 142 l3 142 30 -3 c55 -4 75 6 75 37 0
17 -6 31 -16 35 -9 3 -69 6 -134 6 -84 0 -121 -4 -128 -13z"/>
<path d="M11277 4983 c-4 -3 -7 -82 -7 -173 0 -177 5 -196 47 -188 15 3 18 16
21 93 3 81 4 87 16 63 7 -14 19 -49 26 -79 16 -66 25 -79 59 -79 36 0 58 19
64 55 3 17 15 55 26 85 l20 55 3 -95 3 -95 30 0 30 0 0 180 0 180 -40 3 c-43
4 -65 -14 -65 -55 0 -12 -8 -37 -19 -56 -10 -18 -22 -49 -26 -68 -4 -19 -10
-38 -12 -42 -7 -12 -33 41 -33 67 0 12 -4 26 -9 32 -5 5 -16 35 -25 67 l-17
57 -43 0 c-23 0 -46 -3 -49 -7z"/>
<path d="M7982 4973 l-34 -4 3 -387 3 -387 -147 -3 -147 -3 0 -289 0 -289 148
-3 147 -3 2 -455 c2 -474 4 -565 16 -576 4 -4 7 -16 7 -27 0 -25 17 -82 36
-120 8 -16 14 -37 14 -48 0 -10 4 -19 8 -19 5 0 17 -17 26 -39 18 -40 115
-142 157 -167 71 -40 140 -65 244 -86 88 -19 381 -10 430 12 11 5 29 10 40 12
22 4 22 -12 17 353 l-2 185 -24 0 c-14 0 -28 -4 -31 -10 -8 -12 -72 -13 -79
-1 -3 4 -28 11 -56 13 -59 6 -122 45 -156 98 -22 35 -22 37 -24 445 -2 226 -2
416 -1 423 1 9 51 12 216 12 l215 0 0 290 0 290 -215 0 -216 0 1 393 1 392
-283 1 c-156 1 -298 -1 -316 -3z"/>
<path d="M4237 4218 c-7 -4 -26 -8 -44 -8 -17 0 -35 -4 -38 -10 -3 -5 -16 -10
-28 -10 -29 0 -143 -48 -184 -77 -17 -13 -35 -23 -40 -23 -5 0 -29 -20 -53
-45 -65 -67 -70 -63 -70 60 l0 105 -321 -2 -321 -3 -2 -1438 c-2 -1107 0
-1440 9 -1447 8 -7 129 -9 326 -8 l313 3 -3 1037 -3 1036 89 89 c90 90 165
143 201 143 12 0 24 5 27 10 3 6 17 10 30 10 13 0 27 5 30 10 3 6 50 10 105
10 55 0 102 -4 105 -10 3 -5 17 -10 29 -10 13 0 37 -7 52 -15 16 -8 37 -15 47
-15 26 0 188 -167 213 -220 44 -92 54 -122 54 -160 0 -21 5 -42 11 -46 7 -4 8
-20 5 -43 -4 -20 -9 -54 -12 -76 -6 -43 -8 -51 -49 -135 -33 -69 -67 -119 -80
-120 -6 0 -29 -18 -50 -40 -21 -22 -45 -40 -52 -40 -7 0 -13 -4 -13 -9 0 -4
-21 -14 -47 -21 -27 -7 -54 -18 -62 -24 -9 -7 -68 -11 -156 -11 -88 0 -147 4
-156 11 -8 6 -35 17 -62 24 -26 7 -50 17 -53 21 -7 13 -44 11 -44 -2 0 -6 14
-30 30 -54 17 -24 30 -48 30 -53 0 -5 6 -15 14 -21 13 -11 96 -127 121 -169
34 -57 84 -129 98 -141 10 -7 17 -19 17 -26 0 -7 16 -32 35 -56 19 -24 35 -50
35 -56 0 -7 14 -26 31 -43 31 -29 35 -30 125 -30 51 0 95 4 98 9 3 4 29 11 58
15 29 4 57 11 63 15 5 5 24 11 40 14 38 6 133 47 171 72 16 11 39 25 52 30 28
13 202 173 202 187 0 6 14 26 31 45 16 19 51 78 76 131 25 54 50 105 54 114
23 45 40 109 46 166 3 34 10 65 14 68 5 3 9 20 9 39 0 19 5 37 10 40 6 4 10
58 10 130 0 72 -4 126 -10 130 -5 3 -10 19 -10 36 0 16 -4 37 -10 47 -5 9 -12
43 -15 74 -4 32 -10 60 -15 63 -5 3 -7 12 -4 19 3 8 1 17 -5 21 -6 3 -11 13
-11 21 0 22 -76 176 -123 247 -51 78 -155 187 -228 237 -95 65 -240 134 -309
146 -19 4 -44 11 -54 17 -23 12 -363 25 -379 15z"/>
<path d="M6898 3158 c-2 -568 -1 -1039 1 -1045 2 -10 74 -13 317 -13 l314 0 0
1045 0 1045 -315 0 -314 0 -3 -1032z"/>
<path d="M9258 4183 c-2 -5 -3 -474 -3 -1043 l0 -1035 311 -3 c245 -2 313 0
315 10 2 7 2 477 -1 1043 l-5 1030 -307 3 c-169 1 -308 -1 -310 -5z"/>
<path d="M1835 3993 c-7 -20 -6 -677 1 -697 3 -9 13 -16 21 -16 8 0 26 -9 40
-20 14 -11 33 -20 42 -20 39 0 174 -127 189 -179 15 -48 15 -144 1 -196 -13
-47 -60 -100 -109 -123 -19 -9 -37 -19 -40 -23 -3 -3 -23 -12 -45 -18 -22 -7
-55 -19 -72 -27 l-33 -15 0 -320 c0 -274 2 -320 15 -325 14 -6 57 1 175 27 25
5 54 11 65 12 31 4 79 19 90 27 6 4 26 11 45 15 19 4 59 20 88 36 29 16 58 29
64 29 45 0 318 235 318 274 0 7 6 19 14 25 24 20 92 166 101 216 2 11 8 44 14
74 6 29 11 73 11 97 0 23 5 46 10 49 13 8 13 119 1 143 -5 9 -14 55 -20 102
-14 110 -16 122 -24 140 -3 8 -16 44 -27 80 -12 36 -29 76 -38 90 -10 14 -24
38 -32 53 -23 45 -179 188 -254 232 -90 54 -243 134 -286 150 -29 11 -98 39
-205 85 -11 4 -41 15 -67 23 -41 12 -48 12 -53 0z"/>
<path d="M844 3045 c-27 -19 -71 -50 -99 -68 -27 -19 -56 -41 -64 -50 -7 -10
-17 -17 -22 -17 -4 0 -38 -21 -74 -47 -37 -27 -74 -52 -83 -58 -59 -35 -112
-81 -112 -97 0 -21 39 -86 64 -107 9 -7 16 -17 16 -21 0 -24 298 -310 323
-310 5 0 23 -11 40 -24 41 -31 243 -132 282 -141 17 -4 39 -13 50 -20 11 -7
34 -15 50 -18 17 -3 59 -13 95 -21 181 -40 267 -48 275 -23 2 6 1 152 -3 322
l-7 310 -67 10 c-36 6 -70 13 -74 18 -4 4 -17 7 -29 7 -23 0 -178 76 -250 122
-55 35 -170 152 -212 216 -19 28 -39 52 -43 52 -4 0 -30 -16 -56 -35z"/>
</g>
</svg>
