<?xml version="1.0" standalone="no"?>
<!DOCTYPE svg PUBLIC "-//W3C//DTD SVG 20010904//EN"
 "http://www.w3.org/TR/2001/REC-SVG-20010904/DTD/svg10.dtd">
<svg version="1.0" xmlns="http://www.w3.org/2000/svg"
 width="1200.000000pt" height="660.000000pt" viewBox="0 0 1200.000000 660.000000"
 preserveAspectRatio="xMidYMid meet">
<metadata>
Created by potrace 1.13, written by Peter Selinger 2001-2015
</metadata>
<g transform="translate(0.000000,660.000000) scale(0.100000,-0.100000)"
fill="#000000" stroke="none">
<path d="M3858 6170 c-352 -76 -626 -338 -730 -696 l-23 -79 0 -2100 0 -2100
23 -79 c50 -174 135 -318 259 -437 159 -153 322 -236 533 -269 56 -8 606 -10
2125 -8 l2050 4 80 22 c375 107 656 421 709 793 9 62 10 4083 1 4145 -11 75
-30 143 -63 225 -112 279 -346 486 -648 571 l-79 23 -2075 2 c-2002 2 -2078 1
-2162 -17z m3805 -1053 c67 -31 123 -88 156 -157 l26 -55 0 -1615 0 -1615 -23
-47 c-38 -75 -114 -145 -184 -167 -27 -9 -444 -12 -1647 -12 l-1610 0 -48 21
c-64 28 -130 94 -159 158 l-24 53 0 1613 c0 1607 0 1615 21 1663 37 89 132
166 221 181 22 4 755 6 1630 5 l1589 -2 52 -24z"/>
<path d="M5320 4079 c-32 -13 -78 -56 -96 -91 -12 -22 -14 -139 -14 -690 l0
-663 23 -40 c13 -22 40 -49 62 -62 l40 -23 657 0 c441 0 666 3 685 11 40 15
73 48 94 94 17 38 19 79 19 683 0 556 -2 648 -15 679 -21 50 -42 72 -90 94
-38 17 -80 19 -690 18 -406 0 -659 -4 -675 -10z"/>
</g>
</svg>
