<?xml version="1.0" standalone="no"?>
<!DOCTYPE svg PUBLIC "-//W3C//DTD SVG 20010904//EN"
 "http://www.w3.org/TR/2001/REC-SVG-20010904/DTD/svg10.dtd">
<svg version="1.0" xmlns="http://www.w3.org/2000/svg"
 width="1200.000000pt" height="660.000000pt" viewBox="0 0 1200.000000 660.000000"
 preserveAspectRatio="xMidYMid meet">
<metadata>
Created by potrace 1.13, written by Peter Selinger 2001-2015
</metadata>
<g transform="translate(0.000000,660.000000) scale(0.100000,-0.100000)"
fill="#000000" stroke="none">
<path d="M767 4689 c-116 -23 -233 -102 -297 -200 -77 -120 -72 -40 -72 -1194
0 -1154 -5 -1074 72 -1194 66 -102 180 -177 305 -200 40 -7 376 -11 1024 -11
1045 0 1032 0 1139 54 106 54 197 163 233 277 18 58 19 108 19 1074 0 966 -1
1016 -19 1074 -36 114 -127 223 -233 277 -107 54 -93 54 -1148 53 -546 -1
-996 -5 -1023 -10z m1851 -527 c65 -47 62 -2 62 -867 0 -865 3 -820 -62 -867
l-33 -23 -780 -3 -780 -2 -44 22 c-86 44 -81 -12 -81 873 0 885 -5 829 81 873
l44 22 780 -2 780 -3 33 -23z"/>
<path d="M1463 3670 c-53 -21 -54 -31 -51 -385 l3 -327 24 -19 c22 -18 43 -19
355 -19 l333 0 21 23 c22 23 22 28 22 349 0 180 -3 334 -6 343 -16 41 -48 45
-371 44 -169 0 -318 -4 -330 -9z"/>
<path d="M4413 4180 c-207 -54 -347 -181 -393 -355 -27 -106 0 -268 58 -345
97 -128 212 -187 526 -270 223 -59 317 -100 369 -161 89 -104 72 -277 -38
-378 -172 -159 -526 -138 -717 42 -31 28 -64 65 -73 80 -10 15 -24 27 -31 25
-23 -5 -153 -102 -154 -115 0 -22 101 -134 163 -180 147 -108 292 -153 490
-153 338 1 570 169 617 448 9 56 9 88 0 145 -37 220 -199 350 -555 445 -352
94 -454 164 -455 314 0 120 78 218 205 256 199 60 410 11 560 -130 l65 -60 28
23 c27 23 65 52 107 82 19 14 18 16 -18 60 -47 58 -154 139 -232 175 -56 27
-78 34 -181 61 -66 17 -258 12 -341 -9z"/>
<path d="M5905 3705 c-107 -22 -185 -61 -261 -129 -152 -135 -223 -330 -211
-577 8 -182 54 -312 151 -432 158 -193 445 -252 675 -139 30 14 83 53 118 85
l63 59 2 -338 3 -339 89 -3 c49 -2 92 1 95 7 3 5 5 408 3 895 l-2 886 -95 0
-95 0 0 -80 c0 -44 -2 -80 -3 -80 -2 0 -22 18 -45 39 -87 83 -166 124 -287
147 -82 16 -118 16 -200 -1z m233 -189 c137 -37 239 -145 283 -301 9 -32 14
-97 13 -185 0 -117 -3 -143 -24 -195 -72 -188 -195 -276 -385 -276 -84 -1
-104 3 -175 34 -157 68 -252 298 -220 533 34 260 170 400 390 403 36 0 89 -6
118 -13z"/>
<path d="M8695 3705 c-112 -18 -198 -48 -284 -97 -102 -59 -104 -62 -52 -142
24 -36 47 -66 51 -66 4 0 31 15 59 34 102 69 229 101 374 94 123 -5 195 -37
226 -102 25 -50 26 -86 6 -126 -34 -66 -128 -106 -315 -135 -227 -35 -321 -68
-405 -146 -138 -128 -135 -387 6 -527 81 -79 199 -122 339 -122 137 0 253 41
344 121 l46 41 0 -66 0 -66 90 0 c63 0 92 4 95 13 3 6 1 242 -3 522 l-7 510
-28 55 c-62 121 -161 183 -334 209 -85 13 -104 13 -208 -4z m393 -752 c-6
-171 -21 -216 -98 -294 -75 -76 -141 -101 -270 -101 -72 0 -106 5 -140 20 -96
42 -136 112 -128 223 8 106 71 152 264 189 194 37 248 51 304 74 30 13 59 24
64 25 4 0 6 -61 4 -136z"/>
<path d="M10850 3705 c-248 -50 -422 -231 -476 -496 -23 -114 -15 -316 16
-409 93 -278 300 -430 586 -430 180 0 338 63 462 185 23 24 42 49 42 56 0 13
-111 119 -124 119 -2 0 -27 -21 -54 -47 -89 -87 -184 -123 -321 -123 -177 0
-295 67 -369 209 -40 77 -69 203 -53 229 5 9 139 13 492 14 l484 3 3 80 c11
279 -140 507 -393 593 -41 14 -154 32 -196 31 -19 0 -63 -7 -99 -14z m249
-197 c90 -32 155 -93 196 -183 37 -81 50 -141 31 -148 -7 -3 -181 -4 -387 -3
l-374 1 2 32 c7 87 66 187 145 248 100 76 258 98 387 53z"/>
<path d="M10045 3702 c-65 -12 -171 -67 -225 -118 l-50 -47 0 72 c0 61 -3 71
-17 72 -88 3 -157 -1 -164 -8 -5 -5 -8 -275 -7 -639 l3 -629 92 -3 92 -3 3
413 c3 407 4 414 27 473 42 106 91 163 181 211 44 23 188 26 238 5 20 -8 37
-10 42 -5 5 5 21 40 34 78 29 78 26 87 -33 112 -41 17 -159 26 -216 16z"/>
<path d="M6950 3678 c-19 -7 -20 -17 -19 -155 2 -419 17 -809 32 -854 26 -78
55 -126 109 -180 78 -78 186 -119 313 -119 139 1 257 46 354 136 32 30 62 54
66 54 4 0 6 -30 5 -67 -1 -38 -2 -74 -1 -80 1 -9 26 -13 91 -13 65 0 90 3 90
13 0 6 1 292 2 635 2 541 1 624 -12 632 -26 16 -156 12 -170 -5 -10 -12 -11
-87 -5 -348 8 -373 1 -454 -45 -552 -35 -74 -107 -147 -180 -183 -46 -23 -71
-28 -155 -30 -82 -3 -108 0 -145 16 -84 36 -128 102 -149 225 -8 44 -11 204
-11 467 1 220 -2 404 -5 410 -7 11 -133 10 -165 -2z"/>
</g>
</svg>
