<?xml version="1.0" standalone="no"?>
<!DOCTYPE svg PUBLIC "-//W3C//DTD SVG 20010904//EN"
 "http://www.w3.org/TR/2001/REC-SVG-20010904/DTD/svg10.dtd">
<svg version="1.0" xmlns="http://www.w3.org/2000/svg"
 width="1200.000000pt" height="660.000000pt" viewBox="0 0 1200.000000 660.000000"
 preserveAspectRatio="xMidYMid meet">
<metadata>
Created by potrace 1.13, written by Peter Selinger 2001-2015
</metadata>
<g transform="translate(0.000000,660.000000) scale(0.100000,-0.100000)"
fill="#000000" stroke="none">
<path d="M1795 6173 c-110 -45 -197 -128 -251 -240 l-28 -58 3 -2590 2 -2590
31 -68 c35 -77 132 -176 202 -208 40 -18 174 -19 4246 -19 l4205 0 54 31 c74
43 143 116 181 192 l30 62 1 2600 0 2599 -36 72 c-41 85 -116 158 -203 201
l-57 28 -4170 2 c-3819 2 -4173 1 -4210 -14z m2139 -823 c0 -30 -6 -82 -13
-115 -7 -33 -17 -80 -21 -105 -25 -139 -30 -163 -41 -176 -9 -11 -74 -14 -332
-16 l-321 -3 -8 -30 c-4 -16 -12 -55 -17 -85 -6 -30 -17 -93 -25 -140 -35
-197 -48 -271 -67 -380 -11 -63 -29 -167 -40 -230 -11 -63 -24 -142 -30 -175
-9 -55 -17 -105 -39 -225 -4 -25 -13 -77 -19 -116 -6 -40 -15 -83 -21 -98
l-10 -26 -279 0 c-154 0 -282 4 -285 8 -5 9 9 104 44 295 5 28 14 79 20 112 5
33 14 83 19 110 5 28 15 79 21 115 6 36 15 85 20 110 5 25 13 72 19 105 5 33
15 87 21 120 11 58 17 96 39 220 5 33 15 87 21 120 18 100 29 179 25 183 -2 2
-139 3 -304 2 -208 0 -307 3 -322 11 -25 13 -25 8 20 269 7 36 15 88 20 117
14 92 -86 83 970 81 l936 -3 -1 -55z m5118 -15 c-4 -33 -22 -137 -31 -190 -24
-132 -30 -164 -40 -220 -5 -33 -15 -87 -21 -120 -6 -33 -14 -80 -17 -105 l-6
-44 55 56 c33 34 79 68 114 85 l59 28 305 0 305 0 47 -28 c50 -29 87 -71 108
-125 13 -34 9 -137 -9 -242 -6 -30 -15 -82 -20 -115 -6 -33 -15 -87 -21 -120
-6 -33 -15 -85 -20 -115 -5 -30 -14 -82 -20 -115 -6 -33 -15 -82 -20 -110 -4
-27 -13 -78 -19 -112 -6 -35 -16 -91 -22 -125 -6 -35 -14 -84 -18 -110 -12
-78 -13 -78 -175 -72 -156 7 -193 18 -230 68 -40 53 -50 99 -37 174 7 37 16
93 21 125 18 103 31 181 40 227 5 25 14 77 20 115 7 39 16 90 21 115 13 70 14
70 -282 70 l-257 0 -11 -32 c-5 -18 -17 -76 -26 -128 -24 -144 -55 -319 -66
-380 -5 -30 -14 -80 -19 -110 -30 -182 -40 -228 -55 -240 -8 -7 -100 -9 -261
-8 l-249 3 1 25 c1 14 10 79 22 145 12 66 31 174 42 240 11 66 25 145 31 175
5 30 14 80 19 110 5 30 14 80 19 110 6 30 20 109 31 175 11 66 25 145 31 175
5 30 14 82 20 115 18 111 30 180 40 240 6 33 15 83 19 110 4 28 13 79 20 115
7 36 15 88 19 115 4 28 10 56 14 63 7 9 67 12 270 10 256 -3 262 -3 259 -23z
m-4329 -505 c105 -11 142 -31 197 -110 22 -31 25 -45 25 -130 0 -52 -6 -122
-13 -155 -7 -33 -39 -211 -72 -395 -33 -184 -67 -354 -76 -378 -33 -89 -138
-189 -223 -212 -20 -5 -267 -10 -561 -12 l-526 -2 -47 23 c-65 32 -112 89
-125 153 -8 43 -6 78 13 193 82 487 141 788 166 836 26 52 103 125 163 156 46
24 66 27 196 33 230 10 787 11 883 0z m933 -47 c-3 -32 -10 -80 -15 -108 -5
-27 -14 -77 -20 -110 -6 -33 -15 -82 -21 -110 -5 -27 -14 -76 -20 -107 -5 -32
-14 -82 -20 -110 -26 -145 -50 -295 -50 -316 l0 -22 303 2 302 3 12 60 c7 33
17 85 22 115 21 116 52 297 62 353 5 31 14 85 20 120 18 100 27 159 35 209 11
79 9 79 275 76 l234 -3 4 -25 c1 -14 -2 -47 -8 -75 -5 -27 -15 -79 -21 -115
-7 -36 -16 -85 -21 -110 -9 -43 -92 -501 -159 -885 -18 -99 -37 -186 -43 -194
-9 -11 -35 -12 -127 -7 -63 4 -134 12 -157 18 -50 12 -99 62 -138 138 -14 27
-28 50 -31 50 -2 0 -38 -28 -78 -63 -108 -91 -168 -118 -291 -128 -160 -13
-554 -4 -595 13 -86 36 -140 117 -140 210 0 29 25 197 55 373 73 431 83 488
95 570 6 39 16 86 21 106 5 20 9 49 9 64 0 16 7 37 17 47 15 16 36 18 256 18
l239 0 -6 -57z m2514 42 c10 -12 10 -28 1 -78 -25 -128 -30 -154 -42 -222 -18
-105 -28 -143 -42 -152 -6 -4 -133 -6 -282 -5 -148 1 -308 -2 -354 -6 -96 -8
-90 -2 -110 -122 -6 -30 -19 -107 -30 -170 -12 -63 -21 -127 -21 -142 l0 -28
343 -2 342 -3 -1 -50 c0 -47 -7 -90 -34 -240 -6 -33 -15 -82 -19 -109 -5 -26
-15 -52 -22 -57 -16 -10 -543 -10 -821 -1 l-186 7 -44 30 c-58 41 -97 114 -98
180 0 44 40 295 110 700 11 66 25 144 30 172 13 77 42 136 97 194 56 60 108
90 183 105 36 8 215 12 521 13 405 1 468 -1 479 -14z m-4594 -1638 c4 -12 -54
-101 -179 -277 -18 -25 -57 -81 -87 -125 -98 -142 -123 -174 -133 -168 -9 6
-5 68 12 158 5 28 15 79 21 115 16 87 26 143 39 213 19 106 2 97 172 97 116 0
151 -3 155 -13z m660 0 c4 -4 0 -46 -9 -94 -9 -48 -15 -89 -12 -91 2 -2 27 18
54 45 28 28 81 65 117 83 56 28 83 34 182 42 164 14 525 2 568 -18 76 -36 152
-143 161 -227 4 -37 -170 -1107 -183 -1129 -3 -5 -78 -8 -167 -8 -184 0 -224
11 -270 71 -41 56 -43 118 -8 309 5 30 28 153 50 274 23 120 38 222 35 227 -3
5 -138 9 -300 9 -226 0 -296 -3 -299 -12 -4 -11 -41 -218 -76 -430 -18 -112
-29 -179 -39 -235 -6 -32 -13 -74 -16 -93 -11 -72 -27 -119 -43 -125 -28 -11
-531 -7 -545 4 -14 12 -8 67 34 276 9 46 16 84 40 215 4 25 13 71 19 103 10
54 19 100 40 220 46 250 102 556 106 575 l6 23 274 -3 c150 -2 277 -6 281 -11z
m3202 4 c13 -8 5 -70 -38 -308 -6 -29 -14 -78 -20 -109 -13 -75 -19 -94 -33
-94 -7 0 -287 0 -624 0 -337 0 -637 -3 -666 -6 l-55 -7 -11 -56 c-6 -31 -19
-108 -30 -171 -11 -63 -27 -155 -36 -205 -45 -253 -64 -380 -57 -387 5 -5 190
-7 412 -6 l404 3 11 50 c7 28 18 82 24 120 7 39 16 90 21 115 16 87 29 155 35
192 11 69 8 68 289 68 209 0 256 -3 266 -14 9 -12 5 -55 -20 -203 -17 -103
-35 -208 -40 -233 -4 -25 -14 -74 -20 -110 -33 -195 -39 -213 -91 -291 -83
-124 -205 -202 -342 -219 -113 -14 -1233 -13 -1295 1 -107 25 -186 87 -231
184 -29 61 -31 153 -6 290 9 50 20 114 26 143 5 28 13 76 18 105 6 28 17 93
26 142 102 576 127 690 162 758 65 124 210 230 336 246 82 11 1568 13 1585 2z
m2009 -2 c78 -32 118 -57 154 -97 69 -79 93 -180 70 -299 -6 -26 -15 -79 -21
-118 -6 -38 -15 -92 -20 -120 -5 -27 -14 -79 -20 -115 -6 -36 -15 -87 -20
-115 -5 -27 -14 -79 -20 -115 -6 -36 -15 -85 -20 -110 -5 -25 -14 -74 -20
-110 -27 -157 -50 -278 -61 -325 -16 -64 -50 -125 -103 -183 -51 -55 -154
-132 -179 -132 -7 0 -17 -3 -21 -7 -30 -30 -87 -33 -720 -33 -438 0 -652 3
-680 11 -129 35 -211 115 -246 242 -13 47 -10 96 10 202 5 28 18 104 30 170
11 66 25 143 30 170 5 28 19 104 30 170 11 66 25 144 30 173 6 28 15 77 20
107 6 30 15 80 20 110 6 30 14 79 19 108 15 88 22 110 54 170 58 111 205 224
322 247 66 13 1329 12 1362 -1z m-6837 -969 c0 -5 7 -10 16 -10 9 0 29 -13 44
-30 15 -16 35 -30 44 -30 9 0 16 -7 16 -15 0 -8 -7 -15 -16 -15 -8 0 -13 -4
-9 -10 3 -5 12 -7 20 -4 19 8 88 -63 81 -82 -3 -7 -1 -14 5 -14 18 0 61 -51
55 -65 -3 -8 -1 -15 5 -15 11 0 59 -45 59 -56 0 -4 -7 -16 -17 -26 -10 -11
-12 -18 -4 -18 20 0 103 -90 97 -106 -3 -8 -1 -14 5 -14 12 0 59 -46 59 -58 0
-4 9 -18 20 -30 12 -12 16 -22 10 -22 -5 0 -10 -7 -10 -15 0 -8 5 -15 11 -15
6 0 9 -9 6 -20 -3 -11 -1 -20 4 -20 15 0 59 -47 59 -64 0 -8 6 -17 13 -19 7
-4 6 -6 -5 -6 -9 -1 -19 5 -21 12 -3 6 -6 -4 -6 -23 -1 -25 5 -40 19 -50 11
-8 20 -26 20 -40 0 -14 -3 -20 -8 -14 -4 7 -18 14 -32 15 -18 3 -28 -2 -35
-18 -5 -13 -13 -23 -17 -23 -5 0 -8 -7 -8 -16 0 -8 -7 -22 -15 -30 -8 -9 -15
-11 -15 -5 0 6 -7 11 -15 11 -8 0 -15 -4 -15 -10 0 -6 -48 -10 -125 -10 -77 0
-125 4 -125 10 0 6 -13 10 -30 10 -20 0 -30 5 -30 15 0 10 10 15 27 15 14 0
23 3 19 7 -4 4 -25 6 -46 4 -30 -2 -40 1 -40 12 0 14 -50 32 -78 28 -17 -3
-42 24 -42 43 0 9 -5 16 -11 16 -5 0 -9 10 -7 23 2 17 -4 24 -29 32 -22 6 -33
15 -33 27 0 10 -5 18 -11 18 -6 0 -10 16 -9 38 3 57 1 62 -20 62 -19 0 -20 7
-20 115 0 103 2 115 18 115 12 0 10 4 -8 13 -21 10 -26 21 -28 60 -2 28 1 47
7 47 7 0 11 25 11 60 0 33 4 60 10 60 6 0 10 9 10 20 0 11 5 20 10 20 6 0 10
12 10 26 0 28 20 54 42 54 8 0 20 9 28 20 15 21 80 29 80 10z"/>
<path d="M3918 4353 c-10 -13 -78 -379 -78 -424 0 -25 4 -27 61 -33 79 -8 187
-8 322 0 l106 7 10 29 c18 52 76 416 67 425 -13 14 -476 10 -488 -4z"/>
<path d="M8278 2673 c-16 -2 -28 -7 -28 -11 0 -6 -18 -107 -50 -287 -14 -78
-49 -279 -69 -399 -11 -61 -17 -116 -14 -123 4 -10 86 -13 409 -13 l403 0 10
38 c5 20 14 64 20 97 6 33 20 107 31 165 11 58 25 132 31 165 6 33 15 80 19
105 18 87 42 251 39 254 -6 6 -772 14 -801 9z"/>
<path d="M2553 2173 c15 -2 37 -2 50 0 12 2 0 4 -28 4 -27 0 -38 -2 -22 -4z"/>
<path d="M2503 2145 c-10 -10 -9 -14 2 -19 17 -6 26 5 17 21 -5 8 -11 7 -19
-2z"/>
<path d="M2625 2150 c3 -5 12 -7 20 -3 21 7 19 13 -6 13 -11 0 -18 -4 -14 -10z"/>
<path d="M2665 2130 c4 -6 11 -8 16 -5 14 9 11 15 -7 15 -8 0 -12 -5 -9 -10z"/>
<path d="M2470 2109 c0 -5 5 -7 10 -4 6 3 10 8 10 11 0 2 -4 4 -10 4 -5 0 -10
-5 -10 -11z"/>
<path d="M2450 2069 c0 -5 5 -7 10 -4 6 3 10 8 10 11 0 2 -4 4 -10 4 -5 0 -10
-5 -10 -11z"/>
<path d="M2760 2055 c13 -14 25 -25 27 -25 9 0 -33 49 -41 50 -5 0 1 -11 14
-25z"/>
<path d="M3125 1490 c3 -5 8 -10 11 -10 2 0 4 5 4 10 0 6 -5 10 -11 10 -5 0
-7 -4 -4 -10z"/>
<path d="M2566 1405 c4 -8 11 -15 16 -15 6 0 5 6 -2 15 -7 8 -14 15 -16 15 -2
0 -1 -7 2 -15z"/>
<path d="M3132 1380 c0 -14 2 -19 5 -12 2 6 2 18 0 25 -3 6 -5 1 -5 -13z"/>
<path d="M3025 1320 c-2 -3 0 -12 6 -20 5 -9 9 -10 9 -3 0 6 12 13 28 15 26 3
26 4 -6 9 -18 3 -35 3 -37 -1z"/>
<path d="M2795 1280 c-18 -8 -17 -9 8 -9 16 -1 26 3 22 9 -3 6 -7 10 -8 9 -1
0 -11 -4 -22 -9z"/>
<path d="M2985 1280 c-4 -6 3 -10 14 -10 25 0 27 6 6 13 -8 4 -17 2 -20 -3z"/>
</g>
</svg>
