<?xml version="1.0" standalone="no"?>
<!DOCTYPE svg PUBLIC "-//W3C//DTD SVG 20010904//EN"
 "http://www.w3.org/TR/2001/REC-SVG-20010904/DTD/svg10.dtd">
<svg version="1.0" xmlns="http://www.w3.org/2000/svg"
 width="1200.000000pt" height="660.000000pt" viewBox="0 0 1200.000000 660.000000"
 preserveAspectRatio="xMidYMid meet">
<metadata>
Created by potrace 1.13, written by Peter Selinger 2001-2015
</metadata>
<g transform="translate(0.000000,660.000000) scale(0.100000,-0.100000)"
fill="#000000" stroke="none">
<path d="M3313 6124 c-2 -6 -2 -55 -1 -110 l3 -99 148 -3 147 -3 2 -377 c0
-207 1 -384 0 -394 -3 -31 23 -39 124 -36 l99 3 5 400 5 400 145 5 c80 3 151
9 158 13 8 6 12 38 12 103 0 67 -4 96 -12 99 -29 11 -831 10 -835 -1z"/>
<path d="M6553 6125 c-148 -46 -224 -147 -225 -297 0 -174 73 -238 362 -319
92 -26 122 -39 148 -65 37 -37 41 -70 12 -107 -61 -78 -239 -58 -386 43 -25
18 -49 28 -53 24 -4 -5 -34 -40 -66 -77 -57 -67 -58 -68 -39 -87 38 -38 141
-91 222 -116 74 -23 97 -25 205 -22 109 3 129 6 183 31 70 33 112 72 146 137
19 38 23 60 23 140 0 85 -3 100 -27 140 -45 77 -127 124 -300 171 -142 38
-189 63 -201 106 -8 25 -6 38 7 59 20 29 72 54 114 54 51 0 146 -30 205 -65
32 -19 60 -35 62 -35 2 0 29 37 61 81 44 63 55 85 47 98 -15 25 -165 97 -229
109 -75 16 -218 14 -271 -3z"/>
<path d="M8488 6126 c-30 -23 -52 -69 -49 -105 5 -88 86 -140 164 -107 78 32
101 122 47 188 -28 34 -33 36 -88 35 -33 0 -66 -5 -74 -11z m112 -23 c14 -9
30 -24 37 -33 17 -21 16 -71 -2 -94 -14 -18 -15 -18 -25 9 -8 20 -7 31 1 42
17 20 -4 61 -36 69 -15 4 -38 1 -51 -5 -23 -10 -25 -16 -22 -68 3 -58 24 -85
35 -44 7 27 12 26 47 -9 l28 -29 -35 -6 c-81 -16 -146 76 -100 141 15 20 57
44 78 44 11 0 32 -8 45 -17z m-30 -53 c0 -5 -7 -10 -15 -10 -8 0 -15 5 -15 10
0 6 7 10 15 10 8 0 15 -4 15 -10z"/>
<path d="M4268 6124 c-10 -9 -10 -215 -1 -668 l6 -347 106 3 106 3 3 158 3
157 88 0 88 0 106 -160 107 -160 126 0 c107 0 125 2 121 15 -4 8 -53 83 -110
167 -57 84 -107 158 -110 165 -4 7 14 23 46 41 64 36 101 78 135 150 22 48 24
64 20 155 -3 90 -7 108 -33 156 -34 62 -94 111 -173 143 -53 20 -76 22 -342
26 -157 2 -288 0 -292 -4z m553 -232 c43 -26 62 -65 61 -124 -1 -45 -20 -78
-66 -112 -25 -19 -42 -21 -174 -21 l-147 0 -3 129 c-1 72 0 136 3 144 4 11 33
13 148 10 127 -3 146 -5 178 -26z"/>
<path d="M5273 5773 c4 -386 6 -403 61 -498 80 -136 252 -202 461 -175 180 23
297 123 346 295 11 39 14 128 14 390 l0 340 -110 0 -110 0 -5 -340 c-4 -289
-8 -345 -22 -375 -34 -72 -101 -110 -195 -110 -103 1 -178 53 -205 143 -9 30
-13 135 -13 362 l0 320 -113 3 -113 3 4 -358z"/>
<path d="M7126 6114 c-10 -27 -7 -182 5 -189 5 -4 73 -6 149 -6 76 1 141 -2
144 -7 2 -4 8 -187 12 -405 l7 -398 106 3 106 3 3 394 c2 301 5 397 15 403 6
4 71 5 142 1 164 -7 165 -7 165 107 0 43 -3 85 -6 94 -5 14 -52 16 -424 16
-372 0 -419 -2 -424 -16z"/>
<path d="M8234 5900 c-122 -17 -232 -100 -284 -213 -78 -167 -52 -351 66 -477
140 -150 422 -161 573 -25 23 21 41 43 39 50 -2 7 -30 35 -62 64 l-59 51 -35
-27 c-109 -82 -259 -67 -318 33 -14 24 -22 49 -18 55 5 9 70 10 261 5 189 -5
258 -4 269 5 17 14 18 60 3 148 -22 124 -77 218 -161 273 -82 54 -168 72 -274
58z m140 -205 c33 -22 80 -100 72 -120 -4 -12 -32 -15 -156 -15 -173 0 -178 3
-136 73 25 44 55 70 91 80 35 10 100 0 129 -18z"/>
<path d="M3372 4875 c-4 -5 -5 -545 -2 -1200 5 -1128 6 -1193 24 -1240 74
-200 185 -326 360 -411 79 -38 195 -67 252 -62 l39 3 6 130 c15 317 108 614
283 905 97 162 277 366 436 496 599 486 1416 581 2105 244 640 -313 1062 -941
1102 -1640 l8 -135 71 1 c131 3 276 68 391 178 86 81 143 167 180 273 l28 78
0 1193 0 1192 -2638 3 c-1751 1 -2641 -1 -2645 -8z"/>
<path d="M5820 3484 c-228 -42 -327 -72 -475 -144 -318 -154 -561 -397 -716
-715 -173 -355 -202 -758 -82 -1140 53 -168 158 -357 284 -512 227 -276 599
-484 955 -533 137 -19 444 -9 560 18 252 59 493 180 681 344 39 35 72 68 72
75 1 11 -291 305 -310 311 -5 2 -33 -18 -62 -43 -119 -108 -289 -198 -454
-242 -85 -22 -119 -26 -258 -26 -131 -1 -176 3 -245 20 -262 65 -479 209 -637
421 -273 367 -286 871 -31 1250 183 272 469 445 803 483 426 50 874 -195 1075
-587 71 -139 120 -325 120 -459 l0 -44 213 -3 c116 -2 218 -1 225 1 16 4 15
70 -3 199 -92 650 -564 1159 -1210 1304 -69 15 -135 21 -285 23 -107 2 -206 1
-220 -1z"/>
<path d="M5885 2595 c-81 -18 -155 -48 -223 -91 -159 -102 -279 -302 -285
-472 l-2 -67 645 0 645 0 -3 60 c-6 136 -72 275 -187 391 -63 64 -98 89 -165
122 -138 68 -287 88 -425 57z"/>
</g>
</svg>
