<svg xmlns="http://www.w3.org/2000/svg" viewBox="0 0 700 700">
  <defs>
    <style>
      .cls-1 {
        fill-rule: evenodd;
      }
    </style>
  </defs>
  <path id="UPI" class="cls-1" d="M487.283,280.125c-0.128,2.615-1.294,5.035-2,7.149-2.1,6.259-3.164,12.662-5.154,18.588-1.137,3.385-1.139,6.359-2.292,9.723-3.936,11.487-6.743,24.139-10.309,35.746-2.144,6.976-3.52,14-5.728,20.59-1.464,4.368-1.6,9.228-3.723,12.868-4.214-.766-9.894-0.286-14.605-0.286-1.6,0-4.781.323-5.441,0a1.923,1.923,0,0,1-.287-1.144c1.215-1.7.961-4.074,1.719-6.291,2.017-5.9,3.029-12.35,5.154-18.588,6.2-18.212,10.343-37.941,16.038-56.335,1.543-4.984,2.478-9.916,4.009-14.585,0.775-2.362.658-5.325,2-7.149,1.1-.689,4.09-0.286,5.727-0.286h14.892Zm-279.506.286c-0.145,3.358-1.645,6.621-2.577,9.437-1.6,4.828-2.458,9.772-4.01,14.3-1.152,3.363-1.141,6.344-2.291,9.723-3.221,9.468-5.088,19.71-8.305,29.455l-4.582,15.728c-0.4,1.175-1.46,4.651-1.145,5.148l0.286,0.572c3.857-1.258,14.584-.287,19.474-0.286H261.9c1.6,0,4.78.322,5.441,0l0.859-.286c0.121-2.149,1.131-4.246,1.718-6.006,1.6-4.785,2.589-9.766,4.01-14.3,4.1-13.079,6.894-26.4,10.882-39.178,1.759-5.638,2.826-11.243,4.582-16.586,0.781-2.378.672-5.511,2-7.435,1.1-.689,4.09-0.286,5.727-0.286h14.892V280.7h0.286c-2.937,8.133-4,16.758-6.873,25.165-5.74,16.81-9.629,35.066-14.891,52.046-2.453,7.915-3.779,22.915-10.31,26.309-2.162,1.124-5.657.859-8.878,0.858H189.162c-7.952,0-24.285,1.661-27.492-2.859a9.59,9.59,0,0,1-1.146-6.864c1.657-6.014,3.114-12.418,5.155-18.588,5.847-17.672,9.968-36.577,15.465-54.333,1.548-5,2.472-9.877,4.009-14.585,0.757-2.319.678-5.33,2-7.149,1.1-.689,4.09-0.286,5.727-0.286h14.892Zm89.637,104.664c0.234-4.791,2.582-10.13,4.009-14.3,0.938-2.74.781-4.981,1.718-7.721,2.776-8.119,4.88-17.235,7.446-25.451,1.11-3.553,1.849-7.044,2.864-10.3,0.384-1.232.229-3.913,1.145-4.576H418.552c1.519-3.428,1.846-7.272,3.15-11.152,1.078-3.208,2.683-6.692,2.864-10.581-2.623-.86-7.15-0.286-10.31-0.286H320.9c0.089-4.476,2.692-10.667,4.009-14.585,0.646-1.923.353-3.991,1.432-5.433,1.672-1.03,6.55-.286,8.878-0.286H442.894c2.554,1.628,5.389,1.606,5.728,5.433,1.082,1.627-.043,5.9-0.573,7.436-2.087,6.059-3.635,13.086-5.728,19.159-3.432,9.961-3.5,23.755-11.741,28.883-5.111,3.181-16.019,2-24.056,2H336.361c-1.755,0-5.219-.352-6.014,0l-0.859.286c-0.229,4.223-2.283,8.6-3.436,12.3-1.062,3.4-1.14,6.339-2.291,9.722a179.2,179.2,0,0,0-5.442,19.16c-1.635.542-4.478,0.286-6.586,0.286H297.414ZM504.752,280.7c1.794,0.976,2.477,4.446,3.437,6.291,2.773,5.331,5.846,10.672,8.305,16.3a0.987,0.987,0,0,0,.572-0.286l6.3-22.306,0.573,0.286c2.172,5.467,5.344,10.609,8.018,15.728,4.169,7.981,7.542,16.056,11.742,24.022,1.984,3.764,4.9,7.913,6.3,12.01-2.6,1.685-4.193,4.484-6.587,6.291-3.987,3.011-7.438,6.694-11.169,10.009l-4.582,4.862c-4.13,3.118-7.436,7.041-11.455,10.3l-4.3,4.575a76.533,76.533,0,0,0-7.733,6.863l-2.863,3.146a49.852,49.852,0,0,0-6.3,5.719h-0.573v-0.286c1.185-1.624,1.061-4.157,1.719-6.291,1.543-5.008,3.775-10.623,4.582-16.014H500.17c-1.928,2.912-5.422,5.129-8.019,7.435-3.516,3.122-6.762,6.574-10.309,9.723-1.8,1.594-3.327,4.57-5.728,5.433v-1.429c1.739-2.137,1.845-7.314,2.864-10.3,2.245-6.568,3.39-13.736,5.728-20.59,3.666-10.75,6.089-22.7,9.736-33.458,0.931-2.745.788-4.977,1.719-7.721,2.23-6.575,3.408-13.722,5.727-20.59C502.881,287.48,504.271,284.021,504.752,280.7ZM172.552,400.8c1.626,0.619,2.2,2.4,3.151,3.717,2.273,3.156,5.4,5.773,7.159,9.437h0.573c0.171-1.92,2.474-12.008,3.436-12.583a3.8,3.8,0,0,1,2-.286,4.481,4.481,0,0,1,.286,1.43c-1.322,1.809-1,4.739-1.718,7.15-1.038,3.464-2.037,7.455-2.864,11.152h-0.572c-0.977-3.165-5.491-7.04-7.446-9.723-0.869-1.191-1.366-2.88-2.864-3.431-0.112,4.334-1.934,8.556-2.864,12.582h-2.577v-0.286H167.97c1.181-3.157,1.278-6.5,2.291-10.009C171.064,407.175,172.243,404.025,172.552,400.8Zm113.979,19.445h-3.15v-0.286H283.1a7.467,7.467,0,0,0-.859-4.289c-1.3-.837-5.262-0.324-7.16-0.286-1.356,2.488-2.136,4.988-6.3,4.861v-0.572c2.195-1.757,3.57-5.057,5.155-7.435,2.529-3.8,5.869-7.313,8.018-11.438h0.573C282.717,407.524,285.875,413.644,286.531,420.249Zm17.183,0-2.577.286a4.006,4.006,0,0,1-.287-1.144c1.848-1.658,2.272-5.1,3.437-7.435,1.733-3.478,4.069-7.136,5.155-11.152h0.286v0.285c2.018,2.736,1.857,9.868,3.15,13.441l0.573-.286c1.558-3.434,4.283-6.136,6.3-9.151,0.888-1.326,1.383-3.3,2.864-4v18.874l-0.859.286a3.1,3.1,0,0,1-1.718.286c-0.845-2.512-.31-6.959-0.287-10.009,0.146-.689.464-0.351-0.286-0.857v0.285c-2.035,2.063-6.1,10.05-8.3,10.867-0.017-1.654-2.143-10.987-2.864-11.438v0.571A48.2,48.2,0,0,0,303.714,420.249Zm51.835,0.286a1.383,1.383,0,0,1-.86-0.286l-9.736-12.582h-0.287v0.286c-1.824,2.97-1.086,9.383-3.15,12.01a5.3,5.3,0,0,1-2.577.286,55.526,55.526,0,0,1,2.577-10.58c0.926-3.076.953-6.057,2-8.865h0.286v0.285c1.786,1.247,2.717,3.388,4.009,5.148,1.15,1.565,2.859,3.011,4.01,4.575,0.765,1.042,1.1,2.542,2.291,3.146v-0.572c2.179-3.01,1.018-8.662,3.15-11.725,0.584-.538,1.1-0.571,2.291-0.572a5.243,5.243,0,0,1,.286,1.716c-1.323,1.958-.991,4.909-1.718,7.435A72.218,72.218,0,0,0,355.549,420.535Zm31.788-16.3c-1,.19-1.763.881-2.291,0.572-1.131-.529-1.221-1.193-2.864-1.43-1.677,1.127-2.842.843-2.864,3.718a44.575,44.575,0,0,1,6.3,5.147c0.162,6.424-3.231,8.758-9.736,8.579-1.464-1.341-2.831-1.4-2.864-4.289a5.8,5.8,0,0,1,2.577-.858c0.736,1.871,1.563,2.386,4.3,2.288,0.614-.626,1.312-0.85,1.718-1.716,0.57-.617.593-1.309,0.573-2.574a32.976,32.976,0,0,1-6.3-5.147c-0.219-6.869,6.876-10.162,11.455-5.72v1.43Zm18.328,16.014H402.8l4.582-19.445h0.573v0.285a71.01,71.01,0,0,1,6.873,8.58c0.99,1.36,1.754,3.661,3.437,4.289,0.11-4.336,1.889-8.594,2.863-12.583a7.222,7.222,0,0,1,2.291-.286,1.034,1.034,0,0,0,.573.286v0.572c-1.315,1.846-2.635,10.211-3.436,12.869-0.564,1.869-.226,5.093-1.719,6.005v-0.286c-1.623-1.564-2.652-3.587-4.009-5.433-1.826-2.485-4.3-4.512-5.728-7.435h-0.572Q407.1,413.958,405.665,420.249Zm105.387-4.289q-0.285,1.43-.572,2.859c-7.078,4.664-17.756.622-13.747-9.722a14.439,14.439,0,0,1,9.737-8.293c3.311-.862,7.468.4,7.733,2.859-0.2.288-.369,1.144-0.573,1.43a1.461,1.461,0,0,1-.859.286c-4.6-6.223-16.838,3.861-12.887,9.437C501.389,420.732,507.81,416.6,511.052,415.96ZM153.365,401.089h2.291a4.481,4.481,0,0,1,.286,1.43c-1.224,1.777-2.84,10.561-2.863,13.727a4.523,4.523,0,0,0,1.431,1.144c1.493,1.386,4.315.124,5.728-.286a36.878,36.878,0,0,0,3.723-9.151c0.629-2.192.275-4.633,1.432-6.292,0.617-.568,1.311-0.591,2.577-0.572a4.477,4.477,0,0,1,.287,1.43c-0.734,1.176-.4,2.426-0.859,4-1.516,5.174-2.242,11.641-6.874,13.726-3.262,1.47-9.071.774-10.023-2C148.705,416.115,152.142,403.653,153.365,401.089Zm35.8,19.16a16.5,16.5,0,0,1,1.146-4.575c1.4-4.875,2.1-9.466,3.15-14.3h0.573a4.552,4.552,0,0,1,2.291-.286,4.063,4.063,0,0,1,.286,1.144c-1.316,1.825-.989,4.731-1.718,7.15-0.721,2.392-1.57,5.614-2.291,8.007-0.329,1.092-.034,1.832-0.573,2.573A6.11,6.11,0,0,1,189.162,420.249Zm10.31,0h-2.864c0.006-4.179,1.779-8.691,2.864-12.3,0.615-2.044.317-4.673,1.432-6.292a1.033,1.033,0,0,1,.573-0.286c1.665-1.085,7.9-.384,9.737,0v1.144a1.927,1.927,0,0,0-.287,1.144c-1.838.621-5.115,0.309-7.446,0.286v0.286H203.2q-0.429,2.145-.859,4.29h0.286v0.286a20.673,20.673,0,0,1,6.873,0v0.858a1.922,1.922,0,0,0-.286,1.143c-1.618.849-4.951,0.608-7.446,0.572-0.095.286-.191,0.572-0.286,0.858C200.6,413.572,199.721,418.451,199.472,420.249Zm10.882,0c0.062-2.68,1.1-5.008,1.719-7.149,1.157-4.027,1.7-7.818,2.577-11.725h0.573c0.733-.5,1.773-0.183,2.577,0v0.572c-0.929,1.273-.62,3.109-1.145,4.862-1.266,4.222-2.385,9-3.437,13.44h-2.864Zm20.333-11.438q-0.142,1-.286,2c-1.618.849-4.951,0.608-7.446,0.572a3.774,3.774,0,0,0-.573,2.288,6.707,6.707,0,0,0-.859,3.432c1.2,0.775,4.811.324,6.587,0.286a5.231,5.231,0,0,1,.286,1.715,1.928,1.928,0,0,0-.286,1.144c-3.2.04-7.943,0.609-10.6-.286,1.24-3.81,2.069-8.254,3.15-12.01,0.629-2.186.27-4.642,1.432-6.292a1.033,1.033,0,0,1,.573-0.286c1.665-1.085,7.9-.384,9.737,0v0.858c-0.41.6-.18,1.019-0.86,1.43-1.506.93-5.472,0.025-7.159,0.572q-0.429,2.145-.859,4.29C225.292,409.121,228.436,408.833,230.687,408.811Zm0.859,11.438,4.3-18.588a8.373,8.373,0,0,1,4.009-.572c1.283,0.782,3.745-.181,5.442.286,0.853,0.236,1.59.882,2.577,1.144a14.173,14.173,0,0,1,2,3.146c0.82,2.677-.538,5.7-1.146,7.149C245.905,419.543,241.347,420.426,231.546,420.249Zm27.206,0c0.386-4.361,1.979-8.975,3.151-12.868,0.577-1.919.187-5.083,1.718-6.006,1.792-1.233,8.047.072,8.878,1.144,2.655,3.234-1.074,8.315-3.723,9.151-1.849.584-4-.578-5.155,0.572-1.23,1.647-1.557,5.57-2,7.721A9.437,9.437,0,0,1,258.752,420.249Zm79.327-11.438q-0.285,1.286-.572,2.573h-7.16v0.286h-0.286c-0.256,2.062-1.052,3.384-1.146,5.72H335.5a6.114,6.114,0,0,1,.286,2,1.037,1.037,0,0,0-.286.572c-2.668.894-7.381,0.31-10.6,0.286q2.291-9.435,4.582-18.874c2.516-.843,6.97-0.309,10.023-0.286a4.477,4.477,0,0,1,.287,1.43c-1.8,2.122-4.008,1.531-7.732,1.43v0.286h-0.287q-0.429,2.145-.859,4.29C332.684,409.121,335.828,408.833,338.079,408.811Zm24.629-7.722h12.314a4.025,4.025,0,0,1,.287,1.144,3.348,3.348,0,0,0-.573,1.43,12.935,12.935,0,0,1-3.723.286c-0.2-.162-0.012-0.412-0.573-0.286v0.286l-0.859.286-3.723,16.014h-2.864v-0.286h-0.286c0.867-2.3.941-4.855,1.718-7.435a36.752,36.752,0,0,0,2-8.579h-0.286v-0.286a11.165,11.165,0,0,1-4.3,0v-0.858a1.926,1.926,0,0,0,.286-1.144A1.741,1.741,0,0,0,362.708,401.089Zm32.647,19.16a38.616,38.616,0,0,1,1.719-6.577c1.256-4.2,1.291-8.5,2.863-12.3a8.347,8.347,0,0,1,2.578-.286,4.508,4.508,0,0,1,.286,1.43c-0.908,1.247-.636,3.172-1.145,4.862-1.181,3.915-2.244,8.379-3.151,12.582A10.556,10.556,0,0,1,395.355,420.249Zm31.5,0c0.178-5.818,3.219-10.358,3.437-16.3h-0.287v-0.286a21.751,21.751,0,0,1-4.009.286,4.04,4.04,0,0,1-.287-1.144,3.337,3.337,0,0,0,.573-1.43c3.2-1.068,8.821-.31,12.6-0.286v0.286h0.286a10.286,10.286,0,0,0-.286,2l-0.859.286c-0.962.595-3.446,0.029-4.01,0.286-1.5,1.738-3.564,13.2-4.3,16.3h-2.864Zm23.2-11.438q-0.144,1.143-.287,2.287c-1.838.621-5.114,0.309-7.446,0.286v0.286h-0.286q-0.573,2.86-1.145,5.72h6.873a4.044,4.044,0,0,1,.286,1.144,2.964,2.964,0,0,0-.573,1.715H437.167c0.005-4.228,1.824-8.623,2.863-12.3,0.578-2.04.328-4.689,1.432-6.292a1.041,1.041,0,0,1,.573-0.286c1.7-1.085,7.062-.324,9.451-0.286a4.508,4.508,0,0,1,.286,1.43c-0.186.246-.383,0.9-0.573,1.144-1.3.837-5.262,0.324-7.159,0.286v0.572a10.046,10.046,0,0,0-1.146,4C444.658,409.121,447.8,408.833,450.054,408.811Zm3.723,11.438h-2.864q2.148-9.293,4.3-18.588c1.182-.627,3.185-0.607,5.154-0.572,1.67,0.979,2.948.144,4.01,1.716,1.521,1.954-.1,6.423-1.432,7.435-1.223.927-2.9,0.614-3.437,2.288,1.287,1.054,3.446,5.916,4.01,7.721h-3.437l-4.009-8.293h-0.287v0.286C454.627,413.9,453.961,418.029,453.777,420.249Zm14.891,0h-3.15c0.664-6.482,3.847-12.262,4.3-18.874a39.948,39.948,0,0,1,10.6,0v0.572a2.475,2.475,0,0,0-.286,1.43c-1.618.849-4.951,0.607-7.446,0.572a3.774,3.774,0,0,0-.573,2.288,3.365,3.365,0,0,0-.573,2.288h0.287v0.286a36.779,36.779,0,0,1,6.3-.286,6.141,6.141,0,0,1,.286,2,1.037,1.037,0,0,0-.286.572c-1.839.621-5.115,0.309-7.446,0.286v0.572C469.778,413.3,468.768,418.275,468.668,420.249Zm24.915,0h-3.15l-0.573-4.289c-1.617-.849-4.951-0.607-7.445-0.572a1.041,1.041,0,0,1-.573.286c-0.69,2.451-2.218,4.7-5.728,4.575,0.56-3.3,7.7-11.273,9.737-14.3,1.087-1.614,1.756-4.167,3.723-4.862v0.286c1.208,1.923.741,4.724,1.432,7.15A62.14,62.14,0,0,1,493.583,420.249Zm27.206-16.3c-0.206,1.415-1.267,3.653-.859,4.576,1.249,0.806,5.037.324,6.873,0.286q-0.143,1.143-.286,2.287c-1.839.621-5.115,0.309-7.446,0.286v0.572c-0.874,1.145-1.237,3.779-1.432,5.434h6.873a4.492,4.492,0,0,1,.287,1.429,3.348,3.348,0,0,0-.573,1.43h-10.31c0.2-4.777,2.21-9.98,3.437-14.3,0.461-1.625.126-3.824,1.432-4.576,1.241-.808,8.518-0.315,10.023,0v0.572c-0.349.452-.5,1.271-0.859,1.716C526.65,404.5,522.687,403.987,520.789,403.949ZM289.4,401.375h3.15c0.283,1.474,2.109,6.921,3.15,7.436v-0.286c2.582-2.557,3.748-7.208,8.878-7.15v0.572c-1.213.865-8.041,8.491-8.591,9.723-1,2.238-1.466,6.22-2.005,8.579h-2.864c0.158-2.745,2.551-6.986,1.719-9.723C291.933,407.572,289.926,404.742,289.4,401.375Zm167.245,8.008a12.3,12.3,0,0,0,3.723-.572c0.783-1.208,1.39-1.614,1.432-3.718a2.642,2.642,0,0,0-1.432-.858,4.093,4.093,0,0,0-2.291-.286C457.138,404.972,456.706,407.62,456.64,409.383ZM235.269,417.39c8.693,0.2,11.888-3.09,11.169-11.153-1.438-1.148-1.464-2.021-4.3-2-0.662-.44-2.321-0.32-3.436-0.286q-0.144.429-.286,0.858C237.414,406.165,235.564,415.123,235.269,417.39ZM264.48,409.1l4.009-.286a5.043,5.043,0,0,0,.859-1.144c0.6-.651.606-1.528,0.573-2.86a3,3,0,0,0-1.718-.572,4.541,4.541,0,0,0-2.291-.286,3.3,3.3,0,0,0-.573,2A6.913,6.913,0,0,0,264.48,409.1Zm223.089-2c-0.332,1.268-3.5,5.224-3.15,5.433,0.805,0.53,3,.323,4.3.286A4.044,4.044,0,0,0,489,411.67c-0.68-1.015-.839-3.054-0.859-4.575h-0.573Zm-207.338.286c-0.233,1.312-3.238,4.929-2.864,5.147,0.854,0.561,3.23.323,4.582,0.286q-0.429-2.717-.859-5.433h-0.859Z"/>
</svg>
