<?xml version="1.0" standalone="no"?>
<!DOCTYPE svg PUBLIC "-//W3C//DTD SVG 20010904//EN"
 "http://www.w3.org/TR/2001/REC-SVG-20010904/DTD/svg10.dtd">
<svg version="1.0" xmlns="http://www.w3.org/2000/svg"
 width="1200.000000pt" height="660.000000pt" viewBox="0 0 1200.000000 660.000000"
 preserveAspectRatio="xMidYMid meet">
<metadata>
Created by potrace 1.13, written by Peter Selinger 2001-2015
</metadata>
<g transform="translate(0.000000,660.000000) scale(0.100000,-0.100000)"
fill="#000000" stroke="none">
<path d="M9263 5261 c-6 -10 -28 -81 -48 -157 -52 -197 -94 -355 -122 -456
-13 -49 -35 -130 -49 -180 -14 -51 -32 -118 -40 -148 -9 -30 -19 -68 -24 -85
-4 -16 -18 -66 -30 -110 -12 -44 -27 -96 -32 -115 -12 -46 -21 -78 -48 -175
-12 -44 -26 -93 -30 -110 -5 -16 -16 -55 -25 -85 -21 -73 -45 -158 -55 -195
-4 -16 -24 -86 -44 -155 -20 -69 -48 -168 -62 -220 -15 -52 -33 -115 -40 -140
-19 -58 -81 -277 -124 -435 -5 -16 -15 -54 -24 -84 -8 -30 -13 -58 -10 -63 8
-13 571 -10 580 3 6 11 29 86 44 149 5 19 20 76 33 125 14 50 37 133 51 185
14 52 32 122 42 155 9 33 22 84 30 113 8 28 20 76 28 105 8 28 21 77 30 107
16 57 48 176 92 340 15 52 33 118 41 145 8 28 18 66 23 85 4 19 22 85 40 145
17 61 42 151 56 200 14 50 32 115 40 145 9 30 20 69 24 85 16 60 155 545 174
605 8 25 21 72 31 105 9 33 20 70 25 82 22 53 20 53 -284 53 -264 0 -282 -1
-293 -19z"/>
<path d="M1442 5258 c-9 -11 -22 -55 -72 -243 -4 -16 -19 -73 -33 -125 -15
-52 -33 -120 -41 -150 -8 -30 -30 -113 -50 -185 -46 -164 -111 -402 -132 -480
-9 -33 -20 -71 -25 -85 -4 -14 -17 -59 -28 -100 -39 -146 -91 -335 -101 -366
-6 -17 -21 -71 -34 -120 -51 -190 -68 -252 -88 -319 -11 -38 -22 -79 -25 -90
-3 -11 -11 -40 -18 -65 -7 -25 -18 -63 -24 -85 -6 -22 -24 -87 -41 -144 -39
-133 -40 -215 -6 -270 31 -49 69 -78 116 -91 26 -7 563 -9 1602 -8 1510 3
1564 4 1598 22 49 26 98 74 120 117 10 19 31 80 45 135 15 54 31 113 36 129
47 174 60 221 79 290 12 44 26 94 30 110 5 17 16 57 25 90 17 60 27 97 44 158
5 17 19 68 31 112 12 44 26 94 30 110 5 17 16 55 25 85 9 30 20 71 25 90 5 19
20 76 35 125 14 50 32 113 39 140 8 28 28 100 46 160 31 108 54 190 70 250 5
17 23 80 40 140 17 61 35 124 40 140 4 17 15 56 24 88 9 31 23 81 31 110 8 28
32 111 53 184 28 94 36 135 29 142 -13 13 -555 15 -573 3 -6 -4 -21 -45 -33
-92 -12 -47 -35 -134 -52 -195 -16 -60 -39 -144 -50 -185 -50 -185 -120 -439
-133 -485 -22 -75 -43 -151 -67 -240 -12 -44 -25 -93 -30 -110 -32 -118 -62
-228 -74 -270 -8 -27 -26 -93 -40 -145 -14 -52 -33 -120 -41 -150 -9 -30 -19
-68 -24 -85 -4 -16 -18 -66 -30 -110 -12 -44 -26 -93 -30 -110 -29 -106 -41
-149 -50 -166 -10 -19 -37 -19 -1170 -19 -637 0 -1161 4 -1164 8 -3 5 5 45 18
88 27 89 94 323 106 369 12 45 35 128 70 250 29 98 39 135 71 253 5 17 13 47
18 65 25 89 42 153 75 267 46 162 64 227 76 270 5 19 21 76 35 125 15 50 33
113 40 140 8 28 28 97 45 155 17 58 35 121 40 140 5 19 21 75 36 123 14 49 23
95 20 103 -7 19 -568 21 -584 2z"/>
<path d="M5341 5260 c-7 -5 -24 -62 -66 -220 -45 -170 -57 -215 -66 -240 -5
-14 -10 -43 -12 -65 l-2 -40 1448 0 c1367 0 1448 -1 1453 -17 3 -10 2 -23 -1
-29 -6 -8 -48 -155 -72 -244 -3 -11 -11 -40 -18 -65 -7 -25 -25 -90 -41 -145
-15 -55 -32 -106 -37 -113 -8 -10 -301 -12 -1460 -12 -1171 1 -1452 -2 -1458
-12 -4 -7 -22 -67 -39 -133 -18 -66 -36 -135 -41 -152 -19 -71 -28 -102 -53
-198 -15 -55 -38 -138 -52 -185 -13 -47 -31 -107 -39 -135 -8 -27 -21 -75 -29
-105 -8 -30 -35 -129 -61 -220 -26 -91 -49 -174 -52 -185 -14 -54 -85 -296
-100 -343 -11 -35 -13 -56 -7 -62 7 -7 117 -9 294 -8 l284 3 23 85 c24 87 68
251 83 305 4 17 18 66 30 110 55 201 72 262 80 295 5 19 20 78 35 130 14 52
33 122 42 155 8 33 19 67 23 75 8 13 169 15 1357 15 l1348 0 70 35 c81 40 160
115 192 180 12 25 32 81 44 125 12 44 25 95 30 113 5 17 13 47 18 65 5 17 19
68 31 112 12 44 26 95 31 113 18 64 27 98 43 152 8 30 26 96 40 145 23 82 62
222 103 365 41 144 39 205 -8 270 -16 22 -46 48 -66 59 -37 18 -85 19 -1676
22 -901 2 -1642 2 -1646 -1z"/>
<path d="M10332 5247 c-10 -12 -29 -78 -93 -325 -70 -273 -133 -508 -171 -637
-11 -38 -24 -86 -28 -105 -8 -33 -43 -160 -75 -275 -37 -132 -77 -277 -96
-345 -11 -41 -24 -86 -28 -100 -5 -14 -17 -54 -26 -90 -10 -36 -23 -83 -30
-105 -7 -22 -18 -58 -24 -80 -6 -22 -24 -85 -40 -140 -15 -55 -48 -167 -71
-250 -23 -82 -46 -161 -50 -175 -5 -14 -16 -52 -25 -85 -10 -33 -23 -80 -31
-104 -15 -49 -18 -81 -6 -81 9 0 46 34 217 200 368 356 446 430 455 430 12 0
13 -22 1 -52 -9 -26 -22 -69 -81 -273 -22 -77 -52 -176 -65 -220 -14 -44 -25
-84 -25 -88 0 -14 27 6 102 78 40 38 109 103 153 144 44 41 143 136 220 211
77 74 214 205 305 290 91 85 210 198 265 251 55 53 189 178 297 278 108 100
198 188 201 194 4 12 -690 1417 -714 1445 -18 21 -34 8 -40 -34 -4 -21 -20
-91 -37 -154 -17 -63 -46 -176 -65 -250 -37 -140 -53 -190 -62 -190 -3 0 -47
87 -99 193 -51 105 -118 244 -150 308 -31 64 -56 121 -56 127 0 17 -17 23 -28
9z"/>
<path d="M6869 1891 c-73 -24 -120 -70 -144 -141 -15 -44 -15 -50 1 -84 12
-24 42 -53 91 -87 66 -46 73 -53 73 -84 0 -42 -41 -75 -93 -75 -28 0 -40 6
-57 30 -23 33 -36 36 -74 18 -33 -15 -41 -40 -22 -77 57 -110 259 -90 331 34
59 99 41 162 -65 229 -84 53 -98 83 -60 124 25 26 91 30 110 7 17 -21 53 -19
81 4 21 17 22 21 11 42 -7 13 -24 32 -36 41 -28 20 -110 31 -147 19z"/>
<path d="M10390 1890 c-108 -16 -229 -110 -277 -217 -30 -69 -37 -181 -13
-229 40 -81 113 -124 212 -124 73 0 155 26 174 55 7 11 16 37 19 58 6 32 5 37
-12 37 -10 0 -24 -5 -31 -12 -39 -39 -167 -50 -218 -19 -84 51 -66 211 32 303
76 70 188 76 277 15 15 -10 21 -9 33 7 15 21 19 64 6 81 -26 36 -120 57 -202
45z"/>
<path d="M492 1878 c-11 -14 -22 -54 -48 -168 -9 -41 -20 -85 -25 -98 -5 -13
-9 -33 -9 -45 0 -12 -7 -35 -15 -51 -8 -15 -15 -35 -15 -44 0 -33 44 -104 78
-127 31 -21 48 -25 115 -25 93 0 144 20 198 77 52 54 71 104 115 293 37 162
39 181 23 191 -45 28 -82 -3 -98 -82 -19 -92 -68 -275 -82 -304 -35 -73 -159
-103 -208 -51 -19 20 -22 32 -18 68 7 53 20 120 35 173 39 142 45 175 32 190
-15 18 -64 20 -78 3z"/>
<path d="M5432 1874 c-12 -8 -22 -25 -22 -38 0 -12 -6 -42 -14 -67 -7 -24 -21
-80 -31 -124 -9 -44 -21 -91 -25 -105 -22 -70 -43 -179 -37 -194 6 -14 26 -16
147 -16 l140 0 11 27 c5 15 9 36 7 47 -3 19 -11 21 -97 24 l-93 3 7 37 c4 20
9 51 12 67 9 51 18 55 119 55 82 0 95 2 104 19 15 29 12 58 -7 65 -9 4 -52 6
-95 5 -43 -1 -81 0 -83 3 -3 2 0 18 5 34 5 16 12 41 15 57 l5 27 100 0 c88 0
100 2 110 19 15 29 12 58 -6 65 -9 3 -68 6 -133 6 -89 0 -122 -4 -139 -16z"/>
<path d="M5804 1863 c-3 -16 -8 -35 -10 -43 -3 -8 -12 -46 -21 -85 -18 -81
-26 -115 -48 -205 -29 -116 -38 -168 -32 -184 8 -19 60 -22 75 -3 6 7 20 55
32 107 12 52 26 105 31 118 5 13 9 34 9 47 0 32 10 55 24 55 6 0 26 -21 44
-48 18 -26 45 -61 60 -78 15 -17 56 -72 92 -122 36 -50 71 -93 78 -96 15 -7
29 25 47 104 20 87 46 202 55 240 4 19 17 71 29 114 23 88 18 106 -29 106 -44
0 -46 -5 -90 -205 -24 -106 -34 -145 -40 -145 -4 0 -38 42 -76 93 -155 206
-197 257 -210 257 -7 0 -16 -12 -20 -27z"/>
<path d="M6340 1871 c-5 -11 -10 -31 -10 -45 0 -25 3 -26 55 -26 38 0 57 -4
61 -14 3 -7 -7 -62 -21 -122 -15 -60 -30 -127 -35 -149 -4 -22 -13 -57 -20
-78 -6 -21 -10 -52 -8 -70 3 -29 6 -32 40 -35 42 -4 48 4 67 83 7 28 16 66 21
85 5 19 21 87 36 150 37 155 35 153 95 148 64 -6 91 11 87 55 l-3 32 -177 3
c-167 2 -178 1 -188 -17z"/>
<path d="M7396 1875 c-8 -9 -18 -32 -22 -53 -3 -20 -10 -50 -14 -67 -15 -53
-38 -148 -56 -225 -9 -41 -20 -85 -25 -98 -5 -13 -9 -41 -9 -62 0 -40 0 -40
40 -40 44 0 58 17 71 85 7 36 46 205 68 295 5 19 17 61 26 93 13 46 14 61 4
73 -15 19 -64 18 -83 -1z"/>
<path d="M7596 1878 c-6 -22 -35 -139 -51 -213 -9 -38 -20 -86 -25 -105 -5
-19 -12 -46 -15 -60 -3 -14 -12 -50 -20 -80 -19 -71 -13 -90 29 -90 19 0 38 6
44 13 5 6 17 48 27 92 9 44 21 90 26 103 5 13 9 31 9 40 0 60 38 117 53 80 2
-7 54 -77 113 -155 60 -78 114 -150 120 -160 16 -25 46 -7 55 33 48 212 63
277 74 319 26 95 38 163 31 180 -4 11 -15 15 -38 13 -39 -4 -50 -22 -73 -128
-9 -41 -21 -93 -27 -115 -5 -22 -12 -55 -15 -72 -3 -19 -11 -33 -19 -33 -8 0
-14 4 -14 8 0 11 -204 282 -242 323 -21 22 -37 24 -42 7z"/>
<path d="M8138 1878 c-15 -12 -22 -35 -19 -65 1 -8 24 -13 64 -15 48 -2 62 -6
60 -18 -2 -16 -63 -266 -88 -361 -19 -71 -13 -89 31 -89 36 0 58 23 68 70 4
22 18 79 79 335 l14 60 69 5 c64 5 69 7 78 32 18 53 2 58 -178 58 -115 0 -167
-4 -178 -12z"/>
<path d="M8574 1880 c-16 -6 -26 -33 -53 -142 -17 -73 -46 -188 -63 -255 -16
-68 -28 -129 -24 -138 4 -12 29 -15 144 -15 155 0 166 4 160 62 l-3 33 -88 3
c-58 2 -89 7 -92 15 -2 7 4 41 14 77 l18 65 99 3 c105 3 114 7 114 55 0 30 3
29 -108 28 -85 0 -90 5 -69 75 l14 49 99 3 c105 3 114 7 114 55 l0 27 -114 0
c-63 0 -120 2 -128 4 -7 3 -22 1 -34 -4z"/>
<path d="M8951 1875 c-14 -19 -28 -67 -61 -220 -5 -22 -23 -97 -40 -167 -18
-71 -30 -135 -26 -143 7 -20 60 -19 77 1 12 15 26 66 47 172 4 18 11 33 17 34
11 1 15 -6 57 -97 50 -110 63 -125 108 -125 21 0 42 5 46 11 3 6 -17 56 -45
112 -54 108 -61 137 -34 137 28 0 84 51 104 94 35 78 18 162 -38 184 -37 14
-202 20 -212 7z m149 -93 c19 -16 22 -24 16 -55 -7 -38 -31 -60 -76 -70 -42
-10 -49 2 -38 63 5 30 14 61 20 68 15 18 52 15 78 -6z"/>
<path d="M9373 1879 c-23 -8 -24 -10 -47 -114 -9 -38 -21 -86 -26 -105 -37
-135 -72 -301 -67 -315 5 -12 17 -15 44 -13 36 3 39 6 54 53 9 28 24 85 34
128 l17 77 99 0 c87 0 99 2 109 19 15 29 12 58 -6 65 -9 3 -54 6 -100 6 -46 0
-84 3 -83 8 0 4 8 30 17 57 l17 50 99 5 c99 5 99 5 109 34 16 47 -8 57 -138
55 -60 -1 -120 -5 -132 -10z"/>
<path d="M9873 1873 c-3 -10 -32 -54 -62 -98 -241 -343 -294 -423 -287 -434 4
-6 23 -11 43 -11 38 0 41 2 99 88 l36 53 95 -3 c108 -3 97 5 123 -95 10 -42
12 -43 51 -43 60 0 60 1 13 220 -19 90 -28 130 -49 235 -16 78 -28 105 -47
105 -5 0 -11 -8 -15 -17z m-1 -248 c4 -27 5 -52 2 -57 -7 -11 -91 -10 -98 0
-8 13 65 113 78 109 6 -2 14 -26 18 -52z"/>
<path d="M10713 1882 c-11 -7 -24 -48 -43 -137 -5 -22 -14 -60 -20 -85 -38
-146 -61 -250 -63 -285 l-2 -40 146 -3 146 -3 13 30 c6 16 9 39 5 50 -6 19
-14 21 -96 21 -105 0 -104 -1 -73 106 l15 52 83 -5 c50 -3 91 -1 103 5 25 14
39 72 21 84 -7 4 -53 8 -102 8 l-88 0 6 28 c4 15 10 39 13 55 6 31 2 30 105
27 98 -2 120 9 116 58 l-3 37 -135 3 c-74 1 -140 -1 -147 -6z"/>
<path d="M1025 1853 c-14 -66 -46 -201 -68 -283 -35 -131 -50 -208 -44 -224 8
-19 60 -22 75 -3 9 10 32 100 72 275 7 28 16 54 20 57 7 4 94 -104 219 -273
58 -78 80 -87 91 -37 63 279 91 401 100 431 6 17 10 42 10 57 0 24 -4 27 -35
27 -43 0 -44 -2 -85 -179 -17 -69 -35 -137 -41 -151 -10 -24 -11 -24 -22 -5
-6 11 -57 79 -113 151 -56 73 -110 144 -119 158 -23 35 -53 34 -60 -1z"/>
<path d="M1620 1858 c-5 -13 -23 -81 -40 -153 -17 -71 -35 -146 -40 -165 -52
-194 -52 -204 2 -208 45 -4 48 1 77 133 22 102 63 277 82 352 14 52 7 63 -37
63 -26 0 -37 -5 -44 -22z"/>
<path d="M1833 1868 c-5 -7 -17 -42 -26 -78 -9 -36 -26 -103 -37 -150 -47
-186 -53 -217 -54 -260 -1 -42 1 -45 28 -48 16 -2 34 1 40 8 6 6 25 63 41 128
l30 117 95 3 c102 3 120 12 120 59 0 13 -6 23 -12 24 -7 0 -49 1 -93 2 l-80 2
1 35 c1 19 7 47 13 63 10 27 11 27 105 27 101 0 120 9 114 52 -3 23 -6 23
-139 26 -101 2 -139 -1 -146 -10z"/>
<path d="M2210 1855 c-5 -14 -12 -36 -15 -48 -12 -58 -87 -366 -96 -398 -18
-58 -10 -74 36 -74 36 0 40 3 51 35 6 19 17 60 23 90 7 30 18 82 26 115 8 33
21 92 30 130 8 39 20 87 27 107 15 51 6 68 -37 68 -29 0 -37 -5 -45 -25z"/>
<path d="M2423 1868 c-9 -11 -30 -93 -74 -278 -4 -19 -19 -80 -32 -134 -14
-55 -23 -106 -20 -113 4 -10 38 -13 143 -13 153 0 164 4 158 62 l-3 33 -88 3
c-58 2 -89 7 -92 15 -2 7 4 41 13 77 l17 65 102 3 101 3 11 30 c6 17 8 35 5
40 -3 5 -46 9 -95 9 -104 0 -107 3 -86 76 l14 49 94 3 c101 3 119 12 119 59 0
23 0 23 -139 23 -99 0 -141 -4 -148 -12z"/>
<path d="M2806 1863 c-35 -123 -117 -480 -114 -501 3 -26 6 -27 68 -30 78 -5
213 15 255 36 79 40 132 100 164 189 42 116 35 196 -24 262 -43 47 -98 61
-240 61 -90 0 -104 -2 -109 -17z m239 -83 c92 -35 68 -230 -38 -314 -35 -28
-44 -30 -120 -31 l-82 0 3 30 c3 29 42 201 63 280 6 22 16 44 23 48 13 9 117
0 151 -13z"/>
<path d="M3570 1860 c-6 -12 -20 -56 -30 -98 -10 -42 -37 -152 -60 -244 -23
-93 -38 -172 -35 -178 9 -14 72 -12 82 3 4 6 19 59 34 117 25 102 27 105 55
108 100 8 144 25 183 67 57 62 74 131 46 185 -24 47 -61 60 -169 60 -86 0 -96
-2 -106 -20z m175 -80 c22 -18 18 -55 -8 -85 -17 -20 -35 -28 -71 -32 l-49 -6
7 48 c14 88 21 98 67 92 22 -3 46 -11 54 -17z"/>
<path d="M4077 1866 c-6 -15 -85 -129 -259 -375 -48 -68 -88 -133 -88 -143 0
-16 6 -19 43 -16 40 3 44 7 87 70 l45 68 99 -3 99 -2 16 -65 17 -65 44 0 45 0
-3 43 c-1 23 -16 100 -32 170 -16 70 -35 152 -41 182 -23 111 -35 145 -51 148
-8 2 -18 -4 -21 -12z m6 -298 c-7 -12 -103 -9 -103 2 0 6 19 38 42 72 l43 63
12 -65 c6 -36 9 -68 6 -72z"/>
<path d="M4310 1856 c0 -22 39 -137 77 -227 16 -38 16 -34 -19 -179 -18 -73
-16 -114 5 -118 42 -8 66 7 77 51 6 23 16 56 21 73 5 17 9 42 9 55 0 40 39
102 135 211 49 57 95 109 102 116 25 26 15 42 -24 42 -35 0 -44 -8 -126 -100
-48 -55 -91 -100 -96 -100 -5 0 -11 10 -14 23 -6 25 -53 153 -62 167 -3 6 -24
10 -46 10 -35 0 -39 -3 -39 -24z"/>
<path d="M4851 1858 c-16 -40 -47 -110 -96 -213 -148 -311 -146 -308 -103
-313 41 -5 61 11 82 65 11 26 34 80 51 118 18 39 35 80 39 93 11 33 23 27 29
-15 22 -134 55 -258 69 -261 15 -3 67 64 173 221 21 31 43 57 48 57 7 0 8 -46
4 -128 -5 -94 -4 -131 5 -140 16 -16 63 -15 76 1 6 7 11 115 14 275 3 229 1
262 -12 260 -15 -3 -30 -23 -171 -235 -45 -68 -85 -123 -89 -123 -4 0 -10 17
-13 38 -4 20 -13 66 -22 102 -8 36 -20 90 -25 120 -13 67 -26 100 -40 100 -6
0 -14 -10 -19 -22z"/>
</g>
</svg>
