<svg xmlns="http://www.w3.org/2000/svg" width="700" height="700" viewBox="0 0 700 700">
  <defs>
    <style>
      .cls-1 {
        fill-rule: evenodd;
      }
    </style>
  </defs>
  <path id="V-Pay" class="cls-1" d="M28,0H672V700H28V0ZM44.135,16.068a8.76,8.76,0,0,0-.232,3.144V454.558c1.372,0.451,3.73.116,5.34,0.116H655.981a15.641,15.641,0,0,0,.116-3.959V16.3a0.717,0.717,0,0,1-.232-0.233H44.135ZM504.5,95.825a4.29,4.29,0,0,1-.7,1.746c-0.684,1.489-1.229,3.028-1.857,4.424-0.919,2.043-1.385,4.022-2.322,6.055-1.414,3.068-2.92,6.408-4.178,9.547-3.9,9.729-7.838,19.421-12.073,28.876-0.5,1.128-.646,2.14-1.16,3.26-2.084,4.534-4,9.421-6.036,13.972-0.506,1.129-.647,2.141-1.161,3.26-2.5,5.452-4.7,11.311-7.2,16.766-0.509,1.113-.65,2.149-1.161,3.261-2.749,5.981-5.2,12.391-7.893,18.4-0.916,2.045-1.387,4.02-2.322,6.055-2.5,5.451-4.7,11.31-7.2,16.766-0.513,1.12-.654,2.132-1.161,3.26-6.738,14.977-12.556,30.653-19.269,45.642-0.918,2.05-1.4,4.007-2.322,6.055-4.6,10.222-8.567,21.008-13.233,31.2-2.008,4.389-3.356,8.866-5.339,13.274-5.667,12.6-10.5,25.856-16.251,38.423-0.509,1.112-.651,2.148-1.161,3.26-1.405,3.064-2.925,6.409-4.179,9.548-0.4,1-.775,1.9-1.16,2.794-0.176.406-.225,1.319-0.581,1.514h-78.12a30.925,30.925,0,0,1-.929-3.61c-0.852-2.6-1.482-5.671-2.321-8.267-0.3-.929-0.162-1.633-0.465-2.561-3.437-10.532-5.188-22.059-8.589-32.6-0.207-.639-0.026-0.991-0.233-1.63-0.381-1.177-.783-2.664-1.16-3.842v-0.7c-2.29-7.019-3.538-14.748-5.8-21.773-0.67-2.075-.72-4.106-1.393-6.171-2.105-6.452-3.256-13.561-5.34-20.026-0.48-1.491-.439-2.8-0.928-4.308-1.334-4.095-2.169-8.708-3.483-12.808-0.483-1.508-.441-2.811-0.928-4.308-1.149-3.526-1.846-7.533-3.018-11.061-0.392-1.18-.309-2.189-0.7-3.377-0.849-2.6-1.484-5.67-2.321-8.267-0.3-.929-0.162-1.633-0.465-2.561-3.43-10.534-5.188-22.059-8.59-32.6-0.3-.929-0.162-1.633-0.464-2.561-0.566-1.738-1.066-3.846-1.625-5.589-0.205-.64-0.024-0.992-0.232-1.63-3.429-10.532-5.193-22.057-8.59-32.6-0.206-.639-0.025-0.991-0.232-1.63-0.565-1.74-1.066-3.853-1.625-5.589-0.289-.9-0.168-1.561-0.464-2.445-1.8-5.371-3.491-10.262-6.5-14.321a13.024,13.024,0,0,0-2.554-2.445q-0.405-.466-0.812-0.932c-1.313-.989-2.68-2.036-4.063-2.91-4.4-2.783-9.292-4.806-14.277-6.986-8.338-3.647-17.369-6.684-26.35-9.781-3.136-1.082-6.329-1.844-9.4-2.794-0.82-.254-1.379-0.186-2.206-0.466-3.075-1.043-6.623-1.751-9.75-2.8-1.2-.4-2.25-0.3-3.483-0.7a71.974,71.974,0,0,0-10.563-2.562c0.148-2.78,1.411-5.1,1.509-7.917a9.063,9.063,0,0,1,3.25-.233H285.809c0.718,0.428,1.844,0,2.786.233,2.132,0.528,4.409.679,6.384,1.4,6.545,2.379,12.341,6.04,16.135,11.178a46.058,46.058,0,0,1,6.5,12.807c0.808,2.381.962,5.155,1.625,7.569,0.223,0.811-.02,1.373.232,2.212,0.454,1.507.472,3.225,0.929,4.89,1.545,5.628,1.958,11.949,3.482,17.582,0.227,0.837-.02,1.384.233,2.212,0.6,1.958.864,4.431,1.393,6.4v1.048c1.779,5.9,2.1,12.773,3.714,18.745v0.932c0.44,1.609.684,3.654,1.161,5.239v0.932c0.438,1.594.734,3.65,1.161,5.239v1.048c0.352,1.169.6,2.762,0.928,3.959v0.932c1.571,5.155,1.7,11.139,3.25,16.3,0.25,0.83,0,1.375.233,2.213,0.326,1.191.61,2.773,0.928,3.958V223.9c1.193,3.953,1.362,8.609,2.554,12.575,0.335,1.114.127,2.376,0.464,3.493,0.828,2.743,1.029,6.1,1.857,8.849,0.336,1.113.128,2.376,0.465,3.493,0.827,2.744,1.029,6.1,1.857,8.849,0.351,1.168.11,2.327,0.464,3.493,0.592,1.947.86,4.433,1.393,6.4,0.228,0.843,0,1.369.232,2.212,1.557,5.7,2.118,12.013,3.483,17.814H350c1.767-4.77,3.645-9.629,5.688-14.2,0.351-.786.371-1.445,0.7-2.213,1.232-2.907,2.435-6.094,3.715-8.965,0.876-1.967,1.209-3.857,2.089-5.822,2.225-4.97,4.053-10.4,6.268-15.369,0.877-1.967,1.21-3.856,2.09-5.822,3.688-8.241,6.54-17.135,10.215-25.382,0.876-1.967,1.21-3.857,2.089-5.822,1.2-2.679,2.333-5.663,3.482-8.383,0.406-.959.493-1.819,0.929-2.8,1.114-2.489,2.183-5.275,3.25-7.8,0.324-.767.345-1.427,0.7-2.212,5.32-11.89,9.325-24.662,14.625-36.56,0.877-1.967,1.21-3.857,2.09-5.822,1.114-2.489,2.183-5.275,3.25-7.8,0.324-.767.345-1.427,0.7-2.212,1.284-2.87,2.485-6.054,3.715-8.966,0.324-.767.345-1.427,0.7-2.212,1.876-4.193,3.674-8.757,5.34-13.04,1.325-3.407,2.694-6.714,3.947-10.014,0.248-.654,1.021-3.577,1.393-3.842H504.5Zm-313.062,408.8v131.92h23.1a0.333,0.333,0,0,1,.116-0.117V586.244a33.877,33.877,0,0,1,4.643.582c1.914,0.433,4.305-.171,6.152.233a24.722,24.722,0,0,0,4.295-.233H232.3c2.991-.682,6.337-0.636,9.054-1.4,1.035-.29,1.791-0.163,2.786-0.466a66.817,66.817,0,0,0,7.313-2.328c10.68-4.671,18.663-11.408,22.867-22.588,2.676-7.117,4.438-19.507,1.857-28.41a43.579,43.579,0,0,0-6.152-13.39c-5.238-7.325-13.228-11.477-22.983-14.322-2.476-.722-5.127-0.788-7.661-1.4L235.9,502.3c-0.982-.216-2.3.025-3.482-0.233a35.582,35.582,0,0,0-6.849-.232,21.252,21.252,0,0,0-3.946.116l-11.376.349c-2.04.457-4.624,0.248-6.616,0.7h-1.509c-1.874.435-4.2,0.5-6.036,0.931h-1.045A22.547,22.547,0,0,1,191.438,504.624Zm223.1-1.863c-0.312.757,0.636,1.81,1.045,2.562,1.145,2.108,2.166,4.241,3.25,6.287,3.091,5.83,5.956,11.734,9.054,17.465,1.706,3.155,3.051,6.432,4.876,9.431,1.161,1.91,1.743,4.025,2.9,5.938,4.027,6.648,7.055,13.944,10.8,20.842,1.606,2.963,3.124,6.2,4.875,9.082,0.41,0.675.529,1.414,0.929,2.1,0.627,1.069,1.121,2.225,1.741,3.376a6.808,6.808,0,0,1,.58.815v55.772a0.708,0.708,0,0,1,.232.233,35.59,35.59,0,0,1,5.8-.116H471.65c1.115,0,5.739.2,6.152,0,0.515-.357.232-2.557,0.232-3.377V580.19c1.254-1.388,1.8-3.489,2.786-5.124,2.232-3.682,4.006-7.677,6.268-11.41,6.092-10.052,11.078-20.93,17.179-30.971,1.409-2.319,2.309-4.782,3.715-7.1,2.468-4.073,4.606-8.5,7.081-12.575,0.693-1.142,1.046-2.347,1.741-3.493,0.9-1.493,1.685-3.054,2.554-4.657a5.833,5.833,0,0,0,1.044-1.979h-0.116v-0.117c-2.129.4-4.971,0.117-7.313,0.117h-13c-1.968,0-4.441-.136-6.037,0-0.4,1.958-2.1,4.589-2.9,6.4-1.926,4.368-3.715,8.742-5.8,12.925-1.515,3.031-2.582,6.093-3.947,9.2-2.77,6.3-5.824,12.743-8.59,19.1-1.9,4.361-3.41,8.734-5.223,13.157a0.392,0.392,0,0,1-.232-0.116c-0.874-1.219-1.246-3.411-1.858-4.891-1.285-3.108-2.467-6.287-3.83-9.431-2.7-6.238-5.36-12.727-8.358-18.746-0.587-1.178-.865-2.29-1.393-3.493-1.516-3.456-3.2-7.105-4.875-10.479-1.536-3.086-2.688-6.313-4.179-9.314-0.743-1.5-1.048-3.246-2.089-4.425a36.641,36.641,0,0,1-6.152.117H422.549C420.552,502.878,416.108,503.28,414.539,502.761ZM293.47,636.544H317.5c0.039-.117.078-0.233,0.116-0.35l10.912-37.375c0.574-.356,2.2-0.116,3.018-0.116h37.377v0.116h0.116l11.491,37.608a5.183,5.183,0,0,0,1.974.117h23.1a11.458,11.458,0,0,0-1.044-3.377c-0.905-2.475-1.5-5.074-2.322-7.452-0.692-2-.929-3.817-1.625-5.821-1.787-5.142-3.339-10.692-5.107-15.835-1.456-4.232-2.25-8.346-3.715-12.575-6.3-18.189-11.153-37.219-17.412-55.423-0.516-1.5-.621-2.827-1.16-4.308-2.407-6.608-4.1-13.769-6.5-20.376-0.743-2.046-1.15-4.119-1.857-6.054a14.582,14.582,0,0,0-.7-2.445H334.329a0.33,0.33,0,0,1-.116.116,19.7,19.7,0,0,1-1.393,4.424c-0.914,2.511-1.49,5.151-2.321,7.569-0.605,1.759-.781,3.36-1.393,5.123-2.076,5.978-3.749,12.4-5.8,18.4-1.288,3.756-1.948,7.42-3.25,11.178-4.661,13.453-8.143,27.642-12.769,41.1-0.436,1.27-.473,2.361-0.928,3.61-1.267,3.476-2.282,7.335-3.483,10.828-0.271.79-.191,1.306-0.464,2.1-1.9,5.482-3.363,11.42-5.34,16.883-0.452,1.25-.491,2.339-0.928,3.609-0.662,1.925-1.148,3.987-1.857,6.055A10.768,10.768,0,0,0,293.47,636.544ZM225.332,520.575c14.9-.2,23.458,3.819,27.4,14.671a24.178,24.178,0,0,1,.928,11.993v1.048a31.8,31.8,0,0,1-2.553,7.568c-3.085,5.661-8.427,8.832-15.091,10.945-1.7.539-3.6,0.54-5.339,0.931h-1.857a21.989,21.989,0,0,1-6.965,0h-2.438c-1.488-.331-3.216-0.521-4.643-0.815-0.369-1.128-.116-3.074-0.116-4.424V521.856h0.116V521.74a24.068,24.068,0,0,0,2.9-.582c1.483-.354,3.126-0.159,4.527-0.466C223.119,520.49,224.636,521.022,225.332,520.575Zm107.14,59.615a11.136,11.136,0,0,1,1.045-3.61c0.577-1.575.86-3.2,1.393-4.657q0.232-1.048.464-2.1c1.395-3.808,2.327-8.066,3.715-11.876,0.549-1.51.61-2.915,1.16-4.425,2.219-6.084,3.457-12.951,5.34-19.444,1.129-3.895,1.331-8.071,2.67-11.76a0.4,0.4,0,0,1,.232.116,7.517,7.517,0,0,1,.348,1.631c0.457,1.493.641,3.167,1.161,4.773,0.985,3.043,1.547,6.54,2.554,9.548,0.29,0.868.17,1.578,0.464,2.445,2.2,6.485,3.727,13.319,6.036,19.677,0.634,1.746.786,3.365,1.393,5.123,1.1,3.2,1.878,6.57,3.018,9.9a20.735,20.735,0,0,1,1.393,4.541,11.88,11.88,0,0,1-3.018.117H332.472Z"/>
</svg>
