<svg id="V-Pay" xmlns="http://www.w3.org/2000/svg" width="340" height="190" viewBox="0 0 340 190">
  <defs>
    <style>
      .cls-1 {
        fill-rule: evenodd;
      }
    </style>
  </defs>
  <path id="V-Pay-2" data-name="V-Pay" class="cls-1" d="M120,40H221V150H120V40Zm2.53,2.525a1.391,1.391,0,0,0-.036.494V111.43a3.263,3.263,0,0,0,.837.019h95.157a2.491,2.491,0,0,0,.018-0.622V42.562a0.1,0.1,0,0,1-.036-0.037H122.53Zm72.2,12.533a0.677,0.677,0,0,1-.11.275c-0.107.234-.192,0.476-0.291,0.7-0.144.321-.217,0.632-0.364,0.951-0.222.482-.458,1.007-0.655,1.5-0.612,1.529-1.23,3.052-1.894,4.538-0.079.177-.1,0.336-0.182,0.512-0.327.713-.627,1.48-0.946,2.2-0.08.177-.1,0.336-0.182,0.512-0.393.857-.738,1.778-1.129,2.635-0.08.175-.1,0.338-0.182,0.512-0.431.94-.816,1.947-1.238,2.891-0.144.321-.218,0.632-0.364,0.951-0.393.857-.737,1.777-1.129,2.635-0.08.176-.1,0.335-0.182,0.512-1.057,2.353-1.969,4.817-3.022,7.172-0.144.322-.22,0.63-0.364,0.951-0.721,1.606-1.344,3.3-2.075,4.9-0.315.69-.527,1.393-0.838,2.086-0.889,1.98-1.647,4.063-2.548,6.038-0.08.175-.1,0.338-0.183,0.512-0.22.481-.458,1.007-0.655,1.5-0.063.158-.121,0.3-0.182,0.439a0.581,0.581,0,0,1-.091.238H163.673a4.822,4.822,0,0,1-.145-0.568c-0.134-.409-0.233-0.891-0.365-1.3-0.047-.146-0.025-0.257-0.072-0.4-0.539-1.655-.814-3.466-1.347-5.123-0.033-.1,0-0.156-0.037-0.256-0.06-.185-0.123-0.419-0.182-0.6v-0.11c-0.359-1.1-.555-2.318-0.91-3.421-0.105-.326-0.113-0.645-0.219-0.97-0.33-1.014-.51-2.131-0.837-3.147-0.075-.234-0.069-0.441-0.146-0.677-0.209-.643-0.34-1.368-0.546-2.013-0.076-.237-0.069-0.442-0.145-0.677-0.181-.554-0.29-1.184-0.474-1.738-0.061-.185-0.048-0.344-0.109-0.531-0.133-.409-0.233-0.891-0.364-1.3-0.047-.146-0.026-0.257-0.073-0.4-0.538-1.655-.814-3.466-1.347-5.123-0.047-.146-0.026-0.257-0.073-0.4-0.089-.273-0.167-0.6-0.255-0.878-0.032-.1,0-0.156-0.036-0.256-0.538-1.655-.815-3.466-1.347-5.123-0.033-.1,0-0.156-0.037-0.256-0.088-.273-0.167-0.606-0.255-0.878-0.045-.141-0.026-0.245-0.072-0.384a7.95,7.95,0,0,0-1.02-2.251,2.043,2.043,0,0,0-.4-0.384l-0.128-.146c-0.206-.155-0.42-0.32-0.637-0.457a16.533,16.533,0,0,0-2.239-1.1c-1.308-.573-2.724-1.05-4.133-1.537-0.492-.17-0.992-0.29-1.474-0.439-0.129-.04-0.217-0.029-0.346-0.073-0.482-.164-1.039-0.275-1.529-0.439-0.189-.063-0.353-0.047-0.546-0.11a11.259,11.259,0,0,0-1.657-.4c0.023-.437.221-0.8,0.237-1.244a1.414,1.414,0,0,1,.509-0.037h19.516a1.919,1.919,0,0,0,.437.037,10.226,10.226,0,0,1,1,.22,5.362,5.362,0,0,1,2.53,1.757,7.239,7.239,0,0,1,1.02,2.013c0.127,0.374.151,0.81,0.255,1.189,0.035,0.127,0,.216.036,0.348,0.071,0.237.074,0.507,0.146,0.769,0.242,0.884.307,1.878,0.546,2.763,0.035,0.132,0,.218.036,0.348,0.094,0.308.136,0.7,0.219,1.006V65.67c0.279,0.927.329,2.007,0.582,2.946v0.146c0.069,0.253.108,0.574,0.182,0.823v0.146c0.069,0.25.116,0.573,0.182,0.823V70.72c0.056,0.184.095,0.434,0.146,0.622v0.146c0.246,0.81.266,1.751,0.51,2.562,0.039,0.13,0,.216.036,0.348,0.051,0.187.1,0.436,0.146,0.622v0.165c0.187,0.621.213,1.353,0.4,1.976,0.053,0.175.02,0.373,0.073,0.549,0.13,0.431.162,0.958,0.291,1.391,0.053,0.175.02,0.373,0.073,0.549,0.13,0.431.162,0.958,0.292,1.391,0.055,0.184.017,0.366,0.072,0.549,0.093,0.306.135,0.7,0.219,1.006,0.036,0.132,0,.215.036,0.348,0.244,0.9.332,1.888,0.546,2.8H170.5c0.277-.749.572-1.513,0.892-2.232,0.055-.123.058-0.227,0.109-0.348,0.193-.457.382-0.958,0.583-1.409,0.137-.309.19-0.606,0.327-0.915,0.349-.781.636-1.634,0.984-2.415,0.137-.309.189-0.606,0.327-0.915,0.579-1.3,1.026-2.693,1.6-3.989,0.138-.309.19-0.606,0.328-0.915,0.188-.421.366-0.89,0.546-1.317,0.064-.151.077-0.286,0.146-0.439,0.174-.391.342-0.829,0.509-1.226,0.051-.121.055-0.224,0.11-0.348,0.834-1.868,1.462-3.876,2.293-5.745,0.138-.309.19-0.606,0.328-0.915,0.175-.391.342-0.829,0.51-1.226,0.051-.121.054-0.224,0.109-0.348,0.2-.451.39-0.951,0.583-1.409,0.051-.121.054-0.224,0.109-0.348,0.294-.659.576-1.376,0.837-2.049,0.208-.535.423-1.055,0.619-1.574a3.468,3.468,0,0,1,.219-0.6h12.161Zm-49.1,64.24v20.73h3.623a0.062,0.062,0,0,1,.018-0.018v-7.886a5.192,5.192,0,0,1,.728.092c0.3,0.068.676-.027,0.965,0.036a3.917,3.917,0,0,0,.674-0.036h0.4c0.469-.108.994-0.1,1.42-0.22,0.163-.046.281-0.026,0.437-0.073a10.57,10.57,0,0,0,1.147-.366,6.157,6.157,0,0,0,3.586-3.55,8.083,8.083,0,0,0,.292-4.464,6.858,6.858,0,0,0-.965-2.1,6.366,6.366,0,0,0-3.6-2.251c-0.388-.113-0.8-0.124-1.2-0.219l-0.546-.037c-0.154-.034-0.36,0-0.546-0.036a5.542,5.542,0,0,0-1.075-.037,3.369,3.369,0,0,0-.618.018l-1.785.055c-0.32.072-.725,0.039-1.037,0.11h-0.237c-0.294.068-.659,0.078-0.947,0.146H146.2A3.469,3.469,0,0,1,145.632,119.3Zm34.99-.293a0.618,0.618,0,0,0,.164.4c0.179,0.331.339,0.666,0.509,0.988,0.485,0.916.934,1.844,1.42,2.744,0.268,0.5.479,1.011,0.765,1.482,0.182,0.3.273,0.633,0.455,0.934,0.632,1.044,1.106,2.191,1.693,3.275,0.252,0.465.49,0.974,0.765,1.427,0.064,0.106.083,0.222,0.145,0.329,0.1,0.168.176,0.35,0.273,0.531a0.957,0.957,0,0,1,.091.128v8.764a0.109,0.109,0,0,1,.037.037,5.569,5.569,0,0,1,.91-0.019h1.73a9.614,9.614,0,0,0,.964,0,1.1,1.1,0,0,0,.037-0.53v-8.325a5.258,5.258,0,0,0,.437-0.805c0.35-.579.628-1.207,0.983-1.793,0.955-1.58,1.737-3.29,2.694-4.867,0.221-.365.362-0.752,0.583-1.117,0.387-.64.722-1.335,1.11-1.976,0.109-.179.164-0.368,0.273-0.548,0.142-.235.265-0.48,0.4-0.732a0.929,0.929,0,0,0,.164-0.311h-0.019v-0.019a6.8,6.8,0,0,1-1.147.019h-2.038c-0.309,0-.7-0.022-0.947,0a6.211,6.211,0,0,1-.455,1.006c-0.3.686-.583,1.374-0.91,2.031-0.238.476-.405,0.957-0.619,1.445-0.435.99-.914,2-1.348,3-0.3.685-.534,1.373-0.819,2.068a0.063,0.063,0,0,1-.036-0.019,4.187,4.187,0,0,1-.291-0.768c-0.2-.489-0.388-0.988-0.6-1.482-0.424-.981-0.841-2-1.311-2.946-0.092-.185-0.136-0.36-0.218-0.549-0.238-.543-0.5-1.116-0.765-1.647-0.241-.485-0.422-0.992-0.655-1.463a3.167,3.167,0,0,0-.328-0.7,5.692,5.692,0,0,1-.965.019h-1.875A6.342,6.342,0,0,1,180.622,119.005Zm-18.988,21.023H165.4l0.018-.055q0.855-2.936,1.711-5.873a1.308,1.308,0,0,1,.473-0.018h5.862V134.1h0.019q0.9,2.955,1.8,5.91a0.807,0.807,0,0,0,.309.018h3.623a1.8,1.8,0,0,0-.164-0.53c-0.142-.389-0.235-0.8-0.364-1.171-0.108-.315-0.146-0.6-0.255-0.915-0.28-.808-0.523-1.68-0.8-2.489-0.228-.665-0.352-1.311-0.582-1.976-0.989-2.858-1.75-5.848-2.731-8.709-0.081-.236-0.1-0.444-0.182-0.677-0.377-1.038-.643-2.164-1.02-3.2-0.116-.321-0.18-0.647-0.291-0.951a2.235,2.235,0,0,0-.109-0.384h-4.679a0.052,0.052,0,0,1-.018.018,3.094,3.094,0,0,1-.218.695c-0.144.4-.234,0.81-0.364,1.189-0.095.277-.123,0.528-0.219,0.806-0.325.939-.588,1.949-0.91,2.89-0.2.591-.306,1.166-0.51,1.757-0.731,2.114-1.277,4.344-2,6.459-0.069.2-.075,0.371-0.146,0.567-0.2.546-.358,1.153-0.546,1.7-0.043.125-.03,0.206-0.073,0.33-0.3.861-.527,1.794-0.837,2.653-0.071.2-.077,0.367-0.146,0.567-0.1.3-.18,0.627-0.291,0.951A1.719,1.719,0,0,0,161.634,140.028Zm-10.686-18.223c2.337-.032,3.679.6,4.3,2.3A3.8,3.8,0,0,1,155.39,126v0.164a5.028,5.028,0,0,1-.4,1.19,3.8,3.8,0,0,1-2.367,1.72c-0.267.084-.566,0.084-0.837,0.146h-0.292a3.448,3.448,0,0,1-1.092,0H150.02c-0.234-.052-0.505-0.082-0.729-0.128a2.791,2.791,0,0,1-.018-0.695v-6.386h0.018v-0.018a3.832,3.832,0,0,0,.456-0.092c0.232-.055.49-0.025,0.71-0.073A2.052,2.052,0,0,0,150.948,121.805Zm16.8,9.368a1.765,1.765,0,0,1,.164-0.568c0.09-.247.135-0.5,0.218-0.731,0.025-.11.049-0.22,0.073-0.33,0.219-.6.365-1.267,0.583-1.866,0.086-.237.095-0.458,0.182-0.695,0.348-.956.542-2.036,0.837-3.056,0.177-.612.209-1.268,0.419-1.848a0.066,0.066,0,0,1,.036.018,1.175,1.175,0,0,1,.055.257c0.072,0.234.1,0.5,0.182,0.75,0.155,0.478.243,1.027,0.4,1.5,0.046,0.137.027,0.248,0.073,0.384,0.345,1.019.585,2.093,0.947,3.092,0.1,0.275.123,0.529,0.218,0.806,0.173,0.5.295,1.032,0.474,1.555a3.255,3.255,0,0,1,.218.713,1.861,1.861,0,0,1-.473.019h-4.606Z"/>
</svg>
