<?xml version="1.0" standalone="no"?>
<!DOCTYPE svg PUBLIC "-//W3C//DTD SVG 20010904//EN"
 "http://www.w3.org/TR/2001/REC-SVG-20010904/DTD/svg10.dtd">
<svg version="1.0" xmlns="http://www.w3.org/2000/svg"
 width="1200.000000pt" height="660.000000pt" viewBox="0 0 1200.000000 660.000000"
 preserveAspectRatio="xMidYMid meet">
<metadata>
Created by potrace 1.13, written by Peter Selinger 2001-2015
</metadata>
<g transform="translate(0.000000,660.000000) scale(0.100000,-0.100000)"
fill="#000000" stroke="none">
<path d="M3553 6146 c-96 -36 -171 -84 -248 -161 -81 -82 -134 -167 -173 -280
l-27 -80 -3 -2305 c-2 -2276 -2 -2306 18 -2385 11 -44 39 -118 62 -165 77
-158 238 -289 416 -341 65 -19 121 -20 2393 -20 2084 0 2333 1 2387 16 225 58
399 221 478 446 l29 84 3 2310 c3 2599 9 2378 -75 2548 -78 156 -220 279 -389
337 -56 20 -101 20 -2433 19 l-2376 0 -62 -23z m3882 -1134 c14 -10 100 -195
119 -257 43 -136 51 -205 51 -425 0 -182 -4 -232 -23 -325 -42 -210 -117 -448
-209 -665 -46 -107 -185 -392 -226 -465 -13 -22 -37 -65 -54 -95 -16 -30 -61
-107 -99 -170 -39 -63 -77 -126 -85 -139 -32 -55 -312 -471 -363 -541 -31 -41
-59 -82 -63 -90 -4 -8 -12 -21 -19 -30 -19 -23 -148 -197 -159 -214 -9 -14
-84 -16 -680 -16 -368 0 -677 0 -686 0 -13 0 -20 22 -33 113 -66 438 -355
2168 -467 2792 -28 154 -53 295 -56 312 -4 23 -1 34 8 37 8 3 172 19 364 36
193 17 458 42 589 55 132 14 241 23 243 21 2 -2 17 -120 33 -262 31 -273 54
-476 96 -814 13 -113 33 -279 44 -370 11 -91 25 -199 30 -240 5 -41 14 -113
20 -160 5 -47 19 -159 30 -251 11 -91 20 -170 20 -177 0 -32 24 -2 88 112 106
185 240 461 313 644 5 12 13 32 18 45 44 110 100 282 126 390 69 287 58 608
-30 827 -19 48 -35 94 -35 101 0 10 87 31 323 77 177 35 410 83 517 107 203
44 238 50 255 37z m435 -2832 c0 -5 7 -10 15 -10 20 0 65 -45 65 -65 0 -8 5
-15 10 -15 6 0 10 -13 10 -30 0 -16 5 -30 10 -30 6 0 10 -18 10 -40 0 -22 5
-40 10 -40 6 0 10 -16 10 -35 0 -28 -4 -35 -20 -35 -11 0 -20 -6 -21 -12 0 -7
0 -65 1 -128 l1 -115 -38 -17 c-21 -9 -30 -17 -20 -17 18 -1 25 -31 7 -31 -5
0 -10 -13 -10 -30 0 -16 -4 -30 -10 -30 -5 0 -10 -8 -10 -18 0 -21 -53 -46
-80 -39 -11 3 -23 1 -26 -4 -3 -5 2 -9 10 -9 25 0 19 -18 -19 -56 -22 -22 -47
-36 -68 -39 -55 -6 -97 -17 -97 -26 0 -5 -13 -9 -30 -9 -16 0 -30 -4 -30 -10
0 -5 -11 -10 -25 -10 -14 0 -25 5 -25 10 0 6 -7 10 -15 10 -8 0 -15 -4 -15
-10 0 -17 -25 -11 -40 10 -16 23 -36 26 -43 8 -3 -8 -6 -6 -6 5 -1 11 -12 20
-31 23 -26 6 -30 11 -30 40 0 25 4 34 18 35 13 0 13 2 -4 9 -12 5 -25 13 -28
18 -3 6 -16 8 -29 6 -12 -2 -16 -2 -9 2 6 3 12 13 12 23 0 9 9 23 20 31 11 8
20 22 20 32 0 10 5 18 10 18 6 0 10 11 10 25 0 14 -5 25 -11 25 -6 0 -4 7 5
15 8 8 19 15 25 15 6 0 8 7 5 15 -6 14 37 65 55 65 6 0 8 7 5 14 -6 14 56 86
74 86 4 0 6 16 4 35 -4 33 14 65 36 65 6 0 8 9 5 21 -5 17 -2 20 18 17 18 -2
23 1 21 14 -3 21 160 188 183 188 8 0 15 5 15 10 0 6 14 10 30 10 17 0 30 5
30 10 0 6 7 10 15 10 8 0 15 -4 15 -10z m-583 -827 c-3 -10 -5 -4 -5 12 0 17
2 24 5 18 2 -7 2 -21 0 -30z"/>
<path d="M7838 2153 c7 -3 16 -2 19 1 4 3 -2 6 -13 5 -11 0 -14 -3 -6 -6z"/>
<path d="M7780 2136 c0 -9 40 -13 46 -5 3 5 -6 9 -20 9 -14 0 -26 -2 -26 -4z"/>
<path d="M7865 2130 c3 -5 12 -7 20 -3 21 7 19 13 -6 13 -11 0 -18 -4 -14 -10z"/>
<path d="M7745 2110 c4 -6 11 -8 16 -5 14 9 11 15 -7 15 -8 0 -12 -5 -9 -10z"/>
<path d="M7915 2100 c10 -11 20 -18 23 -16 5 6 -23 36 -34 36 -4 0 1 -9 11
-20z"/>
<path d="M7710 2089 c0 -5 5 -7 10 -4 6 3 10 8 10 11 0 2 -4 4 -10 4 -5 0 -10
-5 -10 -11z"/>
<path d="M7661 2044 c-7 -8 -11 -17 -9 -20 3 -2 13 5 23 16 10 11 14 20 9 20
-5 -1 -15 -8 -23 -16z"/>
<path d="M7310 1489 c0 -5 5 -7 10 -4 6 3 10 8 10 11 0 2 -4 4 -10 4 -5 0 -10
-5 -10 -11z"/>
<path d="M7765 1400 c-3 -5 -1 -10 4 -10 6 0 11 5 11 10 0 6 -2 10 -4 10 -3 0
-8 -4 -11 -10z"/>
<path d="M7448 1313 c6 -2 18 -2 25 0 6 3 1 5 -13 5 -14 0 -19 -2 -12 -5z"/>
<path d="M7508 1313 c12 -2 30 -2 40 0 9 3 -1 5 -23 4 -22 0 -30 -2 -17 -4z"/>
</g>
</svg>
