<?xml version="1.0" standalone="no"?>
<!DOCTYPE svg PUBLIC "-//W3C//DTD SVG 20010904//EN"
 "http://www.w3.org/TR/2001/REC-SVG-20010904/DTD/svg10.dtd">
<svg version="1.0" xmlns="http://www.w3.org/2000/svg"
 width="1200.000000pt" height="660.000000pt" viewBox="0 0 1200.000000 660.000000"
 preserveAspectRatio="xMidYMid meet">
<metadata>
Created by potrace 1.13, written by Peter Selinger 2001-2015
</metadata>
<g transform="translate(0.000000,660.000000) scale(0.100000,-0.100000)"
fill="#000000" stroke="none">
<path d="M2220 4344 c-25 -7 -157 -36 -295 -64 -137 -28 -260 -54 -272 -59
l-21 -10 23 -64 c53 -145 57 -331 11 -509 -41 -157 -140 -394 -244 -583 -75
-137 -86 -144 -95 -57 -4 31 -11 91 -16 132 -9 70 -15 115 -41 330 -27 229
-70 601 -83 725 l-12 110 -34 3 c-52 5 -664 -53 -683 -64 -5 -4 -7 -18 -3 -33
15 -59 238 -1370 294 -1731 12 -74 24 -145 26 -157 l5 -23 410 0 409 0 89 123
c296 408 510 787 610 1082 111 325 117 569 21 783 -17 39 -36 73 -43 75 -6 2
-31 -2 -56 -9z"/>
<path d="M3485 4344 c-11 -2 -58 -12 -105 -21 -357 -66 -634 -304 -781 -669
-17 -44 -35 -92 -39 -109 -31 -116 -38 -148 -50 -210 -9 -43 -14 -139 -14
-250 0 -153 4 -193 23 -270 29 -117 98 -256 161 -327 184 -206 535 -289 925
-219 222 40 370 92 379 133 14 60 77 541 72 546 -3 3 -54 -16 -113 -41 -169
-72 -284 -98 -433 -100 -141 -1 -172 8 -239 69 -49 44 -77 102 -86 180 l-7 62
39 6 c21 3 72 8 113 11 326 26 642 161 778 333 44 55 90 156 103 227 13 71 6
211 -15 278 -26 81 -67 146 -133 207 -108 102 -262 158 -453 165 -58 2 -114 2
-125 -1z m99 -483 c40 -16 76 -72 76 -120 0 -73 -49 -135 -148 -185 -90 -45
-300 -84 -316 -58 -7 11 16 97 39 147 31 68 91 141 148 178 81 54 133 63 201
38z"/>
<path d="M5635 4330 c-149 -33 -235 -66 -357 -137 -31 -18 -61 -33 -67 -33 -6
0 -11 31 -13 73 l-3 72 -294 3 c-162 1 -299 -2 -304 -7 -4 -4 -22 -98 -38
-207 -16 -110 -33 -226 -38 -259 -5 -33 -15 -94 -21 -135 -6 -41 -15 -100 -20
-130 -5 -30 -18 -111 -29 -180 -47 -302 -65 -415 -120 -740 -32 -190 -55 -348
-51 -353 3 -4 161 -6 350 -5 l345 3 12 85 c7 47 30 207 52 355 22 149 47 317
56 375 16 108 29 193 45 290 5 30 14 91 20 135 24 166 25 171 82 195 163 70
264 66 304 -13 15 -29 16 -43 5 -137 -7 -58 -17 -123 -21 -145 -5 -22 -14 -76
-20 -120 -7 -44 -19 -118 -27 -165 -14 -82 -19 -114 -42 -265 -6 -38 -31 -185
-55 -325 -24 -140 -41 -258 -39 -262 7 -13 681 -10 688 3 4 5 17 81 30 167 24
160 50 333 65 432 5 30 16 105 24 165 9 61 21 133 26 160 16 85 69 425 80 515
49 403 -85 587 -440 605 -72 4 -117 0 -185 -15z"/>
<path d="M7795 4339 c-127 -16 -270 -69 -392 -145 -40 -25 -77 -42 -83 -39 -5
3 -10 31 -10 61 0 100 21 94 -310 94 -159 0 -291 -3 -293 -8 -3 -4 -17 -86
-31 -182 -14 -96 -35 -236 -47 -310 -11 -74 -29 -193 -40 -265 -11 -71 -24
-155 -29 -185 -5 -30 -13 -86 -19 -125 -6 -38 -42 -260 -81 -491 -38 -232 -70
-429 -70 -438 0 -14 35 -16 345 -16 267 0 347 3 350 13 3 6 25 149 50 317 77
528 79 543 105 700 5 30 14 89 20 130 11 80 29 190 36 227 6 29 37 49 124 79
131 44 222 23 243 -56 9 -34 0 -142 -23 -280 -5 -30 -14 -82 -19 -115 -10 -62
-45 -276 -61 -380 -5 -33 -30 -179 -55 -325 -24 -146 -45 -275 -45 -287 l0
-23 345 0 345 0 5 23 c2 12 23 150 46 307 22 157 49 344 60 415 11 72 24 159
29 195 6 36 14 92 20 125 5 33 14 89 20 125 6 36 13 88 16 115 11 93 21 113
71 136 153 70 272 62 304 -19 13 -31 2 -160 -31 -362 -22 -135 -36 -223 -50
-310 -5 -30 -16 -95 -24 -145 -54 -316 -96 -574 -96 -589 0 -15 28 -16 347
-14 l348 3 37 255 c41 285 75 510 88 585 5 28 14 86 20 130 6 44 15 100 20
125 5 25 14 81 20 125 6 44 17 103 23 130 6 28 11 129 12 225 0 162 -2 179
-24 235 -49 122 -151 196 -313 229 -97 20 -162 20 -274 1 -168 -30 -280 -73
-413 -159 -69 -44 -101 -56 -101 -37 0 5 -20 31 -44 58 -98 109 -285 165 -471
142z"/>
<path d="M10615 4344 c-16 -3 -75 -14 -130 -26 -458 -94 -747 -420 -836 -943
-18 -103 -18 -447 0 -530 35 -170 95 -294 186 -393 77 -83 160 -133 290 -175
98 -31 104 -32 285 -32 161 0 197 3 275 23 210 55 338 126 481 267 138 138
215 262 283 458 55 158 72 263 78 477 4 173 2 207 -17 300 -74 366 -326 562
-740 575 -69 2 -138 1 -155 -1z m140 -574 c52 -50 66 -104 66 -261 0 -230 -41
-439 -114 -582 -36 -71 -102 -130 -162 -147 -39 -11 -51 -10 -90 4 -97 37
-125 112 -125 333 1 281 61 508 165 616 81 85 194 101 260 37z"/>
</g>
</svg>
