<?xml version="1.0" standalone="no"?>
<!DOCTYPE svg PUBLIC "-//W3C//DTD SVG 20010904//EN"
 "http://www.w3.org/TR/2001/REC-SVG-20010904/DTD/svg10.dtd">
<svg version="1.0" xmlns="http://www.w3.org/2000/svg"
 width="1200.000000pt" height="660.000000pt" viewBox="0 0 1200.000000 660.000000"
 preserveAspectRatio="xMidYMid meet">
<metadata>
Created by potrace 1.13, written by Peter Selinger 2001-2015
</metadata>
<g transform="translate(0.000000,660.000000) scale(0.100000,-0.100000)"
fill="#000000" stroke="none">
<path d="M4077 6134 c-4 -4 -7 -45 -7 -90 l0 -83 -92 -3 -93 -3 -3 -87 -3 -88
-164 0 -165 0 0 -90 0 -90 -74 0 c-108 0 -108 0 -100 -170 4 -75 4 -149 0
-164 -7 -27 -7 -27 -84 -24 l-77 3 -5 80 -5 80 -85 0 -85 0 -3 -82 c-3 -81 -3
-82 23 -89 15 -4 46 -4 70 0 71 9 75 5 75 -85 l0 -79 -139 0 c-155 0 -155 0
-151 -73 3 -58 5 -57 -75 -57 l-75 0 0 -75 0 -75 -90 0 -90 0 0 -135 0 -135
-77 0 c-43 0 -84 -4 -91 -9 -10 -6 -13 -28 -11 -77 2 -38 0 -75 -4 -81 -5 -8
-29 -13 -57 -13 l-49 0 -3 -82 -3 -83 -64 -5 -64 -5 -72 -120 c-139 -231 -441
-808 -501 -957 -10 -27 -24 -48 -29 -48 -6 0 -40 39 -75 87 -252 342 -499 573
-737 693 -119 59 -153 67 -208 46 -61 -24 -85 -60 -85 -128 0 -64 29 -116 126
-224 312 -348 498 -651 699 -1136 46 -111 95 -217 109 -235 14 -17 55 -46 91
-64 58 -28 75 -32 149 -32 72 0 90 4 135 28 28 16 60 42 70 59 11 17 49 106
85 197 143 362 344 754 520 1014 41 60 41 60 41 155 l0 95 68 3 c37 2 68 6 68
10 1 4 2 40 3 79 2 40 6 76 10 80 4 5 35 8 69 8 l62 0 3 97 c3 112 -3 106 112
110 l65 3 3 92 3 92 82 3 82 3 3 82 3 82 67 3 67 3 3 102 3 102 72 3 72 3 5
70 5 70 72 3 73 3 2 177 3 177 85 5 85 5 5 80 5 80 93 3 92 3 0 89 0 89 -92 3
-93 3 0 85 0 85 78 1 c43 1 81 5 84 8 3 3 5 35 4 71 -3 105 -3 105 90 105 l79
0 0 -83 c0 -51 5 -88 12 -95 18 -18 172 -16 187 2 8 9 11 45 9 98 l-3 83 -92
3 -93 3 0 84 0 84 93 3 92 3 0 90 0 90 -95 3 c-53 1 -99 0 -103 -4z m-359
-816 l3 -78 -87 0 c-74 0 -85 2 -80 16 3 9 6 45 6 80 l0 65 78 -3 77 -3 3 -77z
m-180 -87 c9 -5 12 -29 10 -82 l-3 -74 -80 0 -80 0 -3 74 c-2 53 1 77 10 82 7
5 40 9 73 9 33 0 66 -4 73 -9z m-160 -253 c2 -43 -1 -78 -5 -78 -4 -1 -42 -1
-83 -2 l-75 -2 -3 83 -3 82 83 -3 83 -3 3 -77z m-453 -198 c10 -17 12 -144 2
-157 -10 -13 -122 -18 -151 -7 -13 5 -16 22 -16 84 0 53 4 80 13 83 23 10 146
7 152 -3z m13 -528 l3 -83 -88 3 -88 3 -3 69 c-2 38 -1 75 2 83 4 11 25 13 88
11 l83 -3 3 -83z"/>
<path d="M5375 4424 c-71 -26 -125 -97 -125 -164 0 -58 47 -128 107 -159 12
-6 46 -11 76 -11 66 0 111 27 144 85 76 135 -60 303 -202 249z"/>
<path d="M6545 4427 c-254 -24 -446 -167 -516 -383 -29 -87 -31 -249 -6 -333
57 -183 223 -326 514 -442 214 -84 320 -141 400 -213 96 -87 147 -231 124
-357 -36 -205 -194 -319 -441 -319 -167 0 -275 43 -385 154 -82 83 -133 176
-175 317 -30 102 -44 119 -84 101 l-26 -12 0 -294 c0 -249 2 -295 15 -306 20
-17 33 -5 70 64 17 31 34 56 38 56 5 0 23 -11 40 -24 53 -41 187 -104 272
-128 68 -19 102 -23 235 -22 116 0 171 5 220 18 166 45 290 115 383 216 96
103 137 214 137 370 0 176 -47 287 -175 415 -48 48 -113 99 -161 128 -73 43
-130 70 -454 215 -58 26 -132 67 -165 92 -108 81 -160 205 -136 324 23 112 79
184 181 234 48 23 70 27 164 30 93 3 117 1 170 -18 78 -29 130 -65 195 -135
52 -58 115 -174 146 -272 18 -54 38 -70 75 -58 19 6 20 15 19 203 -1 108 -4
231 -8 272 -5 65 -9 75 -25 75 -13 0 -30 -18 -50 -52 -41 -68 -41 -68 -73 -45
-138 97 -338 147 -518 129z"/>
<path d="M7665 4428 c-77 -27 -125 -91 -125 -168 0 -61 26 -108 79 -141 118
-75 261 1 261 138 0 30 -7 67 -15 83 -18 35 -67 73 -114 89 -40 13 -46 13 -86
-1z"/>
<path d="M11286 4123 c-40 -6 -99 -45 -130 -85 -60 -80 -56 -179 11 -257 45
-53 92 -74 162 -74 76 0 135 32 179 97 27 41 32 57 32 110 0 51 -5 70 -29 108
-47 74 -138 114 -225 101z m112 -67 c97 -50 115 -184 35 -259 -63 -59 -152
-58 -213 3 -71 71 -59 200 23 250 38 24 116 26 155 6z"/>
<path d="M11252 4032 c-9 -6 -12 -38 -10 -123 3 -109 4 -114 25 -117 24 -4 37
26 31 69 -6 44 26 32 54 -21 19 -33 34 -50 47 -50 31 0 32 14 6 53 -14 20 -25
38 -25 41 0 3 11 16 25 30 32 32 32 70 0 101 -20 21 -34 25 -82 25 -32 0 -64
-4 -71 -8z m118 -67 c0 -22 -4 -25 -35 -25 -31 0 -35 3 -35 25 0 22 4 25 35
25 31 0 35 -3 35 -25z"/>
<path d="M4715 3700 c-138 -22 -258 -108 -339 -244 l-36 -60 -1 70 c0 83 -22
211 -38 227 -8 8 -27 7 -74 -6 -189 -51 -247 -66 -295 -72 -44 -6 -53 -11 -58
-30 -9 -36 2 -45 54 -46 117 -1 148 -37 163 -188 15 -150 7 -849 -10 -882 -18
-35 -74 -65 -139 -74 -58 -8 -75 -25 -61 -64 9 -23 11 -23 100 -16 119 9 387
10 516 0 96 -7 102 -6 112 14 21 38 -1 58 -71 66 -77 9 -133 38 -150 79 -10
24 -13 117 -12 396 0 394 4 432 59 540 46 92 158 169 244 170 46 0 61 -12 135
-105 52 -65 119 -70 176 -14 25 25 30 39 30 76 0 60 -28 103 -87 136 -55 29
-140 40 -218 27z"/>
<path d="M8630 3700 c-126 -16 -242 -67 -327 -144 -114 -103 -156 -199 -157
-356 -1 -98 1 -109 30 -170 17 -36 47 -84 66 -108 41 -51 140 -128 186 -143
17 -6 32 -14 32 -18 0 -4 -24 -15 -52 -24 -117 -38 -195 -128 -205 -234 -13
-149 68 -247 233 -281 29 -6 149 -16 269 -22 236 -12 329 -26 404 -64 95 -48
136 -122 135 -241 -1 -209 -176 -335 -464 -335 -208 0 -376 63 -435 164 -63
107 -56 228 16 310 23 25 52 49 65 52 13 3 24 12 24 19 0 19 -80 55 -122 55
-144 0 -264 -175 -228 -332 32 -140 142 -243 320 -301 113 -37 156 -42 350
-41 181 1 201 3 283 28 119 36 200 78 263 138 97 92 139 178 150 313 11 136
-36 288 -111 353 -115 102 -242 131 -665 152 -118 6 -231 16 -250 22 -116 35
-104 150 20 187 23 7 120 18 214 26 261 20 381 57 484 150 81 73 123 165 137
300 11 101 -34 261 -92 327 -20 22 -9 36 44 60 59 26 99 18 154 -31 56 -48 80
-61 117 -61 36 0 88 45 98 83 21 85 -75 167 -194 167 -61 0 -181 -50 -259
-108 l-33 -24 -54 36 c-127 84 -280 117 -446 96z m200 -101 c134 -60 198 -209
188 -437 -9 -187 -59 -289 -173 -347 -50 -26 -70 -30 -134 -30 -87 0 -134 18
-189 73 -111 112 -145 382 -71 577 27 73 97 150 154 170 61 21 171 19 225 -6z"/>
<path d="M10560 3703 c-156 -20 -296 -108 -396 -248 l-21 -29 -17 129 c-10 71
-20 133 -22 137 -9 14 -33 10 -199 -31 -88 -22 -177 -43 -197 -46 -24 -4 -39
-12 -43 -24 -11 -37 3 -48 71 -54 76 -6 110 -25 132 -75 14 -32 17 -95 20
-487 3 -486 1 -510 -49 -547 -13 -10 -56 -24 -94 -31 -68 -13 -70 -14 -73 -44
-2 -18 2 -32 10 -35 7 -2 90 -1 183 4 96 4 242 3 335 -2 91 -5 168 -6 173 -1
5 5 7 21 5 37 -3 27 -7 30 -66 40 -71 13 -109 36 -132 80 -20 39 -28 659 -10
774 22 140 103 254 217 308 49 23 74 27 158 30 89 2 105 0 145 -21 55 -29 102
-89 126 -159 15 -46 18 -106 21 -468 5 -461 3 -477 -55 -516 -19 -13 -57 -25
-92 -29 -53 -6 -61 -10 -66 -32 -13 -49 4 -53 191 -45 94 5 243 4 333 -1 90
-5 170 -6 178 -3 8 3 14 19 14 36 0 34 -26 50 -82 50 -44 0 -103 37 -122 76
-14 30 -16 87 -16 452 -1 430 -5 480 -44 563 -41 86 -122 154 -224 188 -63 20
-222 34 -292 24z"/>
<path d="M3062 3680 c-213 -56 -393 -221 -480 -440 -76 -193 -69 -436 19 -601
36 -67 103 -148 169 -203 57 -47 206 -119 285 -137 83 -19 303 -17 377 4 124
34 240 109 328 210 l33 38 -33 34 -33 34 -81 -77 c-92 -88 -165 -128 -261
-144 -191 -32 -369 70 -464 264 -23 46 -48 110 -57 143 -19 73 -29 223 -20
299 l7 56 478 0 c418 0 480 2 491 15 10 12 11 32 3 90 -37 262 -272 436 -587
434 -66 0 -127 -7 -174 -19z m317 -87 c95 -49 156 -159 149 -270 -5 -73 -4
-73 -357 -73 l-303 0 7 38 c26 142 99 252 202 306 87 44 214 44 302 -1z"/>
<path d="M5510 3689 c-19 -4 -109 -22 -200 -39 -202 -38 -210 -41 -210 -78 0
-29 0 -29 76 -35 79 -6 114 -21 136 -59 10 -18 13 -129 13 -498 0 -517 1 -511
-57 -553 -14 -11 -55 -25 -90 -31 l-63 -11 0 -35 0 -35 60 1 c85 2 541 3 595
1 l45 -2 0 35 0 35 -63 11 c-35 6 -76 20 -90 31 -58 43 -57 26 -60 676 l-3
597 -27 -1 c-15 -1 -43 -5 -62 -10z"/>
<path d="M7650 3661 c-102 -21 -201 -41 -222 -45 -38 -7 -52 -26 -43 -57 5
-16 17 -19 63 -20 83 0 124 -17 144 -59 16 -32 18 -77 18 -503 0 -515 0 -519
-61 -556 -17 -11 -55 -23 -83 -26 -72 -10 -95 -34 -63 -67 11 -10 43 -11 153
-6 76 5 230 5 342 2 l203 -6 -3 33 c-3 33 -5 34 -56 41 -101 15 -138 48 -152
134 -6 34 -10 297 -10 614 l1 555 -23 2 c-13 1 -106 -15 -208 -36z"/>
<path d="M11182 1440 c-26 -11 -45 -54 -36 -82 6 -20 47 -42 97 -53 40 -8 33
-39 -10 -43 -24 -2 -35 2 -45 17 -12 20 -38 28 -51 15 -11 -12 21 -60 48 -72
36 -17 55 -15 92 7 36 23 49 52 33 81 -12 23 -60 50 -89 50 -24 0 -33 13 -25
34 9 22 47 20 64 -4 16 -23 50 -27 50 -6 0 44 -77 78 -128 56z"/>
<path d="M11334 1427 c-3 -8 -3 -56 -2 -108 3 -86 5 -94 23 -94 17 0 21 8 25
54 l5 54 13 -46 c19 -64 38 -79 63 -48 11 13 19 31 19 42 0 38 19 27 22 -13 2
-30 7 -43 18 -43 12 0 16 20 18 108 l3 107 -24 0 c-19 0 -28 -8 -37 -32 -6
-18 -16 -41 -21 -50 -5 -10 -9 -28 -9 -40 -1 -22 -1 -23 -15 -4 -8 11 -15 28
-15 38 0 10 -4 26 -9 36 -5 9 -12 25 -15 35 -6 20 -54 24 -62 4z"/>
<path d="M1296 1251 c-43 -7 -60 -29 -28 -38 11 -3 23 -10 25 -17 3 -6 -8 -68
-24 -136 -74 -319 -92 -396 -93 -415 -1 -17 6 -20 45 -23 29 -2 50 2 56 10 6
7 18 49 28 93 25 117 54 184 97 227 38 38 81 50 90 26 5 -12 -9 -76 -46 -211
-21 -77 -20 -120 2 -140 35 -32 94 -15 145 42 45 51 32 89 -15 44 -15 -14 -30
-24 -33 -21 -3 3 2 32 11 64 41 153 55 219 50 240 -21 82 -127 87 -214 10
l-24 -21 7 40 c4 22 16 73 26 112 10 40 19 84 19 98 0 23 -3 25 -42 24 -24 -1
-61 -5 -82 -8z"/>
<path d="M4774 1226 c-35 -30 -56 -65 -93 -158 -9 -23 -17 -28 -45 -28 -25 0
-38 -6 -46 -20 -15 -27 -5 -40 30 -40 45 0 45 14 0 -200 -12 -58 -26 -121 -30
-140 -16 -76 -31 -120 -48 -136 -16 -17 -17 -16 -20 14 -6 58 -73 68 -93 14
-8 -21 -6 -31 9 -51 16 -22 28 -26 77 -29 52 -3 61 0 88 25 58 55 92 133 126
291 6 28 16 76 22 105 22 102 22 102 65 107 34 4 39 8 39 30 0 22 -5 25 -38
28 -34 3 -37 6 -31 25 4 12 10 36 14 53 11 49 34 89 53 92 14 3 17 -1 12 -21
-5 -20 -1 -29 19 -42 24 -16 28 -16 51 -1 34 23 34 68 -1 95 -18 15 -41 21
-74 21 -38 0 -53 -6 -86 -34z"/>
<path d="M8813 1253 c-54 -5 -76 -29 -39 -43 31 -11 30 -7 12 -84 -19 -79 -49
-207 -76 -326 -12 -52 -26 -108 -31 -124 -12 -38 3 -56 47 -56 41 0 61 20 70
68 6 33 21 94 40 162 19 66 89 140 132 140 32 0 32 -22 1 -136 -17 -60 -33
-130 -36 -157 -13 -107 77 -116 168 -18 39 42 18 73 -23 34 -15 -14 -31 -24
-34 -20 -3 3 8 57 26 119 41 146 43 188 11 222 -37 39 -94 36 -160 -8 -28 -19
-51 -29 -51 -23 0 7 11 57 25 112 13 55 25 110 25 123 0 24 -4 24 -107 15z"/>
<path d="M2478 1240 c-48 -14 -86 -49 -103 -95 -31 -81 -3 -146 97 -222 114
-89 138 -125 123 -194 -9 -39 -56 -69 -112 -69 -57 0 -109 44 -124 105 -13 50
-36 65 -48 32 -13 -34 -32 -167 -26 -178 8 -12 35 -12 35 0 0 19 38 21 81 6
64 -22 150 -19 205 6 62 30 94 74 101 142 7 72 -19 130 -82 183 -132 109 -145
124 -145 166 0 57 20 73 93 73 54 0 61 -3 88 -33 16 -18 29 -43 29 -55 0 -25
17 -47 35 -47 11 0 24 48 40 143 7 44 -14 60 -44 33 -18 -16 -23 -16 -65 -2
-49 17 -133 20 -178 6z"/>
<path d="M2912 1234 c-44 -31 -17 -104 39 -104 66 1 87 79 29 110 -26 14 -42
13 -68 -6z"/>
<path d="M703 1228 c-9 -14 -31 -112 -32 -141 -1 -27 43 -19 47 8 6 41 47 75
106 87 30 7 58 9 62 5 4 -3 2 -26 -4 -49 -15 -59 -71 -291 -84 -353 -17 -76
-34 -102 -73 -116 -23 -9 -35 -19 -35 -31 0 -17 10 -18 147 -16 131 3 148 5
151 21 3 12 -3 17 -22 17 -54 0 -63 35 -36 140 9 35 42 176 61 260 6 25 15 65
21 89 l11 43 44 -5 c57 -6 81 -29 85 -80 3 -48 34 -66 42 -25 2 13 9 49 16 80
6 32 9 62 5 68 -10 16 -502 13 -512 -2z"/>
<path d="M5141 1218 c-11 -30 -31 -114 -31 -133 0 -32 35 -14 55 28 23 47 56
67 122 75 51 6 51 5 24 -105 -11 -43 -34 -136 -51 -208 -17 -71 -36 -142 -42
-157 -11 -29 -47 -58 -73 -58 -10 0 -15 -7 -13 -17 3 -16 18 -18 148 -18 119
0 145 3 145 14 0 8 -13 18 -29 22 -37 10 -47 26 -41 64 6 33 80 355 97 424
l11 43 44 -5 c54 -6 83 -30 83 -71 0 -17 4 -37 9 -45 23 -35 48 31 55 139 l1
25 -253 3 -252 2 -9 -22z"/>
<path d="M9865 1230 c-9 -15 11 -37 40 -44 22 -6 25 -12 25 -48 0 -22 -4 -57
-10 -77 -9 -35 -31 -127 -66 -281 -17 -72 -35 -101 -79 -126 -11 -6 -15 -15
-11 -22 11 -18 190 -16 205 2 10 11 4 18 -26 32 -36 18 -38 21 -37 64 2 40 14
104 44 220 35 138 31 135 73 60 20 -37 74 -132 216 -380 4 -8 15 -16 24 -18
19 -4 30 18 45 93 6 28 24 106 41 175 16 69 37 157 46 195 21 87 28 101 63
117 15 7 27 20 27 28 0 12 -18 15 -100 15 -84 0 -100 -3 -103 -16 -2 -11 8
-20 28 -27 48 -17 48 -19 9 -192 -12 -52 -25 -114 -34 -152 -7 -37 -18 -35
-38 5 -9 17 -28 52 -43 77 -14 25 -58 101 -97 170 -39 69 -75 128 -81 132 -17
12 -154 9 -161 -2z"/>
<path d="M6899 1153 c-24 -46 -50 -71 -93 -88 -58 -24 -68 -33 -56 -56 6 -10
17 -16 24 -13 21 8 26 -8 16 -47 -5 -18 -16 -63 -25 -99 -8 -36 -20 -81 -25
-101 -15 -57 -12 -104 8 -122 21 -20 64 -22 95 -6 36 19 97 82 97 101 0 26
-23 22 -48 -7 -31 -35 -57 -34 -47 3 4 15 11 43 16 62 48 216 51 221 92 218
40 -2 57 7 57 33 0 19 -4 21 -50 23 -27 1 -29 9 -16 84 7 37 6 42 -11 42 -11
0 -26 -12 -34 -27z"/>
<path d="M8558 1133 c-19 -26 -48 -54 -64 -61 -71 -33 -79 -39 -79 -52 0 -9
11 -16 28 -18 15 -2 27 -5 27 -6 0 -2 -12 -50 -26 -107 -53 -208 -55 -221 -35
-249 36 -50 104 -33 174 43 50 55 24 81 -28 27 -33 -35 -49 -30 -40 13 10 45
55 239 61 259 4 12 18 18 52 20 39 3 47 6 47 23 0 16 -8 21 -39 23 l-38 3 6
42 c17 100 5 110 -46 40z"/>
<path d="M11037 1141 c-29 -44 -63 -70 -111 -86 -24 -8 -31 -16 -31 -35 0 -20
6 -26 27 -28 23 -3 26 -6 18 -25 -5 -12 -18 -62 -30 -112 -11 -49 -25 -106
-30 -126 -15 -54 -12 -77 10 -99 39 -39 103 -20 173 53 15 16 27 35 27 43 0
23 -30 16 -52 -11 -11 -14 -26 -25 -35 -25 -17 0 -16 7 24 170 31 130 36 139
67 133 32 -6 66 13 66 37 0 20 -32 34 -61 28 -14 -3 -16 18 -8 87 6 46 -23 43
-54 -4z"/>
<path d="M1825 1029 c-96 -61 -154 -157 -157 -257 -2 -78 14 -114 64 -142 46
-26 100 -24 160 4 40 19 98 70 98 86 0 21 -32 22 -53 3 -32 -30 -62 -43 -95
-43 -38 0 -62 28 -62 72 0 38 -1 37 93 69 66 23 94 39 130 74 32 31 37 42 37
80 0 61 -31 85 -109 85 -47 0 -66 -6 -106 -31z m119 -35 c11 -29 -34 -91 -86
-119 -27 -15 -52 -24 -55 -21 -11 11 19 84 49 120 32 39 81 50 92 20z"/>
<path d="M2851 1047 c-52 -14 -63 -32 -25 -41 30 -8 30 -9 -6 -141 -12 -44
-25 -96 -29 -115 -5 -19 -11 -46 -15 -60 -5 -19 -1 -33 14 -53 25 -31 56 -35
101 -12 39 21 93 95 79 109 -7 7 -18 2 -36 -17 -57 -61 -56 -32 7 185 21 75
39 141 39 147 0 14 -72 13 -129 -2z"/>
<path d="M3135 1045 c-98 -43 -130 -169 -60 -235 l25 -23 -35 -39 c-37 -40
-42 -57 -24 -75 13 -13 4 -33 -16 -33 -23 0 -65 -59 -65 -92 0 -22 10 -40 36
-64 35 -34 36 -34 130 -34 57 0 103 5 117 12 87 50 122 134 77 190 -21 28 -50
41 -127 58 -40 9 -53 16 -53 30 0 21 19 30 63 30 43 0 113 36 138 72 15 21 22
46 23 80 1 42 4 50 23 54 24 6 37 32 28 56 -5 11 -30 17 -97 22 -121 8 -147 7
-183 -9z m118 -46 c6 -9 7 -39 3 -71 -9 -69 -50 -125 -84 -114 -18 6 -22 15
-22 50 0 67 10 103 36 132 26 27 51 29 67 3z m-25 -405 c65 -27 27 -88 -63
-99 -86 -11 -125 8 -125 61 0 49 30 66 100 58 30 -3 70 -12 88 -20z"/>
<path d="M3491 1047 c-51 -14 -63 -32 -26 -41 14 -4 25 -12 25 -20 0 -15 -41
-201 -64 -286 -17 -66 -9 -80 44 -80 44 0 60 15 70 68 5 20 13 61 19 90 23
113 89 212 142 212 28 0 32 -19 14 -83 -8 -31 -21 -81 -29 -109 -29 -106 -30
-144 -7 -167 37 -37 88 -22 150 42 22 23 31 41 27 52 -4 13 -10 14 -26 5 -11
-6 -20 -15 -20 -19 0 -5 -7 -12 -16 -15 -13 -5 -15 -1 -11 26 3 18 10 49 15
68 49 165 52 211 17 245 -44 45 -125 30 -193 -34 l-22 -22 6 40 7 41 -39 -1
c-22 0 -59 -6 -83 -12z"/>
<path d="M4259 1031 c-60 -37 -103 -91 -123 -153 -38 -120 -7 -216 83 -254
125 -52 285 69 306 232 10 74 -8 126 -57 168 -38 33 -47 36 -103 36 -50 0 -69
-5 -106 -29z m142 -38 c9 -11 13 -38 12 -81 -6 -170 -101 -303 -169 -235 -39
39 8 257 68 313 26 24 71 26 89 3z"/>
<path d="M5626 1046 c-56 -13 -69 -31 -30 -40 31 -8 31 -5 -21 -220 -25 -103
-31 -143 -23 -153 13 -17 69 -17 89 0 9 6 25 55 38 107 28 117 56 193 82 216
18 17 20 16 45 -7 23 -22 27 -23 52 -8 63 35 46 119 -24 119 -26 0 -43 -8 -66
-30 -16 -16 -30 -30 -32 -30 -1 0 -2 12 -1 28 0 23 -4 27 -30 29 -16 0 -52 -4
-79 -11z"/>
<path d="M5972 1049 c-63 -12 -68 -18 -36 -44 l28 -22 -36 -148 c-39 -158 -38
-180 4 -209 43 -30 111 -14 169 41 l26 24 6 -31 c8 -35 43 -56 82 -46 32 8
101 69 108 96 7 27 -20 26 -42 -2 -10 -11 -22 -18 -28 -15 -10 6 -1 47 56 261
12 44 18 83 14 87 -14 14 -82 14 -95 1 -11 -11 -21 -45 -59 -197 -20 -81 -106
-176 -146 -161 -18 7 -13 44 24 186 40 153 43 164 43 178 0 14 -51 15 -118 1z"/>
<path d="M6446 1026 c-31 -28 -36 -40 -36 -77 0 -50 17 -82 84 -154 67 -73 73
-125 16 -133 -45 -7 -70 7 -92 54 -36 73 -65 48 -67 -58 -1 -36 3 -48 14 -48
8 0 15 5 15 11 0 7 11 9 33 4 89 -18 125 -17 166 6 41 23 71 69 71 108 0 38
-26 85 -77 141 -80 88 -89 123 -36 136 31 8 74 -22 88 -62 23 -67 50 -47 59
44 6 57 5 62 -13 62 -10 0 -21 -6 -23 -12 -4 -10 -10 -10 -32 0 -15 6 -51 12
-81 12 -47 0 -58 -4 -89 -34z"/>
<path d="M7380 1039 c-98 -58 -150 -147 -150 -254 0 -77 24 -122 81 -155 105
-59 255 22 309 166 40 109 13 206 -72 250 -41 21 -127 18 -168 -7z m139 -61
c13 -22 13 -36 2 -95 -29 -151 -71 -222 -131 -223 -39 0 -50 18 -50 80 0 89
38 208 80 250 30 30 79 24 99 -12z"/>
<path d="M7762 1049 c-67 -13 -83 -32 -37 -43 16 -4 25 -13 25 -26 0 -19 -49
-235 -69 -307 -11 -40 1 -53 50 -53 41 0 69 21 69 51 0 42 43 196 66 236 29
51 68 83 101 83 23 0 25 -3 21 -32 -3 -18 -20 -88 -37 -156 -18 -68 -30 -134
-27 -146 7 -29 47 -50 81 -42 30 8 115 82 115 102 0 25 -18 24 -44 -3 -46 -46
-45 -27 8 170 23 84 21 123 -9 152 -41 42 -130 30 -179 -24 -26 -29 -38 -26
-26 5 6 14 8 30 4 35 -6 11 -52 10 -112 -2z"/>
<path d="M9329 1032 c-101 -65 -159 -160 -162 -266 -2 -71 14 -104 66 -137 57
-36 159 -12 226 52 17 16 31 34 31 39 0 21 -32 22 -53 3 -32 -30 -62 -43 -95
-43 -38 0 -62 28 -62 72 0 31 4 37 33 48 112 42 160 66 191 96 31 30 36 42 36
79 0 61 -31 85 -109 85 -46 0 -66 -6 -102 -28z m115 -38 c11 -29 -34 -91 -86
-119 -27 -15 -52 -24 -55 -21 -11 11 19 84 49 120 32 39 81 50 92 20z"/>
<path d="M10639 1040 c-96 -51 -170 -169 -173 -276 -1 -71 12 -101 59 -131 44
-29 101 -30 160 -2 49 23 105 70 105 88 0 22 -31 24 -53 4 -32 -30 -62 -43
-95 -43 -38 0 -62 28 -62 73 0 35 2 37 51 51 135 41 213 104 213 173 0 26 -7
42 -28 59 -35 31 -123 33 -177 4z m105 -46 c7 -19 -14 -62 -46 -90 -21 -20
-80 -54 -93 -54 -20 0 20 96 58 138 24 26 72 30 81 6z"/>
</g>
</svg>
