<?xml version="1.0" standalone="no"?>
<!DOCTYPE svg PUBLIC "-//W3C//DTD SVG 20010904//EN"
 "http://www.w3.org/TR/2001/REC-SVG-20010904/DTD/svg10.dtd">
<svg version="1.0" xmlns="http://www.w3.org/2000/svg"
 width="1200.000000pt" height="660.000000pt" viewBox="0 0 1200.000000 660.000000"
 preserveAspectRatio="xMidYMid meet">
<metadata>
Created by potrace 1.13, written by Peter Selinger 2001-2015
</metadata>
<g transform="translate(0.000000,660.000000) scale(0.100000,-0.100000)"
fill="#000000" stroke="none">
<path d="M2200 5199 c-458 -41 -891 -251 -1211 -587 -309 -325 -479 -709 -520
-1177 -18 -201 3 -419 61 -640 124 -466 448 -896 858 -1137 129 -76 163 -93
282 -140 247 -99 424 -132 705 -132 271 0 459 34 687 125 298 119 536 286 738
521 41 47 80 89 87 92 7 3 31 -22 56 -57 198 -277 575 -416 1029 -379 220 19
519 83 530 115 4 10 -12 141 -48 406 -5 38 -8 42 -27 38 -264 -61 -382 -77
-546 -77 -229 1 -377 54 -492 177 -65 69 -134 222 -110 246 7 7 210 10 644 8
l634 -3 6 24 c15 59 19 212 7 313 -42 387 -186 635 -447 770 -114 59 -196 77
-368 83 -194 6 -326 -17 -463 -81 -23 -11 -44 -18 -46 -16 -2 2 -15 48 -30
101 -187 706 -748 1233 -1467 1377 -186 37 -359 47 -549 30z m-562 -852 c6 -6
39 -93 75 -192 91 -253 252 -681 298 -792 5 -13 14 -35 20 -50 18 -43 31 -76
39 -98 4 -11 13 -33 20 -50 14 -33 29 -70 40 -100 5 -11 15 -36 23 -55 9 -19
25 -60 37 -90 22 -57 33 -82 69 -162 11 -26 21 -50 21 -53 0 -2 13 -33 29 -67
15 -35 34 -80 42 -100 12 -36 39 -53 39 -25 0 8 6 27 14 43 8 16 21 45 29 64
8 19 24 56 36 82 11 26 21 50 21 53 0 3 10 27 21 53 12 26 27 61 35 78 35 80
291 733 364 929 45 121 88 238 97 260 8 22 19 51 23 65 22 70 71 194 81 206 9
11 73 14 323 14 171 0 317 -4 325 -9 11 -7 10 -20 -9 -72 -42 -122 -148 -407
-182 -489 -6 -14 -15 -35 -19 -47 -11 -29 -26 -65 -40 -100 -7 -16 -16 -38
-20 -50 -17 -45 -27 -69 -48 -115 -12 -26 -21 -50 -21 -53 0 -3 -9 -27 -21
-53 -12 -26 -25 -56 -29 -67 -17 -43 -57 -134 -106 -243 -13 -29 -24 -55 -24
-57 0 -2 -11 -28 -24 -57 -13 -29 -61 -134 -106 -233 -105 -233 -300 -640
-398 -830 l-77 -150 -260 0 -260 0 -140 280 c-153 304 -223 450 -352 735 -86
188 -293 666 -293 675 0 3 -9 27 -21 53 -12 26 -24 56 -29 67 -4 11 -12 32
-19 48 -6 15 -15 37 -20 50 -4 12 -14 36 -21 52 -24 56 -34 83 -80 205 -18 47
-37 96 -42 110 -15 35 -24 60 -38 100 -7 19 -16 44 -20 55 -15 36 -60 168 -60
176 0 13 55 16 356 17 223 2 294 -1 302 -11z m3164 -968 c125 -41 216 -139
259 -281 35 -113 72 -103 -381 -106 -241 -1 -397 1 -403 7 -15 15 7 93 52 191
9 19 45 65 81 101 54 54 76 69 130 86 86 28 181 29 262 2z"/>
<path d="M10575 3794 c-394 -39 -691 -273 -808 -639 -46 -142 -52 -189 -52
-400 0 -249 23 -370 100 -539 177 -387 608 -580 1171 -525 192 18 477 84 486
111 2 6 1 37 -3 67 -5 31 -17 128 -29 215 -11 88 -23 162 -25 165 -3 3 -47 -5
-98 -17 -316 -75 -581 -82 -751 -20 -162 58 -297 208 -314 346 l-5 43 638 -2
c584 -2 639 0 650 15 17 22 28 180 20 274 -13 157 -77 383 -142 502 -106 196
-277 326 -493 379 -83 20 -263 33 -345 25z m219 -424 c63 -24 138 -87 177
-149 36 -55 71 -162 67 -198 l-3 -28 -390 0 -390 0 -3 28 c-4 30 20 110 49
168 47 94 155 177 259 199 63 13 170 4 234 -20z"/>
<path d="M6585 3775 c-132 -19 -182 -31 -278 -64 -90 -31 -229 -99 -272 -133
l-25 -20 2 -911 3 -912 274 -3 c151 -1 279 2 284 7 4 4 9 335 10 747 l2 739
50 27 c103 56 257 72 401 43 41 -9 78 -13 83 -10 5 3 12 24 16 48 4 23 22 120
41 216 19 96 31 178 27 182 -12 12 -134 36 -245 48 -124 14 -259 12 -373 -4z"/>
<path d="M7510 3730 c0 -10 4 -29 9 -42 5 -13 13 -39 19 -58 6 -19 20 -69 32
-110 43 -145 199 -607 258 -765 135 -361 246 -619 377 -880 l70 -140 230 0
230 0 52 100 c201 386 480 1109 663 1715 17 58 36 118 41 134 22 70 40 66
-275 66 l-283 0 -32 -132 c-18 -73 -37 -146 -42 -163 -5 -16 -24 -84 -43 -150
-96 -336 -277 -852 -307 -870 -23 -15 -220 536 -318 890 -17 61 -35 124 -40
140 -5 17 -21 80 -36 140 -14 61 -29 118 -31 128 -5 16 -27 17 -290 17 -275 0
-284 -1 -284 -20z"/>
</g>
</svg>
