<?xml version="1.0" standalone="no"?>
<!DOCTYPE svg PUBLIC "-//W3C//DTD SVG 20010904//EN"
 "http://www.w3.org/TR/2001/REC-SVG-20010904/DTD/svg10.dtd">
<svg version="1.0" xmlns="http://www.w3.org/2000/svg"
 width="1200.000000pt" height="660.000000pt" viewBox="0 0 1200.000000 660.000000"
 preserveAspectRatio="xMidYMid meet">
<metadata>
Created by potrace 1.13, written by Peter Selinger 2001-2015
</metadata>
<g transform="translate(0.000000,660.000000) scale(0.100000,-0.100000)"
fill="#000000" stroke="none">
<path d="M493 4528 c-95 -17 -127 -90 -84 -190 10 -24 33 -73 50 -110 17 -38
44 -96 60 -130 16 -35 45 -99 66 -143 124 -268 650 -1407 712 -1545 82 -179
122 -243 180 -283 68 -47 119 -60 238 -61 101 -1 115 1 166 27 104 50 138 100
265 384 63 141 131 290 196 433 17 36 42 90 56 120 13 30 44 97 68 148 24 52
44 95 44 97 0 1 24 54 54 116 29 63 63 134 74 159 24 54 56 122 242 520 117
250 143 314 144 352 2 71 -29 97 -128 111 -167 24 -308 -31 -384 -151 -17 -26
-100 -200 -185 -387 -85 -187 -205 -450 -267 -585 -62 -135 -148 -324 -192
-420 -79 -174 -104 -214 -140 -226 -28 -9 -72 13 -90 44 -9 15 -163 351 -343
747 -399 880 -369 818 -425 874 -95 95 -221 128 -377 99z"/>
<path d="M3539 4515 c-106 -34 -182 -114 -244 -255 -36 -84 -266 -590 -316
-698 -21 -46 -39 -85 -39 -87 0 -2 -20 -45 -44 -97 -24 -51 -55 -118 -68 -148
-48 -103 -86 -185 -123 -265 -20 -44 -63 -136 -95 -205 -32 -69 -99 -213 -150
-320 -121 -255 -128 -318 -40 -363 29 -15 53 -18 142 -14 96 3 113 7 173 36
95 47 134 101 240 339 49 108 104 231 123 272 19 41 67 147 107 235 101 223
302 657 369 799 31 65 56 120 56 121 0 1 26 58 59 126 129 273 173 373 178
405 8 46 -13 92 -51 111 -43 23 -214 28 -277 8z"/>
<path d="M4426 4514 c-81 -26 -153 -82 -198 -155 -9 -14 -59 -119 -111 -235
-52 -115 -109 -240 -127 -279 -18 -38 -65 -142 -105 -230 -40 -88 -92 -200
-115 -250 -23 -49 -51 -110 -62 -135 -53 -115 -218 -471 -334 -720 -119 -254
-129 -279 -129 -333 0 -51 3 -62 27 -82 56 -48 261 -42 359 11 95 52 121 93
277 439 77 171 506 1107 564 1232 50 106 125 103 180 -8 29 -61 30 -62 201
-439 69 -151 184 -405 257 -565 73 -159 141 -310 152 -335 79 -175 101 -214
142 -257 73 -79 165 -113 306 -113 119 0 174 37 173 118 0 39 -24 98 -143 352
-178 382 -581 1255 -730 1584 -129 282 -168 338 -270 384 -71 32 -237 41 -314
16z"/>
<path d="M10232 4506 c-71 -14 -115 -48 -133 -103 -8 -24 -10 -347 -7 -1142 4
-1074 5 -1109 24 -1141 10 -18 32 -42 47 -54 28 -21 37 -21 700 -27 392 -3
684 -1 700 4 30 10 47 34 47 68 0 34 -108 197 -173 261 -94 94 -81 92 -479 98
-330 5 -348 6 -374 26 -15 11 -37 33 -48 48 -21 27 -21 35 -22 914 0 488 -4
906 -8 930 -12 64 -56 104 -132 120 -69 14 -59 14 -142 -2z"/>
<path d="M5279 4499 c-35 -13 -53 -49 -45 -91 10 -54 100 -231 135 -266 71
-70 37 -66 651 -73 589 -6 599 -7 696 -57 52 -26 108 -89 124 -137 27 -83 -13
-182 -93 -229 -101 -59 -95 -59 -577 -65 -404 -5 -448 -8 -473 -24 -39 -25
-36 -80 11 -184 52 -115 89 -163 153 -198 l54 -30 400 -6 400 -5 80 -28 c92
-31 162 -78 205 -138 39 -54 53 -109 47 -185 -6 -78 -41 -141 -105 -188 -101
-73 -195 -92 -524 -103 -186 -6 -208 -9 -228 -27 -33 -30 -23 -90 37 -215 82
-170 128 -206 260 -203 98 3 268 25 394 53 308 67 526 248 615 510 29 85 27
309 -4 407 -39 125 -86 204 -194 324 -37 42 -72 88 -77 102 -11 29 0 81 28
131 52 92 65 147 65 276 1 134 -9 180 -59 282 -71 145 -188 240 -371 301 -204
68 -225 69 -939 73 -414 2 -649 0 -666 -7z"/>
<path d="M7815 4501 c-61 -11 -85 -28 -106 -77 -20 -43 -20 -72 -19 -1137 1
-703 6 -1107 12 -1135 13 -51 62 -98 113 -108 20 -3 72 -4 116 -2 87 5 120 21
151 74 16 28 17 111 18 1162 l1 1132 -21 30 c-12 17 -36 38 -53 47 -36 18
-149 26 -212 14z"/>
<path d="M8551 4500 c-24 -5 -55 -20 -69 -32 -55 -52 -52 13 -52 -1193 0
-1226 -3 -1160 61 -1206 l34 -24 683 -3 c477 -2 689 1 703 8 51 28 42 72 -42
197 -67 99 -130 162 -194 193 -49 24 -55 25 -392 30 -327 5 -343 6 -370 26
-15 12 -37 36 -48 55 -20 33 -20 53 -21 939 -2 877 -2 906 -21 940 -11 19 -34
43 -51 53 -37 22 -155 31 -221 17z"/>
</g>
</svg>
