<svg xmlns="http://www.w3.org/2000/svg" width="340" height="190" viewBox="0 0 340 190">
  <defs>
    <style>
      .cls-1 {
        fill-rule: evenodd;
      }
    </style>
  </defs>
  <path id="Visa" class="cls-1" d="M151.074,67.01l-9.657,58.123h15.445l9.665-58.123H151.074Zm-22.607.065L113.34,106.713l-1.613-5.985c-2.984-7.211-11.453-17.568-21.4-24.095l13.832,48.472,16.343-.029,24.323-58.013Zm-22.6,4.16c-0.9-3.541-3.5-4.6-6.729-4.722H75.188l-0.2,1.157c18.635,4.636,30.966,15.808,36.082,29.241Zm91.967,6.918a27.9,27.9,0,0,1,11.56,2.225l1.394,0.672,2.09-12.6a38.984,38.984,0,0,0-13.836-2.44c-15.263,0-26.02,7.884-26.1,19.182-0.1,8.348,7.662,13.009,13.526,15.792,6.018,2.852,8.036,4.665,8.008,7.211-0.047,3.891-4.8,5.676-9.236,5.676a31.725,31.725,0,0,1-14.543-3.044l-1.99-.929-2.173,13.009c3.615,1.626,10.285,3.024,17.209,3.1,16.235,0,26.786-7.79,26.9-19.862,0.068-6.6-4.052-11.644-12.978-15.78-5.4-2.7-8.707-4.49-8.676-7.211C188.979,80.736,191.784,78.153,197.83,78.153Zm54.681-11.078H240.578c-3.706,0-6.463,1.035-8.092,4.824l-22.933,53.267h16.219s2.646-7.163,3.246-8.732c1.776,0,17.534.025,19.779,0.025,0.461,2.029,1.883,8.707,1.883,8.707h14.329Zm-19.048,37.463c1.271-3.337,6.154-16.244,6.154-16.244-0.084.159,1.259-3.361,2.057-5.549l1.041,5.011s2.96,13.877,3.579,16.782H233.463Z"/>
</svg>
