<svg xmlns="http://www.w3.org/2000/svg" viewBox="0 0 700 700">
  <defs>
    <style>
      .cls-1 {
        fill-rule: evenodd;
      }
    </style>
  </defs>
  <path id="VISA" class="cls-1" d="M349.143,380.8c2.378,0.227,7.234,2.681,9.714,3.7,10.157,4.176,29.188,6.259,38.286-.285,2.331-1.677,5.813-4.707,4.571-9.68-2.107-8.438-15.088-12.363-22.285-16.227-10.56-5.669-19.392-13.635-22.572-26.761v-3.985a32.952,32.952,0,0,1,3.714-16.228c6.265-12.014,16.522-18.841,30.572-23.059,4.016-1.206,8.743-1.336,12.857-2.278h8a69.568,69.568,0,0,1,21.714,3.132c2.576,0.829,5.544.774,7.429,2.277a3.761,3.761,0,0,1,.286,1.993c-1.127,1.679-.79,4.41-1.429,6.548-1.689,5.652-2.716,12.034-4,17.935h-0.571c-1.778-1.6-4.922-2.023-7.429-2.847-8.249-2.71-23.321-4.7-31.429-.284-2.782,1.514-7.831,4.549-6,10.248,1.867,5.81,11.557,9.408,16.858,12.242,11.165,5.97,21.962,12.173,26.571,24.768,1.1,2.992,2.731,8.466,1.714,13.1l-1.428,8.256a44.408,44.408,0,0,1-6,11.957c-9.5,13.093-37.441,23.636-61.715,18.22l-6-.569c-3.391-.875-7.5-1.8-10.571-2.847-2.341-.8-6.019-0.626-6.571-3.132,1.647-2.551,1.1-6.436,2-9.679A123.233,123.233,0,0,0,349.143,380.8Zm-47.429-92.524c-0.378,3.506-4.024,9.627-5.428,12.811-3.917,8.88-7.363,17.821-11.143,26.476-8.792,20.126-16.711,40.479-25.429,60.354-3.584,8.172-5.915,17.484-10.571,24.768-2.712-.511-6.539-0.285-9.714-0.285H221.714a57.866,57.866,0,0,1-6.571,0c-0.427-4.14-2.176-8.865-3.429-12.526-0.738-2.159-.479-3.829-1.143-5.979-1.138-3.688-2.314-8.039-3.428-11.672-0.455-1.482-.074-2.52-0.572-3.986-4.363-12.854-6.485-27.248-10.857-40.141-0.944-2.786-.849-5.128-1.714-7.971-1.58-5.195-2.984-11.063-4.571-16.227-0.97-3.156-1.173-5.659-2.858-7.972-2.135-2.931-6.394-4.175-10-5.694A143.482,143.482,0,0,0,150,291.978v-1.423c0.379-.5.479-1.476,0.857-1.993,1.328-.818,13.033-0.284,15.714-0.284h41.715c1.062,0.757,2.714.576,4,1.138,2.733,1.2,5.345,4.088,6.857,6.548,3.023,4.919,2.345,12.605,4,18.79,3.482,13.012,4.672,27.36,8,40.426,1.428,5.607,1.19,11.649,3.143,16.8a1.026,1.026,0,0,0,.285-0.569c0.974-1.153,1.064-2.748,1.715-4.27,1.968-4.606,3.441-9.844,5.714-14.52,6.743-13.873,11.649-29.355,17.714-43.557,2.072-4.852,3.725-9.859,5.715-14.519,0.446-1.046,1.685-5.834,2.285-6.263h34Zm14,0h22c3.149,0,7.675-.577,10.286.284-1.409,8.05-3.272,16.534-5.429,24.2-0.5,1.785-.066,2.826-0.571,4.555-1.787,6.118-2.85,13.229-4.571,19.359-0.73,2.6-.421,4.566-1.143,7.117-3.24,11.445-4.721,24.172-8,35.586-0.612,2.129-.277,3.555-0.857,5.694-1.689,6.219-2.826,13.417-4.572,19.644-0.627,2.234-.274,6.588-2,7.686-1.534.544-6.565,0-9.143,0-6.76,0-17.315.9-22.857,0v-0.854c1.783-2.493,1.368-7.014,2.286-10.249,2.01-7.082,3.11-15.156,5.143-22.2,0.494-1.715.073-2.842,0.571-4.556,5.931-20.419,8.446-42.659,14-63.2C312.945,303.617,313.07,295.52,315.714,288.278Zm178,0h30v0.284H524c0.52,5.751,2.259,12.042,3.714,17.366,1.984,7.261,2.693,14.712,4.572,21.637l1.428,8.54c1.926,6.769,3.021,14.579,4.857,21.352,0.6,2.213.262,3.786,0.858,5.979,1.233,4.54,2.2,9.964,3.428,14.519,0.6,2.209.228,3.8,0.857,5.978,2.582,8.937,4.608,19.2,6.286,28.469a0.978,0.978,0,0,0-.571.285c-3.311-.638-7.923-0.285-11.715-0.285-5.717,0-12.185-.325-17.428.285a2.977,2.977,0,0,1-.572-1.708c-0.966-1.489-.608-3.772-1.143-5.694a52.288,52.288,0,0,1-2.285-10.818c-2.635-1.343-8.621-.57-12.286-0.57H474.857c-1.9,4.483-3.521,9.566-5.428,13.95-0.671,1.542-.467,3.108-1.429,4.271-0.212.248-.36,0.321-0.571,0.569-7.194-1.32-16.534-.286-24.286-0.285-2.357,0-7.582.62-8.857,0a1.019,1.019,0,0,1-.286-0.569c1.826-2.09,2.244-5.562,3.429-8.256,1.771-4.029,3.942-8.5,5.714-12.527,1.005-2.285,1.242-4.251,2.286-6.547,9.522-20.947,18.169-42.956,27.428-64.056,2.607-5.94,4.934-11.926,7.429-17.65,1.388-3.185,2.081-6.484,4-9.11a16.817,16.817,0,0,1,6.857-4.84C492.088,288.5,493,288.739,493.714,288.278Zm-9.428,80.282h26a3.983,3.983,0,0,0,.285-1.139c-1.587-2.53-1.121-6.566-2-9.679-2.049-7.265-3.112-15.532-5.142-22.775-0.7-2.5-1.3-11.284-2.858-12.242v0.285c-1.27,1.975-1.411,4.525-2.285,6.832-1.856,4.9-3.479,9.877-5.429,15.089-1.508,4.031-3.3,8.892-5.143,12.811-0.673,1.432-.539,2.8-1.143,4.27C485.752,364,484.5,366.005,484.286,368.56Z"/>
</svg>
