<?xml version="1.0" standalone="no"?>
<!DOCTYPE svg PUBLIC "-//W3C//DTD SVG 20010904//EN"
 "http://www.w3.org/TR/2001/REC-SVG-20010904/DTD/svg10.dtd">
<svg version="1.0" xmlns="http://www.w3.org/2000/svg"
 width="600.000000pt" height="330.000000pt" viewBox="0 0 600.000000 330.000000"
 preserveAspectRatio="xMidYMid meet">

<g transform="translate(0.000000,330.000000) scale(0.100000,-0.100000)"
fill="#000000" stroke="none">
<path d="M1670 1650 l0 -1450 1330 0 1330 0 0 1450 0 1450 -1330 0 -1330 0 0
-1450z m2600 475 l0 -905 -1270 0 -1270 0 0 898 c0 494 3 902 7 905 3 4 575 7
1270 7 l1263 0 0 -905z m-1660 -1127 c59 -31 82 -66 88 -130 10 -120 -75 -198
-215 -198 l-43 0 0 -100 0 -100 -50 0 -50 0 0 265 c0 241 2 265 18 274 9 6 60
11 112 11 80 0 103 -4 140 -22z m500 -140 c52 -165 102 -324 115 -366 6 -22 5
-23 -46 -20 l-52 3 -23 70 c-13 39 -24 71 -24 73 0 1 -38 2 -84 2 l-84 0 -23
-75 -22 -75 -48 0 c-27 0 -49 3 -49 6 0 3 16 56 35 117 19 62 55 179 80 261
25 82 48 153 51 158 3 4 32 8 64 8 l59 0 51 -162z m273 150 c3 -7 28 -63 55
-125 l49 -112 54 122 54 122 53 3 c28 2 52 -1 52 -5 0 -4 -38 -78 -85 -162
l-85 -155 0 -113 0 -113 -50 0 -50 0 0 116 0 117 -80 154 c-44 85 -80 157 -80
159 0 11 108 3 113 -8z"/>
<path d="M2205 2689 c-11 -16 -2 -20 116 -56 122 -37 194 -70 223 -102 10 -11
25 -44 33 -73 7 -29 38 -150 69 -268 95 -371 134 -522 156 -602 l20 -78 159 0
158 0 15 28 c8 15 63 146 124 292 60 146 165 396 232 555 67 160 125 296 127
303 4 10 -29 12 -157 10 l-162 -3 -51 -130 c-214 -548 -265 -669 -271 -645 -6
24 -73 375 -112 584 -20 111 -42 152 -94 178 -31 16 -68 18 -307 18 -182 0
-274 -4 -278 -11z"/>
<path d="M2463 943 c-22 -4 -23 -9 -23 -99 l0 -94 40 0 c47 0 95 22 110 49 15
29 12 83 -5 108 -13 18 -77 46 -95 42 -3 -1 -15 -4 -27 -6z"/>
<path d="M2967 832 c-15 -55 -30 -107 -33 -116 -5 -14 3 -16 60 -16 36 0 66 1
66 3 0 1 -15 53 -33 115 l-33 113 -27 -99z"/>
</g>
</svg>
