<?xml version="1.0" standalone="no"?>
<!DOCTYPE svg PUBLIC "-//W3C//DTD SVG 20010904//EN"
 "http://www.w3.org/TR/2001/REC-SVG-20010904/DTD/svg10.dtd">
<svg version="1.0" xmlns="http://www.w3.org/2000/svg"
 width="1200.000000pt" height="660.000000pt" viewBox="0 0 1200.000000 660.000000"
 preserveAspectRatio="xMidYMid meet">
<metadata>
Created by potrace 1.13, written by Peter Selinger 2001-2015
</metadata>
<g transform="translate(0.000000,660.000000) scale(0.100000,-0.100000)"
fill="#000000" stroke="none">
<path d="M1685 4738 c-220 -36 -369 -86 -530 -177 -320 -180 -565 -481 -669
-821 -15 -47 -31 -99 -36 -116 -6 -17 -10 -162 -10 -330 1 -298 1 -299 29
-399 42 -150 95 -267 171 -384 19 -29 41 -65 49 -79 8 -14 77 -89 155 -167
114 -114 160 -153 241 -202 95 -57 274 -143 299 -143 6 0 24 -7 40 -15 105
-55 464 -82 676 -51 152 23 277 64 448 149 101 51 222 135 222 156 0 8 -21 37
-47 65 -27 28 -88 97 -138 154 -49 56 -96 102 -105 102 -13 0 -114 -90 -286
-251 -25 -24 -47 -37 -55 -33 -8 4 -45 41 -83 83 -38 42 -90 99 -115 126 -25
28 -64 70 -85 95 -22 25 -83 92 -137 150 -53 58 -107 118 -120 134 l-23 29 72
66 c40 36 72 71 72 76 0 6 -35 48 -76 95 -42 47 -101 114 -132 149 -32 35 -73
80 -92 101 -86 91 -88 102 -23 156 26 21 58 49 71 62 l23 22 -98 107 c-232
253 -293 322 -293 333 0 9 120 122 259 245 63 55 161 143 218 195 57 52 116
99 130 105 22 8 28 6 50 -20 58 -68 156 -165 167 -165 7 0 46 30 87 68 106 96
200 176 230 195 l26 17 88 -95 c48 -52 95 -95 104 -95 9 1 44 27 79 58 59 54
62 59 45 73 -45 36 -213 107 -323 136 -188 49 -424 66 -575 41z"/>
<path d="M2641 4344 c-45 -42 -81 -80 -79 -85 7 -22 143 -169 156 -169 19 0
172 139 172 157 0 7 -21 35 -46 61 -26 26 -58 62 -71 80 -14 17 -31 32 -38 32
-6 0 -49 -34 -94 -76z"/>
<path d="M2161 4302 c-187 -168 -177 -157 -158 -183 9 -13 63 -73 120 -133 90
-95 105 -107 117 -94 8 8 65 58 125 112 61 54 111 102 113 107 6 16 -213 259
-233 259 -5 0 -43 -31 -84 -68z"/>
<path d="M1605 4201 c-50 -44 -126 -113 -169 -153 l-80 -74 61 -72 c34 -39 88
-99 121 -134 33 -35 74 -80 92 -100 20 -24 37 -35 45 -30 35 19 325 288 325
300 0 19 -283 342 -300 342 -3 0 -46 -36 -95 -79z"/>
<path d="M5857 3933 c-4 -3 -7 -277 -7 -608 0 -470 3 -605 13 -612 16 -14 121
-57 177 -74 28 -9 93 -14 170 -14 149 0 209 19 290 92 96 87 140 215 140 410
0 178 -41 306 -122 379 -72 66 -177 104 -283 104 -54 -1 -80 -5 -167 -26 l-28
-6 0 169 c0 118 -4 173 -12 181 -13 13 -159 17 -171 5z m455 -475 c55 -17 114
-90 124 -153 10 -70 -1 -386 -15 -420 -17 -41 -58 -83 -105 -107 -31 -16 -51
-19 -105 -15 -91 7 -126 16 -150 39 -21 19 -21 26 -19 320 l3 300 35 13 c84
30 97 33 143 34 26 1 66 -5 89 -11z"/>
<path d="M7005 3921 c-92 -26 -161 -89 -194 -176 -19 -51 -20 -78 -21 -575 -1
-287 0 -524 3 -526 9 -10 163 -11 175 -2 9 8 12 120 12 500 0 342 3 496 11
511 27 53 61 77 107 77 38 0 50 -5 78 -36 l34 -35 0 -503 c0 -391 3 -506 13
-513 6 -5 50 -9 97 -9 l85 1 5 505 c5 546 6 550 60 577 41 21 95 16 128 -12
52 -43 54 -73 50 -587 -1 -256 0 -469 3 -472 8 -9 150 -17 172 -10 16 5 17 38
17 517 0 532 -2 554 -43 633 -21 40 -73 87 -127 115 -38 20 -60 24 -140 24
-97 0 -140 -11 -192 -48 -26 -19 -27 -19 -55 0 -15 10 -41 25 -58 32 -36 16
-178 24 -220 12z"/>
<path d="M3734 3909 c-4 -7 -6 -246 -5 -533 l2 -521 31 -64 c17 -36 47 -79 67
-98 102 -94 290 -99 412 -11 13 9 28 4 76 -25 58 -35 65 -37 151 -37 102 0
139 12 209 68 28 22 54 56 75 100 l33 67 3 527 3 527 -23 6 c-13 3 -57 5 -98
3 l-75 -3 -5 -505 c-4 -363 -8 -513 -17 -532 -31 -70 -147 -77 -190 -11 -17
25 -18 68 -23 538 l-5 510 -82 3 c-136 5 -123 59 -116 -501 6 -474 6 -483 -15
-529 -21 -48 -23 -50 -104 -63 -31 -5 -41 -1 -72 28 l-36 34 0 505 c0 379 -3
507 -12 516 -16 16 -174 16 -184 1z"/>
<path d="M2857 3829 c-42 -39 -77 -75 -77 -79 0 -19 143 -170 160 -170 10 0
54 33 96 73 77 73 78 74 62 98 -33 50 -131 149 -147 149 -10 0 -52 -32 -94
-71z"/>
<path d="M2429 3812 c-20 -20 -73 -70 -118 -111 -45 -40 -81 -77 -79 -82 7
-21 214 -248 226 -248 13 -1 133 96 221 178 l43 41 -28 37 c-57 77 -197 223
-213 222 -9 0 -32 -17 -52 -37z"/>
<path d="M1820 3583 c-63 -58 -136 -126 -162 -151 l-48 -45 18 -27 c19 -30
132 -158 229 -260 61 -64 61 -64 80 -44 10 12 84 81 166 154 81 72 147 137
147 142 0 13 -32 50 -169 197 -58 62 -110 120 -114 127 -4 8 -13 14 -20 14 -7
-1 -64 -49 -127 -107z"/>
<path d="M9325 3609 c-32 -5 -92 -24 -133 -44 -74 -35 -77 -35 -84 10 -3 18
-11 20 -81 20 l-77 0 -1 -465 c0 -256 0 -471 0 -478 1 -10 23 -12 89 -10 l87
3 5 372 c6 418 -2 381 85 422 62 29 85 34 150 32 49 -1 66 -7 95 -30 66 -53
69 -76 69 -446 0 -181 1 -336 1 -342 0 -9 24 -13 84 -13 55 0 87 4 93 13 14
17 16 494 3 641 -9 103 -14 126 -40 172 -42 73 -96 119 -156 132 -79 17 -125
20 -189 11z"/>
<path d="M5195 3591 c-66 -21 -115 -53 -158 -101 -44 -48 -59 -77 -87 -164
-27 -83 -31 -285 -8 -381 33 -134 111 -229 233 -287 69 -32 73 -33 207 -33 96
0 141 4 150 13 6 6 20 12 30 12 10 0 26 4 36 9 9 5 34 16 55 25 21 9 40 23 43
31 9 23 -3 61 -30 92 l-24 27 -43 -18 c-24 -10 -55 -23 -68 -30 -13 -6 -69
-11 -125 -10 -156 0 -220 39 -265 159 -22 58 -26 101 -13 122 6 10 79 13 287
15 l280 3 3 78 c6 150 -28 277 -90 344 -92 99 -274 140 -413 94z m240 -150
c41 -27 65 -80 72 -157 l6 -74 -189 2 -189 3 -3 49 c-5 83 58 185 122 197 37
7 161 -7 181 -20z"/>
<path d="M8213 3586 c-93 -34 -171 -109 -214 -203 -46 -101 -59 -286 -31 -433
22 -118 106 -235 200 -280 26 -12 56 -27 67 -33 30 -16 184 -21 246 -8 209 45
320 212 318 481 -1 224 -54 353 -182 439 -65 44 -137 61 -252 60 -69 0 -105
-6 -152 -23z m260 -131 c46 -19 94 -78 112 -139 17 -55 19 -221 6 -349 -7 -62
-15 -87 -37 -120 -86 -121 -281 -116 -359 10 l-30 48 0 210 0 210 34 53 c20
32 48 60 70 72 46 23 155 26 204 5z"/>
<path d="M10095 3596 c-58 -18 -94 -40 -146 -88 -49 -46 -66 -72 -101 -165
-20 -51 -22 -76 -22 -208 1 -211 27 -296 121 -392 42 -42 68 -58 172 -107 14
-6 81 -11 160 -11 133 0 150 3 236 41 17 7 43 17 58 23 15 6 30 17 33 25 6 15
-32 103 -48 112 -8 5 -80 -17 -127 -40 -13 -6 -71 -11 -130 -11 -114 0 -149
12 -213 73 -36 34 -70 124 -66 176 l3 41 285 5 285 5 0 135 c0 127 -2 138 -29
197 -37 81 -112 152 -189 181 -67 25 -214 29 -282 8z m229 -149 c49 -28 89
-115 84 -185 l-3 -47 -185 0 -185 0 -3 52 c-5 84 47 173 111 192 61 17 139 12
181 -12z"/>
<path d="M10667 3594 c-4 -4 -7 -13 -7 -21 0 -11 263 -682 305 -778 40 -91 75
-188 74 -208 0 -34 -53 -157 -78 -183 -43 -44 -131 -39 -185 11 -15 14 -29 25
-31 25 -7 0 -85 -108 -85 -118 0 -10 43 -52 53 -52 4 0 35 -13 69 -29 123 -55
226 -46 291 28 46 52 79 137 216 546 72 215 135 404 140 420 6 17 27 77 47
135 20 58 38 116 41 130 3 14 14 37 25 52 11 16 16 32 13 38 -3 5 -44 10 -89
10 -78 0 -85 -2 -100 -25 -9 -13 -16 -34 -16 -45 0 -11 -4 -28 -9 -38 -5 -9
-15 -37 -21 -62 -7 -25 -21 -70 -30 -100 -10 -30 -32 -100 -49 -155 -69 -223
-95 -295 -104 -292 -6 2 -22 38 -37 80 -14 42 -29 80 -33 84 -4 3 -7 12 -7 20
0 7 -8 32 -19 56 -10 23 -28 67 -41 97 -13 30 -31 74 -41 97 -11 24 -19 47
-19 53 0 9 -7 26 -57 140 -39 90 -32 85 -125 88 -46 1 -87 0 -91 -4z"/>
<path d="M3090 3324 c-41 -36 -78 -72 -83 -79 -8 -16 99 -152 135 -172 20 -11
29 -5 98 55 80 72 90 82 90 97 0 12 -146 165 -157 165 -5 0 -42 -30 -83 -66z"/>
<path d="M2660 3269 c-19 -17 -60 -54 -90 -83 -30 -29 -67 -61 -82 -71 -48
-30 -38 -55 73 -178 56 -62 110 -113 120 -115 11 -2 44 21 86 61 37 36 92 84
121 106 28 23 52 47 52 54 0 17 -218 257 -233 257 -7 0 -28 -14 -47 -31z"/>
<path d="M2113 3028 c-37 -35 -70 -65 -73 -68 -3 -3 -44 -40 -92 -83 -49 -44
-88 -85 -88 -92 0 -7 28 -43 63 -81 60 -66 217 -244 225 -254 6 -9 52 27 201
158 83 74 151 139 151 146 0 6 -19 32 -43 56 -44 46 -185 203 -227 253 -13 15
-29 27 -36 27 -7 0 -44 -28 -81 -62z"/>
<path d="M2807 2674 c-65 -58 -121 -112 -124 -120 -3 -9 22 -45 63 -90 38 -42
86 -98 108 -125 21 -27 46 -49 55 -49 9 0 52 34 96 75 44 42 99 92 123 112 23
19 42 40 42 47 0 6 -28 40 -61 76 -33 36 -83 91 -111 123 -28 31 -56 57 -62
57 -7 0 -65 -48 -129 -106z"/>
</g>
</svg>
