<?xml version="1.0" standalone="no"?>
<!DOCTYPE svg PUBLIC "-//W3C//DTD SVG 20010904//EN"
 "http://www.w3.org/TR/2001/REC-SVG-20010904/DTD/svg10.dtd">
<svg version="1.0" xmlns="http://www.w3.org/2000/svg"
 width="1200.000000pt" height="660.000000pt" viewBox="0 0 1200.000000 660.000000"
 preserveAspectRatio="xMidYMid meet">
<metadata>
Created by potrace 1.13, written by Peter Selinger 2001-2015
</metadata>
<g transform="translate(0.000000,660.000000) scale(0.100000,-0.100000)"
fill="#000000" stroke="none">
<path d="M1345 4350 c-350 -73 -639 -259 -804 -515 -104 -161 -147 -324 -138
-519 13 -286 125 -487 405 -727 26 -22 42 -45 42 -58 0 -12 -16 -78 -36 -147
-34 -118 -35 -126 -20 -149 9 -14 23 -25 32 -25 8 0 84 40 168 90 173 102 175
103 313 68 79 -21 111 -23 318 -22 225 0 233 1 345 31 472 128 796 446 861
848 14 92 7 254 -16 345 -19 70 -95 243 -114 254 -6 4 -82 -35 -169 -87 -86
-52 -213 -127 -282 -167 -69 -40 -142 -83 -162 -96 -21 -13 -39 -24 -42 -24
-2 0 -34 -18 -71 -41 -37 -22 -83 -49 -101 -60 -93 -52 -148 -84 -259 -149
-49 -29 -115 -66 -145 -83 -30 -16 -59 -33 -65 -37 -12 -9 -80 -48 -117 -67
-16 -8 -37 -12 -50 -8 -25 8 -68 44 -68 57 0 5 -15 41 -34 81 -19 40 -44 95
-56 122 -12 28 -35 77 -50 110 -90 194 -91 198 -60 215 27 14 40 7 255 -150
93 -68 111 -70 213 -24 28 13 76 35 105 48 50 23 95 43 190 85 23 10 76 33
117 51 41 18 94 41 118 51 199 89 350 154 497 217 77 33 141 66 143 74 4 21
-136 150 -226 210 -150 98 -305 160 -493 198 -133 27 -413 27 -544 0z"/>
<path d="M9525 3906 c-44 -6 -86 -15 -92 -19 -18 -11 -19 -1232 -2 -1243 17
-10 61 -11 82 -1 16 7 17 30 17 271 l0 263 94 -5 c290 -15 496 146 496 388 0
102 -30 177 -99 246 -99 99 -264 133 -496 100z m300 -108 c103 -36 146 -78
171 -165 28 -98 2 -216 -62 -277 -16 -16 -54 -39 -84 -53 -49 -23 -69 -26
-177 -27 -73 0 -127 4 -133 10 -7 7 -9 98 -8 265 l3 254 55 6 c69 8 196 1 235
-13z"/>
<path d="M6410 3904 c-128 -23 -270 -99 -341 -183 -109 -128 -158 -269 -158
-456 0 -302 142 -515 399 -598 102 -33 325 -28 445 11 70 22 80 43 41 85 -22
24 -27 25 -58 16 -55 -18 -170 -38 -218 -38 -42 -1 -149 18 -195 34 -126 44
-220 141 -270 280 -16 43 -35 163 -35 217 0 57 12 128 33 203 42 147 153 264
287 304 25 7 58 17 74 22 45 14 195 10 261 -7 33 -9 70 -18 81 -21 16 -3 27 3
43 25 29 41 26 58 -11 72 -18 6 -41 16 -51 22 -20 10 -284 20 -327 12z"/>
<path d="M6947 3893 c-5 -15 -3 -1204 1 -1225 3 -13 87 -9 100 4 9 9 12 91 12
310 0 284 1 299 21 335 42 76 107 125 184 139 102 20 191 -20 233 -106 l27
-55 5 -315 5 -315 50 0 50 0 3 315 c2 305 2 317 -20 380 -27 77 -87 144 -162
178 -37 18 -66 23 -126 23 -93 0 -164 -28 -228 -90 l-42 -41 -2 238 -3 237
-52 3 c-42 2 -52 0 -56 -15z"/>
<path d="M3632 3884 c-5 -9 -6 -31 -1 -48 4 -17 17 -66 28 -108 12 -43 30
-112 41 -153 11 -41 29 -108 39 -147 11 -40 34 -127 51 -193 17 -66 40 -154
51 -195 12 -41 24 -91 29 -110 5 -19 18 -71 30 -115 12 -44 24 -91 27 -105 9
-39 22 -50 63 -50 40 0 64 19 73 60 3 14 10 42 16 63 6 20 16 53 21 72 6 19
14 50 19 68 5 17 24 79 41 137 17 58 36 120 41 138 5 17 13 47 18 65 5 17 19
64 31 102 33 105 51 171 76 269 l18 70 37 -150 c20 -82 51 -203 69 -269 68
-258 123 -471 138 -542 16 -72 28 -84 79 -81 50 3 53 8 83 118 7 25 16 56 20
70 4 14 18 59 30 100 12 41 25 86 30 100 4 14 18 59 30 100 12 41 25 86 30
100 4 14 18 59 30 100 12 41 25 86 30 100 4 14 18 59 30 100 12 41 25 86 29
100 5 14 19 59 31 100 12 41 27 85 33 97 14 32 -7 53 -53 53 -43 0 -58 -14
-71 -65 -5 -19 -13 -51 -19 -70 -5 -19 -14 -51 -20 -70 -5 -19 -14 -50 -19
-67 -5 -18 -28 -96 -51 -173 -23 -77 -46 -155 -51 -172 -5 -18 -13 -49 -19
-68 -5 -19 -14 -51 -20 -70 -5 -19 -14 -50 -19 -67 -5 -18 -19 -71 -31 -118
-21 -85 -40 -124 -40 -84 0 18 -35 161 -90 369 -10 39 -32 123 -49 188 -17 64
-45 170 -62 235 -17 64 -34 133 -38 152 -14 64 -28 80 -70 80 -43 0 -53 -9
-70 -60 -9 -28 -159 -551 -191 -665 -5 -16 -18 -61 -30 -100 -34 -113 -50
-174 -50 -197 0 -34 -21 -7 -31 39 -9 41 -24 106 -39 166 -6 20 -14 54 -19 75
-5 20 -27 107 -49 192 -23 85 -62 238 -87 340 -28 111 -53 190 -63 198 -23 18
-79 15 -90 -4z"/>
<path d="M8654 3728 c-5 -7 -7 -47 -5 -88 3 -92 -2 -98 -84 -102 -64 -3 -73
-13 -61 -64 6 -23 11 -24 76 -24 l70 0 0 -313 c0 -352 4 -378 67 -441 46 -45
98 -60 183 -52 83 9 99 23 74 65 -17 29 -22 31 -77 31 -37 0 -67 6 -83 16 -50
33 -54 61 -54 390 l0 303 118 3 117 3 3 43 3 42 -120 0 -121 0 0 90 c0 78 -2
91 -19 100 -27 14 -78 13 -87 -2z"/>
<path d="M5295 3530 c-117 -57 -188 -150 -225 -298 -46 -180 -4 -364 106 -474
40 -40 67 -57 162 -101 35 -17 248 -12 309 6 97 29 111 47 74 96 -21 27 -10
28 -135 -10 -68 -21 -201 -5 -272 33 -38 20 -101 90 -116 126 -16 41 -37 134
-38 165 l0 27 314 0 c350 0 326 -5 326 73 -1 102 -47 222 -112 293 -64 70
-126 94 -241 94 -81 0 -99 -4 -152 -30z m239 -81 c86 -32 135 -104 139 -204
l2 -50 -250 0 -250 0 3 33 c1 18 11 52 23 76 65 140 196 197 333 145z"/>
<path d="M7945 3548 c-42 -13 -115 -50 -121 -60 -9 -14 16 -78 30 -78 7 0 28
8 47 17 78 40 184 54 250 32 72 -24 112 -83 124 -183 l7 -56 -43 0 c-98 0
-238 -30 -311 -67 -98 -48 -160 -132 -174 -234 -13 -94 49 -204 140 -252 33
-17 58 -21 131 -20 97 1 156 21 219 76 35 30 46 27 46 -13 0 -33 23 -50 67
-50 48 0 51 7 42 105 -4 50 -8 176 -9 280 -1 221 -10 303 -38 366 -24 53 -85
112 -138 134 -42 17 -220 20 -269 3z m330 -543 l0 -111 -35 -49 c-85 -119
-271 -142 -341 -43 -19 26 -23 45 -23 104 0 62 3 76 27 107 51 68 165 106 302
104 l70 -2 0 -110z"/>
<path d="M10330 3546 c-97 -33 -120 -47 -120 -75 0 -14 7 -35 15 -45 15 -19
16 -19 52 -2 152 74 312 52 357 -47 13 -29 36 -123 36 -147 0 -6 -21 -10 -47
-10 -125 0 -287 -45 -360 -99 -120 -91 -156 -237 -88 -356 27 -47 46 -65 100
-96 33 -18 55 -22 130 -22 101 1 136 12 209 68 25 19 48 35 51 35 3 0 5 -13 5
-29 0 -40 24 -61 69 -61 43 0 65 18 51 40 -6 8 -10 126 -10 262 0 351 -17 445
-95 523 -58 57 -112 75 -222 74 -54 -1 -114 -6 -133 -13z m338 -511 c4 -113
-11 -159 -72 -220 -103 -101 -255 -102 -316 -3 -23 37 -28 135 -9 171 47 91
158 136 324 133 l70 -1 3 -80z"/>
<path d="M10853 3544 c-3 -8 0 -27 7 -42 7 -15 17 -38 23 -52 5 -14 14 -36 20
-50 5 -14 14 -36 20 -50 5 -14 14 -35 18 -47 5 -13 14 -34 19 -48 6 -14 15
-36 20 -50 6 -14 15 -36 20 -50 6 -14 14 -35 19 -47 4 -13 13 -35 20 -50 6
-16 16 -39 21 -53 6 -14 15 -37 21 -52 7 -16 15 -37 19 -48 17 -46 49 -123 61
-147 16 -32 9 -75 -21 -133 -59 -111 -118 -177 -207 -227 -29 -16 -56 -34 -59
-39 -3 -6 6 -26 21 -45 32 -41 43 -40 125 16 86 59 147 134 213 265 50 99 60
123 207 490 127 318 150 375 172 422 18 38 4 53 -50 53 -55 0 -59 -6 -102
-130 -7 -19 -16 -44 -20 -55 -4 -11 -18 -47 -30 -80 -12 -33 -26 -69 -30 -80
-4 -11 -18 -47 -30 -80 -12 -33 -26 -69 -30 -80 -4 -11 -17 -45 -28 -75 -53
-146 -49 -138 -60 -110 -6 14 -67 169 -137 345 -70 176 -132 326 -137 333 -16
18 -97 16 -105 -4z"/>
</g>
</svg>
