<?xml version="1.0" standalone="no"?>
<!DOCTYPE svg PUBLIC "-//W3C//DTD SVG 20010904//EN"
 "http://www.w3.org/TR/2001/REC-SVG-20010904/DTD/svg10.dtd">
<svg version="1.0" xmlns="http://www.w3.org/2000/svg"
 width="1200.000000pt" height="660.000000pt" viewBox="0 0 1200.000000 660.000000"
 preserveAspectRatio="xMidYMid meet">
<metadata>
Created by potrace 1.13, written by Peter Selinger 2001-2015
</metadata>
<g transform="translate(0.000000,660.000000) scale(0.100000,-0.100000)"
fill="#000000" stroke="none">
<path d="M2531 4603 c-40 -5 -88 -35 -193 -120 -43 -34 -87 -67 -99 -74 -12
-6 -36 -24 -54 -40 -18 -16 -56 -47 -86 -69 -30 -22 -69 -52 -88 -67 -19 -16
-44 -35 -57 -43 -30 -20 -95 -71 -119 -93 -11 -11 -45 -36 -76 -57 -68 -47
-89 -77 -89 -129 0 -59 43 -101 104 -101 36 0 52 6 79 30 19 17 38 30 41 30 4
0 33 20 64 45 121 97 159 126 222 172 36 27 93 71 126 98 72 59 187 145 216
161 11 7 25 17 31 23 6 6 18 11 25 11 16 0 14 -51 -9 -210 -24 -172 -28 -198
-39 -255 -6 -33 -16 -89 -20 -125 -5 -36 -14 -94 -20 -130 -28 -177 -31 -230
-15 -264 28 -58 105 -76 161 -38 20 13 44 70 44 104 0 18 5 49 10 68 6 19 15
76 21 125 6 50 17 128 26 175 9 47 19 114 23 150 4 36 15 110 24 165 9 55 22
130 28 166 6 37 8 80 4 95 -4 16 -10 41 -13 55 -7 34 -58 92 -105 118 -39 21
-111 32 -167 24z"/>
<path d="M1539 3849 c-8 -5 -22 -9 -32 -9 -10 0 -37 -9 -59 -20 -23 -11 -49
-20 -58 -20 -9 0 -20 -4 -25 -8 -6 -5 -71 -33 -145 -61 -74 -29 -155 -61 -180
-71 -106 -45 -179 -73 -244 -96 -101 -35 -189 -80 -219 -110 -92 -91 -88 -245
8 -333 19 -17 79 -50 132 -72 54 -23 122 -52 151 -65 29 -13 57 -24 63 -24 9
0 77 -27 214 -86 17 -7 50 -20 75 -29 25 -9 54 -21 65 -26 221 -96 266 -110
307 -89 36 19 58 52 58 90 0 60 -26 87 -120 126 -47 20 -94 40 -105 44 -11 5
-38 15 -60 22 -22 7 -65 26 -95 41 -30 16 -80 37 -111 47 -31 11 -112 43 -180
71 -68 28 -133 55 -144 59 -54 20 -100 47 -103 61 -1 8 10 19 25 26 15 6 64
25 108 43 44 18 89 36 100 40 11 5 45 19 75 30 86 34 92 37 142 59 26 12 52
21 58 21 6 0 18 4 28 10 9 5 89 37 177 71 177 69 215 96 215 154 0 57 -83 128
-121 104z"/>
<path d="M7635 3840 c-72 -9 -80 -12 -174 -58 -40 -21 -99 -61 -130 -89 -31
-29 -59 -53 -63 -53 -5 0 -8 33 -8 74 0 104 -5 108 -133 99 -56 -3 -105 -11
-109 -17 -4 -6 -8 -413 -8 -904 l0 -892 24 -10 c23 -8 206 -5 234 5 9 3 12 72
12 300 0 282 1 295 19 295 10 0 26 -11 34 -24 36 -54 178 -127 281 -146 33 -5
100 -10 150 -10 198 0 328 53 466 189 89 89 138 166 175 276 114 340 -42 759
-333 895 -37 17 -75 35 -84 40 -10 6 -28 10 -41 10 -13 0 -27 4 -32 9 -14 13
-208 21 -280 11z m168 -250 c127 -20 256 -119 313 -240 48 -100 51 -111 59
-192 9 -94 -14 -198 -62 -280 -33 -56 -114 -136 -167 -163 -14 -8 -32 -17 -38
-22 -55 -35 -236 -45 -315 -18 -79 28 -141 68 -191 124 -89 102 -122 191 -122
330 0 139 48 257 137 342 111 107 233 144 386 119z"/>
<path d="M9086 3827 c-75 -19 -216 -83 -216 -98 0 -5 -6 -9 -13 -9 -34 0 -189
-186 -225 -271 -57 -135 -66 -179 -67 -324 0 -92 5 -157 14 -190 38 -134 118
-263 216 -353 84 -77 158 -114 321 -163 44 -13 271 -11 313 2 105 34 168 67
222 117 77 70 89 69 89 -10 0 -35 4 -68 8 -75 11 -17 227 -20 247 -3 13 11 15
99 15 669 0 510 -3 661 -12 674 -10 12 -38 18 -114 23 -135 9 -144 4 -144 -81
0 -70 -11 -87 -38 -57 -55 61 -152 122 -244 151 -63 21 -289 19 -372 -2z m406
-279 c118 -56 177 -123 225 -259 22 -61 26 -89 25 -161 -5 -198 -92 -340 -263
-427 -80 -40 -83 -41 -188 -41 -93 0 -117 4 -172 26 -67 27 -118 61 -157 103
-48 53 -93 128 -113 190 -19 56 -21 79 -16 172 5 94 10 116 40 181 60 131 186
235 312 259 22 4 81 6 130 3 79 -4 100 -10 177 -46z"/>
<path d="M5959 3826 c-100 -28 -216 -93 -293 -165 -82 -77 -163 -212 -202
-336 -28 -91 -26 -305 5 -399 68 -209 188 -355 365 -444 137 -70 289 -90 436
-58 81 17 89 20 178 63 102 49 241 187 295 293 48 95 44 99 -100 99 l-105 1
-32 -38 c-91 -107 -154 -152 -256 -178 -157 -40 -349 23 -444 147 -39 50 -96
159 -96 182 0 15 53 17 549 19 302 2 553 7 558 11 4 5 8 59 7 120 -1 208 -61
354 -204 497 -92 92 -151 130 -280 176 -57 21 -82 24 -200 23 -75 0 -155 -6
-181 -13z m354 -260 c85 -41 173 -123 211 -196 29 -56 50 -142 36 -150 -13 -8
-799 -12 -833 -4 -27 6 -29 9 -24 41 19 115 138 261 254 310 129 54 242 54
356 -1z"/>
<path d="M3568 3810 c-20 -12 -23 -41 -8 -68 5 -9 21 -51 35 -92 14 -41 32
-88 39 -105 8 -16 18 -43 24 -60 12 -35 70 -189 83 -222 5 -13 13 -33 18 -45
14 -37 72 -190 83 -223 5 -16 14 -39 18 -50 5 -11 32 -83 60 -160 77 -210 90
-246 109 -295 l17 -45 72 -3 72 -3 14 33 c7 18 19 51 25 73 7 22 16 49 20 60
5 11 22 65 39 120 86 278 154 492 161 510 5 11 13 32 20 48 19 48 33 38 55
-44 9 -30 26 -85 40 -124 13 -38 52 -158 86 -265 111 -352 122 -385 133 -398
7 -9 31 -12 75 -10 61 3 67 5 82 33 9 17 19 41 22 55 3 14 43 124 88 245 45
121 90 243 101 270 10 28 32 88 49 135 87 233 132 357 137 375 3 11 13 38 23
60 10 22 28 71 41 108 20 59 21 70 9 77 -23 15 -246 12 -258 -2 -12 -15 -102
-274 -138 -398 -14 -47 -28 -92 -31 -100 -4 -8 -29 -82 -57 -165 -71 -209 -70
-209 -158 65 -37 118 -82 258 -98 310 -74 235 -91 285 -103 292 -6 4 -46 8
-89 8 l-76 0 -22 -62 c-32 -94 -120 -375 -136 -438 -8 -30 -18 -64 -24 -75
-12 -26 -66 -192 -74 -227 -4 -18 -13 -28 -24 -28 -15 0 -35 50 -106 263 -122
361 -116 343 -148 429 -15 43 -28 86 -28 97 0 11 -8 24 -17 29 -28 15 -235 24
-255 12z"/>
<path d="M10163 3809 c-39 -11 -40 -22 -9 -91 13 -29 27 -64 31 -78 4 -14 20
-52 35 -85 16 -33 42 -98 60 -145 17 -47 40 -104 51 -127 10 -24 19 -45 19
-48 0 -2 11 -28 24 -57 13 -29 52 -123 86 -208 34 -85 72 -180 85 -210 56
-132 105 -267 105 -288 0 -12 -4 -31 -10 -42 -5 -11 -14 -29 -20 -40 -5 -11
-10 -24 -10 -30 0 -5 -13 -39 -30 -75 -16 -36 -30 -68 -30 -70 0 -7 -35 -88
-61 -140 -22 -45 -24 -71 -8 -81 7 -4 66 -7 131 -8 137 -1 131 -5 169 93 24
63 37 94 69 166 13 28 33 77 46 110 12 33 57 143 99 245 70 167 98 236 119
295 18 47 49 118 78 177 4 10 8 22 8 28 0 5 14 40 31 77 17 38 34 77 39 88 4
11 17 41 29 67 12 26 21 52 21 57 0 5 9 26 19 48 26 51 51 110 51 117 0 3 11
29 25 58 14 28 25 56 25 60 0 5 9 28 20 50 42 88 29 98 -126 98 -85 0 -124 -4
-131 -12 -9 -12 -43 -96 -125 -313 -16 -44 -34 -89 -38 -100 -5 -11 -16 -40
-25 -65 -9 -25 -23 -58 -30 -75 -8 -16 -20 -50 -28 -75 -15 -44 -66 -176 -92
-235 -7 -16 -18 -46 -26 -65 -35 -96 -55 -82 -106 70 -8 25 -35 97 -60 160
-25 63 -62 162 -83 220 -61 170 -131 352 -151 397 -10 24 -19 47 -19 51 0 5
-8 16 -18 25 -15 14 -38 17 -113 16 -52 0 -109 -5 -126 -10z"/>
<path d="M2533 3255 c-51 -22 -80 -119 -54 -187 5 -13 18 -81 30 -153 11 -71
28 -161 36 -200 8 -38 21 -122 30 -185 9 -63 20 -131 25 -150 5 -19 12 -62 15
-95 6 -48 4 -63 -8 -74 -13 -10 -34 2 -137 78 -66 50 -123 91 -127 91 -3 0
-22 15 -43 33 -21 17 -68 55 -105 82 -38 28 -91 67 -119 88 -28 20 -62 45 -76
55 -14 9 -59 42 -100 73 -109 81 -157 84 -203 12 l-25 -38 24 -47 c14 -27 28
-48 33 -48 4 0 28 -17 52 -37 24 -21 51 -42 60 -48 47 -30 102 -67 117 -81 16
-14 117 -90 166 -124 12 -8 66 -48 121 -90 55 -41 111 -83 125 -93 14 -9 45
-33 70 -51 25 -19 53 -35 62 -35 9 -1 20 -5 23 -11 3 -5 37 -10 74 -10 57 0
74 4 113 29 81 51 113 120 103 223 -8 96 -21 179 -34 220 -7 21 -11 44 -10 50
2 13 1 25 -33 198 -11 58 -24 128 -29 155 -22 135 -30 184 -36 232 -12 103
-75 165 -140 138z"/>
</g>
</svg>
