<?xml version="1.0" standalone="no"?>
<!DOCTYPE svg PUBLIC "-//W3C//DTD SVG 20010904//EN"
 "http://www.w3.org/TR/2001/REC-SVG-20010904/DTD/svg10.dtd">
<svg version="1.0" xmlns="http://www.w3.org/2000/svg"
 width="1200.000000pt" height="660.000000pt" viewBox="0 0 1200.000000 660.000000"
 preserveAspectRatio="xMidYMid meet">
<metadata>
Created by potrace 1.13, written by Peter Selinger 2001-2015
</metadata>
<g transform="translate(0.000000,660.000000) scale(0.100000,-0.100000)"
fill="#000000" stroke="none">
<path d="M5939 4780 c-5399 -5 -5417 -5 -5440 -25 -38 -32 -49 -47 -75 -101
l-24 -51 2 -1324 3 -1324 22 -41 c12 -22 40 -57 62 -77 l41 -37 5475 0 5475 0
44 40 c28 26 51 59 65 96 l21 56 0 1296 c0 863 -4 1309 -10 1334 -12 42 -62
111 -100 140 -16 12 -45 19 -85 21 -33 1 -2497 0 -5476 -3z m1101 -679 c5 -11
19 -64 30 -118 11 -54 33 -163 50 -243 17 -80 35 -165 40 -190 5 -25 23 -110
40 -190 17 -80 36 -167 42 -195 5 -27 14 -66 18 -85 4 -19 17 -80 29 -135 11
-55 30 -143 42 -195 12 -52 25 -113 29 -135 4 -22 11 -48 15 -58 11 -27 -13
-47 -56 -47 -50 0 -52 6 -89 195 -12 61 -46 223 -80 385 -17 80 -35 165 -40
190 -8 40 -34 163 -61 285 -5 22 -14 63 -19 90 -5 28 -14 68 -19 90 -5 22 -19
87 -31 145 -50 237 -50 230 9 230 30 0 43 -5 51 -19z m247 11 c6 -4 19 -43 28
-87 21 -101 68 -325 90 -430 40 -193 116 -553 125 -590 5 -22 19 -85 30 -140
11 -55 29 -138 40 -185 33 -148 33 -152 19 -161 -21 -13 -75 -11 -87 4 -6 6
-24 80 -41 162 -17 83 -45 215 -61 295 -17 80 -35 165 -40 190 -12 62 -115
543 -151 705 -11 50 -24 110 -29 135 -5 25 -12 53 -15 63 -4 9 -2 24 5 32 13
16 67 20 87 7z m745 -10 c8 -8 15 -53 53 -362 15 -113 35 -268 45 -345 10 -77
22 -164 26 -194 5 -43 8 -51 16 -37 5 10 39 223 75 474 35 251 68 460 71 464
10 10 643 12 651 2 4 -5 36 -211 70 -459 35 -247 65 -458 68 -467 10 -39 21
-13 32 80 6 53 27 219 46 367 19 149 40 313 46 365 14 128 17 132 87 128 l57
-3 5 -600 c6 -677 3 -648 86 -772 l45 -67 -17 -78 -17 -78 -343 0 -344 0 -5
23 c-2 12 -23 159 -45 327 -50 373 -80 587 -86 620 -4 19 -7 21 -14 10 -4 -8
-33 -199 -64 -425 -31 -225 -61 -443 -67 -482 l-12 -73 -112 0 c-61 0 -213 -3
-337 -7 -264 -7 -237 -21 -268 134 -10 54 -33 163 -50 243 -17 80 -35 165 -40
190 -11 59 -97 453 -110 505 -47 195 -110 509 -106 522 6 14 36 15 279 9 149
-4 275 -11 279 -14z m1968 3 c10 -11 11 -135 9 -552 -4 -499 -3 -541 14 -573
43 -88 148 -93 200 -11 22 36 22 39 27 591 l5 555 304 3 c168 1 309 -2 313 -6
14 -14 10 -1156 -4 -1211 -49 -202 -204 -340 -441 -395 -304 -71 -681 -21
-856 113 l-24 18 37 174 c93 432 138 641 156 729 10 52 33 160 50 240 17 80
39 185 49 234 10 48 25 92 32 97 24 15 115 11 129 -6z m-6758 -19 c80 -34 143
-114 136 -173 l-3 -28 -123 -3 c-121 -3 -122 -2 -133 22 -14 29 -48 40 -83 26
-30 -11 -35 -45 -8 -58 9 -5 49 -17 87 -27 157 -38 220 -71 260 -135 20 -32
25 -52 25 -105 0 -140 -85 -219 -263 -246 -84 -12 -207 0 -271 26 -77 32 -136
110 -136 180 l0 35 134 0 134 0 12 -30 c21 -52 104 -54 116 -3 9 33 -9 47 -85
68 -132 38 -195 60 -225 79 -43 29 -76 98 -76 161 1 119 81 200 230 229 51 10
235 -3 272 -18z m-2178 -4 c5 -8 11 -52 37 -261 18 -140 24 -134 49 51 13 95
27 183 31 196 8 21 12 22 148 22 100 0 141 -4 149 -13 6 -7 15 -48 21 -92 16
-119 41 -278 44 -282 2 -2 9 43 16 99 7 57 17 125 22 151 5 26 9 63 9 81 0 52
14 57 146 54 112 -3 119 -4 118 -23 -1 -17 -30 -156 -54 -265 -12 -54 -50
-236 -69 -327 -9 -45 -21 -87 -27 -93 -7 -7 -63 -10 -160 -8 l-149 3 -12 70
c-6 39 -17 108 -23 155 -20 152 -22 160 -31 160 -5 0 -9 -17 -9 -38 0 -21 -4
-63 -9 -93 -5 -30 -15 -92 -21 -139 -18 -134 2 -121 -177 -118 l-156 3 -14 60
c-7 33 -17 80 -23 105 -5 25 -18 89 -29 143 -12 53 -30 141 -41 195 -12 53
-26 116 -32 139 -18 71 -15 73 121 73 66 0 122 -4 125 -8z m1494 -86 c2 -65
-1 -92 -10 -98 -7 -4 -68 -8 -136 -8 l-123 0 3 -27 3 -28 120 -5 120 -5 3 -89
c2 -65 -1 -92 -10 -98 -7 -4 -64 -8 -126 -8 l-113 0 3 -27 3 -28 135 -5 135
-5 0 -95 0 -95 -275 0 -275 0 -3 345 c-1 190 0 351 3 358 3 10 63 12 272 10
l268 -3 3 -89z m1617 -6 l0 -95 -82 -3 -83 -3 0 -247 c0 -180 -3 -251 -12
-260 -13 -13 -232 -18 -262 -6 -14 5 -16 38 -16 260 l0 253 -82 3 -83 3 -3 98
-3 97 313 -2 313 -3 0 -95z m723 6 c2 -65 -1 -92 -10 -98 -7 -4 -64 -8 -126
-7 -117 1 -137 -4 -130 -37 3 -17 16 -20 123 -24 l120 -5 0 -90 0 -90 -120 -5
-120 -5 0 -30 0 -30 115 -2 c171 -4 160 3 160 -102 0 -72 -3 -90 -16 -95 -9
-3 -129 -6 -268 -6 -183 0 -255 3 -264 12 -9 9 -12 99 -12 344 0 183 3 340 6
348 6 15 36 16 273 14 l266 -3 3 -89z m779 66 c49 -25 71 -55 83 -109 15 -65
1 -121 -39 -163 -20 -20 -43 -40 -51 -44 -12 -5 -13 -7 -1 -12 7 -4 27 -18 43
-33 24 -21 31 -38 39 -96 6 -38 17 -104 24 -145 10 -56 10 -77 2 -82 -7 -4
-65 -8 -129 -8 -93 0 -120 3 -132 16 -9 8 -16 18 -16 22 0 7 -16 113 -25 168
-4 23 -14 35 -35 44 -54 23 -59 13 -62 -122 l-3 -123 -115 -3 c-63 -1 -125 0
-137 3 l-23 5 0 349 c0 191 3 351 7 355 4 4 125 6 268 4 248 -3 262 -4 302
-26z m629 20 c7 -4 19 -27 27 -52 9 -25 38 -110 65 -188 27 -79 53 -139 56
-133 4 6 6 89 5 185 -1 96 2 179 5 185 10 16 210 15 224 -2 16 -18 5 -689 -11
-699 -7 -4 -78 -8 -159 -8 -120 0 -149 3 -162 16 -9 8 -16 17 -16 18 0 13
-123 353 -130 360 -7 7 -10 -58 -10 -186 0 -119 -4 -198 -10 -200 -5 -1 -56
-1 -112 2 l-103 5 -3 340 c-1 187 0 346 3 352 3 10 45 13 162 13 87 0 163 -4
169 -8z m-777 -836 c176 -47 274 -224 241 -435 -30 -196 -158 -301 -364 -301
-124 0 -206 31 -272 102 -66 71 -94 151 -94 268 0 185 77 309 223 358 74 25
188 28 266 8z m-2525 -22 c3 -9 6 -121 6 -249 0 -199 2 -236 16 -249 8 -9 24
-16 33 -16 42 0 46 22 51 279 l5 246 140 0 140 0 3 -244 c2 -197 -1 -255 -13
-298 -36 -123 -146 -183 -335 -183 -189 0 -301 71 -329 209 -11 57 -16 478 -5
505 5 14 28 16 144 16 116 0 139 -2 144 -16z m983 -71 c18 -49 47 -132 65
-185 18 -54 36 -98 41 -98 4 0 7 83 7 185 l0 186 118 -3 117 -3 0 -350 0 -350
-171 -3 -171 -2 -20 47 c-10 27 -39 110 -64 185 -24 76 -47 138 -51 138 -4 0
-9 -82 -10 -182 l-3 -183 -115 0 -115 0 -3 340 c-1 187 0 346 3 352 3 10 47
13 173 13 l168 0 31 -87z m856 -160 c10 -361 9 -447 -5 -461 -13 -13 -223 -17
-265 -6 l-23 6 0 347 c0 191 3 351 7 354 3 4 68 7 143 7 l137 0 6 -247z m1493
177 c13 -35 43 -119 66 -186 23 -68 46 -120 50 -118 5 3 8 88 8 190 l0 184
114 0 114 0 7 -242 c3 -134 5 -292 3 -353 l-3 -110 -171 -3 c-201 -3 -169 -30
-248 207 -30 90 -59 168 -66 175 -9 8 -10 -33 -5 -174 3 -102 2 -191 -3 -198
-6 -9 -37 -12 -118 -10 l-109 3 -3 340 c-1 187 0 346 3 353 3 10 43 12 171 10
l167 -3 23 -65z"/>
<path d="M5387 3913 c-4 -3 -7 -30 -7 -60 l0 -53 38 0 c66 0 99 70 50 104 -23
16 -69 21 -81 9z"/>
<path d="M5363 3044 c-22 -34 -31 -226 -14 -284 20 -67 77 -76 108 -17 12 24
16 61 17 149 0 104 -2 121 -20 145 -29 39 -68 42 -91 7z"/>
</g>
</svg>
