<?xml version="1.0" standalone="no"?>
<!DOCTYPE svg PUBLIC "-//W3C//DTD SVG 20010904//EN"
 "http://www.w3.org/TR/2001/REC-SVG-20010904/DTD/svg10.dtd">
<svg version="1.0" xmlns="http://www.w3.org/2000/svg"
 width="1200.000000pt" height="660.000000pt" viewBox="0 0 1200.000000 660.000000"
 preserveAspectRatio="xMidYMid meet">
<metadata>
Created by potrace 1.13, written by Peter Selinger 2001-2015
</metadata>
<g transform="translate(0.000000,660.000000) scale(0.100000,-0.100000)"
fill="#000000" stroke="none">
<path d="M2872 4388 c-14 -14 -17 -314 -4 -336 7 -9 49 -12 178 -10 l169 3 0
175 0 175 -165 3 c-120 2 -169 -1 -178 -10z"/>
<path d="M11201 4386 c-9 -11 -10 -111 -5 -400 4 -212 4 -386 1 -386 -4 0 -34
27 -66 59 -106 106 -281 171 -458 171 -180 -1 -339 -65 -457 -184 -164 -165
-234 -383 -224 -689 10 -268 80 -456 225 -600 144 -142 330 -208 553 -193 187
12 329 82 409 203 34 51 35 51 31 -60 -1 -50 2 -83 10 -92 10 -12 43 -15 166
-15 84 0 155 4 158 9 3 5 6 496 6 1092 0 867 -2 1084 -12 1091 -7 4 -83 8
-169 8 -123 0 -159 -3 -168 -14z m-288 -855 c111 -39 182 -105 237 -223 73
-156 79 -412 14 -578 -25 -63 -77 -143 -120 -184 -148 -140 -398 -139 -545 1
-109 104 -159 244 -159 442 0 287 107 481 299 542 78 25 202 25 274 0z"/>
<path d="M4096 3819 c-120 -28 -268 -146 -323 -257 -17 -33 -34 -58 -37 -55
-3 4 -6 69 -6 145 l0 138 -160 0 c-122 0 -160 -3 -160 -12 1 -7 0 -359 -2
-783 -1 -423 1 -776 5 -782 6 -10 52 -13 173 -13 123 0 164 3 166 13 1 6 2
206 2 442 1 384 3 437 19 494 53 187 165 305 324 342 29 6 84 8 141 4 l92 -7
0 165 c0 162 0 165 -22 171 -33 8 -167 5 -212 -5z"/>
<path d="M4878 3820 c-275 -47 -491 -252 -585 -557 -25 -82 -27 -100 -27 -273
0 -200 13 -280 69 -405 125 -284 406 -442 745 -421 305 19 545 191 635 455 13
38 21 72 17 75 -3 3 -76 6 -162 6 l-158 0 -27 -55 c-32 -66 -99 -135 -157
-162 -156 -73 -361 -49 -482 57 -76 67 -132 191 -138 306 l-3 59 575 5 574 5
9 40 c5 22 6 76 2 120 -30 380 -262 672 -587 739 -81 17 -219 19 -300 6z m304
-308 c113 -56 196 -169 221 -304 9 -50 8 -61 -4 -69 -18 -11 -769 -12 -787 0
-11 6 -10 21 2 78 18 89 46 143 104 205 88 95 172 129 307 125 79 -2 99 -6
157 -35z"/>
<path d="M6485 3824 c-16 -3 -61 -14 -100 -26 -346 -100 -540 -423 -523 -866
6 -152 32 -263 89 -378 115 -234 331 -372 609 -390 241 -16 428 45 571 186
107 106 183 255 204 403 l7 47 -172 -2 -173 -3 -16 -60 c-36 -129 -103 -214
-210 -264 -48 -22 -69 -26 -151 -26 -83 0 -103 4 -157 29 -117 54 -204 174
-239 334 -13 57 -15 108 -12 220 4 126 9 158 32 226 68 198 197 296 393 296
175 0 302 -89 348 -243 l12 -42 172 -3 171 -2 0 34 c0 56 -46 186 -90 253 -23
34 -66 84 -96 111 -54 49 -167 112 -234 131 -19 6 -51 15 -70 21 -36 12 -312
22 -365 14z"/>
<path d="M8040 3821 c-286 -42 -474 -196 -521 -427 -20 -97 -25 -94 165 -94
l164 0 18 58 c41 128 154 192 342 192 125 0 198 -21 257 -72 92 -81 83 -232
-18 -284 -50 -27 -80 -33 -339 -69 -137 -20 -278 -45 -315 -56 -147 -45 -250
-122 -296 -222 -64 -135 -62 -310 4 -439 49 -95 166 -182 304 -224 88 -26 301
-24 410 5 98 26 215 81 271 126 l42 34 28 -57 c37 -73 87 -108 173 -123 66
-12 168 -3 254 21 l37 11 0 119 0 120 -56 0 c-60 0 -87 10 -100 37 -5 10 -11
241 -14 513 l-5 495 -29 62 c-53 116 -175 207 -338 253 -81 24 -336 36 -438
21z m468 -993 c-4 -186 -13 -214 -89 -282 -166 -151 -521 -135 -605 26 -33 64
-7 189 53 244 61 56 115 73 357 109 88 13 184 32 211 43 82 33 78 42 73 -140z"/>
<path d="M9826 3819 c-118 -28 -264 -144 -325 -258 -17 -33 -34 -61 -37 -61
-3 0 -5 60 -4 133 1 72 1 138 1 145 -1 9 -40 12 -161 12 -88 0 -160 -3 -160
-7 -4 -198 1 -1566 5 -1573 7 -12 314 -14 333 -2 10 7 12 96 10 438 -3 385 -1
436 15 494 68 252 231 375 473 355 l84 -7 0 165 c0 141 -2 166 -16 171 -23 9
-173 5 -218 -5z"/>
<path d="M453 3794 c-18 -8 -16 -23 11 -106 12 -40 31 -98 40 -128 10 -30 31
-98 48 -150 16 -52 38 -122 48 -155 10 -33 66 -215 125 -405 126 -410 160
-520 176 -580 20 -73 12 -71 212 -68 l181 3 8 30 c4 17 33 134 63 260 89 378
206 849 215 865 6 10 11 3 19 -25 17 -67 186 -749 231 -935 23 -96 47 -181 52
-187 8 -10 56 -13 179 -13 l169 0 15 33 c8 17 59 182 115 364 103 342 340
1096 359 1146 6 16 9 33 5 38 -7 12 -341 12 -348 0 -4 -5 -49 -168 -100 -363
-52 -194 -121 -451 -153 -570 -32 -120 -63 -218 -69 -218 -10 0 -74 255 -210
840 -35 151 -66 285 -69 298 -5 22 -6 22 -182 20 l-176 -3 -13 -40 c-6 -22
-72 -284 -145 -582 -82 -334 -137 -539 -142 -534 -9 9 -109 385 -236 891 -34
135 -64 251 -66 258 -3 9 -44 12 -157 12 -84 0 -162 2 -173 5 -11 2 -26 2 -32
-1z"/>
<path d="M2875 3768 c-3 -7 -4 -362 -3 -788 l3 -775 164 -3 c100 -1 167 1 171
7 3 6 4 360 3 788 l-4 778 -164 3 c-127 2 -167 0 -170 -10z"/>
</g>
</svg>
