<?xml version="1.0" standalone="no"?>
<!DOCTYPE svg PUBLIC "-//W3C//DTD SVG 20010904//EN"
 "http://www.w3.org/TR/2001/REC-SVG-20010904/DTD/svg10.dtd">
<svg version="1.0" xmlns="http://www.w3.org/2000/svg"
 width="1200.000000pt" height="660.000000pt" viewBox="0 0 1200.000000 660.000000"
 preserveAspectRatio="xMidYMid meet">
<metadata>
Created by potrace 1.13, written by Peter Selinger 2001-2015
</metadata>
<g transform="translate(0.000000,660.000000) scale(0.100000,-0.100000)"
fill="#000000" stroke="none">
<path d="M5348 4553 c-12 -16 -14 -143 -12 -956 2 -721 5 -941 14 -952 16 -20
289 -22 308 -3 9 9 12 235 12 954 0 844 -2 944 -16 958 -12 13 -41 16 -153 16
-119 0 -140 -2 -153 -17z"/>
<path d="M6826 4551 c-16 -18 -18 -44 -15 -298 l3 -278 -24 2 c-14 1 -76 7
-137 14 -254 28 -447 -42 -571 -206 -140 -187 -185 -494 -111 -765 56 -206
200 -351 404 -406 130 -35 350 -28 530 17 98 24 210 66 225 83 7 10 12 282 15
917 5 829 4 904 -12 921 -14 16 -33 18 -153 18 -123 0 -139 -2 -154 -19z
m-119 -852 c125 -17 113 26 113 -403 0 -295 -3 -376 -13 -384 -21 -18 -156
-35 -234 -30 -135 9 -214 67 -264 197 -20 49 -23 76 -23 206 -1 133 2 158 23
220 43 126 147 202 278 204 23 1 77 -4 120 -10z"/>
<path d="M3153 3980 c-217 -56 -394 -225 -469 -446 -136 -405 80 -825 474
-924 318 -81 650 88 780 397 76 180 69 426 -17 608 -135 287 -464 443 -768
365z m290 -298 c65 -29 141 -104 176 -174 99 -198 45 -460 -117 -568 -184
-122 -417 -40 -503 177 -20 49 -23 77 -24 178 0 115 1 123 33 190 41 87 69
123 121 160 97 67 215 81 314 37z"/>
<path d="M4601 3984 c-176 -39 -279 -132 -328 -300 -14 -51 -17 -122 -21 -542
-2 -364 0 -487 9 -498 9 -11 43 -14 160 -14 136 0 149 2 159 19 6 13 10 177
10 466 0 487 0 488 58 537 54 45 91 52 253 45 111 -5 149 -4 157 6 12 14 62
200 62 228 0 25 -31 37 -150 55 -118 17 -284 17 -369 -2z"/>
<path d="M7815 3984 c-156 -24 -321 -78 -352 -116 -8 -9 -12 -276 -14 -917 -2
-872 -2 -904 16 -917 23 -17 266 -20 296 -4 18 10 19 24 19 301 l0 291 38 -7
c298 -57 508 -11 655 144 112 119 173 280 184 487 18 333 -95 571 -322 685
-135 67 -312 85 -520 53z m323 -304 c64 -28 121 -89 145 -156 41 -116 44 -298
6 -424 -27 -91 -74 -151 -146 -186 -52 -26 -68 -29 -153 -28 -52 0 -121 6
-153 13 l-57 12 2 387 3 387 60 12 c94 19 230 11 293 -17z"/>
<path d="M9232 3984 c-124 -18 -223 -43 -244 -62 -10 -8 -18 -28 -18 -43 0
-35 38 -179 52 -196 15 -18 54 -16 144 8 52 13 127 22 216 26 157 7 212 -6
248 -57 25 -36 44 -128 30 -145 -8 -9 -67 -14 -208 -17 -183 -4 -203 -6 -277
-32 -144 -49 -243 -134 -287 -244 -19 -48 -23 -76 -23 -177 0 -105 3 -128 25
-184 47 -122 152 -207 305 -247 105 -28 382 -26 523 5 116 24 219 62 251 92
21 20 21 23 21 472 0 375 -3 463 -15 512 -56 215 -215 307 -528 304 -67 -1
-164 -7 -215 -15z m431 -909 c-2 -93 -5 -175 -7 -181 -11 -28 -260 -45 -338
-24 -44 13 -93 52 -113 91 -24 45 -20 149 8 189 56 83 110 100 302 97 l150 -2
-2 -170z"/>
<path d="M449 3941 c-24 -19 -24 -20 -6 -50 20 -35 125 -350 287 -861 34 -107
70 -222 81 -256 20 -63 60 -110 112 -132 15 -7 69 -12 119 -12 102 0 156 19
194 68 19 24 165 495 227 734 14 55 24 75 33 71 8 -3 14 -12 14 -20 0 -8 24
-96 54 -196 30 -100 78 -263 106 -362 28 -99 62 -196 75 -216 37 -56 94 -79
198 -79 151 0 196 34 245 187 16 54 56 179 87 278 31 99 103 325 161 501 57
177 104 324 104 327 0 3 -7 13 -16 21 -13 13 -42 16 -164 16 -144 0 -150 -1
-164 -22 -8 -13 -18 -36 -22 -53 -3 -16 -52 -192 -107 -390 -55 -198 -105
-379 -110 -403 -6 -23 -15 -41 -20 -39 -11 3 -13 9 -148 482 -62 217 -99 330
-116 353 -38 51 -90 72 -178 72 -88 0 -127 -14 -172 -61 -28 -30 -43 -76 -138
-404 -59 -203 -112 -387 -117 -407 -6 -21 -14 -38 -18 -38 -4 0 -14 26 -22 58
-12 46 -135 487 -214 772 -9 30 -21 61 -26 68 -8 9 -53 12 -163 12 -136 0
-155 -2 -176 -19z"/>
<path d="M10172 3948 c-7 -7 -12 -19 -12 -27 0 -8 59 -161 131 -340 205 -507
379 -954 379 -971 0 -8 -47 -133 -105 -278 -58 -144 -105 -266 -105 -271 0 -5
7 -17 16 -25 12 -13 41 -16 150 -16 75 0 143 4 153 10 10 5 28 35 41 67 21 56
29 76 49 126 5 12 132 330 282 707 150 377 285 713 301 748 15 34 28 67 28 72
0 6 5 18 10 28 6 9 19 37 30 62 11 25 25 53 32 62 10 14 9 21 -6 37 -18 19
-30 21 -171 21 -132 0 -154 -2 -167 -17 -8 -10 -33 -67 -56 -128 -167 -453
-297 -795 -303 -795 -3 0 -82 201 -174 448 -92 246 -173 457 -181 470 -14 21
-20 22 -162 22 -102 0 -152 -4 -160 -12z"/>
</g>
</svg>
