<?xml version="1.0" standalone="no"?>
<!DOCTYPE svg PUBLIC "-//W3C//DTD SVG 20010904//EN"
 "http://www.w3.org/TR/2001/REC-SVG-20010904/DTD/svg10.dtd">
<svg version="1.0" xmlns="http://www.w3.org/2000/svg"
 width="1200.000000pt" height="660.000000pt" viewBox="0 0 1200.000000 660.000000"
 preserveAspectRatio="xMidYMid meet">
<metadata>
Created by potrace 1.13, written by Peter Selinger 2001-2015
</metadata>
<g transform="translate(0.000000,660.000000) scale(0.100000,-0.100000)"
fill="#000000" stroke="none">
<path d="M10900 4639 c-19 -17 -51 -43 -70 -57 -19 -15 -55 -44 -80 -67 -25
-22 -108 -89 -185 -150 -76 -60 -211 -167 -299 -237 -89 -71 -224 -176 -301
-234 -261 -197 -372 -302 -430 -404 -19 -34 -20 -56 -23 -727 -2 -628 -1 -696
14 -725 22 -44 81 -96 124 -108 24 -7 349 -10 990 -8 l955 3 0 810 0 810 -157
3 c-157 2 -158 2 -162 -20 -3 -13 -7 -225 -9 -472 -3 -405 -5 -450 -20 -461
-20 -14 -1341 -455 -1364 -455 -10 0 12 21 47 47 194 141 302 219 365 264 39
27 100 70 137 96 36 27 147 105 245 174 98 69 197 138 219 155 41 29 41 30 48
104 3 41 9 438 12 883 8 891 12 836 -56 776z m-249 -998 c24 -25 29 -37 29
-81 0 -63 -18 -106 -66 -159 -36 -40 -124 -91 -157 -91 -55 0 -117 63 -117
118 0 46 35 123 74 164 52 55 99 77 159 78 40 0 53 -5 78 -29z"/>
<path d="M1102 3808 c-7 -7 -12 -18 -12 -25 0 -7 -4 -21 -10 -31 -15 -28 -49
-133 -61 -192 -11 -55 -20 -83 -103 -325 -24 -71 -49 -150 -56 -174 -27 -103
-29 -104 -56 -21 -14 41 -33 93 -44 115 -10 22 -24 58 -30 80 -12 41 -16 53
-43 115 -9 19 -19 49 -23 65 -4 17 -10 35 -14 40 -9 13 -38 111 -46 157 -10
60 -35 78 -108 78 -42 0 -67 -5 -75 -14 -13 -16 -5 -87 14 -126 18 -35 32 -68
54 -125 25 -67 89 -223 107 -260 7 -16 18 -50 23 -75 6 -25 34 -99 63 -165
l53 -120 5 -287 c3 -157 9 -290 13 -294 11 -12 109 -13 130 -2 16 8 17 32 17
277 0 281 1 289 50 406 41 98 59 149 65 187 4 24 15 61 25 83 9 22 25 60 35
85 10 25 27 64 37 86 9 23 25 63 34 90 9 27 27 72 40 101 14 29 27 67 30 85 6
37 19 77 40 125 8 17 14 40 14 52 0 20 -5 21 -78 21 -47 0 -83 -5 -90 -12z"/>
<path d="M3033 3683 c-10 -3 -13 -62 -13 -243 0 -145 -4 -241 -10 -245 -5 -3
-19 -1 -31 6 -12 6 -50 12 -83 12 -51 1 -72 -4 -130 -33 -82 -42 -103 -68
-143 -180 -51 -142 -67 -319 -42 -469 20 -122 49 -189 109 -254 85 -93 192
-106 303 -37 48 30 52 31 64 14 7 -10 13 -21 13 -26 0 -4 20 -8 45 -8 36 0 45
3 44 18 0 9 2 335 5 723 3 517 2 709 -7 718 -11 11 -100 14 -124 4z m-63 -605
l45 -23 3 -345 c3 -398 10 -370 -99 -370 -84 0 -111 19 -151 108 -35 76 -47
200 -36 352 8 110 44 203 101 264 41 43 73 46 137 14z"/>
<path d="M1385 3214 c-151 -35 -186 -54 -166 -93 6 -11 11 -28 11 -39 0 -10 9
-27 19 -37 19 -16 21 -16 48 2 15 11 50 28 76 38 47 18 50 18 83 0 43 -23 70
-81 79 -174 7 -70 6 -74 -11 -67 -83 32 -184 30 -241 -5 -45 -28 -108 -125
-128 -198 -23 -81 -17 -207 14 -271 35 -73 86 -135 126 -155 76 -36 174 -15
234 49 14 14 27 26 31 26 3 0 14 -16 23 -35 15 -31 21 -35 56 -35 22 0 41 5
44 13 8 23 -4 712 -14 768 -16 94 -49 151 -106 182 -48 26 -135 41 -178 31z
m129 -488 l26 -16 0 -170 0 -169 -30 -16 c-16 -8 -54 -15 -84 -15 -48 0 -57 3
-80 30 -69 83 -60 291 16 355 27 23 39 26 79 23 27 -3 59 -12 73 -22z"/>
<path d="M2175 3201 c-16 -5 -54 -18 -83 -30 -49 -20 -53 -20 -59 -3 -10 27
-24 32 -84 32 -36 0 -61 -5 -68 -14 -8 -9 -10 -146 -9 -487 l3 -474 75 0 75 0
5 415 5 415 40 13 c51 17 140 11 163 -12 15 -15 18 -58 22 -424 l5 -407 72 -3
c61 -2 73 0 80 15 4 10 6 208 3 440 -5 409 -6 422 -26 450 -41 54 -151 91
-219 74z"/>
<path d="M3524 3193 c-76 -44 -114 -92 -155 -198 -66 -174 -76 -386 -25 -539
35 -103 117 -205 191 -237 69 -30 178 -23 261 17 65 32 78 57 50 99 -14 21
-19 22 -53 14 -132 -30 -234 7 -284 103 -22 44 -45 174 -36 209 l6 24 193 0
193 0 3 75 c11 280 -87 450 -260 450 -32 0 -65 -7 -84 -17z m124 -113 c27 -29
62 -158 62 -229 l0 -60 -115 -3 -115 -3 0 41 c0 107 37 214 86 253 34 26 58
27 82 1z"/>
<path d="M3984 3185 c-3 -8 9 -45 26 -82 48 -102 57 -124 70 -168 7 -22 16
-44 19 -50 4 -5 20 -40 35 -77 30 -73 30 -76 -14 -174 -16 -33 -35 -83 -43
-110 -8 -27 -38 -100 -67 -162 -28 -62 -49 -120 -46 -128 4 -12 20 -14 68 -12
55 3 64 6 74 28 27 55 64 150 92 233 17 49 33 91 36 95 10 10 25 -18 31 -58 7
-43 26 -111 35 -125 4 -5 17 -37 30 -70 41 -105 43 -106 119 -103 77 3 77 5
41 103 -22 61 -31 83 -81 190 -64 140 -89 198 -89 207 0 9 70 163 93 203 30
54 67 137 67 150 0 8 9 35 21 60 11 24 18 49 14 55 -7 11 -104 14 -122 2 -19
-12 -58 -99 -94 -209 -19 -56 -36 -102 -39 -103 -3 0 -27 55 -53 123 -53 133
-75 178 -91 189 -6 4 -37 8 -69 8 -41 0 -59 -4 -63 -15z"/>
<path d="M4985 3168 c-3 -7 -4 -229 -3 -493 l3 -480 65 0 65 0 3 388 c2 335 4
387 17 387 8 0 15 -6 15 -13 0 -24 41 -140 75 -212 46 -97 85 -196 85 -213 0
-8 14 -44 30 -79 17 -34 30 -68 30 -73 0 -6 20 -10 44 -10 l43 0 45 108 c25
59 51 125 58 147 14 46 59 153 101 240 16 33 29 68 29 77 0 10 4 18 10 18 6 0
11 -139 12 -382 l3 -383 65 0 65 0 0 490 0 490 -89 0 c-102 0 -97 4 -146 -120
-13 -33 -29 -69 -36 -80 -7 -11 -15 -40 -19 -65 -4 -25 -11 -49 -15 -55 -13
-15 -100 -223 -100 -237 0 -7 -4 -20 -10 -28 -11 -17 -84 134 -125 261 -24 75
-38 110 -105 254 -10 22 -20 48 -24 58 -5 14 -19 17 -96 17 -63 0 -92 -4 -95
-12z"/>
<path d="M6292 2858 c-95 -13 -183 -82 -222 -174 -71 -165 -27 -371 99 -458
37 -26 125 -47 201 -49 40 0 170 22 191 33 10 6 44 44 74 84 55 72 70 111 82
212 8 69 -30 176 -89 250 -55 68 -90 90 -159 99 -88 12 -115 12 -177 3z m192
-136 c58 -39 88 -106 89 -196 0 -89 -25 -150 -79 -193 -81 -63 -124 -68 -211
-26 -47 23 -60 35 -76 73 -52 116 -52 160 -5 276 18 44 27 55 67 73 25 11 55
22 66 25 40 9 111 -6 149 -32z"/>
<path d="M7118 2856 c-32 -7 -68 -22 -81 -34 -28 -27 -47 -28 -47 -4 0 10 -5
23 -12 30 -16 16 -93 15 -107 -2 -8 -9 -11 -105 -9 -332 l3 -319 60 0 60 0 5
227 c5 225 5 227 30 253 39 43 116 75 176 75 45 0 56 -4 73 -26 20 -25 21 -39
21 -268 0 -132 4 -247 9 -254 5 -9 25 -12 62 -10 l54 3 3 244 c2 224 1 250
-18 306 -26 79 -50 101 -124 114 -72 13 -84 13 -158 -3z"/>
<path d="M7825 2861 c-102 -13 -174 -83 -222 -217 -21 -59 -24 -185 -5 -234
48 -122 89 -177 157 -205 48 -21 160 -34 202 -25 21 5 59 12 84 15 51 6 114
47 125 79 5 15 -1 26 -22 43 -35 27 -54 29 -97 6 -89 -48 -145 -54 -210 -23
-61 30 -70 39 -95 99 -40 97 -54 90 206 93 l227 3 -1 86 c-1 58 -8 98 -19 122
-20 44 -106 134 -137 146 -35 13 -137 19 -193 12z m160 -134 c31 -17 41 -30
48 -60 16 -67 15 -67 -153 -67 -169 0 -165 -2 -130 75 37 82 139 104 235 52z"/>
<path d="M8273 2845 c-9 -25 16 -102 75 -225 53 -114 67 -147 92 -225 7 -22
21 -52 31 -67 11 -14 19 -31 19 -38 0 -6 7 -25 16 -41 14 -28 14 -35 -3 -82
-39 -113 -72 -144 -154 -149 l-54 -3 0 -50 0 -50 79 -3 c46 -2 93 2 110 9 36
14 76 48 76 64 0 6 14 38 30 70 17 32 30 62 30 67 0 4 8 27 19 51 24 54 36 89
51 157 7 30 17 62 21 70 4 8 18 42 30 75 31 84 35 95 53 137 9 20 16 45 16 55
0 11 12 52 26 92 14 39 23 78 20 86 -7 19 -86 20 -108 3 -18 -15 -62 -126 -72
-183 -10 -53 -89 -265 -97 -259 -4 2 -14 27 -24 56 -9 29 -34 89 -55 133 -65
138 -80 174 -80 191 0 19 -19 56 -34 66 -22 15 -106 9 -113 -7z"/>
</g>
</svg>
