<?xml version="1.0" standalone="no"?>
<!DOCTYPE svg PUBLIC "-//W3C//DTD SVG 20010904//EN"
 "http://www.w3.org/TR/2001/REC-SVG-20010904/DTD/svg10.dtd">
<svg version="1.0" xmlns="http://www.w3.org/2000/svg"
 width="1200.000000pt" height="660.000000pt" viewBox="0 0 1200.000000 660.000000"
 preserveAspectRatio="xMidYMid meet">
<metadata>
Created by potrace 1.13, written by Peter Selinger 2001-2015
</metadata>
<g transform="translate(0.000000,660.000000) scale(0.100000,-0.100000)"
fill="#000000" stroke="none">
<path d="M860 5254 c-112 -29 -199 -81 -290 -173 -91 -91 -132 -159 -167 -276
-17 -56 -18 -153 -21 -1465 -2 -927 1 -1432 7 -1483 32 -237 208 -449 431
-518 64 -20 89 -20 1555 -20 l1490 -1 67 25 c242 88 407 300 425 547 l6 75
-144 59 c-79 32 -168 69 -197 82 -29 13 -55 24 -57 24 -3 0 -24 9 -48 19 -23
10 -82 36 -132 56 -154 64 -190 79 -278 119 -32 14 -60 26 -62 26 -3 0 -35 14
-72 31 -143 65 -174 79 -178 79 -2 0 -36 15 -77 34 -144 67 -254 117 -283 131
-29 13 -29 13 -90 -53 -240 -264 -480 -437 -755 -541 -189 -71 -482 -98 -680
-61 -260 47 -471 195 -576 402 -165 326 -2 768 341 922 22 10 52 24 67 31 15
7 51 18 80 25 29 7 61 16 71 22 50 26 381 19 542 -11 111 -21 252 -50 290 -60
210 -53 324 -86 444 -127 40 -14 79 -23 86 -20 35 13 225 476 211 513 -5 12
-103 13 -767 7 -649 -6 -762 -5 -770 7 -14 22 -11 156 4 166 6 4 188 8 402 8
l390 0 3 127 3 128 -488 2 -488 3 -3 83 c-2 68 0 83 13 88 9 4 228 7 488 8
l472 1 0 208 0 209 28 24 c29 24 29 24 235 22 l207 -3 3 -232 2 -233 478 -2
477 -3 0 -85 0 -85 -477 -3 -478 -2 0 -130 0 -130 390 0 390 0 0 -35 c0 -19
-4 -43 -9 -53 -5 -9 -19 -51 -31 -92 -34 -117 -48 -156 -96 -274 -45 -109
-156 -339 -177 -364 -6 -8 -7 -16 -1 -22 5 -5 86 -36 179 -70 94 -34 179 -65
190 -70 202 -82 838 -279 903 -280 l23 0 -3 1083 -3 1082 -27 80 c-70 206
-248 372 -450 420 -93 22 -2934 21 -3018 -1z"/>
<path d="M5858 5004 c-15 -8 -32 -23 -38 -34 -5 -10 -10 -75 -10 -144 0 -94
-3 -126 -12 -126 -7 0 -186 -2 -398 -3 l-385 -2 -3 -82 -3 -83 401 0 400 0 0
-120 0 -120 -337 -2 -338 -3 0 -75 0 -75 665 -3 c397 -1 668 -6 674 -12 18
-18 -79 -202 -171 -323 -56 -73 -196 -220 -236 -249 l-28 -20 -72 58 c-99 79
-265 248 -322 328 l-47 66 -179 0 c-125 0 -179 -3 -179 -11 0 -18 90 -148 166
-239 81 -98 226 -236 325 -312 38 -29 69 -57 69 -63 0 -13 -155 -100 -310
-173 -107 -51 -305 -128 -445 -172 -22 -7 -43 -18 -47 -24 -4 -6 -8 -48 -8
-94 0 -63 3 -84 14 -88 32 -12 370 89 581 174 136 55 299 132 386 182 l71 42
157 -80 c86 -44 210 -103 276 -130 217 -91 580 -203 605 -187 12 7 13 155 2
173 -5 7 -33 21 -63 31 -30 11 -88 34 -129 51 -41 17 -93 38 -115 47 -118 49
-467 232 -479 252 -3 4 20 27 50 50 84 66 230 208 294 286 118 145 228 338
279 492 38 113 71 102 -321 105 l-343 3 -3 117 -3 118 403 2 403 3 0 80 0 80
-390 1 c-214 1 -396 2 -403 3 -11 1 -13 32 -11 152 3 124 1 152 -11 159 -8 6
-91 10 -185 9 -131 0 -176 -3 -197 -15z"/>
<path d="M10365 4998 c-3 -13 -4 -59 -3 -103 l3 -80 -380 -5 -380 -5 -3 -170
c-1 -93 0 -180 3 -192 5 -23 6 -23 204 -23 172 0 200 2 205 16 3 9 6 60 6 115
l0 99 563 -2 562 -3 3 -112 3 -113 204 0 205 0 0 160 0 160 -29 32 -29 33
-351 3 -350 3 -3 102 -3 102 -212 3 -213 2 -5 -22z"/>
<path d="M7520 4935 c-17 -36 -30 -67 -30 -70 0 -4 -201 -488 -291 -698 -32
-76 -59 -143 -59 -148 0 -4 69 -10 153 -11 l152 -3 5 -585 5 -585 175 0 175 0
0 775 0 775 -50 3 c-27 2 -54 7 -59 12 -7 7 77 207 211 498 18 39 33 79 33 87
0 13 -29 15 -195 15 l-195 0 -30 -65z"/>
<path d="M8847 4974 c-4 -4 -7 -90 -7 -191 l0 -183 -442 -2 -443 -3 0 -75 0
-75 445 -5 445 -5 3 -305 c4 -387 -8 -1063 -19 -1081 -6 -10 -40 -15 -116 -19
l-108 -5 0 -80 0 -80 262 0 262 0 36 35 c20 19 40 52 46 74 7 27 9 260 5 740
-3 386 -2 706 2 713 4 7 36 13 72 15 l65 3 0 75 0 75 -67 3 -68 3 -2 187 -3
187 -181 3 c-99 1 -183 -1 -187 -4z"/>
<path d="M9604 4276 c-3 -7 -4 -42 -2 -77 l3 -64 390 -5 390 -5 3 -142 c2
-110 0 -143 -10 -144 -7 -1 -179 0 -383 0 -203 1 -376 -2 -383 -7 -9 -6 -12
-30 -10 -78 l3 -69 390 -5 390 -5 3 -295 c1 -162 0 -305 -3 -317 l-5 -23 -388
-2 -387 -3 0 -75 0 -75 994 -3 c547 -1 998 1 1003 6 4 4 -1 37 -11 72 -77 262
-115 378 -131 393 -20 21 -23 22 -227 19 -124 -2 -153 -5 -153 -16 0 -8 18
-77 40 -153 22 -76 40 -144 40 -150 0 -10 -45 -13 -190 -13 l-190 0 2 318 3
317 385 0 385 0 0 80 0 80 -375 2 c-206 1 -381 2 -387 3 -10 0 -13 36 -13 145
l0 145 390 0 390 0 0 80 0 80 -975 0 c-812 0 -977 -2 -981 -14z"/>
<path d="M8078 4225 c-3 -3 40 -146 94 -318 54 -171 105 -336 114 -364 l15
-53 180 0 c143 0 179 3 179 13 0 8 -22 83 -49 168 -27 85 -77 241 -110 346
-44 138 -67 195 -81 203 -19 10 -332 15 -342 5z"/>
<path d="M1235 3088 c-238 -57 -387 -196 -402 -376 -17 -199 105 -351 352
-441 84 -30 314 -41 431 -20 230 41 446 169 677 400 81 81 147 153 147 159 0
14 -182 100 -335 159 -60 24 -119 47 -130 51 -44 19 -166 51 -262 70 -136 27
-362 26 -478 -2z"/>
<path d="M7716 2522 c-15 -3 -16 -44 -16 -458 l0 -454 90 0 90 0 0 450 c0 385
-2 451 -15 456 -16 7 -124 11 -149 6z"/>
<path d="M11337 2523 c-69 -3 -79 -6 -86 -26 -5 -12 -29 -65 -53 -117 -24 -52
-57 -123 -73 -157 -16 -35 -31 -63 -34 -63 -4 0 -13 15 -20 33 -18 40 -128
274 -143 305 -10 20 -18 22 -98 22 -48 0 -89 -3 -93 -6 -3 -3 2 -20 12 -37 10
-18 70 -136 134 -262 l117 -230 0 -188 0 -187 90 0 90 0 0 189 c0 190 0 190
29 243 136 254 238 467 228 477 -6 6 -13 10 -16 9 -4 -1 -41 -4 -84 -5z"/>
<path d="M5554 2503 c-6 -19 -9 -26 -94 -258 -28 -77 -60 -162 -70 -190 -10
-27 -32 -86 -48 -130 -63 -165 -112 -300 -112 -308 0 -4 41 -6 92 -5 l92 3 27
78 c14 43 30 82 36 88 6 6 73 8 164 7 l154 -3 29 -87 29 -88 87 0 c48 0 89 3
93 6 3 3 1 18 -5 32 -18 47 -26 66 -48 127 -12 33 -26 69 -30 80 -4 11 -18 47
-30 80 -12 33 -26 69 -30 80 -4 11 -17 46 -29 78 -34 93 -57 155 -108 292
l-48 130 -73 3 c-62 2 -73 0 -78 -15z m141 -412 c26 -80 49 -151 52 -158 4
-10 -20 -13 -112 -13 -107 0 -117 1 -110 18 3 9 27 78 52 152 43 126 64 174
69 154 1 -5 23 -74 49 -153z"/>
<path d="M6555 2508 c-3 -7 -4 -211 -3 -453 l3 -440 283 -3 282 -2 0 64 c0 49
-4 65 -16 70 -9 3 -94 6 -190 6 l-174 0 -2 353 c-1 193 -2 366 -2 382 l-1 30
-88 3 c-64 2 -89 -1 -92 -10z"/>
<path d="M8525 2508 c-3 -7 -4 -211 -3 -453 l3 -440 88 -3 87 -3 0 171 0 170
100 0 c169 0 253 29 323 110 42 50 57 98 57 187 0 56 -5 80 -27 124 -33 63
-104 122 -169 138 -63 16 -453 15 -459 -1z m416 -141 c86 -58 89 -189 6 -251
-23 -17 -46 -21 -138 -24 l-109 -4 0 151 0 151 104 0 c91 0 107 -3 137 -23z"/>
<path d="M9891 2503 c-5 -10 -26 -63 -46 -118 -20 -55 -59 -161 -87 -235 -27
-74 -59 -160 -70 -190 -11 -30 -24 -64 -28 -75 -4 -11 -13 -36 -20 -55 -7 -19
-16 -45 -21 -57 -5 -13 -13 -33 -18 -45 -5 -13 -14 -36 -20 -51 -25 -62 -20
-67 73 -67 57 0 87 4 93 13 4 6 19 46 33 87 l26 75 160 3 160 2 30 -87 29 -88
90 0 c105 0 102 -7 55 118 -17 42 -43 113 -60 157 -16 44 -43 115 -59 158 -16
42 -53 140 -81 217 -28 77 -61 166 -73 198 l-22 57 -67 0 c-54 0 -69 -3 -77
-17z m138 -417 c28 -82 51 -153 51 -158 0 -4 -49 -8 -110 -8 -79 0 -110 3
-110 12 0 26 104 318 111 311 4 -5 30 -75 58 -157z"/>
</g>
</svg>
