<?xml version="1.0" standalone="no"?>
<!DOCTYPE svg PUBLIC "-//W3C//DTD SVG 20010904//EN"
 "http://www.w3.org/TR/2001/REC-SVG-20010904/DTD/svg10.dtd">
<svg version="1.0" xmlns="http://www.w3.org/2000/svg"
 width="1200.000000pt" height="660.000000pt" viewBox="0 0 1200.000000 660.000000"
 preserveAspectRatio="xMidYMid meet">
<metadata>
Created by potrace 1.13, written by Peter Selinger 2001-2015
</metadata>
<g transform="translate(0.000000,660.000000) scale(0.100000,-0.100000)"
fill="#000000" stroke="none">
<path d="M910 4709 c-158 -22 -302 -140 -360 -296 -21 -56 -21 -65 -23 -1112
-2 -1146 -5 -1078 50 -1184 45 -89 148 -178 253 -218 55 -21 57 -22 1110 -21
1041 0 1056 0 1108 20 159 62 271 191 302 348 19 97 14 113 -50 145 -30 16
-61 28 -67 29 -7 0 -36 11 -65 24 -29 13 -116 50 -193 81 -77 32 -173 73 -213
91 -41 19 -76 34 -79 34 -3 0 -31 12 -62 26 -83 38 -130 60 -186 84 -27 12
-78 35 -112 51 -34 16 -64 29 -67 29 -3 0 -47 -43 -97 -95 -203 -210 -427
-336 -674 -380 -75 -13 -237 -6 -319 14 -177 44 -299 136 -369 280 -42 85 -42
87 -42 196 0 78 5 123 17 155 75 205 239 326 487 360 84 11 123 9 291 -16 126
-20 369 -80 480 -119 54 -19 106 -35 113 -35 6 0 61 110 97 195 28 64 59 168
54 177 -4 7 -182 9 -538 7 -292 -2 -537 0 -543 4 -15 10 -17 85 -3 107 8 13
50 15 282 15 l273 0 0 90 0 90 -335 5 -335 5 -3 53 c-2 37 1 54 11 58 7 2 159
6 338 7 l324 2 5 140 c3 77 9 148 14 158 14 30 50 37 181 37 88 0 126 -4 132
-12 4 -7 10 -83 13 -168 l5 -155 330 -5 330 -5 0 -55 0 -55 -333 -3 -333 -2 3
-93 3 -92 265 -3 c145 -1 269 -7 274 -12 8 -8 -18 -112 -44 -175 -5 -11 -11
-29 -14 -40 -12 -48 -41 -118 -96 -232 -33 -67 -61 -127 -62 -134 -3 -10 60
-38 152 -69 14 -4 63 -22 110 -40 47 -17 110 -39 140 -49 30 -11 66 -23 80
-29 32 -13 266 -86 347 -108 34 -9 68 -14 77 -11 14 6 16 80 16 746 0 486 -4
758 -11 793 -32 159 -135 281 -292 345 l-62 25 -1020 2 c-561 0 -1040 -2
-1065 -5z"/>
<path d="M6315 4261 c-70 -32 -105 -86 -105 -162 0 -181 277 -232 361 -67 75
146 -98 300 -256 229z"/>
<path d="M4501 4163 c-17 -21 -31 -40 -31 -44 0 -4 -36 -82 -81 -175 -45 -93
-96 -200 -114 -239 -35 -76 -135 -281 -305 -630 -199 -408 -218 -449 -214
-460 4 -10 232 -12 259 -1 7 2 19 17 27 33 8 15 36 69 62 120 25 50 53 94 62
97 9 3 173 6 364 6 267 0 352 -3 361 -12 6 -7 37 -65 68 -128 l56 -115 191 -3
c157 -2 193 0 197 12 3 7 -8 40 -24 72 -15 33 -48 102 -73 154 -24 52 -64 139
-90 193 -25 54 -46 99 -46 101 0 2 -26 60 -59 127 -32 68 -65 140 -74 159 -8
19 -30 67 -47 105 -18 39 -52 115 -77 170 -56 125 -78 173 -115 255 -16 36
-36 79 -43 95 -7 17 -25 56 -38 88 l-26 57 -80 0 -80 0 -30 -37z m49 -522 c0
-6 29 -71 65 -146 36 -75 65 -138 65 -140 0 -2 25 -56 56 -121 74 -156 104
-225 104 -235 0 -10 -613 -12 -623 -3 -4 4 0 19 8 33 14 24 141 288 242 501
25 52 50 101 55 108 12 14 28 16 28 3z"/>
<path d="M5572 4177 l-22 -23 2 -770 3 -769 179 -3 c99 -1 183 1 187 5 4 5 9
361 10 793 l3 785 -170 3 c-167 2 -170 2 -192 -21z"/>
<path d="M11017 4094 c-4 -4 -7 -17 -7 -30 0 -22 17 -34 48 -34 15 0 17 -10
14 -78 -4 -85 6 -106 50 -100 22 3 23 8 26 89 l3 87 30 6 c26 5 30 10 27 33
l-3 28 -90 3 c-50 1 -94 0 -98 -4z"/>
<path d="M11237 4093 c-4 -3 -7 -57 -7 -119 0 -106 1 -113 21 -119 29 -9 37 2
41 55 l3 45 18 -32 c21 -39 62 -46 72 -13 10 32 25 23 25 -15 0 -40 15 -51 55
-41 25 6 25 7 25 121 l0 115 -27 6 c-35 9 -51 -3 -80 -59 -14 -26 -28 -47 -32
-47 -3 0 -12 15 -20 33 -26 59 -71 94 -94 70z"/>
<path d="M7438 3790 c-48 -8 -140 -50 -171 -77 -21 -19 -27 -14 -36 29 l-7 33
-151 0 c-147 0 -152 -1 -177 -24 l-26 -24 0 -799 0 -798 183 2 182 3 0 230 c0
224 0 230 20 227 252 -42 411 -12 560 105 82 65 167 188 196 286 49 161 50
332 3 475 -54 165 -194 296 -354 332 -52 11 -154 11 -222 0z m63 -231 c112
-38 173 -192 172 -439 -1 -119 -4 -145 -28 -215 -33 -100 -57 -139 -108 -176
-86 -62 -213 -24 -269 81 -22 44 -23 54 -26 319 l-2 275 26 38 c33 47 107 103
154 116 47 14 42 14 81 1z"/>
<path d="M8510 3785 c-41 -7 -99 -17 -128 -23 -29 -5 -58 -14 -64 -20 -14 -14
-2 -75 20 -100 15 -18 23 -19 77 -11 33 6 121 12 195 15 120 5 140 4 181 -14
60 -26 87 -65 98 -143 14 -105 26 -99 -178 -92 -166 6 -181 5 -244 -16 -289
-96 -369 -490 -143 -699 70 -65 192 -112 287 -112 47 0 167 25 223 46 34 13
40 13 56 -1 14 -12 49 -15 198 -15 l182 0 0 445 c0 429 -1 446 -21 501 -12 32
-40 77 -61 100 -48 52 -154 106 -253 129 -93 23 -326 28 -425 10z m302 -556
c29 -6 59 -16 66 -21 9 -8 12 -62 12 -209 0 -219 2 -212 -71 -249 -46 -24
-116 -26 -167 -5 -46 20 -108 78 -133 127 -26 52 -26 165 1 217 23 46 103 119
139 127 14 3 40 10 56 14 41 11 38 11 97 -1z"/>
<path d="M9374 3786 c-3 -7 9 -40 27 -72 44 -80 100 -186 171 -324 33 -63 91
-173 128 -245 37 -71 106 -206 154 -298 l86 -168 -49 -103 c-48 -101 -90 -156
-121 -156 -9 0 -20 -4 -26 -10 -5 -5 -46 -13 -89 -16 -44 -4 -86 -11 -92 -17
-9 -6 -13 -40 -13 -103 0 -82 2 -95 19 -104 25 -13 96 -13 163 1 193 39 293
117 379 297 27 57 49 105 49 108 0 2 13 32 29 66 15 35 39 86 51 113 12 28 38
83 56 123 19 41 34 75 34 77 0 2 15 36 34 77 18 40 44 96 56 123 12 28 36 79
52 115 17 36 49 108 73 160 61 138 94 207 128 276 45 90 41 94 -97 94 -144 0
-145 -1 -221 -175 -31 -71 -64 -148 -74 -170 -10 -22 -47 -105 -81 -185 -81
-184 -85 -190 -106 -147 -55 118 -339 664 -348 669 -6 4 -91 8 -189 8 -141 0
-179 -3 -183 -14z"/>
<path d="M6242 3733 l-27 -28 0 -565 0 -565 185 0 185 0 3 584 c2 461 0 586
-10 593 -7 4 -80 8 -161 8 l-149 0 -26 -27z"/>
<path d="M1100 3166 c-87 -30 -123 -50 -165 -91 -47 -48 -66 -88 -72 -154 -7
-73 9 -127 52 -183 93 -122 304 -180 525 -144 122 20 294 109 419 217 75 65
161 159 161 176 0 7 -163 82 -245 113 -11 4 -33 13 -48 19 -16 6 -80 25 -143
41 -103 27 -128 30 -266 29 -131 0 -162 -4 -218 -23z"/>
</g>
</svg>
