<svg id="Amazon_Pay" data-name="Amazon Pay" xmlns="http://www.w3.org/2000/svg" width="340" height="190" viewBox="0 0 340 190">
  <defs>
    <style>
      .cls-1 {
        fill-rule: evenodd;
      }
    </style>
  </defs>
  <path id="Amazon_Pay-2" data-name="Amazon Pay" class="cls-1" d="M81.7,90.541c0.034-2.307-.051-3.61-1.8-4.17a3.328,3.328,0,0,0-1.567-.154,5.3,5.3,0,0,0-1.018.309,3.55,3.55,0,0,0-1.253,1.236c-0.283.54-.1,1.159-0.7,1.39a2.576,2.576,0,0,1-1.253,0c-0.945-.058-1.873-0.282-2.9-0.309a1.081,1.081,0,0,1-.47-0.85,9.313,9.313,0,0,0,.47-1.544,7.039,7.039,0,0,1,2.9-3.166c4.639-2.515,11.469-1.287,12.925,3.243a9.169,9.169,0,0,1,.157,2.625v5.637l0.078,2.78a5.768,5.768,0,0,0,.627,1.7c0.4,0.628,1,.9,1.018,1.931-0.981.642-2.754,2.891-4,2.934a10,10,0,0,1-2.35-2.625H82.408c-1.332,2-5.736,3.709-9.008,2.316-1.879-.8-2.732-2.356-3.29-4.478a7.157,7.157,0,0,1,.783-4.324c1.3-2.46,3.381-3.257,6.423-4.016l1.723-.154A14.327,14.327,0,0,1,81.7,90.541Zm48.331-8.494a13.061,13.061,0,0,1,4.074.463c2,0.638,3.585,1.465,4.308,3.32,0.833,2.139.47,6.183,0.47,9.035v2.857c0.33,1.321,1.582,2.239,1.645,3.4-0.751.7-2.922,2.99-4.073,3.011-0.4-.526-1.087-0.858-1.489-1.39a3.618,3.618,0,0,0-.94-1.235c-1.425,2.081-6.151,3.816-9.4,2.162a5.706,5.706,0,0,1-2.663-3.243,13.555,13.555,0,0,1-.157-1.39,5.883,5.883,0,0,1,0-2.317c0.975-3.6,3.4-4.819,7.129-5.714,0.982-.236,3.653-0.125,4.308-0.54a4.614,4.614,0,0,0,.078-1.776c-0.29-.471-0.211-1.163-0.548-1.622-0.968-1.317-3.648-.9-4.622.077-0.46.461-.543,1.759-1.175,2.008a2.574,2.574,0,0,1-1.253,0c-0.945-.058-1.873-0.282-2.9-0.309-0.1-.13-0.214-0.179-0.314-0.309-0.463-.616.315-1.895,0.549-2.394a7.036,7.036,0,0,1,4.543-3.629A13.289,13.289,0,0,0,130.034,82.046Zm87.577,0c4.757-.069,7.141,1.59,8.7,4.633,2.14,4.193,1.189,10.919-1.1,14.054a8.909,8.909,0,0,1-9.792,2.78,12.37,12.37,0,0,1-2.428-1.236,2.106,2.106,0,0,0-.783-0.541,10.64,10.64,0,0,0-.079,2.78c0,2.191.311,5.3-.156,7.182a14.935,14.935,0,0,1-3.447.154,2.673,2.673,0,0,1-.313-0.308,4.251,4.251,0,0,1-.157-1.931v-20c0-1.64-.317-5.447.157-6.641a1.423,1.423,0,0,0,.313-0.232,7.221,7.221,0,0,1,2.585.077,0.569,0.569,0,0,1,.47.618c0.216,0.347.028,1.1,0.392,1.313a10.043,10.043,0,0,1,3.368-2.085A12.492,12.492,0,0,0,217.611,82.046Zm20.6,0c3.68-.033,6.7.337,8.147,2.471,1.03,1.52.94,3.912,0.94,6.486V103.05l-0.47.386a6.969,6.969,0,0,1-2.507-.077,0.569,0.569,0,0,1-.47-0.618,4.2,4.2,0,0,1-.235-1.235h-0.156c-1.4,1.79-6.737,3.324-9.714,2.008-2.106-.932-2.9-2.5-3.446-5.02a5.566,5.566,0,0,1,1.018-4.015c2.369-3.556,7.108-3.551,12.063-2.471V88.147a10.248,10.248,0,0,1-.313-1.081,3.723,3.723,0,0,0-2.82-1.7c-1.738-.381-4.962.272-6.267,0.7-0.673.218-2.062,0.757-2.193-.154a3.862,3.862,0,0,1,.078-2.162,15.741,15.741,0,0,1,4.074-1.39C236.638,82.182,237.693,82.414,238.212,82.046Zm-136.691.232c3.37-.043,4.68,1.336,5.719,3.552H107.4a3.179,3.179,0,0,1,.862-1.467c1.9-2.564,5.789-2.629,8.381-.695,1.574,1.174,1.646,3.573,1.645,6.332v8.649c0,1.421.277,4.012-.156,5.1-0.718.407-3.914,0.355-4.935,0.155a1.894,1.894,0,0,0-.314-0.386V91.931c0-2.24.142-4.159-1.644-4.633a2.807,2.807,0,0,0-2.9,1.081c-0.735,1.088-.627,3.182-0.626,4.942v10.27c-0.933.667-3.372,0.4-4.935,0.386-0.6-.83-0.392-2.538-0.392-3.938V90.618a3.927,3.927,0,0,1-.078-0.849,4.661,4.661,0,0,0-.705-1.93,2.183,2.183,0,0,0-1.332-.54,2.339,2.339,0,0,0-2.742,1.544,12.92,12.92,0,0,0-.313,4.17v6.873a18.968,18.968,0,0,1-.157,3.861c-1.046.5-3.324,0.24-4.778,0.232a0.279,0.279,0,0,0-.157-0.077,1.9,1.9,0,0,0-.313-0.386V89.228c0-1.584-.3-5.178.157-6.332,0.71-.344,4.578-0.508,4.857.232a10.277,10.277,0,0,1,.078,2.7h0.157V85.753a8.11,8.11,0,0,0,.627-1.235,5.736,5.736,0,0,1,1.567-1.544,6.1,6.1,0,0,1,1.645-.618A2.924,2.924,0,0,0,101.521,82.278Zm66.9,0c5.425-.05,7.771,2.675,9.165,6.564,0.218,0.61.143,1.109,0.313,1.776a14.148,14.148,0,0,1-.313,7.259,9.853,9.853,0,0,1-5.484,6.1,14.066,14.066,0,0,1-2.35.463c-1.707.365-3.976-.667-4.856-1.235-2.268-1.463-3.408-3.513-4.23-6.41q-0.079-.734-0.157-1.467a11.083,11.083,0,0,1,0-4.015c0.184-.812.089-1.429,0.313-2.162a9.618,9.618,0,0,1,4.779-6.178,10.637,10.637,0,0,1,2.036-.618A3.787,3.787,0,0,0,168.418,82.278Zm22.56,0c6.538-.036,6.345,4.594,6.345,10.888v10.348a3.205,3.205,0,0,1-.47.463h-4.465a0.281,0.281,0,0,0-.157-0.077,1.924,1.924,0,0,0-.313-0.386V92.7c0-2.772.094-5.095-2.272-5.56-1.464-.288-2.314,1.289-2.663,2.239a17.659,17.659,0,0,0-.47,5.483v8.726l-0.47.386h-4.465c-0.715-.984-0.392-4.118-0.392-5.792V83.513a2.179,2.179,0,0,1,0-.463l0.548-.386h3.917a0.747,0.747,0,0,1,.548.695c0.434,0.688-.142,2.178.079,2.857a0.281,0.281,0,0,0,.078-0.154,5.013,5.013,0,0,0,.627-1.236,6.346,6.346,0,0,1,1.41-1.622,6.268,6.268,0,0,1,1.88-.849A3.678,3.678,0,0,0,190.978,82.278Zm-40.5,14.749a13.744,13.744,0,0,1,5.719.927c0.726,0.311,1.775.415,2.036,1.158,0.454,0.543.411,4.014-.235,4.247-0.453.263-1.832-.611-2.271-0.772a15.028,15.028,0,0,0-5.327-.772h-1.41a24.752,24.752,0,0,0-4.152,1.081,2.738,2.738,0,0,1-1.331.54,0.548,0.548,0,0,1-.549-0.617,3.576,3.576,0,0,1-.078-1.39c0-1.361-.059-2.716.47-3.553,0.419-.663,1.034-1.294,1.488-1.931,1.41-1.973,2.713-3.942,4.074-5.946,0.479-.705,1.972-2.269,2.115-3.089h-5.405c-0.773,0-1.621.135-1.88-.386a12.823,12.823,0,0,1,0-3.629c0.955-.456,2.96-0.232,4.308-0.232h9.557v0.077a0.456,0.456,0,0,1,.391.541,3.088,3.088,0,0,1,.079,1.236,3.738,3.738,0,0,1-1.019,3.012c-1.613,2.257-3.142,4.5-4.7,6.8C151.88,95.03,150.658,96.173,150.479,97.027Zm99.875-14.363a20.365,20.365,0,0,1,3.525.077,31.764,31.764,0,0,1,2.037,5.174c1.464,3.783,2.7,7.823,4.308,11.583a0.274,0.274,0,0,0,.078-0.154,5.741,5.741,0,0,0,.47-1.39c0.33-.866.586-1.768,0.94-2.7,1.02-2.687,1.878-5.6,2.977-8.263,0.37-.9.921-3.738,1.567-4.17a9.867,9.867,0,0,1,3.6-.077,2.029,2.029,0,0,1-.157,1.853c-0.641,1.429-1.256,3.035-1.88,4.479l-0.156.695c-0.748,1.675-1.532,3.542-2.194,5.251-0.368.951-.526,1.772-0.94,2.7-0.689,1.551-1.425,3.284-2.036,4.865-1,2.6-1.763,5.393-3.29,7.49a5.557,5.557,0,0,1-5.64,2.24c-0.858-.2-1.994.038-2.272-0.695a4.42,4.42,0,0,1-.078-2.394,1.2,1.2,0,0,1,.313-0.155c0.6-.341,1.8.275,2.663,0.078a3.637,3.637,0,0,0,2.194-1.159,15.341,15.341,0,0,0,1.41-3.243,2.071,2.071,0,0,0,.391-1.313,10.281,10.281,0,0,0-.7-1.467c-0.48-1.026-.827-2.1-1.253-3.089C254.7,95.344,253.516,91.836,252,88.3c-0.481-1.121-.9-2.3-1.41-3.475a4.3,4.3,0,0,1-.627-1.853A1.936,1.936,0,0,0,250.354,82.664Zm-32.978,2.7a9.338,9.338,0,0,1-1.8.232c-0.852.246-3.089,1.077-3.368,1.776a11.9,11.9,0,0,0-.079,3.012v5.483a16.775,16.775,0,0,0,.079,2.857,4.928,4.928,0,0,1,.94.618,11.915,11.915,0,0,0,2.115.926c2.5,0.882,5.49.022,6.58-1.467,1.81-2.473,1.926-8.733.156-11.351C221.076,86.089,219.57,85.5,217.376,85.367Zm-48.8,1a4.53,4.53,0,0,0-1.645,1.313c-0.991,1.8-1.089,6.814-.47,9.189,0.415,1.588.538,2.669,1.959,3.243a2.784,2.784,0,0,0,1.488.154c2.344-.723,3.063-5.9,2.35-9.112v-1c-0.3-1.24-.484-2.774-1.41-3.4A3.95,3.95,0,0,0,168.574,86.371ZM81.7,93.629c-3.105-.07-5.716.769-5.8,3.707a4.733,4.733,0,0,0,.157,1.622,3.9,3.9,0,0,0,1.332,1.313C81.3,100.465,81.74,97.556,81.7,93.629Zm50.446,0a5.913,5.913,0,0,1-1.253.154,8.5,8.5,0,0,0-1.488.463,3.555,3.555,0,0,0-1.8,4.17,2.487,2.487,0,0,0,.94,1.622,2.894,2.894,0,0,0,2.9-.232c1.688-1.13,1.93-3.236,1.88-6.1A4.247,4.247,0,0,0,132.149,93.629ZM238.134,94.17a4.366,4.366,0,0,1-.7.077,6.353,6.353,0,0,0-1.88.772c-1.527,1.1-1.345,4.434.157,5.406,1.882,1.218,4.968-.032,6.345-0.772a4.906,4.906,0,0,0,1.331-.772V94.71l-0.235-.077C242.452,94.192,239.384,94.169,238.134,94.17ZM149.383,104.9c1.847-.046,5.555-0.041,5.953,1.158,0.517,0.647-.054,2.945-0.157,3.629a13.868,13.868,0,0,1-2.82,5.869,3.126,3.126,0,0,1-2.036,1.622,0.281,0.281,0,0,0-.157-0.078c-0.167-.9.5-1.74,0.783-2.471,0.7-1.817,1.664-4.306,1.175-6.486-1.49-.838-5.072-0.842-7.128-0.386-0.56.124-1.811,0.282-2.037-.078-0.372-.67.783-1.007,1.175-1.235a13.672,13.672,0,0,1,3.134-1.236C147.9,105.036,148.857,105.228,149.383,104.9Zm-61.022,1.312c1.061,0.006,2.83,1.332,3.682,1.776a70.862,70.862,0,0,0,8.068,3.4,91.912,91.912,0,0,0,9.244,2.471c1.619,0.412,3.338.413,4.934,0.772l6.11,0.464a18.258,18.258,0,0,0,4.074-.078H125.8c0.636-.136,1.6-0.1,2.194-0.231,1.513-.327,3.083-0.116,4.543-0.464a100.2,100.2,0,0,0,10.967-2.779c1.029-.378,1.895-0.554,2.9-0.927,0.543-.2,1.134-0.618,1.723-0.772,1.054-.276,1.4.386,1.41,1.235h-0.078c-0.315.833-1.483,1.234-2.193,1.7a42.118,42.118,0,0,1-4.309,2.471c-0.811.4-1.6,0.531-2.428,0.927-3.477,1.66-7.6,2.235-11.828,3.243-0.929.221-1.9,0.119-2.742,0.309h-1.175a27.434,27.434,0,0,1-8.3-.155c-0.773-.173-1.354.029-2.115-0.154-1.786-.429-3.67-0.555-5.405-1.081a55.66,55.66,0,0,1-10.027-3.861c-1.408-.751-2.753-1.341-4.073-2.162-1.55-.964-2.949-2.183-4.387-3.244-0.473-.349-2.651-1.852-2.428-2.393A0.847,0.847,0,0,1,88.361,106.216Z"/>
</svg>
