<?xml version="1.0" standalone="no"?>
<!DOCTYPE svg PUBLIC "-//W3C//DTD SVG 20010904//EN"
 "http://www.w3.org/TR/2001/REC-SVG-20010904/DTD/svg10.dtd">
<svg version="1.0" xmlns="http://www.w3.org/2000/svg"
 width="600.000000pt" height="330.000000pt" viewBox="0 0 600.000000 330.000000"
 preserveAspectRatio="xMidYMid meet">

<g transform="translate(0.000000,330.000000) scale(0.100000,-0.100000)"
fill="#000000" stroke="none">
<path d="M564 2583 c-8 -21 -28 -69 -44 -108 -70 -173 -298 -687 -310 -699 -6
-6 -10 -16 -10 -23 0 -10 47 -13 224 -13 255 0 237 -6 273 92 l17 48 62 0 62
0 23 -67 24 -68 258 -3 257 -2 0 40 c0 51 13 51 33 0 l15 -40 127 0 127 0 15
40 c9 22 20 37 25 34 4 -3 6 -10 2 -15 -3 -6 -3 -21 0 -35 l6 -24 615 0 614 0
3 112 c2 76 7 113 15 115 9 3 13 -24 15 -104 l3 -108 323 -3 322 -2 0 24 0 24
63 -21 c51 -17 94 -21 252 -25 l190 -4 25 71 24 71 62 0 62 0 20 -47 c11 -27
23 -58 27 -70 l6 -23 259 0 259 0 3 63 3 62 38 -63 39 -62 206 2 207 3 3 433
2 432 -199 0 -200 0 -3 -47 -3 -48 -25 48 -24 47 -207 0 -208 0 -3 -47 -3 -48
-25 48 -25 48 -350 -3 c-325 -3 -354 -5 -407 -24 l-58 -21 0 24 0 23 -205 0
c-202 0 -205 0 -205 -21 0 -16 -4 -19 -17 -14 -80 34 -80 34 -830 35 l-742 0
-17 -32 c-10 -18 -32 -66 -50 -107 l-32 -75 -46 99 c-25 54 -46 102 -46 106 0
5 -103 9 -229 9 l-230 0 -3 -42 -3 -43 -19 43 -18 42 -199 0 -199 0 -16 -37z
m347 -130 c27 -62 140 -332 187 -445 19 -49 39 -88 44 -88 5 0 7 128 6 285 -2
184 1 286 7 288 6 1 59 1 119 -1 l108 -4 45 -96 c100 -215 147 -312 152 -312
3 0 44 94 91 208 l86 207 119 0 120 0 3 -307 2 -308 -69 0 -68 0 -7 31 c-3 17
-6 124 -7 238 l-1 206 -25 -55 c-13 -30 -61 -137 -105 -238 l-81 -183 -65 3
-66 3 -63 145 c-35 80 -80 184 -100 233 -20 48 -39 87 -42 87 -3 0 -5 -106 -3
-235 l3 -235 -154 0 -153 0 -30 63 -29 62 -153 3 -153 3 -30 -66 -31 -65 -79
0 -78 0 30 68 c17 37 58 132 91 212 106 253 133 315 141 328 6 8 40 12 113 12
l105 0 20 -47z m1697 -20 l3 -63 -176 0 -175 0 0 -60 0 -60 168 -2 167 -3 3
-57 3 -58 -171 0 -170 0 0 -65 0 -65 175 0 175 0 0 -65 0 -65 -250 0 -250 0 0
308 c0 170 3 312 7 316 4 3 115 5 247 4 l241 -3 3 -62z m601 42 c48 -28 72
-65 78 -118 7 -62 -13 -115 -59 -159 l-40 -37 31 -16 c44 -22 61 -71 61 -176
l0 -89 -65 0 -65 0 0 65 c0 74 -18 128 -48 144 -12 6 -70 11 -131 11 l-111 0
0 -110 0 -110 -75 0 -75 0 0 311 0 311 233 -3 c210 -4 235 -6 266 -24z m331
-285 l0 -310 -75 0 -75 0 0 310 0 310 75 0 75 0 0 -310z m508 244 l3 -61 -98
-6 c-118 -6 -148 -18 -175 -70 -42 -83 -33 -199 21 -259 24 -27 35 -31 97 -35
l69 -5 19 38 c17 36 121 283 168 402 l21 52 111 0 111 0 69 -168 c115 -278
167 -396 177 -407 7 -7 7 89 3 283 l-7 292 114 0 114 0 125 -213 125 -212 3
213 2 212 75 0 75 0 0 -305 0 -305 -97 0 -98 0 -140 233 -140 232 -6 -225 c-4
-124 -7 -228 -8 -233 0 -4 -67 -6 -147 -5 l-146 3 -25 63 -25 62 -157 -2 -156
-3 -26 -65 -26 -65 -134 1 c-123 0 -138 2 -184 25 -58 29 -109 91 -126 152
-15 56 -15 205 1 253 20 64 67 128 111 153 44 25 141 40 244 37 l60 -1 3 -61z"/>
<path d="M733 2271 c-24 -60 -43 -114 -43 -120 0 -7 31 -11 90 -11 65 0 90 3
90 12 0 17 -84 228 -90 228 -3 0 -24 -49 -47 -109z"/>
<path d="M2860 2295 l0 -77 120 4 c131 3 143 8 153 65 5 23 1 38 -12 55 -18
21 -28 23 -140 27 l-121 3 0 -77z"/>
<path d="M4232 2268 c-29 -66 -51 -122 -49 -125 3 -2 49 -2 104 -1 l100 3 -47
117 c-25 65 -48 120 -51 122 -2 2 -28 -50 -57 -116z"/>
<path d="M2150 1570 c0 -6 -125 -10 -355 -10 l-355 0 0 -437 0 -438 392 3 393
2 62 62 61 61 32 -37 c18 -20 41 -48 52 -61 l19 -25 249 0 248 0 7 99 7 98 91
7 c51 3 104 9 120 12 l27 6 0 -116 0 -116 199 0 c179 0 200 2 205 17 4 10 6
60 5 113 -2 87 0 95 17 95 17 0 19 -10 22 -112 l3 -113 642 0 c609 1 645 2
697 20 69 24 70 24 70 -1 0 -20 2 -20 258 -17 217 3 263 6 295 20 105 48 176
150 185 267 4 56 0 78 -22 132 -25 63 -26 73 -26 263 l0 198 -227 -6 c-249 -7
-290 -9 -300 -19 -13 -14 -23 -6 -23 18 l0 25 -237 0 c-232 -1 -250 -3 -325
-35 -14 -5 -18 -2 -18 14 0 21 0 21 -365 21 -358 0 -365 0 -365 -20 0 -24 -1
-24 -70 0 -49 17 -84 19 -332 20 -276 0 -278 0 -278 -21 0 -16 -4 -19 -17 -14
-77 32 -112 35 -413 35 l-308 0 -60 -65 -60 -64 -57 64 c-54 62 -59 65 -101
65 -24 0 -44 -4 -44 -10z m2928 -197 l3 -73 -165 0 c-136 0 -167 -3 -180 -16
-31 -31 -11 -78 37 -89 12 -2 65 -6 117 -7 105 -4 145 -20 184 -71 17 -24 21
-43 21 -111 0 -75 -3 -86 -27 -118 -47 -61 -95 -73 -298 -73 l-175 0 -3 63 -3
62 159 0 c139 0 163 2 182 18 53 43 13 112 -64 112 -72 1 -179 20 -210 38 -70
41 -102 142 -71 220 22 53 74 99 122 107 21 4 43 8 48 10 6 2 80 3 165 2 l155
-2 3 -72z m573 73 c2 -2 3 -36 1 -75 l-4 -71 -158 0 c-131 0 -161 -3 -174 -16
-31 -31 -11 -78 37 -89 12 -2 63 -6 112 -8 157 -7 207 -42 220 -152 9 -67 -6
-113 -50 -156 -53 -52 -90 -61 -287 -66 l-178 -5 0 66 0 66 160 0 c147 0 162
2 180 20 25 25 26 64 1 89 -14 14 -41 20 -116 25 -54 4 -115 14 -136 23 -114
45 -145 194 -60 285 51 55 100 66 292 67 86 1 158 -1 160 -3z m-1828 -30 c56
-28 87 -79 87 -144 0 -63 -17 -100 -66 -140 l-36 -30 31 -17 c56 -28 71 -67
71 -178 l0 -98 -72 3 -73 3 -5 86 c-3 58 -11 94 -23 112 -17 27 -18 27 -142
27 l-125 0 0 -115 0 -115 -75 0 -75 0 0 316 0 316 233 -4 c203 -3 237 -5 270
-22z m677 -41 l0 -65 -175 0 -175 0 0 -60 0 -60 170 0 170 0 0 -60 0 -60 -170
0 -171 0 3 -62 3 -63 173 -3 172 -2 0 -65 0 -65 -245 0 -244 0 -3 311 c-2 171
-1 313 1 315 2 2 114 4 248 4 l243 0 0 -65z m-2240 -45 c51 -56 96 -100 100
-98 3 2 47 47 96 101 l89 98 290 -3 c288 -3 290 -3 334 -28 62 -34 85 -77 84
-155 -1 -153 -86 -204 -340 -205 l-93 0 0 -115 0 -115 -143 0 -144 0 -87 100
c-48 55 -90 100 -94 100 -4 0 -49 -45 -100 -100 l-93 -100 -285 0 -284 0 0
310 0 310 289 0 288 0 93 -100z"/>
<path d="M3480 1230 l0 -70 124 0 c136 0 139 1 150 62 5 30 3 41 -14 58 -18
18 -33 20 -140 20 l-120 0 0 -70z"/>
<path d="M2650 1349 c-8 -10 -59 -65 -113 -123 l-99 -105 114 -126 113 -125 3
125 c1 69 1 181 0 249 -3 111 -4 122 -18 105z"/>
<path d="M1720 1250 l0 -60 165 0 165 0 0 -60 0 -60 -165 0 -165 0 0 -65 0
-65 184 0 184 0 79 86 c43 47 78 90 78 96 0 5 -34 49 -75 98 l-75 90 -187 0
-188 0 0 -60z"/>
<path d="M2820 1231 l0 -81 119 0 c101 0 122 3 142 19 31 25 32 83 1 114 -20
20 -34 22 -142 25 l-120 4 0 -81z"/>
</g>
</svg>
