<?xml version="1.0" standalone="no"?>
<!DOCTYPE svg PUBLIC "-//W3C//DTD SVG 20010904//EN"
 "http://www.w3.org/TR/2001/REC-SVG-20010904/DTD/svg10.dtd">
<svg version="1.0" xmlns="http://www.w3.org/2000/svg"
 width="1200.000000pt" height="660.000000pt" viewBox="0 0 1200.000000 660.000000"
 preserveAspectRatio="xMidYMid meet">
<metadata>
Created by potrace 1.13, written by Peter Selinger 2001-2015
</metadata>
<g transform="translate(0.000000,660.000000) scale(0.100000,-0.100000)"
fill="#000000" stroke="none">
<path d="M2717 6194 c-4 -4 -7 -979 -7 -2166 l0 -2158 203 2 202 3 0 2160 0
2160 -196 3 c-107 1 -198 -1 -202 -4z"/>
<path d="M3554 6188 c-5 -8 -7 -635 -4 -1508 l5 -1495 140 0 140 0 0 1505 0
1505 -136 3 c-102 2 -138 -1 -145 -10z"/>
<path d="M4245 6191 c-6 -6 -9 -571 -8 -1503 1 -821 2 -1496 2 -1500 1 -10
262 -10 277 0 17 10 17 2994 1 3004 -18 11 -261 10 -272 -1z"/>
<path d="M4755 6188 c-3 -7 -4 -686 -3 -1508 l3 -1495 54 -3 c30 -2 58 1 63 6
10 10 14 2985 3 3001 -9 16 -115 14 -120 -1z"/>
<path d="M5405 6192 l-190 -2 0 -1503 1 -1502 184 -3 c102 -1 194 0 206 2 l21
6 0 1499 c1 1377 -1 1500 -16 1503 -9 1 -102 2 -206 0z"/>
<path d="M6025 6194 c-7 -3 -10 -514 -9 -1506 l1 -1503 144 0 144 0 3 1499 c2
1193 0 1501 -10 1508 -13 8 -255 10 -273 2z"/>
<path d="M6595 6188 c-3 -7 -4 -686 -3 -1508 l3 -1495 65 0 65 0 3 1499 c2
1193 0 1501 -10 1508 -21 13 -118 10 -123 -4z"/>
<path d="M7112 6192 c-10 -7 -12 -315 -10 -1508 l3 -1499 65 0 65 0 0 1505 0
1505 -55 3 c-30 1 -61 -2 -68 -6z"/>
<path d="M7554 6185 c-2 -5 -3 -683 -2 -1505 l3 -1495 194 -3 c107 -1 198 1
203 6 9 9 14 2989 6 2998 -10 9 -401 9 -404 -1z"/>
<path d="M8314 6193 c-8 -6 -11 -435 -10 -1506 l0 -1498 21 -5 c11 -3 76 -3
145 -2 l125 3 0 1505 0 1505 -135 3 c-74 1 -140 -1 -146 -5z"/>
<path d="M8767 6193 c-2 -4 -6 -978 -8 -2163 l-4 -2155 70 0 70 0 0 2160 0
2160 -62 3 c-34 2 -63 -1 -66 -5z"/>
<path d="M3606 2651 c-10 -16 -7 -974 3 -984 16 -16 635 -1 700 17 115 33 185
86 225 171 22 45 20 140 -3 190 -26 58 -126 135 -176 135 -27 0 -16 16 30 46
122 77 139 228 37 326 -92 89 -188 108 -554 108 -141 0 -259 -4 -262 -9z m634
-143 c34 -18 51 -35 69 -71 l24 -49 -19 -46 c-16 -37 -29 -51 -69 -71 -48 -25
-54 -26 -260 -26 l-210 0 -3 143 -3 142 214 0 c201 0 215 -1 257 -22z m25
-412 c79 -34 125 -106 109 -173 -9 -38 -49 -90 -82 -107 -47 -24 -180 -37
-352 -34 l-165 3 -3 155 c-1 85 0 161 3 168 8 23 434 12 490 -12z"/>
<path d="M5735 2648 c-3 -7 -4 -231 -3 -498 l3 -485 75 0 75 0 0 495 0 495
-73 3 c-52 2 -74 -1 -77 -10z"/>
<path d="M7203 2595 l-73 -34 0 -91 0 -90 -55 0 -55 0 0 -45 c0 -49 13 -58 75
-53 l30 3 5 -260 c4 -163 10 -270 17 -286 26 -60 128 -96 241 -86 36 4 70 11
75 16 10 10 -10 93 -27 103 -6 4 -34 8 -63 8 -82 0 -83 4 -83 261 0 120 2 224
5 232 5 10 18 13 55 9 27 -2 61 -1 75 2 24 6 26 11 23 49 l-3 42 -70 3 c-40 2
-73 8 -77 15 -4 7 -8 63 -8 125 0 61 -3 112 -7 112 -5 0 -41 -16 -80 -35z"/>
<path d="M4987 2384 c-198 -54 -297 -190 -284 -388 6 -100 37 -175 98 -233 83
-79 185 -114 333 -114 148 1 252 39 335 123 66 67 86 126 86 258 0 96 -3 110
-29 163 -47 95 -135 160 -261 193 -62 17 -214 16 -278 -2z m248 -108 c55 -19
114 -71 136 -120 26 -57 26 -205 0 -261 -41 -89 -124 -138 -236 -139 -73 -1
-114 11 -175 51 -43 27 -68 67 -86 137 -19 69 -17 103 6 178 22 73 61 116 130
147 54 24 166 27 225 7z"/>
<path d="M6370 2386 c-157 -40 -251 -132 -286 -281 -39 -171 33 -333 179 -404
84 -40 138 -51 254 -51 154 0 253 36 330 118 41 43 71 97 60 108 -2 3 -36 10
-73 15 l-69 10 -48 -56 c-63 -72 -101 -88 -202 -89 -133 0 -222 55 -260 163
-26 76 -52 70 323 73 l337 3 3 45 c9 121 -76 259 -194 315 -92 43 -251 57
-354 31z m252 -115 c55 -24 93 -59 112 -106 33 -79 46 -75 -228 -75 -135 0
-247 3 -249 8 -3 4 -2 22 1 41 6 43 82 121 132 137 60 19 183 16 232 -5z"/>
<path d="M7818 2385 c-202 -55 -306 -214 -277 -422 27 -203 180 -315 427 -315
168 0 315 68 382 177 50 80 63 221 31 318 -41 126 -130 204 -275 242 -69 18
-222 18 -288 0z m243 -107 c110 -37 169 -126 169 -253 0 -72 -29 -157 -66
-196 -48 -50 -109 -72 -199 -72 -94 0 -156 24 -204 79 -54 61 -74 173 -49 272
21 85 67 135 153 169 39 15 153 16 196 1z"/>
<path d="M2630 1380 c-7 -4 -17 -920 -11 -977 1 -16 552 -18 651 -3 150 24
236 79 286 185 57 120 5 239 -132 306 l-65 32 44 28 c50 31 82 68 103 118 19
45 18 81 -5 133 -35 79 -91 125 -191 157 -58 18 -97 20 -368 23 -167 2 -308 1
-312 -2z m589 -131 c61 -13 97 -39 117 -87 29 -69 -2 -136 -78 -168 -35 -14
-81 -18 -247 -22 -132 -3 -206 -1 -210 6 -3 5 -5 71 -3 146 l3 136 184 0 c101
0 207 -5 234 -11z m22 -415 c147 -33 203 -152 118 -248 -50 -58 -93 -66 -341
-66 l-218 0 0 165 0 165 186 0 c133 0 205 -4 255 -16z"/>
<path d="M7002 1378 c-7 -7 -12 -15 -12 -19 0 -4 -20 -40 -45 -80 -51 -82 -49
-89 29 -89 47 0 50 2 133 83 124 120 124 117 5 117 -63 0 -102 -4 -110 -12z"/>
<path d="M8192 1382 c-9 -6 -12 -28 -10 -73 l3 -64 78 -3 78 -3 -3 73 -3 73
-65 3 c-36 1 -71 -2 -78 -6z"/>
<path d="M4060 1123 c-133 -13 -238 -71 -281 -155 -25 -49 -24 -68 4 -68 12 0
45 -3 73 -6 l51 -6 24 41 c40 72 74 86 214 86 132 0 177 -15 202 -66 17 -32
16 -84 0 -97 -7 -6 -90 -21 -183 -32 -197 -24 -254 -35 -309 -62 -150 -75
-168 -240 -36 -329 59 -39 174 -63 264 -55 78 7 206 47 248 76 37 27 46 25 54
-9 3 -16 12 -35 20 -41 16 -14 161 -9 158 5 -1 6 -10 30 -19 55 -13 35 -18 95
-22 283 -5 235 -5 237 -31 278 -55 85 -218 124 -431 102z m298 -448 c-7 -83
-38 -127 -117 -163 -80 -37 -211 -43 -274 -13 -118 57 -74 174 73 195 182 25
254 37 258 41 3 3 19 5 35 5 l30 0 -5 -65z"/>
<path d="M5095 1121 c-53 -10 -111 -36 -151 -66 -18 -14 -35 -25 -38 -25 -3 0
-6 19 -8 43 l-3 42 -65 0 -65 0 -5 -350 c-4 -192 -4 -356 -2 -363 3 -9 25 -12
81 -10 l76 3 5 240 c6 288 12 305 110 355 63 32 192 33 241 2 63 -39 64 -41
69 -332 l5 -265 78 -3 c57 -2 77 0 78 10 0 7 0 137 -1 288 -1 271 -1 276 -25
316 -23 39 -70 76 -129 102 -35 15 -196 24 -251 13z"/>
<path d="M6000 1122 c-63 -10 -170 -63 -211 -104 -19 -19 -48 -61 -65 -94 -27
-55 -29 -67 -29 -174 0 -106 2 -119 29 -172 49 -100 136 -163 266 -194 213
-51 442 50 490 216 11 37 -1 45 -82 54 l-57 7 -29 -58 c-33 -68 -71 -97 -148
-113 -67 -14 -123 -6 -189 25 -85 41 -115 105 -115 246 0 75 4 94 28 140 38
73 94 108 188 116 116 9 192 -24 229 -103 l17 -35 66 7 c37 3 70 8 75 11 15 9
6 40 -28 91 -37 55 -90 94 -159 118 -47 17 -209 26 -276 16z"/>
<path d="M6875 1121 c-78 -11 -130 -30 -186 -68 -47 -32 -103 -120 -91 -140 4
-6 39 -14 77 -18 l70 -7 17 35 c9 19 34 48 54 64 36 27 41 28 153 28 138 0
190 -17 215 -70 22 -46 20 -82 -5 -95 -11 -6 -104 -22 -207 -35 -103 -14 -204
-28 -224 -34 -55 -13 -125 -61 -154 -105 -35 -52 -37 -140 -4 -186 48 -67 133
-107 250 -117 105 -9 230 24 361 94 4 2 14 -14 23 -37 l16 -40 80 0 c49 0 80
4 80 10 0 6 -8 25 -17 43 -14 27 -18 75 -22 283 l-6 251 -28 42 c-22 33 -44
50 -92 72 -55 25 -78 29 -182 33 -65 3 -145 1 -178 -3z m322 -438 c-13 -126
-97 -193 -252 -201 -88 -5 -137 6 -179 39 -35 28 -37 96 -3 126 34 32 55 39
152 52 50 7 131 20 180 30 50 9 94 15 99 13 5 -3 6 -29 3 -59z"/>
<path d="M7855 1116 c-22 -8 -57 -33 -77 -56 l-37 -41 -3 48 -3 48 -49 3 c-27
2 -60 1 -73 -3 l-23 -5 2 -358 3 -357 80 0 80 0 0 230 c0 225 1 231 25 280 41
82 78 95 234 82 23 -2 32 4 46 29 34 59 34 72 1 88 -44 23 -157 29 -206 12z"/>
<path d="M8835 1124 c-92 -15 -193 -70 -248 -134 -86 -101 -101 -286 -34 -419
75 -152 314 -239 509 -187 115 31 152 50 214 111 51 51 63 71 82 130 68 216
-25 403 -238 482 -36 14 -233 25 -285 17z m251 -139 c91 -53 139 -173 115
-288 -26 -128 -79 -181 -203 -207 -101 -20 -201 10 -262 81 -102 120 -60 368
72 421 90 36 210 33 278 -7z"/>
<path d="M8192 1112 c-9 -7 -12 -86 -10 -363 l3 -354 78 -3 77 -3 -2 363 -3
363 -65 3 c-36 1 -71 -2 -78 -6z"/>
</g>
</svg>
