<?xml version="1.0" standalone="no"?>
<!DOCTYPE svg PUBLIC "-//W3C//DTD SVG 20010904//EN"
 "http://www.w3.org/TR/2001/REC-SVG-20010904/DTD/svg10.dtd">
<svg version="1.0" xmlns="http://www.w3.org/2000/svg"
 width="1200.000000pt" height="660.000000pt" viewBox="0 0 1200.000000 660.000000"
 preserveAspectRatio="xMidYMid meet">
<metadata>
Created by potrace 1.13, written by Peter Selinger 2001-2015
</metadata>
<g transform="translate(0.000000,660.000000) scale(0.100000,-0.100000)"
fill="#000000" stroke="none">
<path d="M4630 4206 c-311 -58 -551 -236 -685 -509 -160 -325 -110 -727 126
-1007 160 -191 446 -320 706 -320 118 0 297 41 392 89 l41 21 0 195 c0 107 -3
195 -7 195 -4 0 -27 -17 -52 -38 -122 -102 -207 -135 -356 -136 -181 -1 -315
54 -429 174 -179 191 -213 487 -83 735 62 118 201 229 339 272 83 26 256 23
333 -7 64 -24 178 -95 209 -129 42 -47 46 -33 46 172 l0 194 -52 25 c-160 78
-357 105 -528 74z"/>
<path d="M11329 4181 c-43 -38 -44 -40 -44 -100 0 -57 2 -63 38 -98 35 -35 41
-38 96 -38 64 0 97 20 127 77 45 86 -27 198 -128 198 -39 0 -52 -6 -89 -39z
m150 -27 c27 -23 31 -32 31 -79 0 -61 -15 -74 -44 -38 -17 22 -17 25 -2 42 36
40 5 81 -63 82 -35 0 -41 2 -26 9 37 16 73 10 104 -16z m-123 -79 c2 -79 -5
-92 -24 -50 -15 32 -15 80 -2 106 19 34 25 20 26 -56z m69 35 c3 -5 -1 -10 -9
-10 -9 0 -16 5 -16 10 0 6 4 10 9 10 6 0 13 -4 16 -10z m15 -105 l23 -25 -49
0 c-43 1 -47 2 -31 14 9 7 17 18 17 25 0 18 15 13 40 -14z"/>
<path d="M3074 4201 c-226 -36 -402 -194 -445 -400 -14 -69 -6 -210 15 -271
41 -116 164 -217 353 -290 224 -87 255 -101 298 -130 60 -41 86 -88 92 -163 4
-54 1 -69 -24 -117 -32 -63 -93 -114 -156 -131 -72 -19 -189 -6 -263 31 -67
33 -144 102 -170 152 -8 16 -21 28 -29 26 -24 -5 -215 -200 -208 -212 7 -13
62 -80 95 -117 84 -92 223 -169 353 -194 355 -68 668 110 741 421 20 85 14
266 -10 334 -55 153 -172 239 -491 365 -66 26 -141 61 -167 78 -130 86 -113
232 37 303 40 19 67 24 130 24 95 0 158 -25 228 -89 24 -23 47 -41 50 -41 8 0
177 220 177 230 0 12 -132 100 -192 128 -115 53 -299 81 -414 63z"/>
<path d="M5990 4186 c-106 -32 -163 -59 -255 -121 -300 -200 -463 -577 -401
-930 37 -210 129 -380 285 -527 99 -93 204 -158 323 -200 79 -28 82 -28 316
-28 l237 1 86 32 c223 85 401 248 504 462 74 151 90 224 90 410 0 162 -4 192
-47 320 -91 270 -320 489 -606 579 -78 24 -95 26 -270 25 -166 0 -196 -3 -262
-23z"/>
<path d="M455 4168 c-3 -7 -4 -404 -3 -883 l3 -870 275 -3 c305 -3 421 6 550
45 152 45 260 113 374 233 111 118 175 233 217 391 31 117 31 327 0 444 -96
358 -369 588 -768 645 -108 15 -642 13 -648 -2z m654 -313 c363 -76 544 -484
370 -834 -103 -208 -276 -301 -558 -301 l-121 0 0 575 0 575 119 0 c67 0 151
-6 190 -15z"/>
<path d="M2060 4178 c-1 -2 -1 -399 -1 -883 l-1 -880 168 0 169 0 0 880 0 880
-167 3 c-93 1 -168 1 -168 0z"/>
<path d="M7094 4172 c-9 -5 1 -38 33 -112 49 -115 193 -457 268 -640 26 -63
132 -324 236 -580 l188 -465 97 0 98 0 47 110 c26 61 113 270 194 465 141 339
372 887 468 1110 25 58 42 108 38 113 -4 4 -88 6 -187 5 l-179 -3 -231 -578
c-126 -318 -234 -579 -240 -580 -8 -2 -113 257 -390 958 l-79 200 -175 2 c-96
2 -180 0 -186 -5z"/>
<path d="M8925 4168 c-3 -7 -4 -404 -3 -883 l3 -870 485 0 485 0 0 145 0 145
-310 5 -310 5 -5 225 c-3 124 -3 231 -1 238 2 9 72 12 302 12 l300 0 -3 148
-3 147 -294 2 c-161 1 -297 5 -301 10 -5 4 -5 91 -2 193 l7 185 310 5 310 5 0
145 0 145 -483 3 c-381 2 -484 0 -487 -10z"/>
<path d="M10125 4168 c-3 -7 -4 -404 -3 -883 l3 -870 150 -3 c83 -1 160 0 172
3 l23 5 -3 348 -2 347 25 0 c21 0 56 -48 259 -352 l234 -353 208 0 c148 0 209
3 209 11 0 6 -57 86 -126 178 -309 407 -417 552 -413 555 2 2 29 11 59 21 143
45 262 156 305 286 24 72 34 192 24 272 -33 251 -190 392 -486 436 -106 16
-632 15 -638 -1z m535 -279 c106 -17 174 -59 213 -134 30 -57 30 -183 0 -240
-29 -55 -69 -94 -122 -118 -49 -22 -222 -44 -263 -34 l-28 7 0 259 c0 198 3
261 13 264 21 9 120 7 187 -4z"/>
</g>
</svg>
