<?xml version="1.0" standalone="no"?>
<!DOCTYPE svg PUBLIC "-//W3C//DTD SVG 20010904//EN"
 "http://www.w3.org/TR/2001/REC-SVG-20010904/DTD/svg10.dtd">
<svg version="1.0" xmlns="http://www.w3.org/2000/svg"
 width="1200.000000pt" height="660.000000pt" viewBox="0 0 1200.000000 660.000000"
 preserveAspectRatio="xMidYMid meet">
<metadata>
Created by potrace 1.13, written by Peter Selinger 2001-2015
</metadata>
<g transform="translate(0.000000,660.000000) scale(0.100000,-0.100000)"
fill="#000000" stroke="none">
<path d="M2250 5425 c-116 -15 -266 -47 -340 -72 -48 -16 -55 -21 -54 -43 2
-27 265 -804 276 -815 4 -4 29 0 55 9 142 47 398 62 564 32 397 -71 737 -326
914 -684 43 -88 95 -230 95 -261 0 -10 6 -25 13 -34 11 -17 19 -16 130 8 64
14 253 52 420 86 166 33 306 65 311 69 23 22 -67 306 -153 485 -329 686 -978
1146 -1731 1225 -127 13 -383 11 -500 -5z"/>
<path d="M990 4793 c-165 -173 -275 -327 -378 -531 -364 -716 -298 -1581 172
-2237 64 -89 199 -247 267 -310 l52 -49 21 25 c20 23 497 565 544 617 12 14
22 27 22 30 0 2 -19 22 -43 43 -52 45 -155 174 -204 255 -122 201 -178 409
-178 659 2 331 116 616 346 859 l80 84 -203 229 c-112 125 -243 274 -292 331
-48 56 -92 102 -96 102 -4 0 -54 -48 -110 -107z"/>
<path d="M8057 4868 c-8 -5 -11 -355 -8 -1325 l3 -1318 24 -77 c29 -91 94
-183 167 -239 27 -20 94 -56 150 -79 56 -24 149 -63 207 -87 58 -25 118 -51
134 -59 41 -20 38 -23 97 111 47 108 159 382 159 390 0 6 -83 44 -185 85 -102
40 -191 80 -197 87 -8 10 -10 338 -5 1264 6 993 4 1249 -6 1249 -171 5 -532 3
-540 -2z"/>
<path d="M6360 4305 c-8 -2 -49 -9 -90 -15 -173 -28 -377 -113 -523 -218 -103
-74 -244 -221 -313 -327 -229 -351 -288 -755 -167 -1138 25 -80 99 -245 125
-280 13 -18 33 -10 359 133 331 147 518 229 774 340 66 29 138 60 160 70 22
10 139 61 260 113 121 52 294 127 385 167 91 39 224 97 295 127 72 31 134 60
139 64 19 17 -101 270 -196 412 -172 258 -453 444 -788 523 -80 19 -141 26
-255 29 -82 2 -157 2 -165 0z m269 -559 c100 -22 205 -81 291 -163 46 -45 71
-76 65 -81 -6 -5 -50 -26 -100 -47 -49 -20 -114 -48 -143 -61 -29 -13 -55 -24
-57 -24 -2 0 -28 -11 -57 -24 -29 -13 -150 -65 -268 -116 -118 -51 -228 -98
-245 -106 -150 -68 -310 -132 -317 -128 -13 8 -9 137 7 213 56 269 250 463
525 526 41 9 80 18 85 20 26 9 157 3 214 -9z"/>
<path d="M10190 4304 c-77 -10 -241 -47 -257 -59 -18 -14 -30 26 117 -405 63
-183 51 -171 149 -151 67 14 211 14 280 1 190 -36 390 -184 478 -356 22 -43
48 -104 58 -134 10 -30 19 -58 21 -61 2 -3 68 7 146 23 79 15 204 40 278 55
74 14 141 31 148 36 18 14 15 35 -19 142 -110 337 -356 619 -684 782 -166 83
-330 122 -535 127 -80 2 -161 2 -180 0z"/>
<path d="M9386 3903 c-183 -186 -315 -461 -351 -733 -19 -134 -19 -220 0 -356
36 -273 156 -526 342 -724 41 -44 78 -80 83 -80 4 0 54 53 111 118 57 64 146
163 197 219 l93 103 -53 60 c-72 82 -124 169 -155 265 -24 71 -27 96 -27 215
0 120 3 144 27 215 33 99 85 189 156 266 l54 60 -20 22 c-11 12 -98 110 -193
217 -96 107 -179 196 -185 198 -7 2 -42 -28 -79 -65z"/>
<path d="M3771 3008 c-5 -13 -21 -63 -36 -113 -88 -286 -295 -546 -566 -706
-275 -164 -643 -213 -958 -128 -41 11 -78 16 -82 12 -4 -4 -43 -116 -88 -248
-44 -132 -105 -314 -136 -403 -31 -90 -54 -169 -52 -176 6 -15 118 -48 257
-75 466 -91 969 -22 1385 189 461 233 815 609 1018 1080 73 169 138 393 120
411 -5 5 -54 18 -109 28 -54 11 -243 49 -418 85 -176 36 -321 66 -323 66 -2 0
-7 -10 -12 -22z"/>
<path d="M11015 2783 c-100 -347 -469 -564 -830 -488 -38 8 -73 11 -77 7 -8
-8 -163 -450 -180 -515 -6 -22 -7 -42 -2 -46 12 -12 164 -48 251 -61 198 -28
441 6 652 91 358 146 640 449 761 820 33 101 36 122 18 136 -13 10 -527 114
-560 113 -12 0 -22 -17 -33 -57z"/>
<path d="M7075 2529 c-87 -115 -257 -219 -424 -260 -70 -18 -105 -21 -200 -17
-130 5 -208 30 -297 93 -26 19 -51 32 -55 29 -5 -3 -63 -87 -130 -187 -67
-100 -135 -199 -151 -219 -16 -21 -28 -45 -26 -54 2 -9 35 -35 73 -58 152 -92
344 -154 539 -176 346 -37 777 121 1035 380 60 60 161 186 161 200 0 8 -448
306 -473 316 -7 2 -30 -19 -52 -47z"/>
</g>
</svg>
