<?xml version="1.0" standalone="no"?>
<!DOCTYPE svg PUBLIC "-//W3C//DTD SVG 20010904//EN"
 "http://www.w3.org/TR/2001/REC-SVG-20010904/DTD/svg10.dtd">
<svg version="1.0" xmlns="http://www.w3.org/2000/svg"
 width="1200.000000pt" height="660.000000pt" viewBox="0 0 1200.000000 660.000000"
 preserveAspectRatio="xMidYMid meet">
<metadata>
Created by potrace 1.13, written by Peter Selinger 2001-2015
</metadata>
<g transform="translate(0.000000,660.000000) scale(0.100000,-0.100000)"
fill="#000000" stroke="none">
<path d="M6852 6165 c-106 -23 -198 -86 -263 -178 -96 -136 -104 -309 -24
-467 30 -58 56 -117 89 -205 15 -38 31 -79 36 -90 8 -18 39 -113 86 -265 9
-30 20 -73 25 -95 4 -22 13 -60 19 -85 6 -25 15 -74 21 -110 6 -36 14 -87 19
-115 4 -27 11 -60 15 -71 11 -36 -15 -41 -42 -8 -12 16 -23 35 -23 42 0 6 -4
12 -10 12 -5 0 -10 6 -10 13 0 6 -11 26 -25 42 -13 17 -54 71 -91 120 -106
143 -199 251 -334 385 -261 262 -620 530 -783 584 -119 40 -282 5 -378 -82
-109 -98 -155 -205 -146 -343 6 -89 23 -136 87 -244 78 -131 180 -376 180
-434 0 -11 4 -22 9 -25 5 -3 12 -23 15 -43 13 -78 24 -139 31 -175 11 -57 -14
-49 -66 20 -24 31 -46 59 -49 62 -3 3 -25 30 -50 60 -69 84 -245 255 -350 339
-245 198 -447 319 -568 341 -252 45 -494 -195 -453 -450 22 -137 97 -233 241
-314 240 -133 444 -319 626 -568 18 -24 41 -59 52 -78 10 -19 32 -57 48 -85
128 -218 215 -517 243 -836 6 -73 15 -110 37 -155 36 -76 123 -162 199 -199
52 -25 74 -30 161 -33 88 -3 108 -1 155 19 80 34 135 74 183 135 50 64 226
409 226 444 0 6 4 18 9 28 15 29 28 65 42 112 7 25 16 50 20 55 3 6 9 24 12
40 3 17 11 48 17 70 6 22 16 60 20 85 5 25 14 68 20 95 13 62 30 186 38 288 4
42 10 77 15 77 4 0 14 0 22 0 8 0 15 -6 15 -14 0 -8 9 -33 20 -55 11 -23 29
-59 40 -82 11 -22 20 -45 20 -50 0 -6 9 -29 20 -51 11 -23 20 -49 20 -58 0 -9
4 -20 8 -26 5 -5 14 -29 22 -54 7 -25 20 -65 28 -90 8 -25 18 -63 22 -85 5
-22 15 -67 23 -100 8 -33 20 -91 26 -130 7 -38 16 -95 21 -125 8 -44 23 -355
30 -590 6 -248 252 -443 505 -402 128 21 247 106 311 222 161 289 325 846 389
1320 89 665 -10 1497 -250 2100 -128 324 -173 406 -258 469 -69 51 -104 68
-179 86 -76 18 -103 18 -186 0z m-665 -1877 c-3 -8 -6 -5 -6 6 -1 11 2 17 5
13 3 -3 4 -12 1 -19z m12 -52 c9 -10 8 -16 -4 -26 -13 -11 -15 -8 -15 14 0 30
3 32 19 12z m11 -168 c0 -57 -4 -88 -9 -82 -11 11 -25 150 -16 164 17 28 25 1
25 -82z m677 -60 c-2 -29 -3 -6 -3 52 0 58 1 81 3 53 2 -29 2 -77 0 -105z"/>
<path d="M5770 1492 c-41 -20 -42 -36 -4 -40 l27 -4 -8 -336 c-4 -185 -11
-344 -16 -353 -4 -9 -5 -19 -2 -23 10 -9 186 -7 202 3 23 15 5 39 -31 43 l-33
3 0 320 c0 285 2 324 18 354 9 19 17 38 17 43 0 16 -133 9 -170 -10z"/>
<path d="M3605 1446 c-78 -23 -133 -56 -184 -112 -95 -103 -133 -238 -99 -343
46 -143 129 -233 248 -272 85 -27 258 -17 408 24 l42 11 0 87 c0 65 4 90 15
99 8 7 15 19 15 26 0 22 -191 19 -242 -3 -59 -26 -49 -41 28 -40 l66 2 0 -69
c0 -62 -2 -70 -23 -82 -37 -21 -155 -17 -219 6 -68 25 -114 62 -161 130 -46
67 -52 91 -52 205 0 95 9 155 24 155 5 0 9 6 9 14 0 7 19 31 43 53 93 85 237
94 345 21 35 -24 41 -33 36 -54 -5 -19 -2 -24 12 -24 25 1 107 78 100 95 -7
18 -101 60 -164 74 -66 14 -194 12 -247 -3z"/>
<path d="M7735 1427 c-3 -6 -4 -165 -3 -352 l3 -340 30 0 30 0 3 353 2 352
-30 0 c-17 0 -33 -6 -35 -13z"/>
<path d="M7910 1085 l0 -355 30 0 c17 0 30 3 30 8 1 21 2 679 1 690 -1 7 -14
12 -31 12 l-30 0 0 -355z"/>
<path d="M8533 1400 c-21 -9 -23 -16 -23 -84 0 -74 0 -75 -27 -78 -24 -3 -28
-8 -28 -33 0 -25 4 -30 28 -33 l27 -3 0 -191 c0 -173 2 -192 20 -218 22 -30
71 -43 117 -31 23 6 28 13 28 37 0 27 -3 29 -45 34 l-45 5 -3 182 -2 182 47 3
c46 3 48 4 48 33 0 29 -2 30 -47 33 l-48 3 0 85 c0 89 -2 92 -47 74z"/>
<path d="M4330 1242 c-129 -8 -240 -128 -240 -259 0 -135 78 -231 211 -262
186 -44 373 140 328 321 -19 79 -54 125 -129 173 -37 23 -91 32 -170 27z m87
-69 c52 -34 93 -140 93 -241 0 -90 -26 -133 -98 -162 -27 -11 -40 -11 -73 0
-42 14 -99 72 -99 100 0 9 -4 20 -8 25 -30 35 -42 177 -18 223 39 75 133 100
203 55z"/>
<path d="M4810 1215 c-153 -80 -195 -273 -89 -405 61 -75 167 -109 269 -86 96
23 143 59 190 146 33 62 34 177 1 235 -56 100 -121 135 -243 135 -67 -1 -92
-5 -128 -25z m179 -37 c66 -41 119 -222 91 -311 -17 -53 -36 -75 -79 -93 -43
-18 -65 -18 -103 2 -74 38 -118 134 -118 256 0 95 28 143 95 161 27 7 92 -1
114 -15z"/>
<path d="M5540 1230 c-90 -5 -147 -12 -171 -23 -46 -20 -103 -84 -119 -132
-34 -104 50 -225 158 -225 l42 0 0 -43 c0 -24 5 -48 12 -55 9 -9 2 -12 -35
-12 -66 0 -152 -35 -198 -81 -36 -36 -39 -43 -39 -96 1 -65 21 -97 85 -133 30
-17 54 -20 150 -20 135 0 184 17 240 83 38 45 50 87 42 150 -5 36 -15 51 -76
108 -44 40 -71 74 -71 86 0 12 21 41 49 68 61 59 80 113 61 179 -7 25 -21 53
-31 62 -27 24 -24 31 15 38 52 10 86 60 37 54 -9 -1 -77 -4 -151 -8z m-42 -66
c37 -26 72 -106 72 -167 0 -70 -30 -102 -95 -102 -55 0 -86 28 -109 97 -27 84
-17 149 28 180 19 13 81 9 104 -8z m58 -493 c72 -51 91 -105 58 -157 -26 -39
-65 -54 -145 -54 -113 0 -174 45 -172 126 2 55 43 92 118 105 78 13 101 10
141 -20z"/>
<path d="M6092 1207 c-135 -85 -163 -260 -62 -395 60 -80 157 -115 256 -92 53
13 140 73 129 89 -2 5 -31 -1 -63 -12 -52 -18 -63 -19 -104 -8 -60 17 -110 59
-142 121 -34 65 -34 89 -1 82 25 -4 52 4 132 39 24 11 47 19 51 19 5 0 22 6
38 14 16 8 41 19 57 25 35 13 34 28 -3 79 -41 57 -75 72 -162 72 -66 0 -79 -3
-126 -33z m172 -43 c37 -38 34 -62 -11 -81 -21 -8 -57 -24 -80 -34 -99 -45
-93 -46 -93 20 0 53 3 63 31 90 26 26 38 31 78 31 39 0 53 -5 75 -26z"/>
<path d="M6652 1232 c-14 -10 -9 -59 15 -152 15 -55 45 -187 66 -290 l12 -55
45 0 44 0 19 70 c10 39 22 90 27 115 5 25 14 65 20 90 6 25 15 65 19 90 l7 45
11 -40 c15 -53 44 -179 54 -235 25 -139 26 -140 80 -140 34 0 39 3 45 28 3 15
8 34 11 42 2 8 9 35 13 60 13 65 46 216 64 285 8 33 15 63 16 67 0 12 -38 28
-53 22 -16 -6 -16 -4 -46 -149 -12 -55 -26 -122 -32 -150 -6 -27 -14 -66 -18
-85 -7 -32 -8 -29 -23 45 -9 44 -23 107 -31 140 -8 33 -21 86 -28 119 -7 32
-19 65 -27 72 -33 34 -92 0 -92 -53 0 -12 -9 -57 -19 -100 -11 -43 -25 -105
-31 -138 -7 -33 -14 -66 -16 -73 -7 -23 -21 -4 -28 35 -8 49 -21 114 -36 183
-7 30 -16 75 -20 99 -9 54 -35 74 -68 53z"/>
<path d="M7364 1221 c-65 -40 -95 -113 -52 -127 16 -5 26 -1 40 17 51 66 55
69 103 69 57 0 80 -12 100 -50 17 -33 20 -90 4 -90 -5 0 -30 5 -55 11 -34 9
-55 9 -92 -1 -100 -28 -138 -82 -129 -184 5 -55 9 -64 46 -98 41 -39 60 -44
141 -39 19 1 47 11 62 22 34 24 34 24 41 -2 4 -16 12 -20 34 -17 l28 3 -3 200
c-4 223 -10 245 -67 283 -46 29 -155 31 -201 3z m167 -243 c38 -11 39 -12 39
-61 0 -78 -57 -137 -133 -137 -44 0 -97 59 -97 108 1 83 84 122 191 90z"/>
<path d="M8144 1218 c-49 -38 -55 -47 -75 -101 -22 -61 -25 -182 -6 -254 7
-29 28 -64 53 -92 l42 -46 82 0 82 0 37 41 c20 23 42 58 50 79 12 35 12 40 -5
52 -30 22 -51 15 -64 -19 -19 -53 -26 -62 -59 -82 -37 -21 -68 -16 -107 17
-28 25 -54 85 -54 130 l0 27 150 0 150 0 0 36 c0 72 -30 146 -76 192 -43 40
-47 42 -108 42 -50 0 -69 -5 -92 -22z m163 -77 c13 -14 23 -31 23 -37 0 -6 3
-26 6 -43 l7 -31 -112 0 c-121 0 -120 -1 -100 61 15 42 45 77 73 82 38 8 81
-5 103 -32z"/>
</g>
</svg>
