<?xml version="1.0" standalone="no"?>
<!DOCTYPE svg PUBLIC "-//W3C//DTD SVG 20010904//EN"
 "http://www.w3.org/TR/2001/REC-SVG-20010904/DTD/svg10.dtd">
<svg version="1.0" xmlns="http://www.w3.org/2000/svg"
 width="1200.000000pt" height="660.000000pt" viewBox="0 0 1200.000000 660.000000"
 preserveAspectRatio="xMidYMid meet">
<metadata>
Created by potrace 1.13, written by Peter Selinger 2001-2015
</metadata>
<g transform="translate(0.000000,660.000000) scale(0.100000,-0.100000)"
fill="#000000" stroke="none">
<path d="M3635 6209 c-192 -28 -383 -110 -557 -240 -51 -37 -94 -67 -95 -65
-2 2 -10 42 -17 88 -25 151 -36 158 -236 158 l-142 0 -29 -29 -29 -29 0 -1667
c0 -1812 -3 -1707 55 -1733 41 -19 338 -16 380 4 59 28 59 20 52 640 -3 310
-3 565 2 568 4 3 43 -22 87 -55 82 -61 222 -136 309 -164 146 -48 414 -65 550
-36 425 92 705 409 811 917 25 119 27 148 28 379 1 249 -3 296 -40 453 -34
144 -97 294 -169 408 -42 65 -161 192 -224 239 -59 43 -194 111 -257 130 -139
41 -334 55 -479 34z m177 -395 c123 -24 200 -65 288 -154 102 -102 157 -217
198 -413 24 -117 24 -527 0 -644 -66 -317 -210 -493 -458 -558 -79 -22 -280
-25 -360 -6 -170 39 -363 127 -446 202 -21 19 -21 20 -17 692 l4 672 27 23
c15 12 54 38 87 56 221 124 467 171 677 130z"/>
<path d="M6026 6209 c-120 -10 -284 -37 -376 -61 -41 -11 -86 -22 -100 -25
-14 -3 -63 -21 -110 -41 -119 -52 -130 -70 -130 -218 0 -105 2 -115 24 -141
23 -27 25 -27 72 -16 27 6 65 16 84 21 252 72 447 102 671 102 279 0 412 -53
478 -193 39 -83 49 -147 57 -377 8 -223 7 -226 -61 -209 -273 65 -593 87 -785
54 -359 -63 -597 -260 -676 -560 -25 -97 -25 -312 0 -410 49 -189 190 -362
356 -437 125 -57 293 -84 450 -73 96 7 251 41 325 71 138 56 302 151 368 212
35 33 42 24 52 -67 15 -143 41 -161 227 -161 144 0 182 14 193 72 4 18 5 445
2 948 -4 901 -4 916 -25 995 -74 272 -231 419 -522 489 -139 34 -367 44 -574
25z m503 -1444 c120 -22 158 -33 164 -49 3 -8 3 -120 0 -250 l-6 -235 -41 -29
c-79 -57 -198 -118 -291 -150 -135 -47 -187 -56 -325 -56 -127 -1 -138 1 -195
27 -137 64 -205 181 -205 352 0 135 53 251 147 319 45 33 168 79 238 90 65 10
432 -3 514 -19z"/>
<path d="M7480 6130 c-37 -37 -41 -25 145 -480 204 -502 465 -1143 621 -1530
63 -157 121 -298 128 -315 7 -16 23 -56 36 -88 l23 -58 -26 -62 c-14 -34 -42
-107 -63 -162 -80 -216 -153 -324 -253 -374 -72 -37 -198 -54 -296 -41 -115
15 -162 13 -185 -10 -18 -18 -20 -33 -20 -141 0 -171 16 -193 162 -223 103
-21 306 -21 401 0 163 37 282 117 387 259 80 109 144 245 280 595 73 190 202
519 209 535 5 11 25 61 44 110 65 166 188 478 272 690 46 116 118 298 160 405
42 107 80 204 85 215 5 11 28 67 50 125 22 58 45 114 49 125 5 11 28 67 50
125 23 58 46 114 51 125 17 38 40 116 40 135 0 11 -9 29 -20 40 -19 19 -33 20
-206 20 -159 0 -190 -3 -215 -17 -36 -22 -63 -76 -122 -253 -41 -120 -107
-313 -268 -780 -28 -80 -59 -170 -69 -200 -10 -30 -57 -167 -105 -305 -48
-137 -101 -293 -119 -345 -18 -52 -37 -95 -41 -95 -5 0 -22 36 -38 80 -16 44
-43 121 -62 170 -39 106 -65 180 -135 375 -28 80 -62 174 -75 210 -45 123
-246 689 -324 909 -92 261 -79 251 -343 251 -175 0 -189 -1 -208 -20z"/>
<path d="M9865 2479 c-325 -22 -629 -114 -845 -253 -95 -62 -121 -115 -77
-156 18 -18 31 -21 67 -17 25 3 131 15 235 28 262 31 737 34 830 5 137 -42
161 -76 159 -226 -3 -171 -59 -377 -222 -805 -10 -27 -34 -85 -52 -129 -41
-99 -44 -141 -10 -167 36 -27 72 -14 145 52 254 228 438 573 549 1029 33 135
36 156 36 304 0 142 -2 162 -20 191 -46 75 -218 125 -502 145 -81 5 -153 9
-160 9 -7 -1 -67 -6 -133 -10z"/>
<path d="M1332 2277 c-15 -16 -22 -36 -22 -64 0 -38 5 -45 73 -105 137 -123
352 -297 473 -383 332 -238 536 -367 829 -527 114 -62 497 -248 510 -248 3 0
34 -13 70 -30 36 -16 68 -30 71 -30 3 0 20 -6 37 -14 353 -154 1025 -343 1447
-406 291 -44 371 -54 630 -75 204 -17 825 -20 1000 -5 256 22 437 43 670 80
160 25 440 84 610 129 41 11 100 26 130 34 127 33 460 139 525 166 11 5 81 32
155 61 257 100 529 227 729 342 46 26 85 48 87 48 14 0 322 203 408 268 74 57
102 112 86 170 -5 21 -18 46 -28 55 -24 22 -86 47 -117 47 -14 0 -110 -33
-213 -74 -668 -265 -1253 -428 -1972 -550 -215 -37 -444 -65 -760 -93 -244
-22 -1057 -25 -1300 -5 -327 26 -676 68 -900 108 -47 8 -107 19 -135 24 -414
71 -1006 228 -1430 378 -138 49 -381 141 -440 167 -16 7 -79 34 -140 60 -60
26 -130 57 -155 68 -94 41 -440 213 -539 269 -58 32 -106 58 -109 58 -2 0 -16
8 -30 18 -118 82 -208 103 -250 59z"/>
</g>
</svg>
