<?xml version="1.0" standalone="no"?>
<!DOCTYPE svg PUBLIC "-//W3C//DTD SVG 20010904//EN"
 "http://www.w3.org/TR/2001/REC-SVG-20010904/DTD/svg10.dtd">
<svg version="1.0" xmlns="http://www.w3.org/2000/svg"
 width="600.000000pt" height="330.000000pt" viewBox="0 0 600.000000 330.000000"
 preserveAspectRatio="xMidYMid meet">

<g transform="translate(0.000000,330.000000) scale(0.100000,-0.100000)"
fill="#000000" stroke="none">
<path d="M2237 3090 c-36 -11 -55 -27 -73 -61 -8 -16 -61 -329 -119 -696 -58
-367 -144 -910 -190 -1206 -65 -407 -83 -543 -75 -557 26 -48 40 -51 311 -48
l254 3 67 425 c37 234 74 448 83 477 18 59 56 97 113 113 20 5 125 10 232 10
305 0 459 27 626 111 194 97 323 255 405 499 57 167 77 376 48 495 -43 177
-165 305 -360 376 -168 61 -166 61 -754 65 -298 2 -553 -1 -568 -6z"/>
<path d="M4034 2293 c-90 -419 -294 -674 -629 -790 -147 -51 -243 -64 -508
-70 -214 -5 -251 -8 -269 -23 -19 -15 -31 -78 -109 -566 -49 -302 -89 -561
-89 -577 0 -15 9 -36 20 -47 19 -19 33 -20 248 -20 160 0 234 4 251 13 53 27
59 48 111 375 28 172 57 328 64 347 25 60 50 68 230 76 230 11 383 54 520 148
189 130 310 362 346 660 17 139 -1 264 -52 365 -21 40 -104 136 -119 136 -5 0
-11 -12 -15 -27z"/>
</g>
</svg>
