<svg id="SVG" xmlns="http://www.w3.org/2000/svg" width="700" height="700" viewBox="0 0 700 700">
  <defs>
    <style>
      .cls-1 {
        fill-rule: evenodd;
      }
    </style>
  </defs>
  <path id="Paypal" class="cls-1" d="M171.36,387.2h-15c-2.264,0-4.751.334-5.72-1-0.79-1.084-.513-2.648-0.16-4.064,0.114-.458.045-0.858,0.16-1.315,0.2-.8.194-1.667,0.4-2.511,0.652-2.667.709-5.624,1.36-8.288,0.23-.943.165-1.891,0.4-2.83,0.16-.637.148-1.346,0.32-2.032,0.546-2.179.59-4.589,1.12-6.775,0.19-.785.123-1.525,0.32-2.311,0.526-2.1.555-4.431,1.08-6.535q0.1-.777.2-1.554c0.38-1.516.423-3.226,0.8-4.742,0.114-.458.045-0.858,0.16-1.315,0.3-1.191.35-2.551,0.64-3.746,0.027-.266.053-0.532,0.08-0.8,0.3-1.191.35-2.551,0.64-3.746,0.027-.266.053-0.532,0.08-0.8,0.217-.868.269-1.879,0.48-2.75,0.027-.265.053-0.531,0.08-0.8,0.653-2.649.716-5.632,1.36-8.288,0.2-.844.2-1.716,0.4-2.511q0.2-1.415.4-2.829c0.116-.465.111-1,0.24-1.515,0.545-2.177.59-4.592,1.12-6.774,0.027-.266.053-0.531,0.08-0.8,0.414-1.7.328-3.2,1.48-4.184,0.124-.106.185-0.3,0.32-0.4a6.4,6.4,0,0,1,2.24-1h31.28a11.415,11.415,0,0,1,2.16.08c0.514,0.114,1.126-.016,1.56.079h0.72c0.623,0.14,1.393.1,2,.239h0.44c0.522,0.123,1.111.1,1.68,0.24,1.695,0.416,3.39.634,4.96,1.155,5.99,1.99,10.156,5.367,12.48,11a27.183,27.183,0,0,1,1,4.144c0.124,0.535-.041,1.032.08,1.594a9.564,9.564,0,0,1,.04,2.152c-0.119.537,0.007,1.148-.12,1.713a11.9,11.9,0,0,0-.28,2.272,10.076,10.076,0,0,1,1.84,1.156,14.335,14.335,0,0,1,5.48,7.611c0.3,0.907.333,1.779,0.56,2.789a15.8,15.8,0,0,1,.24,3.348,8.3,8.3,0,0,1-.08,1.634v0.717c-0.1.438-.048,0.954-0.16,1.434-0.343,1.47-.4,2.978-0.8,4.384a44.121,44.121,0,0,1-1.44,4.742c-2.106,5.082-4.9,9.274-9.12,12.234a33.045,33.045,0,0,1-6.6,3.347,38.966,38.966,0,0,1-4.92,1.275c-0.875.225-1.819,0.2-2.68,0.4h-0.52c-0.782.173-1.785,0.061-2.6,0.239l-5.52.08a4.139,4.139,0,0,0-2.24,1.355c-0.86,1.174-.844,2.774-1.24,4.423-0.108.45-.052,0.829-0.16,1.275-0.175.718-.227,1.553-0.4,2.271-0.027.266-.053,0.532-0.08,0.8-0.195.794-.195,1.667-0.4,2.511-0.573,2.355-.627,4.942-1.2,7.292-0.113.466-.048,0.853-0.16,1.315q-0.26,1.455-.52,2.91a4.048,4.048,0,0,1-1.88,2.311c-1.1.57-3.1,0.4-4.76,0.4h-9.96c-2.182,0-3.878.289-4.76-1.076a4.227,4.227,0,0,1-.04-2.869c0.195-.8.121-1.553,0.32-2.351s0.2-1.667.4-2.51A13.009,13.009,0,0,0,171.36,387.2ZM276.8,322.678h21.16a11.855,11.855,0,0,1,2.2.04l1.72,0.04c1.2,0.268,2.492.171,3.64,0.478a22.982,22.982,0,0,1,6.96,2.67,13.181,13.181,0,0,1,4.96,6.3,23.261,23.261,0,0,1,.8,3.507,12.991,12.991,0,0,1,.08,2.989,29.712,29.712,0,0,1-1.04,7.053c-0.176.581-.214,1.076-0.4,1.634-0.351,1.052-.721,2.112-1.16,3.108a20.173,20.173,0,0,1-10.12,10.441,35.978,35.978,0,0,1-4.08,1.434c-0.722.217-1.485,0.3-2.2,0.479-0.686.176-1.324,0.077-2.04,0.239-0.327.073-.821,0.085-1.16,0.159h-0.6a12.347,12.347,0,0,1-2.36.08h-4.24c-1.925,0-3.969-.165-5,0.717-1.059.906-.983,2.177-1.36,3.746-0.027.266-.053,0.531-0.08,0.8-0.195.794-.195,1.666-0.4,2.51-0.572,2.356-.631,4.936-1.2,7.293-0.387,1.6-.219,3.4-1.2,4.383a3.538,3.538,0,0,1-1.6.877,9.62,9.62,0,0,1-2.08.04h-7.88a6.613,6.613,0,0,1-1.72-.04c-1.431-.465-1.49-1.953-1.08-3.586,0.14-.56.128-1.187,0.28-1.794,0.546-2.179.58-4.592,1.12-6.774,0.194-.784.124-1.528,0.32-2.311,0.545-2.181.58-4.594,1.12-6.775,0.113-.457.046-0.857,0.16-1.315,0.3-1.19.345-2.556,0.64-3.746,0.113-.457.046-0.857,0.16-1.315,0.3-1.19.345-2.553,0.64-3.746,0.114-.461.046-0.85,0.16-1.315,0.171-.694.227-1.533,0.4-2.231,0.027-.266.053-0.532,0.08-0.8,0.171-.7.231-1.532,0.4-2.232,0.027-.265.053-0.531,0.08-0.8,0.2-.794.195-1.667,0.4-2.51,0.533-2.188.589-4.593,1.12-6.775,0.154-.631.083-1.2,0.24-1.833,0.5-2.024.549-4.264,1.04-6.3,0.278-1.149.177-2.479,0.72-3.347a3.35,3.35,0,0,1,1.64-1.315A4.449,4.449,0,0,0,276.8,322.678Zm157.28,0h18.16c5.424,0,10.314.034,14.12,1.594,0.517,0.212,1,.309,1.48.558a13.532,13.532,0,0,1,6.72,6.934,24,24,0,0,1,.96,3.945v0.4a8.09,8.09,0,0,1,.08,2.59v0.956a11.585,11.585,0,0,1-.16,1.315v0.439c-0.342,1.455-.476,3.01-0.88,4.343-0.089.3-.068,0.518-0.16,0.8-0.413,1.252-.771,2.5-1.28,3.666a20.323,20.323,0,0,1-10.24,10.72,35.978,35.978,0,0,1-4.08,1.434c-0.722.217-1.485,0.3-2.2,0.479-0.686.176-1.324,0.077-2.04,0.239-0.327.073-.821,0.085-1.16,0.159h-0.6a12.347,12.347,0,0,1-2.36.08H446.2c-1.925,0-3.969-.165-5,0.717-1.322,1.131-1.045,3.064-1.52,5.021-0.2.813-.189,1.691-0.4,2.551-0.574,2.336-.631,4.914-1.2,7.252-0.368,1.511-.176,3.214-1.04,4.224-0.529.619-1.512,0.6-2.68,0.6H425.4a6.613,6.613,0,0,1-1.72-.04c-1.29-.419-1.478-1.589-1.12-3.068,0.027-.253.053-0.5,0.08-0.757,0.158-.646.153-1.347,0.32-2.033,0.5-2.031.55-4.266,1.04-6.3,0.19-.786.123-1.525,0.32-2.311,0.421-1.685.462-3.573,0.88-5.26,0.114-.462.046-0.851,0.16-1.315,0.536-2.181.592-4.588,1.12-6.775,0.2-.844.2-1.715,0.4-2.51,0.027-.266.053-0.532,0.08-0.8,0.171-.7.228-1.536,0.4-2.232,0.027-.266.053-0.531,0.08-0.8,0.171-.7.228-1.536,0.4-2.232,0.113-.458.048-0.856,0.16-1.315,0.291-1.195.345-2.554,0.64-3.745,0.113-.458.046-0.858,0.16-1.316,0.379-1.515.424-3.225,0.8-4.742,0.156-.631.085-1.2,0.24-1.833,0.494-2.01.542-4.244,1.04-6.256,0.312-1.262.181-2.96,0.8-3.9a3.4,3.4,0,0,1,1.44-1.236A9.687,9.687,0,0,0,434.08,322.678Zm102.2,0h8.48c1.379,0,2.806-.14,3.4.638,0.618,0.808.331,2.261,0.08,3.307-0.107.446-.051,0.826-0.16,1.275-0.572,2.356-.634,4.936-1.2,7.293-0.2.844-.2,1.715-0.4,2.511-0.25,1.015-.238,2.089-0.48,3.068q-0.08.638-.16,1.275c-0.392,1.611-.442,3.409-0.84,5.021l-0.12,1.036c-0.29,1.2-.346,2.554-0.64,3.746-0.113.458-.046,0.858-0.16,1.315-0.3,1.191-.353,2.55-0.64,3.746-0.027.266-.053,0.531-0.08,0.8-0.174.7-.232,1.532-0.4,2.232-0.027.265-.053,0.531-0.08,0.8-0.174.7-.232,1.531-0.4,2.231-0.027.266-.053,0.532-0.08,0.8-0.116.465-.112,1-0.24,1.514-0.543,2.18-.595,4.588-1.12,6.775-0.149.619-.09,1.174-0.24,1.793-0.41,1.691-.464,3.573-0.88,5.26-0.027.266-.053,0.532-0.08,0.8-0.362,1.5-.373,2.5-1.48,3.268a5.733,5.733,0,0,1-3.2.518H527.2c-1.364-.325-1.733-1.394-1.36-2.949,0.027-.266.053-0.531,0.08-0.8,0.624-2.5.662-5.3,1.28-7.81,0.194-.787.129-1.526,0.32-2.312,0.534-2.2.579-4.619,1.12-6.814,0.113-.458.046-0.857,0.16-1.315,0.339-1.359.392-2.9,0.72-4.264,0.11-.459.046-0.857,0.16-1.315,0.3-1.19.347-2.556,0.64-3.746,0.113-.458.049-0.856,0.16-1.315,0.275-1.132.276-2.375,0.56-3.546,0.2-.809.187-1.695,0.4-2.551,0.159-.636.151-1.343,0.32-2.032,0.618-2.52.674-5.286,1.28-7.811,0.149-.619.09-1.174,0.24-1.793,0.533-2.2.58-4.619,1.12-6.814,0.244-.993.126-2.574,0.72-3.188a2.661,2.661,0,0,1,.64-0.478A4.4,4.4,0,0,0,536.28,322.678ZM289.12,334.872a1.458,1.458,0,0,1-.36.08,2.127,2.127,0,0,0-1,.8c-0.433.764-.32,2.068-0.56,3.028-0.116.465-.111,1-0.24,1.515-0.544,2.178-.589,4.587-1.12,6.774-0.243,1-.248,2.037-0.48,2.989a10.248,10.248,0,0,0-.12,1.036,7.368,7.368,0,0,0,1.76.04h3.08a9.563,9.563,0,0,0,1.88-.08c0.524-.113.981,0.032,1.48-0.08a16.321,16.321,0,0,0,3.4-.8,7.849,7.849,0,0,0,4.28-4.662,15.371,15.371,0,0,0,.48-2.152,9.481,9.481,0,0,0,.08-3.905,5.345,5.345,0,0,0-2.36-3.387C297.04,334.665,292.792,334.878,289.12,334.872Zm153.4,16.259h3.92a11.082,11.082,0,0,0,2.04-.04h0.8c0.744-.162,1.6-0.114,2.28-0.279,0.613-.149,1.118-0.127,1.68-0.319a11.046,11.046,0,0,0,3.24-1.833,3.094,3.094,0,0,0,.48-0.6,9.656,9.656,0,0,0,1.52-2.789c0.163-.5.184-0.934,0.32-1.475a8.25,8.25,0,0,0-.88-6.615c-1.5-2.014-5.131-2.311-8.68-2.311-1.559,0-3.372-.219-4.04.678a4.488,4.488,0,0,0-.48,1.713c-0.173.718-.228,1.553-0.4,2.272-0.027.265-.053,0.531-0.08,0.8-0.369,1.517-.436,3.219-0.8,4.742-0.111.463-.047,0.849-0.16,1.315-0.193.793-.194,1.663-0.4,2.51A11.677,11.677,0,0,0,442.52,351.131Zm-104-9.126c4.222-.061,8.2.65,10.72,2.312a8.786,8.786,0,0,1,2.28,2.191,2.794,2.794,0,0,0,.64.877,3.9,3.9,0,0,0,.16-1.036c0.287-1.178.233-2.492,1.12-3.069,0.716-.464,2.34-0.279,3.48-0.278H363c1.968,0,3.317-.17,3.8,1.354a2.475,2.475,0,0,1-.08,1.2c-0.168.695-.162,1.39-0.32,2.032s-0.084,1.2-.24,1.833c-0.411,1.672-.474,3.547-0.88,5.221-0.027.265-.053,0.531-0.08,0.8-0.212.869-.266,1.884-0.48,2.749-0.027.266-.053,0.532-0.08,0.8-0.216.867-.271,1.881-0.48,2.75-0.027.265-.053,0.531-0.08,0.8-0.239.959-.231,2.03-0.48,3.028-0.159.637-.151,1.344-0.32,2.033-0.573,2.335-.623,4.915-1.2,7.252-0.113.458-.046,0.858-0.16,1.315-0.3,1.192-.345,2.551-0.64,3.746-0.137.555-.08,1.077-0.24,1.594a3.2,3.2,0,0,1-2.32,2.152,9.851,9.851,0,0,1-2.24.04h-4.72c-1.035,0-3.463.172-4.08-.2-1.649-.992-0.551-2.913-0.48-4.742h-0.08a4.985,4.985,0,0,1-.88.836,21.68,21.68,0,0,1-2.08,1.594,23.019,23.019,0,0,1-6.64,2.949l-2.16.4h-0.4a11.771,11.771,0,0,1-3.92.08l-1.04-.04c-1.018-.233-2.048-0.229-3-0.518-6.079-1.846-9.315-5.379-11.16-11.437a18.174,18.174,0,0,1-.76-5.3q0.02-1.075.04-2.152c0.146-.641.078-1.34,0.24-1.993a34.847,34.847,0,0,1,1.2-4.782,38.591,38.591,0,0,1,1.68-3.785,25.162,25.162,0,0,1,11.4-10.64l0.72-.239a32.527,32.527,0,0,1,3.32-1.116c0.536-.161,1.117-0.189,1.64-0.319l2.04-.239A5.013,5.013,0,0,0,338.52,342.005Zm157.28,0c6.165-.105,11.562,1.436,13.6,5.42h0.04v-0.04a3.28,3.28,0,0,0,.16-0.956c0.254-1.055.2-2.478,0.96-3.029,0.744-.538,2.232-0.4,3.52-0.4h6.32c1.882,0,3.222-.132,3.68,1.315a9.586,9.586,0,0,1-.36,3.148q-0.1.756-.2,1.514c-0.453,1.863-.511,3.911-0.96,5.778-0.281,1.167-.284,2.387-0.56,3.507-0.027.266-.053,0.531-0.08,0.8-0.211.87-.271,1.879-0.48,2.75-0.027.265-.053,0.531-0.08,0.8-0.174.7-.232,1.531-0.4,2.231-0.027.266-.053,0.531-0.08,0.8-0.156.624-.157,1.32-0.32,1.993-0.532,2.189-.591,4.589-1.12,6.774-0.113.465-.045,0.853-0.16,1.315-0.335,1.348-.394,2.877-0.72,4.224-0.136.56-.08,1.077-0.24,1.594a3.222,3.222,0,0,1-2,2.032,8.475,8.475,0,0,1-2.44.12h-4.84c-1.258,0-3.414.21-4.2-.279-1.478-.92-0.406-3.028-0.36-4.662H504.4a3.43,3.43,0,0,1-1,.956c-0.4.3-.753,0.7-1.16,1-0.378.271-.761,0.467-1.16,0.718a24.362,24.362,0,0,1-3.68,1.912c-0.82.337-1.739,0.539-2.6,0.8-0.922.277-1.909,0.258-2.88,0.479h-0.6a8.735,8.735,0,0,1-3,0c-0.527-.118-0.973.042-1.48-0.08a33.527,33.527,0,0,1-3.64-.8,15.113,15.113,0,0,1-7.28-5.22c-0.511-.707-0.94-1.479-1.4-2.232a19.754,19.754,0,0,1-1.76-5.021c-0.134-.5-0.081-0.95-0.2-1.475-0.071-.312-0.088-0.759-0.16-1.075v-0.8a8.554,8.554,0,0,1,.04-2.631c0.115-.509,0-0.988.12-1.474,0.276-1.142.384-2.357,0.72-3.387,0.053-.253.107-0.5,0.16-0.757a30.335,30.335,0,0,1,1.52-3.945,24.987,24.987,0,0,1,7.6-9.206c0.934-.657,1.927-1.231,2.92-1.833,0.3-.179.6-0.235,0.92-0.4a26.145,26.145,0,0,1,5.72-1.913c0.812-.2,1.7-0.135,2.52-0.319A5.013,5.013,0,0,0,495.8,342.005Zm-122.12,1h8.24c1.546,0,3.142-.105,4.08.478,1.5,0.932,1.931,4.2,2.56,6.1,0.908,2.745,1.649,5.628,2.56,8.368,0.23,0.693.328,1.337,0.56,2.032,0.388,1.163.68,2.386,1.08,3.587,0.233,0.7.5,1.454,0.68,2.192h0.08v-0.04a11.125,11.125,0,0,0,1.12-1.674c0.8-1.192,1.606-2.4,2.44-3.586,2.551-3.627,5.083-7.321,7.56-11,0.9-1.342,1.8-2.673,2.72-3.985,0.648-.925,1.09-1.886,2.24-2.311a11.074,11.074,0,0,1,3.2-.159h6.6c1.737,0,2.807-.148,3.48.956a2.049,2.049,0,0,1,.12,1.474,11.483,11.483,0,0,1-1.52,2.232c-1.286,1.823-2.476,3.674-3.76,5.5-0.893,1.27-1.854,2.536-2.72,3.826-2.359,3.511-4.811,6.956-7.24,10.4-3.1,4.4-6.109,8.847-9.2,13.231-2.858,4.052-5.633,8.153-8.48,12.194-0.931,1.321-1.755,2.692-2.72,3.984-0.916,1.227-2.258,1.116-4.36,1.116h-6.48c-1.981,0-3.448.248-3.96-1.275a2.09,2.09,0,0,1,.16-1.434c0.73-1.19,1.677-2.292,2.48-3.428,2.013-2.846,3.993-5.676,6-8.527,0.577-.82,1.174-1.639,1.76-2.471a5.581,5.581,0,0,0,.88-1.235,3.12,3.12,0,0,1-.24-0.718c-0.2-.509-0.337-1.1-0.56-1.634-0.718-1.733-1.159-3.592-1.84-5.379-0.457-1.2-.864-2.506-1.32-3.706-0.2-.523-0.266-1.037-0.48-1.554-0.464-1.123-.722-2.352-1.2-3.507s-0.747-2.433-1.24-3.626c-0.992-2.4-1.687-5.017-2.6-7.452l-1.8-5.38a3.5,3.5,0,0,1-.4-2.431,2.092,2.092,0,0,1,.92-1A5.411,5.411,0,0,0,373.68,343Zm-32.44,10.161a4.682,4.682,0,0,1-.96.04c-0.615.144-1.277,0.143-1.88,0.319a13.867,13.867,0,0,0-3.92,1.793,12.431,12.431,0,0,0-4.32,5.778,14.392,14.392,0,0,0-.4,1.674,10.266,10.266,0,0,0,.16,5.539,7.825,7.825,0,0,0,5.24,4.822,12,12,0,0,0,14.6-7.492,19.933,19.933,0,0,0,.56-2.231v-0.4a8.523,8.523,0,0,0-.4-4.383C348.633,355.175,345.959,353.175,341.24,353.163Zm157.28,0a4.682,4.682,0,0,1-.96.04c-0.615.144-1.277,0.143-1.88,0.319a13.013,13.013,0,0,0-4.4,2.231,3.773,3.773,0,0,0-.4.239,14.317,14.317,0,0,0-3.44,5.1,14.72,14.72,0,0,0-.44,1.833,10.029,10.029,0,0,0-.08,4.3,12.6,12.6,0,0,0,.56,1.753,7.739,7.739,0,0,0,4.96,4.145,15.163,15.163,0,0,0,7.56-.319,12.109,12.109,0,0,0,7.04-7.173,21.5,21.5,0,0,0,.56-2.192v-0.438a8.571,8.571,0,0,0-.32-4.144C506.085,355.257,503.307,353.175,498.52,353.163Z"/>
</svg>
