<?xml version="1.0" standalone="no"?>
<!DOCTYPE svg PUBLIC "-//W3C//DTD SVG 20010904//EN"
 "http://www.w3.org/TR/2001/REC-SVG-20010904/DTD/svg10.dtd">
<svg version="1.0" xmlns="http://www.w3.org/2000/svg"
 width="600.000000pt" height="330.000000pt" viewBox="0 0 600.000000 330.000000"
 preserveAspectRatio="xMidYMid meet">

<g transform="translate(0.000000,330.000000) scale(0.100000,-0.100000)"
fill="#000000" stroke="none">
<path d="M467 2368 c-22 -20 -38 -78 -142 -530 -64 -280 -115 -518 -113 -530
3 -22 7 -23 118 -26 63 -1 121 2 129 7 7 5 33 82 56 171 24 90 49 166 56 170
7 5 76 8 153 8 283 1 444 80 529 260 27 57 32 81 35 165 5 119 -11 171 -73
232 -74 74 -108 81 -436 89 l-286 7 -26 -23z m450 -208 c53 -24 83 -70 83
-128 0 -118 -112 -188 -290 -180 l-75 3 -3 38 c-3 37 27 187 49 245 15 38 25
42 114 42 57 0 92 -6 122 -20z"/>
<path d="M3331 2373 c-20 -16 -39 -89 -142 -533 -66 -283 -117 -525 -114 -537
5 -22 9 -23 124 -23 83 0 122 4 129 13 5 6 26 77 47 157 20 80 43 155 51 167
14 22 20 22 157 22 163 0 259 20 358 72 77 41 151 123 178 194 76 202 32 370
-114 443 -57 28 -76 30 -381 37 -253 6 -272 5 -293 -12z m445 -212 c22 -10 51
-31 63 -47 20 -25 22 -38 19 -93 -4 -59 -7 -66 -45 -101 -50 -47 -121 -70
-219 -70 -95 0 -104 4 -104 49 0 53 48 242 67 263 23 26 162 25 219 -1z"/>
<path d="M5242 2363 c-17 -15 -38 -92 -106 -393 -104 -460 -142 -651 -133
-673 5 -15 23 -17 121 -17 l115 0 11 42 c22 81 240 1003 240 1015 0 6 -7 19
-16 27 -24 24 -204 23 -232 -1z"/>
<path d="M5530 2370 c0 -5 9 -10 20 -10 18 0 20 -7 20 -60 0 -33 4 -60 10 -60
6 0 10 27 10 60 0 53 2 60 19 60 11 0 23 5 26 10 4 6 -15 10 -49 10 -31 0 -56
-4 -56 -10z"/>
<path d="M5656 2349 c-9 -48 -7 -109 4 -109 6 0 10 19 10 42 0 45 9 44 26 -5
15 -45 31 -44 45 2 16 52 29 52 29 1 0 -22 5 -40 10 -40 11 0 13 61 4 109 -9
45 -29 38 -44 -14 -7 -25 -16 -45 -20 -45 -4 0 -13 20 -20 45 -15 52 -35 59
-44 14z"/>
<path d="M1565 2123 c-80 -10 -134 -26 -150 -43 -11 -12 -18 -43 -22 -92 -7
-87 1 -95 63 -73 64 22 201 38 277 32 61 -4 74 -8 94 -31 25 -30 29 -62 12
-99 -13 -30 -54 -37 -203 -37 -281 -1 -426 -101 -428 -297 -1 -89 14 -134 57
-172 45 -39 91 -51 197 -51 86 0 90 1 183 50 52 28 98 50 101 50 2 0 4 -17 2
-37 l-3 -38 106 -3 c91 -2 108 0 121 15 18 19 116 456 125 555 8 81 -3 124
-44 169 -46 51 -104 84 -171 98 -49 10 -249 13 -317 4z m224 -462 c13 -8 13
-20 3 -73 -19 -102 -70 -151 -172 -163 -106 -12 -160 21 -160 100 0 51 20 79
73 106 54 28 227 48 256 30z"/>
<path d="M2215 2110 c-22 -24 -24 -8 71 -513 35 -192 62 -357 59 -366 -3 -10
-44 -78 -90 -152 -47 -73 -84 -141 -83 -149 5 -24 224 -33 257 -11 45 31 738
1169 728 1195 -5 13 -27 16 -126 16 -106 0 -122 -2 -138 -19 -15 -16 -114
-172 -301 -475 -21 -34 -26 -38 -36 -24 -7 9 -27 108 -45 220 -39 246 -46 275
-71 288 -10 5 -61 10 -113 10 -81 0 -96 -3 -112 -20z"/>
<path d="M4390 2119 c-119 -17 -133 -30 -145 -140 -9 -71 4 -84 61 -64 59 20
207 38 279 33 86 -5 115 -26 115 -81 0 -78 -5 -80 -196 -88 -93 -4 -187 -13
-209 -19 -162 -48 -245 -161 -232 -316 10 -129 85 -186 245 -186 85 0 89 1
185 51 54 28 100 51 102 51 3 0 5 -18 5 -40 l0 -40 103 0 c67 0 109 4 120 13
17 12 43 114 106 423 36 175 37 204 12 259 -22 50 -68 90 -141 124 -50 23 -69
25 -200 27 -80 2 -174 -2 -210 -7z m264 -511 c-1 -70 -38 -138 -86 -161 -49
-23 -140 -31 -182 -17 -46 15 -70 58 -63 112 3 21 11 46 18 54 36 43 154 74
269 70 l45 -1 -1 -57z"/>
</g>
</svg>
