<?xml version="1.0" standalone="no"?>
<!DOCTYPE svg PUBLIC "-//W3C//DTD SVG 20010904//EN"
 "http://www.w3.org/TR/2001/REC-SVG-20010904/DTD/svg10.dtd">
<svg version="1.0" xmlns="http://www.w3.org/2000/svg"
 width="1200.000000pt" height="660.000000pt" viewBox="0 0 1200.000000 660.000000"
 preserveAspectRatio="xMidYMid meet">
<metadata>
Created by potrace 1.13, written by Peter Selinger 2001-2015
</metadata>
<g transform="translate(0.000000,660.000000) scale(0.100000,-0.100000)"
fill="#000000" stroke="none">
<path d="M1177 4269 c-178 -42 -334 -213 -349 -384 -3 -28 -6 -31 -63 -41
-168 -30 -319 -181 -357 -357 -23 -111 6 -253 73 -353 101 -150 300 -232 469
-193 24 5 48 15 52 22 18 28 2 172 -23 201 -4 5 -30 3 -59 -4 -67 -16 -142 -1
-200 41 -51 37 -76 78 -91 148 -22 108 20 200 119 259 42 24 56 27 132 26 67
-1 97 -6 145 -27 70 -30 76 -24 44 49 -14 32 -23 77 -27 129 -4 69 -1 87 18
128 73 156 278 191 393 69 82 -89 94 -177 42 -320 -25 -70 -25 -88 3 -72 76
42 197 60 270 41 59 -16 146 -101 161 -156 26 -97 8 -178 -56 -246 -68 -73
-146 -92 -264 -63 -23 5 -28 2 -38 -28 -19 -53 -26 -155 -12 -172 23 -27 118
-40 203 -28 102 15 186 58 264 136 181 181 179 465 -5 651 -61 61 -152 109
-228 120 l-51 7 -16 71 c-55 245 -306 403 -549 346z"/>
<path d="M3502 3844 c-18 -8 -41 -29 -52 -47 -29 -47 -26 -90 11 -132 27 -31
37 -35 78 -35 26 0 56 7 69 16 27 19 52 65 52 96 0 37 -36 86 -76 103 -42 18
-39 18 -82 -1z"/>
<path d="M3834 3846 c-34 -15 -72 -58 -80 -92 -6 -25 16 -74 48 -104 25 -23
103 -27 128 -7 32 25 50 63 50 103 0 35 -5 47 -35 73 -20 17 -40 31 -45 31 -4
0 -14 2 -22 5 -7 2 -27 -2 -44 -9z"/>
<path d="M4344 3846 c-77 -34 -98 -118 -43 -181 27 -31 37 -35 78 -35 56 0 88
20 107 66 24 57 -3 116 -68 150 -32 17 -35 17 -74 0z"/>
<path d="M4664 3841 c-68 -41 -89 -94 -59 -151 22 -42 53 -60 106 -60 41 0 51
4 78 35 37 42 40 85 11 132 -19 31 -65 63 -92 63 -7 0 -27 -9 -44 -19z"/>
<path d="M10754 3851 c-5 -5 -36 -23 -69 -40 -33 -18 -64 -37 -70 -42 -6 -6
-9 -210 -7 -557 1 -301 2 -553 2 -559 0 -10 24 -13 85 -13 l85 0 0 130 0 130
61 80 c34 45 67 79 73 77 6 -2 49 -92 97 -201 47 -108 90 -201 97 -208 14 -14
153 -22 171 -9 12 8 9 21 -19 83 -18 40 -46 100 -61 133 -45 100 -75 166 -118
258 -23 49 -41 96 -41 105 0 9 47 78 105 154 73 96 102 140 92 144 -8 2 -51 4
-98 2 l-84 -3 -57 -80 c-32 -44 -90 -127 -129 -185 -39 -58 -75 -106 -80 -108
-5 -2 -9 150 -9 352 0 195 -4 357 -8 360 -5 3 -13 1 -18 -3z"/>
<path d="M11430 3822 c-34 -33 -40 -45 -40 -80 0 -34 6 -48 35 -77 30 -30 42
-35 81 -35 39 0 51 5 80 34 28 28 34 41 34 77 0 36 -6 47 -40 81 -31 29 -49
38 -75 38 -26 0 -44 -9 -75 -38z"/>
<path d="M5925 3811 l-70 -38 -3 -126 -3 -126 -62 -3 -62 -3 -3 -54 c-5 -95
-1 -101 68 -101 l60 0 0 -283 c0 -323 5 -352 69 -410 27 -24 52 -36 86 -41 57
-9 138 1 183 21 26 13 32 21 32 47 0 17 4 45 8 61 14 49 7 55 -45 39 -63 -19
-106 -18 -134 5 l-24 19 -3 271 -3 270 108 3 108 3 0 75 0 75 -107 3 -108 3 0
164 c0 126 -3 165 -12 164 -7 0 -44 -17 -83 -38z"/>
<path d="M9900 3821 c-71 -38 -104 -67 -96 -87 3 -9 6 -258 6 -555 l0 -540 83
3 82 3 5 132 5 132 60 80 c68 91 67 91 110 -9 15 -36 36 -85 47 -110 11 -25
31 -70 44 -100 14 -30 33 -71 42 -90 l18 -35 87 -3 c105 -3 105 -3 47 117 -22
45 -40 83 -40 85 0 2 -17 42 -39 88 -21 45 -60 129 -85 186 l-47 102 22 33
c13 17 60 80 106 139 46 60 83 113 83 118 0 7 -33 10 -92 8 l-91 -3 -96 -132
c-53 -72 -112 -156 -131 -187 -19 -30 -39 -54 -43 -53 -5 2 -8 161 -8 355 2
282 -1 352 -11 352 -7 0 -38 -13 -68 -29z"/>
<path d="M6462 3812 c-63 -59 -47 -148 32 -185 47 -22 93 -10 131 34 38 46 35
101 -9 145 -29 29 -41 34 -79 34 -35 0 -51 -6 -75 -28z"/>
<path d="M6784 3806 c-27 -27 -34 -42 -34 -74 0 -49 35 -95 85 -112 29 -9 40
-8 75 10 76 39 89 123 28 181 -25 23 -40 29 -75 29 -38 0 -51 -6 -79 -34z"/>
<path d="M2699 3820 c-130 -22 -242 -111 -278 -220 -16 -50 -16 -157 0 -210
17 -58 86 -127 161 -162 31 -15 119 -48 195 -73 213 -71 257 -105 256 -197 -1
-61 -27 -105 -78 -132 -34 -18 -58 -21 -150 -21 -102 0 -115 2 -175 31 -36 17
-83 46 -104 64 l-37 33 -62 -61 -61 -62 43 -44 c61 -62 185 -123 281 -137 193
-29 381 26 457 134 99 140 88 327 -26 430 -55 50 -117 79 -278 134 -163 54
-204 73 -231 108 -33 41 -36 79 -13 128 28 59 68 80 161 85 95 5 167 -14 240
-64 l53 -36 61 62 61 61 -40 35 c-110 95 -281 140 -436 114z"/>
<path d="M3620 3529 c-77 -12 -156 -38 -182 -59 l-22 -18 24 -51 c33 -72 39
-75 96 -49 40 18 68 22 149 22 110 1 143 -11 169 -63 17 -32 25 -136 11 -136
-5 1 -37 7 -70 14 -72 16 -209 10 -281 -13 -68 -21 -135 -82 -164 -148 -19
-44 -22 -65 -18 -133 7 -123 57 -199 163 -246 100 -45 272 -23 331 42 25 28
42 23 46 -13 l3 -33 83 -3 83 -3 -3 348 -3 348 -29 53 c-45 81 -108 122 -217
141 -74 12 -91 12 -169 0z m213 -502 l37 -16 0 -65 c0 -62 -1 -66 -37 -95 -48
-40 -87 -58 -144 -66 -125 -18 -217 65 -188 171 19 67 86 96 209 91 47 -3 102
-12 123 -20z"/>
<path d="M4457 3529 c-85 -12 -183 -48 -198 -72 -6 -9 28 -83 53 -113 6 -9 22
-7 59 7 75 29 197 36 252 15 55 -21 87 -73 87 -141 l0 -47 -37 6 c-21 4 -81 9
-133 12 -128 8 -221 -18 -287 -79 -62 -57 -83 -109 -83 -206 0 -67 4 -87 30
-138 73 -146 283 -196 433 -103 60 37 75 38 79 3 3 -28 3 -28 83 -28 l80 0 0
340 c0 327 -1 342 -22 387 -40 87 -113 136 -234 157 -73 12 -79 12 -162 0z
m173 -490 c68 -14 80 -29 80 -94 0 -46 -4 -57 -32 -85 -114 -112 -299 -103
-338 16 -24 70 9 134 82 160 42 16 142 17 208 3z"/>
<path d="M5225 3526 c-137 -41 -194 -110 -195 -234 0 -138 55 -193 293 -287
143 -56 192 -111 152 -171 -45 -70 -211 -72 -342 -6 -23 12 -48 22 -56 22 -15
0 -77 -92 -77 -114 0 -8 33 -30 74 -50 223 -110 479 -75 558 77 34 65 32 177
-4 238 -43 74 -74 92 -323 197 -93 39 -131 106 -86 151 42 42 167 39 261 -6
30 -15 59 -27 63 -27 5 -1 24 24 42 56 36 61 35 69 -15 100 -93 56 -253 81
-345 54z"/>
<path d="M6615 3524 c-140 -34 -239 -137 -281 -291 -64 -240 27 -487 214 -579
51 -25 67 -28 153 -28 88 0 103 3 161 32 127 62 200 172 224 335 27 182 -24
350 -138 452 -45 41 -100 67 -176 84 -65 14 -81 13 -157 -5z m170 -177 c62
-29 98 -79 121 -167 35 -137 -10 -299 -99 -358 -34 -23 -51 -27 -108 -27 -60
0 -71 3 -106 30 -21 18 -51 57 -68 90 -28 55 -30 68 -30 165 0 88 4 113 23
155 29 63 56 93 107 116 54 25 100 24 160 -4z"/>
<path d="M7529 3517 c-30 -13 -66 -31 -79 -40 -34 -24 -48 -21 -52 11 -3 27
-3 27 -83 27 l-80 0 -5 -585 c-3 -322 -1 -590 3 -596 5 -9 28 -2 75 23 37 20
73 40 80 46 8 7 12 50 12 153 0 119 3 144 14 144 8 0 18 -5 21 -10 4 -6 30
-22 58 -37 44 -22 65 -26 132 -26 67 0 88 4 130 25 82 43 148 123 179 218 25
73 33 269 16 353 -28 131 -93 236 -171 274 -103 50 -164 55 -250 20z m155
-170 c26 -14 48 -38 63 -67 43 -85 54 -256 23 -363 -27 -92 -117 -147 -209
-126 -55 12 -73 22 -122 66 l-39 35 0 188 0 188 41 37 c23 20 55 43 73 51 49
21 125 17 170 -9z"/>
<path d="M8315 3525 c-27 -6 -59 -15 -70 -19 -11 -4 -33 -13 -48 -19 -55 -20
-58 -30 -25 -97 16 -33 33 -60 38 -60 4 0 29 10 56 22 38 17 70 21 144 22 135
1 175 -25 187 -124 9 -76 4 -81 -59 -64 -138 36 -308 7 -393 -68 -63 -56 -85
-109 -85 -206 0 -176 112 -285 295 -286 73 -1 87 2 150 34 39 19 74 35 80 35
5 0 12 -11 15 -25 6 -24 9 -25 85 -25 l80 0 0 345 c0 337 -1 346 -22 386 -71
134 -242 193 -428 149z m249 -499 c36 -15 36 -15 36 -76 0 -57 -3 -64 -32 -93
-50 -46 -114 -71 -183 -71 -72 0 -111 17 -142 63 -35 52 -26 122 21 160 51 43
216 52 300 17z"/>
<path d="M9234 3521 c-27 -9 -65 -27 -83 -40 -35 -25 -45 -22 -46 12 0 21 -4
22 -85 22 l-85 0 0 -435 0 -435 85 0 85 0 1 280 c1 292 5 330 46 388 29 41 69
57 140 57 81 0 122 -23 151 -88 20 -44 22 -65 25 -345 l4 -298 81 3 82 3 3
290 c3 368 -12 442 -106 527 -79 71 -195 94 -298 59z"/>
<path d="M11417 3514 c-4 -4 -7 -200 -7 -435 0 -490 -9 -449 97 -449 101 0 94
-36 91 455 l-3 430 -85 3 c-47 1 -89 0 -93 -4z"/>
<path d="M936 3391 c-3 -5 14 -31 39 -57 25 -26 63 -82 83 -123 36 -74 37 -79
37 -186 0 -69 -5 -123 -14 -145 -31 -82 -59 -128 -108 -179 -29 -30 -48 -58
-43 -61 11 -7 700 -3 706 3 3 2 -18 28 -46 57 -168 176 -170 461 -4 634 35 37
43 51 33 57 -8 5 -23 7 -34 4 -11 -2 -57 -5 -101 -5 l-81 0 -25 -37 c-27 -42
-61 -126 -78 -190 -12 -49 -27 -55 -35 -15 -22 104 -77 222 -113 240 -24 13
-209 15 -216 3z"/>
</g>
</svg>
