<?xml version="1.0" standalone="no"?>
<!DOCTYPE svg PUBLIC "-//W3C//DTD SVG 20010904//EN"
 "http://www.w3.org/TR/2001/REC-SVG-20010904/DTD/svg10.dtd">
<svg version="1.0" xmlns="http://www.w3.org/2000/svg"
 width="1200.000000pt" height="660.000000pt" viewBox="0 0 1200.000000 660.000000"
 preserveAspectRatio="xMidYMid meet">
<metadata>
Created by potrace 1.13, written by Peter Selinger 2001-2015
</metadata>
<g transform="translate(0.000000,660.000000) scale(0.100000,-0.100000)"
fill="#000000" stroke="none">
<path d="M6410 5616 c-3 -2 -50 -13 -105 -25 -55 -11 -143 -30 -195 -41 -52
-12 -115 -25 -140 -30 -25 -5 -99 -21 -164 -34 -66 -14 -123 -29 -127 -33 -4
-4 -5 -146 -2 -315 6 -282 8 -308 23 -308 10 0 141 27 291 59 151 33 312 67
359 76 47 9 91 22 98 27 9 8 12 80 10 317 -3 299 -3 306 -23 309 -12 2 -23 1
-25 -2z"/>
<path d="M3249 5256 c-3 -3 -68 -19 -145 -35 -357 -76 -521 -111 -541 -116
l-23 -5 0 -1258 c0 -1335 1 -1350 48 -1499 60 -191 206 -353 397 -444 138 -65
186 -74 390 -73 195 1 328 21 443 67 l57 23 3 313 2 313 -22 -5 c-153 -35
-179 -39 -274 -35 -87 4 -108 8 -145 30 -59 35 -93 73 -121 133 l-23 50 -3
608 c-2 488 0 607 10 607 7 1 139 2 293 3 l280 2 0 325 0 325 -290 0 -290 0 0
335 c0 330 0 335 -20 338 -12 2 -23 0 -26 -2z"/>
<path d="M1272 4630 c-377 -48 -649 -223 -776 -502 -57 -124 -71 -194 -70
-363 0 -138 2 -157 28 -230 89 -256 274 -399 721 -555 260 -91 370 -153 411
-231 8 -16 14 -51 14 -79 0 -75 -40 -129 -117 -161 -51 -21 -73 -24 -188 -23
-161 1 -247 16 -450 81 -110 35 -281 107 -343 144 -19 10 -38 17 -43 14 -5 -4
-9 -157 -9 -365 l0 -359 27 -15 c95 -48 360 -121 538 -147 117 -18 445 -18
550 0 344 57 605 224 727 465 31 61 36 74 65 176 22 76 22 343 0 420 -86 304
-284 470 -737 620 -340 111 -430 176 -418 302 6 55 39 98 98 126 56 27 323 23
460 -7 128 -27 318 -90 399 -131 33 -16 63 -30 66 -30 3 0 5 161 5 359 l0 358
-57 22 c-86 33 -266 79 -378 96 -121 19 -422 27 -523 15z"/>
<path d="M7915 4625 c-134 -25 -258 -80 -369 -165 -65 -48 -85 -58 -87 -42 0
4 -8 43 -17 87 l-17 80 -337 3 -338 2 0 -1398 c0 -769 -3 -1582 -7 -1805 -6
-401 -6 -407 14 -407 15 0 634 130 742 155 l23 6 -3 434 c-2 238 -1 436 3 440
3 4 39 -15 80 -42 177 -119 353 -162 570 -142 435 41 765 365 886 872 50 207
56 272 56 542 -1 253 -8 320 -50 495 -148 609 -632 981 -1149 885z m75 -686
c178 -58 298 -221 361 -489 18 -74 18 -356 0 -440 -48 -232 -160 -407 -306
-476 -55 -26 -69 -28 -175 -28 -152 1 -234 30 -327 118 l-33 30 0 572 0 571
49 46 c107 101 292 142 431 96z"/>
<path d="M10252 4625 c-487 -86 -847 -484 -942 -1040 -6 -38 -16 -94 -21 -124
-12 -74 -11 -408 1 -490 38 -237 50 -288 106 -426 61 -154 137 -270 248 -381
170 -169 372 -271 637 -320 139 -26 453 -23 613 5 175 31 320 76 449 138 l67
33 0 310 c0 170 -4 310 -8 310 -5 0 -31 -11 -58 -24 -323 -156 -816 -192
-1048 -76 -107 54 -193 161 -234 290 -15 47 -18 108 -7 118 6 5 343 6 750 2
444 -3 745 -2 753 3 18 14 16 358 -3 522 -71 607 -366 1013 -821 1131 -126 33
-353 41 -482 19z m314 -630 c72 -24 142 -80 189 -150 53 -78 76 -151 82 -253
l6 -82 -404 2 -404 3 -3 24 c-4 26 13 126 30 176 24 72 57 124 113 180 114
115 245 148 391 100z"/>
<path d="M5174 4606 c-33 -8 -87 -28 -120 -44 -64 -32 -155 -115 -180 -163 -8
-17 -20 -29 -27 -26 -6 2 -17 35 -24 73 -6 38 -17 86 -23 107 l-11 37 -327 -2
-327 -3 0 -1355 0 -1355 380 0 380 0 2 920 2 920 27 33 c38 49 130 105 213
131 62 20 87 22 189 18 64 -2 126 -6 137 -8 20 -4 20 1 20 346 l0 350 -40 13
c-60 20 -200 24 -271 8z"/>
<path d="M5685 4581 c-9 -9 -5 -2700 4 -2705 5 -3 178 -3 385 1 l376 6 2 1341
c2 738 2 1346 0 1352 -2 8 -115 11 -383 10 -209 0 -382 -2 -384 -5z"/>
</g>
</svg>
