<?xml version="1.0" standalone="no"?>
<!DOCTYPE svg PUBLIC "-//W3C//DTD SVG 20010904//EN"
 "http://www.w3.org/TR/2001/REC-SVG-20010904/DTD/svg10.dtd">
<svg version="1.0" xmlns="http://www.w3.org/2000/svg"
 width="1200.000000pt" height="660.000000pt" viewBox="0 0 1200.000000 660.000000"
 preserveAspectRatio="xMidYMid meet">
<metadata>
Created by potrace 1.13, written by Peter Selinger 2001-2015
</metadata>
<g transform="translate(0.000000,660.000000) scale(0.100000,-0.100000)"
fill="#000000" stroke="none">
<path d="M2915 6186 c-101 -37 -193 -95 -271 -169 -86 -81 -129 -137 -174
-225 -40 -79 -35 -60 -136 -492 -47 -201 -94 -403 -105 -450 -25 -102 -128
-544 -205 -875 -30 -132 -64 -276 -74 -320 -10 -44 -62 -269 -115 -500 -53
-231 -107 -467 -121 -525 -24 -102 -37 -158 -69 -295 -8 -36 -22 -93 -30 -128
-8 -34 -75 -321 -150 -637 -74 -316 -142 -600 -150 -630 -31 -114 -8 -260 56
-362 42 -65 120 -135 187 -166 l57 -27 3680 -3 c3345 -2 3685 -1 3735 14 210
61 396 219 492 419 29 62 53 143 103 360 36 154 74 318 85 365 11 47 31 135
45 195 15 61 32 137 40 170 87 364 425 1816 520 2235 41 179 79 343 85 365 5
22 62 263 126 535 64 272 127 540 140 595 28 118 29 160 9 240 -36 141 -122
251 -237 305 l-63 30 -3700 -1 -3700 0 -60 -23z m2995 -786 c0 -6 57 -10 150
-10 93 0 150 -4 150 -10 0 -6 37 -10 90 -10 53 0 90 -4 90 -10 0 -5 23 -10 50
-10 28 0 50 -4 50 -10 0 -5 18 -10 40 -10 22 0 40 -4 40 -10 0 -5 14 -10 30
-10 17 0 30 -4 30 -10 0 -5 7 -10 15 -10 28 0 85 -67 85 -100 0 -16 -4 -30
-10 -30 -5 0 -10 -7 -10 -15 0 -20 -105 -125 -125 -125 -8 0 -15 -4 -15 -10 0
-5 -9 -10 -20 -10 -11 0 -20 -4 -20 -10 0 -5 -9 -10 -20 -10 -11 0 -20 -4 -20
-10 0 -5 -9 -10 -20 -10 -11 0 -20 -4 -20 -10 0 -5 -9 -10 -20 -10 -11 0 -20
-4 -20 -10 0 -5 -9 -10 -20 -10 -11 0 -20 -4 -20 -10 0 -5 -18 -10 -40 -10
-22 0 -40 -4 -40 -10 0 -5 -13 -10 -30 -10 -16 0 -30 -4 -30 -10 0 -5 -13 -10
-30 -10 -16 0 -30 -4 -30 -10 0 -5 -18 -10 -40 -10 -22 0 -40 -4 -40 -10 0 -6
-27 -10 -60 -10 -33 0 -60 -4 -60 -10 0 -6 -47 -10 -120 -10 -73 0 -120 -4
-120 -10 0 -6 -135 -10 -385 -10 -250 0 -385 4 -385 10 0 6 -37 10 -90 10 -53
0 -90 4 -90 10 0 6 -27 10 -60 10 -33 0 -60 4 -60 10 0 6 -18 10 -40 10 -22 0
-40 5 -40 10 0 6 -13 10 -30 10 -18 0 -30 5 -30 13 0 9 -12 11 -40 9 -25 -3
-40 0 -40 7 0 6 -9 11 -20 11 -11 0 -20 5 -20 10 0 6 -9 10 -20 10 -11 0 -20
5 -20 10 0 6 -9 10 -20 10 -11 0 -20 5 -20 10 0 6 -9 10 -20 10 -11 0 -20 5
-20 10 0 6 -7 10 -15 10 -20 0 -105 85 -105 105 0 8 -4 15 -10 15 -5 0 -10 9
-10 20 0 11 -4 20 -10 20 -5 0 -10 11 -10 25 0 14 5 25 10 25 6 0 10 7 10 15
0 20 65 85 85 85 8 0 15 5 15 10 0 6 9 10 20 10 11 0 20 5 20 10 0 6 14 10 30
10 17 0 30 5 30 10 0 6 18 10 40 10 22 0 40 5 40 10 0 6 30 10 70 10 40 0 70
4 70 10 0 6 63 10 170 10 107 0 170 4 170 10 0 7 175 10 505 10 330 0 505 -3
505 -10z m3160 -140 c0 -5 14 -10 30 -10 17 0 30 -4 30 -10 0 -5 7 -10 15 -10
20 0 65 -45 65 -65 0 -8 5 -15 10 -15 19 0 11 -65 -10 -80 -11 -8 -20 -22 -20
-32 0 -11 -7 -18 -20 -18 -11 0 -20 -4 -20 -10 0 -6 -38 -10 -95 -10 -57 0
-95 4 -95 10 0 6 -17 10 -38 10 -26 0 -42 6 -52 20 -8 11 -20 20 -27 20 -25 0
-103 88 -103 115 0 33 42 75 75 75 14 0 25 5 25 10 0 6 45 10 115 10 70 0 115
-4 115 -10z m-5312 -537 c2 -12 -6 -52 -17 -90 -11 -37 -29 -103 -40 -145 -12
-43 -30 -113 -42 -155 -11 -43 -38 -145 -59 -228 -112 -437 -136 -498 -237
-606 -91 -96 -191 -145 -358 -174 -193 -35 -415 -7 -529 65 -54 35 -99 101
-116 170 -13 54 3 202 39 365 20 89 169 757 176 793 5 22 6 22 205 22 109 0
201 -4 204 -8 5 -8 -3 -43 -23 -114 -72 -248 -170 -640 -191 -770 -31 -186 -9
-244 108 -279 89 -26 216 29 272 118 32 50 70 164 96 288 9 44 20 96 24 115 9
41 33 158 90 434 22 110 45 205 50 210 5 7 71 11 177 11 165 0 168 0 171 -22z
m4304 0 c100 -35 151 -82 187 -170 19 -46 9 -201 -17 -283 -51 -155 -169 -297
-302 -362 -113 -54 -184 -69 -363 -75 -147 -5 -159 -7 -171 -27 -16 -25 -37
-108 -77 -306 -16 -80 -32 -153 -35 -162 -5 -16 -23 -18 -185 -18 -131 0 -179
3 -179 12 0 6 7 37 15 67 18 69 87 354 156 646 54 230 62 265 80 355 6 30 15
74 20 98 24 113 30 140 35 177 14 84 -21 78 402 73 345 -5 382 -7 434 -25z
m-3079 -480 c42 -9 87 -56 87 -90 0 -129 -268 -216 -361 -117 -48 51 -14 141
68 179 50 24 133 44 158 39 11 -3 33 -7 48 -11z m-872 -79 c10 -13 10 -19 0
-36 -19 -31 -7 -32 51 -4 92 45 231 56 293 23 46 -24 85 -94 85 -151 0 -18
-12 -86 -26 -151 -64 -297 -77 -362 -91 -462 -3 -24 -11 -47 -17 -51 -6 -5
-80 -12 -164 -16 -120 -5 -154 -4 -157 6 -5 13 4 67 25 151 39 151 80 353 80
392 0 37 -16 49 -61 48 -70 -3 -75 -14 -124 -264 -52 -262 -63 -311 -74 -322
-4 -4 -77 -10 -163 -13 -131 -4 -156 -2 -161 10 -3 8 12 86 34 173 52 210 98
438 106 521 9 106 -1 99 203 132 41 7 86 16 100 20 37 12 46 12 61 -6z m2339
1 c10 -12 10 -21 2 -40 -14 -30 -4 -31 40 -7 114 62 257 65 327 6 68 -59 71
-106 21 -334 -40 -183 -54 -249 -70 -338 -10 -56 -23 -109 -30 -117 -16 -19
-306 -22 -312 -3 -2 6 13 84 33 172 48 204 73 350 65 381 -3 13 -15 26 -26 30
-21 7 -96 -10 -104 -24 -7 -11 -61 -255 -93 -416 -14 -71 -30 -136 -35 -142
-8 -10 -53 -13 -164 -13 -180 0 -167 -13 -129 136 57 218 95 414 120 606 7 58
15 62 120 77 120 17 187 30 193 36 10 10 29 5 42 -10z m2990 -10 c9 -11 15
-70 18 -195 3 -99 8 -180 11 -180 6 0 141 263 141 275 0 4 9 19 19 34 18 24
31 29 108 40 48 7 104 17 123 22 47 12 97 11 105 -1 4 -6 -7 -32 -23 -58 -16
-26 -67 -112 -112 -192 -45 -80 -95 -165 -110 -190 -40 -64 -306 -537 -382
-680 -20 -36 -59 -106 -89 -157 -123 -211 -142 -223 -334 -223 -144 0 -139 -5
-104 101 26 80 34 89 74 89 18 0 38 7 47 18 22 26 116 181 201 329 l75 131 -9
84 c-15 140 -29 260 -39 328 -5 36 -14 103 -20 150 -6 47 -16 113 -22 148 -10
52 -9 65 3 76 8 7 59 21 114 31 82 14 145 25 186 34 4 0 12 -6 19 -14z m-3664
-16 c130 -49 182 -140 170 -298 -16 -203 -102 -374 -231 -457 -89 -56 -163
-75 -301 -75 -70 0 -134 5 -150 12 -76 31 -91 40 -119 71 -41 45 -51 65 -65
132 -31 149 64 419 184 522 93 81 185 111 343 113 92 1 122 -3 169 -20z m2790
-8 c23 -11 46 -27 52 -37 8 -15 13 -16 26 -5 9 7 53 19 98 26 46 7 118 19 161
25 48 8 82 9 88 3 5 -5 -10 -86 -40 -208 -50 -203 -103 -450 -116 -540 -12
-89 -4 -85 -190 -85 -158 0 -165 1 -165 20 0 25 -5 25 -39 1 -15 -11 -49 -25
-75 -32 -89 -22 -240 28 -293 98 -30 39 -53 112 -53 167 0 82 38 229 81 314
99 196 323 317 465 253z m-3541 -141 c3 -5 -5 -56 -19 -112 -57 -238 -73 -312
-112 -525 -2 -12 -12 -24 -22 -27 -9 -2 -87 -6 -172 -8 -143 -3 -155 -2 -158
15 -2 10 10 61 28 114 33 103 70 266 90 401 15 96 16 98 122 112 108 14 190
29 196 35 9 9 40 6 47 -5z m859 -1018 c3 -5 -4 -26 -15 -46 -11 -21 -18 -41
-15 -44 3 -3 63 -4 133 -3 71 1 135 -3 142 -8 13 -8 12 -21 -9 -88 -13 -43
-28 -84 -33 -90 -7 -10 -62 -13 -212 -13 l-203 0 -31 -26 c-54 -45 -136 -71
-244 -76 -58 -3 -100 -1 -104 5 -5 9 29 132 47 167 4 9 29 18 61 23 63 8 74
19 137 131 l42 76 150 0 c82 0 151 -4 154 -8z m643 -6 c3 -3 0 -26 -7 -51 -7
-25 -10 -48 -7 -51 3 -3 21 5 39 19 89 66 175 84 460 93 254 8 243 14 209 -99
-41 -132 -59 -191 -90 -297 -66 -219 -105 -284 -196 -326 -48 -23 -58 -24
-320 -24 -148 0 -275 -4 -282 -8 -9 -6 -40 -96 -73 -217 -5 -16 -20 -70 -34
-118 -15 -48 -24 -93 -20 -99 7 -11 198 -7 210 4 3 3 8 93 12 199 l7 194 125
0 125 0 5 -50 5 -50 45 3 c53 4 54 5 70 57 7 22 18 43 24 47 6 4 53 8 105 8
l94 0 -7 -46 c-11 -81 -29 -126 -64 -160 -42 -41 -85 -54 -179 -54 -104 0
-103 1 -103 -86 0 -71 1 -74 26 -80 15 -4 59 -4 98 -1 80 7 100 -1 86 -37 -4
-11 -13 -41 -20 -66 -26 -99 -18 -95 -175 -98 -224 -5 -275 14 -275 105 0 60
-14 53 -30 -14 -23 -101 -4 -93 -232 -93 -193 0 -203 1 -234 22 -67 46 -70 23
57 436 43 141 62 203 168 557 72 240 117 375 129 383 12 9 47 12 130 8 63 -3
116 -7 119 -10z m1287 -28 c-1 -43 3 -45 48 -20 69 38 119 44 454 51 181 3
337 5 346 3 13 -3 18 -17 20 -66 l3 -61 45 -5 c32 -4 46 -10 48 -22 4 -22 -37
-156 -51 -165 -5 -3 -65 -5 -133 -5 -167 1 -214 27 -214 118 0 49 -9 62 -24
31 -9 -16 -23 -23 -55 -27 l-44 -5 -54 -175 c-30 -96 -72 -235 -94 -307 -21
-73 -58 -195 -80 -270 -23 -76 -43 -146 -46 -155 -4 -13 3 -17 29 -20 32 -3
33 -5 30 -40 l-3 -38 44 0 c53 0 89 17 118 54 34 44 199 277 199 282 0 2 -58
4 -129 4 -89 0 -131 4 -133 12 -2 6 7 44 20 85 l24 73 151 0 c84 0 157 4 162
8 10 6 45 103 45 123 0 5 -67 9 -149 9 -83 0 -152 4 -155 8 -3 5 7 47 22 93
l27 84 439 3 c242 1 443 -1 447 -5 4 -5 -1 -37 -12 -73 -38 -122 -18 -110
-187 -110 l-148 0 -21 -64 c-18 -56 -19 -65 -6 -70 8 -4 70 -3 137 0 103 6
123 4 134 -9 9 -11 10 -21 4 -34 -6 -10 -16 -38 -23 -63 -7 -25 -17 -51 -22
-57 -7 -10 -53 -13 -167 -13 l-159 0 -21 -27 -22 -28 60 -3 59 -3 12 -62 c37
-196 33 -187 93 -187 20 0 40 -5 43 -10 9 -15 -37 -170 -58 -197 -6 -9 -38
-13 -91 -13 -68 0 -91 4 -134 26 -65 32 -79 59 -93 167 -6 45 -14 86 -18 90
-4 4 -27 -21 -51 -55 -147 -212 -172 -227 -372 -228 l-138 0 0 30 c0 42 -38
42 -62 0 l-17 -30 -137 0 -136 0 4 30 5 30 -268 0 c-147 0 -270 4 -273 9 -3 4
7 46 23 92 24 73 31 84 53 87 31 4 38 18 78 152 17 58 35 116 40 130 5 14 55
178 110 365 146 491 150 503 163 509 7 2 68 4 137 3 l125 -2 -1 -37z m-4144
-119 c19 -6 70 -10 112 -9 44 0 87 -4 100 -11 12 -7 49 -11 81 -10 35 1 65 -3
74 -10 8 -7 33 -12 54 -10 28 2 39 -1 39 -11 0 -10 11 -12 40 -10 31 3 40 1
40 -11 0 -10 7 -13 18 -10 10 2 24 -2 31 -10 6 -8 21 -13 31 -10 14 4 20 0 20
-10 0 -10 6 -13 20 -10 11 3 20 0 20 -6 0 -6 9 -11 20 -11 11 0 20 -7 20 -15
0 -8 6 -12 14 -9 20 8 150 -122 142 -142 -3 -8 1 -14 10 -14 11 0 15 -6 11
-20 -3 -14 0 -20 10 -20 10 0 14 -6 10 -20 -3 -14 0 -20 10 -20 11 0 14 -8 11
-30 -3 -21 0 -30 10 -30 10 0 13 -9 10 -30 -3 -21 0 -30 9 -30 10 0 14 -9 11
-29 -1 -16 4 -36 11 -45 7 -9 11 -27 9 -41 -3 -14 1 -30 9 -37 8 -6 13 -24 11
-38 -1 -15 4 -35 11 -44 7 -9 11 -27 9 -41 -3 -14 1 -30 9 -37 8 -6 13 -24 11
-38 -1 -15 3 -34 9 -42 7 -8 11 -38 9 -71 -2 -43 1 -57 11 -57 9 0 13 -11 11
-36 -1 -19 2 -38 7 -42 17 -12 38 -60 31 -71 -4 -6 0 -11 8 -11 21 0 20 -19
-1 -42 -15 -17 -15 -18 2 -18 12 0 16 -6 12 -20 -3 -11 2 -27 10 -35 8 -9 12
-22 9 -30 -3 -9 0 -15 9 -15 19 0 19 -24 1 -39 -14 -12 -10 -61 5 -61 23 0 5
-27 -28 -42 -21 -9 -30 -17 -20 -17 13 -1 17 -10 17 -37 0 -31 -3 -36 -19 -31
-13 3 -31 -7 -55 -29 -19 -18 -43 -33 -53 -33 -25 0 -93 -24 -93 -33 0 -5 -13
-8 -30 -8 -16 0 -30 -5 -30 -10 0 -6 -19 -11 -42 -11 -102 -1 -144 -5 -156
-12 -6 -5 -49 -8 -95 -7 -99 2 -111 0 -72 -10 20 -5 -9 -8 -82 -9 -68 -1 -113
-5 -113 -11 0 -6 -135 -10 -385 -10 -250 0 -385 4 -385 10 0 6 -38 10 -92 11
-65 1 -84 4 -63 9 38 10 26 12 -52 10 -35 -1 -68 2 -75 7 -14 8 -50 12 -115
12 -31 0 -43 4 -43 15 0 9 -7 12 -20 9 -14 -4 -20 -1 -18 8 2 8 -3 13 -11 11
-8 -2 -21 0 -30 4 -20 8 -50 14 -75 15 -19 0 -69 43 -60 52 3 2 -16 11 -41 18
-36 11 -45 18 -41 31 2 11 -1 18 -10 18 -8 0 -14 7 -14 15 0 8 -4 15 -8 15 -5
0 -19 9 -32 20 -16 14 -21 27 -18 45 4 17 1 25 -8 25 -8 0 -14 9 -14 20 0 11
-4 20 -10 20 -6 0 -10 27 -10 60 0 33 -4 60 -10 60 -5 0 -10 9 -10 20 0 11 -6
20 -12 21 -10 0 -10 2 0 6 8 3 12 32 12 91 1 55 6 96 15 112 12 22 11 27 -2
42 -14 15 -14 22 -2 50 7 18 12 43 10 56 -1 13 3 30 10 39 8 8 12 28 11 43 -2
14 4 32 12 39 8 7 12 19 9 27 -3 8 2 23 11 33 9 10 13 21 10 24 -7 7 75 180
88 185 5 2 8 12 8 23 0 10 4 19 8 19 5 0 15 12 22 28 17 32 170 192 186 192 5
0 19 8 30 18 27 25 193 106 201 98 3 -3 14 1 24 10 10 9 25 14 33 11 8 -3 20
1 27 9 7 8 25 14 39 12 15 -1 34 3 43 10 8 7 32 12 54 11 21 -2 48 3 61 10 12
6 44 12 70 12 58 -1 111 5 119 13 11 10 196 7 233 -5z m2401 -276 c6 -6 -1
-40 -18 -89 l-28 -79 -147 -5 c-80 -3 -148 -7 -150 -10 -10 -13 -39 -122 -34
-127 7 -8 37 -10 175 -11 l113 -2 -5 -27 c-6 -34 -39 -146 -44 -153 -3 -3 -72
-7 -155 -10 l-150 -5 -12 -35 c-6 -19 -23 -73 -36 -118 -20 -71 -21 -85 -9
-93 8 -6 56 -8 116 -4 57 4 107 4 112 1 6 -4 1 -34 -11 -74 -11 -37 -22 -80
-25 -95 -4 -18 -14 -32 -30 -38 -28 -10 -316 -12 -387 -3 -63 9 -116 60 -116
111 0 28 35 154 70 248 11 30 30 91 30 96 0 2 -35 4 -77 4 -66 0 -78 3 -81 17
-4 20 36 156 51 176 6 8 37 12 87 12 50 0 81 4 87 13 11 13 24 59 26 97 2 25
1 25 -63 22 -94 -4 -99 2 -72 81 12 36 22 72 22 80 0 36 27 38 393 34 202 -3
363 -9 368 -14z"/>
<path d="M6485 5310 c3 -5 8 -10 11 -10 2 0 4 5 4 10 0 6 -5 10 -11 10 -5 0
-7 -4 -4 -10z"/>
<path d="M6545 5290 c3 -5 12 -7 20 -3 21 7 19 13 -6 13 -11 0 -18 -4 -14 -10z"/>
<path d="M6625 5250 c16 -16 30 -28 33 -26 5 6 -44 56 -54 56 -4 0 5 -13 21
-30z"/>
<path d="M4206 5261 c-4 -5 -2 -12 3 -15 5 -4 12 -2 15 3 4 5 2 12 -3 15 -5 4
-12 2 -15 -3z"/>
<path d="M4170 5204 c0 -14 4 -23 9 -20 5 3 7 15 4 26 -7 28 -13 25 -13 -6z"/>
<path d="M6673 5185 c0 -22 2 -30 4 -17 2 12 2 30 0 40 -3 9 -5 -1 -4 -23z"/>
<path d="M4152 5160 c0 -14 2 -19 5 -12 2 6 2 18 0 25 -3 6 -5 1 -5 -13z"/>
<path d="M6646 5142 c-2 -4 -1 -14 5 -22 7 -12 9 -10 9 8 0 23 -5 28 -14 14z"/>
<path d="M4170 5114 c0 -8 5 -12 10 -9 6 4 8 11 5 16 -9 14 -15 11 -15 -7z"/>
<path d="M6590 5065 c-24 -25 -41 -45 -38 -45 10 0 91 80 86 85 -2 3 -24 -16
-48 -40z"/>
<path d="M4190 5082 c0 -7 4 -12 9 -12 5 0 11 -8 13 -17 2 -12 6 -14 10 -7 4
6 -1 19 -12 29 -12 10 -20 13 -20 7z"/>
<path d="M4245 5020 c-3 -5 1 -10 9 -10 9 0 16 -4 16 -9 0 -5 8 -12 17 -15 13
-5 11 0 -6 18 -28 30 -28 29 -36 16z"/>
<path d="M8968 5233 c12 -2 30 -2 40 0 9 3 -1 5 -23 4 -22 0 -30 -2 -17 -4z"/>
<path d="M8870 5216 c0 -8 71 -12 76 -4 3 4 -13 8 -35 8 -23 0 -41 -2 -41 -4z"/>
<path d="M9024 5211 c5 -8 56 -3 56 5 0 2 -14 4 -31 4 -16 0 -28 -4 -25 -9z"/>
<path d="M8853 5155 c0 -27 2 -38 4 -22 2 15 2 37 0 50 -2 12 -4 0 -4 -28z"/>
<path d="M9095 5180 c10 -11 20 -18 23 -16 5 6 -23 36 -34 36 -4 0 1 -9 11
-20z"/>
<path d="M9133 5125 c0 -22 2 -30 4 -17 2 12 2 30 0 40 -3 9 -5 -1 -4 -23z"/>
<path d="M8880 5100 c-12 -8 -10 -10 8 -10 13 0 20 4 17 10 -7 12 -6 12 -25 0z"/>
<path d="M8920 5080 c-12 -8 -10 -10 8 -10 13 0 20 4 17 10 -7 12 -6 12 -25 0z"/>
<path d="M9105 5080 c-3 -5 -1 -10 4 -10 6 0 11 5 11 10 0 6 -2 10 -4 10 -3 0
-8 -4 -11 -10z"/>
<path d="M8960 5060 c-12 -8 -10 -10 8 -10 13 0 20 4 17 10 -7 12 -6 12 -25 0z"/>
<path d="M9065 5060 c-4 -6 3 -10 14 -10 25 0 27 6 6 13 -8 4 -17 2 -20 -3z"/>
<path d="M9008 5033 c12 -2 30 -2 40 0 9 3 -1 5 -23 4 -22 0 -30 -2 -17 -4z"/>
<path d="M7556 4512 c-2 -4 -11 -38 -20 -77 -9 -38 -21 -86 -26 -105 -5 -19
-15 -60 -21 -90 -7 -30 -18 -77 -25 -104 -22 -78 -23 -76 64 -76 166 0 261 53
318 175 34 73 34 175 -1 221 -14 18 -39 37 -57 42 -40 12 -226 23 -232 14z"/>
<path d="M5512 3935 c-39 -32 -56 -70 -87 -191 -32 -129 -33 -193 -2 -222 13
-12 31 -22 39 -22 24 0 76 48 97 89 30 59 71 226 71 291 0 76 -60 104 -118 55z"/>
<path d="M8469 3927 c-19 -12 -44 -43 -57 -69 -27 -53 -59 -177 -68 -258 -5
-47 -3 -59 16 -84 21 -25 27 -27 62 -22 82 13 111 53 147 198 34 142 26 223
-26 247 -32 15 -35 14 -74 -12z"/>
<path d="M6485 2758 c-19 -50 -52 -168 -48 -172 3 -3 22 6 42 20 64 44 151 64
276 64 124 0 129 2 140 63 l7 37 -206 0 c-156 0 -208 -3 -211 -12z"/>
<path d="M6390 2454 c-21 -55 -27 -54 193 -54 l204 0 11 25 c26 56 29 55 -193
55 l-205 0 -10 -26z"/>
<path d="M7766 2758 c-3 -7 -17 -55 -34 -106 -16 -51 -26 -95 -22 -97 4 -2 38
7 76 20 38 14 83 25 100 25 39 0 48 10 69 85 10 33 20 66 22 73 4 9 -20 12
-101 12 -77 0 -108 -4 -110 -12z"/>
<path d="M7626 2298 c-19 -62 -33 -114 -31 -116 2 -3 25 5 50 17 25 12 75 28
111 35 36 8 66 15 68 17 4 6 46 144 46 152 0 4 -47 7 -104 7 l-105 0 -35 -112z"/>
<path d="M7554 2032 c-5 -4 -20 -42 -32 -84 -12 -42 -25 -84 -28 -92 -5 -14 8
-16 99 -16 l106 0 29 93 c16 50 27 95 25 100 -5 9 -185 9 -199 -1z"/>
<path d="M4720 1195 c-11 -13 -10 -14 4 -9 9 3 16 10 16 15 0 13 -6 11 -20 -6z"/>
<path d="M4565 1140 c-3 -5 1 -10 10 -10 9 0 13 5 10 10 -3 6 -8 10 -10 10 -2
0 -7 -4 -10 -10z"/>
</g>
</svg>
