<?xml version="1.0" standalone="no"?>
<!DOCTYPE svg PUBLIC "-//W3C//DTD SVG 20010904//EN"
 "http://www.w3.org/TR/2001/REC-SVG-20010904/DTD/svg10.dtd">
<svg version="1.0" xmlns="http://www.w3.org/2000/svg"
 width="600.000000pt" height="330.000000pt" viewBox="0 0 600.000000 330.000000"
 preserveAspectRatio="xMidYMid meet">

<g transform="translate(0.000000,330.000000) scale(0.100000,-0.100000)"
fill="#000000" stroke="none">
<path d="M3661 2529 c-190 -42 -313 -102 -412 -199 -176 -174 -199 -448 -53
-627 46 -57 138 -121 298 -208 137 -74 198 -120 221 -166 33 -62 8 -137 -58
-178 -124 -76 -421 -60 -610 33 -43 20 -70 29 -72 22 -11 -32 -64 -370 -59
-377 8 -14 154 -56 270 -78 292 -56 597 3 802 154 242 178 292 509 107 713
-61 67 -137 121 -300 212 -71 40 -146 85 -166 101 -93 74 -69 179 51 225 70
27 270 25 379 -4 46 -13 97 -30 113 -38 17 -9 32 -13 36 -10 7 7 61 311 62
347 0 25 -5 28 -77 47 -213 57 -373 66 -532 31z"/>
<path d="M205 2510 c-10 -17 -4 -20 107 -56 56 -18 161 -62 233 -98 l130 -64
200 -766 200 -766 238 2 239 3 354 855 c195 470 357 865 360 878 l6 22 -243
-2 -244 -3 -215 -597 c-118 -328 -218 -594 -221 -590 -3 4 -52 246 -108 537
-73 375 -108 540 -123 563 -11 18 -41 45 -66 60 l-47 27 -397 3 c-284 2 -398
0 -403 -8z"/>
<path d="M2455 2508 c-2 -7 -65 -391 -140 -853 -75 -462 -138 -852 -141 -867
l-6 -28 231 0 c144 0 231 4 231 10 0 5 63 396 140 869 77 472 140 864 140 870
0 17 -449 16 -455 -1z"/>
<path d="M5004 2510 c-44 -10 -100 -46 -122 -78 -10 -15 -33 -63 -51 -107 -19
-44 -171 -406 -338 -805 -168 -399 -308 -733 -310 -743 -5 -16 9 -17 232 -15
l238 3 46 127 46 128 291 0 292 0 5 -22 c3 -13 15 -71 27 -130 l23 -108 208 0
c115 0 209 3 209 6 0 14 -362 1739 -367 1746 -6 10 -388 8 -429 -2z m182 -797
c35 -169 64 -314 64 -320 0 -10 -44 -13 -186 -13 -145 0 -185 3 -182 13 75
209 234 635 236 632 2 -2 33 -142 68 -312z"/>
</g>
</svg>
