<?xml version="1.0" standalone="no"?>
<!DOCTYPE svg PUBLIC "-//W3C//DTD SVG 20010904//EN"
 "http://www.w3.org/TR/2001/REC-SVG-20010904/DTD/svg10.dtd">
<svg version="1.0" xmlns="http://www.w3.org/2000/svg"
 width="1200.000000pt" height="660.000000pt" viewBox="0 0 1200.000000 660.000000"
 preserveAspectRatio="xMidYMid meet">
<metadata>
Created by potrace 1.13, written by Peter Selinger 2001-2015
</metadata>
<g transform="translate(0.000000,660.000000) scale(0.100000,-0.100000)"
fill="#000000" stroke="none">
<path d="M588 4629 c-56 -8 -97 -29 -137 -70 -53 -53 -66 -86 -66 -174 0 -69
4 -86 27 -126 27 -46 79 -89 131 -108 17 -7 129 -11 285 -11 l257 0 219 243
219 242 -54 2 c-138 6 -841 7 -881 2z"/>
<path d="M1788 4620 c-48 -14 -91 -47 -153 -117 -106 -120 -499 -547 -869
-946 -199 -214 -370 -405 -380 -425 -14 -26 -20 -57 -20 -107 0 -59 4 -78 27
-117 33 -56 73 -91 129 -112 39 -15 113 -16 714 -14 l671 3 49 30 c33 21 60
48 82 85 28 47 32 63 32 125 0 113 -56 193 -161 230 -33 12 -107 15 -379 15
-403 0 -393 -3 -303 92 33 35 73 77 89 95 16 17 188 198 383 402 195 204 362
383 372 398 30 45 41 121 28 182 -23 106 -127 192 -233 190 -28 0 -63 -4 -78
-9z"/>
<path d="M10707 4594 c-11 -12 -8 -49 5 -62 7 -7 42 -12 85 -12 l73 0 0 -215
0 -215 40 0 40 0 2 213 3 212 80 5 80 5 0 35 0 35 -201 3 c-110 1 -203 -1
-207 -4z"/>
<path d="M11165 4588 c-3 -7 -4 -121 -3 -253 l3 -240 38 -3 c25 -2 37 1 37 10
1 7 1 90 0 183 0 103 4 164 9 155 5 -8 30 -78 55 -155 71 -212 62 -197 109
-193 l40 3 58 175 c32 96 58 168 59 160 0 -8 2 -87 3 -175 l2 -160 40 0 40 0
0 250 0 250 -51 3 c-33 2 -54 -2 -61 -10 -5 -7 -29 -74 -52 -148 -59 -185 -71
-222 -77 -232 -3 -5 -36 80 -72 189 l-67 198 -53 3 c-36 2 -54 -1 -57 -10z"/>
<path d="M2820 4584 c-14 -2 -56 -9 -94 -15 -202 -33 -373 -139 -407 -251 -12
-41 -25 -258 -14 -258 4 0 32 16 63 35 69 42 187 89 290 117 108 28 286 30
362 4 109 -38 190 -152 190 -268 l0 -38 -167 0 c-266 0 -418 -29 -591 -111
-138 -67 -226 -148 -282 -263 -46 -93 -60 -156 -60 -271 0 -236 142 -425 369
-491 121 -35 220 -39 315 -15 133 35 220 84 314 178 46 46 85 83 88 83 2 0 4
-52 4 -115 l0 -115 68 0 c184 1 330 78 391 209 l26 56 3 528 c3 588 4 579 -66
696 -84 143 -240 243 -446 287 -69 15 -306 27 -356 18z m357 -985 c37 -14 43
-25 42 -84 0 -162 -83 -311 -207 -372 -66 -32 -203 -44 -267 -23 -88 29 -157
140 -159 255 -1 121 115 203 318 225 110 11 242 11 273 -1z"/>
<path d="M10495 4573 c-11 -2 -56 -11 -100 -19 -153 -29 -322 -132 -371 -226
-9 -16 -18 -27 -22 -24 -3 4 -6 64 -6 134 l-1 127 -83 3 c-193 7 -355 -77
-420 -216 l-27 -57 0 -760 0 -760 53 -3 c71 -4 194 22 262 55 70 34 145 105
175 163 39 78 45 135 45 447 0 315 7 377 52 468 83 165 257 231 428 162 35
-15 65 -25 67 -24 1 2 4 118 6 260 2 169 0 260 -7 267 -10 10 -17 11 -51 3z"/>
<path d="M4141 4550 c-128 -34 -213 -99 -257 -195 l-24 -52 -4 -1171 c-5
-1130 -4 -1171 13 -1177 32 -10 203 16 270 41 123 47 205 133 236 249 5 17 7
191 6 388 -1 196 -1 357 2 357 2 0 39 -35 83 -78 89 -87 143 -121 254 -160 64
-22 91 -26 185 -25 365 2 631 229 729 623 41 162 49 474 17 620 -39 174 -97
288 -200 391 -179 179 -446 249 -701 184 -145 -37 -292 -133 -336 -217 -29
-57 -37 -33 -33 105 l4 132 -85 2 c-58 2 -108 -4 -159 -17z m710 -379 c219
-69 330 -279 299 -565 -31 -277 -176 -437 -412 -453 -69 -5 -83 -3 -131 21
-98 48 -178 156 -223 301 -23 77 -27 333 -5 410 67 236 258 352 472 286z"/>
<path d="M6068 4554 c-150 -36 -255 -128 -287 -249 -7 -26 -10 -431 -11 -1180
-1 -627 -1 -1145 -1 -1151 2 -21 32 -24 120 -14 203 25 317 92 377 223 l29 62
0 365 c0 201 2 368 3 372 1 5 37 -27 80 -70 138 -136 305 -201 481 -189 461
34 732 401 731 990 -1 456 -198 745 -570 838 -251 63 -584 -43 -688 -219 l-27
-47 -3 143 -3 142 -87 -1 c-48 0 -113 -7 -144 -15z m753 -407 c178 -85 262
-259 245 -506 -8 -116 -20 -168 -57 -247 -71 -151 -215 -244 -382 -244 -145 0
-278 138 -333 345 -26 97 -26 306 0 390 37 123 94 205 173 252 76 44 112 54
198 50 68 -3 92 -9 156 -40z"/>
<path d="M8420 4544 c-136 -26 -283 -89 -382 -162 -82 -60 -198 -191 -247
-276 -53 -93 -96 -215 -112 -316 -16 -105 -6 -305 21 -398 71 -249 242 -458
465 -569 170 -85 366 -114 535 -78 294 62 500 212 575 418 13 35 21 68 18 71
-16 15 -68 3 -135 -33 -123 -67 -290 -101 -488 -101 -166 0 -275 44 -371 148
-55 61 -118 179 -126 240 l-6 42 580 0 580 0 6 53 c8 85 -10 274 -38 382 -61
240 -188 412 -370 500 -118 57 -204 77 -350 80 -71 2 -141 1 -155 -1z m246
-358 c60 -28 111 -78 143 -141 26 -53 58 -193 48 -218 -6 -16 -35 -17 -347
-17 -285 0 -342 2 -346 14 -8 20 21 126 51 189 83 177 277 251 451 173z"/>
</g>
</svg>
