<?xml version="1.0" standalone="no"?>
<!DOCTYPE svg PUBLIC "-//W3C//DTD SVG 20010904//EN"
 "http://www.w3.org/TR/2001/REC-SVG-20010904/DTD/svg10.dtd">
<svg version="1.0" xmlns="http://www.w3.org/2000/svg"
 width="1200.000000pt" height="660.000000pt" viewBox="0 0 1200.000000 660.000000"
 preserveAspectRatio="xMidYMid meet">
<metadata>
Created by potrace 1.13, written by Peter Selinger 2001-2015
</metadata>
<g transform="translate(0.000000,660.000000) scale(0.100000,-0.100000)"
fill="#000000" stroke="none">
<path d="M8030 5229 c-102 -29 -184 -95 -230 -185 -22 -43 -25 -61 -25 -159 0
-97 3 -116 25 -158 30 -60 105 -131 167 -160 41 -18 66 -22 168 -22 116 0 123
1 187 33 80 39 129 93 159 171 30 81 25 235 -11 304 -32 63 -87 112 -167 149
-53 25 -80 31 -151 34 -48 2 -103 -1 -122 -7z"/>
<path d="M1132 5214 c-200 -29 -357 -109 -493 -250 -150 -156 -218 -316 -227
-532 -8 -218 35 -360 167 -541 51 -70 173 -174 260 -219 117 -62 204 -84 354
-90 84 -3 153 0 175 6 21 6 60 16 87 23 28 7 55 16 62 21 21 16 77 5 81 -16 4
-20 2 -21 -118 -126 -41 -36 -77 -67 -80 -70 -3 -3 -43 -39 -90 -80 -47 -41
-101 -89 -120 -106 -19 -17 -82 -73 -140 -124 -58 -51 -143 -127 -190 -170
-47 -42 -113 -100 -148 -129 -129 -108 -235 -271 -278 -431 -25 -91 -25 -320
0 -410 90 -328 364 -568 694 -609 114 -14 2588 -15 2684 0 192 28 324 94 458
229 78 77 104 112 142 185 59 116 88 220 95 348 23 420 -246 773 -655 856 -29
6 -145 11 -257 11 -258 0 -256 -3 -85 143 36 30 168 145 210 183 19 17 157
140 306 272 149 132 292 266 318 298 26 33 67 100 91 149 247 504 -70 1097
-629 1175 -218 31 -456 -39 -628 -183 -40 -33 -152 -133 -248 -221 -97 -89
-221 -201 -275 -251 -87 -78 -219 -200 -235 -215 -3 -3 -30 -27 -60 -54 -30
-28 -112 -103 -182 -169 -174 -163 -207 -188 -230 -176 -24 13 -23 28 6 80 66
118 96 238 96 379 0 207 -65 378 -209 549 -108 129 -313 238 -491 262 -41 5
-86 11 -100 13 -14 2 -67 -2 -118 -10z m1798 -1474 c0 -5 11 -10 25 -10 29 0
95 -59 95 -85 0 -8 5 -15 10 -15 6 0 10 -18 10 -40 0 -22 5 -40 10 -40 6 0 10
-70 10 -190 0 -129 3 -190 11 -190 6 0 9 -19 8 -49 -2 -30 3 -56 10 -65 7 -9
11 -27 9 -41 -3 -14 1 -30 9 -37 8 -6 13 -24 11 -38 -1 -15 3 -35 11 -44 7 -8
11 -22 8 -30 -3 -8 1 -20 9 -27 10 -8 14 -24 12 -41 -3 -20 0 -28 10 -28 10 0
13 -10 10 -40 -2 -28 0 -40 9 -40 9 0 13 -16 13 -50 0 -27 5 -50 10 -50 6 0
10 -25 10 -55 0 -30 -4 -55 -10 -55 -5 0 -10 -18 -10 -40 0 -29 -4 -40 -15
-40 -9 0 -12 -6 -9 -15 4 -9 -3 -23 -15 -34 -11 -10 -21 -24 -21 -30 0 -20
-50 -63 -65 -57 -9 3 -15 -1 -15 -9 0 -8 -6 -15 -13 -15 -7 0 -23 -9 -36 -21
-14 -14 -31 -19 -47 -16 -17 3 -24 0 -24 -11 0 -9 -7 -13 -20 -9 -10 3 -25 -2
-31 -10 -7 -8 -25 -13 -39 -11 -15 1 -35 -3 -43 -11 -9 -7 -31 -11 -50 -10
-19 2 -42 -2 -50 -9 -14 -12 -69 -14 -352 -13 -11 0 -78 0 -148 0 -88 0 -134
4 -144 12 -8 7 -35 12 -62 10 -32 -1 -51 2 -60 12 -6 8 -21 13 -31 10 -14 -4
-20 0 -20 10 0 10 -6 13 -20 10 -11 -3 -20 0 -20 6 0 6 -6 11 -13 11 -22 0
-67 24 -67 37 0 6 -9 9 -20 6 -14 -4 -20 0 -20 11 0 9 -6 13 -14 10 -20 -8
-90 62 -82 82 3 8 -1 14 -10 14 -11 0 -15 6 -11 20 3 10 -1 24 -9 31 -8 6 -14
29 -14 50 0 22 -4 39 -10 39 -5 0 -10 11 -10 25 0 14 5 25 10 25 6 0 10 26 10
59 0 36 5 63 13 70 8 6 12 23 9 39 -2 17 2 33 11 40 8 7 13 22 10 32 -4 14 0
20 11 20 10 0 13 6 9 15 -3 9 2 24 11 34 9 10 13 21 9 24 -7 7 53 133 74 155
7 7 10 19 7 27 -3 8 4 24 15 36 12 13 21 29 21 36 0 7 5 13 10 13 6 0 10 9 10
20 0 11 6 20 14 20 9 0 12 7 9 20 -4 14 0 20 11 20 9 0 13 6 10 14 -3 8 4 25
15 37 12 13 21 27 21 31 0 5 9 18 20 30 11 12 20 28 20 35 0 7 7 13 15 13 8 0
12 6 9 14 -7 17 78 106 101 106 8 0 15 5 15 10 0 6 9 10 20 10 11 0 20 5 20
11 0 7 12 10 30 7 22 -3 30 0 30 10 0 9 7 13 20 9 14 -3 20 0 20 10 0 11 8 14
30 11 21 -3 30 0 30 10 0 10 9 13 30 10 20 -3 30 0 30 9 0 8 12 13 30 13 17 0
30 5 30 11 0 7 15 10 40 7 29 -2 40 0 40 10 0 9 10 12 29 10 16 -1 36 4 45 11
9 7 27 11 41 9 17 -4 25 -1 25 8 0 10 13 14 40 14 22 0 40 5 40 10 0 6 30 10
70 10 40 0 70 4 70 10 0 6 16 10 35 10 19 0 35 -4 35 -10z"/>
<path d="M2925 3710 c3 -5 8 -10 11 -10 2 0 4 5 4 10 0 6 -5 10 -11 10 -5 0
-7 -4 -4 -10z"/>
<path d="M3000 3675 c13 -14 26 -25 28 -25 3 0 -5 11 -18 25 -13 14 -26 25
-28 25 -3 0 5 -11 18 -25z"/>
<path d="M11147 4653 c-30 -8 -18 -47 16 -51 27 -3 27 -4 27 -78 0 -79 11
-114 35 -114 24 0 35 35 35 114 0 68 2 76 19 76 49 0 68 30 32 50 -19 10 -129
12 -164 3z"/>
<path d="M11361 4646 c-8 -9 -11 -51 -9 -122 3 -101 4 -109 23 -109 17 0 21 8
25 49 l5 49 14 -29 c7 -16 16 -35 20 -43 4 -8 15 -19 25 -25 20 -13 44 12 53
57 8 37 23 34 23 -5 0 -42 12 -61 36 -56 17 3 19 15 22 113 2 103 1 111 -19
123 -19 12 -24 11 -44 -10 -12 -12 -30 -49 -39 -80 -10 -32 -21 -58 -25 -58
-3 0 -15 27 -25 61 -16 57 -44 99 -65 99 -5 0 -14 -6 -20 -14z"/>
<path d="M9985 4414 c-141 -31 -265 -96 -385 -202 -33 -29 -64 -51 -69 -48 -4
3 -11 23 -14 45 -8 59 -40 104 -96 135 -66 35 -181 59 -246 51 -145 -19 -224
-64 -270 -155 l-24 -48 -4 -1313 c-4 -1418 -6 -1354 48 -1425 14 -18 50 -45
81 -60 47 -23 73 -28 158 -32 214 -9 317 51 345 204 8 39 9 152 5 340 -5 178
-4 283 3 287 5 3 22 -6 39 -20 74 -65 181 -120 296 -154 104 -30 321 -37 442
-14 212 39 375 125 513 268 185 192 282 424 320 766 14 125 15 168 5 301 -19
244 -61 420 -137 572 -130 260 -321 419 -585 488 -113 29 -324 36 -425 14z
m178 -577 c131 -59 232 -202 278 -392 31 -129 31 -362 0 -490 -29 -114 -89
-239 -144 -294 -94 -96 -176 -125 -336 -119 -97 3 -113 6 -171 36 -36 17 -77
43 -92 56 -65 58 -132 171 -157 262 -5 21 -16 62 -23 89 -8 32 -13 110 -12
215 0 188 18 279 79 408 58 123 172 223 288 253 18 4 77 7 132 5 82 -3 111 -8
158 -29z"/>
<path d="M5625 4347 c-53 -21 -81 -46 -111 -100 -27 -49 -29 -59 -28 -157 1
-114 12 -152 61 -210 53 -64 49 -64 564 -61 315 2 469 -1 473 -8 4 -5 -37 -59
-90 -118 -156 -174 -228 -254 -280 -314 -27 -30 -178 -200 -336 -377 -356
-399 -373 -420 -417 -512 -31 -67 -35 -84 -35 -160 0 -72 3 -93 25 -135 29
-57 91 -110 149 -125 26 -7 324 -10 907 -8 806 3 870 4 900 21 81 44 117 122
117 257 -1 93 -13 134 -60 189 -60 72 -49 71 -626 71 -312 0 -518 4 -518 9 0
5 6 16 13 23 21 23 188 207 318 353 69 77 210 235 314 350 103 116 220 246
260 290 181 201 207 234 238 295 30 60 32 71 32 170 0 87 -4 112 -21 145 -28
54 -92 101 -154 114 -74 16 -1654 14 -1695 -2z"/>
<path d="M8053 4339 c-105 -13 -179 -63 -220 -147 l-28 -57 -3 -944 c-3 -1054
-6 -1004 66 -1074 73 -71 228 -104 364 -77 104 20 162 60 204 140 17 33 18 86
19 980 1 520 -3 966 -8 992 -19 101 -103 169 -234 188 -75 11 -73 11 -160 -1z"/>
</g>
</svg>
